<svg width="165" height="152" viewBox="0 0 165 152" fill="none" xmlns="http://www.w3.org/2000/svg">
                                    <path d="M58.2965 130.163L40.8712 98.6454C40.8712 98.6454 34.4606 88.9023 27.5414 99.4082L2.42069 143.226C2.42069 143.226 -2.70517 150.908 6.51601 150.908H157.722C157.722 150.908 167.211 152.447 161.817 142.958L136.188 99.6491C136.188 99.6491 130.032 88.3669 121.841 99.9034L116.207 109.392" stroke="#505772" stroke-width="2" stroke-miterlimit="10" stroke-linecap="round" stroke-linejoin="round"></path>
                                    <path d="M47.0278 109.673L73.6742 62.256" stroke="#505772" stroke-width="2" stroke-miterlimit="10" stroke-linecap="round" stroke-linejoin="round"></path>
                                    <path d="M87.5125 62.0017L135.693 143.239C135.693 143.239 141.849 151.189 132.615 150.921" stroke="#505772" stroke-width="2" stroke-miterlimit="10" stroke-linecap="round" stroke-linejoin="round"></path>
                                    <path d="M91.3667 90.7091C91.3667 90.7091 98.8614 96.8922 97.8308 113.247C97.6568 116.031 96.6263 117.61 96.4925 122.481C96.4925 122.481 96.4256 127.246 98.0584 133.054C99.7983 139.224 103.439 146.585 111.094 150.68" stroke="#505772" stroke-width="2" stroke-miterlimit="10" stroke-linecap="round" stroke-linejoin="round"></path>
                                    <path d="M75.2134 77.6334C75.2134 77.6334 86.2279 91.4719 77.261 110.182" stroke="#505772" stroke-width="2" stroke-miterlimit="10" stroke-linecap="round" stroke-linejoin="round"></path>
                                    <path d="M74.3165 117.864C74.3165 117.864 62.78 139.331 78.1575 150.359" stroke="#505772" stroke-width="2" stroke-miterlimit="10" stroke-linecap="round" stroke-linejoin="round"></path>
                                    <path d="M80.5396 65.0798C84.8932 65.0798 88.4224 61.5505 88.4224 57.1969C88.4224 52.8433 84.8932 49.3141 80.5396 49.3141C76.186 49.3141 72.6567 52.8433 72.6567 57.1969C72.6567 61.5505 76.186 65.0798 80.5396 65.0798Z" stroke="#505772" stroke-width="2" stroke-miterlimit="10" stroke-linecap="round" stroke-linejoin="round"></path>
                                    <path d="M80.3389 1V49.3141" stroke="#505772" stroke-width="2" stroke-miterlimit="10" stroke-linecap="round" stroke-linejoin="round"></path>
                                    <path d="M81.4898 8.56165H113.53L107.641 20.7406L114.038 33.5485H80.9812" stroke="#505772" stroke-width="2" stroke-miterlimit="10" stroke-linecap="round" stroke-linejoin="round"></path>
                                </svg>