<?xml version="1.0" encoding="utf-8"?>
<!-- Generator: Adobe Illustrator 26.5.0, SVG Export Plug-In . SVG Version: 6.00 Build 0)  -->
<svg version="1.1" id="body_1" xmlns="http://www.w3.org/2000/svg" xmlns:xlink="http://www.w3.org/1999/xlink" x="0px" y="0px"
	 viewBox="0 0 1358 760" style="enable-background:new 0 0 1358 760;" xml:space="preserve">
<style type="text/css">
	.st0{fill:#FFFFFF;}
</style>
<path class="st0" d="M-41-265.1c4.8-24.9-4.7-42.4-13.5-52.7c-9.5-11.1-20-16.3-20.5-16.5c-23.3-11.5-42.3-7.2-54.2-1.6
	c-12.3,5.8-19.5,14-20.3,15l-1.5,1.5c-23.8-23.7-47-24.8-62.4-21.5c-16.9,3.7-27.9,13.1-28.4,13.5c0,0-0.1,0.1-0.1,0.1
	c-17,16.8-25.3,34.6-24.8,52.9c0.8,25,17.7,42.6,22,46.7c-5.1,3.2-8.6,8.9-8.6,15.4c0,10,8.1,18.2,18.2,18.2c2.2,0,4.2-0.4,6.2-1.1
	c-0.8,2-1.2,4.2-1.2,6.5c0,10,8.1,18.2,18.2,18.2c2,0,4-0.4,5.8-1c-0.4,1.5-0.7,3.1-0.7,4.8c0,10,8.1,18.2,18.2,18.2
	c2,0,3.9-0.3,5.6-0.9c-0.6,1.8-0.9,3.7-0.9,5.6c0,10,8.1,18.2,18.2,18.2c6.4,0,12-3.3,15.3-8.4c1.8,0.9,3.7,1.6,5.7,1.8
	c1,0.2,2,0.3,3,0.3c3.4,0,6.7-1,9.6-2.8c4.1-2.7,11.3-11.8,6.5-21.3c0.8,0.2,1.5,0.4,2.4,0.5c1,0.2,2,0.3,3,0.3c3.4,0,6.7-1,9.6-2.8
	c4-2.7,11.1-11.6,6.7-21c1,0.3,2,0.5,3,0.7c1,0.2,2,0.3,3,0.3c3.4,0,6.7-1,9.6-2.8c3.9-2.6,10.7-11.1,7.1-20.1
	c1.3,0.5,2.7,0.9,4.1,1.1c1,0.2,2,0.3,3.1,0.3c3.4,0,6.7-1,9.6-2.8c4.2-2.8,11.5-12.1,6.3-21.7c-0.8-1.7-1.8-3.3-2.8-4.8
	C-44.7-240.7-41.2-264.2-41-265.1z M-249.2-212.4c0-7.8,6.4-14.2,14.2-14.2s14.2,6.4,14.2,14.2c0,7.8-6.4,14.2-14.2,14.2
	S-249.2-204.6-249.2-212.4z M-212-174.7c-7.8,0-14.2-6.4-14.2-14.2c0-7.8,6.4-14.2,14.2-14.2c7.8,0,14.2,6.4,14.2,14.2
	c0,3.1-1,6-2.7,8.3c-0.9,0.8-1.8,1.7-2.5,2.7C-205.5-175.9-208.6-174.7-212-174.7z M-202.8-166.8c0-3.1,1-6,2.7-8.3
	c0.9-0.8,1.8-1.7,2.5-2.7c2.4-2,5.5-3.2,8.9-3.2c7.8,0,14.2,6.4,14.2,14.2c0,7.8-6.4,14.2-14.2,14.2
	C-196.4-152.7-202.8-159-202.8-166.8z M-165.7-129.8c-7.8,0-14.2-6.4-14.2-14.2s6.4-14.2,14.2-14.2s14.2,6.4,14.2,14.2
	c0,1.9-0.4,3.7-1.1,5.4c-0.1,0.1-0.3,0.2-0.4,0.4c-0.3,0.4-0.4,0.8-0.4,1.2C-155.8-132.7-160.4-129.8-165.7-129.8z M-66.8-206
	c-2.9,1.9-6.3,2.6-9.8,2c-2.9-0.4-5.1-1.3-9.6-5.2c0,0,0,0,0-0.1c-0.2-0.2-0.3-0.3-0.5-0.4c-0.1-0.1-0.3-0.2-0.4-0.4l-37.3-37.3
	c-0.8-0.8-2-0.8-2.8,0c-0.8,0.8-0.8,2,0,2.8l37.4,37.4c0,0,0.1,0.1,0.1,0.1c0.3,0.2,0.5,0.5,0.8,0.7c1.4,1.7,2.5,3.5,3.5,5.5
	c4.3,8-3.3,15.4-5,16.5c-2.9,1.9-6.3,2.6-9.8,2c-2.7-0.4-4.7-1.2-8.5-4.2c0,0-0.1,0-0.1-0.1c-0.6-0.5-1.3-1.1-2.1-1.8l-37.3-37.4
	c-0.8-0.8-2-0.8-2.8,0s-0.8,2,0,2.8l37.4,37.4c0,0,0.1,0.1,0.1,0.1c0.8,0.7,1.5,1.3,2.2,1.9c1.4,1.7,2.6,3.6,3.5,5.5
	c0,0,0,0.1,0,0.1c4.3,8-3.3,15.4-4.9,16.5c-2.9,1.9-6.3,2.6-9.8,2c-2.3-0.3-4.2-1-7.2-3.2c-0.1-0.1-0.1-0.2-0.2-0.3
	c-0.3-0.3-0.6-0.5-0.9-0.6c-0.7-0.6-1.5-1.2-2.3-1.9l-37.3-37.4c-0.8-0.8-2-0.8-2.8,0c-0.8,0.8-0.8,2,0,2.8l37.4,37.4
	c0,0,0.1,0.1,0.1,0.1c1.2,1.1,2.3,2,3.3,2.8c1.2,1.6,2.3,3.3,3.2,5.2c4.3,8.1-3.3,15.4-5,16.5c-2.9,1.9-6.3,2.6-9.8,2
	c-1.6-0.2-3.1-0.7-4.5-1.4c0.7-1.9,1.1-4,1.1-6.2c0-10-8.1-18.2-18.2-18.2c-2,0-3.9,0.3-5.6,0.9c0.6-1.8,0.9-3.7,0.9-5.6
	c0-10-8.1-18.2-18.2-18.2c-2,0-4,0.4-5.8,1c0.4-1.5,0.7-3.1,0.7-4.8c0-10-8.1-18.2-18.2-18.2c-2.2,0-4.2,0.4-6.2,1.1
	c0.8-2,1.2-4.2,1.2-6.5c0-10-8.1-18.2-18.2-18.2c-2,0-3.9,0.3-5.7,0.9c-0.1-0.1-0.2-0.2-0.3-0.3c-0.2-0.2-20.8-18.5-21.6-44.7
	c-0.5-17.1,7.4-33.9,23.5-49.8c0.8-0.7,11.3-9.3,26.8-12.6c20.9-4.5,40.6,2.4,58.6,20.4l-42,42c-0.4,0.4-0.6,1-0.6,1.5
	c0,0.6,0.3,1.1,0.7,1.5c22.6,18.2,42.7,1.6,42.9,1.5c0,0,0.1-0.1,0.1-0.1l22.4-22.4l37.9,38.3l26.9,26.3c1.4,1.7,2.6,3.6,3.6,5.7
	C-57.5-214.5-65.1-207.1-66.8-206z M-63.7-232.1l-25.8-25.2l-39.1-39.4c-0.6-0.6-1.5-0.7-2.2-0.4c-0.4,0-0.9,0.2-1.2,0.6l-23.4,23.4
	c-1.1,0.9-17.3,13.3-36-0.2l44.8-44.8c0,0,0.1-0.1,0.1-0.1c0.1-0.1,7.1-8.4,19.1-14c16.1-7.5,33.1-6.9,50.6,1.7
	c0.4,0.2,40.4,20.2,31.8,64.9C-45-265.5-48.5-242.7-63.7-232.1z"/>
<path class="st0" d="M0,0v760h1358V0H0z M582.5,401.4c0-7.8,6.4-14.2,14.2-14.2s14.2,6.4,14.2,14.2c0,7.8-6.4,14.2-14.2,14.2
	S582.5,409.2,582.5,401.4z M619.8,439.1c-7.8,0-14.2-6.4-14.2-14.2c0-7.8,6.4-14.2,14.2-14.2c7.8,0,14.2,6.4,14.2,14.2
	c0,3.1-1,6-2.7,8.3c-0.9,0.8-1.8,1.7-2.5,2.7C626.3,437.9,623.2,439.1,619.8,439.1z M629,446.9c0-3.1,1-6,2.7-8.3
	c0.9-0.8,1.8-1.7,2.5-2.7c2.4-2,5.5-3.2,8.9-3.2c7.8,0,14.2,6.4,14.2,14.2c0,7.8-6.4,14.2-14.2,14.2
	C635.3,461.1,629,454.8,629,446.9z M679.1,475.2c-0.1,0.1-0.3,0.2-0.4,0.4c-0.3,0.4-0.4,0.8-0.4,1.2c-2.4,4.3-7.1,7.3-12.4,7.3
	c-7.8,0-14.2-6.4-14.2-14.2s6.4-14.2,14.2-14.2s14.2,6.4,14.2,14.2C680.2,471.7,679.8,473.5,679.1,475.2z M765,407.8
	c-2.9,1.9-6.3,2.6-9.8,2c-2.9-0.4-5.1-1.3-9.6-5.2c0,0,0,0,0-0.1c-0.2-0.2-0.3-0.3-0.5-0.4c-0.1-0.1-0.3-0.2-0.4-0.4l-37.3-37.3
	c-0.8-0.8-2-0.8-2.8,0c-0.8,0.8-0.8,2,0,2.8l37.4,37.4c0,0,0.1,0.1,0.1,0.1c0.3,0.2,0.5,0.5,0.8,0.7c1.4,1.7,2.5,3.5,3.5,5.5
	c4.3,8-3.3,15.4-5,16.5c-2.9,1.9-6.3,2.6-9.8,2c-2.7-0.4-4.7-1.2-8.5-4.2c0,0-0.1,0-0.1-0.1c-0.6-0.5-1.3-1.1-2.1-1.8l-37.3-37.4
	c-0.8-0.8-2-0.8-2.8,0s-0.8,2,0,2.8l37.4,37.4c0,0,0.1,0.1,0.1,0.1c0.8,0.7,1.5,1.3,2.2,1.9c1.4,1.7,2.6,3.6,3.5,5.5
	c0,0,0,0.1,0,0.1c4.3,8-3.3,15.4-4.9,16.5c-2.9,1.9-6.3,2.6-9.8,2c-2.3-0.3-4.2-1-7.2-3.2c-0.1-0.1-0.1-0.2-0.2-0.3
	c-0.3-0.3-0.6-0.5-0.9-0.6c-0.7-0.6-1.5-1.2-2.3-1.9l-37.3-37.4c-0.8-0.8-2-0.8-2.8,0c-0.8,0.8-0.8,2,0,2.8l37.4,37.4
	c0,0,0.1,0.1,0.1,0.1c1.2,1.1,2.3,2,3.3,2.8c1.2,1.6,2.3,3.3,3.2,5.2c4.3,8.1-3.3,15.4-5,16.5c-2.9,1.9-6.3,2.6-9.8,2
	c-1.6-0.2-3.1-0.7-4.5-1.4c0.7-1.9,1.1-4,1.1-6.2c0-10-8.1-18.2-18.2-18.2c-2,0-3.9,0.3-5.6,0.9c0.6-1.8,0.9-3.7,0.9-5.6
	c0-10-8.1-18.2-18.2-18.2c-2,0-4,0.4-5.8,1c0.4-1.5,0.7-3.1,0.7-4.8c0-10-8.1-18.2-18.2-18.2c-2.2,0-4.2,0.4-6.2,1.1
	c0.8-2,1.2-4.2,1.2-6.5c0-10-8.1-18.2-18.2-18.2c-2,0-3.9,0.3-5.7,0.9c-0.1-0.1-0.2-0.2-0.3-0.3c-0.2-0.2-20.8-18.5-21.6-44.7
	c-0.5-17.1,7.4-33.9,23.5-49.8c0.8-0.7,11.3-9.3,26.8-12.6c20.9-4.5,40.6,2.4,58.6,20.4l-42,42c-0.4,0.4-0.6,1-0.6,1.5
	c0,0.6,0.3,1.1,0.7,1.5c22.6,18.2,42.7,1.6,42.9,1.5c0,0,0.1-0.1,0.1-0.1l22.4-22.4l37.9,38.3l26.9,26.3c1.4,1.7,2.6,3.6,3.6,5.7
	C774.3,399.3,766.7,406.7,765,407.8z M786.8,348c0,0.2-3.5,23.1-18.7,33.6l-25.8-25.2L703.2,317c-0.6-0.6-1.5-0.7-2.2-0.4
	c-0.4,0-0.9,0.2-1.2,0.6l-23.4,23.4c-1.1,0.9-17.3,13.3-36-0.2l44.8-44.8c0,0,0.1-0.1,0.1-0.1c0.1-0.1,7.1-8.4,19.1-14
	c16.1-7.5,33.1-6.9,50.6,1.7C755.4,283.2,795.4,303.2,786.8,348z"/>
</svg>
