<svg width="153" height="152" viewBox="0 0 153 152" fill="none" xmlns="http://www.w3.org/2000/svg">
                                    <path d="M39.3924 141.833H147.01C147.01 141.833 151.341 141.075 151.341 146.164C151.341 146.164 151.846 150.429 145.748 150.429H82.6519C82.6519 150.429 77.6165 144.888 71.5181 151H5.56603C5.56603 151 -0.79801 149.791 1.50048 144.437C1.50048 144.437 2.00532 141.833 7.61206 141.833H25.4155" stroke="#505772" stroke-width="2" stroke-miterlimit="10" stroke-linecap="round" stroke-linejoin="round"></path>
                                    <path d="M142.174 141.833V133.183C142.174 133.183 125.885 130.646 110.885 123.006C110.885 123.006 88.7504 109.268 76.0356 125.291C76.0356 125.291 68.4093 111.049 43.9762 121.478C43.9762 121.478 22.8646 133.183 10.3889 132.16V141.314" stroke="#505772" stroke-width="2" stroke-miterlimit="10" stroke-linecap="round" stroke-linejoin="round"></path>
                                    <path d="M76.4604 141.912V66.6067" stroke="#505772" stroke-width="2" stroke-miterlimit="10" stroke-linecap="round" stroke-linejoin="round"></path>
                                    <path d="M76.4607 102.732C76.4607 102.732 75.783 91.8769 90.0257 83.0549C90.0257 83.0549 88.6706 63.0461 111.563 56.9344C111.563 56.9344 120.039 54.9017 127.16 57.1072C127.16 57.1072 124.45 81.3676 103.75 84.7555C103.75 84.7555 98.6618 86.4562 89.3349 83.5997" stroke="#505772" stroke-width="2" stroke-miterlimit="10" stroke-linecap="round" stroke-linejoin="round"></path>
                                    <path d="M76.1153 97.6429C76.1153 97.6429 72.8868 90.0167 64.5829 84.0778C64.5829 84.0778 63.4004 50.836 26.4252 57.7846C26.4252 57.7846 25.575 78.8165 49.9948 84.5827C49.9948 84.5827 57.3951 85.433 65.885 85.2603" stroke="#505772" stroke-width="2" stroke-miterlimit="10" stroke-linecap="round" stroke-linejoin="round"></path>
                                    <path d="M84.1799 66.6466H69.047C67.9974 66.6466 67.1338 65.7963 67.1338 64.7334V54.6891C67.1338 53.6395 67.9841 52.7759 69.047 52.7759H84.1799C85.2295 52.7759 86.0931 53.6262 86.0931 54.6891V64.7334C86.0798 65.7963 85.2295 66.6466 84.1799 66.6466Z" stroke="#505772" stroke-width="2" stroke-miterlimit="10" stroke-linecap="round" stroke-linejoin="round"></path>
                                    <path d="M76.5403 27.5988V52.7892" stroke="#505772" stroke-width="2" stroke-miterlimit="10" stroke-linecap="round" stroke-linejoin="round"></path>
                                    <path d="M87.6606 4.1621C84.3258 2.1559 80.433 1 76.2612 1C64.0512 1 54.1531 10.8981 54.1531 23.108C54.1531 31.4384 58.7634 38.6927 65.5792 42.4526C65.4064 42.9442 65.2868 43.4491 65.2868 44.0071V48.7104C65.2868 51.2347 67.3329 53.2941 69.8705 53.2941H82.6518C85.1761 53.2941 87.2355 51.248 87.2355 48.7104V44.0071C87.2355 43.4624 87.1292 42.9442 86.9432 42.4526C93.7457 38.6794 98.3692 31.4384 98.3692 23.108C98.3692 19.7334 97.6119 16.5447 96.27 13.6882" stroke="#505772" stroke-width="2" stroke-miterlimit="10" stroke-linecap="round" stroke-linejoin="round"></path>
                                </svg>