<svg width="172" height="56" viewBox="0 0 172 56" fill="none" xmlns="http://www.w3.org/2000/svg">
<g clip-path="url(#clip0_1678_37892)">
<path d="M25.6821 55.1885C17.0232 52.8205 10.6523 44.902 10.6523 35.5129C10.6523 26.6142 16.2886 19.1033 24.1302 16.2456C18.1672 19.8375 14.0817 26.3688 14.0817 33.7981C14.0817 41.31 18.1667 47.9225 24.2109 51.4328C24.6203 52.7384 25.1098 53.9629 25.6821 55.1885Z" fill="#6E7ABA"/>
<path fill-rule="evenodd" clip-rule="evenodd" d="M0.0861654 36.2432C-0.0974216 37.6163 0.00872403 38.9922 0.439562 40.3304C0.564945 40.7287 0.716601 41.1158 0.893145 41.491L8.44722 38.5804C7.96038 38.1011 7.5533 37.5703 7.23653 36.9911L0.0861654 36.2432ZM6.6039 35.2913C6.59055 35.2296 6.57806 35.1674 6.56645 35.1048C6.38368 34.1365 6.42582 33.1314 6.66728 32.1179L2.41999 30.6658C1.50601 31.9476 0.83102 33.2876 0.429476 34.6457L6.6039 35.2913ZM3.16561 29.6967L7.00844 31.0105C7.29283 30.2562 7.68198 29.5029 8.1654 28.7623L5.68051 27.1715C4.73602 27.9701 3.89371 28.8165 3.16561 29.6967ZM6.56505 26.4605L8.79524 27.8736C9.36685 27.1269 10.0331 26.3985 10.7826 25.7007L9.40913 24.5791C8.3916 25.1607 7.44092 25.7908 6.56505 26.4605ZM10.3204 24.0808L11.5071 25.0577C12.6275 24.1094 13.9043 23.2288 15.3065 22.4504C15.3876 22.369 15.4686 22.2677 15.5497 22.1663C15.6318 22.0635 15.7141 21.9606 15.7966 21.8784C13.8302 22.4591 11.9943 23.2055 10.3204 24.0808ZM10.1648 39.8775L1.84096 43.0854C3.31408 45.1054 5.59597 46.6854 8.39413 47.7286L13.3233 41.1358C12.148 40.836 11.0846 40.4135 10.1648 39.8775ZM15.723 41.5596L10.6321 48.4207C12.9794 49.0093 15.5895 49.2638 18.3282 49.1399L19.935 41.5744C18.4591 41.7074 17.0442 41.6993 15.723 41.5596ZM22.7861 41.1533L21.1001 48.8888C22.4223 48.7096 23.7631 48.4433 25.1084 48.0852C25.5068 47.9523 25.8917 47.8332 26.2687 47.7166C26.8191 47.5463 27.3525 47.3813 27.8855 47.1862L28.9478 39.1054C27.7226 39.6768 26.4964 40.1667 25.1084 40.5743C24.327 40.8044 23.5516 40.9971 22.7861 41.1533Z" fill="#F58634"/>
<path d="M36.9141 16.7909C37.3565 16.6773 37.9073 16.6773 38.3496 16.5651C38.792 16.4515 39.2337 16.4515 39.5657 16.4515C39.8963 16.3387 40.2276 16.3387 40.4477 16.3387C40.779 16.3387 40.8901 16.2258 41.0012 16.2258C41.2214 16.2258 41.4422 16.4508 41.4422 16.7902V33.1601C41.4422 33.3852 41.3325 33.6117 41.1109 33.6117C40.8908 33.6117 40.6686 33.6117 40.5595 33.7253C40.338 33.7253 40.1171 33.7253 39.897 33.7253C39.7859 33.7253 39.5664 33.7253 39.4546 33.7253C39.2344 33.7253 39.124 33.7253 39.124 33.7253C38.9038 33.7253 38.7927 33.6117 38.7927 33.3859V18.9358C38.7927 18.5964 38.6823 18.3713 38.6823 18.2577C38.5712 18.032 38.5712 17.9198 38.4621 17.8062C38.351 17.6933 38.2406 17.6933 38.1309 17.5804C37.9093 17.5804 37.8003 17.5804 37.5781 17.5804C37.3579 17.5804 37.1371 17.5804 37.0259 17.5804L36.9141 16.7909ZM47.2954 16.0007C47.4051 16.0007 47.5156 16.1136 47.6267 16.1136C47.6267 16.2272 47.7357 16.2272 47.7357 16.3394L57.6753 29.7742L57.344 16.678C57.344 16.5651 57.4537 16.4523 57.5642 16.4523C57.6753 16.4523 58.0066 16.4523 58.2267 16.3394C58.558 16.3394 58.7802 16.3394 59.1108 16.3394C59.2205 16.3394 59.331 16.4523 59.331 16.5651L59.0004 30.7895V33.4995C59.0004 33.6117 58.8893 33.7253 58.7802 33.7253C58.5587 33.7253 58.3378 33.7253 58.1177 33.7253C57.8961 33.7253 57.6753 33.7253 57.4537 33.7253H57.344C57.2336 33.7253 57.2336 33.6117 57.1225 33.4995L47.185 20.0646L47.5156 33.4995C47.5156 33.6117 47.5156 33.7253 47.2954 33.7253C47.185 33.7253 46.853 33.7253 46.6315 33.7253C46.3009 33.7253 46.08 33.8374 45.7495 33.8374C45.6383 33.8374 45.5293 33.7253 45.5293 33.6117L45.9696 18.2577L44.7556 16.6773C44.7556 16.6773 44.6452 16.5644 44.6452 16.4515C44.6452 16.3387 44.7556 16.3387 44.9758 16.2265C45.0869 16.2265 45.3071 16.2265 45.5293 16.1129C45.7495 16.1129 45.9696 16.1129 46.3009 16.1129C46.5224 16.1129 46.7433 16.1129 46.9634 16C47.0739 16.0007 47.2954 16.0007 47.2954 16.0007ZM71.5908 20.629C71.4797 20.0646 71.3707 19.6131 71.1484 19.1608C70.9283 18.8222 70.597 18.4835 70.2657 18.2577C70.0442 18.032 69.6032 17.8062 69.2726 17.6933C68.8302 17.5804 68.3885 17.4682 67.9461 17.4682C67.5051 17.4682 67.0634 17.5811 66.7321 17.6933C66.2898 17.8062 65.9585 17.9191 65.6272 18.2577C65.2959 18.4835 65.0751 18.71 64.8536 19.1608C64.6334 19.4995 64.523 19.9517 64.523 20.5162C64.523 20.9677 64.6334 21.4192 64.8536 21.7579C65.0751 22.0966 65.4071 22.3216 65.7376 22.5481C66.1786 22.8868 66.5113 23.1125 67.0627 23.2254C67.5051 23.4512 68.0559 23.6777 68.4982 23.7899C69.0504 24.0156 69.7129 24.3543 70.2657 24.5808C70.8172 24.8065 71.3707 25.1452 71.811 25.4839C72.2534 25.9354 72.5839 26.387 72.9159 26.8385C73.1374 27.4029 73.3583 28.0802 73.3583 28.7576C73.3583 29.4356 73.2472 30.1129 73.027 30.5645C72.8069 31.1289 72.5846 31.5804 72.2541 31.9198C71.9228 32.3713 71.5915 32.7093 71.1491 32.9351C70.7081 33.1608 70.156 33.3866 69.7136 33.6124C69.1615 33.726 68.6101 33.8382 68.0572 33.9503C67.5058 33.9503 67.0641 34.0639 66.5127 34.0639C65.8488 34.0639 65.1862 33.9503 64.5237 33.9503C63.9715 33.8382 63.3097 33.726 62.6471 33.4995C62.536 33.4995 62.536 33.4995 62.4256 33.3859C62.4256 33.3859 62.4256 33.2737 62.3159 33.2737C62.3159 33.048 62.3159 32.7086 62.3159 32.3706C62.3159 31.9191 62.3159 31.5804 62.3159 31.1282C62.2054 30.6766 62.2054 30.3387 62.2054 30C62.2054 29.6607 62.2054 29.4349 62.2054 29.4349L62.9784 29.322C62.9784 29.8864 63.1986 30.4509 63.4194 30.9017C63.641 31.3539 63.8618 31.6926 64.3035 31.9184C64.6341 32.2563 65.0765 32.3699 65.5175 32.5957C65.9599 32.7079 66.5127 32.7079 66.953 32.7079C67.5065 32.7079 67.9468 32.7079 68.3892 32.5957C68.8316 32.4828 69.2733 32.257 69.6046 32.0306C69.9358 31.8048 70.2671 31.4661 70.3762 31.1275C70.5984 30.6759 70.7088 30.2244 70.7088 29.6599C70.7088 29.2084 70.5984 28.7569 70.3762 28.5311C70.1567 28.1931 69.9358 27.8545 69.4941 27.628C69.1629 27.4022 68.7205 27.1757 68.2781 26.95C67.8371 26.7249 67.285 26.6113 66.8439 26.3862C66.18 26.1605 65.6286 25.8218 65.0765 25.5953C64.5237 25.3696 63.9715 25.0309 63.5298 24.5801C63.0875 24.2414 62.7569 23.7892 62.4256 23.2247C62.2054 22.661 61.9832 21.983 61.9832 21.1935C61.9832 20.2904 62.2047 19.4995 62.536 18.8222C62.9784 18.2577 63.4187 17.6933 63.9715 17.2418C64.6341 16.9031 65.2966 16.6773 66.0703 16.4508C66.8433 16.338 67.6149 16.2258 68.3885 16.2258C68.9413 16.2258 69.4934 16.2258 70.0442 16.3387C70.7081 16.4515 71.2595 16.5644 71.8117 16.6773C71.9221 16.6773 72.0332 16.6773 72.0332 16.7909C72.1422 16.9038 72.1422 16.9038 72.1422 17.016C72.1422 17.2418 72.1422 17.4682 72.2534 17.8062C72.2534 18.2577 72.2534 18.5964 72.2534 18.9358C72.2534 19.3873 72.2534 19.726 72.2534 19.9517C72.2534 20.2904 72.3638 20.4033 72.3638 20.5162L71.5908 20.629ZM80.2039 25.7096C80.9769 25.596 81.6394 25.4839 82.1922 25.3703C82.8548 25.1452 83.2958 24.9194 83.7375 24.5808C84.0681 24.2421 84.4 23.7899 84.6216 23.339C84.8417 22.7746 84.9522 22.0973 84.9522 21.42C84.9522 20.7419 84.8417 20.1775 84.6216 19.726C84.4 19.1615 84.0681 18.71 83.7375 18.3713C83.4069 18.0319 82.9645 17.8069 82.4124 17.5811C81.861 17.4682 81.3075 17.3553 80.6456 17.3553C80.2032 17.3553 79.872 17.3553 79.7629 17.4689C79.5414 17.4689 79.4316 17.694 79.4316 18.0327V33.1601C79.4316 33.3852 79.2101 33.6117 78.9892 33.6117C78.8788 33.6117 78.6587 33.6117 78.5469 33.7253C78.3267 33.7253 78.1045 33.7253 77.8843 33.7253C77.7739 33.7253 77.5537 33.7253 77.4419 33.7253C77.2225 33.7253 77.1113 33.7253 77.0016 33.7253C76.7801 33.7253 76.669 33.6117 76.669 33.3859V18.71C76.669 18.2577 76.5599 17.9198 76.4488 17.8069C76.2286 17.5811 75.8974 17.4689 75.5661 17.4689C75.3446 17.4689 75.1237 17.5818 74.9035 17.5818V16.7916C75.6758 16.5658 76.6696 16.4523 77.5537 16.3394C78.5469 16.2265 79.6518 16.1136 80.9769 16.1136C81.5304 16.1136 82.0818 16.2272 82.6326 16.2272C83.1861 16.3401 83.7375 16.3401 84.1792 16.5658C84.7306 16.6787 85.1723 16.7916 85.6147 17.0174C86.0571 17.2432 86.4974 17.5818 86.8294 17.9205C87.16 18.2584 87.3822 18.7107 87.6023 19.1622C87.8239 19.6145 87.8239 20.1782 87.8239 20.8562C87.8239 21.8715 87.6023 22.7753 87.2711 23.4526C86.8287 24.1299 86.2773 24.6944 85.5036 25.1466C84.841 25.5975 84.0674 25.9361 83.1854 26.1619C82.1916 26.3877 81.3068 26.5005 80.3137 26.5005L80.2039 25.7096ZM101.517 17.016C101.517 16.7909 101.629 16.6773 101.848 16.5644C102.07 16.5644 102.179 16.5644 102.401 16.5644C102.622 16.5644 102.844 16.4508 102.953 16.4508C103.174 16.4508 103.395 16.4508 103.506 16.4508C103.615 16.4508 103.727 16.4508 103.837 16.4508C104.057 16.4508 104.168 16.5644 104.168 16.7902V33.1601C104.168 33.3852 104.057 33.6117 103.837 33.6117C103.727 33.6117 103.506 33.6117 103.284 33.7253C103.064 33.7253 102.953 33.7253 102.732 33.7253C102.511 33.7253 102.401 33.7253 102.179 33.7253C102.07 33.7253 101.959 33.7253 101.848 33.7253C101.629 33.7253 101.517 33.6117 101.517 33.3859V25.0316L93.1242 25.1452V33.1601C93.1242 33.3852 93.0152 33.6117 92.7937 33.6117C92.6839 33.6117 92.4624 33.6117 92.3527 33.7253C92.1311 33.7253 91.9103 33.7253 91.6887 33.7253C91.5797 33.7253 91.3575 33.7253 91.2477 33.7253C91.0262 33.7253 90.9171 33.7253 90.8053 33.7253C90.5852 33.7253 90.4748 33.6117 90.4748 33.3859V18.9358C90.4748 18.5964 90.4748 18.3713 90.4748 18.2577C90.3636 18.032 90.2546 17.9198 90.2546 17.8062C90.1435 17.6933 90.0331 17.6933 89.8122 17.5804C89.7011 17.5804 89.5907 17.5804 89.3698 17.5804C89.149 17.5804 88.9274 17.5804 88.7073 17.5804V16.7902C89.1497 16.6766 89.7004 16.6766 90.1428 16.5644C90.5852 16.4508 91.0255 16.4508 91.3568 16.4508C91.688 16.338 92.0214 16.338 92.2409 16.338C92.461 16.338 92.6832 16.2251 92.6832 16.2251C93.0145 16.2251 93.1242 16.4501 93.1242 16.7895V23.9035H101.517V17.016ZM111.457 31.354C111.457 31.5797 111.457 31.6926 111.457 31.9191C111.457 32.0313 111.567 32.1449 111.567 32.1449C111.677 32.257 111.788 32.257 111.899 32.257C112.008 32.3699 112.229 32.3699 112.45 32.3699H114.328C115.1 32.3699 115.764 32.3699 116.205 32.257C116.647 32.257 117.089 32.1449 117.421 31.9191C117.751 31.8055 118.083 31.4668 118.303 31.016C118.525 30.6773 118.856 30.0007 119.187 29.3227L119.849 29.4356C119.849 29.5485 119.849 29.6607 119.849 30.0007C119.739 30.2251 119.739 30.5645 119.628 30.9024C119.628 31.3547 119.519 31.6933 119.408 32.1456C119.297 32.4835 119.188 32.8229 119.188 33.1608C119.077 33.4995 118.857 33.6124 118.414 33.6124C118.084 33.6124 117.641 33.6124 117.199 33.6124C116.758 33.6124 116.205 33.6124 115.543 33.6124C114.991 33.6124 114.329 33.6124 113.666 33.6124C113.002 33.6124 112.231 33.6124 111.458 33.6124H109.139C109.028 33.6124 108.917 33.5002 108.807 33.5002C108.807 33.3866 108.807 33.2744 108.807 33.2744V19.1615C108.807 18.5971 108.698 18.2584 108.475 18.1463C108.256 18.0327 107.924 17.9205 107.593 17.9205C107.482 17.9205 107.262 17.9205 107.041 17.9205L106.931 17.1303C107.151 17.1303 107.373 17.0167 107.814 17.0167C108.144 16.9038 108.587 16.9038 109.029 16.7916C109.471 16.7916 109.802 16.678 110.243 16.678C110.574 16.678 110.906 16.5651 111.127 16.5651H116.318C116.648 16.5651 116.98 16.5651 117.311 16.5651C117.753 16.5651 118.084 16.5651 118.527 16.5651C118.636 16.5651 118.747 16.678 118.747 16.7909C118.747 16.9038 118.857 17.1296 118.857 17.3546C118.857 17.5804 118.857 17.8062 118.857 18.0312C118.857 18.3706 118.857 18.5957 118.857 18.935C118.857 19.1601 118.966 19.3866 118.966 19.6124C118.966 19.8374 118.966 20.0639 118.966 20.2897C118.966 20.4026 118.966 20.5155 118.966 20.5155L118.195 20.6283C118.084 19.951 117.864 19.3866 117.753 19.0479C117.531 18.5957 117.422 18.3706 117.09 18.1448C116.868 18.0312 116.537 17.9191 116.097 17.9191C115.766 17.8062 115.213 17.8062 114.55 17.8062H112.121C111.901 17.8062 111.79 17.8062 111.678 17.8062C111.569 17.8062 111.569 17.9191 111.569 17.9191C111.458 17.9191 111.458 18.0312 111.458 18.0312C111.458 18.1448 111.458 18.257 111.458 18.3706V24.3536C112.231 24.2407 113.003 24.2407 113.556 24.2407C114.219 24.1271 114.881 24.1271 115.324 24.1271C115.766 24.1271 116.206 24.0142 116.428 24.0142C116.759 24.0142 116.98 24.0142 116.98 24.0142C117.311 24.0142 117.423 24.1271 117.423 24.4658C117.423 24.6915 117.423 24.8051 117.423 25.0302C117.423 25.256 117.312 25.4824 117.312 25.7082L111.46 25.4824V31.354H111.457ZM126.144 24.8065C126.917 24.6929 127.58 24.693 128.132 24.4672C128.685 24.3543 129.125 24.0156 129.567 23.7899C129.898 23.4512 130.23 22.9997 130.451 22.5481C130.56 22.0966 130.671 21.42 130.671 20.7419C130.671 20.1775 130.56 19.726 130.34 19.2744C130.23 18.8222 129.898 18.4835 129.567 18.1456C129.125 17.9198 128.685 17.6933 128.242 17.5811C127.689 17.4682 127.137 17.3553 126.586 17.3553C126.144 17.3553 125.923 17.3553 125.702 17.4689C125.482 17.5818 125.372 17.694 125.372 18.0327V33.1601C125.372 33.3852 125.261 33.6117 125.041 33.6117C124.93 33.6117 124.71 33.6117 124.489 33.7253C124.378 33.7253 124.158 33.7253 123.936 33.7253C123.825 33.7253 123.605 33.7253 123.493 33.7253C123.273 33.7253 123.163 33.7253 123.053 33.7253C122.831 33.7253 122.722 33.6117 122.722 33.3859V18.71C122.722 18.2577 122.611 17.9198 122.391 17.694C122.28 17.5811 121.949 17.4689 121.617 17.4689C121.396 17.4689 121.175 17.4689 120.955 17.5818V16.7916C121.838 16.5658 122.831 16.4523 123.825 16.3394C124.93 16.2265 125.923 16.1136 127.028 16.1136C127.471 16.1136 127.912 16.2272 128.464 16.2272C129.017 16.2272 129.457 16.3401 130.01 16.4523C130.453 16.5658 130.893 16.678 131.335 16.9045C131.778 17.0174 132.218 17.3561 132.551 17.5818C132.882 17.9205 133.103 18.2584 133.322 18.7107C133.545 19.1622 133.545 19.7267 133.545 20.2911C133.545 20.9684 133.545 21.5328 133.322 21.9837C133.103 22.4359 132.882 22.8868 132.551 23.2254C132.219 23.5648 131.778 23.9035 131.335 24.2421C130.893 24.4672 130.453 24.6937 130.01 24.9194C130.23 25.0316 130.453 25.0316 130.783 25.1452C131.003 25.2574 131.335 25.4832 131.556 25.596C131.777 25.8218 131.998 26.0483 132.329 26.387C132.55 26.612 132.66 26.9507 132.771 27.4029L133.876 30.7895C133.985 31.2411 134.096 31.5797 134.317 31.9191C134.427 32.1449 134.538 32.3706 134.649 32.4835C134.759 32.5964 134.98 32.7086 135.09 32.8222C135.311 32.8222 135.532 32.8222 135.752 32.8222V33.6117C135.643 33.6117 135.422 33.7253 135.201 33.7253C134.98 33.7253 134.759 33.8374 134.538 33.8374C134.317 33.8374 134.207 33.8374 133.985 33.8374C133.876 33.8374 133.654 33.8374 133.654 33.8374C133.323 33.8374 132.992 33.8375 132.772 33.7253C132.551 33.7253 132.329 33.6117 132.109 33.3859C131.999 33.1608 131.778 32.9344 131.667 32.7086C131.447 32.3706 131.336 32.0313 131.224 31.5797L130.231 27.9674C130.12 27.5151 129.9 27.0643 129.68 26.7256C129.457 26.4998 129.237 26.2734 128.906 26.0483C128.686 25.9347 128.244 25.8225 127.913 25.7096C127.471 25.7096 126.919 25.596 126.366 25.596L126.144 24.8065ZM140.832 31.354C140.832 31.5797 140.832 31.6926 140.832 31.9191C140.832 32.0313 140.942 32.1449 140.942 32.1449C141.052 32.257 141.163 32.257 141.274 32.257C141.383 32.3699 141.605 32.3699 141.936 32.3699H143.704C144.475 32.3699 145.138 32.3699 145.58 32.257C146.134 32.257 146.464 32.1449 146.796 31.9191C147.127 31.8055 147.458 31.4668 147.678 31.016C148.009 30.6773 148.232 30.0007 148.562 29.3227L149.225 29.4356C149.225 29.5485 149.225 29.6607 149.225 30.0007C149.114 30.2251 149.114 30.5645 149.003 30.9024C149.003 31.3547 148.894 31.6933 148.783 32.1456C148.783 32.4835 148.673 32.8229 148.563 33.1608C148.453 33.4995 148.232 33.6124 147.9 33.6124C147.458 33.6124 147.127 33.6124 146.574 33.6124C146.134 33.6124 145.581 33.6124 144.918 33.6124C144.367 33.6124 143.704 33.6124 143.04 33.6124C142.378 33.6124 141.606 33.6124 140.942 33.6124H138.512C138.403 33.6124 138.292 33.5002 138.292 33.5002C138.182 33.3866 138.182 33.2744 138.182 33.2744V19.1615C138.182 18.5971 138.072 18.2584 137.85 18.1463C137.63 18.0327 137.409 17.9205 137.079 17.9205C136.857 17.9205 136.636 17.9205 136.415 17.9205L136.306 17.1303C136.525 17.1303 136.857 17.0167 137.188 17.0167C137.63 16.9038 137.962 16.9038 138.404 16.7916C138.845 16.7916 139.177 16.678 139.618 16.678C139.949 16.678 140.28 16.5651 140.502 16.5651H145.693C146.023 16.5651 146.355 16.5651 146.798 16.5651C147.128 16.5651 147.459 16.5651 147.902 16.5651C148.122 16.5651 148.122 16.678 148.233 16.7909C148.233 16.9038 148.233 17.1296 148.233 17.3546C148.233 17.5804 148.233 17.8062 148.233 18.0312C148.233 18.3706 148.233 18.5957 148.342 18.935C148.342 19.1601 148.342 19.3866 148.342 19.6124C148.342 19.8374 148.342 20.0639 148.342 20.2897C148.342 20.4026 148.342 20.5155 148.342 20.5155L147.68 20.6283C147.459 19.951 147.349 19.3866 147.128 19.0479C147.017 18.5957 146.798 18.3706 146.466 18.1448C146.244 18.0312 145.913 17.9191 145.582 17.9191C145.139 17.8062 144.588 17.8062 144.037 17.8062H141.496C141.276 17.8062 141.165 17.8062 141.053 17.8062L140.943 17.9191C140.833 17.9191 140.833 18.0312 140.833 18.0312C140.833 18.1448 140.833 18.257 140.833 18.3706V24.3536C141.607 24.2407 142.379 24.2407 143.041 24.2407C143.705 24.1271 144.256 24.1271 144.698 24.1271C145.25 24.1271 145.581 24.0142 145.913 24.0142C146.134 24.0142 146.355 24.0142 146.466 24.0142C146.686 24.0142 146.797 24.1271 146.797 24.4658C146.797 24.6915 146.797 24.8051 146.797 25.0302C146.797 25.256 146.797 25.4824 146.686 25.7082L140.833 25.4824V31.354H140.832Z" fill="#F58634"/>
<path d="M46.5718 42.337C46.4608 41.7937 46.3491 41.3598 46.1271 41.0331C45.9065 40.7078 45.5729 40.3819 45.3502 40.0559C45.0179 39.8386 44.5733 39.7299 44.2396 39.5126C43.7963 39.4033 43.3524 39.4033 42.9077 39.4033C42.463 39.4033 42.0211 39.4033 41.6875 39.5126C41.2428 39.6206 40.9105 39.8379 40.5769 40.0559C40.2446 40.2725 40.0212 40.5985 39.7999 40.9251C39.5786 41.3598 39.4669 41.7937 39.4669 42.229C39.4669 42.7723 39.5786 43.0983 39.7999 43.4243C40.0212 43.7502 40.3542 44.0762 40.6885 44.2935C41.1318 44.5108 41.5758 44.7282 42.0204 44.9461C42.463 45.1628 43.0187 45.2708 43.4633 45.4888C44.1293 45.7067 44.6836 45.9227 45.2399 46.1407C45.7942 46.4667 46.3484 46.7926 46.7924 47.12C47.2371 47.4446 47.57 47.8792 47.903 48.4239C48.1243 48.8571 48.3477 49.5091 48.3477 50.2704C48.3477 50.9216 48.2367 51.4649 48.0154 52.0089C47.7927 52.4442 47.5707 52.8774 47.2378 53.3141C46.9055 53.6394 46.5718 53.9661 46.1271 54.1813C45.6825 54.5087 45.1289 54.7253 44.6843 54.8346C44.13 55.0513 43.5736 55.1599 43.1311 55.1599C42.5754 55.2693 42.0211 55.2693 41.4655 55.2693C40.7995 55.2693 40.1336 55.2693 39.4676 55.1599C38.9134 55.0513 38.246 54.9419 37.5801 54.8346C37.4705 54.8346 37.4705 54.8346 37.3588 54.7253C37.3588 54.618 37.3588 54.618 37.3588 54.5093C37.2478 54.2907 37.2478 54.074 37.2478 53.6394C37.2478 53.3141 37.2478 52.8781 37.2478 52.5535C37.1375 52.1168 37.1375 51.7922 37.1375 51.4649C37.1375 51.1403 37.1375 50.9216 37.1375 50.813H37.9137C37.9137 51.3569 38.1364 51.9016 38.3584 52.2255C38.5811 52.6608 38.8031 52.9868 39.247 53.3141C39.5793 53.5294 40.0226 53.7481 40.4673 53.8574C40.9119 53.9661 41.4655 54.074 41.9101 54.074C42.4644 54.074 42.9084 53.9661 43.353 53.8574C43.7977 53.7481 44.2403 53.6394 44.574 53.4221C44.9076 53.0961 45.2413 52.8774 45.3509 52.4442C45.5736 52.1175 45.6832 51.5742 45.6832 51.141C45.6832 50.5963 45.5736 50.271 45.3509 49.9444C45.1296 49.6191 44.9076 49.4004 44.4637 49.1851C44.1314 48.8578 43.6867 48.6405 43.242 48.5318C42.7988 48.3152 42.2431 48.0965 41.7985 47.8799C41.1332 47.6633 40.5782 47.4446 40.0226 47.2279C39.4676 46.9027 38.9134 46.576 38.4694 46.2507C38.0247 45.9234 37.6925 45.4894 37.3588 44.9468C37.1375 44.4022 36.9141 43.7509 36.9141 42.9903C36.9141 42.1211 37.1368 41.3605 37.4705 40.7085C37.9137 40.0566 38.3577 39.5133 38.9134 39.1873C39.5793 38.862 40.2453 38.5354 41.0222 38.4267C41.7978 38.2094 42.5754 38.1007 43.3523 38.1007C43.9073 38.1007 44.463 38.2094 45.0172 38.3181C45.6825 38.3181 46.2388 38.4267 46.7931 38.5354C46.9048 38.644 47.0158 38.644 47.0158 38.752C47.1261 38.752 47.1261 38.8613 47.1261 38.8613C47.1261 39.078 47.1261 39.4039 47.2371 39.7299C47.2371 40.0559 47.2371 40.3825 47.2371 40.8165C47.2371 41.1425 47.2371 41.4684 47.2371 41.7944C47.3487 42.0117 47.3487 42.2297 47.3487 42.3377L46.5718 42.337ZM59.5585 38.0987C60.7788 38.0987 62.0011 38.316 62.9993 38.6427C63.9975 39.0773 64.7759 39.6199 65.5528 40.2718C66.2187 41.0324 66.773 41.9017 67.106 42.8803C67.5506 43.9676 67.6616 45.1621 67.6616 46.466C67.6616 47.8785 67.5506 49.0744 67.106 50.1597C66.6627 51.3556 65.9954 52.2241 65.2198 52.9854C64.4422 53.746 63.5536 54.2886 62.445 54.7239C61.3344 55.0499 60.1128 55.2686 58.6699 55.2686C57.4497 55.2686 56.3398 55.0506 55.3409 54.7239C54.3419 54.2886 53.4526 53.7467 52.7867 52.9854C52.0097 52.3335 51.5664 51.4635 51.1225 50.3776C50.7902 49.2904 50.5668 48.0952 50.5668 46.7913C50.5668 45.3787 50.7895 44.1842 51.2342 43.0976C51.6774 42.0104 52.2324 41.0324 53.0086 40.3812C53.7863 39.6199 54.7852 39.0766 55.8951 38.642C57.0057 38.3167 58.2273 38.0987 59.5585 38.0987ZM58.8926 39.2946C57.8944 39.2946 57.116 39.5119 56.4508 39.8379C55.7848 40.2725 55.2285 40.7072 54.7845 41.3591C54.3412 42.011 54.009 42.663 53.8973 43.5322C53.676 44.2928 53.565 45.1621 53.565 46.0314C53.565 47.12 53.676 48.0958 53.8973 48.9658C54.1186 49.943 54.4522 50.8123 54.8962 51.5729C55.3409 52.3342 56.0068 52.8768 56.7837 53.4214C57.4497 53.8567 58.3369 54.0734 59.4476 54.0734C60.3362 54.0734 61.2234 53.8567 61.8894 53.5287C62.5553 53.0948 63.1117 52.5522 63.5536 52.0082C63.9982 51.3562 64.2209 50.5956 64.4422 49.7271C64.6635 48.8571 64.7752 48.0965 64.7752 47.12C64.7752 46.1407 64.6635 45.2701 64.4422 44.2935C64.2209 43.3163 63.8865 42.4463 63.444 41.7937C62.8876 41.0331 62.3333 40.3819 61.5564 39.9466C60.7788 39.5119 59.8922 39.2946 58.8926 39.2946ZM73.8772 52.6601C73.8772 52.8768 73.8772 53.0954 73.8772 53.2048C73.8772 53.3134 73.8772 53.4214 73.9889 53.5294C74.0985 53.5294 74.0985 53.6387 74.3212 53.6387C74.4315 53.6387 74.6541 53.6387 74.8761 53.6387H76.319C77.0966 53.6387 77.7619 53.6387 78.2066 53.6387C78.6498 53.5294 79.0938 53.4221 79.4275 53.3134C79.7598 53.0954 80.0934 52.7695 80.3161 52.3348C80.5374 52.0089 80.8704 51.3569 81.2027 50.7057L81.8686 50.813C81.8686 50.9216 81.8686 51.0309 81.8686 51.3569C81.759 51.5736 81.759 51.9016 81.6473 52.3348C81.5363 52.6601 81.5363 53.0954 81.4267 53.4221C81.315 53.8574 81.2033 54.1813 81.2033 54.3993C81.0923 54.7246 80.7587 54.9419 80.4264 54.9419C79.7604 54.9419 78.8732 54.9419 77.7626 54.8346C76.6527 54.8346 75.4325 54.8346 73.8772 54.8346H71.547C71.4361 54.8346 71.3244 54.8346 71.2148 54.7253C71.2148 54.618 71.2148 54.618 71.2148 54.5093V40.7072C71.2148 40.4898 71.1031 40.2718 71.1031 40.0552C70.9921 39.9466 70.9921 39.8379 70.8825 39.7292C70.7708 39.6206 70.6591 39.5126 70.5495 39.5126C70.3268 39.5126 70.2151 39.4033 69.9939 39.4033C69.7726 39.4033 69.6609 39.5126 69.4389 39.5126L69.3279 38.7513C69.8822 38.6433 70.3261 38.5347 70.7708 38.5347C71.2155 38.426 71.658 38.3174 71.991 38.3174C72.4357 38.3174 72.6584 38.3174 72.8796 38.2087C73.2126 38.2087 73.3243 38.2087 73.4339 38.2087C73.6573 38.2087 73.8786 38.3174 73.8786 38.644V52.6601H73.8772ZM86.9763 49.7264C86.9763 50.3783 87.0859 51.0303 87.1976 51.4642C87.4182 52.0082 87.6422 52.3342 88.0862 52.6601C88.4185 52.9861 88.7515 53.2048 89.1948 53.3134C89.7511 53.4214 90.1951 53.5287 90.7493 53.5287C91.4153 53.5287 92.0812 53.4214 92.7472 53.2041C93.4131 52.9861 94.0805 52.6594 94.7464 52.3342V38.9686C94.7464 38.7513 94.856 38.534 95.0787 38.534C95.3 38.534 95.411 38.4254 95.633 38.4254C95.855 38.4254 96.0776 38.4254 96.1879 38.4254C96.4106 38.4254 96.6326 38.4254 96.7436 38.3167C96.9649 38.3167 97.0766 38.3167 97.0766 38.3167C97.2979 38.3167 97.4088 38.4254 97.4088 38.7513V54.5087C97.4088 54.7246 97.2979 54.834 97.0766 54.834C96.9649 54.9413 96.7436 54.9413 96.6319 54.9413C96.4106 54.9413 96.1872 55.0506 96.0769 55.0506C95.8543 55.0506 95.7447 55.0506 95.5213 55.0506C95.411 55.0506 95.3 55.0506 95.1883 55.0506C94.967 55.0506 94.856 54.9413 94.856 54.7246L94.7464 53.5287C93.8578 54.0734 92.9699 54.3986 91.9716 54.7246C90.9713 55.0506 89.9724 55.2693 88.8625 55.2693C88.3075 55.2693 87.6422 55.1599 87.0859 54.9419C86.5316 54.8346 86.0877 54.6173 85.6444 54.1813C85.1997 53.8567 84.8668 53.4221 84.6441 52.8774C84.4228 52.3348 84.3118 51.6829 84.3118 50.9216V40.7078C84.3118 40.4905 84.2022 40.2725 84.2022 40.0559C84.2022 39.9472 84.0905 39.8386 83.9788 39.7299C83.8692 39.6213 83.7582 39.5133 83.6465 39.5133C83.4253 39.5133 83.3143 39.4039 83.0923 39.4039C82.9806 39.4039 82.7593 39.5133 82.5359 39.5133L82.4263 38.752C82.9806 38.644 83.4246 38.5354 83.8692 38.5354C84.3125 38.4267 84.7565 38.3181 85.0894 38.3181C85.5341 38.3181 85.7554 38.3181 86.0884 38.2094C86.311 38.2094 86.4206 38.2094 86.533 38.2094C86.7543 38.2094 86.9777 38.3181 86.9777 38.6447V49.7264H86.9763ZM104.514 39.6206C103.848 39.6206 103.403 39.7292 102.959 39.7292C102.515 39.7292 102.182 39.8379 101.961 40.0552C101.74 40.2718 101.407 40.4898 101.295 40.9245C101.074 41.3591 100.963 41.9017 100.741 42.5536H100.074C100.074 42.4457 100.074 42.3363 100.074 42.2284C100.074 42.011 100.074 41.793 100.074 41.5764C100.074 41.3591 100.074 41.1411 100.185 40.8151C100.185 40.4898 100.185 40.2718 100.185 39.9466C100.185 39.7292 100.185 39.5119 100.185 39.186C100.296 38.9686 100.296 38.8607 100.296 38.6427C100.296 38.534 100.406 38.534 100.518 38.534C101.406 38.534 102.293 38.534 103.071 38.534C103.848 38.534 104.624 38.534 105.292 38.534H110.063C110.729 38.534 111.507 38.534 112.284 38.534C113.06 38.534 113.948 38.534 114.836 38.534C114.948 38.534 115.059 38.534 115.059 38.6427C115.059 38.86 115.059 38.968 115.059 39.186C115.059 39.5119 115.059 39.7292 115.168 39.9466C115.168 40.2718 115.168 40.4898 115.168 40.8151C115.168 41.1411 115.168 41.3591 115.168 41.5764C115.168 41.793 115.168 42.011 115.168 42.2284C115.168 42.3363 115.168 42.4457 115.168 42.5536H114.503C114.282 41.9017 114.17 41.3584 113.948 40.9245C113.837 40.4892 113.616 40.2718 113.394 40.0552C113.06 39.8379 112.727 39.7292 112.394 39.7292C111.951 39.7292 111.395 39.6206 110.841 39.6206H108.953V54.5087C108.953 54.7246 108.842 54.834 108.621 54.834C108.509 54.9413 108.288 54.9413 108.066 54.9413C107.844 54.9413 107.733 55.0506 107.51 55.0506C107.289 55.0506 107.178 55.0506 106.956 55.0506C106.844 55.0506 106.733 55.0506 106.623 55.0506C106.4 55.0506 106.29 54.9413 106.29 54.7246V39.6206H104.514ZM115.947 38.7506C116.502 38.6427 116.945 38.534 117.39 38.534C117.834 38.4254 118.278 38.3167 118.612 38.3167C119.055 38.3167 119.278 38.3167 119.499 38.208C119.831 38.208 119.943 38.208 120.055 38.208C120.276 38.208 120.498 38.3167 120.498 38.6433V54.5087C120.498 54.7246 120.388 54.834 120.165 54.834C119.944 54.9413 119.833 54.9413 119.611 54.9413C119.388 54.9413 119.166 55.0506 119.055 55.0506C118.834 55.0506 118.612 55.0506 118.5 55.0506C118.389 55.0506 118.168 55.0506 118.168 55.0506C117.947 55.0506 117.835 54.9413 117.835 54.7246V40.7072C117.835 40.4898 117.724 40.2718 117.724 40.0552C117.612 39.9466 117.612 39.8379 117.503 39.7292C117.391 39.6206 117.28 39.5126 117.17 39.5126C116.947 39.5126 116.837 39.4033 116.614 39.4033C116.393 39.4033 116.281 39.5126 116.059 39.5126L115.947 38.7506ZM132.93 38.0987C134.15 38.0987 135.26 38.316 136.259 38.6427C137.259 39.0773 138.147 39.6199 138.813 40.2718C139.59 41.0324 140.144 41.9017 140.477 42.8803C140.922 43.9676 141.033 45.1621 141.033 46.466C141.033 47.8785 140.81 49.0744 140.477 50.1597C140.034 51.3556 139.368 52.2241 138.591 52.9854C137.814 53.746 136.925 54.2886 135.816 54.7239C134.706 55.0499 133.374 55.2686 132.041 55.2686C130.821 55.2686 129.711 55.0506 128.712 54.7239C127.713 54.2886 126.824 53.7467 126.158 52.9854C125.381 52.3335 124.827 51.4635 124.494 50.3776C124.162 49.2904 123.938 48.0952 123.938 46.7913C123.938 45.3787 124.161 44.1842 124.606 43.0976C125.049 42.0104 125.604 41.0324 126.382 40.3812C127.158 39.6199 128.157 39.0766 129.266 38.642C130.376 38.3167 131.598 38.0987 132.93 38.0987ZM132.264 39.2946C131.266 39.2946 130.487 39.5119 129.822 39.8379C129.156 40.2725 128.6 40.7072 128.156 41.3591C127.713 42.011 127.38 42.663 127.158 43.5322C127.047 44.2928 126.936 45.1621 126.936 46.0314C126.936 47.12 127.047 48.0958 127.269 48.9658C127.49 49.943 127.824 50.8123 128.268 51.5729C128.712 52.3342 129.378 52.8768 130.043 53.4214C130.821 53.8567 131.708 54.0734 132.819 54.0734C133.708 54.0734 134.595 53.8567 135.261 53.5287C135.927 53.0948 136.483 52.5522 136.925 52.0082C137.259 51.3562 137.592 50.5956 137.814 49.7271C138.035 48.8571 138.147 48.0965 138.147 47.12C138.147 46.1407 138.035 45.2701 137.814 44.2935C137.592 43.3163 137.259 42.4463 136.815 41.7937C136.259 41.0331 135.705 40.3819 134.928 39.9466C134.15 39.5119 133.263 39.2946 132.264 39.2946ZM145.917 37.9907C146.028 37.9907 146.028 37.9907 146.139 38.0987C146.139 38.0987 146.25 38.2074 146.361 38.316L156.239 51.2483L155.906 38.5333C155.906 38.4247 156.018 38.4247 156.129 38.4247C156.35 38.316 156.573 38.316 156.795 38.316C157.128 38.316 157.46 38.316 157.682 38.316C157.793 38.316 157.904 38.316 157.904 38.5333L157.572 52.2241V54.8333C157.572 54.9406 157.46 54.9406 157.349 54.9406C157.128 55.0499 157.017 55.0499 156.795 55.0499C156.573 55.0499 156.35 55.0499 156.129 55.0499C156.018 55.0499 155.906 55.0499 155.906 55.0499C155.796 54.9406 155.796 54.9406 155.796 54.8333L145.695 41.793L146.028 54.8333C146.028 54.9406 146.028 54.9406 145.805 54.9406C145.695 54.9406 145.473 55.0499 145.139 55.0499C144.807 55.0499 144.585 55.0499 144.362 55.0499C144.141 55.0499 144.141 54.9406 144.141 54.8333L144.473 40.1632L143.251 38.5333C143.251 38.5333 143.251 38.5333 143.251 38.4247C143.251 38.316 143.251 38.2074 143.474 38.2074C143.586 38.0987 143.807 38.0987 144.028 38.0987C144.361 38.0987 144.585 38.0987 144.806 37.9907C145.027 37.9907 145.251 37.9907 145.472 37.9907C145.695 37.9907 145.806 37.9907 145.917 37.9907ZM170.227 42.337C170.115 41.7937 170.004 41.3598 169.782 41.0331C169.561 40.7078 169.337 40.3819 169.004 40.0559C168.672 39.8386 168.338 39.7299 167.894 39.5126C167.561 39.4033 167.118 39.4033 166.674 39.4033C166.118 39.4033 165.785 39.4033 165.342 39.5126C164.898 39.6206 164.565 39.8379 164.232 40.0559C163.899 40.2725 163.675 40.5985 163.454 40.9251C163.233 41.3598 163.233 41.7937 163.233 42.229C163.233 42.7723 163.343 43.0983 163.566 43.4243C163.787 43.7502 164.009 44.0762 164.453 44.2935C164.785 44.5108 165.23 44.7282 165.675 44.9461C166.118 45.1628 166.673 45.2708 167.228 45.4888C167.783 45.7067 168.338 45.9227 168.892 46.1407C169.448 46.4667 170.003 46.7926 170.447 47.12C170.891 47.4446 171.335 47.8792 171.556 48.4239C171.889 48.8571 172.001 49.5091 172.001 50.2704C172.001 50.9216 171.89 51.4649 171.669 52.0089C171.557 52.4442 171.224 52.8774 170.892 53.3141C170.559 53.6394 170.226 53.9661 169.781 54.1813C169.337 54.5087 168.893 54.7253 168.338 54.8346C167.893 55.0513 167.339 55.1599 166.784 55.1599C166.229 55.2693 165.675 55.2693 165.119 55.2693C164.454 55.2693 163.788 55.2693 163.233 55.1599C162.565 55.0513 161.899 54.9419 161.345 54.8346C161.234 54.8346 161.124 54.8346 161.124 54.7253C161.013 54.618 161.013 54.618 161.013 54.5093C161.013 54.2907 160.901 54.074 160.901 53.6394C160.901 53.3141 160.901 52.8781 160.901 52.5535C160.901 52.1168 160.901 51.7922 160.901 51.4649C160.792 51.1403 160.792 50.9216 160.792 50.813H161.567C161.567 51.3569 161.79 51.9016 162.012 52.2255C162.233 52.6608 162.566 52.9868 162.9 53.3141C163.233 53.5294 163.676 53.7481 164.121 53.8574C164.565 53.9661 165.119 54.074 165.675 54.074C166.119 54.074 166.563 53.9661 167.007 53.8574C167.452 53.7481 167.894 53.6394 168.227 53.4221C168.56 53.0961 168.893 52.8774 169.116 52.4442C169.337 52.1175 169.448 51.5742 169.448 51.141C169.448 50.5963 169.337 50.271 169.116 49.9444C168.893 49.6191 168.56 49.4004 168.227 49.1851C167.784 48.8578 167.34 48.6405 166.895 48.5318C166.451 48.3152 165.897 48.0965 165.453 47.8799C164.898 47.6633 164.342 47.4446 163.676 47.2279C163.122 46.9027 162.678 46.576 162.123 46.2507C161.678 45.9234 161.346 45.4894 161.013 44.9468C160.792 44.4022 160.68 43.7509 160.68 42.9903C160.68 42.1211 160.792 41.3605 161.234 40.7085C161.567 40.0566 162.012 39.5133 162.678 39.1873C163.233 38.862 163.899 38.5354 164.675 38.4267C165.453 38.2094 166.23 38.1007 167.007 38.1007C167.561 38.1007 168.118 38.2094 168.783 38.3181C169.338 38.3181 170.004 38.4267 170.56 38.5354C170.56 38.644 170.67 38.644 170.67 38.752C170.781 38.752 170.781 38.8613 170.781 38.8613C170.781 39.078 170.893 39.4039 170.893 39.7299C170.893 40.0559 170.893 40.3825 170.893 40.8165C171.002 41.1425 171.002 41.4684 171.002 41.7944C171.002 42.0117 171.002 42.2297 171.002 42.3377L170.227 42.337Z" fill="#363B50"/>
</g>
<path d="M154.244 20V13.4H151.989V12.586H157.478V13.4H155.212V20H154.244ZM164.739 20L164.552 16.744C164.497 15.71 164.431 14.467 164.442 13.543H164.409C164.156 14.412 163.848 15.336 163.474 16.359L162.165 19.956H161.439L160.24 16.425C159.888 15.38 159.591 14.423 159.382 13.543H159.36C159.338 14.467 159.283 15.71 159.217 16.821L159.019 20H158.106L158.623 12.586H159.844L161.109 16.172C161.417 17.085 161.67 17.899 161.857 18.669H161.89C162.077 17.921 162.341 17.107 162.671 16.172L163.991 12.586H165.212L165.674 20H164.739Z" fill="black"/>
<defs>
<clipPath id="clip0_1678_37892">
<rect width="172" height="40" fill="white" transform="translate(0 16)"/>
</clipPath>
</defs>
</svg>
