<svg width="307" height="85" viewBox="0 0 307 85" fill="none" xmlns="http://www.w3.org/2000/svg">
<path d="M50.991 81.325C34.029 76.684 21.549 61.164 21.549 42.762C21.549 25.321 32.59 10.6 47.951 4.99902C36.27 12.039 28.267 24.84 28.267 39.401C28.267 54.124 36.269 67.084 48.109 73.964C48.911 76.523 49.87 78.923 50.991 81.325Z" fill="#6E7ABA"/>
<path d="M30.669 17.1601C19.147 23.5601 11.948 33.4811 13.548 41.9621C15.626 53.1641 31.948 57.9631 49.87 52.6821C52.589 51.8831 54.991 50.9231 57.391 49.8031L55.31 65.6411C53.551 66.2851 51.79 66.7621 49.87 67.4031C27.629 73.3251 6.026 66.4431 1.546 52.2041C-2.934 38.2811 10.508 22.2801 31.629 16.0391C31.308 16.3591 30.989 16.8391 30.669 17.1601Z" fill="#F58634"/>
<mask id="mask0_774_1279" style="mask-type:luminance" maskUnits="userSpaceOnUse" x="0" y="16" width="58" height="54">
<path d="M30.669 17.1601C19.147 23.5601 11.948 33.4811 13.548 41.9621C15.626 53.1641 31.948 57.9631 49.87 52.6821C52.589 51.8831 54.991 50.9231 57.391 49.8031L55.31 65.6411C53.551 66.2851 51.79 66.7621 49.87 67.4031C27.629 73.3251 6.026 66.4431 1.546 52.2041C-2.934 38.2811 10.508 22.2801 31.629 16.0391C31.308 16.3591 30.989 16.8391 30.669 17.1601Z" fill="white"/>
</mask>
<g mask="url(#mask0_774_1279)">
<path d="M-5.17297 40.3612L19.307 42.9222V46.1242L-5.17297 43.5622V40.3612ZM41.069 48.3622H46.509L40.27 77.0032H34.989L41.069 48.3622ZM31.79 47.0832H37.069L15.948 75.5632H10.508L31.79 47.0832ZM-0.373974 55.5612L24.108 46.1232V49.9622L-0.373974 59.4022V55.5612ZM-2.13297 15.0792L22.348 30.6002V33.1612L-2.13297 17.4802V15.0792ZM1.86703 4.67822L26.347 24.8402V27.2392L1.86703 7.23922V4.67822ZM-4.69297 27.4012L19.629 35.7212V38.1202L-4.69297 29.8002V27.4012Z" fill="#FEFEFE"/>
</g>
<path d="M79.951 81.6442H73.072V68.8422H79.633V69.9622H74.512V74.2842H79.314V75.4042H74.512V80.5252H79.951V81.6442ZM81.713 72.2042H82.992V73.0042H83.152C83.471 72.6852 83.793 72.3652 84.112 72.2042C84.433 72.0442 84.753 71.8832 85.233 71.8832C85.712 71.8832 86.192 72.0442 86.511 72.2042C86.832 72.3652 87.152 72.8432 87.473 73.3252C87.953 72.8432 88.273 72.3652 88.752 72.2042C89.071 72.0442 89.552 71.8832 89.873 71.8832C90.672 71.8832 91.312 72.2042 91.632 72.6852C92.111 73.3262 92.273 74.1242 92.273 75.2462V76.0452V81.6462H90.994V75.7242C90.994 74.6062 90.834 73.9652 90.673 73.6462C90.354 73.1662 90.032 73.0052 89.394 73.0052C89.073 73.0052 88.753 73.0052 88.434 73.1652C88.113 73.3262 87.955 73.6452 87.633 73.9652V81.6462H86.354V75.7242C86.354 74.7642 86.193 73.9652 86.033 73.6462C85.714 73.1662 85.394 73.0052 84.915 73.0052C84.594 73.0052 84.274 73.1652 83.953 73.3262C83.634 73.4842 83.314 73.6452 82.993 73.9652V81.6462H81.714L81.713 72.2042ZM95.954 79.7242C96.112 80.0432 96.433 80.3652 96.753 80.5262C97.074 80.6842 97.394 80.6842 97.713 80.6842C98.354 80.6842 98.834 80.3652 99.153 79.7242C99.474 79.0832 99.634 78.1232 99.634 76.8422C99.634 75.5632 99.474 74.6042 99.153 73.9632C98.834 73.3242 98.353 73.0032 97.713 73.0032C97.394 73.0032 97.074 73.1632 96.753 73.3242C96.434 73.4822 96.112 73.6432 95.954 74.1232V79.7242ZM94.514 72.2042H95.953V73.0042H96.111C96.432 72.6852 96.752 72.3652 97.073 72.2042C97.392 72.0442 97.712 71.8832 98.192 71.8832C98.993 71.8832 99.793 72.3652 100.272 73.3252C100.751 74.1242 101.074 75.4052 101.074 76.8432C101.074 78.4462 100.752 79.5652 100.272 80.5272C99.793 81.4872 98.993 81.9652 98.192 81.9652C97.712 81.9652 97.392 81.8042 97.073 81.6462C96.594 81.4882 96.432 81.1662 96.111 80.6862L95.953 80.8442V84.5282H94.514V72.2042ZM106.353 73.0032C105.712 73.0032 105.233 73.3242 104.914 73.9632C104.435 74.6042 104.273 75.5632 104.273 76.6842C104.273 77.9632 104.434 79.0832 104.753 79.7242C105.232 80.5262 105.712 80.8422 106.353 80.8422C106.994 80.8422 107.474 80.5262 107.954 79.7242C108.273 79.0832 108.434 78.1232 108.434 76.8422C108.434 75.7222 108.273 74.6042 107.954 73.9632C107.474 73.3252 106.994 73.0032 106.353 73.0032ZM102.834 76.8422C102.834 75.2442 103.155 74.1232 103.794 73.1632C104.435 72.3642 105.233 71.8822 106.354 71.8822C107.475 71.8822 108.274 72.3642 108.915 73.1632C109.556 74.1232 109.875 75.2442 109.875 76.8422C109.875 78.4452 109.556 79.7242 108.915 80.5262C108.436 81.4862 107.476 81.9642 106.354 81.9642C105.234 81.9642 104.435 81.4862 103.794 80.5262C103.155 79.7242 102.834 78.4452 102.834 76.8422ZM110.994 72.2042H112.595L114.196 80.2052H114.355L115.955 72.2042H117.395L118.996 80.2052H119.317L120.915 72.2042H122.516L119.797 81.6442H118.516L116.915 74.2852H116.596L114.996 81.6442H113.717L110.994 72.2042ZM130.676 80.6842C130.197 81.1632 129.716 81.4862 129.237 81.6442C128.757 81.8022 128.116 81.9632 127.477 81.9632C126.196 81.9632 125.237 81.4852 124.596 80.6842C123.955 79.7242 123.636 78.6042 123.636 76.8422C123.636 75.4042 123.955 74.1232 124.596 73.1632C125.237 72.3642 126.035 71.8822 127.156 71.8822C128.277 71.8822 129.237 72.3642 129.878 73.1632C130.357 74.1232 130.677 75.4042 130.677 77.0032V77.3242H125.076V77.4842C125.076 78.6032 125.397 79.4042 125.717 79.8812C126.196 80.5252 126.837 80.8412 127.478 80.8412C127.958 80.8412 128.438 80.6832 128.757 80.5252C129.237 80.2042 129.557 80.0432 129.717 79.7232H130.677V80.6842H130.676ZM129.236 76.2042C129.236 75.2452 129.075 74.4452 128.756 73.8032C128.277 73.1642 127.796 73.0042 127.155 73.0042C126.514 73.0042 126.035 73.1642 125.716 73.8032C125.397 74.2852 125.237 75.2452 125.075 76.2042H129.236ZM132.917 72.2042H134.196V72.8432C134.196 73.1642 134.196 73.3252 134.196 73.4842C134.196 73.6452 134.196 73.8032 134.037 73.9642H134.356C134.517 73.4842 134.997 73.0042 135.477 72.6852C136.115 72.3662 136.755 72.2052 137.396 72.2052V73.6452C136.755 73.6452 136.276 73.8032 135.635 73.9642C135.156 74.1242 134.675 74.4452 134.196 74.9232V81.6452H132.917V72.2042ZM139.316 68.3652H140.755V69.8032H139.316V68.3652ZM139.316 72.2042H140.755V81.6442H139.316V72.2042ZM143.477 72.2042H144.756V73.0042H144.916C145.235 72.6852 145.557 72.3652 145.876 72.2042C146.197 72.0442 146.678 71.8832 146.996 71.8832C147.956 71.8832 148.597 72.2042 148.916 72.6852C149.396 73.3262 149.557 74.1242 149.557 75.2462V76.0452V81.6462H148.276V75.7242C148.276 74.6062 148.118 73.9652 147.957 73.6462C147.638 73.1662 147.316 73.0052 146.679 73.0052C146.357 73.0052 146.038 73.1652 145.716 73.3262C145.398 73.4842 145.078 73.6452 144.757 73.9652V81.6462H143.478L143.477 72.2042ZM156.759 79.7242C156.438 80.0432 156.118 80.3652 155.799 80.5262C155.478 80.6842 155.158 80.8422 154.679 80.8422C153.719 80.8422 152.917 80.5262 152.438 79.7242C151.797 78.9232 151.639 77.8022 151.639 76.3652C151.639 74.9232 151.797 73.8022 152.438 73.0042C152.917 72.2042 153.719 71.8832 154.679 71.8832C155.158 71.8832 155.478 72.0442 155.799 72.2042C156.118 72.3652 156.438 72.6842 156.759 73.0042H156.917V72.2042H158.198V81.3252C158.198 82.4452 158.038 83.2452 157.397 83.7242C156.917 84.3652 156.118 84.5262 154.998 84.5262C154.518 84.5262 154.038 84.5262 153.558 84.3652C153.079 84.2052 152.598 84.0442 151.957 83.7242V82.1232H152.917C153.238 82.6032 153.558 82.9232 153.877 83.0832C154.198 83.2442 154.518 83.4042 154.998 83.4042C155.799 83.4042 156.279 83.0832 156.437 82.7632C156.758 82.2842 156.916 81.4852 156.916 80.3642V79.7232L156.759 79.7242ZM156.917 74.1242C156.598 73.6452 156.279 73.4832 155.957 73.3252C155.799 73.1642 155.478 73.0042 154.998 73.0042C154.357 73.0042 153.877 73.3252 153.558 73.8032C153.239 74.4462 153.079 75.2452 153.079 76.3662C153.079 77.4872 153.239 78.2862 153.558 78.9252C153.877 79.4062 154.358 79.7262 154.998 79.7262C155.477 79.7262 155.799 79.5662 155.957 79.4072C156.279 79.2472 156.598 79.0862 156.917 78.6062V74.1242ZM164.118 83.4052H164.279C164.437 83.4052 164.437 83.4052 164.437 83.4052C165.239 83.4052 165.718 83.2452 166.038 82.9242C166.359 82.6052 166.679 81.9642 166.84 81.1642L164.118 72.2042H165.719L167.478 79.8832H167.639L169.4 72.2042H170.84L168.118 81.3252C167.799 82.6042 167.319 83.4052 166.84 83.8832C166.199 84.3652 165.559 84.6852 164.599 84.6852C164.438 84.6852 164.438 84.6852 164.28 84.5272H164.119V83.4052H164.118ZM175.638 73.0032C174.999 73.0032 174.52 73.3242 174.039 73.9632C173.718 74.6042 173.558 75.5632 173.558 76.6842C173.558 77.9632 173.718 79.0832 174.039 79.7242C174.358 80.5262 174.999 80.8422 175.638 80.8422C176.279 80.8422 176.758 80.5262 177.239 79.7242C177.56 79.0832 177.718 78.1232 177.718 76.8422C177.718 75.7222 177.56 74.6042 177.08 73.9632C176.759 73.3252 176.279 73.0032 175.638 73.0032ZM172.118 76.8422C172.118 75.2442 172.439 74.1232 173.078 73.1632C173.719 72.3642 174.52 71.8822 175.639 71.8822C176.759 71.8822 177.561 72.3642 178.2 73.1632C178.841 74.1232 179.16 75.2442 179.16 76.8422C179.16 78.4452 178.841 79.7242 178.2 80.5262C177.561 81.4862 176.76 81.9642 175.639 81.9642C174.521 81.9642 173.719 81.4862 173.078 80.5262C172.439 79.7242 172.118 78.4452 172.118 76.8422ZM187.319 81.6442H185.88V80.8422H185.719C185.401 81.1632 185.24 81.4862 184.92 81.6442C184.441 81.8022 184.121 81.8022 183.641 81.8022C183.162 81.8022 182.521 81.6442 182.2 81.4862C181.72 81.1642 181.401 80.6842 181.24 80.2052C181.24 80.0442 181.082 79.7252 181.082 79.4052C181.082 79.0842 181.082 78.6042 181.082 77.6442V72.2042H182.36V78.1242C182.36 79.0842 182.521 79.7252 182.84 80.2052C183 80.5262 183.481 80.6842 183.96 80.6842C184.44 80.6842 184.76 80.6842 185.081 80.5262C185.239 80.3652 185.56 80.0442 185.88 79.7242V72.2032H187.319V81.6442ZM193.241 72.2042H194.84L196.441 80.2052H196.602L198.202 72.2042H199.642L201.243 80.2052H201.561L203.162 72.2042H204.602L202.041 81.6442H200.762L199.001 74.2852H198.842L197.242 81.6442H195.961L193.241 72.2042ZM206.362 68.3652H207.801V69.8032H206.362V68.3652ZM206.52 72.2042H207.801V81.6442H206.52V72.2042ZM214.202 81.6442H212.762C211.963 81.6442 211.484 81.4862 211.162 81.1642C210.843 80.8432 210.682 80.0442 210.682 79.0842V73.1642H209.562V72.2042H210.682V69.1642H212.121V72.2042H214.202V73.1642H212.121V79.0842C212.121 79.7252 212.121 80.2052 212.282 80.3652C212.443 80.3652 212.761 80.5262 213.242 80.5262H214.202V81.6442ZM215.963 68.3652H217.242V73.0042H217.402C217.721 72.6852 218.043 72.3652 218.362 72.2042C218.681 72.0442 219.162 71.8832 219.483 71.8832C220.443 71.8832 221.084 72.2042 221.403 72.6852C221.882 73.3262 222.044 74.1242 222.044 75.0842V76.0442V81.6452H220.763V75.7232C220.763 74.6052 220.604 73.9642 220.444 73.6452C220.123 73.1652 219.803 73.0042 219.163 73.0042C218.844 73.0042 218.524 73.1642 218.203 73.3252C217.884 73.4832 217.564 73.6442 217.243 73.9642V81.6452H215.964V68.3652H215.963ZM232.603 81.6442H231.164V69.9622H227.803V68.8422H235.964V69.9622H232.604V81.6442H232.603ZM243.964 80.6842C243.484 81.1632 243.004 81.4862 242.524 81.6442C242.045 81.8022 241.404 81.9632 240.765 81.9632C239.484 81.9632 238.685 81.4852 238.044 80.6842C237.403 79.7242 237.084 78.6042 237.084 76.8422C237.084 75.4042 237.403 74.1232 237.883 73.1632C238.524 72.3642 239.484 71.8822 240.605 71.8822C241.725 71.8822 242.524 72.3642 243.165 73.1632C243.806 74.1232 243.965 75.4042 243.965 77.0032V77.3242H238.525V77.4842C238.525 78.6032 238.686 79.4042 239.166 79.8812C239.485 80.5252 240.126 80.8412 240.926 80.8412C241.247 80.8412 241.727 80.6832 242.207 80.5252C242.525 80.2042 242.848 80.0432 243.006 79.7232H243.966V80.6842H243.964ZM242.684 76.2042C242.523 75.2452 242.365 74.4452 242.043 73.8032C241.564 73.1642 241.083 73.0042 240.604 73.0042C239.963 73.0042 239.325 73.1642 239.003 73.8032C238.684 74.2852 238.523 75.2452 238.523 76.2042H242.684ZM251.644 74.4452H250.684C250.524 73.9642 250.365 73.4832 250.043 73.3252C249.724 73.0042 249.404 73.0042 249.083 73.0042C248.444 73.0042 247.963 73.3252 247.644 73.9642C247.325 74.7632 247.164 75.7232 247.164 76.8432C247.164 78.1242 247.325 79.0842 247.644 79.7252C247.963 80.5272 248.445 80.8432 249.083 80.8432C249.404 80.8432 249.724 80.6852 250.043 80.5272C250.364 80.2062 250.523 79.8832 250.684 79.4062H251.644V80.6852C251.325 81.1642 250.845 81.4872 250.524 81.6452C250.044 81.8032 249.564 81.9642 249.084 81.9642C247.964 81.9642 247.164 81.4862 246.523 80.5262C246.044 79.7242 245.724 78.4452 245.724 76.8422C245.724 75.4042 246.043 74.1232 246.523 73.1632C247.164 72.3642 247.963 71.8822 249.084 71.8822C249.564 71.8822 250.044 72.0432 250.365 72.2032C250.845 72.3642 251.165 72.6832 251.644 73.0032V74.4452ZM253.724 68.3652H255.164V73.0042H255.324C255.643 72.6852 255.965 72.3652 256.284 72.2042C256.603 72.0442 256.925 71.8832 257.405 71.8832C258.204 71.8832 258.844 72.2042 259.324 72.6852C259.804 73.3262 259.965 74.1242 259.965 75.0842V76.0442V81.6452H258.684V75.7232C258.684 74.6052 258.526 73.9642 258.205 73.6452C258.047 73.1652 257.566 73.0042 257.084 73.0042C256.766 73.0042 256.446 73.1642 256.125 73.3252C255.806 73.4832 255.486 73.6442 255.165 73.9642V81.6452H253.725V68.3652H253.724ZM262.365 72.2042H263.805V73.0042H263.965C264.284 72.6852 264.606 72.3652 264.925 72.2042C265.244 72.0442 265.566 71.8832 266.046 71.8832C266.845 71.8832 267.485 72.2042 267.965 72.6852C268.445 73.3262 268.606 74.1242 268.606 75.2462V76.0452V81.6462H267.325V75.7242C267.325 74.6062 267.167 73.9652 266.846 73.6462C266.688 73.1662 266.205 73.0052 265.726 73.0052C265.407 73.0052 265.087 73.1652 264.766 73.3262C264.447 73.4842 264.127 73.6452 263.806 73.9652V81.6462H262.366V72.2042H262.365ZM274.047 73.0032C273.406 73.0032 272.926 73.3242 272.608 73.9632C272.128 74.6042 271.967 75.5632 271.967 76.6842C271.967 77.9632 272.127 79.0832 272.446 79.7242C272.925 80.5262 273.406 80.8422 274.047 80.8422C274.688 80.8422 275.167 80.5262 275.648 79.7242C275.967 79.0832 276.127 78.1232 276.127 76.8422C276.127 75.7222 275.967 74.6042 275.648 73.9632C275.167 73.3252 274.687 73.0032 274.047 73.0032ZM270.526 76.8422C270.526 75.2442 270.845 74.1232 271.486 73.1632C272.127 72.3642 272.925 71.8822 274.047 71.8822C275.167 71.8822 275.967 72.3642 276.608 73.1632C277.249 74.1232 277.567 75.2442 277.567 76.8422C277.567 78.4452 277.249 79.7242 276.608 80.5262C276.128 81.4862 275.168 81.9642 274.047 81.9642C272.926 81.9642 272.127 81.4862 271.486 80.5262C270.845 79.7242 270.526 78.4452 270.526 76.8422ZM279.807 68.3652H281.086V81.6442H279.807V68.3652ZM286.848 73.0032C286.207 73.0032 285.567 73.3242 285.247 73.9632C284.926 74.6042 284.767 75.5632 284.767 76.6842C284.767 77.9632 284.926 79.0832 285.247 79.7242C285.566 80.5262 286.046 80.8422 286.848 80.8422C287.486 80.8422 287.966 80.5262 288.287 79.7242C288.606 79.0832 288.928 78.1232 288.928 76.8422C288.928 75.7222 288.607 74.6042 288.287 73.9632C287.967 73.3252 287.486 73.0032 286.848 73.0032ZM283.328 76.8422C283.328 75.2442 283.647 74.1232 284.127 73.1632C284.768 72.3642 285.728 71.8822 286.849 71.8822C287.809 71.8822 288.768 72.3642 289.409 73.1632C290.048 74.1232 290.209 75.2442 290.209 76.8422C290.209 78.4452 290.048 79.7242 289.409 80.5262C288.768 81.4862 287.968 81.9642 286.849 81.9642C285.728 81.9642 284.768 81.4862 284.127 80.5262C283.647 79.7242 283.328 78.4452 283.328 76.8422ZM297.087 79.7242C296.768 80.0432 296.449 80.3652 296.127 80.5262C295.809 80.6842 295.489 80.8422 295.009 80.8422C294.047 80.8422 293.248 80.5262 292.768 79.7242C292.289 78.9232 291.969 77.8022 291.969 76.3652C291.969 74.9232 292.288 73.8022 292.768 73.0042C293.248 72.2042 294.047 71.8832 295.009 71.8832C295.489 71.8832 295.809 72.0442 296.127 72.2042C296.449 72.3652 296.768 72.6842 297.087 73.0042H297.248V72.2042H298.687V81.3252C298.687 82.4452 298.368 83.2452 297.888 83.7242C297.247 84.3652 296.449 84.5262 295.489 84.5262C294.848 84.5262 294.368 84.5262 293.888 84.3652C293.408 84.2052 292.928 84.0442 292.449 83.7242V82.1232H293.408C293.567 82.6032 293.888 82.9232 294.208 83.0832C294.529 83.2442 294.849 83.4042 295.328 83.4042C296.127 83.4042 296.607 83.0832 296.929 82.7632C297.087 82.2842 297.248 81.4852 297.248 80.3642V79.7232L297.087 79.7242ZM297.248 74.1242C296.929 73.6452 296.607 73.4832 296.449 73.3252C296.127 73.1642 295.808 73.0042 295.489 73.0042C294.687 73.0042 294.208 73.3252 293.888 73.8032C293.567 74.4462 293.408 75.2452 293.408 76.3662C293.408 77.4872 293.567 78.2862 293.888 78.9252C294.207 79.4062 294.687 79.7262 295.489 79.7262C295.808 79.7262 296.127 79.5662 296.449 79.4072C296.767 79.2472 296.928 79.0862 297.248 78.6062V74.1242ZM300.128 83.4052H300.288C300.449 83.4052 300.449 83.4052 300.607 83.4052C301.248 83.4052 301.728 83.2452 302.049 82.9242C302.368 82.6052 302.687 81.9642 302.848 81.1642L300.287 72.2042H301.727L303.488 79.8832H303.646L305.408 72.2042H306.847L304.128 81.3252C303.807 82.6042 303.326 83.4052 302.847 83.8832C302.368 84.3652 301.568 84.6852 300.606 84.6852C300.606 84.6852 300.448 84.6852 300.448 84.5272C300.287 84.5272 300.127 84.5272 300.127 84.5272L300.128 83.4052Z" fill="#373435"/>
<path d="M72.431 5.63907C73.072 5.47807 73.87 5.47807 74.511 5.31907C75.152 5.15807 75.792 5.15807 76.273 5.15807C76.752 4.99807 77.232 4.99807 77.551 4.99807C78.031 4.99807 78.192 4.83807 78.353 4.83807C78.672 4.83807 78.992 5.15707 78.992 5.63807V28.8401C78.992 29.1591 78.833 29.4801 78.512 29.4801C78.193 29.4801 77.871 29.4801 77.713 29.6411C77.392 29.6411 77.072 29.6411 76.753 29.6411C76.592 29.6411 76.274 29.6411 76.112 29.6411C75.793 29.6411 75.633 29.6411 75.633 29.6411C75.314 29.6411 75.153 29.4801 75.153 29.1601V8.67907C75.153 8.19807 74.993 7.87907 74.993 7.71807C74.832 7.39807 74.832 7.23907 74.674 7.07807C74.513 6.91807 74.353 6.91807 74.194 6.75807C73.873 6.75807 73.715 6.75807 73.393 6.75807C73.074 6.75807 72.754 6.75807 72.593 6.75807L72.431 5.63907ZM87.473 4.51907C87.632 4.51907 87.792 4.67907 87.953 4.67907C87.953 4.84007 88.111 4.84007 88.111 4.99907L102.513 24.0411L102.033 5.47907C102.033 5.31907 102.192 5.15907 102.352 5.15907C102.513 5.15907 102.993 5.15907 103.312 4.99907C103.792 4.99907 104.114 4.99907 104.593 4.99907C104.752 4.99907 104.912 5.15907 104.912 5.31907L104.433 25.4801V29.3211C104.433 29.4801 104.272 29.6411 104.114 29.6411C103.793 29.6411 103.473 29.6411 103.154 29.6411C102.833 29.6411 102.513 29.6411 102.192 29.6411H102.033C101.873 29.6411 101.873 29.4801 101.712 29.3211L87.313 10.2791L87.792 29.3211C87.792 29.4801 87.792 29.6411 87.473 29.6411C87.313 29.6411 86.832 29.6411 86.511 29.6411C86.032 29.6411 85.712 29.8001 85.233 29.8001C85.072 29.8001 84.914 29.6411 84.914 29.4801L85.552 7.71807L83.793 5.47807C83.793 5.47807 83.633 5.31807 83.633 5.15807C83.633 4.99807 83.793 4.99807 84.112 4.83907C84.273 4.83907 84.592 4.83907 84.914 4.67807C85.233 4.67807 85.552 4.67807 86.032 4.67807C86.353 4.67807 86.673 4.67807 86.992 4.51807C87.152 4.51907 87.473 4.51907 87.473 4.51907ZM122.676 11.0791C122.515 10.2791 122.357 9.63907 122.035 8.99807C121.716 8.51807 121.236 8.03807 120.756 7.71807C120.435 7.39807 119.796 7.07807 119.317 6.91807C118.676 6.75807 118.036 6.59907 117.395 6.59907C116.756 6.59907 116.116 6.75907 115.636 6.91807C114.995 7.07807 114.515 7.23807 114.035 7.71807C113.555 8.03807 113.235 8.35907 112.914 8.99807C112.595 9.47807 112.435 10.1191 112.435 10.9191C112.435 11.5591 112.595 12.1991 112.914 12.6791C113.235 13.1591 113.716 13.4781 114.195 13.7991C114.834 14.2791 115.316 14.5991 116.115 14.7591C116.756 15.0791 117.554 15.4001 118.195 15.5591C118.995 15.8791 119.955 16.3591 120.756 16.6801C121.555 17.0001 122.357 17.4801 122.995 17.9601C123.636 18.6001 124.115 19.2401 124.596 19.8801C124.917 20.6801 125.237 21.6401 125.237 22.6001C125.237 23.5611 125.076 24.5211 124.757 25.1611C124.438 25.9611 124.116 26.6011 123.637 27.0821C123.157 27.7221 122.677 28.2011 122.036 28.5211C121.397 28.8411 120.597 29.1611 119.956 29.4811C119.156 29.6421 118.357 29.8011 117.556 29.9601C116.757 29.9601 116.117 30.1211 115.318 30.1211C114.356 30.1211 113.396 29.9601 112.436 29.9601C111.636 29.8011 110.677 29.6421 109.717 29.3211C109.556 29.3211 109.556 29.3211 109.396 29.1601C109.396 29.1601 109.396 29.0011 109.237 29.0011C109.237 28.6811 109.237 28.2001 109.237 27.7211C109.237 27.0811 109.237 26.6011 109.237 25.9601C109.077 25.3201 109.077 24.8411 109.077 24.3611C109.077 23.8801 109.077 23.5601 109.077 23.5601L110.197 23.4001C110.197 24.2001 110.516 25.0001 110.836 25.6391C111.157 26.2801 111.477 26.7601 112.117 27.0801C112.596 27.5591 113.237 27.7201 113.876 28.0401C114.517 28.1991 115.318 28.1991 115.956 28.1991C116.758 28.1991 117.396 28.1991 118.037 28.0401C118.678 27.8801 119.318 27.5601 119.798 27.2391C120.278 26.9191 120.758 26.4391 120.916 25.9591C121.238 25.3191 121.398 24.6791 121.398 23.8791C121.398 23.2391 121.238 22.5991 120.916 22.2791C120.598 21.8001 120.278 21.3201 119.638 20.9991C119.158 20.6791 118.517 20.3581 117.876 20.0381C117.237 19.7191 116.437 19.5581 115.798 19.2391C114.836 18.9191 114.037 18.4391 113.237 18.1181C112.436 17.7981 111.636 17.3181 110.996 16.6791C110.355 16.1991 109.876 15.5581 109.396 14.7581C109.077 13.9591 108.755 12.9981 108.755 11.8791C108.755 10.5991 109.076 9.47807 109.556 8.51807C110.197 7.71807 110.835 6.91807 111.636 6.27807C112.596 5.79807 113.556 5.47807 114.677 5.15707C115.797 4.99707 116.915 4.83807 118.036 4.83807C118.837 4.83807 119.637 4.83807 120.435 4.99807C121.397 5.15807 122.196 5.31807 122.996 5.47807C123.156 5.47807 123.317 5.47807 123.317 5.63907C123.475 5.79907 123.475 5.79907 123.475 5.95807C123.475 6.27807 123.475 6.59907 123.636 7.07807C123.636 7.71807 123.636 8.19807 123.636 8.67907C123.636 9.31907 123.636 9.79907 123.636 10.1191C123.636 10.5991 123.796 10.7591 123.796 10.9191L122.676 11.0791ZM135.156 18.2801C136.276 18.1191 137.236 17.9601 138.037 17.7991C138.997 17.4801 139.636 17.1601 140.276 16.6801C140.755 16.2001 141.236 15.5591 141.557 14.9201C141.876 14.1201 142.036 13.1601 142.036 12.2001C142.036 11.2391 141.876 10.4391 141.557 9.79907C141.236 8.99907 140.755 8.35907 140.276 7.87907C139.797 7.39807 139.156 7.07907 138.356 6.75907C137.557 6.59907 136.755 6.43907 135.796 6.43907C135.155 6.43907 134.675 6.43907 134.517 6.60007C134.196 6.60007 134.037 6.91907 134.037 7.39907V28.8401C134.037 29.1591 133.716 29.4801 133.396 29.4801C133.236 29.4801 132.917 29.4801 132.755 29.6411C132.436 29.6411 132.114 29.6411 131.795 29.6411C131.635 29.6411 131.316 29.6411 131.154 29.6411C130.836 29.6411 130.675 29.6411 130.516 29.6411C130.195 29.6411 130.034 29.4801 130.034 29.1601V8.35907C130.034 7.71807 129.876 7.23907 129.715 7.07907C129.396 6.75907 128.916 6.60007 128.436 6.60007C128.115 6.60007 127.795 6.76007 127.476 6.76007V5.64007C128.595 5.32007 130.035 5.15907 131.316 4.99907C132.755 4.83907 134.356 4.67907 136.276 4.67907C137.078 4.67907 137.877 4.84007 138.675 4.84007C139.477 5.00007 140.276 5.00007 140.916 5.32007C141.715 5.48007 142.355 5.64007 142.996 5.96007C143.637 6.28007 144.275 6.76007 144.756 7.24007C145.235 7.71907 145.557 8.36007 145.876 9.00007C146.197 9.64107 146.197 10.4401 146.197 11.4011C146.197 12.8401 145.876 14.1211 145.396 15.0811C144.755 16.0411 143.956 16.8411 142.835 17.4821C141.875 18.1211 140.754 18.6011 139.476 18.9211C138.036 19.2411 136.754 19.4011 135.315 19.4011L135.156 18.2801ZM166.038 5.95807C166.038 5.63907 166.199 5.47807 166.517 5.31807C166.839 5.31807 166.997 5.31807 167.319 5.31807C167.638 5.31807 167.96 5.15707 168.118 5.15707C168.439 5.15707 168.759 5.15707 168.92 5.15707C169.078 5.15707 169.239 5.15707 169.399 5.15707C169.718 5.15707 169.879 5.31807 169.879 5.63807V28.8401C169.879 29.1591 169.718 29.4801 169.399 29.4801C169.239 29.4801 168.92 29.4801 168.598 29.6411C168.279 29.6411 168.118 29.6411 167.798 29.6411C167.477 29.6411 167.319 29.6411 166.997 29.6411C166.839 29.6411 166.678 29.6411 166.517 29.6411C166.199 29.6411 166.038 29.4801 166.038 29.1601V17.3191L153.877 17.4801V28.8401C153.877 29.1591 153.719 29.4801 153.398 29.4801C153.239 29.4801 152.918 29.4801 152.759 29.6411C152.438 29.6411 152.118 29.6411 151.797 29.6411C151.639 29.6411 151.317 29.6411 151.158 29.6411C150.837 29.6411 150.679 29.6411 150.517 29.6411C150.198 29.6411 150.038 29.4801 150.038 29.1601V8.67907C150.038 8.19807 150.038 7.87907 150.038 7.71807C149.877 7.39807 149.719 7.23907 149.719 7.07807C149.558 6.91807 149.398 6.91807 149.078 6.75807C148.917 6.75807 148.757 6.75807 148.437 6.75807C148.117 6.75807 147.796 6.75807 147.477 6.75807V5.63807C148.118 5.47707 148.916 5.47707 149.557 5.31807C150.198 5.15707 150.836 5.15707 151.316 5.15707C151.796 4.99707 152.279 4.99707 152.597 4.99707C152.916 4.99707 153.238 4.83707 153.238 4.83707C153.718 4.83707 153.877 5.15607 153.877 5.63707V15.7201H166.038V5.95807ZM180.44 26.2801C180.44 26.6001 180.44 26.7601 180.44 27.0811C180.44 27.2401 180.6 27.4011 180.6 27.4011C180.759 27.5601 180.919 27.5601 181.08 27.5601C181.238 27.7201 181.559 27.7201 181.879 27.7201H184.6C185.718 27.7201 186.681 27.7201 187.319 27.5601C187.96 27.5601 188.6 27.4011 189.081 27.0811C189.56 26.9201 190.041 26.4401 190.36 25.8011C190.681 25.3211 191.161 24.3621 191.641 23.4011L192.6 23.5611C192.6 23.7211 192.6 23.8801 192.6 24.3621C192.44 24.6801 192.44 25.1611 192.279 25.6401C192.279 26.2811 192.121 26.7611 191.96 27.4021C191.8 27.8811 191.642 28.3621 191.642 28.8411C191.481 29.3211 191.162 29.4811 190.521 29.4811C190.042 29.4811 189.401 29.4811 188.76 29.4811C188.121 29.4811 187.32 29.4811 186.36 29.4811C185.561 29.4811 184.601 29.4811 183.641 29.4811C182.679 29.4811 181.561 29.4811 180.441 29.4811H177.082C176.921 29.4811 176.76 29.3221 176.6 29.3221C176.6 29.1611 176.6 29.0021 176.6 29.0021V8.99907C176.6 8.19907 176.442 7.71907 176.12 7.56007C175.802 7.39907 175.321 7.24007 174.842 7.24007C174.681 7.24007 174.362 7.24007 174.042 7.24007L173.882 6.12007C174.201 6.12007 174.523 5.95907 175.161 5.95907C175.64 5.79907 176.281 5.79907 176.922 5.64007C177.563 5.64007 178.042 5.47907 178.681 5.47907C179.161 5.47907 179.641 5.31907 179.962 5.31907H187.483C187.962 5.31907 188.443 5.31907 188.922 5.31907C189.563 5.31907 190.043 5.31907 190.684 5.31907C190.842 5.31907 191.003 5.47907 191.003 5.63907C191.003 5.79907 191.163 6.11907 191.163 6.43807C191.163 6.75807 191.163 7.07807 191.163 7.39707C191.163 7.87807 191.163 8.19707 191.163 8.67807C191.163 8.99707 191.321 9.31807 191.321 9.63807C191.321 9.95707 191.321 10.2781 191.321 10.5981C191.321 10.7581 191.321 10.9181 191.321 10.9181L190.203 11.0781C190.043 10.1181 189.724 9.31807 189.562 8.83807C189.241 8.19707 189.083 7.87807 188.602 7.55807C188.281 7.39707 187.801 7.23807 187.163 7.23807C186.684 7.07807 185.882 7.07807 184.922 7.07807H181.402C181.083 7.07807 180.922 7.07807 180.761 7.07807C180.602 7.07807 180.602 7.23807 180.602 7.23807C180.442 7.23807 180.442 7.39707 180.442 7.39707C180.442 7.55807 180.442 7.71707 180.442 7.87807V16.3581C181.562 16.1981 182.68 16.1981 183.482 16.1981C184.442 16.0371 185.402 16.0371 186.043 16.0371C186.684 16.0371 187.321 15.8771 187.643 15.8771C188.123 15.8771 188.443 15.8771 188.443 15.8771C188.922 15.8771 189.084 16.0371 189.084 16.5171C189.084 16.8371 189.084 16.9981 189.084 17.3171C189.084 17.6371 188.923 17.9581 188.923 18.2781L180.444 17.9581V26.2801H180.44ZM201.721 17.0001C202.841 16.8391 203.801 16.8391 204.601 16.5191C205.402 16.3591 206.04 15.8791 206.681 15.5591C207.16 15.0791 207.641 14.4391 207.962 13.7991C208.12 13.1591 208.281 12.2001 208.281 11.2391C208.281 10.4391 208.12 9.79907 207.801 9.15907C207.641 8.51807 207.16 8.03807 206.681 7.55907C206.04 7.23907 205.402 6.91807 204.761 6.75907C203.96 6.59907 203.16 6.43907 202.362 6.43907C201.721 6.43907 201.4 6.43907 201.081 6.60007C200.762 6.76007 200.602 6.91907 200.602 7.39907V28.8401C200.602 29.1591 200.441 29.4801 200.122 29.4801C199.962 29.4801 199.643 29.4801 199.323 29.6411C199.162 29.6411 198.843 29.6411 198.521 29.6411C198.361 29.6411 198.042 29.6411 197.88 29.6411C197.561 29.6411 197.401 29.6411 197.242 29.6411C196.92 29.6411 196.762 29.4801 196.762 29.1601V8.35907C196.762 7.71807 196.602 7.23907 196.283 6.91907C196.122 6.75907 195.642 6.60007 195.162 6.60007C194.841 6.60007 194.521 6.60007 194.202 6.76007V5.64007C195.481 5.32007 196.921 5.15907 198.361 4.99907C199.962 4.83907 201.401 4.67907 203.002 4.67907C203.643 4.67907 204.283 4.84007 205.082 4.84007C205.884 4.84007 206.521 5.00007 207.323 5.15907C207.964 5.32007 208.602 5.47907 209.243 5.80007C209.884 5.96007 210.522 6.44007 211.004 6.76007C211.484 7.24007 211.804 7.71907 212.122 8.36007C212.444 9.00007 212.444 9.80007 212.444 10.6001C212.444 11.5601 212.444 12.3601 212.122 12.9991C211.804 13.6401 211.484 14.2791 211.004 14.7591C210.523 15.2401 209.884 15.7201 209.243 16.2001C208.602 16.5191 207.964 16.8401 207.323 17.1601C207.642 17.3191 207.964 17.3191 208.443 17.4801C208.762 17.6391 209.243 17.9591 209.562 18.1191C209.883 18.4391 210.203 18.7601 210.682 19.2401C211.003 19.5591 211.162 20.0391 211.323 20.6801L212.924 25.4801C213.082 26.1201 213.243 26.6001 213.563 27.0811C213.723 27.4011 213.884 27.7211 214.044 27.8811C214.203 28.0411 214.524 28.2001 214.683 28.3611C215.004 28.3611 215.324 28.3611 215.643 28.3611V29.4801C215.485 29.4801 215.164 29.6411 214.844 29.6411C214.524 29.6411 214.203 29.8001 213.884 29.8001C213.563 29.8001 213.404 29.8001 213.082 29.8001C212.924 29.8001 212.603 29.8001 212.603 29.8001C212.123 29.8001 211.643 29.8001 211.324 29.6411C211.005 29.6411 210.683 29.4801 210.364 29.1601C210.204 28.8411 209.885 28.5201 209.723 28.2001C209.404 27.7211 209.244 27.2401 209.082 26.6001L207.643 21.4801C207.482 20.8391 207.163 20.2001 206.844 19.7201C206.522 19.4001 206.203 19.0791 205.723 18.7601C205.404 18.5991 204.763 18.4401 204.284 18.2801C203.643 18.2801 202.844 18.1191 202.043 18.1191L201.721 17.0001ZM223.003 26.2801C223.003 26.6001 223.003 26.7601 223.003 27.0811C223.003 27.2401 223.162 27.4011 223.162 27.4011C223.322 27.5601 223.483 27.5601 223.643 27.5601C223.802 27.7201 224.123 27.7201 224.603 27.7201H227.164C228.282 27.7201 229.242 27.7201 229.883 27.5601C230.685 27.5601 231.164 27.4011 231.645 27.0811C232.124 26.9201 232.604 26.4401 232.923 25.8011C233.403 25.3211 233.725 24.3621 234.204 23.4011L235.164 23.5611C235.164 23.7211 235.164 23.8801 235.164 24.3621C235.004 24.6801 235.004 25.1611 234.843 25.6401C234.843 26.2811 234.685 26.7611 234.524 27.4021C234.524 27.8811 234.364 28.3621 234.205 28.8411C234.045 29.3211 233.726 29.4811 233.245 29.4811C232.604 29.4811 232.125 29.4811 231.323 29.4811C230.685 29.4811 229.884 29.4811 228.924 29.4811C228.125 29.4811 227.165 29.4811 226.203 29.4811C225.243 29.4811 224.125 29.4811 223.163 29.4811H219.642C219.484 29.4811 219.323 29.3221 219.323 29.3221C219.163 29.1611 219.163 29.0021 219.163 29.0021V8.99907C219.163 8.19907 219.004 7.71907 218.683 7.56007C218.364 7.39907 218.044 7.24007 217.565 7.24007C217.244 7.24007 216.924 7.24007 216.603 7.24007L216.445 6.12007C216.763 6.12007 217.244 5.95907 217.723 5.95907C218.364 5.79907 218.844 5.79907 219.485 5.64007C220.124 5.64007 220.605 5.47907 221.244 5.47907C221.723 5.47907 222.204 5.31907 222.525 5.31907H230.046C230.525 5.31907 231.006 5.31907 231.647 5.31907C232.126 5.31907 232.606 5.31907 233.247 5.31907C233.566 5.31907 233.566 5.47907 233.727 5.63907C233.727 5.79907 233.727 6.11907 233.727 6.43807C233.727 6.75807 233.727 7.07807 233.727 7.39707C233.727 7.87807 233.727 8.19707 233.885 8.67807C233.885 8.99707 233.885 9.31807 233.885 9.63807C233.885 9.95707 233.885 10.2781 233.885 10.5981C233.885 10.7581 233.885 10.9181 233.885 10.9181L232.925 11.0781C232.606 10.1181 232.446 9.31807 232.126 8.83807C231.965 8.19707 231.647 7.87807 231.166 7.55807C230.845 7.39707 230.365 7.23807 229.885 7.23807C229.244 7.07807 228.446 7.07807 227.647 7.07807H223.965C223.646 7.07807 223.486 7.07807 223.324 7.07807L223.164 7.23807C223.005 7.23807 223.005 7.39707 223.005 7.39707C223.005 7.55807 223.005 7.71707 223.005 7.87807V16.3581C224.126 16.1981 225.244 16.1981 226.204 16.1981C227.166 16.0371 227.965 16.0371 228.605 16.0371C229.405 16.0371 229.884 15.8771 230.365 15.8771C230.686 15.8771 231.006 15.8771 231.166 15.8771C231.485 15.8771 231.646 16.0371 231.646 16.5171C231.646 16.8371 231.646 16.9981 231.646 17.3171C231.646 17.6371 231.646 17.9581 231.485 18.2781L223.005 17.9581V26.2801H223.003Z" fill="#F58634"/>
<path d="M86.833 42.1212C86.673 41.3212 86.512 40.6822 86.192 40.2012C85.874 39.7222 85.393 39.2422 85.072 38.7622C84.593 38.4422 83.952 38.2822 83.471 37.9622C82.832 37.8012 82.192 37.8012 81.551 37.8012C80.91 37.8012 80.273 37.8012 79.792 37.9622C79.151 38.1212 78.672 38.4412 78.191 38.7622C77.712 39.0812 77.39 39.5612 77.071 40.0422C76.752 40.6822 76.591 41.3212 76.591 41.9622C76.591 42.7622 76.752 43.2422 77.071 43.7222C77.39 44.2022 77.87 44.6822 78.352 45.0022C78.991 45.3222 79.631 45.6422 80.272 45.9632C80.91 46.2822 81.711 46.4412 82.352 46.7622C83.312 47.0832 84.111 47.4012 84.913 47.7222C85.712 48.2022 86.511 48.6822 87.151 49.1642C87.792 49.6422 88.272 50.2822 88.752 51.0842C89.071 51.7222 89.393 52.6822 89.393 53.8032C89.393 54.7622 89.233 55.5622 88.914 56.3632C88.593 57.0042 88.273 57.6422 87.793 58.2852C87.314 58.7642 86.833 59.2452 86.192 59.5622C85.551 60.0442 84.753 60.3632 84.112 60.5242C83.313 60.8432 82.511 61.0032 81.873 61.0032C81.072 61.1642 80.273 61.1642 79.472 61.1642C78.512 61.1642 77.552 61.1642 76.592 61.0032C75.793 60.8432 74.831 60.6822 73.871 60.5242C73.713 60.5242 73.713 60.5242 73.552 60.3632C73.552 60.2052 73.552 60.2052 73.552 60.0452C73.392 59.7232 73.392 59.4042 73.392 58.7642C73.392 58.2852 73.392 57.6432 73.392 57.1652C73.233 56.5222 73.233 56.0442 73.233 55.5622C73.233 55.0842 73.233 54.7622 73.233 54.6022H74.352C74.352 55.4032 74.673 56.2052 74.993 56.6822C75.314 57.3232 75.634 57.8032 76.274 58.2852C76.753 58.6022 77.392 58.9242 78.033 59.0852C78.674 59.2452 79.472 59.4042 80.113 59.4042C80.912 59.4042 81.552 59.2452 82.193 59.0852C82.834 58.9242 83.472 58.7642 83.953 58.4442C84.434 57.9642 84.915 57.6422 85.073 57.0042C85.394 56.5232 85.552 55.7232 85.552 55.0852C85.552 54.2832 85.394 53.8042 85.073 53.3232C84.754 52.8442 84.434 52.5222 83.794 52.2052C83.315 51.7232 82.674 51.4032 82.033 51.2432C81.394 50.9242 80.593 50.6022 79.952 50.2832C78.993 49.9642 78.193 49.6422 77.392 49.3232C76.592 48.8442 75.793 48.3632 75.153 47.8842C74.512 47.4022 74.033 46.7632 73.552 45.9642C73.233 45.1622 72.911 44.2032 72.911 43.0832C72.911 41.8032 73.232 40.6832 73.713 39.7232C74.352 38.7632 74.992 37.9632 75.793 37.4832C76.753 37.0042 77.713 36.5232 78.833 36.3632C79.951 36.0432 81.072 35.8832 82.192 35.8832C82.992 35.8832 83.793 36.0432 84.592 36.2032C85.551 36.2032 86.353 36.3632 87.152 36.5232C87.313 36.6832 87.473 36.6832 87.473 36.8422C87.632 36.8422 87.632 37.0032 87.632 37.0032C87.632 37.3222 87.632 37.8022 87.792 38.2822C87.792 38.7622 87.792 39.2432 87.792 39.8822C87.792 40.3622 87.792 40.8422 87.792 41.3222C87.953 41.6422 87.953 41.9632 87.953 42.1222H86.833V42.1212ZM105.554 35.8802C107.313 35.8802 109.075 36.2002 110.514 36.6812C111.953 37.3212 113.075 38.1202 114.195 39.0802C115.155 40.2002 115.954 41.4802 116.434 42.9212C117.075 44.5222 117.235 46.2812 117.235 48.2012C117.235 50.2812 117.075 52.0422 116.434 53.6402C115.795 55.4012 114.833 56.6802 113.715 57.8012C112.594 58.9212 111.313 59.7202 109.715 60.3612C108.114 60.8412 106.353 61.1632 104.273 61.1632C102.514 61.1632 100.914 60.8422 99.474 60.3612C98.034 59.7202 96.752 58.9222 95.792 57.8012C94.672 56.8412 94.033 55.5602 93.393 53.9612C92.914 52.3602 92.592 50.6002 92.592 48.6802C92.592 46.6002 92.913 44.8412 93.554 43.2412C94.193 41.6402 94.993 40.2002 96.112 39.2412C97.233 38.1202 98.673 37.3202 100.273 36.6802C101.874 36.2012 103.635 35.8802 105.554 35.8802ZM104.594 37.6412C103.155 37.6412 102.033 37.9612 101.074 38.4412C100.114 39.0812 99.312 39.7212 98.672 40.6812C98.033 41.6412 97.554 42.6012 97.393 43.8812C97.074 45.0012 96.914 46.2812 96.914 47.5612C96.914 49.1642 97.074 50.6012 97.393 51.8822C97.712 53.3212 98.193 54.6012 98.833 55.7212C99.474 56.8422 100.434 57.6412 101.554 58.4432C102.514 59.0842 103.793 59.4032 105.394 59.4032C106.675 59.4032 107.954 59.0842 108.914 58.6012C109.874 57.9622 110.676 57.1632 111.313 56.3622C111.954 55.4022 112.275 54.2822 112.594 53.0032C112.913 51.7222 113.074 50.6022 113.074 49.1642C113.074 47.7222 112.913 46.4402 112.594 45.0022C112.275 43.5632 111.793 42.2822 111.155 41.3212C110.353 40.2012 109.554 39.2422 108.434 38.6012C107.313 37.9612 106.035 37.6412 104.594 37.6412ZM126.195 57.3222C126.195 57.6412 126.195 57.9632 126.195 58.1242C126.195 58.2842 126.195 58.4432 126.356 58.6022C126.514 58.6022 126.514 58.7632 126.835 58.7632C126.994 58.7632 127.315 58.7632 127.635 58.7632H129.715C130.836 58.7632 131.795 58.7632 132.436 58.7632C133.075 58.6022 133.715 58.4442 134.196 58.2842C134.675 57.9632 135.156 57.4832 135.477 56.8432C135.796 56.3632 136.276 55.4032 136.755 54.4442L137.715 54.6022C137.715 54.7622 137.715 54.9232 137.715 55.4032C137.557 55.7222 137.557 56.2052 137.396 56.8432C137.236 57.3222 137.236 57.9632 137.078 58.4442C136.917 59.0852 136.756 59.5622 136.756 59.8832C136.596 60.3622 136.115 60.6822 135.636 60.6822C134.676 60.6822 133.397 60.6822 131.796 60.5242C130.196 60.5242 128.437 60.5242 126.195 60.5242H122.836C122.676 60.5242 122.515 60.5242 122.357 60.3632C122.357 60.2052 122.357 60.2052 122.357 60.0452V39.7212C122.357 39.4012 122.196 39.0802 122.196 38.7612C122.036 38.6012 122.036 38.4412 121.878 38.2812C121.717 38.1212 121.556 37.9622 121.398 37.9622C121.077 37.9622 120.916 37.8012 120.597 37.8012C120.278 37.8012 120.117 37.9622 119.797 37.9622L119.637 36.8412C120.436 36.6822 121.076 36.5222 121.717 36.5222C122.358 36.3622 122.996 36.2022 123.476 36.2022C124.117 36.2022 124.438 36.2022 124.757 36.0422C125.237 36.0422 125.398 36.0422 125.556 36.0422C125.878 36.0422 126.197 36.2022 126.197 36.6832V57.3222H126.195ZM145.078 53.0022C145.078 53.9622 145.236 54.9222 145.397 55.5612C145.715 56.3622 146.038 56.8422 146.678 57.3222C147.157 57.8022 147.637 58.1242 148.276 58.2842C149.078 58.4432 149.718 58.6012 150.517 58.6012C151.477 58.6012 152.437 58.4432 153.397 58.1232C154.357 57.8022 155.319 57.3212 156.279 56.8422V37.1612C156.279 36.8412 156.437 36.5212 156.758 36.5212C157.077 36.5212 157.237 36.3612 157.557 36.3612C157.877 36.3612 158.198 36.3612 158.357 36.3612C158.678 36.3612 158.998 36.3612 159.158 36.2012C159.477 36.2012 159.638 36.2012 159.638 36.2012C159.957 36.2012 160.117 36.3612 160.117 36.8412V60.0442C160.117 60.3622 159.957 60.5232 159.638 60.5232C159.477 60.6812 159.158 60.6812 158.997 60.6812C158.678 60.6812 158.356 60.8422 158.197 60.8422C157.876 60.8422 157.718 60.8422 157.396 60.8422C157.237 60.8422 157.077 60.8422 156.916 60.8422C156.597 60.8422 156.437 60.6812 156.437 60.3622L156.279 58.6012C154.998 59.4032 153.718 59.8822 152.279 60.3622C150.837 60.8422 149.397 61.1642 147.797 61.1642C146.997 61.1642 146.038 61.0032 145.236 60.6822C144.437 60.5242 143.797 60.2042 143.158 59.5622C142.517 59.0842 142.037 58.4442 141.716 57.6422C141.397 56.8432 141.237 55.8832 141.237 54.7622V39.7222C141.237 39.4022 141.079 39.0812 141.079 38.7622C141.079 38.6022 140.918 38.4422 140.757 38.2822C140.599 38.1222 140.439 37.9632 140.278 37.9632C139.959 37.9632 139.799 37.8022 139.479 37.8022C139.318 37.8022 138.999 37.9632 138.677 37.9632L138.519 36.8422C139.318 36.6832 139.958 36.5232 140.599 36.5232C141.238 36.3632 141.878 36.2032 142.358 36.2032C142.999 36.2032 143.318 36.2032 143.798 36.0432C144.119 36.0432 144.277 36.0432 144.439 36.0432C144.758 36.0432 145.08 36.2032 145.08 36.6842V53.0022H145.078ZM170.359 38.1212C169.399 38.1212 168.758 38.2812 168.118 38.2812C167.478 38.2812 166.998 38.4412 166.679 38.7612C166.36 39.0802 165.88 39.4012 165.719 40.0412C165.4 40.6812 165.24 41.4802 164.92 42.4402H163.958C163.958 42.2812 163.958 42.1202 163.958 41.9612C163.958 41.6412 163.958 41.3202 163.958 41.0012C163.958 40.6812 163.958 40.3602 164.118 39.8802C164.118 39.4012 164.118 39.0802 164.118 38.6012C164.118 38.2812 164.118 37.9612 164.118 37.4812C164.279 37.1612 164.279 37.0022 164.279 36.6812C164.279 36.5212 164.437 36.5212 164.598 36.5212C165.879 36.5212 167.158 36.5212 168.279 36.5212C169.399 36.5212 170.517 36.5212 171.48 36.5212H178.359C179.319 36.5212 180.44 36.5212 181.56 36.5212C182.678 36.5212 183.959 36.5212 185.239 36.5212C185.4 36.5212 185.56 36.5212 185.56 36.6812C185.56 37.0012 185.56 37.1602 185.56 37.4812C185.56 37.9612 185.56 38.2812 185.718 38.6012C185.718 39.0802 185.718 39.4012 185.718 39.8802C185.718 40.3602 185.718 40.6812 185.718 41.0012C185.718 41.3202 185.718 41.6412 185.718 41.9612C185.718 42.1202 185.718 42.2812 185.718 42.4402H184.759C184.44 41.4802 184.279 40.6802 183.959 40.0412C183.799 39.4002 183.48 39.0802 183.16 38.7612C182.678 38.4412 182.198 38.2812 181.718 38.2812C181.08 38.2812 180.279 38.1212 179.48 38.1212H176.758V60.0442C176.758 60.3622 176.598 60.5232 176.279 60.5232C176.118 60.6812 175.8 60.6812 175.48 60.6812C175.159 60.6812 175 60.8422 174.678 60.8422C174.359 60.8422 174.199 60.8422 173.879 60.8422C173.718 60.8422 173.558 60.8422 173.399 60.8422C173.078 60.8422 172.92 60.6812 172.92 60.3622V38.1212H170.359ZM186.84 36.8402C187.641 36.6812 188.279 36.5212 188.92 36.5212C189.561 36.3612 190.201 36.2012 190.682 36.2012C191.32 36.2012 191.642 36.2012 191.96 36.0412C192.44 36.0412 192.601 36.0412 192.762 36.0412C193.081 36.0412 193.401 36.2012 193.401 36.6822V60.0442C193.401 60.3622 193.242 60.5232 192.921 60.5232C192.602 60.6812 192.442 60.6812 192.122 60.6812C191.801 60.6812 191.481 60.8422 191.32 60.8422C191.002 60.8422 190.682 60.8422 190.521 60.8422C190.361 60.8422 190.042 60.8422 190.042 60.8422C189.723 60.8422 189.562 60.6812 189.562 60.3622V39.7212C189.562 39.4012 189.402 39.0802 189.402 38.7612C189.241 38.6012 189.241 38.4412 189.083 38.2812C188.922 38.1212 188.762 37.9622 188.603 37.9622C188.282 37.9622 188.124 37.8012 187.802 37.8012C187.483 37.8012 187.322 37.9622 187.002 37.9622L186.84 36.8402ZM211.322 35.8802C213.081 35.8802 214.681 36.2002 216.121 36.6812C217.563 37.3212 218.843 38.1202 219.803 39.0802C220.923 40.2002 221.722 41.4802 222.202 42.9212C222.843 44.5222 223.003 46.2812 223.003 48.2012C223.003 50.2812 222.682 52.0422 222.202 53.6402C221.563 55.4012 220.603 56.6802 219.483 57.8012C218.362 58.9212 217.081 59.7202 215.483 60.3612C213.882 60.8412 211.962 61.1632 210.041 61.1632C208.282 61.1632 206.682 60.8422 205.242 60.3612C203.802 59.7202 202.52 58.9222 201.56 57.8012C200.44 56.8412 199.641 55.5602 199.161 53.9612C198.682 52.3602 198.36 50.6002 198.36 48.6802C198.36 46.6002 198.681 44.8412 199.322 43.2412C199.961 41.6402 200.761 40.2002 201.883 39.2412C203.001 38.1202 204.441 37.3202 206.041 36.6802C207.641 36.2012 209.402 35.8802 211.322 35.8802ZM210.362 37.6412C208.923 37.6412 207.801 37.9612 206.842 38.4412C205.882 39.0812 205.08 39.7212 204.44 40.6812C203.801 41.6412 203.322 42.6012 203.001 43.8812C202.842 45.0012 202.682 46.2812 202.682 47.5612C202.682 49.1642 202.842 50.6012 203.161 51.8822C203.48 53.3212 203.961 54.6012 204.601 55.7212C205.242 56.8422 206.202 57.6412 207.161 58.4432C208.282 59.0842 209.561 59.4032 211.162 59.4032C212.443 59.4032 213.722 59.0842 214.682 58.6012C215.642 57.9622 216.444 57.1632 217.081 56.3622C217.563 55.4022 218.043 54.2822 218.362 53.0032C218.681 51.7222 218.842 50.6022 218.842 49.1642C218.842 47.7222 218.681 46.4402 218.362 45.0022C218.043 43.5632 217.563 42.2822 216.923 41.3212C216.121 40.2012 215.322 39.2422 214.202 38.6012C213.081 37.9612 211.802 37.6412 210.362 37.6412ZM230.044 35.7212C230.204 35.7212 230.204 35.7212 230.363 35.8802C230.363 35.8802 230.523 36.0402 230.684 36.2002L244.923 55.2432L244.443 36.5202C244.443 36.3602 244.604 36.3602 244.764 36.3602C245.083 36.2002 245.405 36.2002 245.724 36.2002C246.204 36.2002 246.684 36.2002 247.003 36.2002C247.163 36.2002 247.324 36.2002 247.324 36.5202L246.845 56.6802V60.5222C246.845 60.6802 246.684 60.6802 246.523 60.6802C246.205 60.8412 246.044 60.8412 245.724 60.8412C245.404 60.8412 245.083 60.8412 244.764 60.8412C244.604 60.8412 244.443 60.8412 244.443 60.8412C244.285 60.6802 244.285 60.6802 244.285 60.5222L229.724 41.3202L230.203 60.5222C230.203 60.6802 230.203 60.6802 229.882 60.6802C229.724 60.6802 229.403 60.8412 228.922 60.8412C228.443 60.8412 228.123 60.8412 227.802 60.8412C227.483 60.8412 227.483 60.6802 227.483 60.5222L227.962 38.9202L226.201 36.5202C226.201 36.5202 226.201 36.5202 226.201 36.3602C226.201 36.2002 226.201 36.0402 226.522 36.0402C226.683 35.8802 227.002 35.8802 227.321 35.8802C227.801 35.8802 228.123 35.8802 228.442 35.7212C228.761 35.7212 229.083 35.7212 229.402 35.7212C229.724 35.7212 229.883 35.7212 230.044 35.7212ZM265.087 42.1212C264.926 41.3212 264.766 40.6822 264.446 40.2012C264.127 39.7222 263.805 39.2422 263.325 38.7622C262.846 38.4422 262.365 38.2822 261.724 37.9622C261.245 37.8012 260.606 37.8012 259.965 37.8012C259.164 37.8012 258.684 37.8012 258.046 37.9622C257.405 38.1212 256.925 38.4412 256.445 38.7622C255.965 39.0812 255.643 39.5612 255.324 40.0422C255.005 40.6822 255.005 41.3212 255.005 41.9622C255.005 42.7622 255.164 43.2422 255.485 43.7222C255.804 44.2022 256.124 44.6822 256.764 45.0022C257.243 45.3222 257.884 45.6422 258.525 45.9632C259.164 46.2822 259.964 46.4412 260.764 46.7622C261.565 47.0832 262.364 47.4012 263.163 47.7222C263.964 48.2022 264.764 48.6822 265.404 49.1642C266.045 49.6422 266.685 50.2822 267.004 51.0842C267.484 51.7222 267.645 52.6822 267.645 53.8032C267.645 54.7622 267.485 55.5622 267.166 56.3632C267.005 57.0042 266.525 57.6422 266.046 58.2852C265.566 58.7642 265.086 59.2452 264.445 59.5622C263.804 60.0442 263.164 60.3632 262.364 60.5242C261.723 60.8432 260.925 61.0032 260.124 61.0032C259.324 61.1642 258.525 61.1642 257.724 61.1642C256.765 61.1642 255.805 61.1642 255.005 61.0032C254.043 60.8432 253.083 60.6822 252.284 60.5242C252.123 60.5242 251.965 60.5242 251.965 60.3632C251.805 60.2052 251.805 60.2052 251.805 60.0452C251.805 59.7232 251.644 59.4042 251.644 58.7642C251.644 58.2852 251.644 57.6432 251.644 57.1652C251.644 56.5222 251.644 56.0442 251.644 55.5622C251.486 55.0842 251.486 54.7622 251.486 54.6022H252.604C252.604 55.4032 252.925 56.2052 253.245 56.6822C253.564 57.3232 254.044 57.8032 254.526 58.2852C255.005 58.6022 255.644 58.9242 256.285 59.0852C256.926 59.2452 257.724 59.4042 258.526 59.4042C259.165 59.4042 259.805 59.2452 260.446 59.0852C261.087 58.9242 261.724 58.7642 262.205 58.4442C262.684 57.9642 263.165 57.6422 263.486 57.0042C263.805 56.5232 263.965 55.7232 263.965 55.0852C263.965 54.2832 263.805 53.8042 263.486 53.3232C263.165 52.8442 262.684 52.5222 262.205 52.2052C261.566 51.7232 260.926 51.4032 260.285 51.2432C259.644 50.9242 258.846 50.6022 258.205 50.2832C257.406 49.9642 256.604 49.6422 255.644 49.3232C254.845 48.8442 254.205 48.3632 253.405 47.8842C252.764 47.4022 252.285 46.7632 251.805 45.9642C251.486 45.1622 251.325 44.2032 251.325 43.0832C251.325 41.8032 251.486 40.6832 252.124 39.7232C252.604 38.7632 253.245 37.9632 254.205 37.4832C255.006 37.0042 255.966 36.5232 257.084 36.3632C258.205 36.0432 259.325 35.8832 260.446 35.8832C261.245 35.8832 262.047 36.0432 263.006 36.2032C263.806 36.2032 264.766 36.3632 265.567 36.5232C265.567 36.6832 265.726 36.6832 265.726 36.8422C265.886 36.8422 265.886 37.0032 265.886 37.0032C265.886 37.3222 266.047 37.8022 266.047 38.2822C266.047 38.7622 266.047 39.2432 266.047 39.8822C266.205 40.3622 266.205 40.8422 266.205 41.3222C266.205 41.6422 266.205 41.9632 266.205 42.1222H265.087V42.1212Z" fill="#373435"/>
<path d="M242.856 12V3.6H239.986V2.564H246.972V3.6H244.088V12H242.856ZM256.213 12L255.975 7.856C255.905 6.54 255.821 4.958 255.835 3.782H255.793C255.471 4.888 255.079 6.064 254.603 7.366L252.937 11.944H252.013L250.487 7.45C250.039 6.12 249.661 4.902 249.395 3.782H249.367C249.339 4.958 249.269 6.54 249.185 7.954L248.933 12H247.771L248.429 2.564H249.983L251.593 7.128C251.985 8.29 252.307 9.326 252.545 10.306H252.587C252.825 9.354 253.161 8.318 253.581 7.128L255.261 2.564H256.815L257.403 12H256.213Z" fill="black"/>
</svg>
