<?xml version="1.0" encoding="utf-8"
<!-- Generator: Adobe Illustrator 16.0.0, SVG Export Plug-In . SVG Version: 6.00 Build 0)  -->
<!DOCTYPE svg PUBLIC "-//W3C//DTD SVG 1.1//EN" "http://www.w3.org/Graphics/SVG/1.1/DTD/svg11.dtd">
<svg version="1.1" id="Layer_1" xmlns="http://www.w3.org/2000/svg" xmlns:xlink="http://www.w3.org/1999/xlink" x="0px" y="0px"
	 width="310.232px" height="87.9px" viewBox="0 0 310.232 87.9" enable-background="new 0 0 310.232 87.9" xml:space="preserve">
<g id="Layer_x0020_1">
	<g id="_2342219055376">
		<g>
			<path fill="#6E7ABA" d="M53.991,79.325c-16.962-4.641-29.442-20.161-29.442-38.563c0-17.441,11.041-32.162,26.402-37.763
				C39.27,10.039,31.267,22.84,31.267,37.401c0,14.723,8.002,27.683,19.842,34.563C51.911,74.523,52.87,76.923,53.991,79.325z"/>
			<path fill="#F58634" d="M33.669,15.16c-11.522,6.4-18.721,16.321-17.121,24.802c2.078,11.202,18.4,16.001,36.322,10.72
				c2.719-0.799,5.121-1.759,7.521-2.879L58.31,63.641c-1.759,0.644-3.52,1.121-5.44,1.762c-22.241,5.922-43.844-0.96-48.324-15.199
				c-4.48-13.923,8.962-29.924,30.083-36.165C34.308,14.359,33.989,14.839,33.669,15.16z"/>
			<g>
				<defs>
					<path id="SVGID_1_" d="M33.669,15.16c-11.522,6.4-18.721,16.321-17.121,24.802c2.078,11.202,18.4,16.001,36.322,10.72
						c2.719-0.799,5.121-1.759,7.521-2.879L58.31,63.641c-1.759,0.644-3.52,1.121-5.44,1.762
						c-22.241,5.922-43.844-0.96-48.324-15.199c-4.48-13.923,8.962-29.924,30.083-36.165C34.308,14.359,33.989,14.839,33.669,15.16z
						"/>
				</defs>
				<clipPath id="SVGID_2_">
					<use xlink:href="#SVGID_1_"  overflow="visible"/>
				</clipPath>
				<g clip-path="url(#SVGID_2_)">
					<g>
						<path id="_x31_" fill="#FEFEFE" d="M-2.173,38.361l24.48,2.561v3.202l-24.48-2.562V38.361z M44.069,46.362h5.44L43.27,75.003
							h-5.281L44.069,46.362z M34.79,45.083h5.279l-21.121,28.48h-5.44L34.79,45.083z M2.626,53.561l24.482-9.438v3.839
							l-24.482,9.44V53.561z M0.867,13.079L25.348,28.6v2.561L0.867,15.48V13.079z M4.867,2.678l24.48,20.162v2.399L4.867,5.239
							V2.678z M-1.693,25.401l24.322,8.32v2.399L-1.693,27.8V25.401z"/>
					</g>
				</g>
			</g>
			<path fill="none" d="M33.669,15.16c-11.522,6.4-18.721,16.321-17.121,24.802c2.078,11.202,18.4,16.001,36.322,10.72
				c2.719-0.799,5.121-1.759,7.521-2.879L58.31,63.641c-1.759,0.644-3.52,1.121-5.44,1.762c-22.241,5.922-43.844-0.96-48.324-15.199
				c-4.48-13.923,8.962-29.924,30.083-36.165C34.308,14.359,33.989,14.839,33.669,15.16z"/>
		</g>
		<path fill="#373435" d="M82.951,79.644h-6.879V66.842h6.561v1.12h-5.121v4.322h4.802v1.12h-4.802v5.121h5.439V79.644z
			 M84.713,70.204h1.279v0.8h0.16c0.319-0.319,0.641-0.639,0.96-0.8c0.321-0.16,0.641-0.321,1.121-0.321
			c0.479,0,0.959,0.161,1.278,0.321c0.321,0.161,0.641,0.639,0.962,1.121c0.48-0.482,0.8-0.96,1.279-1.121
			c0.319-0.16,0.8-0.321,1.121-0.321c0.799,0,1.439,0.321,1.759,0.802c0.479,0.641,0.641,1.439,0.641,2.561v0.799v5.601h-1.279
			v-5.922c0-1.118-0.16-1.759-0.321-2.078c-0.319-0.48-0.641-0.641-1.279-0.641c-0.321,0-0.641,0-0.96,0.16
			c-0.321,0.161-0.479,0.48-0.801,0.8v7.681h-1.279v-5.922c0-0.96-0.161-1.759-0.321-2.078c-0.319-0.48-0.639-0.641-1.118-0.641
			c-0.321,0-0.641,0.16-0.962,0.321c-0.319,0.158-0.639,0.319-0.96,0.639v7.681h-1.279V70.204z M98.954,77.724
			c0.158,0.319,0.479,0.641,0.799,0.802c0.321,0.158,0.641,0.158,0.96,0.158c0.641,0,1.121-0.319,1.44-0.96
			c0.321-0.641,0.481-1.601,0.481-2.882c0-1.279-0.16-2.238-0.481-2.879c-0.319-0.639-0.8-0.96-1.44-0.96
			c-0.319,0-0.639,0.16-0.96,0.321c-0.319,0.158-0.641,0.319-0.799,0.799V77.724z M97.514,70.204h1.439v0.8h0.158
			c0.321-0.319,0.641-0.639,0.962-0.8c0.319-0.16,0.639-0.321,1.119-0.321c0.801,0,1.601,0.482,2.08,1.442
			c0.479,0.799,0.802,2.08,0.802,3.518c0,1.603-0.322,2.722-0.802,3.684c-0.479,0.96-1.279,1.438-2.08,1.438
			c-0.48,0-0.8-0.161-1.119-0.319c-0.479-0.158-0.641-0.48-0.962-0.96l-0.158,0.158v3.684h-1.439V70.204z M109.353,71.003
			c-0.641,0-1.12,0.321-1.439,0.96c-0.479,0.641-0.641,1.6-0.641,2.721c0,1.279,0.161,2.399,0.48,3.04
			c0.479,0.802,0.959,1.118,1.6,1.118s1.121-0.316,1.601-1.118c0.319-0.641,0.48-1.601,0.48-2.882c0-1.12-0.161-2.238-0.48-2.879
			C110.474,71.325,109.994,71.003,109.353,71.003z M105.834,74.842c0-1.598,0.321-2.719,0.96-3.679
			c0.641-0.799,1.439-1.281,2.56-1.281c1.121,0,1.92,0.482,2.561,1.281c0.641,0.96,0.96,2.081,0.96,3.679
			c0,1.603-0.319,2.882-0.96,3.684c-0.479,0.96-1.439,1.438-2.561,1.438c-1.12,0-1.919-0.478-2.56-1.438
			C106.155,77.724,105.834,76.445,105.834,74.842z M113.994,70.204h1.601l1.601,8.001h0.159l1.6-8.001h1.44l1.601,8.001h0.321
			l1.598-8.001h1.601l-2.719,9.44h-1.281l-1.601-7.359h-0.319l-1.6,7.359h-1.279L113.994,70.204z M133.676,78.684
			c-0.479,0.479-0.96,0.802-1.439,0.96c-0.48,0.158-1.121,0.319-1.76,0.319c-1.281,0-2.24-0.478-2.881-1.279
			c-0.641-0.96-0.96-2.08-0.96-3.842c0-1.438,0.319-2.719,0.96-3.679c0.641-0.799,1.439-1.281,2.56-1.281
			c1.121,0,2.081,0.482,2.722,1.281c0.479,0.96,0.799,2.241,0.799,3.84v0.321h-5.601v0.16c0,1.119,0.321,1.92,0.641,2.397
			c0.479,0.644,1.12,0.96,1.761,0.96c0.48,0,0.96-0.158,1.279-0.316c0.48-0.321,0.8-0.482,0.96-0.802h0.96V78.684z M132.236,74.204
			c0-0.959-0.161-1.759-0.48-2.401c-0.479-0.639-0.96-0.799-1.601-0.799s-1.12,0.16-1.439,0.799
			c-0.319,0.482-0.479,1.442-0.641,2.401H132.236z M135.917,70.204h1.279v0.639c0,0.321,0,0.482,0,0.641c0,0.161,0,0.319-0.159,0.48
			h0.319c0.161-0.48,0.641-0.96,1.121-1.279c0.638-0.319,1.278-0.48,1.919-0.48l0,0v1.44c-0.641,0-1.12,0.158-1.761,0.319
			c-0.479,0.16-0.96,0.481-1.439,0.959v6.722h-1.279V70.204z M142.316,66.365h1.439v1.438h-1.439V66.365z M142.316,70.204h1.439
			v9.44h-1.439V70.204z M146.477,70.204h1.279v0.8h0.16c0.319-0.319,0.641-0.639,0.96-0.8c0.321-0.16,0.802-0.321,1.12-0.321
			c0.96,0,1.601,0.321,1.92,0.802c0.48,0.641,0.641,1.439,0.641,2.561v0.799v5.601h-1.281v-5.922c0-1.118-0.158-1.759-0.319-2.078
			c-0.319-0.48-0.641-0.641-1.278-0.641c-0.322,0-0.641,0.16-0.963,0.321c-0.318,0.158-0.638,0.319-0.959,0.639v7.681h-1.279V70.204
			z M159.759,77.724c-0.321,0.319-0.641,0.641-0.96,0.802c-0.321,0.158-0.641,0.316-1.12,0.316c-0.96,0-1.762-0.316-2.241-1.118
			c-0.641-0.801-0.799-1.922-0.799-3.359c0-1.442,0.158-2.563,0.799-3.361c0.479-0.8,1.281-1.121,2.241-1.121
			c0.479,0,0.799,0.161,1.12,0.321c0.319,0.161,0.639,0.48,0.96,0.8h0.158v-0.8h1.281v9.121c0,1.12-0.16,1.92-0.801,2.399
			c-0.48,0.641-1.279,0.802-2.399,0.802c-0.48,0-0.96,0-1.44-0.161c-0.479-0.16-0.96-0.321-1.601-0.641v-1.601h0.96
			c0.321,0.48,0.641,0.8,0.96,0.96c0.321,0.161,0.641,0.321,1.121,0.321c0.801,0,1.281-0.321,1.439-0.641
			c0.321-0.479,0.479-1.278,0.479-2.399v-0.641H159.759z M159.917,72.124c-0.319-0.479-0.638-0.641-0.96-0.799
			c-0.158-0.161-0.479-0.321-0.959-0.321c-0.641,0-1.121,0.321-1.44,0.799c-0.319,0.643-0.479,1.442-0.479,2.563
			s0.16,1.92,0.479,2.559c0.319,0.481,0.8,0.801,1.44,0.801c0.479,0,0.801-0.16,0.959-0.319c0.322-0.16,0.641-0.321,0.96-0.801
			V72.124z M167.118,81.405h0.161c0.158,0,0.158,0,0.158,0c0.802,0,1.281-0.16,1.601-0.481c0.321-0.319,0.641-0.96,0.802-1.76
			l-2.722-8.96h1.601l1.759,7.679h0.161l1.761-7.679h1.44l-2.722,9.121c-0.319,1.279-0.799,2.08-1.278,2.558
			c-0.641,0.482-1.281,0.802-2.241,0.802c-0.161,0-0.161,0-0.319-0.158h-0.161V81.405z M178.638,71.003
			c-0.639,0-1.118,0.321-1.599,0.96c-0.321,0.641-0.481,1.6-0.481,2.721c0,1.279,0.16,2.399,0.481,3.04
			c0.319,0.802,0.96,1.118,1.599,1.118c0.641,0,1.12-0.316,1.601-1.118c0.321-0.641,0.479-1.601,0.479-2.882
			c0-1.12-0.158-2.238-0.638-2.879C179.759,71.325,179.279,71.003,178.638,71.003z M175.118,74.842c0-1.598,0.321-2.719,0.96-3.679
			c0.641-0.799,1.442-1.281,2.561-1.281c1.12,0,1.922,0.482,2.561,1.281c0.641,0.96,0.96,2.081,0.96,3.679
			c0,1.603-0.319,2.882-0.96,3.684c-0.639,0.96-1.44,1.438-2.561,1.438c-1.118,0-1.92-0.478-2.561-1.438
			C175.439,77.724,175.118,76.445,175.118,74.842z M190.319,79.644h-1.439v-0.802h-0.161c-0.318,0.321-0.479,0.644-0.799,0.802
			c-0.479,0.158-0.799,0.158-1.279,0.158c-0.479,0-1.12-0.158-1.441-0.316c-0.48-0.322-0.799-0.802-0.96-1.281
			c0-0.161-0.158-0.48-0.158-0.8c0-0.321,0-0.801,0-1.761v-5.44h1.278v5.92c0,0.96,0.161,1.601,0.48,2.081
			c0.16,0.321,0.641,0.479,1.12,0.479c0.48,0,0.8,0,1.121-0.158c0.158-0.161,0.479-0.482,0.799-0.802v-7.521h1.439V79.644z
			 M196.241,70.204h1.599l1.601,8.001h0.161l1.6-8.001h1.44l1.601,8.001h0.318l1.601-8.001h1.44l-2.561,9.44h-1.279l-1.761-7.359
			h-0.159l-1.6,7.359h-1.281L196.241,70.204z M209.362,66.365h1.439v1.438h-1.439V66.365z M209.52,70.204h1.281v9.44h-1.281V70.204z
			 M217.202,79.644h-1.44c-0.799,0-1.278-0.158-1.6-0.48c-0.319-0.321-0.48-1.12-0.48-2.08v-5.92h-1.12v-0.96h1.12v-3.04h1.439v3.04
			h2.081v0.96h-2.081v5.92c0,0.641,0,1.121,0.161,1.281c0.161,0,0.479,0.161,0.96,0.161h0.96V79.644z M218.963,66.365h1.279v4.639
			h0.16c0.319-0.319,0.641-0.639,0.96-0.8c0.319-0.16,0.8-0.321,1.121-0.321c0.96,0,1.601,0.321,1.92,0.802
			c0.479,0.641,0.641,1.439,0.641,2.399v0.96v5.601h-1.281v-5.922c0-1.118-0.159-1.759-0.319-2.078
			c-0.321-0.48-0.641-0.641-1.281-0.641c-0.319,0-0.639,0.16-0.96,0.321c-0.319,0.158-0.639,0.319-0.96,0.639v7.681h-1.279V66.365z
			 M235.603,79.644h-1.439V67.962h-3.361v-1.12h8.161v1.12h-3.36V79.644z M246.964,78.684c-0.48,0.479-0.96,0.802-1.44,0.96
			c-0.479,0.158-1.12,0.319-1.759,0.319c-1.281,0-2.08-0.478-2.721-1.279c-0.641-0.96-0.96-2.08-0.96-3.842
			c0-1.438,0.319-2.719,0.799-3.679c0.641-0.799,1.601-1.281,2.722-1.281c1.12,0,1.919,0.482,2.56,1.281
			c0.641,0.96,0.8,2.241,0.8,3.84v0.321h-5.44v0.16c0,1.119,0.161,1.92,0.641,2.397c0.319,0.644,0.96,0.96,1.76,0.96
			c0.321,0,0.801-0.158,1.281-0.316c0.318-0.321,0.641-0.482,0.799-0.802h0.96V78.684z M245.684,74.204
			c-0.161-0.959-0.319-1.759-0.641-2.401c-0.479-0.639-0.96-0.799-1.439-0.799c-0.641,0-1.279,0.16-1.601,0.799
			c-0.319,0.482-0.48,1.442-0.48,2.401H245.684z M254.644,72.445h-0.96c-0.16-0.481-0.319-0.962-0.641-1.12
			c-0.319-0.321-0.639-0.321-0.96-0.321c-0.639,0-1.12,0.321-1.439,0.96c-0.319,0.799-0.48,1.759-0.48,2.879
			c0,1.281,0.161,2.241,0.48,2.882c0.319,0.802,0.801,1.118,1.439,1.118c0.321,0,0.641-0.158,0.96-0.316
			c0.321-0.321,0.48-0.644,0.641-1.121h0.96v1.279c-0.319,0.479-0.799,0.802-1.12,0.96c-0.48,0.158-0.96,0.319-1.44,0.319
			c-1.12,0-1.92-0.478-2.561-1.438c-0.479-0.802-0.799-2.081-0.799-3.684c0-1.438,0.319-2.719,0.799-3.679
			c0.641-0.799,1.44-1.281,2.561-1.281c0.48,0,0.96,0.161,1.281,0.321c0.48,0.161,0.8,0.48,1.279,0.8V72.445z M256.724,66.365h1.44
			v4.639h0.16c0.319-0.319,0.641-0.639,0.96-0.8c0.319-0.16,0.641-0.321,1.121-0.321c0.799,0,1.439,0.321,1.919,0.802
			c0.48,0.641,0.641,1.439,0.641,2.399v0.96v5.601h-1.281v-5.922c0-1.118-0.158-1.759-0.479-2.078
			c-0.158-0.48-0.639-0.641-1.121-0.641c-0.318,0-0.638,0.16-0.959,0.321c-0.319,0.158-0.639,0.319-0.96,0.639v7.681h-1.44V66.365z
			 M265.365,70.204h1.44v0.8h0.16c0.319-0.319,0.641-0.639,0.96-0.8c0.319-0.16,0.641-0.321,1.121-0.321
			c0.799,0,1.439,0.321,1.919,0.802c0.48,0.641,0.641,1.439,0.641,2.561v0.799v5.601h-1.281v-5.922c0-1.118-0.158-1.759-0.479-2.078
			c-0.158-0.48-0.641-0.641-1.12-0.641c-0.319,0-0.639,0.16-0.96,0.321c-0.319,0.158-0.639,0.319-0.96,0.639v7.681h-1.44V70.204z
			 M277.047,71.003c-0.641,0-1.121,0.321-1.439,0.96c-0.48,0.641-0.641,1.6-0.641,2.721c0,1.279,0.16,2.399,0.479,3.04
			c0.479,0.802,0.96,1.118,1.601,1.118s1.12-0.316,1.601-1.118c0.319-0.641,0.479-1.601,0.479-2.882c0-1.12-0.16-2.238-0.479-2.879
			C278.167,71.325,277.687,71.003,277.047,71.003z M273.526,74.842c0-1.598,0.319-2.719,0.96-3.679
			c0.641-0.799,1.439-1.281,2.561-1.281c1.12,0,1.92,0.482,2.561,1.281c0.641,0.96,0.959,2.081,0.959,3.679
			c0,1.603-0.318,2.882-0.959,3.684c-0.48,0.96-1.44,1.438-2.561,1.438c-1.121,0-1.92-0.478-2.561-1.438
			C273.845,77.724,273.526,76.445,273.526,74.842z M282.807,66.365h1.279v13.279h-1.279V66.365z M289.848,71.003
			c-0.641,0-1.281,0.321-1.601,0.96c-0.321,0.641-0.48,1.6-0.48,2.721c0,1.279,0.159,2.399,0.48,3.04
			c0.319,0.802,0.799,1.118,1.601,1.118c0.638,0,1.118-0.316,1.439-1.118c0.319-0.641,0.641-1.601,0.641-2.882
			c0-1.12-0.321-2.238-0.641-2.879C290.967,71.325,290.486,71.003,289.848,71.003z M286.328,74.842c0-1.598,0.319-2.719,0.799-3.679
			c0.641-0.799,1.601-1.281,2.722-1.281c0.96,0,1.919,0.482,2.56,1.281c0.639,0.96,0.8,2.081,0.8,3.679
			c0,1.603-0.161,2.882-0.8,3.684c-0.641,0.96-1.441,1.438-2.56,1.438c-1.121,0-2.081-0.478-2.722-1.438
			C286.647,77.724,286.328,76.445,286.328,74.842z M300.087,77.724c-0.319,0.319-0.638,0.641-0.96,0.802
			c-0.318,0.158-0.638,0.316-1.118,0.316c-0.962,0-1.761-0.316-2.241-1.118c-0.479-0.801-0.799-1.922-0.799-3.359
			c0-1.442,0.319-2.563,0.799-3.361c0.48-0.8,1.279-1.121,2.241-1.121c0.48,0,0.8,0.161,1.118,0.321
			c0.322,0.161,0.641,0.48,0.96,0.8h0.161v-0.8h1.439v9.121c0,1.12-0.319,1.92-0.799,2.399c-0.641,0.641-1.439,0.802-2.399,0.802
			c-0.641,0-1.121,0-1.601-0.161c-0.48-0.16-0.96-0.321-1.439-0.641v-1.601h0.959c0.159,0.48,0.48,0.8,0.8,0.96
			c0.321,0.161,0.641,0.321,1.12,0.321c0.799,0,1.279-0.321,1.601-0.641c0.158-0.479,0.319-1.278,0.319-2.399v-0.641H300.087z
			 M300.248,72.124c-0.319-0.479-0.641-0.641-0.799-0.799c-0.322-0.161-0.641-0.321-0.96-0.321c-0.802,0-1.281,0.321-1.601,0.799
			c-0.321,0.643-0.48,1.442-0.48,2.563s0.159,1.92,0.48,2.559c0.319,0.481,0.799,0.801,1.601,0.801c0.319,0,0.638-0.16,0.96-0.319
			c0.318-0.16,0.479-0.321,0.799-0.801V72.124z M303.128,81.405h0.16c0.161,0,0.161,0,0.319,0c0.641,0,1.121-0.16,1.442-0.481
			c0.319-0.319,0.638-0.96,0.799-1.76l-2.561-8.96h1.44l1.761,7.679h0.158l1.762-7.679h1.439l-2.719,9.121
			c-0.321,1.279-0.802,2.08-1.281,2.558c-0.479,0.482-1.279,0.802-2.241,0.802c0,0-0.158,0-0.158-0.158c-0.161,0-0.321,0-0.321,0
			V81.405z"/>
		<path fill="#F58634" d="M75.431,3.639c0.641-0.161,1.439-0.161,2.08-0.32c0.641-0.161,1.281-0.161,1.762-0.161
			c0.479-0.16,0.959-0.16,1.278-0.16c0.48,0,0.641-0.16,0.802-0.16c0.319,0,0.639,0.319,0.639,0.8V26.84
			c0,0.319-0.159,0.64-0.48,0.64c-0.319,0-0.641,0-0.799,0.161c-0.321,0-0.641,0-0.96,0c-0.161,0-0.479,0-0.641,0
			c-0.319,0-0.479,0-0.479,0c-0.319,0-0.48-0.161-0.48-0.481V6.679c0-0.481-0.16-0.8-0.16-0.961c-0.161-0.32-0.161-0.479-0.319-0.64
			c-0.161-0.16-0.321-0.16-0.48-0.32c-0.321,0-0.479,0-0.801,0c-0.319,0-0.639,0-0.8,0L75.431,3.639z M90.473,2.519
			c0.159,0,0.319,0.16,0.48,0.16c0,0.161,0.158,0.161,0.158,0.32l14.402,19.042l-0.48-18.562c0-0.16,0.159-0.32,0.319-0.32
			c0.161,0,0.641,0,0.96-0.16c0.48,0,0.802,0,1.281,0c0.159,0,0.319,0.16,0.319,0.32l-0.479,20.161v3.841
			c0,0.159-0.161,0.32-0.319,0.32c-0.321,0-0.641,0-0.96,0c-0.321,0-0.641,0-0.962,0h-0.159c-0.16,0-0.16-0.161-0.321-0.32
			L90.313,8.279l0.479,19.042c0,0.159,0,0.32-0.319,0.32c-0.16,0-0.641,0-0.962,0c-0.479,0-0.799,0.159-1.278,0.159
			c-0.161,0-0.319-0.159-0.319-0.32l0.638-21.762l-1.759-2.24c0,0-0.16-0.16-0.16-0.32c0-0.16,0.16-0.16,0.479-0.319
			c0.161,0,0.48,0,0.802-0.161c0.319,0,0.638,0,1.118,0c0.321,0,0.641,0,0.96-0.16C90.152,2.519,90.473,2.519,90.473,2.519z
			 M125.676,9.079c-0.161-0.8-0.319-1.44-0.641-2.081c-0.319-0.48-0.799-0.96-1.279-1.28c-0.321-0.32-0.96-0.64-1.439-0.8
			c-0.641-0.16-1.281-0.319-1.922-0.319c-0.639,0-1.279,0.16-1.759,0.319c-0.641,0.16-1.121,0.32-1.601,0.8
			c-0.48,0.32-0.8,0.641-1.121,1.28c-0.319,0.48-0.479,1.121-0.479,1.921c0,0.64,0.16,1.28,0.479,1.76
			c0.321,0.48,0.802,0.799,1.281,1.12c0.639,0.48,1.121,0.8,1.92,0.96c0.641,0.32,1.439,0.641,2.08,0.8
			c0.8,0.32,1.76,0.8,2.561,1.121c0.799,0.32,1.601,0.8,2.239,1.28c0.641,0.64,1.12,1.28,1.601,1.92
			c0.321,0.8,0.641,1.76,0.641,2.72c0,0.961-0.161,1.921-0.48,2.561c-0.319,0.8-0.641,1.44-1.12,1.921
			c-0.48,0.64-0.96,1.119-1.601,1.439c-0.639,0.32-1.439,0.64-2.08,0.96c-0.8,0.161-1.599,0.32-2.4,0.479
			c-0.799,0-1.439,0.161-2.238,0.161c-0.962,0-1.922-0.161-2.882-0.161c-0.8-0.159-1.759-0.318-2.719-0.639
			c-0.161,0-0.161,0-0.321-0.161c0,0,0-0.159-0.159-0.159c0-0.32,0-0.801,0-1.28c0-0.64,0-1.12,0-1.761
			c-0.16-0.64-0.16-1.119-0.16-1.599c0-0.481,0-0.801,0-0.801l1.12-0.16c0,0.8,0.319,1.6,0.639,2.239
			c0.321,0.641,0.641,1.121,1.281,1.441c0.479,0.479,1.12,0.64,1.759,0.96c0.641,0.159,1.442,0.159,2.08,0.159
			c0.802,0,1.44,0,2.081-0.159c0.641-0.16,1.281-0.48,1.761-0.801c0.48-0.32,0.96-0.8,1.118-1.28c0.322-0.64,0.482-1.28,0.482-2.08
			c0-0.64-0.16-1.28-0.482-1.6c-0.318-0.479-0.638-0.959-1.278-1.28c-0.48-0.32-1.121-0.641-1.762-0.961
			c-0.639-0.319-1.439-0.48-2.078-0.799c-0.962-0.32-1.761-0.8-2.561-1.121c-0.801-0.32-1.601-0.8-2.241-1.439
			c-0.641-0.48-1.12-1.121-1.6-1.921c-0.319-0.799-0.641-1.76-0.641-2.879c0-1.28,0.321-2.401,0.801-3.361
			c0.641-0.8,1.279-1.6,2.08-2.24c0.96-0.48,1.92-0.8,3.041-1.121c1.12-0.16,2.238-0.319,3.359-0.319c0.801,0,1.601,0,2.399,0.16
			c0.962,0.16,1.761,0.32,2.561,0.48c0.16,0,0.321,0,0.321,0.161c0.158,0.16,0.158,0.16,0.158,0.319c0,0.32,0,0.641,0.161,1.12
			c0,0.64,0,1.12,0,1.601c0,0.64,0,1.12,0,1.44c0,0.48,0.16,0.64,0.16,0.8L125.676,9.079z M138.156,16.28
			c1.12-0.161,2.08-0.32,2.881-0.481c0.96-0.319,1.599-0.639,2.239-1.119c0.479-0.48,0.96-1.121,1.281-1.76
			c0.319-0.8,0.479-1.76,0.479-2.72c0-0.961-0.16-1.761-0.479-2.401c-0.321-0.8-0.802-1.44-1.281-1.92
			c-0.479-0.481-1.12-0.8-1.92-1.12c-0.799-0.16-1.601-0.32-2.56-0.32c-0.641,0-1.121,0-1.279,0.161c-0.321,0-0.48,0.319-0.48,0.799
			V26.84c0,0.319-0.321,0.64-0.641,0.64c-0.16,0-0.479,0-0.641,0.161c-0.319,0-0.641,0-0.96,0c-0.16,0-0.479,0-0.641,0
			c-0.318,0-0.479,0-0.638,0c-0.321,0-0.482-0.161-0.482-0.481V6.359c0-0.641-0.158-1.12-0.319-1.28
			c-0.319-0.32-0.799-0.479-1.279-0.479c-0.321,0-0.641,0.16-0.96,0.16v-1.12c1.119-0.32,2.559-0.481,3.84-0.641
			c1.439-0.16,3.04-0.32,4.96-0.32c0.802,0,1.601,0.161,2.399,0.161c0.802,0.16,1.601,0.16,2.241,0.48
			c0.799,0.16,1.439,0.32,2.08,0.64c0.641,0.32,1.279,0.8,1.76,1.28c0.479,0.479,0.801,1.12,1.12,1.76
			c0.321,0.641,0.321,1.44,0.321,2.401c0,1.439-0.321,2.72-0.801,3.68c-0.641,0.96-1.44,1.76-2.561,2.401
			c-0.96,0.639-2.081,1.119-3.359,1.439c-1.44,0.32-2.722,0.48-4.161,0.48L138.156,16.28z M169.038,3.958
			c0-0.319,0.161-0.48,0.479-0.64c0.322,0,0.48,0,0.802,0c0.319,0,0.641-0.161,0.799-0.161c0.321,0,0.641,0,0.802,0
			c0.158,0,0.319,0,0.479,0c0.319,0,0.48,0.161,0.48,0.481V26.84c0,0.319-0.161,0.64-0.48,0.64c-0.16,0-0.479,0-0.801,0.161
			c-0.319,0-0.48,0-0.8,0c-0.321,0-0.479,0-0.801,0c-0.158,0-0.319,0-0.48,0c-0.318,0-0.479-0.161-0.479-0.481V15.319l-12.161,0.161
			v11.36c0,0.319-0.158,0.64-0.479,0.64c-0.159,0-0.48,0-0.639,0.161c-0.321,0-0.641,0-0.962,0c-0.158,0-0.48,0-0.639,0
			c-0.321,0-0.479,0-0.641,0c-0.319,0-0.479-0.161-0.479-0.481V6.679c0-0.481,0-0.8,0-0.961c-0.161-0.32-0.319-0.479-0.319-0.64
			c-0.161-0.16-0.321-0.16-0.641-0.32c-0.161,0-0.321,0-0.641,0s-0.641,0-0.96,0v-1.12c0.641-0.161,1.439-0.161,2.08-0.32
			c0.641-0.161,1.279-0.161,1.759-0.161c0.48-0.16,0.963-0.16,1.281-0.16c0.319,0,0.641-0.16,0.641-0.16
			c0.48,0,0.639,0.319,0.639,0.8V13.72h12.161V3.958z M183.44,24.28c0,0.32,0,0.48,0,0.801c0,0.159,0.16,0.32,0.16,0.32
			c0.159,0.159,0.319,0.159,0.48,0.159c0.158,0.16,0.479,0.16,0.799,0.16h2.721c1.118,0,2.081,0,2.719-0.16
			c0.641,0,1.281-0.159,1.762-0.479c0.479-0.161,0.96-0.641,1.279-1.28c0.321-0.48,0.801-1.439,1.281-2.4l0.959,0.16
			c0,0.16,0,0.319,0,0.801c-0.16,0.318-0.16,0.799-0.321,1.278c0,0.641-0.158,1.121-0.319,1.762c-0.16,0.479-0.318,0.96-0.318,1.439
			c-0.161,0.48-0.48,0.64-1.121,0.64c-0.479,0-1.12,0-1.761,0c-0.639,0-1.44,0-2.4,0c-0.799,0-1.759,0-2.719,0
			c-0.962,0-2.08,0-3.2,0h-3.359c-0.161,0-0.322-0.159-0.482-0.159c0-0.161,0-0.32,0-0.32V6.999c0-0.8-0.158-1.28-0.48-1.439
			c-0.318-0.161-0.799-0.32-1.278-0.32c-0.161,0-0.48,0-0.8,0l-0.16-1.12c0.319,0,0.641-0.161,1.279-0.161
			c0.479-0.16,1.12-0.16,1.761-0.319c0.641,0,1.12-0.161,1.759-0.161c0.48,0,0.96-0.16,1.281-0.16h7.521c0.479,0,0.96,0,1.439,0
			c0.641,0,1.121,0,1.762,0c0.158,0,0.319,0.16,0.319,0.32c0,0.16,0.16,0.48,0.16,0.799c0,0.32,0,0.64,0,0.959
			c0,0.481,0,0.8,0,1.281c0,0.319,0.158,0.64,0.158,0.96c0,0.319,0,0.64,0,0.96c0,0.16,0,0.32,0,0.32l-1.118,0.16
			c-0.16-0.96-0.479-1.76-0.641-2.24c-0.321-0.641-0.479-0.96-0.96-1.28c-0.321-0.161-0.801-0.32-1.439-0.32
			c-0.479-0.16-1.281-0.16-2.241-0.16h-3.52c-0.319,0-0.48,0-0.641,0c-0.159,0-0.159,0.16-0.159,0.16c-0.16,0-0.16,0.159-0.16,0.159
			c0,0.161,0,0.32,0,0.481v8.48c1.12-0.16,2.238-0.16,3.04-0.16c0.96-0.161,1.92-0.161,2.561-0.161s1.278-0.16,1.6-0.16
			c0.48,0,0.8,0,0.8,0c0.479,0,0.641,0.16,0.641,0.64c0,0.32,0,0.481,0,0.8c0,0.32-0.161,0.641-0.161,0.961l-8.479-0.32V24.28z
			 M204.721,15c1.12-0.161,2.08-0.161,2.88-0.481c0.801-0.16,1.439-0.64,2.08-0.96c0.479-0.48,0.96-1.12,1.281-1.76
			c0.158-0.64,0.319-1.599,0.319-2.56c0-0.8-0.161-1.44-0.48-2.08c-0.16-0.641-0.641-1.121-1.12-1.6
			c-0.641-0.32-1.279-0.641-1.92-0.8c-0.801-0.16-1.601-0.32-2.399-0.32c-0.641,0-0.962,0-1.281,0.161
			c-0.319,0.16-0.479,0.319-0.479,0.799V26.84c0,0.319-0.161,0.64-0.48,0.64c-0.16,0-0.479,0-0.799,0.161c-0.161,0-0.48,0-0.802,0
			c-0.16,0-0.479,0-0.641,0c-0.319,0-0.479,0-0.638,0c-0.322,0-0.48-0.161-0.48-0.481V6.359c0-0.641-0.16-1.12-0.479-1.44
			c-0.161-0.16-0.641-0.319-1.121-0.319c-0.321,0-0.641,0-0.96,0.16v-1.12c1.279-0.32,2.719-0.481,4.159-0.641
			c1.601-0.16,3.04-0.32,4.641-0.32c0.641,0,1.281,0.161,2.08,0.161c0.802,0,1.439,0.16,2.241,0.319
			c0.641,0.161,1.279,0.32,1.92,0.641c0.641,0.16,1.279,0.64,1.761,0.96c0.48,0.48,0.8,0.959,1.118,1.6
			c0.322,0.64,0.322,1.44,0.322,2.24c0,0.96,0,1.76-0.322,2.399c-0.318,0.641-0.638,1.28-1.118,1.76
			c-0.481,0.481-1.12,0.961-1.761,1.441c-0.641,0.319-1.279,0.64-1.92,0.96l0,0c0.319,0.159,0.641,0.159,1.12,0.32
			c0.319,0.159,0.8,0.479,1.119,0.639c0.321,0.32,0.641,0.641,1.12,1.121c0.321,0.319,0.48,0.799,0.641,1.44l1.601,4.8
			c0.158,0.64,0.319,1.12,0.639,1.601c0.16,0.32,0.321,0.64,0.481,0.8c0.159,0.16,0.48,0.319,0.639,0.48c0.321,0,0.641,0,0.96,0
			v1.119c-0.158,0-0.479,0.161-0.799,0.161s-0.641,0.159-0.96,0.159c-0.321,0-0.48,0-0.802,0c-0.158,0-0.479,0-0.479,0
			c-0.48,0-0.96,0-1.279-0.159c-0.319,0-0.641-0.161-0.96-0.481c-0.16-0.319-0.479-0.64-0.641-0.96
			c-0.319-0.479-0.479-0.96-0.641-1.6l-1.439-5.12c-0.161-0.641-0.48-1.28-0.799-1.76c-0.322-0.32-0.641-0.641-1.121-0.96
			c-0.319-0.161-0.96-0.32-1.439-0.48c-0.641,0-1.44-0.161-2.241-0.161L204.721,15z M226.003,24.28c0,0.32,0,0.48,0,0.801
			c0,0.159,0.159,0.32,0.159,0.32c0.16,0.159,0.321,0.159,0.481,0.159c0.159,0.16,0.48,0.16,0.96,0.16h2.561
			c1.118,0,2.078,0,2.719-0.16c0.802,0,1.281-0.159,1.762-0.479c0.479-0.161,0.959-0.641,1.278-1.28
			c0.48-0.48,0.802-1.439,1.281-2.4l0.96,0.16c0,0.16,0,0.319,0,0.801c-0.16,0.318-0.16,0.799-0.321,1.278
			c0,0.641-0.158,1.121-0.319,1.762c0,0.479-0.16,0.96-0.319,1.439c-0.16,0.48-0.479,0.64-0.96,0.64c-0.641,0-1.12,0-1.922,0
			c-0.638,0-1.439,0-2.399,0c-0.799,0-1.759,0-2.721,0c-0.96,0-2.078,0-3.04,0h-3.521c-0.158,0-0.319-0.159-0.319-0.159
			c-0.16-0.161-0.16-0.32-0.16-0.32V6.999c0-0.8-0.159-1.28-0.48-1.439c-0.319-0.161-0.639-0.32-1.118-0.32
			c-0.321,0-0.641,0-0.962,0l-0.158-1.12c0.318,0,0.799-0.161,1.278-0.161c0.641-0.16,1.121-0.16,1.762-0.319
			c0.639,0,1.12-0.161,1.759-0.161c0.479,0,0.96-0.16,1.281-0.16h7.521c0.479,0,0.96,0,1.601,0c0.479,0,0.959,0,1.6,0
			c0.319,0,0.319,0.16,0.48,0.32c0,0.16,0,0.48,0,0.799c0,0.32,0,0.64,0,0.959c0,0.481,0,0.8,0.158,1.281c0,0.319,0,0.64,0,0.96
			c0,0.319,0,0.64,0,0.96c0,0.16,0,0.32,0,0.32l-0.96,0.16c-0.319-0.96-0.479-1.76-0.799-2.24c-0.161-0.641-0.479-0.96-0.96-1.28
			c-0.321-0.161-0.801-0.32-1.281-0.32c-0.641-0.16-1.439-0.16-2.238-0.16h-3.682c-0.319,0-0.479,0-0.641,0l-0.16,0.16
			c-0.159,0-0.159,0.159-0.159,0.159c0,0.161,0,0.32,0,0.481v8.48c1.121-0.16,2.239-0.16,3.199-0.16
			c0.962-0.161,1.761-0.161,2.401-0.161c0.8,0,1.279-0.16,1.76-0.16c0.321,0,0.641,0,0.801,0c0.319,0,0.48,0.16,0.48,0.64
			c0,0.32,0,0.481,0,0.8c0,0.32,0,0.641-0.161,0.961l-8.48-0.32V24.28z"/>
		<path fill="#373435" d="M89.833,40.121c-0.16-0.8-0.321-1.439-0.641-1.92c-0.318-0.479-0.799-0.959-1.12-1.439
			c-0.479-0.32-1.12-0.48-1.601-0.8c-0.639-0.161-1.279-0.161-1.92-0.161s-1.278,0-1.759,0.161c-0.641,0.159-1.12,0.479-1.601,0.8
			c-0.479,0.319-0.801,0.799-1.12,1.28c-0.319,0.64-0.48,1.279-0.48,1.92c0,0.8,0.161,1.28,0.48,1.76
			c0.319,0.48,0.799,0.96,1.281,1.28c0.639,0.32,1.279,0.64,1.92,0.961c0.638,0.319,1.439,0.478,2.08,0.799
			c0.96,0.321,1.759,0.639,2.561,0.96c0.799,0.48,1.598,0.96,2.238,1.442c0.641,0.478,1.121,1.118,1.601,1.92
			c0.319,0.638,0.641,1.598,0.641,2.719c0,0.959-0.16,1.759-0.479,2.56c-0.321,0.641-0.641,1.279-1.121,1.922
			c-0.479,0.479-0.96,0.96-1.601,1.277c-0.641,0.482-1.439,0.801-2.08,0.962c-0.799,0.319-1.601,0.479-2.239,0.479
			c-0.801,0.161-1.6,0.161-2.401,0.161c-0.96,0-1.92,0-2.88-0.161c-0.799-0.16-1.761-0.321-2.721-0.479
			c-0.158,0-0.158,0-0.319-0.161c0-0.158,0-0.158,0-0.318c-0.16-0.322-0.16-0.641-0.16-1.281c0-0.479,0-1.121,0-1.599
			c-0.159-0.643-0.159-1.121-0.159-1.603c0-0.478,0-0.8,0-0.96h1.119c0,0.801,0.321,1.603,0.641,2.08
			c0.321,0.641,0.641,1.121,1.281,1.603c0.479,0.317,1.118,0.639,1.759,0.8c0.641,0.16,1.439,0.319,2.08,0.319
			c0.799,0,1.439-0.159,2.08-0.319c0.641-0.161,1.279-0.321,1.76-0.641c0.481-0.48,0.962-0.802,1.12-1.44
			c0.321-0.481,0.479-1.281,0.479-1.919c0-0.802-0.158-1.281-0.479-1.762c-0.319-0.479-0.639-0.801-1.279-1.118
			c-0.479-0.482-1.12-0.802-1.761-0.962c-0.639-0.319-1.44-0.641-2.081-0.96c-0.959-0.319-1.759-0.641-2.56-0.96
			c-0.8-0.479-1.599-0.96-2.239-1.439c-0.641-0.482-1.12-1.121-1.601-1.92c-0.319-0.802-0.641-1.761-0.641-2.881
			c0-1.28,0.321-2.4,0.802-3.36c0.639-0.96,1.279-1.76,2.08-2.24c0.96-0.479,1.92-0.96,3.04-1.12c1.118-0.32,2.239-0.48,3.359-0.48
			c0.8,0,1.601,0.16,2.4,0.32c0.959,0,1.761,0.16,2.56,0.32c0.161,0.16,0.321,0.16,0.321,0.319c0.159,0,0.159,0.161,0.159,0.161
			c0,0.319,0,0.799,0.16,1.279c0,0.48,0,0.961,0,1.6c0,0.48,0,0.96,0,1.44c0.161,0.32,0.161,0.641,0.161,0.8H89.833z M108.554,33.88
			c1.759,0,3.521,0.32,4.96,0.801c1.439,0.64,2.561,1.439,3.681,2.399c0.96,1.12,1.759,2.4,2.239,3.841
			c0.641,1.601,0.801,3.36,0.801,5.28c0,2.08-0.16,3.841-0.801,5.439c-0.639,1.761-1.601,3.04-2.719,4.161
			c-1.121,1.12-2.402,1.919-4,2.56c-1.601,0.48-3.362,0.802-5.442,0.802c-1.759,0-3.359-0.321-4.799-0.802
			c-1.44-0.641-2.722-1.439-3.682-2.56c-1.12-0.96-1.759-2.241-2.399-3.84c-0.479-1.601-0.801-3.361-0.801-5.281
			c0-2.08,0.321-3.839,0.962-5.439c0.639-1.601,1.439-3.041,2.558-4c1.121-1.121,2.561-1.921,4.161-2.561
			C104.874,34.201,106.635,33.88,108.554,33.88z M107.594,35.641c-1.439,0-2.561,0.32-3.52,0.8c-0.96,0.64-1.762,1.28-2.402,2.24
			c-0.639,0.96-1.118,1.92-1.279,3.2c-0.319,1.12-0.479,2.4-0.479,3.68c0,1.603,0.16,3.04,0.479,4.321
			c0.319,1.439,0.8,2.719,1.44,3.839c0.641,1.121,1.601,1.92,2.721,2.722c0.96,0.641,2.239,0.96,3.84,0.96
			c1.281,0,2.56-0.319,3.52-0.802c0.96-0.639,1.762-1.438,2.399-2.239c0.641-0.96,0.962-2.08,1.281-3.359
			c0.319-1.281,0.48-2.401,0.48-3.839c0-1.442-0.161-2.724-0.48-4.162c-0.319-1.439-0.801-2.72-1.439-3.681
			c-0.802-1.12-1.601-2.079-2.721-2.72C110.313,35.961,109.035,35.641,107.594,35.641z M129.195,55.322c0,0.319,0,0.641,0,0.802
			c0,0.16,0,0.319,0.161,0.478c0.158,0,0.158,0.161,0.479,0.161c0.159,0,0.48,0,0.8,0h2.08c1.121,0,2.08,0,2.721,0
			c0.639-0.161,1.279-0.319,1.76-0.479c0.479-0.321,0.96-0.801,1.281-1.441c0.319-0.48,0.799-1.44,1.278-2.399l0.96,0.158
			c0,0.16,0,0.321,0,0.801c-0.158,0.319-0.158,0.802-0.319,1.44c-0.16,0.479-0.16,1.12-0.318,1.601
			c-0.161,0.641-0.322,1.118-0.322,1.439c-0.16,0.479-0.641,0.799-1.12,0.799c-0.96,0-2.239,0-3.84-0.158c-1.6,0-3.359,0-5.601,0
			h-3.359c-0.16,0-0.321,0-0.479-0.161c0-0.158,0-0.158,0-0.318V37.721c0-0.32-0.161-0.641-0.161-0.96
			c-0.16-0.16-0.16-0.32-0.318-0.48c-0.161-0.16-0.322-0.319-0.48-0.319c-0.321,0-0.482-0.161-0.801-0.161
			c-0.319,0-0.48,0.161-0.8,0.161l-0.16-1.121c0.799-0.159,1.439-0.319,2.08-0.319c0.641-0.16,1.279-0.32,1.759-0.32
			c0.641,0,0.962,0,1.281-0.16c0.48,0,0.641,0,0.799,0c0.322,0,0.641,0.16,0.641,0.641V55.322z M148.078,51.002
			c0,0.96,0.158,1.92,0.319,2.559c0.318,0.801,0.641,1.281,1.281,1.761c0.479,0.48,0.959,0.802,1.598,0.962
			c0.802,0.159,1.442,0.317,2.241,0.317c0.96,0,1.92-0.158,2.88-0.478c0.96-0.321,1.922-0.802,2.882-1.281V35.161
			c0-0.32,0.158-0.64,0.479-0.64c0.319,0,0.479-0.16,0.799-0.16s0.641,0,0.8,0c0.321,0,0.641,0,0.801-0.16c0.319,0,0.48,0,0.48,0
			c0.319,0,0.479,0.16,0.479,0.64v23.203c0,0.318-0.16,0.479-0.479,0.479c-0.161,0.158-0.48,0.158-0.641,0.158
			c-0.319,0-0.641,0.161-0.8,0.161c-0.321,0-0.479,0-0.801,0c-0.159,0-0.319,0-0.48,0c-0.319,0-0.479-0.161-0.479-0.48l-0.158-1.761
			c-1.281,0.802-2.561,1.281-4,1.761c-1.442,0.48-2.882,0.802-4.482,0.802c-0.8,0-1.759-0.161-2.561-0.482
			c-0.799-0.158-1.439-0.478-2.078-1.12c-0.641-0.478-1.121-1.118-1.442-1.92c-0.319-0.799-0.479-1.759-0.479-2.88v-15.04
			c0-0.32-0.158-0.641-0.158-0.96c0-0.16-0.161-0.32-0.322-0.48c-0.158-0.16-0.318-0.319-0.479-0.319
			c-0.319,0-0.479-0.161-0.799-0.161c-0.161,0-0.48,0.161-0.802,0.161l-0.158-1.121c0.799-0.159,1.439-0.319,2.08-0.319
			c0.639-0.16,1.279-0.32,1.759-0.32c0.641,0,0.96,0,1.44-0.16c0.321,0,0.479,0,0.641,0c0.319,0,0.641,0.16,0.641,0.641V51.002z
			 M173.359,36.121c-0.96,0-1.601,0.16-2.241,0.16s-1.12,0.16-1.439,0.48c-0.319,0.319-0.799,0.64-0.96,1.28
			c-0.319,0.64-0.479,1.439-0.799,2.399h-0.962c0-0.159,0-0.32,0-0.479c0-0.32,0-0.641,0-0.96c0-0.32,0-0.641,0.16-1.121
			c0-0.479,0-0.8,0-1.279c0-0.32,0-0.64,0-1.12c0.161-0.32,0.161-0.479,0.161-0.8c0-0.16,0.158-0.16,0.319-0.16
			c1.281,0,2.56,0,3.681,0c1.12,0,2.238,0,3.201,0h6.879c0.96,0,2.081,0,3.201,0c1.118,0,2.399,0,3.679,0
			c0.161,0,0.321,0,0.321,0.16c0,0.32,0,0.479,0,0.8c0,0.48,0,0.8,0.158,1.12c0,0.479,0,0.8,0,1.279c0,0.48,0,0.801,0,1.121
			c0,0.319,0,0.64,0,0.96c0,0.159,0,0.32,0,0.479h-0.959c-0.319-0.96-0.48-1.76-0.8-2.399c-0.16-0.641-0.479-0.961-0.799-1.28
			c-0.482-0.32-0.962-0.48-1.442-0.48c-0.638,0-1.439-0.16-2.238-0.16h-2.722v21.923c0,0.318-0.16,0.479-0.479,0.479
			c-0.161,0.158-0.479,0.158-0.799,0.158c-0.321,0-0.48,0.161-0.802,0.161c-0.319,0-0.479,0-0.799,0c-0.161,0-0.321,0-0.48,0
			c-0.321,0-0.479-0.161-0.479-0.48V36.121H173.359z M189.84,34.84c0.801-0.159,1.439-0.319,2.08-0.319
			c0.641-0.16,1.281-0.32,1.762-0.32c0.638,0,0.96,0,1.278-0.16c0.48,0,0.641,0,0.802,0c0.319,0,0.639,0.16,0.639,0.641v23.362
			c0,0.318-0.159,0.479-0.48,0.479c-0.319,0.158-0.479,0.158-0.799,0.158c-0.321,0-0.641,0.161-0.802,0.161
			c-0.318,0-0.638,0-0.799,0c-0.16,0-0.479,0-0.479,0c-0.319,0-0.48-0.161-0.48-0.48V37.721c0-0.32-0.16-0.641-0.16-0.96
			c-0.161-0.16-0.161-0.32-0.319-0.48c-0.161-0.16-0.321-0.319-0.48-0.319c-0.321,0-0.479-0.161-0.801-0.161
			c-0.319,0-0.48,0.161-0.8,0.161L189.84,34.84z M214.322,33.88c1.759,0,3.359,0.32,4.799,0.801c1.442,0.64,2.722,1.439,3.682,2.399
			c1.12,1.12,1.919,2.4,2.399,3.841c0.641,1.601,0.801,3.36,0.801,5.28c0,2.08-0.321,3.841-0.801,5.439
			c-0.639,1.761-1.599,3.04-2.719,4.161c-1.121,1.12-2.402,1.919-4,2.56c-1.601,0.48-3.521,0.802-5.442,0.802
			c-1.759,0-3.359-0.321-4.799-0.802c-1.44-0.641-2.722-1.439-3.682-2.56c-1.12-0.96-1.919-2.241-2.399-3.84
			c-0.479-1.601-0.801-3.361-0.801-5.281c0-2.08,0.321-3.839,0.962-5.439c0.639-1.601,1.439-3.041,2.561-4
			c1.118-1.121,2.558-1.921,4.158-2.561C210.641,34.201,212.402,33.88,214.322,33.88z M213.362,35.641c-1.439,0-2.561,0.32-3.52,0.8
			c-0.96,0.64-1.762,1.28-2.402,2.24c-0.639,0.96-1.118,1.92-1.439,3.2c-0.159,1.12-0.319,2.4-0.319,3.68
			c0,1.603,0.16,3.04,0.479,4.321c0.319,1.439,0.8,2.719,1.44,3.839c0.641,1.121,1.601,1.92,2.56,2.722
			c1.121,0.641,2.4,0.96,4.001,0.96c1.281,0,2.56-0.319,3.52-0.802c0.96-0.639,1.762-1.438,2.399-2.239
			c0.482-0.96,0.962-2.08,1.281-3.359c0.319-1.281,0.48-2.401,0.48-3.839c0-1.442-0.161-2.724-0.48-4.162
			c-0.319-1.439-0.799-2.72-1.439-3.681c-0.802-1.12-1.601-2.079-2.721-2.72C216.081,35.961,214.802,35.641,213.362,35.641z
			 M233.044,33.721c0.16,0,0.16,0,0.319,0.159c0,0,0.16,0.16,0.321,0.32l14.239,19.043l-0.48-18.723c0-0.16,0.161-0.16,0.321-0.16
			c0.319-0.16,0.641-0.16,0.96-0.16c0.48,0,0.96,0,1.279,0c0.16,0,0.321,0,0.321,0.32l-0.479,20.16v3.842
			c0,0.158-0.161,0.158-0.322,0.158c-0.318,0.161-0.479,0.161-0.799,0.161s-0.641,0-0.96,0c-0.16,0-0.321,0-0.321,0
			c-0.158-0.161-0.158-0.161-0.158-0.319l-14.561-19.202l0.479,19.202c0,0.158,0,0.158-0.321,0.158c-0.158,0-0.479,0.161-0.96,0.161
			c-0.479,0-0.799,0-1.12,0c-0.319,0-0.319-0.161-0.319-0.319l0.479-21.602l-1.761-2.4c0,0,0,0,0-0.16s0-0.32,0.321-0.32
			c0.161-0.16,0.48-0.16,0.799-0.16c0.48,0,0.802,0,1.121-0.159c0.319,0,0.641,0,0.96,0
			C232.724,33.721,232.883,33.721,233.044,33.721z M268.087,40.121c-0.161-0.8-0.321-1.439-0.641-1.92
			c-0.319-0.479-0.641-0.959-1.121-1.439c-0.479-0.32-0.96-0.48-1.601-0.8c-0.479-0.161-1.118-0.161-1.759-0.161
			c-0.801,0-1.281,0-1.919,0.161c-0.641,0.159-1.121,0.479-1.601,0.8c-0.48,0.319-0.802,0.799-1.121,1.28
			c-0.319,0.64-0.319,1.279-0.319,1.92c0,0.8,0.159,1.28,0.48,1.76c0.319,0.48,0.639,0.96,1.279,1.28
			c0.479,0.32,1.12,0.64,1.761,0.961c0.639,0.319,1.439,0.478,2.239,0.799c0.801,0.321,1.6,0.639,2.399,0.96
			c0.801,0.48,1.601,0.96,2.241,1.442c0.641,0.478,1.281,1.118,1.6,1.92c0.48,0.638,0.641,1.598,0.641,2.719
			c0,0.959-0.16,1.759-0.479,2.56c-0.161,0.641-0.641,1.279-1.12,1.922c-0.48,0.479-0.96,0.96-1.601,1.277
			c-0.641,0.482-1.281,0.801-2.081,0.962c-0.641,0.319-1.439,0.479-2.24,0.479c-0.8,0.161-1.599,0.161-2.4,0.161
			c-0.959,0-1.919,0-2.719-0.161c-0.962-0.16-1.922-0.321-2.721-0.479c-0.161,0-0.319,0-0.319-0.161
			c-0.16-0.158-0.16-0.158-0.16-0.318c0-0.322-0.161-0.641-0.161-1.281c0-0.479,0-1.121,0-1.599c0-0.643,0-1.121,0-1.603
			c-0.158-0.478-0.158-0.8-0.158-0.96h1.118c0,0.801,0.321,1.603,0.641,2.08c0.319,0.641,0.799,1.121,1.281,1.603
			c0.479,0.317,1.118,0.639,1.759,0.8c0.641,0.16,1.439,0.319,2.241,0.319c0.639,0,1.279-0.159,1.92-0.319
			c0.641-0.161,1.278-0.321,1.759-0.641c0.479-0.48,0.96-0.802,1.281-1.44c0.319-0.481,0.479-1.281,0.479-1.919
			c0-0.802-0.16-1.281-0.479-1.762c-0.321-0.479-0.802-0.801-1.281-1.118c-0.639-0.482-1.279-0.802-1.92-0.962
			c-0.641-0.319-1.439-0.641-2.08-0.96c-0.799-0.319-1.601-0.641-2.561-0.96c-0.799-0.479-1.439-0.96-2.239-1.439
			c-0.641-0.482-1.12-1.121-1.6-1.92c-0.319-0.802-0.48-1.761-0.48-2.881c0-1.28,0.161-2.4,0.799-3.36
			c0.48-0.96,1.121-1.76,2.081-2.24c0.801-0.479,1.761-0.96,2.879-1.12c1.121-0.32,2.241-0.48,3.362-0.48
			c0.799,0,1.601,0.16,2.56,0.32c0.8,0,1.76,0.16,2.561,0.32c0,0.16,0.159,0.16,0.159,0.319c0.16,0,0.16,0.161,0.16,0.161
			c0,0.319,0.161,0.799,0.161,1.279s0,0.961,0,1.6c0.158,0.48,0.158,0.96,0.158,1.44c0,0.32,0,0.641,0,0.8H268.087z"/>
	</g>
</g>
</svg>
