<?xml version="1.0" encoding="utf-8"
<!-- Generator: Adobe Illustrator 16.0.0, SVG Export Plug-In . SVG Version: 6.00 Build 0)  -->
<!DOCTYPE svg PUBLIC "-//W3C//DTD SVG 1.1//EN" "http://www.w3.org/Graphics/SVG/1.1/DTD/svg11.dtd">
<svg version="1.1" id="Layer_1" xmlns="http://www.w3.org/2000/svg" xmlns:xlink="http://www.w3.org/1999/xlink" x="0px" y="0px"
	 width="500px" height="500px" viewBox="0 0 500 500" enable-background="new 0 0 500 500" xml:space="preserve">
<g>
	<path fill="#717DBA" d="M390.501,493.756c-108.972-29.865-188.91-129.165-188.91-247.409c0-110.994,70.633-205.441,169.15-240.95
		C295.662,49.779,245.19,132.123,245.19,225.755c0,94.056,51.271,176.791,127.149,221.172
		C376.785,463.076,382.858,478.808,390.501,493.756z"/>
	<path fill="#F68633" d="M260.921,82.49c-74.262,41.568-120.258,104.527-110.17,159.405
		c13.334,71.424,117.477,101.721,232.875,68.21c16.596-5.228,33.095-10.902,48.059-18.161l-13.301,100.931
		c-11.318,4.428-23.022,8.04-35.142,11.271c-142.065,37.937-280.503-5.644-309.552-97.254
		c-28.266-89.21,57.699-190.908,193.291-231.276C264.966,78.037,262.952,80.051,260.921,82.49z"/>
	<g>
		<g>
			<g>
				<defs>
					<path id="SVGID_1_" d="M260.921,82.49c-74.262,41.568-120.258,104.527-110.17,159.405
						c13.334,71.424,117.477,101.721,232.875,68.21c16.596-5.228,33.095-10.902,48.059-18.161l-13.301,100.931
						c-11.318,4.428-23.022,8.04-35.142,11.271c-142.065,37.937-280.503-5.644-309.552-97.254
						c-28.266-89.21,57.699-190.908,193.291-231.276C264.966,78.037,262.952,80.051,260.921,82.49z"/>
				</defs>
				<clipPath id="SVGID_2_">
					<use xlink:href="#SVGID_1_"  overflow="visible"/>
				</clipPath>
				<g clip-path="url(#SVGID_2_)">
					<g>
						<path id="_x31_" fill="#FFFFFF" d="M30.491,231.814l156.616,16.14v20.184L30.491,251.59V231.814z M327.126,283.07h34.311
							l-39.555,182.851h-34.276L327.126,283.07z M266.981,274.58h34.34L165.683,457.415H131.39L266.981,274.58z M61.955,328.252
							l156.615-60.546v25.037L61.955,353.289V328.252z M50.684,69.164l156.599,100.09v15.325L50.684,84.896V69.164z M76.088,2.975
							l157,129.148v15.34l-157-128.74V2.975z M33.305,148.271l156.599,53.271v15.731L33.305,163.611V148.271z"/>
					</g>
				</g>
			</g>
		</g>
	</g>
	<path fill="none" d="M260.921,82.49c-74.262,41.568-120.258,104.527-110.17,159.405c13.334,71.424,117.477,101.721,232.875,68.21
		c16.596-5.228,33.095-10.902,48.059-18.161l-13.301,100.931c-11.318,4.428-23.022,8.04-35.142,11.271
		c-142.065,37.937-280.503-5.644-309.552-97.254c-28.266-89.21,57.699-190.908,193.291-231.276
		C264.966,78.037,262.952,80.051,260.921,82.49z"/>
</g>
</svg>
