<?xml version="1.0" standalone="no"
<!DOCTYPE svg PUBLIC "-//W3C//DTD SVG 20010904//EN"
 "http://www.w3.org/TR/2001/REC-SVG-20010904/DTD/svg10.dtd">
<svg version="1.0" xmlns="http://www.w3.org/2000/svg"
 width="700.000000pt" height="700.000000pt" viewBox="0 0 700.000000 700.000000"
 preserveAspectRatio="xMidYMid meet">
<metadata>
Created by potrace 1.11, written by Peter Selinger 2001-2013
</metadata>
<g transform="translate(0.000000,700.000000) scale(0.100000,-0.100000)"
fill="#000000" stroke="none">
<path d="M5060 6874 c-130 -53 -375 -175 -468 -232 -46 -29 -85 -52 -87 -52
-15 0 -253 -171 -360 -259 -125 -103 -142 -118 -283 -259 l-134 -134 -96 -31
c-53 -17 -99 -31 -102 -31 -7 -1 -100 -36 -125 -46 -11 -5 -47 -18 -80 -30
-101 -36 -332 -138 -485 -215 -638 -317 -1186 -777 -1505 -1260 -286 -434
-409 -857 -371 -1278 7 -81 25 -187 40 -242 35 -127 62 -203 111 -310 126
-278 374 -556 680 -767 357 -245 803 -417 1320 -508 33 -5 69 -12 81 -14 12
-2 45 -7 75 -11 30 -3 65 -8 79 -10 41 -7 203 -21 348 -30 39 -2 49 -10 155
-116 143 -145 186 -184 321 -292 339 -269 715 -472 1129 -609 82 -27 151 -47
154 -45 2 2 -15 44 -38 93 -61 132 -121 286 -158 404 -18 58 -37 116 -42 130
-8 22 -77 73 -155 116 -62 34 -380 278 -436 335 -17 17 -17 18 0 23 9 3 40 8
67 11 317 39 864 177 1147 290 11 4 19 25 24 68 4 34 8 64 9 67 1 3 5 34 9 70
4 36 9 76 11 90 7 49 15 106 20 150 3 25 7 56 10 70 2 14 7 49 10 79 4 30 8
61 10 70 1 9 6 43 10 76 4 33 8 69 10 80 1 11 6 45 9 75 4 30 8 66 11 80 6 34
16 115 31 240 2 25 7 52 9 60 2 8 7 43 10 78 8 71 15 70 -95 19 -229 -105
-646 -239 -905 -292 -138 -27 -291 -54 -345 -60 -30 -3 -82 -10 -115 -15 -33
-5 -94 -12 -135 -16 -97 -10 -566 -11 -650 -2 -36 4 -71 7 -77 7 -14 1 -32 38
-73 156 -33 93 -87 269 -94 305 -3 14 -12 53 -20 87 -9 34 -18 75 -21 90 -2
15 -7 39 -10 53 -2 13 -7 42 -11 64 -3 22 -7 43 -9 46 -2 3 -6 35 -9 70 -4 36
-8 81 -11 100 -24 181 -25 591 0 765 2 17 6 53 9 80 3 28 8 59 10 70 3 19 13
76 22 135 14 86 78 329 118 453 58 172 102 280 192 462 283 576 706 1055 1249
1412 60 40 106 73 100 72 -5 0 -48 -16 -95 -35z m-1458 -1091 c-77 -93 -197
-268 -275 -398 -233 -391 -390 -829 -461 -1280 -8 -55 -18 -118 -20 -140 -27
-210 -27 -599 0 -816 20 -169 67 -430 81 -452 25 -41 -234 106 -367 208 -72
56 -188 169 -226 220 -16 22 -31 42 -34 45 -25 24 -107 181 -138 265 -23 62
-51 172 -58 225 -9 69 -10 245 -1 327 22 211 149 535 292 743 77 111 155 218
188 255 69 79 236 254 272 283 22 19 60 53 85 76 25 23 68 59 95 81 28 22 52
43 55 46 38 43 516 359 543 359 5 0 -9 -21 -31 -47z"/>
</g>
</svg>
