<svg width="75" height="75" viewBox="0 0 75 75" fill="none" xmlns="http://www.w3.org/2000/svg">
<path fill-rule="evenodd" clip-rule="evenodd" d="M66.4276 53.8148C66.551 54.7542 66.6364 60.6111 66.6839 61.4315C67.2315 70.8881 62.8364 73.4412 54.6715 72.9404C41.2942 72.9404 25.4294 72.9404 12.052 72.9404C6.09934 72.9933 4.17067 71.1293 4 64.4275C6.83762 64.4275 9.67501 64.4275 12.5126 64.4275C12.5126 64.0222 12.5126 63.617 12.5126 63.2115C12.5126 42.6724 12.5126 22.539 12.5126 2C25.0794 2 37.646 2 50.2125 2C55.6174 7.54032 61.0226 13.0802 66.4275 18.6205C66.4275 22.9646 66.4276 49.4707 66.4276 53.8148Z" stroke="white" stroke-width="2.5" stroke-linecap="round" stroke-linejoin="round"/>
<path d="M50.2155 2.29053C50.2155 3.47107 50.2155 18.8199 50.2155 18.8199H66.4437" stroke="white" stroke-width="2.5" stroke-linecap="round" stroke-linejoin="round"/>
<path d="M56.5896 72.8991C52.4257 72.6004 49.7378 70.0196 48.9965 64.4274C33.9975 64.4274 18.9987 64.4274 4 64.4274" stroke="white" stroke-width="2.5"/>
<path d="M20.5002 36.9417C48.2596 36.9417 58.3537 36.9417 58.3537 36.9417" stroke="white" stroke-width="2.5" stroke-linecap="round" stroke-linejoin="round"/>
<path d="M20.5002 45.6771C48.2596 45.6771 58.3537 45.6771 58.3537 45.6771" stroke="white" stroke-width="2.5" stroke-linecap="round" stroke-linejoin="round"/>
<path d="M39.9122 54.4124C53.4358 54.4124 58.3536 54.4124 58.3536 54.4124" stroke="white" stroke-width="2.5" stroke-linecap="round" stroke-linejoin="round"/>
<path d="M39.9123 10.7354H20.5002V27.2356H39.9123V10.7354Z" stroke="white" stroke-width="2.5"/>
</svg>
