<svg width="100" height="100" viewBox="0 0 100 100" fill="none" xmlns="http://www.w3.org/2000/svg">
<path d="M83.2208 100H10.2847C9.0136 99.5999 7.92592 98.7615 7.21556 97.6341C6.5052 96.5066 6.21832 95.1636 6.40608 93.8443C6.49635 81.2535 6.44393 88.6467 6.44393 76.0529V74.8416C5.76256 74.8416 5.22969 74.8591 4.69682 74.8416C3.45627 74.813 2.27538 74.3034 1.40339 73.4206C0.531408 72.5377 0.0365591 71.3506 0.0232948 70.1098C-0.00776494 61.4461 -0.00776494 52.7824 0.0232948 44.1186C0.0355563 42.8594 0.543813 41.6558 1.43781 40.7688C2.3318 39.8819 3.53944 39.3833 4.79874 39.381C5.32578 39.381 5.85283 39.381 6.45849 39.381V38.1901C6.45849 33.9592 6.45849 9.74127 6.45849 5.51035C6.36766 4.76957 6.44701 4.01783 6.69052 3.31234C6.93403 2.60685 7.33527 1.96621 7.86371 1.43918C8.39214 0.912148 9.03385 0.512613 9.73998 0.270983C10.4461 0.0293524 11.1981 -0.0480042 11.9386 0.0448004H81.5319C82.2824 -0.0572311 83.0464 0.0155725 83.7641 0.257528C84.4819 0.499484 85.134 0.904046 85.6696 1.43963C86.2052 1.97522 86.6097 2.62734 86.8517 3.34509C87.0937 4.06284 87.1665 4.82679 87.0644 5.57732C87.0644 17.7003 87.0644 29.8224 87.0644 41.9435V43.2072C87.4255 43.0238 87.6264 42.916 87.8361 42.817C88.9804 42.2631 90.235 41.9747 91.5063 41.9733C92.7776 41.972 94.0328 42.2577 95.1783 42.8091C96.3238 43.3606 97.33 44.1636 98.1218 45.1582C98.9137 46.1528 99.4707 47.3134 99.7514 48.5534C99.8038 48.7776 99.8911 48.9931 99.961 49.2144V51.6312C99.3286 54.1126 97.9234 56.3286 95.9485 57.9587C93.1706 60.6347 90.4917 63.4126 87.7429 66.1118C87.5126 66.3211 87.3313 66.5786 87.212 66.8661C87.0927 67.1535 87.0383 67.4637 87.0528 67.7745C87.0761 76.7042 87.0761 85.6281 87.0528 94.5461C87.0663 95.0816 87.0263 95.6171 86.9334 96.1447C86.7229 97.0615 86.267 97.9038 85.6146 98.5813C84.9621 99.2589 84.1377 99.7463 83.2295 99.9913M48.1533 93.8065C48.1708 93.4017 48.1533 93.1688 48.1941 92.9329C48.7561 89.0136 49.3588 85.1 49.8626 81.172C49.9692 80.2764 50.3951 79.4493 51.0623 78.8425C58.7729 71.1668 66.4679 63.4766 74.1474 55.7719C74.4095 55.5098 74.6599 55.2302 75.0763 54.7876H51.6563V38.7725H80.6584V49.3367C81.6251 48.3408 82.3822 47.4964 83.212 46.716C83.4314 46.5171 83.6023 46.2708 83.7118 45.9957C83.8213 45.7207 83.8665 45.4242 83.8439 45.129C83.8264 35.8266 83.8264 26.5242 83.8439 17.2218V16.2464H9.73724V39.3781H39.7905C40.5149 39.3028 41.2469 39.3907 41.9329 39.6354C42.6189 39.88 43.2413 40.2751 43.7546 40.7918C44.2679 41.3084 44.659 41.9335 44.8992 42.621C45.1393 43.3086 45.2225 44.0412 45.1425 44.7651C45.1425 52.959 45.1425 61.153 45.1425 69.3469C45.2359 70.095 45.1565 70.8545 44.9103 71.5671C44.6642 72.2797 44.2579 72.9264 43.7227 73.4573C43.1875 73.9883 42.5377 74.3895 41.8232 74.6299C41.1087 74.8704 40.3485 74.9438 39.6012 74.8445H9.71394C9.69938 75.159 9.68191 75.322 9.68191 75.488C9.68191 88.5914 9.68191 81.6932 9.68191 94.7907C9.68191 96.2466 10.2643 96.7708 11.8279 96.7708H81.6309C83.3227 96.7708 83.8235 96.2583 83.8235 94.5315C83.8235 86.7414 83.8235 78.9502 83.8235 71.1581V70.104C83.4101 70.4913 83.1422 70.7271 82.8917 70.9776C76.1945 77.6729 69.4972 84.3624 62.7999 91.0461C62.3032 91.5126 61.6842 91.8286 61.015 91.9575C58.9388 92.3418 56.8394 92.6068 54.7458 92.9038C52.5939 93.2096 50.4391 93.5037 48.1621 93.8211M22.6368 42.6015H5.51214C3.71844 42.6015 3.23216 43.082 3.23216 44.8553C3.23216 53.0085 3.23216 61.1695 3.23216 69.3382C3.23216 71.1319 3.71261 71.6182 5.48593 71.6182H39.6362C41.4269 71.6182 41.9161 71.1348 41.9161 69.3615C41.9161 61.2083 41.9161 53.0473 41.9161 44.8786C41.9161 43.0878 41.4328 42.5986 39.6594 42.5986H22.6368M83.8264 12.8977C83.8264 10.4168 83.8264 8.03784 83.8264 5.65885C83.8264 3.68462 83.3926 3.25658 81.3921 3.25658H11.7086C10.2526 3.27113 9.68774 3.81856 9.67027 5.25702C9.67027 7.5865 9.67027 9.88978 9.67027 12.2076C9.67027 12.4289 9.71394 12.6531 9.74015 12.9006L83.8264 12.8977ZM77.333 42.0163H54.8943V51.5846H77.333V42.0163ZM80.6991 54.0859L54.1052 80.7032L56.3677 82.922L82.9092 56.3804L80.702 54.1121M61.0849 87.776L87.606 61.252L85.5677 58.9778L58.9505 85.598L61.0965 87.776M90.3606 58.8177C92.0408 57.1695 93.8374 55.5476 95.468 53.7714C96.3157 52.8184 96.774 51.5815 96.7518 50.3063C96.7297 49.0311 96.2288 47.8108 95.3486 46.8878C94.5033 45.9081 93.3113 45.294 92.0229 45.1746C90.7344 45.0551 89.4498 45.4396 88.4388 46.2472C86.5374 47.9215 84.898 49.8957 83.1975 51.6691L90.349 58.8177M52.7046 84.2614L51.8921 90.0211L57.6431 89.2028L52.6929 84.2527" fill="#505772"/>
<path d="M80.556 33.4409H13.3096V21.4819H80.556V33.4409ZM77.353 24.7054H16.5272V30.1942H77.3559L77.353 24.7054Z" fill="#505772"/>
<path d="M40.2537 83.9469H12.9901V87.0509H40.2537V83.9469Z" fill="#505772"/>
<path d="M33.8063 90.3997H12.9545V93.4979H33.8063V90.3997Z" fill="#505772"/>
<path d="M80.5591 83.9498H77.4609V87.048H80.5591V83.9498Z" fill="#505772"/>
<path d="M40.2738 90.411H37.1378V93.4743H40.2738V90.411Z" fill="#505772"/>
<path d="M80.5168 90.3442H77.4361V93.4803H80.5168V90.3442Z" fill="#505772"/>
<path d="M27.361 47.9507L20.9025 67.2971L17.848 66.2721L24.3036 46.9374L27.361 47.9507" fill="#505772"/>
<path d="M13.4847 49.6742L15.5521 51.826L10.2816 56.9305L15.7064 62.3291L13.4817 64.446L6.09729 57.0616L13.4847 49.6742Z" fill="#505772"/>
<path d="M31.68 64.5425L29.5398 62.4256L34.8394 57.2453L29.4496 51.8759L31.6305 49.759L39.0674 57.1493L31.683 64.5367" fill="#505772"/>
<path d="M14.4803 6.54095H11.353V9.65081H14.4803V6.54095Z" fill="#505772"/>
<path d="M20.8894 6.54388H17.7912V9.65083H20.8894V6.54388Z" fill="#505772"/>
<path d="M27.3373 6.54388H24.2507V9.67995H27.3373V6.54388Z" fill="#505772"/>
</svg>
