<svg width="107" height="100" viewBox="0 0 107 100" fill="none" xmlns="http://www.w3.org/2000/svg">
<path d="M73.8619 73.5932C75.9381 70.875 77.6387 67.8114 78.9273 64.5318C81.6979 57.5318 82.39 50.2182 81.0377 42.7818C80.25 38.4364 78.7383 34.2818 76.505 30.4682C73.9871 26.125 70.8408 22.375 67.1254 19.4068C64.3252 17.1568 61.3656 15.3137 58.2217 13.9068C55.0731 12.5 51.7379 11.5 48.339 10.9387C47.6787 10.8432 47.0185 10.7182 46.3242 10.625L43.524 10.2182L45.2223 8.40684L49.3771 4.28184L45.9462 0.81366L41.9167 4.78184L35.4967 11.1568L33.5798 13.0614C34.3037 13.6887 35.3419 14.5318 35.8131 14.9364L36.0635 15.1568C36.3481 15.375 36.6623 15.625 36.915 15.875C39.4967 18.4387 44.1546 23.0318 45.8848 24.7818L49.409 21.3114C49.031 20.9364 48.5894 20.5 48.2752 20.2205L46.7044 18.6568C46.1352 18.0637 45.5387 17.4682 45.0037 16.9682L42.6406 14.6887L45.8825 15.3114C46.9844 15.5318 53.7186 17.0614 57.3065 18.8432C63.3167 21.8114 68.1317 26.2182 71.6263 31.8432C73.8573 35.4068 75.369 39.3432 76.1567 43.4682C77.0377 48.0932 76.9763 52.75 75.9358 57.3114C74.834 62.3114 72.694 66.9068 69.5796 70.9364C65.7708 75.875 60.8306 79.625 54.9456 82.0318C50.8546 83.7182 46.5746 84.5637 42.199 84.5637L10.1627 84.5932V89.4682H12.5235L42.01 89.5H42.0738C44.5598 89.5 47.0458 89.2818 49.4385 88.8114C54.0965 87.9068 58.5654 86.1887 62.5927 83.7205C66.9365 81.2205 70.7111 77.75 73.8596 73.5932H73.8619Z" fill="#505772"/>
<path d="M15.6721 79.875H24.075C21.9987 78.6569 20.0454 77.2182 18.2833 75.6251C13.91 71.5932 10.7 66.75 8.78082 61.2182C6.82978 55.4682 6.41999 49.5 7.55146 43.5C8.68521 37.5 11.3306 32.125 15.3579 27.4682C18.2219 24.1569 24.7671 20.0932 26.9685 18.7819L25.0517 14.1569C23.5719 14.9069 20.6442 16.4364 19.1029 17.5C14.7273 20.5614 11.0779 24.3432 8.21395 28.75C4.81499 34 2.76833 39.8432 2.17187 46.0319C1.57312 52.0319 2.29708 57.9682 4.40521 63.5932C6.70457 69.8432 10.4792 75.3432 15.6744 79.875H15.6721ZM103.191 85.3137L92.901 75.0932L89.3769 78.5319L95.576 84.6887H90.226C83.5556 84.6887 76.851 84.6887 70.1783 84.7182C70.1169 84.7182 69.896 84.7819 69.7685 84.8751C68.0702 86.1887 65.805 87.8432 63.2575 89.1569C62.9729 89.2819 62.7202 89.4364 62.406 89.5614H95.4167L93.971 91.1569C93.971 91.1569 93.4998 91.6864 93.3108 91.8432L89.4087 95.7182L92.901 99.1251L105.049 87.0932C104.482 86.5637 103.665 85.7819 103.191 85.3137V85.3137Z" fill="#505772"/>
</svg>
