<svg width="127" height="98" viewBox="0 0 127 98" fill="none" xmlns="http://www.w3.org/2000/svg">
<path d="M11.9781 12.8046C13.2086 12.8046 14.2061 11.8074 14.2061 10.5773C14.2061 9.34722 13.2086 8.35004 11.9781 8.35004C10.7475 8.35004 9.75 9.34722 9.75 10.5773C9.75 11.8074 10.7475 12.8046 11.9781 12.8046Z" fill="#505772"/>
<path d="M18.6467 12.8046C19.8772 12.8046 20.8748 11.8074 20.8748 10.5773C20.8748 9.34722 19.8772 8.35004 18.6467 8.35004C17.4162 8.35004 16.4186 9.34722 16.4186 10.5773C16.4186 11.8074 17.4162 12.8046 18.6467 12.8046Z" fill="#505772"/>
<path d="M24.6781 12.8046C25.9086 12.8046 26.9062 11.8074 26.9062 10.5773C26.9062 9.34722 25.9086 8.35004 24.6781 8.35004C23.4476 8.35004 22.45 9.34722 22.45 10.5773C22.45 11.8074 23.4476 12.8046 24.6781 12.8046Z" fill="#505772"/>
<path d="M30.2795 81.83C35.0409 81.83 38.8798 77.9679 38.8798 73.2105C38.8798 71.1369 38.129 69.2905 36.9169 67.8205C47.8567 54.1896 51.7246 49.2317 53.0793 47.3852C54.0329 47.7617 55.0712 47.9643 56.1696 47.9643C58.0167 47.9643 59.7479 47.3563 61.1605 46.3473L72.5905 56.0627C71.9288 57.2721 71.5233 58.6263 71.5233 60.1252C71.5233 64.8827 75.3912 68.7448 80.1236 68.7448C84.8872 68.7448 88.7552 64.8827 88.7552 60.1252C88.7552 57.4748 87.5431 55.1673 85.6671 53.5837L94.8757 33.0617C95.4527 33.2042 96.0878 33.2621 96.7228 33.2621C101.484 33.2621 105.352 29.4 105.352 24.6737C105.352 19.9163 101.484 16.0542 96.7228 16.0542C91.9591 16.0542 88.0912 19.9163 88.0912 24.6737C88.0912 27.5848 89.564 30.1773 91.8143 31.7052L82.7238 51.94C81.886 51.6505 81.0483 51.5079 80.0947 51.5079C78.0181 51.5079 76.171 52.2563 74.6693 53.4679L63.4131 43.8684C64.2509 42.5432 64.741 40.9863 64.741 39.2869C64.741 34.5317 60.8731 30.6673 56.1407 30.6673C51.3771 30.6673 47.5091 34.5317 47.5091 39.2869C47.5091 41.7369 48.5496 43.9552 50.2229 45.5121C47.9414 48.51 40.1498 58.2521 34.29 65.5732C33.049 64.8827 31.6631 64.4773 30.1904 64.4773C25.429 64.4773 21.561 68.3417 21.561 73.0679C21.619 77.8521 25.5448 81.83 30.2772 81.83H30.2795ZM91.4979 24.7584C91.4979 21.8473 93.8641 19.4575 96.8096 19.4575C99.724 19.4575 102.119 21.8184 102.119 24.7584C102.119 27.6717 99.7529 30.0058 96.8096 30.0058C93.8641 30.0058 91.4979 27.6427 91.4979 24.7584ZM80.1838 54.9379C83.0981 54.9379 85.4933 57.3011 85.4933 60.1832C85.4933 63.0652 83.1271 65.4863 80.1838 65.4863C77.2672 65.4863 74.93 63.1254 74.93 60.1854C74.901 57.2721 77.2383 54.9379 80.1838 54.9379ZM56.2253 34.0973C59.1419 34.0973 61.4791 36.4627 61.4791 39.4027C61.4791 42.3137 59.1129 44.7036 56.2253 44.7036C53.311 44.7036 50.9159 42.3427 50.9159 39.4027C50.9159 36.4627 53.311 34.0973 56.2253 34.0973V34.0973ZM30.2795 67.9363C33.196 67.9363 35.5333 70.3017 35.5333 73.1837C35.5333 76.0658 33.1671 78.4847 30.2795 78.4847C27.3652 78.4847 24.97 76.1237 24.97 73.1837C24.97 70.3017 27.3652 67.9363 30.2795 67.9363V67.9363Z" fill="#505772"/>
<path d="M1.99188 0.258362V97.7416H125.008V0.258362H1.99188ZM121.572 94.2827H5.4855V3.68836H121.577V94.2827H121.572Z" fill="#505772"/>
</svg>
