<svg width="134" height="118" viewBox="0 0 134 118" fill="none" xmlns="http://www.w3.org/2000/svg">
<path d="M72.2887 90.7348H8.66338C4.99835 90.7348 2 87.7364 2 84.071V8.66379C2 4.99835 4.99836 2 8.66338 2H116.422C120.087 2 123.086 4.99836 123.086 8.66379V35.5902" stroke="#505772" stroke-width="3" stroke-linecap="round" stroke-linejoin="round"/>
<path d="M33.8885 19.0996C77.794 19.0996 92.1206 19.0996 92.1206 19.0996" stroke="#505772" stroke-width="3" stroke-linecap="round" stroke-linejoin="round"/>
<path d="M30.1843 50.9893C49.4397 50.9893 56.0721 50.9893 56.0721 50.9893M18.6371 50.9893C20.8942 50.9893 23.0296 50.9893 25.0481 50.9893H18.6371Z" stroke="#505772" stroke-width="3" stroke-linecap="round" stroke-linejoin="round"/>
<path d="M30.1843 61.3203C49.4397 61.3203 56.0721 61.3203 56.0721 61.3203M18.6371 61.3203C20.8942 61.3203 23.0296 61.3203 25.0481 61.3203H18.6371Z" stroke="#505772" stroke-width="3" stroke-linecap="round" stroke-linejoin="round"/>
<path d="M30.1843 72.5889C49.4397 72.5889 56.0721 72.5889 56.0721 72.5889M18.6371 72.5889C20.8942 72.5889 23.0296 72.5889 25.0481 72.5889H18.6371Z" stroke="#505772" stroke-width="3" stroke-linecap="round" stroke-linejoin="round"/>
<path d="M99.9704 84.7048C110.302 84.7048 118.677 76.3296 118.677 65.9984C118.677 55.6672 110.302 47.292 99.9704 47.292C89.6392 47.292 81.264 55.6672 81.264 65.9984C81.264 76.3296 89.6392 84.7048 99.9704 84.7048Z" stroke="#505772" stroke-width="3" stroke-linecap="round" stroke-linejoin="round"/>
<path d="M84.7261 97.667V116.154L99.9776 106.448L115.229 116.154V97.667" stroke="#505772" stroke-width="3" stroke-linecap="round" stroke-linejoin="round"/>
<path d="M102.27 33.5391L107.487 40.7556L116.126 37.7519L117.695 46.5174L126.782 47.5586L124.392 56.1374L132.128 61.0181L126.253 67.7101L131.104 75.4642L122.907 78.944L123.914 88.0351L115.019 87.614L111.981 96.2413L104.15 92.0032L97.6698 98.4581L92.4526 91.2412L83.8141 94.2456L82.245 85.4797L73.1576 84.4382L75.5478 75.86L67.8129 70.9787L73.6873 64.2873L68.8359 56.5333L77.0333 53.0532L76.0262 43.9621L84.9214 44.3828L87.959 35.7555L95.7905 39.9939L102.27 33.5391Z" stroke="#505772" stroke-width="3" stroke-linecap="round" stroke-linejoin="round"/>
<path d="M90.7344 64.3917L98.5908 71.786L111.069 59.3076" stroke="#505772" stroke-width="3" stroke-linecap="round" stroke-linejoin="round"/>
<path d="M44.5426 29.6582C72.3767 29.6582 81.4591 29.6582 81.4591 29.6582" stroke="#505772" stroke-width="3" stroke-linecap="round" stroke-linejoin="round"/>
</svg>
