<svg width="91" height="99" viewBox="0 0 91 99" fill="none" xmlns="http://www.w3.org/2000/svg">
<g clip-path="url(#clip0_34_2)">
<path d="M60.5803 30.0372C60.3867 29.2744 59.7707 28.7093 59.017 28.6069L50.799 27.3651L47.1403 19.6488C46.8207 19.0162 46.1953 18.6162 45.5093 18.6046C44.7953 18.6046 44.142 19.0232 43.8247 19.6907L40.166 27.4209L31.9457 28.6511C31.2363 28.7558 30.646 29.2744 30.4243 29.9837C30.205 30.6953 30.3893 31.4744 30.905 31.9953L36.8223 38.0116L35.4527 46.5C35.3593 47.0651 35.511 47.6441 35.8633 48.086C36.218 48.5255 36.7383 48.7814 37.2867 48.7837C37.5947 48.7883 37.8957 48.7093 38.1663 48.5581L45.5093 44.5581L52.8267 48.6139C53.4567 48.9628 54.2267 48.9 54.7983 48.4581C55.377 48.0186 55.6687 47.2767 55.552 46.5418L54.1823 38.0535L60.0857 32.0535C60.6037 31.5302 60.7927 30.7511 60.5803 30.0372V30.0372ZM50.8667 35.9674C50.4163 36.4162 50.211 37.0697 50.3183 37.7116L51.2377 43.2976L46.4287 40.6558C45.878 40.3535 45.2223 40.3535 44.674 40.6558L39.865 43.2976L40.782 37.7116C40.8917 37.0767 40.691 36.4302 40.2477 35.9814L36.344 32.0232L41.727 31.1953C42.3267 31.0953 42.84 30.693 43.099 30.1232L45.5093 24.979L47.922 30.0372C48.1787 30.6069 48.692 31.0093 49.2917 31.1069L54.6747 31.9232L50.8667 35.9674Z" fill="#505772"/>
<path d="M88.9817 84.0767L72.9913 56.6209C84.5623 42.3837 83.0363 21.7465 69.496 9.31858C55.9533 -3.10701 34.9907 -3.10701 21.448 9.31858C7.90767 21.7465 6.38167 42.3837 17.9527 56.6209L2.016 84.0767L0 87.4488L3.95267 86.9186L16.4267 85.2604L21.2263 96.7535L22.638 99.9442L24.668 96.9907L40.8287 69.3814C43.9203 69.7721 47.0517 69.7721 50.1433 69.3814L66.3157 96.9907L68.278 100L69.7737 96.7535L74.5733 85.2604L87.0473 86.9186L91 87.6046L88.9817 84.079V84.0767ZM18.9817 81.207L16.485 81.4023L7.39433 82.6139L20.8017 59.6023C25.2583 63.9628 30.8117 67.0721 36.89 68.6139L23.3007 91.7116L19.8147 83.3535L18.9817 81.207V81.207ZM14.1563 34.9163C14.1563 17.8279 28.1867 3.97672 45.5 3.97672C62.8133 3.97672 76.8437 17.8279 76.8437 34.9163C76.8437 52.0046 62.8133 65.8558 45.5 65.8558C28.1983 65.8325 14.1797 51.9953 14.1563 34.9163V34.9163ZM72.1583 81.0814L71.1853 83.3674L67.6993 91.7256L54.18 68.6139C60.2583 67.0721 65.8117 63.9628 70.2683 59.6023L83.6757 82.6139L74.515 81.4046L72.1583 81.0814V81.0814Z" fill="#505772"/>
</g>
<defs>
<clipPath id="clip0_34_2">
<rect width="91" height="100" fill="white"/>
</clipPath>
</defs>
</svg>
