<svg width="100" height="100" viewBox="0 0 100 100" fill="none" xmlns="http://www.w3.org/2000/svg">
<path d="M27.975 62.85H70.75V37.15H27.975V62.85ZM31.725 40.9H67V59.075H31.725V40.9Z" fill="#505772"/>
<path d="M11.65 77.7L16.15 82.2H5.125V14.575H27.975V26.9H70.75V1.22498H27.975V10.825H1.375V86H16.15L11.625 90.75L14.075 93.075L22.725 83.975L14.05 75.3L11.65 77.7V77.7ZM31.725 4.97498H67V23.15H31.725V4.97498V4.97498Z" fill="#505772"/>
<path d="M83.925 12.475L88.425 7.97495L86.05 5.57495L77.375 14.25L86.025 23.35L88.475 21.025L83.95 16.275H94.9V84.125H70.75V73.125H27.975V98.8H70.75V87.875H98.625V12.475H83.925V12.475ZM67 95.025H31.725V76.85H67V95.025Z" fill="#505772"/>
</svg>
