<svg width="75" height="75" viewBox="0 0 75 75" fill="none" xmlns="http://www.w3.org/2000/svg">
<g clip-path="url(#clip0_9_83)">
<path d="M74.1046 16.0085L69.2525 16.2973C68.7866 14.8609 68.1151 13.4925 67.2596 12.2128L70.4692 8.61675L69.854 7.85366C68.4367 6.11206 66.7713 4.63375 64.8919 3.45222L64.0628 2.9301L60.8532 6.5262C59.4996 5.82734 58.064 5.34132 56.5612 5.03176L56.2724 0.179731L55.2963 0.0856588C53.1359 -0.108685 50.8227 0.028983 48.7006 0.478208L47.7443 0.687287L48.033 5.53932C46.5949 6.00532 45.2266 6.67681 43.9469 7.53238L40.3334 4.34237L39.5721 4.95914C37.8293 6.35625 36.3505 8.04197 35.1688 9.91966L34.6467 10.7487L38.263 13.9572C37.5637 15.3311 37.0766 16.7481 36.7686 18.2492L31.9166 18.538L31.8225 19.514C31.7149 20.6042 31.7046 21.7088 31.7711 22.8258C31.8376 23.9445 31.98 25.0586 32.2134 26.1099L32.4225 27.0679L37.2746 26.7791C37.7422 28.2154 38.412 29.5839 39.2692 30.8635L36.0607 34.4781L36.6758 35.2395C38.0914 36.9812 39.7586 38.4611 41.6364 39.6444L42.4654 40.1649L45.675 36.5688C47.0286 37.2676 48.4659 37.7535 49.967 38.0632L50.2558 42.9152L51.2319 43.0093C52.3236 43.1151 53.4266 43.1255 54.5452 43.059C55.6622 42.9925 56.7763 42.8501 57.8276 42.6168L58.7856 42.4076L58.4968 37.5555C59.9333 37.0896 61.3017 36.4182 62.5813 35.5626L66.1948 38.7526L66.9578 38.1357C68.7006 36.7386 70.1777 35.053 71.3594 33.1753L71.8815 32.3462L68.2865 29.1551C68.9853 27.8015 69.4714 26.3659 69.7809 24.8631L74.633 24.5743L74.727 23.5983C74.8357 22.5266 74.8449 21.4035 74.7785 20.2865C74.7119 19.1678 74.5678 18.0538 74.3345 17.0025L74.1046 16.0085V16.0085ZM72.4871 22.3807L67.7867 22.6604L67.6504 23.5815C67.3999 25.4224 66.7804 27.1719 65.8502 28.7861L65.3844 29.595L68.8989 32.7131C68.1272 33.8073 67.2523 34.7892 66.2591 35.6852L62.7462 32.567L61.9983 33.1238C60.5071 34.2608 58.8236 35.0626 57.0458 35.5319L56.1473 35.7747L56.427 40.4751C55.1259 40.6861 53.7613 40.7674 52.4645 40.711L52.1848 36.0106L51.2637 35.8743C49.4228 35.6238 47.675 35.0042 46.0591 34.0741L45.252 33.6082L42.1321 37.1211C41.0413 36.3492 40.056 35.4762 39.16 34.483L42.2799 30.97L41.7215 30.2222C40.5878 28.7308 39.7826 27.0475 39.3166 25.2678L39.0721 24.3694L34.3717 24.6492C34.2761 24.009 34.1995 23.3474 34.159 22.6668C34.1194 22.0013 34.1171 21.337 34.1348 20.6698L38.8352 20.3901L38.9715 19.469C39.222 17.6281 39.8399 15.8803 40.7717 14.2644L41.2377 13.4572L37.723 10.3374C38.4949 9.24493 39.3881 8.26019 40.3611 7.36539L43.8758 10.4852L44.622 9.92682C46.1149 8.79142 47.7984 7.98789 49.5762 7.52028L50.4747 7.27744L50.195 2.57704C51.4944 2.36614 52.859 2.28492 54.1558 2.34131L54.4355 7.04171L55.3565 7.17626C57.1975 7.4285 58.947 8.048 60.5612 8.97818L61.3701 9.44402L64.4882 5.92945C65.5824 6.70123 66.5642 7.57437 67.4619 8.56748L64.3404 12.0823L64.8988 12.8284C66.0155 14.3208 66.8376 16.0031 67.307 17.7826L67.5498 18.6811L72.2503 18.4014C72.3442 19.0433 72.4224 19.7031 72.463 20.3854C72.5025 21.0492 72.5033 21.7153 72.4871 22.3807V22.3807Z" fill="white"/>
<path d="M52.6564 11.0089C46.8576 11.3541 42.4177 16.3523 42.7629 22.1528C43.1081 27.9533 48.1096 32.3913 53.9085 32.0462C59.7073 31.7011 64.1471 26.7012 63.8019 20.9007C63.4567 15.1018 58.4553 10.6638 52.6564 11.0089ZM53.772 29.7533C49.2232 30.024 45.3069 26.5477 45.0362 21.9989C44.7655 17.4501 48.2429 13.5524 52.7917 13.2816C57.3404 13.0109 61.2567 16.4872 61.5275 21.036C61.7982 25.5848 58.3208 29.4826 53.772 29.7533Z" fill="white"/>
<path d="M43.7601 58.0175L40.2595 56.4819C40.7231 54.2935 40.7649 52.0893 40.3956 49.8966L43.9482 48.5105C44.2613 48.3883 44.4231 48.0194 44.301 47.7063L42.0917 42.0439C41.9655 41.7403 41.5965 41.5784 41.2875 41.6911L37.7349 43.0772C36.5217 41.2137 34.9887 39.6161 33.175 38.324L34.7107 34.8234C34.8477 34.5112 34.7043 34.1437 34.3921 34.0067L28.8289 31.5663C28.5167 31.4293 28.1492 31.5727 28.0122 31.8849L26.4766 35.3855C24.2882 34.9219 22.084 34.8801 19.8913 35.2494L18.5052 31.6968C18.4468 31.5471 18.3244 31.4144 18.1825 31.3522C18.0312 31.2858 17.8643 31.2803 17.7105 31.3482L12.048 33.5574C11.735 33.6795 11.5731 34.0485 11.6953 34.3616L13.0813 37.9142C11.2178 39.1275 9.62024 40.6604 8.32821 42.4741L4.8276 40.9384C4.51538 40.8015 4.14787 40.9449 4.0109 41.2571L1.57044 46.8202C1.43347 47.1324 1.57686 47.4999 1.88908 47.6369L5.38969 49.1726C4.92608 51.3609 4.88426 53.5651 5.25359 55.7579L1.70097 57.144C1.3879 57.2661 1.22603 57.6351 1.34818 57.9481L3.55741 63.6106C3.67956 63.9236 4.04854 64.0855 4.36161 63.9633L7.91423 62.5773C9.12747 64.4408 10.6604 66.0384 12.4741 67.3304L10.9384 70.831C10.8015 71.1432 10.9449 71.5107 11.2571 71.6477L16.8202 74.0882C17.1324 74.2251 17.4999 74.0817 17.6369 73.7695L19.1726 70.2689C21.361 70.7325 23.5651 70.7743 25.7579 70.405L27.144 73.9576C27.2661 74.2707 27.6256 74.4284 27.9482 74.3104L33.6106 72.1012C33.7603 72.0428 33.8929 71.9205 33.9552 71.7785C34.0175 71.6366 34.0271 71.4603 33.9592 71.3065L32.5731 67.7538C34.4366 66.5406 36.0342 65.0076 37.3263 63.194L40.8269 64.7296C41.1391 64.8666 41.5066 64.7232 41.6436 64.411L44.084 58.8478C44.2157 58.522 44.0723 58.1545 43.7601 58.0175V58.0175ZM40.7519 63.3317L37.3554 61.8416C37.081 61.7213 36.7573 61.8162 36.5897 62.0698C35.2472 64.0757 33.5347 65.7162 31.4836 66.9713C31.2232 67.1278 31.1188 67.443 31.2303 67.7288L32.5792 71.1862L28.0738 72.944L26.7248 69.4867C26.6133 69.2008 26.3189 69.0491 26.0254 69.1009C23.6758 69.5706 21.2953 69.5191 18.9491 68.9524C18.654 68.8794 18.361 69.0329 18.2406 69.3073L16.7506 72.7038L12.3228 70.7614L13.8128 67.3649C13.9332 67.0905 13.8383 66.7668 13.5941 66.6033C11.5882 65.2608 9.93824 63.5441 8.69263 61.4972C8.53613 61.2368 8.22092 61.1323 7.93507 61.2439L4.47774 62.5928L2.71991 58.0874L6.17725 56.7384C6.46309 56.6269 6.61483 56.3325 6.56306 56.039C6.09332 53.6894 6.14478 51.3089 6.71148 48.9627C6.78454 48.6676 6.63517 48.3651 6.3608 48.2448L2.96426 46.7547L4.90667 42.3269L8.30321 43.817C8.57758 43.9373 8.90127 43.8424 9.06894 43.5888C10.4114 41.5829 12.1281 39.9329 14.175 38.6873C14.4354 38.5308 14.5399 38.2156 14.4283 37.9298L13.0794 34.4724L17.5849 32.7146L18.9338 36.1719C19.0453 36.4578 19.3398 36.6095 19.6332 36.5577C21.9828 36.088 24.3633 36.1395 26.7095 36.7062C27.0047 36.7792 27.2976 36.6257 27.418 36.3513L28.9039 32.9642L33.3317 34.9067L31.8417 38.3032C31.7213 38.5776 31.8162 38.9013 32.0604 39.0648C34.0663 40.4073 35.7162 42.1239 36.9618 44.1708C37.1183 44.4313 37.4336 44.5357 37.7194 44.4242L41.1767 43.0753L42.9346 47.5807L39.4772 48.9296C39.1914 49.0411 39.0396 49.3356 39.0914 49.6291C39.5612 51.9787 39.5097 54.3591 38.943 56.7054C38.8699 57.0005 39.0193 57.3029 39.2937 57.4233L42.6902 58.9133L40.7519 63.3317V63.3317Z" fill="white" stroke="white"/>
<path d="M26.8146 43.5757C21.7628 41.3595 15.8475 43.665 13.6307 48.7183C11.4139 53.7716 13.7229 59.6867 18.7748 61.9029C23.8266 64.119 29.7425 61.8121 31.9593 56.7588C34.1755 51.707 31.8665 45.7918 26.8146 43.5757ZM19.651 59.9053C15.6883 58.1669 13.8807 53.5341 15.6192 49.5713C17.3576 45.6086 21.9833 43.8172 25.9461 45.5556C29.9089 47.294 31.7164 51.9268 29.9779 55.8896C28.2395 59.8524 23.6138 61.6437 19.651 59.9053Z" fill="white"/>
</g>
<defs>
<clipPath id="clip0_9_83">
<rect width="75" height="75" fill="white"/>
</clipPath>
</defs>
</svg>
