<svg width="200" height="200" viewBox="0 0 200 200" fill="none" xmlns="http://www.w3.org/2000/svg">
<rect width="200" height="200" fill="white"/>
<path d="M197.264 112.3C192.336 105.036 183.04 103.108 175.344 108.077C171.28 110.684 154.472 122.3 144.248 129.381C143.508 123.353 139.568 118.26 133.352 116.208C115.123 110.189 96.7113 104.537 78.5511 98.3258C68.3271 94.7852 59.275 95.9627 50.5309 102.425C44.4988 106.896 38.2188 110.995 31.9987 115.095L36.1228 121.429C44.2508 115.961 52.1349 110.56 60.139 105.531C64.019 103.108 68.5111 103.168 73.0071 104.66C91.9713 110.871 110.935 116.955 129.964 123.17C135.26 124.906 137.844 129.129 136.492 133.668C135.136 138.258 130.888 140.25 125.344 138.817C116.603 136.522 107.919 134.163 99.2393 131.863C96.4673 131.117 93.3273 130.063 92.3433 134.039C91.4193 137.703 94.4353 138.446 97.0833 139.128C105.763 141.491 114.443 143.914 123.192 146.086C125.592 146.708 128.18 147.143 130.58 146.832C135.076 146.273 138.768 144.038 141.232 140.805C146.28 137.332 173.372 118.571 178.424 115.218C183.408 111.925 188.088 112.484 190.92 116.583C193.88 120.807 192.584 125.525 187.352 129.069C169.064 141.427 150.712 153.726 132.488 166.148C129.164 168.447 125.96 168.942 122.084 167.824C107.059 163.353 91.9113 159.254 77.0111 154.656C70.2991 152.608 63.891 151.115 57.735 154.536L62.047 161.054C64.447 159.873 67.035 159.689 70.1151 160.619C87.1072 165.713 104.163 170.431 121.22 175.4C126.392 176.893 131.132 176.334 135.568 173.289C154.592 160.436 173.68 147.702 192.708 134.781C200.344 129.441 202.188 119.693 197.264 112.3V112.3Z" fill="#505772"/>
<path d="M38.4084 123.389L34.2763 117.158L31.0723 112.329L0 132.618L36.9283 188.17L68.0006 167.88L64.2406 162.256L59.9245 155.841L38.4084 123.389ZM38.9004 178.697L9.56009 134.51L29.1043 121.737L58.4485 165.924L38.9044 178.697H38.9004Z" fill="#505772"/>
<rect x="108.883" y="16.3781" width="47.782" height="47.782" rx="23.891" stroke="#505772" stroke-width="6"/>
<path d="M89.0764 101.813C96.6205 87.2197 111.852 77.2443 129.413 77.2443H136.136C154.938 77.2443 171.07 88.68 177.955 104.976" stroke="#505772" stroke-width="6" stroke-linecap="round"/>
</svg>
