<svg width="62" height="80" viewBox="0 0 62 80" fill="none" xmlns="http://www.w3.org/2000/svg">
<path d="M11.5527 29.7636H49.6V26.7527H11.5527V29.7654V29.7636ZM49.6 35.2709H11.5527V38.2818H49.6V35.2727V35.2709Z" fill="#505772"/>
<path d="M47.9527 2.18903C47.9527 2.18903 16.9418 2.16357 1.43635 2.16357H0.681809V77.5999C0.681809 77.6709 0.681809 77.7636 0.658173 77.8363H60.4945C60.4945 74.1636 60.5182 70.4945 60.5182 66.8236V59.1527H60.5418V14.8472L47.9527 2.18903V2.18903ZM49.6 7.83448L54.9418 13.1763H49.6V7.8363V7.83448ZM57.4109 17.3418V56.3999H57.3655V74.589H3.90545V5.43448H46.8C46.8 9.05812 46.7527 12.3072 46.7527 15.9999H57.4345C57.4109 16.3999 57.4109 17.0363 57.4109 17.3418Z" fill="#505772"/>
<path d="M28.9655 63.811L20.7055 54.1419L10.5182 64.9419L12.6582 66.9655L20.5891 58.5419L28.7527 68.0946L50.6109 46.9182L48.5655 44.8L28.9655 63.811Z" fill="#505772"/>
</svg>
