<svg width="173" height="152" viewBox="0 0 173 152" fill="none" xmlns="http://www.w3.org/2000/svg">
<path d="M130.933 9.09832C155.308 21.4801 172 46.7924 172 76C172 117.429 138.415 151 97 151C60.3691 151 29.8641 124.727 23.3049 90M109.034 1.96377C105.112 1.33464 101.096 1 97 1C60.3691 1 29.8641 27.2733 23.3049 62" stroke="#505772" stroke-width="2" stroke-miterlimit="10" stroke-linecap="round" stroke-linejoin="round"/>
<path d="M37.9999 63H38.9999V62H37.9999V63ZM37.9999 66.9791H36.9999L37 66.984L37.9999 66.9791ZM1 63V62H0V63H1ZM29.4615 62H9.53846V64H29.4615V62ZM29.4615 64H34V62H29.4615V64ZM34 64H37.9999V62H34V64ZM36.9999 63V66.9791H38.9999V63H36.9999ZM39 67C39 66.9912 39 66.9826 38.9999 66.9742L37 66.984C37 66.9895 37 66.9949 37 67H39ZM39 85.1846V67H37V85.1846H39ZM34 90.1846C36.7614 90.1846 39 87.946 39 85.1846H37C37 86.8415 35.6569 88.1846 34 88.1846V90.1846ZM5 90.1846H34V88.1846H5V90.1846ZM0 85.1846C0 87.946 2.23858 90.1846 5 90.1846V88.1846C3.34315 88.1846 2 86.8415 2 85.1846H0ZM0 71.5385V85.1846H2V71.5385H0ZM0 67V71.5385H2V67H0ZM0 63V67H2V63H0ZM5 62H1V64H5V62ZM9.53846 62H5V64H9.53846V62Z" fill="#505772"/>
<path d="M22 76H29.3585C30.5849 76 33.3208 75.0326 34.4528 71.1628C35.5849 67.293 36.434 65.1163 37 63" stroke="#505772" stroke-width="2"/>
<path d="M16 76H9.13208C7.98742 76 5.43396 75.0326 4.37736 71.1628C3.32075 67.293 2.5283 65.1163 2 63" stroke="#505772" stroke-width="2"/>
<rect x="16" y="72.1846" width="7" height="8" rx="3" stroke="#505772" stroke-width="2"/>
<path d="M147.256 60.4482C147.884 62.5711 148.39 64.7435 148.761 66.9652" stroke="#505772" stroke-width="2" stroke-linecap="round" stroke-linejoin="round"/>
<path d="M149.412 77.9412C148.161 106.896 123.836 129.525 94.7907 128.592C65.5447 127.652 42.6124 103.184 43.5515 73.9513C44.4905 44.7187 68.9593 21.773 98.192 22.7121C104.386 22.9111 110.293 24.1588 115.755 26.2896" stroke="#505772" stroke-width="2" stroke-linecap="round" stroke-linejoin="round" stroke-dasharray="10.28 10.28"/>
<path d="M120.772 28.5403C122.762 29.5685 124.68 30.7149 126.501 31.9787" stroke="#505772" stroke-width="2" stroke-linecap="round" stroke-linejoin="round"/>
<path d="M136.474 61.3157C144.969 61.3157 151.855 54.4298 151.855 45.9356C151.855 37.4414 144.969 30.5554 136.474 30.5554C127.98 30.5554 121.094 37.4414 121.094 45.9356C121.094 54.4298 127.98 61.3157 136.474 61.3157Z" stroke="#505772" stroke-width="2" stroke-miterlimit="10" stroke-linecap="round" stroke-linejoin="round"/>
<path d="M95.7284 97.2029C107.764 97.2029 117.52 87.4464 117.52 75.411C117.52 63.3757 107.764 53.6191 95.7284 53.6191C83.6931 53.6191 73.9365 63.3757 73.9365 75.411C73.9365 87.4464 83.6931 97.2029 95.7284 97.2029Z" stroke="#505772" stroke-width="2" stroke-miterlimit="10" stroke-linecap="round" stroke-linejoin="round"/>
<path d="M146.366 57.7554C148.374 63.3372 149.458 69.3608 149.458 75.6387C149.458 80.2567 148.869 84.7275 147.758 88.9976" stroke="#505772" stroke-width="2" stroke-miterlimit="10" stroke-linecap="round" stroke-linejoin="round"/>
<path d="M107.173 23.7422C114.749 25.2949 121.737 28.454 127.76 32.8712" stroke="#505772" stroke-width="2" stroke-miterlimit="10" stroke-linecap="round" stroke-linejoin="round"/>
<path d="M129.982 45.3335H142.806" stroke="#505772" stroke-width="2" stroke-miterlimit="10" stroke-linecap="round" stroke-linejoin="round"/>
<path d="M89.1425 75.9197H101.966" stroke="#505772" stroke-width="2" stroke-miterlimit="10" stroke-linecap="round" stroke-linejoin="round"/>
<path d="M95.3 69.2537V82.0772" stroke="#505772" stroke-width="2" stroke-miterlimit="10" stroke-linecap="round" stroke-linejoin="round"/>
</svg>
