<svg width="61" height="76" viewBox="0 0 61 76" fill="none" xmlns="http://www.w3.org/2000/svg">
<path d="M11.5527 27.7637H49.6V24.7527H11.5527V27.7655V27.7637ZM49.6 33.2709H11.5527V36.2818H49.6V33.2727V33.2709Z" fill="#505772"/>
<path d="M47.9528 0.18909C47.9528 0.18909 16.9418 0.163635 1.43639 0.163635H0.68184V75.6C0.68184 75.6709 0.681839 75.7636 0.658203 75.8364H60.4946C60.4946 72.1637 60.5182 68.4946 60.5182 64.8236V57.1527H60.5419V12.8473L47.9528 0.18909ZM49.6 5.83454L54.9418 11.1764H49.6V5.83636V5.83454ZM57.4109 15.3418V54.4H57.3655V72.5891H3.90548V3.43454H46.8C46.8 7.05818 46.7528 10.3073 46.7528 14H57.4346C57.4109 14.4 57.4109 15.0364 57.4109 15.3418Z" fill="#505772"/>
<path d="M28.9656 61.8109L20.7056 52.1418L10.5183 62.9418L12.6583 64.9654L20.5892 56.5418L28.7529 66.0945L50.611 44.9182L48.5656 42.8L28.9656 61.8109Z" fill="#505772"/>
</svg>
