<svg width="78" height="78" viewBox="0 0 78 78" fill="none" xmlns="http://www.w3.org/2000/svg">
<path d="M69.4 26.1764H55.5418H54.1291L55.1182 25.1655L57.3527 22.9291L76.9763 3.30546L75.6818 1.96546L74.5054 0.741821L52.6709 22.5764L51.6818 23.5891V22.1527V8.57637H48.2472V29.6582H69.4V26.1764ZM23.5182 26.2236H22.1054H8.64725V29.6582H29.6818V8.55273H26.3418V21.9182V23.8945L25.3291 22.8109L25.0236 22.5055L6.64725 4.05819L3.58906 1L2.01088 2.50546L0.858154 3.63455L22.5291 25.2109L23.5182 26.2236ZM70.7418 68.1055L55.2582 52.6709L54.2472 51.6582H55.6818H69.4V48.2H48.2945V69.2818H51.7527V55.5182V54.1055L52.7654 55.1182L61.6582 64.0582L74.5527 77.0236L77.1418 74.4818L70.7418 68.1055ZM8.62361 51.7291H22.0818H23.9418L23.0236 52.7655L22.6945 53.0946L13.5182 62.2473L1.09452 74.6946L2.31815 75.9655L3.56543 77.2582L13.4709 67.3527L25.3527 55.4473L26.3654 54.4346V55.8709V69.2818H29.7054V48.2236H8.62361V51.7291Z" fill="#505772"/>
</svg>
