<svg width="80" height="80" viewBox="0 0 80 80" fill="none" xmlns="http://www.w3.org/2000/svg">
<path d="M70.4 27.1762H56.5418H55.1291L56.1182 26.1653L58.3527 23.929L77.9764 4.30534L76.6818 2.96534L75.5055 1.7417L53.6709 23.5762L52.6818 24.589V23.1526V9.57624H49.2473V30.6581H70.4V27.1762ZM24.5182 27.2235H23.1055H9.64727V30.6581H30.6818V9.55261H27.3418V22.9181V24.8944L26.3291 23.8108L26.0236 23.5053L7.64727 5.05806L4.58909 1.99988L3.01091 3.50534L1.85818 4.63443L23.5291 26.2108L24.5182 27.2235ZM71.7418 69.1053L56.2582 53.6708L55.2473 52.6581H56.6818H70.4V49.1999H49.2945V70.2817H52.7527V56.5181V55.1053L53.7655 56.1181L62.6582 65.0581L75.5527 78.0235L78.1418 75.4817L71.7418 69.1053ZM9.62364 52.729H23.0818H24.9418L24.0236 53.7653L23.6945 54.0944L14.5182 63.2472L2.09454 75.6944L3.31818 76.9653L4.56545 78.2581L14.4709 68.3526L26.3527 56.4472L27.3655 55.4344V56.8708V70.2817H30.7055V49.2235H9.62364V52.729Z" fill="#505772"/>
</svg>
