<svg width="75" height="75" viewBox="0 0 75 75" fill="none" xmlns="http://www.w3.org/2000/svg">
<path d="M36.9554 38.5C42.6705 38.5 47.3036 34.1108 47.3036 28.6965C47.3036 23.2821 42.6705 18.8929 36.9554 18.8929C31.2402 18.8929 26.6071 23.2821 26.6071 28.6965C26.6071 34.1108 31.2402 38.5 36.9554 38.5Z" stroke="white" stroke-width="2" stroke-linecap="round" stroke-linejoin="round"/>
<path d="M54.9286 62.4643C54.9286 49.1926 47.2883 38.5 37.9671 38.5C30.8617 38.5 24.7822 44.6622 22.25 53.4263" stroke="white" stroke-width="2" stroke-linecap="round" stroke-linejoin="round"/>
<path d="M27.282 67.3371L37.5055 73.3572L68 55.3867V19.4459L37.5055 1.46429L7 19.4459V55.3867L12.4914 58.6102" stroke="white" stroke-width="2" stroke-linecap="round" stroke-linejoin="round"/>
<path d="M18.9821 57.0178V66.8214" stroke="white" stroke-width="2" stroke-linecap="round" stroke-linejoin="round"/>
<path d="M24.4286 62.4643H14.625" stroke="white" stroke-width="2" stroke-linecap="round" stroke-linejoin="round"/>
</svg>
