<svg width="95" height="95" viewBox="0 0 95 95" fill="none" xmlns="http://www.w3.org/2000/svg">
<g clip-path="url(#clip0_299_22043)">
<path d="M80.3161 21.8458C80.3083 21.704 80.2808 21.5673 80.2332 21.4333C80.218 21.391 80.2078 21.349 80.1889 21.3084C80.1175 21.1532 80.0271 21.0058 79.902 20.8802C79.902 20.8802 74.8183 15.7747 69.7288 10.6736C67.1848 8.12229 64.6379 5.57392 62.7244 3.66338C61.3096 2.25159 60.3776 1.32089 59.7209 0.742573C59.7106 0.728027 59.7005 0.714964 59.6905 0.700417C59.689 0.697597 59.6875 0.696113 59.686 0.693292L59.6744 0.701902C58.752 -0.101887 58.3875 -0.189317 57.9705 0.0627297L19.2659 0.0640657C16.7306 0.0640657 14.6677 2.12839 14.6677 4.66503V79.7232C14.6677 81.009 15.1678 82.2178 16.0811 83.1325C16.9798 84.027 18.2207 84.5401 19.4847 84.5401H39.0063C39.8267 84.5401 40.4907 83.8762 40.4907 83.0558C40.4907 82.2352 39.8267 81.5714 39.0063 81.5714H19.4847C18.9991 81.5714 18.5222 81.3728 18.1786 81.0321C17.8336 80.6872 17.6365 80.2102 17.6365 79.7232V4.66503C17.6365 3.76491 18.3671 3.03282 19.2659 3.03282L57.0619 3.03148C57.1179 6.41927 57.0546 15.8087 56.9898 21.9108C56.9855 22.308 57.1406 22.6892 57.4189 22.9705C57.6972 23.2531 58.0784 23.4111 58.4742 23.4111H77.3637V79.9653C77.3637 80.3885 77.1927 80.8016 76.8926 81.1017C76.5896 81.4047 76.1866 81.5714 75.7576 81.5714H75.0821C74.2617 81.5714 73.5977 82.2352 73.5977 83.0558C73.5977 83.8762 74.2617 84.5401 75.0821 84.5401H75.7576C76.9811 84.5401 78.1305 84.0632 78.9931 83.1993C79.844 82.3483 80.3325 81.1699 80.3325 79.9653V21.9267C80.3325 21.898 80.3178 21.8741 80.3161 21.8458ZM59.9746 20.4423C60.0543 12.6292 60.0789 7.98603 60.0558 5.19421C63.5289 8.65875 69.8969 15.0426 75.2764 20.4423H59.9746Z" fill="white"/>
<path d="M68.9199 73.3712C68.8649 73.1822 68.7725 73.0148 68.6579 72.8689C70.8039 70.2948 72.0975 66.9852 72.0975 63.3718C72.0975 55.1739 65.4517 48.5281 57.2538 48.5281C49.0557 48.5281 42.41 55.1739 42.41 63.3718C42.41 67.1879 43.8623 70.6564 46.2286 73.286L41.2184 90.4617C41.0546 91.0228 41.2357 91.6287 41.6809 92.0084C42.1259 92.3868 42.7507 92.4665 43.2797 92.2186L48.3287 89.8195L51.5018 94.4205C51.7815 94.8265 52.241 95.0628 52.7238 95.0628C52.8078 95.0628 52.8919 95.0555 52.976 95.041C53.5471 94.9424 54.008 94.522 54.1574 93.9624L57.5634 81.2541L60.969 93.9624C61.1183 94.5205 61.5779 94.9409 62.1475 95.041C62.2331 95.0555 62.3186 95.0628 62.4026 95.0628C62.8839 95.0628 63.3406 94.8293 63.6217 94.4249L66.8037 89.8471L71.8496 92.2215C72.3772 92.468 73.0006 92.3853 73.447 92.0056C73.8907 91.6272 74.0704 91.0228 73.9065 90.4617L68.9199 73.3712ZM57.2538 51.3555C63.8796 51.3555 69.2701 56.746 69.2701 63.3718C69.2701 69.9978 63.8796 75.3883 57.2538 75.3883C50.6278 75.3883 45.2373 69.9978 45.2373 63.3718C45.2373 56.746 50.6278 51.3555 57.2538 51.3555ZM52.1221 90.0906L50.0551 87.0944C49.6406 86.4942 48.8534 86.2811 48.1967 86.5956L44.9946 88.1164L48.6821 75.4768C50.6122 76.8462 52.8808 77.7615 55.3413 78.0787L52.1221 90.0906ZM66.9326 86.6262C66.276 86.3173 65.4946 86.529 65.0815 87.1233L63.0085 90.1051L59.7613 77.9879C62.2091 77.5705 64.4485 76.5581 66.3313 75.0985L70.1347 88.1337L66.9326 86.6262Z" fill="white"/>
<path d="M57.2537 70.7937C61.3526 70.7937 64.6755 67.4709 64.6755 63.3718C64.6755 59.2729 61.3526 55.95 57.2537 55.95C53.1547 55.95 49.8318 59.2729 49.8318 63.3718C49.8318 67.4709 53.1547 70.7937 57.2537 70.7937ZM57.2537 58.9187C59.7091 58.9187 61.7068 60.9164 61.7068 63.3718C61.7068 65.8274 59.7091 67.825 57.2537 67.825C54.7981 67.825 52.8005 65.8274 52.8005 63.3718C52.8005 60.9164 54.7981 58.9187 57.2537 58.9187Z" fill="white"/>
</g>
<defs>
<clipPath id="clip0_299_22043">
<rect width="95" height="95" fill="white"/>
</clipPath>
</defs>
</svg>
