<svg width="206" height="134" viewBox="0 0 206 134" fill="none" xmlns="http://www.w3.org/2000/svg">
<path d="M52.4261 127.739C112.965 127.739 134.979 127.739 134.979 127.739" stroke="#505772" stroke-width="3" stroke-linecap="round" stroke-linejoin="round"/>
<path d="M78.4718 2C83.3248 2 87.2588 5.93189 87.2588 10.7823C87.2588 15.6327 83.3248 19.5647 78.4718 19.5647C73.6188 19.5647 69.6848 15.6328 69.6848 10.7823C69.6848 5.93193 73.6188 2 78.4718 2V2Z" stroke="#505772" stroke-width="3"/>
<path d="M92.7934 11.0576L157.578 11.2451C165.28 11.2675 171.582 17.5455 171.582 25.2416V47.9612L204 31.1231V87.0726L170.715 68.8079M32.4869 31.0056V25.2416C32.4869 17.5437 38.7889 11.3263 46.4909 11.2451L64.3095 11.0577" stroke="#505772" stroke-width="3" stroke-linecap="round" stroke-linejoin="round"/>
<path d="M16.691 66.2777V40.0303H160.607V120.758H42.8223" stroke="#505772" stroke-width="3"/>
<path fill-rule="evenodd" clip-rule="evenodd" d="M75.8988 69.9212L75.8472 91.8214C75.8647 95.7367 78.6728 93.9082 80.2487 93.0713L100.189 82.478C100.974 82.0569 101.572 81.0478 101.443 80.0763C101.287 78.9152 100.259 78.2972 99.2569 77.7621L79.6546 67.2998C78.9344 66.9154 78.3677 66.4759 77.7134 66.5064C75.9679 66.5871 75.9019 68.4753 75.8988 69.9212L75.8988 69.9212Z" fill="#FEFEFE" stroke="#505772" stroke-width="3"/>
<path fill-rule="evenodd" clip-rule="evenodd" d="M6.01746 73.7207H32.759C34.969 73.7207 36.7765 75.5272 36.7765 77.736V128.081C36.7765 130.29 34.969 132.096 32.759 132.096H6.01746C3.80747 132.096 2 130.29 2 128.081V77.736C2 75.5272 3.80748 73.7207 6.01746 73.7207V73.7207Z" stroke="#505772" stroke-width="3"/>
<path fill-rule="evenodd" clip-rule="evenodd" d="M13.6889 95.2168C15.2379 95.2168 16.4934 96.4717 16.4934 98.0199C16.4934 99.568 15.2379 100.823 13.6889 100.823C12.1399 100.823 10.8843 99.568 10.8843 98.0199C10.8843 96.4717 12.1399 95.2168 13.6889 95.2168Z" fill="#505772"/>
<path fill-rule="evenodd" clip-rule="evenodd" d="M13.6889 106.608C15.2379 106.608 16.4934 107.863 16.4934 109.411C16.4934 110.96 15.2379 112.215 13.6889 112.215C12.1399 112.215 10.8843 110.96 10.8843 109.411C10.8843 107.863 12.1399 106.608 13.6889 106.608Z" fill="#505772"/>
<path fill-rule="evenodd" clip-rule="evenodd" d="M13.6889 118C15.2379 118 16.4934 119.255 16.4934 120.803C16.4934 122.351 15.2379 123.606 13.6889 123.606C12.1399 123.606 10.8843 122.351 10.8843 120.803C10.8843 119.255 12.1399 118 13.6889 118Z" fill="#505772"/>
<path fill-rule="evenodd" clip-rule="evenodd" d="M25.0873 95.2168C26.6363 95.2168 27.8918 96.4717 27.8918 98.0199C27.8918 99.568 26.6363 100.823 25.0873 100.823C23.5383 100.823 22.2827 99.568 22.2827 98.0199C22.2827 96.4717 23.5383 95.2168 25.0873 95.2168Z" fill="#505772"/>
<path fill-rule="evenodd" clip-rule="evenodd" d="M25.0873 106.608C26.6363 106.608 27.8918 107.863 27.8918 109.411C27.8918 110.96 26.6363 112.215 25.0873 112.215C23.5383 112.215 22.2827 110.96 22.2827 109.411C22.2827 107.863 23.5383 106.608 25.0873 106.608Z" fill="#505772"/>
<path fill-rule="evenodd" clip-rule="evenodd" d="M25.0873 118C26.6363 118 27.8918 119.255 27.8918 120.803C27.8918 122.351 26.6363 123.606 25.0873 123.606C23.5383 123.606 22.2827 122.351 22.2827 120.803C22.2827 119.255 23.5383 118 25.0873 118Z" fill="#505772"/>
<path fill-rule="evenodd" clip-rule="evenodd" d="M19.3882 82.1562C21.5569 82.1562 23.3146 83.913 23.3146 86.0805C23.3146 88.2481 21.5569 90.0049 19.3882 90.0049C17.2195 90.0049 15.4618 88.2481 15.4618 86.0805C15.4618 83.913 17.2195 82.1562 19.3882 82.1562Z" fill="#505772"/>
</svg>
