<svg width="205" height="244" viewBox="0 0 205 244" fill="none" xmlns="http://www.w3.org/2000/svg">
<path d="M36.3562 143.763C49.8807 136.323 63.4052 128.944 76.8637 121.504C77.7272 121.008 78.7118 119.707 78.7118 118.776C78.5853 107.495 82.6442 98.3188 91.4938 91.3086C91.6807 91.1874 91.7412 90.9394 92.0492 90.4434C84.9212 77.9166 77.6667 65.208 70.5993 52.9293C66.5402 52.9293 62.7287 53.4253 59.1592 52.8742C47.4222 51.0114 41.7682 39.6034 42.1972 31.6674C42.8132 21.0034 52.2182 11.888 62.5472 11.9486C70.7807 12.0093 77.2982 15.856 81.1097 23.3566C84.8552 30.6754 84.6133 38.0548 79.4487 44.6847C77.6667 46.9773 77.9087 48.4046 79.2617 50.6973C85.6582 61.6093 91.9282 72.648 98.0717 83.7474C99.2432 85.8526 100.222 86.6573 102.802 85.9188C112.152 83.3727 120.754 85.9188 129.18 91.0606C141.72 75.7508 154.381 60.3748 166.365 45.6766C163.357 40.7828 159.727 36.6274 158.005 31.7887C153.583 19.3887 161.69 5.31327 174.604 1.78065C187.452 -1.75197 201.224 6.05727 203.804 19.0194C207.857 39.416 191.385 50.7634 177.25 48.9007C176.078 48.7794 174.296 49.7714 173.438 50.7634C167.102 58.264 160.898 65.952 154.628 73.5794C148.6 80.9533 142.638 88.272 136.616 95.6514C136.187 96.208 135.752 96.7646 135.202 97.5693C141.841 106.001 142.765 115.552 140.796 125.72C140.609 126.585 141.291 128.073 142.088 128.569C147.742 132.168 153.457 135.513 159.177 139.051C160.959 140.165 162.493 140.165 164.523 139.239C175.957 133.904 187.634 138.059 192.677 148.911C197.655 159.823 192.369 172.774 181.182 176.869C169.627 181.145 157.642 174.885 154.194 162.92C152.907 158.335 153.396 154.053 154.87 149.649C155.178 148.723 154.997 146.8 154.375 146.365C148.479 142.584 142.457 138.991 136.247 135.205C131.27 142.584 124.444 146.613 116.205 148.475C115.595 148.597 114.792 150.024 114.792 150.829C114.484 164.777 114.242 178.665 114.181 192.619C114.181 193.611 115.408 195.221 116.392 195.595C126.105 199.249 132.188 205.824 133.481 216.367C135.323 231.677 122.602 242.528 111.167 243.085C93.4022 243.955 83.1997 227.213 85.8397 215C87.5612 206.877 91.9282 200.743 99.4852 197.083C101.333 196.213 103.297 195.595 106.124 194.537C106.124 180.153 106.124 165.461 106.069 150.834C106.069 150.024 105.205 148.85 104.529 148.536C90.9437 143.389 88.4853 141.405 81.0437 129.313C79.0198 130.371 76.8637 131.424 74.7738 132.603C64.4502 138.307 54.2422 144.072 43.8582 149.649C41.5207 150.895 41.2182 152.317 41.6417 154.609C43.6767 167.075 34.3267 178.731 21.4787 178.858C9.06524 179.04 0.336741 167.571 0.826241 157.585C1.19474 149.594 5.00624 143.201 12.1397 139.547C19.5097 135.761 26.8907 136.197 33.7162 141.405C34.2057 141.779 34.6347 142.209 35.1297 142.584C35.3112 142.893 35.7402 143.267 36.3562 143.763ZM133.112 116.913C133.052 104.205 122.844 93.48 110.859 93.6013C97.9508 93.728 87.2533 104.205 87.2533 116.858C87.1982 129.688 97.9508 140.291 111.046 140.352C123.031 140.291 133.173 129.567 133.112 116.919V116.913ZM109.754 203.344C100.965 203.471 93.7707 210.663 93.9522 219.155C94.1392 227.775 101.575 234.901 110.122 234.653C118.114 234.405 124.934 227.213 124.934 218.968C124.934 210.597 117.806 203.217 109.754 203.344ZM180.995 9.59541C172.393 9.65603 165.689 16.2914 165.568 24.784C165.507 33.4034 172.454 40.3474 181.061 40.2868C189.113 40.2206 195.994 33.0286 195.933 24.8446C195.878 16.2914 189.234 9.52927 180.995 9.59541ZM185.978 157.403C185.978 151.016 180.137 145.191 173.807 145.312C167.592 145.439 162.004 151.077 161.943 157.343C161.877 164.039 167.289 169.555 173.867 169.555C180.319 169.555 185.978 163.851 185.978 157.403ZM21.6052 169.925C27.6277 169.864 33.0397 164.281 33.1552 158.021C33.2212 151.385 27.9962 145.869 21.6052 145.929C14.7192 145.995 9.12024 151.512 9.24674 158.147C9.37324 164.843 14.7797 169.985 21.6052 169.925ZM62.7892 44.624C69.5542 44.7453 74.7793 39.5373 74.7793 32.6594C74.7793 26.1508 69.4883 20.7554 63.0367 20.6287C56.2717 20.568 50.9917 25.776 50.9917 32.5933C50.9917 38.9862 56.3982 44.4973 62.7892 44.624Z" fill="#505772"/>
</svg>
