<svg width="100" height="100" viewBox="0 0 100 100" fill="none" xmlns="http://www.w3.org/2000/svg">
<g clip-path="url(#clip0_10_194)">
<path d="M99.5156 27.6311C97.0422 16.1155 87.5244 8.61777 75.7244 8.92888C75.0489 8.94666 74.5822 8.75555 74.1156 8.2711C73.2156 7.38888 72.2978 6.48666 71.26 5.75999C62.0733 -0.751118 52.3311 -1.77334 42.0378 2.84888C41.7267 2.98888 41.1889 2.9711 40.9267 2.79999C38.0733 0.791104 34.9267 -0.0577846 31.4467 0.0977709C24.3 0.408882 18.0911 6.55555 17.76 13.6911C17.7089 15.0067 17.7422 16.3222 17.7422 17.6733C16.7578 17.8289 15.6489 17.9511 14.5778 18.2111C0.49333 21.6555 -4.78445 39.0955 5.02666 49.7778C8.91778 54.02 13.7978 56.1667 19.5778 56.2C21.2556 56.2178 22.9333 56.2 24.4733 56.2C25.1133 58.2444 25.5822 60.1667 26.3244 62.0022C27.0689 63.82 28.0911 65.5178 29.0756 67.44C28.8867 67.5956 28.5911 67.7867 28.3489 68.0467C22.9689 73.4311 17.5867 78.8178 12.1889 84.2022C11.9978 84.3933 11.7222 84.5489 11.6533 84.7578C11.4978 85.3444 11.22 86.02 11.3933 86.5578C11.5133 86.9733 12.2067 87.3889 12.6911 87.4578C15.58 87.9089 18.4867 88.2711 21.3933 88.6C22.1556 88.6889 22.4156 88.9289 22.5022 89.7089C22.8133 92.5844 23.1933 95.4578 23.6089 98.3156C23.6778 98.7822 23.9556 99.32 24.32 99.6133C25.0622 100.256 25.6844 100.08 26.5867 99.1822C33.5067 92.3067 40.4267 85.4133 47.3644 78.5378C47.6244 78.28 47.9711 77.9511 48.2978 77.9156C49.46 77.8489 50.6356 77.8489 51.8111 77.9C52.1067 77.9156 52.4333 78.1933 52.6778 78.4178C54.1667 79.8733 55.6356 81.3622 57.1067 82.8333L73.32 99.06C73.8378 99.58 74.3222 100.169 75.24 99.8556C76.1911 99.5444 76.3822 98.8333 76.4844 97.9867C76.8133 95.18 77.1956 92.3756 77.5244 89.5533C77.5911 88.9467 77.7467 88.6533 78.44 88.5822C81.3133 88.2533 84.1844 87.8378 87.0578 87.5089C87.8711 87.4222 88.4756 87.1978 88.7689 86.3667C89.1 85.4667 88.5978 84.9644 88.0622 84.4111C84.5822 80.9289 81.1222 77.4489 77.6444 73.9844C75.3956 71.7333 73.1289 69.5 70.8267 67.2156C73.2489 63.8022 74.72 60.0822 75.3956 56.0111H76.4333C87.3356 55.9578 96.6422 48.6867 99.3089 38.1044C99.5844 36.98 99.7756 35.82 100 34.6933V30.1911C99.8444 29.3244 99.7067 28.4778 99.5156 27.6289V27.6311ZM26.3933 94.8C26.1356 92.6 25.84 90.3156 25.5978 88.0289C25.4089 86.2289 25.08 85.8467 23.3156 85.64L16.2711 84.7911L31.4822 69.9844C34.7333 73.4667 39.06 75.96 43.9733 77.2067C38.1067 83.0956 32.26 88.9467 26.3956 94.8H26.3933ZM83.7356 84.8089C81.9356 85.0333 80.0844 85.2756 78.2156 85.4667C74.7911 85.8289 74.7911 85.8133 74.4267 89.1889C74.3222 90.1244 74.22 91.06 74.0978 91.9956C73.9933 92.9289 73.8733 93.8644 73.7867 94.5733C68.0244 88.8089 62.16 82.9378 56.5 77.2578C58.44 76.3756 60.8444 75.5267 62.9889 74.2622C65.1178 72.9978 67.0044 71.3178 68.8556 69.9333C73.7511 74.8156 78.7178 79.8044 83.7356 84.8089V84.8089ZM49.84 74.7644C37.7444 74.7467 27.5356 64.6533 27.5356 52.3044C27.5356 39.9244 37.6422 29.7933 49.9956 29.7755C62.2622 29.7755 72.4711 39.8711 72.4889 52.0644C72.5067 64.6867 62.4533 74.7822 49.84 74.7644ZM85.8444 50.5578C82.8333 52.1 79.6667 52.9311 76.2756 52.8778C76.1556 52.8778 76.0156 52.8778 75.8956 52.8622C75.8422 52.8622 75.7733 52.8089 75.6711 52.7578C75.6178 44.3755 72.4356 37.4156 65.8422 32.1511C60.6689 28.0111 54.6822 26.2111 48.0733 26.7133C34.3689 27.7511 24.0044 39.4067 24.3844 53C19.5933 53.1733 14.92 53.2778 10.6644 50.5756C5.24889 47.1467 2.27333 40.5667 3.43111 34.16C4.60889 27.5955 9.55777 22.4533 15.9422 21.2244C17.12 20.9978 18.3289 20.8778 19.5222 20.8422C21.5311 20.7755 22.0156 20.1844 21.4444 18.2289C19.92 12.8778 21.9978 7.62888 26.7556 4.77333C30.8889 2.31333 36.1156 2.74666 39.8711 5.89777C41.0489 6.88666 41.3422 6.91999 42.7422 6.19333C53.0378 0.806659 64.4933 2.65999 72.5733 11.0422C73.3178 11.82 74.0956 12.1155 75.1689 12.0467C87.1933 11.18 95.0489 19.8222 96.6578 29.1711C98.0778 37.5889 93.5444 46.6267 85.8444 50.5578V50.5578Z" fill="#505772"/>
<path d="M56.1645 47.8178C55.3734 47.8356 55.0022 47.6245 54.7734 46.84C53.8245 43.7733 52.8022 40.7422 51.8178 37.6911C51.5356 36.8022 51.1489 36.0178 50.04 36.0022C48.9311 35.9822 48.5445 36.7133 48.2445 37.64C47.2778 40.6889 46.2222 43.7222 45.2889 46.7889C45.0422 47.6089 44.6378 47.8178 43.8267 47.8178C40.5889 47.7645 37.3511 47.8 34.0934 47.8C33.2334 47.8 32.4045 47.8689 32.0889 48.8622C31.7711 49.84 32.3534 50.38 33.0556 50.9022C35.7311 52.8356 38.3711 54.8067 41.0467 56.7067C41.6089 57.1067 41.6978 57.4556 41.4689 58.0845C40.4133 61.2178 39.4111 64.3578 38.3711 67.4933C38.0911 68.3489 38.1267 69.0978 38.9178 69.6911C39.7089 70.2645 40.3778 69.9511 41.0822 69.4645C43.8267 67.4778 46.6089 65.5245 49.3356 63.52C49.8289 63.1711 50.1467 63.1533 50.62 63.52C51.9933 64.5489 53.4022 65.5245 54.7911 66.52C56.2356 67.5467 57.66 68.6267 59.1378 69.62C60.1778 70.3178 61.4089 69.8645 61.5845 68.7133C61.6556 68.2956 61.5156 67.8089 61.3734 67.3889C60.3 64.0267 59.1911 60.6778 58.0845 57.2645C61.18 55.0511 64.1734 52.8889 67.1822 50.7622C67.8156 50.3089 68.1667 49.7511 67.92 49.02C67.6045 48.1311 66.8822 47.8356 65.9667 47.8356C62.7111 47.8 59.4378 47.7645 56.1645 47.8178V47.8178ZM55.7245 55.1022C54.6689 55.8511 54.5111 56.2867 54.9333 57.5245C55.5667 59.3911 56.2356 61.2356 56.8867 63.0845C56.9911 63.38 57.0622 63.6956 57.2378 64.2356C55.3378 62.8756 53.6311 61.6733 51.9222 60.4711C50.18 59.2333 50.1445 59.2333 48.3867 60.4889C46.66 61.7089 44.9534 62.9289 43.0178 64.3045C43.7934 61.9511 44.4956 59.8422 45.1822 57.7511C45.6578 56.3067 45.5356 55.9222 44.2845 55.0156C42.5422 53.76 40.8 52.5222 39.0578 51.2689C39.0222 51.2333 39.0045 51.1645 38.9356 50.9711H45.78C46.8022 50.9711 47.4356 50.5533 47.7511 49.5422C48.42 47.3467 49.1778 45.1867 49.9689 42.78C50.1622 43.2156 50.2867 43.4422 50.3733 43.7045C51.0089 45.6045 51.6067 47.5045 52.24 49.4022C52.6267 50.5533 53.1911 50.9711 54.44 50.9889C56.6933 51.0067 58.9289 50.9889 61.18 50.9889C61.2156 51.06 61.2333 51.1445 61.2689 51.2156C59.42 52.4889 57.5734 53.7933 55.7245 55.1045V55.1022Z" fill="#505772"/>
</g>
<defs>
<clipPath id="clip0_10_194">
<rect width="100" height="100" fill="white"/>
</clipPath>
</defs>
</svg>
