<svg width="98" height="75" viewBox="0 0 98 75" fill="none" xmlns="http://www.w3.org/2000/svg">
<g clip-path="url(#clip0_3_1395)">
<path d="M81.7142 25.3995C81.3153 13.4711 75.9085 4.61089 63.7364 1.22908C50.8636 -2.35729 40.7284 1.99612 33.8216 13.1558C33.7295 13.1115 33.6119 13.0654 33.5182 12.999C24.7176 8.44271 15.2386 12.9751 13.7165 22.466C13.5989 23.2552 13.2477 23.5944 12.4994 23.8637C6.43636 26.1427 2.3642 30.2012 0.702273 36.312C0.397159 37.4166 0.233523 38.5671 0 39.6939V43.6177C0.0698864 43.8206 0.139773 44.0234 0.1875 44.2484C0.5625 46.9757 1.52216 49.5257 3.13636 51.7791C7.5375 57.912 13.7165 60.3257 21.3 59.8518V56.1529C20.3625 56.1529 19.4761 56.245 18.6324 56.1308C16.9705 55.9058 15.2608 55.7711 13.7165 55.2529C5.78182 52.5018 1.52216 44.0456 5.21932 35.2075C7.11648 30.6512 10.9773 28.149 15.7057 26.7512C17.5091 26.2331 17.5091 26.2331 17.5091 24.4501C17.5091 21.4518 18.5148 18.8592 20.9489 16.9433C24.5062 14.124 29.9369 14.4171 33.4023 17.5518C34.1045 18.2046 34.8068 18.8592 35.5551 19.5802C39.2301 6.23362 51.9409 2.33021 60.9051 4.24783C65.7034 5.26203 69.7517 7.51715 72.8881 11.1921C77.3369 16.4012 78.4364 22.4217 77.3369 29.141C78.6477 29.141 79.817 29.0046 80.942 29.1632C87.6358 30.0887 93.0903 36.1313 93.2761 42.7382C93.4875 50.2245 87.542 56.1308 79.7472 56.1768H75.8608V59.8518C89.0165 61.1592 95.5705 53.47 96.9051 46.1421C98.567 36.9887 91.9193 27.0444 81.7142 25.3978V25.3995Z" fill="#505772"/>
<path d="M40.9091 33.6051L38.3216 31.667L28.9773 45.4687V63.3323C28.9994 63.3323 29.0437 63.3102 29.0642 63.3102C29.5483 63.1721 30.0528 63.0801 30.5557 63.0801C31.0841 63.0801 31.5648 63.1721 32.0472 63.3102C32.0693 63.3102 32.1153 63.334 32.1358 63.334V46.5306L40.9091 33.6051ZM31.5119 63.334C30.9852 63.334 30.5028 63.4193 30.0204 63.5471C29.9983 63.5471 29.9557 63.5693 29.9335 63.5693C27.4108 64.2562 25.5682 66.4857 25.5682 69.167C25.5682 72.3835 28.2443 74.9999 31.5341 74.9999C34.8239 74.9999 37.5 72.3835 37.5 69.167C37.5 66.4857 35.6352 64.2562 33.1364 63.5693C33.1125 63.5693 33.0682 63.5471 33.0477 63.5471C32.521 63.4193 32.0386 63.334 31.5136 63.334H31.5119ZM34.4949 69.167C34.4949 70.7744 33.1568 72.0818 31.5119 72.0818C29.867 72.0818 28.529 70.7744 28.529 69.167C28.529 67.5579 29.867 66.2505 31.5119 66.2505C33.1568 66.2505 34.4949 67.5579 34.4949 69.1653V69.167ZM66.6034 63.0801C67.1284 63.0801 67.6108 63.1721 68.0949 63.3102C68.1153 63.3102 68.1597 63.334 68.1818 63.334V45.4704L58.8375 31.667L56.25 33.6051L65.0011 46.5306V63.334C65.0233 63.334 65.0676 63.3102 65.0898 63.3102C65.5943 63.1721 66.0989 63.0801 66.6034 63.0801V63.0801Z" fill="#505772"/>
<path d="M68.8875 63.5692C68.8654 63.5692 68.821 63.5471 68.7989 63.5471C68.3165 63.4192 67.8119 63.334 67.3074 63.334C66.8029 63.334 66.2983 63.4192 65.8159 63.5471C65.7938 63.5471 65.7511 63.5692 65.729 63.5692C63.2063 64.2561 61.3636 66.4857 61.3636 69.1669C61.3636 72.3834 64.0398 74.9999 67.3296 74.9999C70.6193 74.9999 73.2955 72.3834 73.2955 69.1669C73.2511 66.4857 71.4085 64.2561 68.8875 63.5692V63.5692ZM67.2852 72.0834C65.6404 72.0834 64.3023 70.7743 64.3023 69.1669C64.3023 67.5578 65.6404 66.2505 67.2852 66.2505C68.9301 66.2505 70.2682 67.5579 70.2682 69.1652C70.2903 70.7743 68.9523 72.0834 67.2852 72.0834V72.0834Z" fill="#505772"/>
</g>
<defs>
<clipPath id="clip0_3_1395">
<rect width="97.1591" height="75" fill="white"/>
</clipPath>
</defs>
</svg>
