<svg width="100" height="100" viewBox="0 0 100 100" fill="none" xmlns="http://www.w3.org/2000/svg">
<g clip-path="url(#clip0_3_1345)">
<path d="M99.5156 27.6313C97.0422 16.1158 87.5244 8.61802 75.7244 8.92913C75.0489 8.9469 74.5822 8.75579 74.1156 8.27135C73.2156 7.38913 72.2978 6.4869 71.26 5.76024C62.0733 -0.750874 52.3311 -1.7731 42.0378 2.84913C41.7267 2.98913 41.1889 2.97135 40.9267 2.80024C38.0733 0.791348 34.9267 -0.0575405 31.4467 0.0980151C24.3 0.409126 18.0911 6.55579 17.76 13.6913C17.7089 15.0069 17.7422 16.3225 17.7422 17.6736C16.7578 17.8291 15.6489 17.9513 14.5778 18.2113C0.49333 21.6558 -4.78445 39.0958 5.02666 49.778C8.91778 54.0202 13.7978 56.1669 19.5778 56.2002C21.2556 56.218 22.9333 56.2002 24.4733 56.2002C25.1133 58.2447 25.5822 60.1669 26.3244 62.0025C27.0689 63.8202 28.0911 65.518 29.0756 67.4402C28.8867 67.5958 28.5911 67.7869 28.3489 68.0469C22.9689 73.4314 17.5867 78.818 12.1889 84.2025C11.9978 84.3936 11.7222 84.5491 11.6533 84.758C11.4978 85.3447 11.22 86.0202 11.3933 86.558C11.5133 86.9736 12.2067 87.3891 12.6911 87.458C15.58 87.9091 18.4867 88.2714 21.3933 88.6002C22.1556 88.6891 22.4156 88.9291 22.5022 89.7091C22.8133 92.5847 23.1933 95.458 23.6089 98.3158C23.6778 98.7825 23.9556 99.3202 24.32 99.6136C25.0622 100.256 25.6844 100.08 26.5867 99.1825C33.5067 92.3069 40.4267 85.4136 47.3644 78.538C47.6244 78.2802 47.9711 77.9514 48.2978 77.9158C49.46 77.8491 50.6356 77.8491 51.8111 77.9002C52.1067 77.9158 52.4333 78.1936 52.6778 78.418C54.1667 79.8736 55.6356 81.3625 57.1067 82.8336L73.32 99.0602C73.8378 99.5802 74.3222 100.169 75.24 99.8558C76.1911 99.5447 76.3822 98.8336 76.4844 97.9869C76.8133 95.1802 77.1956 92.3758 77.5244 89.5536C77.5911 88.9469 77.7467 88.6536 78.44 88.5825C81.3133 88.2536 84.1844 87.838 87.0578 87.5091C87.8711 87.4225 88.4756 87.198 88.7689 86.3669C89.1 85.4669 88.5978 84.9647 88.0622 84.4114C84.5822 80.9291 81.1222 77.4491 77.6444 73.9847C75.3956 71.7336 73.1289 69.5002 70.8267 67.2158C73.2489 63.8025 74.72 60.0825 75.3956 56.0114H76.4333C87.3356 55.958 96.6422 48.6869 99.3089 38.1047C99.5844 36.9802 99.7756 35.8202 100 34.6936V30.1914C99.8444 29.3247 99.7067 28.478 99.5156 27.6291V27.6313ZM26.3933 94.8002C26.1356 92.6002 25.84 90.3158 25.5978 88.0291C25.4089 86.2291 25.08 85.8469 23.3156 85.6402L16.2711 84.7914L31.4822 69.9847C34.7333 73.4669 39.06 75.9602 43.9733 77.2069C38.1067 83.0958 32.26 88.9469 26.3956 94.8002H26.3933ZM83.7356 84.8091C81.9356 85.0336 80.0844 85.2758 78.2156 85.4669C74.7911 85.8291 74.7911 85.8136 74.4267 89.1891C74.3222 90.1247 74.22 91.0602 74.0978 91.9958C73.9933 92.9291 73.8733 93.8647 73.7867 94.5736C68.0244 88.8091 62.16 82.938 56.5 77.258C58.44 76.3758 60.8444 75.5269 62.9889 74.2625C65.1178 72.998 67.0044 71.318 68.8556 69.9336C73.7511 74.8158 78.7178 79.8047 83.7356 84.8091V84.8091ZM49.84 74.7647C37.7444 74.7469 27.5356 64.6536 27.5356 52.3047C27.5356 39.9247 37.6422 29.7936 49.9956 29.7758C62.2622 29.7758 72.4711 39.8714 72.4889 52.0647C72.5067 64.6869 62.4533 74.7825 49.84 74.7647ZM85.8444 50.558C82.8333 52.1002 79.6667 52.9314 76.2756 52.878C76.1556 52.878 76.0156 52.878 75.8956 52.8625C75.8422 52.8625 75.7733 52.8091 75.6711 52.758C75.6178 44.3758 72.4356 37.4158 65.8422 32.1514C60.6689 28.0113 54.6822 26.2113 48.0733 26.7136C34.3689 27.7513 24.0044 39.4069 24.3844 53.0002C19.5933 53.1736 14.92 53.278 10.6644 50.5758C5.24889 47.1469 2.27333 40.5669 3.43111 34.1602C4.60889 27.5958 9.55777 22.4536 15.9422 21.2247C17.12 20.998 18.3289 20.878 19.5222 20.8425C21.5311 20.7758 22.0156 20.1847 21.4444 18.2291C19.92 12.878 21.9978 7.62913 26.7556 4.77357C30.8889 2.31357 36.1156 2.7469 39.8711 5.89802C41.0489 6.8869 41.3422 6.92024 42.7422 6.19357C53.0378 0.806904 64.4933 2.66024 72.5733 11.0425C73.3178 11.8202 74.0956 12.1158 75.1689 12.0469C87.1933 11.1802 95.0489 19.8225 96.6578 29.1713C98.0778 37.5891 93.5444 46.6269 85.8444 50.558V50.558Z" fill="#505772"/>
<path d="M56.1645 47.8179C55.3734 47.8357 55.0022 47.6246 54.7734 46.8401C53.8245 43.7735 52.8022 40.7424 51.8178 37.6912C51.5356 36.8024 51.1489 36.0179 50.04 36.0024C48.9311 35.9824 48.5445 36.7135 48.2445 37.6401C47.2778 40.689 46.2222 43.7224 45.2889 46.789C45.0422 47.609 44.6378 47.8179 43.8267 47.8179C40.5889 47.7646 37.3511 47.8001 34.0934 47.8001C33.2334 47.8001 32.4045 47.869 32.0889 48.8624C31.7711 49.8401 32.3534 50.3801 33.0556 50.9024C35.7311 52.8357 38.3711 54.8068 41.0467 56.7068C41.6089 57.1068 41.6978 57.4557 41.4689 58.0846C40.4133 61.2179 39.4111 64.3579 38.3711 67.4935C38.0911 68.349 38.1267 69.0979 38.9178 69.6912C39.7089 70.2646 40.3778 69.9512 41.0822 69.4646C43.8267 67.4779 46.6089 65.5246 49.3356 63.5201C49.8289 63.1712 50.1467 63.1535 50.62 63.5201C51.9933 64.549 53.4022 65.5246 54.7911 66.5201C56.2356 67.5468 57.66 68.6268 59.1378 69.6201C60.1778 70.3179 61.4089 69.8646 61.5845 68.7135C61.6556 68.2957 61.5156 67.809 61.3734 67.389C60.3 64.0268 59.1911 60.6779 58.0845 57.2646C61.18 55.0512 64.1734 52.889 67.1822 50.7624C67.8156 50.309 68.1667 49.7512 67.92 49.0201C67.6045 48.1312 66.8822 47.8357 65.9667 47.8357C62.7111 47.8001 59.4378 47.7646 56.1645 47.8179V47.8179ZM55.7245 55.1024C54.6689 55.8512 54.5111 56.2868 54.9333 57.5246C55.5667 59.3912 56.2356 61.2357 56.8867 63.0846C56.9911 63.3801 57.0622 63.6957 57.2378 64.2357C55.3378 62.8757 53.6311 61.6735 51.9222 60.4712C50.18 59.2335 50.1445 59.2335 48.3867 60.489C46.66 61.709 44.9534 62.929 43.0178 64.3046C43.7934 61.9512 44.4956 59.8424 45.1822 57.7512C45.6578 56.3068 45.5356 55.9224 44.2845 55.0157C42.5422 53.7601 40.8 52.5224 39.0578 51.269C39.0222 51.2335 39.0045 51.1646 38.9356 50.9712H45.78C46.8022 50.9712 47.4356 50.5535 47.7511 49.5424C48.42 47.3468 49.1778 45.1868 49.9689 42.7801C50.1622 43.2157 50.2867 43.4424 50.3733 43.7046C51.0089 45.6046 51.6067 47.5046 52.24 49.4024C52.6267 50.5535 53.1911 50.9712 54.44 50.989C56.6933 51.0068 58.9289 50.989 61.18 50.989C61.2156 51.0601 61.2333 51.1446 61.2689 51.2157C59.42 52.489 57.5734 53.7935 55.7245 55.1046V55.1024Z" fill="#505772"/>
</g>
<defs>
<clipPath id="clip0_3_1345">
<rect width="100" height="100" fill="white"/>
</clipPath>
</defs>
</svg>
