<svg width="201" height="127" viewBox="0 0 201 127" fill="none" xmlns="http://www.w3.org/2000/svg">
<path d="M127.15 100.325L157.872 84.7214C159.051 84.0835 160.378 83.7642 161.72 83.795C163.062 83.8258 164.372 84.2058 165.521 84.8971C166.67 85.5885 167.618 86.5672 168.27 87.7362C168.923 88.9052 169.257 90.2239 169.24 91.5614V93.9364L115.424 121.296C113.855 122.105 112.115 122.529 110.348 122.531L83.8214 119.681C77.2088 118.989 70.5452 118.926 63.9205 119.491L55.7695 120.18V99.4701C64.2304 88.3076 78.8402 89.9701 92.02 94.7201L92.4014 94.8389H121.287C122.781 94.8451 124.212 95.4409 125.266 96.4959C126.32 97.5508 126.912 98.9789 126.912 100.468V100.586C126.912 102.075 126.32 103.503 125.266 104.558C124.212 105.613 122.781 106.209 121.287 106.215H92.6874" stroke="white" stroke-width="2" stroke-miterlimit="10"/>
<path d="M55.7698 88.3076H48.167V125.856H55.7698V88.3076Z" stroke="white" stroke-width="2" stroke-miterlimit="10"/>
<path d="M12.0597 88.3076H0" stroke="white" stroke-width="2" stroke-miterlimit="10"/>
<path d="M11.869 107.83H0" stroke="white" stroke-width="2" stroke-miterlimit="10"/>
<path d="M41.2316 107.83H14.5859" stroke="white" stroke-width="2" stroke-miterlimit="10"/>
<path d="M173.099 26.2487V10.0987L159.062 2L145 10.0987V26.2487L159.062 34.3475L173.099 26.2487Z" stroke="white" stroke-width="2" stroke-miterlimit="10"/>
<path d="M199.56 78.0949C198.461 75.976 196.936 74.1052 195.08 72.599C193.224 71.0927 191.076 69.9831 188.772 69.3393C186.467 68.6955 184.054 68.5312 181.682 68.8567C179.311 69.1821 177.032 69.9904 174.988 71.2311C174.602 69.7351 173.727 68.4097 172.502 67.4637C171.276 66.5176 169.77 66.0049 168.219 66.0061C167.854 65.9818 167.488 65.9818 167.123 66.0061C167.436 64.9815 167.605 63.9184 167.624 62.8474C167.613 60.8985 167.121 58.9821 166.192 57.2673C165.263 55.5524 163.924 54.092 162.294 53.0147C160.664 51.9374 158.793 51.2764 156.846 51.0901C154.9 50.9037 152.937 51.1977 151.131 51.9461" stroke="white" stroke-width="2" stroke-miterlimit="10"/>
<path d="M76.8612 38.4459L75.8112 37.9059C76.3696 36.8407 76.8186 35.7216 77.1512 34.5659L78.2812 34.8959C77.9298 36.1244 77.454 37.3139 76.8612 38.4459ZM77.9512 27.6459C77.7481 24.3392 76.6752 21.1448 74.8412 18.3859L75.8412 17.7459C77.7846 20.6726 78.9227 24.0595 79.1412 27.5659L77.9512 27.6459ZM70.1712 13.3959C69.3142 12.7736 68.404 12.2281 67.4512 11.7659L67.9812 10.7659C69.0027 11.2667 69.9766 11.8592 70.8912 12.5359L70.1712 13.3959Z" fill="white"/>
<path d="M74.9914 29.136C73.1285 27.2873 70.8773 25.8765 68.4014 25.006L68.8114 23.886C71.4457 24.8226 73.8373 26.3362 75.8114 28.316L74.9914 29.136Z" fill="white"/>
<path d="M79.8709 36.1858C79.6527 35.6137 79.4057 35.053 79.1309 34.5058L80.1909 33.9758C80.4775 34.5558 80.7375 35.1458 80.9709 35.7458L79.8709 36.1858Z" fill="white"/>
<path d="M76.5214 38.7659L76.1514 37.6559C77.5634 37.1759 78.885 36.4627 80.0614 35.5459L80.7814 36.4759C79.5032 37.4779 78.0622 38.2525 76.5214 38.7659Z" fill="white"/>
<path d="M57.7612 24.5059L57.4912 23.3559C58.8009 23.0333 60.1426 22.8589 61.4912 22.8359V24.0159C60.2334 24.0385 58.9822 24.2029 57.7612 24.5059Z" fill="white"/>
<path d="M67.4414 20.7659L66.4414 20.1259C67.3075 18.7177 68.3755 17.4441 69.6114 16.3459L70.3914 17.2359C69.2372 18.2586 68.2428 19.4485 67.4414 20.7659Z" fill="white"/>
<path d="M76.2215 13.766L75.8115 12.656C76.7104 12.3263 77.6331 12.0655 78.5715 11.876L78.7615 13.016C77.8944 13.1906 77.0444 13.4416 76.2215 13.766Z" fill="white"/>
<path d="M64.5317 37.4858C63.5705 35.2468 63.0543 32.8421 63.0117 30.4058C63.0345 29.4652 63.1586 28.5298 63.3817 27.6158C63.3817 27.4058 63.4717 27.1958 63.5117 26.9758L64.6917 27.2058C64.6917 27.4358 64.6017 27.6458 64.5617 27.8558C64.3541 28.6906 64.2401 29.5458 64.2217 30.4058C64.254 32.6857 64.7295 34.9375 65.6217 37.0358L64.5317 37.4858Z" fill="white"/>
<path d="M71.7612 39.5259C69.8234 39.5259 67.9045 39.1441 66.1143 38.4022C64.3241 37.6603 62.6977 36.5729 61.3279 35.2022C59.9581 33.8315 58.8718 32.2043 58.1311 30.4136C57.3905 28.6228 57.0099 26.7037 57.0112 24.7659C56.9963 24.4694 56.9963 24.1724 57.0112 23.8759C57.1592 21.4104 57.9235 19.0214 59.2341 16.9279C60.5448 14.8343 62.3598 13.1032 64.513 11.893C66.6662 10.6828 69.0886 10.0324 71.5583 10.0012C74.0281 9.96999 76.4662 10.5591 78.6492 11.7145C80.8323 12.8699 82.6905 14.5547 84.0536 16.6144C85.4167 18.6742 86.241 21.0431 86.4512 23.5041C86.6614 25.9651 86.2506 28.4395 85.2565 30.7006C84.2624 32.9616 82.7168 34.9371 80.7612 36.4459C79.4891 37.4532 78.0555 38.2377 76.5212 38.7659C74.9904 39.2925 73.3799 39.5497 71.7612 39.5259ZM71.7612 11.1959C70.4474 11.2005 69.1409 11.3924 67.8812 11.7659C65.2149 12.5644 62.8583 14.1629 61.1305 16.345C59.4027 18.5272 58.3871 21.1875 58.2212 23.9659V24.7659C58.2212 28.3606 59.6465 31.8087 62.1846 34.3543C64.7227 36.8999 68.1665 38.3353 71.7612 38.3459C74.7658 38.3428 77.6846 37.344 80.0612 35.5059C82.3028 33.7748 83.9465 31.3856 84.7621 28.6734C85.5776 25.9611 85.5241 23.0616 84.6089 20.3813C83.6938 17.701 81.963 15.3742 79.659 13.727C77.3551 12.0798 74.5935 11.1947 71.7612 11.1959Z" fill="white"/>
<path d="M73.1913 17.9458C72.6731 17.9458 72.1666 17.7922 71.7357 17.5043C71.3048 17.2164 70.969 16.8072 70.7707 16.3284C70.5724 15.8497 70.5205 15.3229 70.6216 14.8147C70.7227 14.3064 70.9723 13.8396 71.3387 13.4732C71.7051 13.1068 72.1719 12.8572 72.6802 12.7562C73.1884 12.6551 73.7152 12.7069 74.1939 12.9052C74.6727 13.1035 75.0819 13.4394 75.3697 13.8702C75.6576 14.3011 75.8113 14.8076 75.8113 15.3258C75.8126 15.6702 75.7457 16.0115 75.6145 16.33C75.4833 16.6485 75.2904 16.9378 75.0469 17.1814C74.8033 17.4249 74.514 17.6179 74.1955 17.7491C73.877 17.8803 73.5357 17.9471 73.1913 17.9458ZM73.1913 13.9458C72.9089 13.9478 72.6334 14.0333 72.3996 14.1917C72.1657 14.35 71.984 14.574 71.8773 14.8355C71.7706 15.0969 71.7437 15.3841 71.8 15.6609C71.8563 15.9376 71.9933 16.1915 72.1937 16.3905C72.394 16.5894 72.6489 16.7247 72.926 16.779C73.2031 16.8334 73.4901 16.8045 73.7508 16.696C74.0115 16.5875 74.2343 16.4042 74.391 16.1692C74.5477 15.9343 74.6313 15.6582 74.6313 15.3758C74.6367 15.1838 74.6033 14.9927 74.5332 14.8139C74.4632 14.6351 74.3578 14.4723 74.2234 14.3351C74.089 14.1979 73.9283 14.0892 73.751 14.0154C73.5737 13.9417 73.3833 13.9044 73.1913 13.9058V13.9458Z" fill="white"/>
<path d="M65.1515 26.176C64.6324 26.178 64.1245 26.0258 63.6921 25.7386C63.2597 25.4515 62.9224 25.0424 62.7228 24.5633C62.5233 24.0841 62.4706 23.5565 62.5713 23.0473C62.6721 22.5382 62.9219 22.0704 63.2889 21.7034C63.6559 21.3364 64.1236 21.0867 64.6328 20.9859C65.142 20.8851 65.6696 20.9378 66.1487 21.1374C66.6279 21.3369 67.037 21.6743 67.3241 22.1067C67.6112 22.5391 67.7634 23.047 67.7615 23.566C67.7615 24.2582 67.4865 24.9221 66.997 25.4116C66.5075 25.901 65.8437 26.176 65.1515 26.176ZM65.1515 22.126C64.8675 22.1241 64.5894 22.2062 64.352 22.3619C64.1145 22.5177 63.9285 22.7401 63.8171 23.0013C63.7058 23.2625 63.6741 23.5508 63.7262 23.8299C63.7782 24.109 63.9116 24.3666 64.1096 24.5701C64.3076 24.7736 64.5613 24.9141 64.8389 24.9738C65.1165 25.0335 65.4055 25.0098 65.6697 24.9057C65.9339 24.8016 66.1614 24.6217 66.3236 24.3887C66.4858 24.1557 66.5755 23.8799 66.5815 23.596C66.5854 23.4052 66.5515 23.2156 66.4815 23.0381C66.4116 22.8605 66.307 22.6987 66.174 22.5619C66.0409 22.4251 65.882 22.3161 65.7065 22.2413C65.5309 22.1665 65.3423 22.1273 65.1515 22.126Z" fill="white"/>
<path d="M78.1214 33.7658C77.6049 33.7618 77.1012 33.6053 76.6734 33.3159C76.2456 33.0265 75.9129 32.6171 75.7171 32.1392C75.5213 31.6613 75.4711 31.1362 75.5728 30.6298C75.6745 30.1235 75.9237 29.6585 76.2889 29.2933C76.6541 28.9281 77.1191 28.6789 77.6254 28.5772C78.1318 28.4755 78.6569 28.5257 79.1348 28.7215C79.6128 28.9173 80.0221 29.25 80.3115 29.6778C80.6009 30.1056 80.7575 30.6093 80.7614 31.1258C80.7654 31.4728 80.7002 31.817 80.5696 32.1385C80.4389 32.4599 80.2455 32.7521 80.0006 32.9979C79.7557 33.2437 79.4643 33.4383 79.1433 33.5701C78.8224 33.702 78.4784 33.7685 78.1314 33.7658H78.1214ZM78.1214 29.7158C77.8366 29.7158 77.5582 29.8003 77.3214 29.9585C77.0846 30.1167 76.9 30.3416 76.791 30.6047C76.682 30.8679 76.6535 31.1574 76.7091 31.4367C76.7646 31.7161 76.9018 31.9726 77.1032 32.174C77.3046 32.3754 77.5611 32.5126 77.8405 32.5681C78.1198 32.6237 78.4093 32.5952 78.6725 32.4862C78.9356 32.3772 79.1605 32.1926 79.3187 31.9558C79.477 31.719 79.5614 31.4406 79.5614 31.1558C79.5614 30.9667 79.5242 30.7794 79.4518 30.6047C79.3794 30.43 79.2734 30.2713 79.1396 30.1376C79.0059 30.0039 78.8472 29.8978 78.6725 29.8254C78.4978 29.7531 78.3105 29.7158 78.1214 29.7158Z" fill="white"/>
<path d="M0 125.856H48.1672V88.3076H14.586" stroke="white" stroke-width="2" stroke-miterlimit="10"/>
<path d="M103.198 77.5962V80.6599" stroke="white" stroke-width="2" stroke-miterlimit="10"/>
<path d="M103.198 82.8213V86.3125" stroke="white" stroke-width="2" stroke-miterlimit="10"/>
<path d="M128.176 67.3826V74.4363" stroke="white" stroke-width="2" stroke-miterlimit="10"/>
<path d="M128.176 76.5974V80.0887" stroke="white" stroke-width="2" stroke-miterlimit="10"/>
<path d="M136.112 62.7275V64.9363V67.1688V71.0875" stroke="white" stroke-width="2" stroke-miterlimit="10"/>
<path d="M93.6885 72.7275V74.9363V77.1688V81.0875" stroke="white" stroke-width="2" stroke-miterlimit="10"/>
<path d="M114.948 73.9138V79.3051" stroke="white" stroke-width="2" stroke-miterlimit="10"/>
<path d="M133.283 46.1165H128.989V44.3989H133.283V23.7577H112.641V28.0517H110.924V23.7577C110.924 23.3021 111.105 22.8652 111.427 22.5431C111.749 22.221 112.186 22.04 112.641 22.04H133.283C133.738 22.04 134.175 22.221 134.497 22.5431C134.819 22.8652 135 23.3021 135 23.7577V44.3989C135 44.8544 134.819 45.2913 134.497 45.6134C134.175 45.9355 133.738 46.1165 133.283 46.1165Z" fill="white"/>
<path d="M114.359 65.0401H93.7176C93.2621 65.0401 92.8252 64.8591 92.5031 64.537C92.181 64.2149 92 63.778 92 63.3224V42.6813C92 42.2257 92.181 41.7888 92.5031 41.4667C92.8252 41.1446 93.2621 40.9636 93.7176 40.9636H98.0117V42.6813H93.7176V63.3224H114.359V59.0284H116.076V63.3224C116.076 63.778 115.895 64.2149 115.573 64.537C115.251 64.8591 114.814 65.0401 114.359 65.0401Z" fill="white"/>
<path d="M122.813 54.7195H104.201C103.955 54.7214 103.71 54.6746 103.482 54.5817C103.254 54.4888 103.047 54.3517 102.872 54.1783C102.697 54.0048 102.558 53.7985 102.464 53.5712C102.369 53.3438 102.32 53.1 102.32 52.8538V34.2264C102.32 33.9801 102.369 33.7363 102.464 33.5089C102.558 33.2816 102.697 33.0753 102.872 32.9018C103.047 32.7284 103.254 32.5913 103.482 32.4984C103.71 32.4055 103.955 32.3587 104.201 32.3607H122.813C123.307 32.3645 123.779 32.5623 124.128 32.9114C124.477 33.2604 124.675 33.7327 124.679 34.2264V52.8538C124.675 53.3474 124.477 53.8197 124.128 54.1687C123.779 54.5178 123.307 54.7156 122.813 54.7195ZM104.201 34.0783C104.18 34.0762 104.159 34.0785 104.14 34.085C104.12 34.0915 104.102 34.1021 104.086 34.1161C104.071 34.13 104.059 34.147 104.05 34.1661C104.042 34.1851 104.038 34.2056 104.038 34.2264V52.8538C104.041 52.8919 104.058 52.9277 104.085 52.9548C104.112 52.9818 104.148 52.9985 104.186 53.0018H122.813C122.852 52.9985 122.887 52.9818 122.914 52.9548C122.941 52.9277 122.958 52.8919 122.961 52.8538V34.2264C122.958 34.1882 122.941 34.1525 122.914 34.1254C122.887 34.0983 122.852 34.0816 122.813 34.0783H104.201Z" fill="white"/>
<path d="M105.756 29.7842H104.038V33.2194H105.756V29.7842Z" fill="white"/>
<path d="M110.05 29.7842H108.332V33.2194H110.05V29.7842Z" fill="white"/>
<path d="M114.358 29.7842H112.641V33.2194H114.358V29.7842Z" fill="white"/>
<path d="M118.653 29.7842H116.936V33.2194H118.653V29.7842Z" fill="white"/>
<path d="M122.962 29.7842H121.244V33.2194H122.962V29.7842Z" fill="white"/>
<path d="M105.756 53.8606H104.038V57.2959H105.756V53.8606Z" fill="white"/>
<path d="M110.05 53.8606H108.332V57.2959H110.05V53.8606Z" fill="white"/>
<path d="M114.358 53.8606H112.641V57.2959H114.358V53.8606Z" fill="white"/>
<path d="M118.653 53.8606H116.936V57.2959H118.653V53.8606Z" fill="white"/>
<path d="M122.962 53.8606H121.244V57.2959H122.962V53.8606Z" fill="white"/>
<path d="M103.179 51.2842H99.7441V53.0018H103.179V51.2842Z" fill="white"/>
<path d="M103.179 46.9753H99.7441V48.693H103.179V46.9753Z" fill="white"/>
<path d="M103.179 42.6812H99.7441V44.3988H103.179V42.6812Z" fill="white"/>
<path d="M103.179 38.3723H99.7441V40.0899H103.179V38.3723Z" fill="white"/>
<path d="M103.179 34.0781H99.7441V35.7958H103.179V34.0781Z" fill="white"/>
<path d="M127.256 51.2842H123.82V53.0018H127.256V51.2842Z" fill="white"/>
<path d="M127.256 46.9753H123.82V48.693H127.256V46.9753Z" fill="white"/>
<path d="M127.256 42.6812H123.82V44.3988H127.256V42.6812Z" fill="white"/>
<path d="M127.256 38.3723H123.82V40.0899H127.256V38.3723Z" fill="white"/>
<path d="M127.256 34.0781H123.82V35.7958H127.256V34.0781Z" fill="white"/>
<path d="M12.2264 61.7312C9.87463 61.7338 7.596 62.5461 5.77622 64.0306C3.95643 65.5151 2.70729 67.5806 2.24023 69.8775" stroke="white" stroke-width="2" stroke-miterlimit="10"/>
<path d="M56.8426 51.1387C54.9537 49.8653 52.7012 49.237 50.4234 49.3484C48.1456 49.4597 45.9656 50.3047 44.2109 51.7562C42.7341 48.8178 40.3046 46.4626 37.3163 45.0725C34.328 43.6824 30.9561 43.3389 27.7474 44.0977C24.5387 44.8565 21.6812 46.6732 19.6384 49.2531C17.5955 51.833 16.4871 55.0249 16.4927 58.3112C16.4908 59.9269 16.7565 61.5318 17.2792 63.0612C15.746 62.1723 14.0003 61.7128 12.2266 61.7312" stroke="white" stroke-width="2" stroke-miterlimit="10"/>
</svg>
