<svg width="130" height="100" viewBox="0 0 130 100" fill="none" xmlns="http://www.w3.org/2000/svg">
<path d="M109.335 33.8659C108.801 17.9614 101.566 6.14774 85.28 1.63865C68.0561 -3.14317 54.4951 2.66137 45.2537 17.5409C45.1305 17.4818 44.9732 17.4205 44.8477 17.3318C33.0725 11.2568 20.3895 17.3 18.3528 29.9546C18.1954 31.0068 17.7256 31.4591 16.7244 31.8182C8.61193 34.8568 3.16333 40.2682 0.939649 48.4159C0.531403 49.8886 0.312456 51.4227 0 52.925V58.1568C0.0935088 58.4273 0.187018 58.6977 0.250877 58.9977C0.752632 62.6341 2.03667 66.0341 4.19649 69.0386C10.0853 77.2159 18.3528 80.4341 28.4996 79.8023V74.8705C27.2453 74.8705 26.0593 74.9932 24.9303 74.8409C22.7067 74.5409 20.4191 74.3614 18.3528 73.6705C7.73614 70.0023 2.03667 58.7273 6.98351 46.9432C9.52193 40.8682 14.6877 37.5318 21.0144 35.6682C23.4274 34.9773 23.4274 34.9773 23.4274 32.6C23.4274 28.6023 24.773 25.1455 28.0298 22.5909C32.7896 18.8318 40.056 19.2227 44.6926 23.4023C45.6323 24.2727 46.5719 25.1455 47.5732 26.1068C52.4903 8.31137 69.4975 3.10683 81.4917 5.66365C87.9119 7.01592 93.3286 10.0227 97.5251 14.9227C103.478 21.8682 104.949 29.8955 103.478 38.8546C105.232 38.8546 106.796 38.6727 108.301 38.8841C117.258 40.1182 124.556 48.175 124.805 56.9841C125.087 66.9659 117.132 74.8409 106.703 74.9023H101.503V79.8023C119.105 81.5455 127.874 71.2932 129.66 61.5227C131.884 49.3182 122.989 36.0591 109.335 33.8636V33.8659Z" fill="#505772"/>
<path d="M54.7368 44.8068L51.2747 42.2227L38.7719 60.625V84.4432C38.8016 84.4432 38.8609 84.4136 38.8882 84.4136C39.536 84.2295 40.211 84.1068 40.8838 84.1068C41.5909 84.1068 42.234 84.2295 42.8795 84.4136C42.9091 84.4136 42.9707 84.4454 42.9981 84.4454V62.0409L54.7368 44.8068ZM42.1633 84.4454C41.4586 84.4454 40.8131 84.5591 40.1677 84.7295C40.1381 84.7295 40.081 84.7591 40.0514 84.7591C36.676 85.675 34.2105 88.6477 34.2105 92.2227C34.2105 96.5114 37.7912 100 42.193 100C46.5947 100 50.1754 96.5114 50.1754 92.2227C50.1754 88.6477 47.6803 85.675 44.3368 84.7591C44.3049 84.7591 44.2456 84.7295 44.2182 84.7295C43.5135 84.5591 42.8681 84.4454 42.1656 84.4454H42.1633ZM46.1545 92.2227C46.1545 94.3659 44.3642 96.1091 42.1633 96.1091C39.9624 96.1091 38.1721 94.3659 38.1721 92.2227C38.1721 90.0773 39.9624 88.3341 42.1633 88.3341C44.3642 88.3341 46.1545 90.0773 46.1545 92.2204V92.2227ZM89.1161 84.1068C89.8186 84.1068 90.464 84.2295 91.1117 84.4136C91.1391 84.4136 91.1984 84.4454 91.2281 84.4454V60.6273L78.7253 42.2227L75.2631 44.8068L86.9723 62.0409V84.4454C87.0019 84.4454 87.0612 84.4136 87.0909 84.4136C87.766 84.2295 88.441 84.1068 89.1161 84.1068V84.1068Z" fill="#505772"/>
<path d="M92.1723 84.7591C92.1427 84.7591 92.0834 84.7296 92.0537 84.7296C91.4083 84.5591 90.7332 84.4455 90.0581 84.4455C89.383 84.4455 88.7079 84.5591 88.0625 84.7296C88.0328 84.7296 87.9758 84.7591 87.9462 84.7591C84.5707 85.675 82.1053 88.6478 82.1053 92.2228C82.1053 96.5114 85.686 100 90.0877 100C94.4895 100 98.0702 96.5114 98.0702 92.2228C98.0109 88.6478 95.5455 85.675 92.1723 84.7591V84.7591ZM90.0284 96.1114C87.8276 96.1114 86.0372 94.366 86.0372 92.2228C86.0372 90.0773 87.8276 88.3341 90.0284 88.3341C92.2293 88.3341 94.0197 90.0773 94.0197 92.2205C94.0493 94.366 92.259 96.1114 90.0284 96.1114V96.1114Z" fill="#505772"/>
</svg>
