<svg width="130" height="100" viewBox="0 0 130 100" fill="none" xmlns="http://www.w3.org/2000/svg">
<g clip-path="url(#clip0_16_311)">
<path d="M44.3427 28.9345C49.6634 32.1501 54.9629 35.378 60.2702 38.5706C60.6173 38.7717 61.2696 38.8528 61.5949 38.665C65.5089 36.3464 69.5303 35.9117 73.7597 37.584C73.8397 37.6247 73.9385 37.5958 74.1737 37.6032C77.1131 32.5923 80.0907 27.5006 82.9557 22.5608C82.1386 21.1455 81.1981 19.9166 80.672 18.5608C78.9597 14.0929 81.8053 9.82149 84.6629 8.37107C88.5108 6.43586 93.5872 7.87736 95.6454 11.491C97.2817 14.3741 97.2504 17.4221 95.3984 20.2633C93.5967 23.0448 90.9711 24.4482 87.6162 23.9842C86.4569 23.8251 86.0072 24.1972 85.479 25.1312C82.9561 29.5615 80.3635 33.9732 77.7243 38.3531C77.225 39.186 77.1411 39.6896 77.9183 40.4401C80.6896 43.1869 81.5321 46.6995 81.4328 50.6741C89.3034 51.9598 97.2215 53.2744 104.767 54.4897C105.87 52.4541 106.59 50.3506 107.934 48.7748C111.374 44.733 117.921 44.7219 121.754 48.5125C125.574 52.28 125.619 58.6564 121.612 62.1691C115.306 67.6947 108.027 64.239 105.832 58.9349C105.639 58.502 104.933 58.0806 104.414 57.9815C100.52 57.2845 96.586 56.6713 92.6603 56.0229C88.8718 55.4078 85.1159 54.8045 81.3266 54.1924C81.0459 54.155 80.764 54.1158 80.3723 54.0862C78.7642 58.1009 75.6151 60.3486 71.668 61.7121C71.3282 61.8213 70.9459 62.3591 70.9332 62.7372C70.8147 65.4342 70.7969 68.1011 70.7128 70.8089C70.6828 71.6546 70.9917 72.1897 71.7236 72.7106C75.8884 75.622 76.7879 80.5311 74.0138 84.4774C71.2053 88.4129 65.6187 89.1811 61.9368 86.1061C58.1172 82.9392 57.8908 77.4983 61.3747 73.8836C62.7168 72.5104 64.3107 71.8178 66.1451 71.4439C66.5304 71.3647 67.1655 70.9136 67.1924 70.6091C67.3257 67.7911 67.3681 64.9668 67.4403 62.0384C63.8613 61.7906 61.0805 60.223 58.7715 57.7258C58.6062 57.5374 57.9461 57.5452 57.6652 57.7074C52.7322 60.4122 47.8338 63.1278 42.9488 65.9201C42.6023 66.1201 42.2873 66.8722 42.3546 67.291C43.034 71.4143 41.9626 74.8609 38.5412 77.4371C33.5659 81.1662 27.2156 78.9183 24.7194 75.0436C20.8391 69.025 24.6319 62.092 29.428 60.5503C32.6113 59.5128 35.6323 59.7988 38.4315 61.6959C39.1076 62.1647 39.7184 62.7249 40.657 63.4973C45.6799 60.5973 50.8107 57.6351 55.9072 54.667C56.1901 54.5037 56.4262 53.9659 56.3997 53.6667C55.4624 47.8922 55.6604 46.635 58.3847 41.6025C57.6077 41.1101 56.8061 40.5706 55.9736 40.0797C51.9035 37.6301 47.8355 35.2331 43.7976 32.7369C42.8921 32.173 42.3347 32.3542 41.6193 32.964C37.6758 36.1869 31.7232 35.2768 29.0925 30.8226C26.5301 26.531 28.7779 21.1754 32.3636 19.3327C35.2283 17.8501 38.228 17.8902 40.94 19.6408C43.7458 21.4472 45.0796 24.1085 44.635 27.5384C44.6026 27.7846 44.5389 28.0209 44.5077 28.269C44.4364 28.3945 44.3919 28.6197 44.3427 28.9345V28.9345ZM73.1966 57.2575C77.6223 54.6742 79.3124 48.9527 76.8575 44.7984C74.2147 40.3231 68.4027 38.7054 63.9841 41.2565C59.4928 43.824 57.9546 49.7109 60.5696 54.2892C63.0034 58.4557 68.7901 59.8297 73.1947 57.2586L73.1966 57.2575ZM38.3124 66.5385C36.4988 63.4996 32.5392 62.4412 29.61 64.2167C26.6378 66.0197 25.6463 70.0491 27.4535 72.9792C29.1488 75.7157 33.0332 76.6436 35.9123 74.9814C38.8356 73.2936 39.9776 69.3205 38.3124 66.5385V66.5385ZM120.312 52.3164C118.559 49.3293 114.892 48.3294 111.902 49.9995C108.88 51.7161 107.853 55.5382 109.607 58.5272C111.251 61.3214 115.148 62.2704 117.994 60.5994C120.969 58.8557 121.993 55.1758 120.312 52.3164V52.3164ZM69.6996 83.8539C71.9301 82.5661 72.7884 79.355 71.4717 77.1722C70.1763 75.0307 67.0827 74.219 64.8823 75.4612C62.5308 76.7882 61.6938 79.7875 63.018 82.0811C64.3168 84.3305 67.4479 85.1539 69.6996 83.8539ZM32.2376 29.0656C33.4712 31.1533 36.5102 31.9147 38.7197 30.6928C41.05 29.378 41.9246 26.444 40.6169 24.2278C39.2076 21.8402 36.1541 21.0002 33.8624 22.3821C31.5496 23.7762 30.8424 26.698 32.2376 29.0656ZM84.2837 18.1632C85.6032 20.5464 88.4737 21.3183 90.8755 19.9316C93.1483 18.6194 93.9673 15.6868 92.7128 13.4117C91.3722 11.0407 88.4906 10.2497 86.11 11.6242C83.8776 12.913 83.0414 15.9093 84.2837 18.1632Z" fill="#505772"/>
</g>
<defs>
<clipPath id="clip0_16_311">
<rect width="84.1465" height="100" fill="white" transform="translate(87.5223 -13.8275) rotate(60)"/>
</clipPath>
</defs>
</svg>
