<svg width="64" height="100" viewBox="0 0 64 100" fill="none" xmlns="http://www.w3.org/2000/svg">
<path d="M25.9408 99.773C24.9137 99.6011 23.9471 99.1713 23.1315 98.5237C22.316 97.8762 21.6782 97.0322 21.2779 96.0708C20.895 94.6803 20.6256 93.2609 20.4724 91.8268C19.8577 91.5462 19.2627 91.2243 18.6916 90.8632C17.8907 90.304 17.245 89.5505 16.8152 88.6734C16.3853 87.7963 16.1854 86.8243 16.2342 85.8488C16.2342 81.7482 16.2108 77.6272 16.2342 73.5149C16.4349 66.5386 13.8716 59.7654 9.10221 54.67C5.55146 50.9698 2.91372 46.4917 1.39905 41.5922C-0.591384 35.1373 -0.45482 28.2136 1.7886 21.8422C4.35509 14.2728 9.7092 7.96558 16.7614 4.20403C23.0391 0.699364 30.3411 -0.510218 37.4135 0.783004C43.794 1.85831 49.6943 4.85546 54.3258 9.37389C58.9572 13.8923 62.0993 19.7167 63.3319 26.0687C64.3299 30.8084 64.2084 35.7156 62.9769 40.4001C61.7454 45.0846 59.4379 49.4171 56.238 53.0532C53.8865 55.593 51.8867 58.437 50.2922 61.5091C48.5884 65.1918 47.7107 69.2025 47.7205 73.2601C47.703 77.1439 47.6297 81.0306 47.744 84.9144C47.9753 86.3885 47.668 87.8966 46.8785 89.1628C46.0889 90.4289 44.8698 91.3683 43.4443 91.8092C43.3069 93.2186 43.0552 94.6144 42.6915 95.983C42.2952 96.9628 41.655 97.8251 40.8318 98.4879C40.0085 99.1507 39.0294 99.5921 37.9876 99.7701L25.9408 99.773ZM43.8075 71.1864C43.8555 71.0634 43.8946 70.9371 43.9246 70.8086C43.9568 70.6182 43.9744 70.4249 43.992 70.2228C44.4142 64.7384 46.3655 59.4821 49.6244 55.0508C51.4169 52.5992 53.5931 50.4172 55.2685 47.8953C57.7157 44.3705 59.2946 40.3169 59.8764 36.0655C60.4582 31.8141 60.0264 27.4854 58.6163 23.4326C57.5559 20.0546 55.8398 16.9188 53.5661 14.2049C51.2924 11.4909 48.5057 9.25196 45.3657 7.61627C42.0122 5.72243 38.2907 4.57175 34.4536 4.24226C30.6164 3.91277 26.7533 4.41217 23.1261 5.70658C19.5078 6.87241 16.1725 8.78009 13.3331 11.3078C10.4938 13.8354 8.21284 16.9275 6.63602 20.3865C4.71262 24.3157 3.76184 28.6497 3.86378 33.0232C3.96573 37.3967 5.11742 41.6817 7.22182 45.517C8.86395 48.3444 10.8363 50.9666 13.0973 53.3285C15.762 56.3924 17.7039 60.0159 18.7795 63.9314C19.4151 66.2892 19.7988 68.7173 20.3025 71.1513H24.9889V46.7618C23.8413 46.734 22.6972 46.6254 21.5649 46.4367C20.1881 46.062 18.9985 45.1914 18.2249 43.9924C17.4513 42.7933 17.1484 41.3506 17.3745 39.9417C17.6006 38.5329 18.3397 37.2573 19.4496 36.3606C20.5595 35.4638 21.9618 35.0091 23.3867 35.084C24.8111 35.1023 26.1751 35.6624 27.2012 36.6505C28.2274 37.6386 28.8386 38.9804 28.9108 40.403C28.9664 41.1646 28.7643 42.2776 29.1744 42.5968C29.6869 42.9981 30.7091 42.7638 31.5175 42.7726C32.6657 42.7901 33.8168 42.7726 34.921 42.7726C34.9452 41.6162 35.0528 40.4631 35.2432 39.3223C35.5593 38.0016 36.3515 36.844 37.468 36.0712C38.5846 35.2983 39.947 34.9646 41.2944 35.1338C42.6922 35.2992 43.9778 35.9808 44.8989 37.045C45.8201 38.1093 46.3104 39.4793 46.2736 40.8863C46.31 42.2991 45.8074 43.6727 44.868 44.7285C43.9286 45.7844 42.6227 46.4432 41.2153 46.5714C40.4567 46.6534 39.6952 46.6827 38.96 46.7354V71.1747L43.8075 71.1864ZM43.8075 75.1815H20.121C20.121 78.6963 20.121 82.1202 20.121 85.55C20.121 87.4363 20.8063 88.107 22.7219 88.1099H35.1494C37.2847 88.1099 39.4228 88.1099 41.558 88.1099C42.9317 88.1099 43.784 87.4246 43.7987 86.212C43.8426 82.5566 43.8133 78.8896 43.8133 75.1874M34.9561 46.7472H28.9986V71.1483H34.9649L34.9561 46.7472ZM24.6433 92.0289C24.3914 95.0574 25.1441 95.8892 28.0438 95.8892C30.756 95.8892 33.4741 95.8131 36.1834 95.9127C38.2131 95.9888 39.8358 95.1101 39.209 92.0289H24.6433ZM25.027 42.7638C25.027 42.0462 25.0563 41.437 25.027 40.8277C25.0381 40.576 24.9956 40.3248 24.9024 40.0907C24.8092 39.8566 24.6674 39.6449 24.4864 39.4697C24.3053 39.2944 24.0892 39.1596 23.8521 39.0741C23.6151 38.9886 23.3626 38.9544 23.1114 38.9737C22.8689 38.9574 22.6256 38.9905 22.3963 39.071C22.1669 39.1515 21.9563 39.2778 21.7772 39.4421C21.5981 39.6064 21.4542 39.8054 21.3543 40.0269C21.2544 40.2485 21.2005 40.4881 21.1959 40.7311C21.1586 40.9825 21.1763 41.239 21.2477 41.483C21.3192 41.7269 21.4427 41.9524 21.6098 42.144C21.7768 42.3356 21.9835 42.4886 22.2154 42.5926C22.4474 42.6965 22.6991 42.749 22.9533 42.7462C23.6152 42.8077 24.2889 42.7462 25.0416 42.7462M38.9219 42.7989C39.6572 42.7902 40.3911 42.7324 41.1187 42.6261C41.338 42.5662 41.5434 42.4635 41.7229 42.3238C41.9023 42.1841 42.0523 42.0102 42.1643 41.8123C42.2762 41.6143 42.3478 41.3961 42.3749 41.1703C42.4021 40.9446 42.3843 40.7156 42.3225 40.4968C42.2676 40.0778 42.0636 39.6926 41.7478 39.4118C41.432 39.131 41.0257 38.9734 40.6032 38.9678C40.1609 38.9784 39.7398 39.1595 39.4281 39.4735C39.1164 39.7874 38.9382 40.2097 38.9307 40.652C38.8809 41.3169 38.9307 41.9876 38.9307 42.7989" fill="#505772"/>
</svg>
