<svg width="80" height="80" viewBox="0 0 80 80" fill="none" xmlns="http://www.w3.org/2000/svg">
<g clip-path="url(#clip0_3_1461)">
<path d="M3.65636 46.2563C2.82909 42.2563 2.85636 38.229 3.51454 34.1999C4.77091 26.4563 8.17091 19.7435 13.6564 14.1708C19.5145 8.22899 26.6 4.65627 34.8855 3.48536C38.8855 2.94354 42.8564 2.9999 46.8 3.74354C52.7436 4.85627 58.0855 7.31445 62.8291 11.029C63.8855 11.8563 64.8564 12.7708 65.8564 13.629C65.4855 13.7999 65.1709 13.7999 64.8855 13.7999C63.8 13.829 62.7145 13.7999 61.6291 13.8854C60.6 13.9708 60.0855 14.5999 60.1436 15.429C60.1709 16.2563 60.8 16.7999 61.8 16.7999C64.3436 16.7999 66.8855 16.7708 69.4291 16.7435C70.5145 16.7144 71.0855 16.1435 71.1145 15.029C71.1436 14.3999 71.0564 13.7708 71.0564 13.1708C71.0564 11.2854 71.0564 9.37081 71.0291 7.48536C71.0291 6.22899 70.1436 5.51445 69.0855 5.85627C68.3436 6.11445 68.0564 6.65627 68.0564 7.3999V11.629C67.8291 11.429 67.7436 11.3435 67.6291 11.2563C62.5145 6.37081 56.5709 3.02899 49.6854 1.34354C48.2291 0.999902 46.7709 0.714448 45.3145 0.399902H34.7145C34.6 0.456266 34.4854 0.514448 34.3709 0.543539C30.2854 1.05627 26.4 2.28536 22.6855 4.05627C16.5709 6.9999 11.5145 11.2854 7.57091 16.7999C3 23.1708 0.570907 30.3144 0.170907 38.1144C-1.8776e-06 41.1708 0.199998 44.229 0.799998 47.229C1.22909 49.2854 1.82909 51.3144 2.45636 53.3435C2.82909 54.5708 4.08545 54.7999 4.97091 53.8854C5.48545 53.3435 5.31454 52.7435 5.17091 52.1435C4.65636 50.1999 4.08545 48.2563 3.65636 46.2563ZM79.0564 31.7708C78.6855 30.029 78.1436 28.3435 77.6291 26.629C77.3709 25.7999 76.6 25.3708 75.8855 25.5435C75.0564 25.7435 74.6564 26.3708 74.8 27.3144C74.8855 27.7999 75.0291 28.2563 75.1709 28.7435C76.1709 31.7435 76.8291 34.8563 76.9145 37.9999C77 40.629 76.8564 43.2854 76.4564 45.8854C75.6 51.7999 73.2855 57.1708 69.6855 61.9435C64.2564 69.1435 57.1436 73.829 48.3436 75.9144C44 76.9435 39.6291 77.1435 35.2291 76.5708C31.0854 76.029 27.1436 74.829 23.4291 72.9435C20 71.1999 16.9145 68.9999 14.1436 66.2544C14.2564 66.1981 14.2855 66.169 14.3145 66.169C15.5436 66.169 16.7436 66.169 17.9709 66.1417C18.3145 66.1417 18.6564 66.0835 18.9709 65.9981C19.6 65.7981 19.9709 65.1126 19.9145 64.4544C19.8291 63.769 19.2291 63.169 18.5709 63.169C15.9436 63.169 13.3145 63.169 10.7145 63.1981C9.45636 63.2272 8.91454 63.9126 8.91454 65.1417C8.94363 67.5417 9 69.969 9.02909 72.369C9.05636 73.4835 9.65636 74.2272 10.5145 74.1981C11.4564 74.169 11.9709 73.5126 11.9709 72.369V68.3126C12.2291 68.5126 12.3436 68.5981 12.4291 68.7126C16.3436 72.4544 20.8 75.3126 25.8855 77.1981C29.6564 78.5981 33.5145 79.6272 37.6 79.5126C39.2 79.4544 40.8291 79.4544 42.4291 79.5126C44.8 79.6272 47.1436 79.2544 49.4291 78.6835C59.2291 76.1981 67.0855 70.8544 72.8855 62.5126C77.4855 55.8835 79.7436 48.4835 79.9145 40.4544C79.9709 37.5417 79.6855 34.6272 79.0564 31.769V31.7708Z" fill="#505772"/>
<path d="M65.2 45.1145L65.3709 43.9709C65.5709 42.7145 65.6564 41.3709 65.6564 40.0291C65.6564 38.6854 65.5709 37.3709 65.3709 36.0854L65.1709 34.8854H59.3709C58.9145 33.1436 58.2291 31.4563 57.2855 29.8854L61.3709 25.8291L60.6854 24.8854C59.1145 22.7145 57.2564 20.8291 55.0855 19.2854L54.1436 18.6L50.0564 22.6563C48.4855 21.7436 46.8291 21.0563 45.0564 20.5709V14.7709L43.9145 14.6C41.3436 14.2291 38.6 14.2291 36.0291 14.6L34.8855 14.7709V20.5709C33.1436 21.0291 31.4564 21.7145 29.8855 22.6563L25.8 18.6L24.8564 19.2854C22.6855 20.8291 20.8 22.7145 19.2564 24.8854L18.5709 25.8291L22.6564 29.9145C21.7436 31.4854 21.0564 33.1436 20.5709 34.9145H14.7709L14.6 36.0563C14.4 37.3436 14.3145 38.6563 14.3145 40C14.3145 41.3436 14.4 42.6563 14.6 43.9436L14.7709 45.0854H20.5709C21.0291 46.8291 21.7145 48.5145 22.6564 50.0854L18.5709 54.1709L19.2564 55.1145C20.8291 57.2854 22.6855 59.1709 24.8564 60.7145L25.8 61.4L29.8855 57.3436C31.4564 58.2563 33.1145 58.9436 34.8855 59.4291V65.229L36.0291 65.4C37.3145 65.6 38.6291 65.6854 39.9709 65.6854C41.3145 65.6854 42.6291 65.6 43.9145 65.4L45.0564 65.229V59.4291C46.8 58.9709 48.4855 58.2854 50.0564 57.3436L54.1436 61.4L55.0855 60.7145C57.2564 59.1709 59.1436 57.2854 60.6854 55.1145L61.3709 54.1709L57.3145 50.1145C58.2291 48.5436 58.9145 46.8854 59.4 45.1145H65.2V45.1145ZM57.8 54.4C56.8 55.6563 55.6855 56.7436 54.4564 57.7436L50.4855 53.7709L49.5709 54.3709C47.7145 55.629 45.6564 56.4563 43.5145 56.8854L42.4 57.1436V62.7436C40.8291 62.9145 39.2 62.9145 37.6564 62.7436V57.1436L36.5709 56.9145C34.4 56.4854 32.3709 55.6291 30.5145 54.4L29.6 53.8L25.6291 57.7709C24.3709 56.7709 23.2855 55.6563 22.2855 54.4291L26.2564 50.4563L25.6564 49.5436C24.4 47.6854 23.5709 45.6291 23.1436 43.4854L22.9145 42.4H17.3145C17.2564 41.629 17.2 40.8291 17.2 40.0291C17.2 39.2291 17.2564 38.4563 17.3145 37.6563H22.9145L23.1436 36.5709C23.5709 34.4 24.4291 32.3709 25.6564 30.5145L26.2564 29.6L22.2855 25.629C23.2855 24.3709 24.4 23.2854 25.6291 22.2854L29.6 26.2563L30.5145 25.6563C32.3709 24.4 34.4291 23.5709 36.5709 23.1436L37.6564 22.9145V17.3145C39.2291 17.1436 40.8564 17.1436 42.4 17.3145V22.9145L43.4855 23.1436C45.6564 23.5709 47.6855 24.4291 49.5436 25.6563L50.4564 26.2563L54.4291 22.2854C55.6855 23.2854 56.7709 24.4 57.7709 25.629L53.8 29.6L54.4 30.5145C55.6291 32.3709 56.4855 34.4291 56.9145 36.5709L57.1436 37.6563H62.7436C62.8 38.4291 62.8564 39.2291 62.8564 40.0291C62.8564 40.8291 62.8 41.6 62.7436 42.4H57.1436L56.9145 43.4854C56.4855 45.6563 55.6291 47.6854 54.4 49.5436L53.8 50.4563L57.8 54.4V54.4Z" fill="#505772"/>
</g>
<defs>
<clipPath id="clip0_3_1461">
<rect width="80" height="80" fill="white"/>
</clipPath>
</defs>
</svg>
