<svg width="111" height="100" viewBox="0 0 111 100" fill="none" xmlns="http://www.w3.org/2000/svg">
<path d="M0 0V100H110.913V0H0ZM107.018 96.134H3.86667V3.86598H107.047V96.134H107.018V96.134Z" fill="#505772"/>
<path d="M50.8021 72.4508C49.8857 71.537 48.9131 71.537 48.1393 72.336C47.424 73.1092 47.452 73.9995 48.3404 74.8852C49.1119 75.6865 49.9441 76.4316 50.774 77.2048C45.6192 76.5183 41.2102 74.3697 37.402 71.0192C32.8199 66.9822 29.8697 61.9986 28.5231 56.0426C28.4086 55.4686 28.0649 53.7512 28.0649 53.552L24.6284 53.866C24.6284 53.866 24.7429 55.3842 24.972 56.4995V56.5862C24.972 56.6143 25.0001 56.6448 25.0001 56.701C25.0305 56.9025 25.0866 57.0736 25.145 57.2446H25.1731C27.8358 68.0693 34.4236 75.5155 44.8758 79.5829C46.4795 80.2109 48.1697 80.5834 49.9722 81.1293C49.0838 81.6729 48.2539 82.1884 47.452 82.7038C46.192 83.477 45.8764 84.365 46.4515 85.3655C47.0219 86.3402 48.0248 86.4831 49.2568 85.7404C51.5478 84.365 53.8388 82.9334 56.1579 81.4995C57.5325 80.642 57.7055 79.4095 56.56 78.2357C54.6687 76.2886 52.7214 74.3697 50.8021 72.4508V72.4508ZM59.882 27.1485C60.7984 28.0623 61.7709 28.149 62.5447 27.3758C63.3465 26.6026 63.26 25.6303 62.2875 24.6274C61.7148 24.0558 61.1701 23.4817 60.5973 22.91C67.9005 24.1401 73.7122 27.7483 78.0371 33.6176C80.4707 36.9119 82.0183 40.6349 82.8202 44.6439C82.9628 45.3608 83.2223 46.7643 83.2503 46.9353L86.6868 46.6214C86.6868 46.6214 86.4577 44.1284 86.1725 43.2427H86.1421C84.7114 36.94 81.6747 31.5276 76.95 27.09C72.5106 22.91 67.2717 20.2741 60.9971 19.1003C62.1145 18.3552 62.9748 17.7835 63.8328 17.1813C64.9503 16.4081 65.2355 15.4944 64.665 14.5478C64.0923 13.6317 63.0894 13.4887 61.9135 14.2034C59.5079 15.7216 57.1327 17.2399 54.7552 18.7863C53.4952 19.6157 53.3806 20.5904 54.4396 21.6776C56.2444 23.5403 58.0492 25.3444 59.882 27.1485V27.1485ZM83.7062 48.8824C81.8173 50.717 79.9564 52.6078 78.0955 54.4681C77.2352 55.3257 77.2352 56.2722 78.009 57.0454C78.7548 57.7601 79.7554 57.7015 80.5853 56.8721C81.2165 56.2418 81.7892 55.5834 82.4485 54.8969C82.535 55.0984 82.563 55.1546 82.563 55.2109C82.535 55.4405 82.5046 55.6701 82.4461 55.8997C79.4982 67.411 72.3376 74.6275 60.7119 77.2329C60.0807 77.3758 59.2508 77.5211 58.851 77.5492L59.1666 80.9841C59.1666 80.9841 60.941 81.0426 62.5447 80.4686V80.4405C73.1699 77.835 80.5572 71.3917 84.5969 61.0543C85.3683 59.1073 85.7704 56.9869 86.3712 54.8102C86.944 55.5553 87.4606 56.2722 88.003 56.9588C88.8329 58.0459 89.9808 58.3622 90.8083 57.7319C91.6406 57.1017 91.6686 55.9278 90.8083 54.8688C89.3215 52.978 87.8043 51.1176 86.3151 49.2268C85.4829 48.1092 84.681 47.9381 83.7085 48.8824H83.7062ZM24.2847 50.7451C25.2573 52.0337 26.4028 52.1181 27.5202 51.0028C29.353 49.1987 31.1578 47.3946 32.9625 45.5623C33.9631 44.5595 34.0496 43.6129 33.2478 42.8116C32.4763 42.0384 31.5014 42.1251 30.4985 43.0975C29.8112 43.7582 29.1239 44.4447 28.266 45.2765C29.1824 38.6879 33.5072 31.701 38.9753 27.6921C42.2412 25.2858 45.8483 23.6832 49.8296 22.8514H49.8576C50.6034 22.7109 51.6039 22.5375 51.7489 22.5375L51.4613 19.044C51.4613 19.044 50.3158 19.1284 49.2287 19.3299H49.2007H49.1703C48.7986 19.4166 48.3988 19.5009 48.0832 19.5876V19.6157C42.6994 20.9911 37.9163 23.5098 33.879 27.4344C28.8668 32.3032 25.8604 38.2006 24.6564 45.1312C24.4577 45.0469 24.3712 45.0468 24.3432 44.9906C23.8265 44.3018 23.3122 43.6129 22.7956 42.9545C22.0241 41.9541 20.8786 41.6659 20.0744 42.2399C19.2445 42.8702 19.1861 43.9573 19.9599 45.0164C21.421 46.9634 22.854 48.8543 24.2847 50.7451V50.7451Z" fill="#505772"/>
</svg>
