<svg width="84" height="75" viewBox="0 0 84 75" fill="none" xmlns="http://www.w3.org/2000/svg">
<path d="M1.33636 1.125V73.875H82.2068V1.125H1.33636ZM79.3671 71.0625H4.15568V3.9375H79.3875V71.0625H79.3671V71.0625Z" fill="#505772"/>
<path d="M38.3778 53.8329C37.7097 53.1682 37.0006 53.1682 36.4364 53.7494C35.9148 54.3119 35.9352 54.9596 36.583 55.604C37.1455 56.1869 37.7523 56.729 38.3574 57.2915C34.5989 56.792 31.3841 55.229 28.6074 52.7915C25.2665 49.8545 23.1153 46.229 22.1335 41.896C22.05 41.4784 21.7994 40.229 21.7994 40.0841L19.2937 40.3125C19.2937 40.3125 19.3773 41.417 19.5443 42.2284V42.2915C19.5443 42.3119 19.5648 42.3341 19.5648 42.375C19.5869 42.5216 19.6278 42.646 19.6705 42.7704H19.6909C21.6324 50.6454 26.4358 56.0625 34.0568 59.0216C35.2261 59.4784 36.4585 59.7494 37.7727 60.1466C37.125 60.542 36.5199 60.917 35.9352 61.292C35.0165 61.8545 34.7864 62.5005 35.2057 63.2284C35.6216 63.9375 36.3528 64.0415 37.2511 63.5011C38.9216 62.5005 40.592 61.4591 42.283 60.4159C43.2852 59.792 43.4114 58.8954 42.5761 58.0415C41.1972 56.625 39.7773 55.229 38.3778 53.8329V53.8329ZM44.9983 20.8755C45.6665 21.5403 46.3756 21.6034 46.9398 21.0409C47.5244 20.4784 47.4614 19.771 46.7523 19.0415C46.3347 18.6255 45.9375 18.2079 45.5199 17.792C50.8449 18.6869 55.0824 21.3119 58.2358 25.5818C60.0102 27.9784 61.1386 30.6869 61.7233 33.6034C61.8273 34.125 62.0165 35.146 62.0369 35.2704L64.5426 35.042C64.5426 35.042 64.3756 33.2284 64.1676 32.5841H64.1455C63.1023 27.9988 60.8881 24.0613 57.4432 20.8329C54.2062 17.792 50.3864 15.8744 45.8114 15.0204C46.6261 14.4784 47.2534 14.0625 47.879 13.6244C48.6937 13.0619 48.9017 12.3971 48.4858 11.7085C48.0682 11.042 47.3369 10.938 46.4795 11.4579C44.7256 12.5625 42.9937 13.667 41.2602 14.792C40.3415 15.3954 40.258 16.1045 41.0301 16.8954C42.346 18.2505 43.6619 19.563 44.9983 20.8755V20.8755ZM62.3693 36.6869C60.992 38.0216 59.6352 39.3971 58.2784 40.7505C57.6511 41.3744 57.6511 42.063 58.2153 42.6255C58.7591 43.1454 59.4886 43.1028 60.0937 42.4994C60.554 42.0409 60.9716 41.5619 61.4523 41.0625C61.5153 41.2091 61.5358 41.25 61.5358 41.2909C61.5153 41.4579 61.4932 41.625 61.4506 41.792C59.3011 50.1665 54.0801 55.4165 45.6034 57.3119C45.1432 57.4159 44.5381 57.5216 44.2466 57.542L44.4767 60.0409C44.4767 60.0409 45.7705 60.0835 46.9398 59.6659V59.6454C54.6869 57.75 60.0733 53.0625 63.0187 45.542C63.5812 44.1255 63.8744 42.5829 64.3125 40.9994C64.7301 41.5415 65.1068 42.063 65.5023 42.5625C66.1074 43.3534 66.9443 43.5835 67.5477 43.125C68.1545 42.6665 68.175 41.8125 67.5477 41.042C66.4636 39.6665 65.3574 38.313 64.2716 36.9375C63.6648 36.1244 63.0801 36 62.371 36.6869H62.3693ZM19.0432 38.042C19.7523 38.9795 20.5875 39.0409 21.4023 38.2295C22.7386 36.917 24.0545 35.6045 25.3705 34.2716C26.1 33.542 26.1631 32.8534 25.5784 32.2704C25.0159 31.7079 24.3051 31.771 23.5739 32.4784C23.0727 32.9591 22.5716 33.4585 21.946 34.0636C22.6142 29.2704 25.7676 24.1875 29.7545 21.271C32.1358 19.5204 34.7659 18.3545 37.6688 17.7494H37.6892C38.233 17.6471 38.9625 17.521 39.0682 17.521L38.8585 14.9795C38.8585 14.9795 38.0233 15.0409 37.2307 15.1875H37.2102H37.1881C36.917 15.2505 36.6256 15.3119 36.3955 15.375V15.3954C32.4699 16.396 28.9824 18.2284 26.0386 21.0835C22.3841 24.6255 20.192 28.9159 19.3142 33.9579C19.1693 33.8966 19.1062 33.8966 19.0858 33.8557C18.7091 33.3545 18.3341 32.8534 17.9574 32.3744C17.3949 31.6466 16.5597 31.4369 15.9733 31.8545C15.3682 32.313 15.3256 33.1039 15.8898 33.8744C16.9551 35.2909 18 36.6665 19.0432 38.042V38.042Z" fill="#505772"/>
</svg>
