<svg width="217" height="129" viewBox="0 0 217 129" fill="none" xmlns="http://www.w3.org/2000/svg">
<path d="M107.766 61.4973C116.724 61.4973 123.986 54.2352 123.986 45.2771C123.986 36.3189 116.724 29.0569 107.766 29.0569C98.8079 29.0569 91.5459 36.3189 91.5459 45.2771C91.5459 54.2352 98.8079 61.4973 107.766 61.4973Z" stroke="white" stroke-width="2" stroke-linecap="round" stroke-linejoin="round"/>
<path d="M135.345 98.9241C135.345 78.2851 122.922 61.6567 107.767 61.6567C96.2138 61.6567 86.3291 71.2398 82.2119 84.869" stroke="white" stroke-width="2" stroke-linecap="round" stroke-linejoin="round"/>
<path d="M180.508 116.955C179.799 115.646 178.816 114.489 177.62 113.558C176.423 112.627 175.039 111.942 173.553 111.544C172.067 111.146 170.512 111.044 168.983 111.245C167.455 111.447 165.986 111.946 164.668 112.713C164.419 111.788 163.855 110.969 163.065 110.385C162.275 109.8 161.304 109.483 160.305 109.484C160.069 109.469 159.833 109.469 159.598 109.484C159.8 108.85 159.908 108.193 159.921 107.531C159.914 106.327 159.597 105.142 158.998 104.082C158.399 103.023 157.536 102.12 156.485 101.454C155.434 100.788 154.228 100.38 152.973 100.265C151.718 100.149 150.453 100.331 149.289 100.794" stroke="white" stroke-width="2" stroke-miterlimit="10"/>
<path d="M36.1946 77.5155L49.3026 69.944L36.1946 62.3875L23.1016 69.944L36.1946 77.5155Z" stroke="white" stroke-width="2" stroke-linejoin="round"/>
<path opacity="0.25" d="M36.045 77.5455V92.8831L23.1016 85.3864V70.0488L36.045 77.5455Z" stroke="white" stroke-width="2" stroke-miterlimit="10"/>
<path d="M49.3924 85.2367V70.0039L36.1946 62.3875L23.0117 70.0039V85.2367L36.1946 92.8531L49.3924 85.2367Z" stroke="white" stroke-width="2" stroke-miterlimit="10"/>
<path d="M36.0752 77.3506V92.6882" stroke="white" stroke-width="2" stroke-miterlimit="10"/>
<path d="M1.64224 77.9318C1.2249 76.7773 1.00796 75.5624 1.00041 74.3376C1.00041 71.3968 2.19248 68.5765 4.31438 66.4971C6.43628 64.4177 9.31418 63.2495 12.315 63.2495C13.4086 63.2472 14.4963 63.4046 15.5425 63.7167C16.5702 60.9961 18.2127 58.5386 20.3471 56.5283L22.3276 54.8929C23.2735 54.2073 24.2799 53.6059 25.335 53.0958L29.0027 51.7839C30.6019 51.3787 32.2471 51.1734 33.8989 51.1729C38.121 51.1611 42.2306 52.5057 45.5986 55.0008" stroke="white" stroke-width="2" stroke-miterlimit="10"/>
<path d="M91.2798 105.083L107.766 114.595L156.941 86.2004V29.412L107.766 1L58.5732 29.412V86.2004L67.4287 91.2936" stroke="white" stroke-width="2" stroke-linecap="round" stroke-linejoin="round"/>
<path d="M195.161 57.814L186.576 85.9065" stroke="white" stroke-width="2" stroke-linejoin="round"/>
<path d="M183.576 65.0964L173.633 70.6055V71.8319L183.576 77.0957" stroke="white" stroke-width="2" stroke-linejoin="round"/>
<path d="M199.311 65.0964L209.253 70.6055V71.8319L199.311 77.0957" stroke="white" stroke-width="2" stroke-linejoin="round"/>
<path d="M216.001 85.9827V57.5197L191.488 43.3198L166.943 57.5197V85.9827L191.488 100.183L216.001 85.9827Z" stroke="white" stroke-width="2" stroke-linecap="round" stroke-linejoin="round"/>
<path d="M79.3008 89.5898V107.106" stroke="white" stroke-width="2" stroke-linecap="round" stroke-linejoin="round"/>
<path d="M88.0499 98.3389H70.5342" stroke="white" stroke-width="2" stroke-linecap="round" stroke-linejoin="round"/>
<path d="M56.3018 99.1016V109.341" stroke="white" stroke-width="2" stroke-linecap="round" stroke-linejoin="round"/>
<path d="M61.4303 104.23H51.1729" stroke="white" stroke-width="2" stroke-linecap="round" stroke-linejoin="round"/>
<path d="M73.1611 118.623V127.088" stroke="white" stroke-width="2" stroke-linecap="round" stroke-linejoin="round"/>
<path d="M77.4017 122.865H68.9189" stroke="white" stroke-width="2" stroke-linecap="round" stroke-linejoin="round"/>
</svg>
