<svg width="200" height="200" viewBox="0 0 200 200" fill="none" xmlns="http://www.w3.org/2000/svg">
<path d="M31.3583 39.6499H14.9C10.5369 39.6499 7 42.45 7 45.9041V133.462C7 136.916 10.5369 139.717 14.9 139.717H186.067C190.43 139.717 193.967 136.916 193.967 133.462V45.9041C193.967 42.45 190.43 39.6499 186.067 39.6499H168.95" stroke="#505772" stroke-width="6"/>
<rect x="52.1315" y="154.567" width="98.0166" height="12.4333" rx="3" stroke="#505772" stroke-width="6"/>
<path d="M74.1513 138.4L72.8346 152.883M126.16 138.4L128.135 152.883" stroke="#505772" stroke-width="6"/>
<path d="M44.5242 30.4332H38.5992C34.2362 30.4332 30.6992 33.2397 30.6992 36.7017V120.281C30.6992 123.743 34.2362 126.55 38.5992 126.55H162.366C166.729 126.55 170.266 123.743 170.266 120.281V36.7017C170.266 33.2397 166.729 30.4332 162.366 30.4332H155.124" stroke="#505772" stroke-width="6" stroke-linecap="round"/>
<path d="M67.5676 37.675V67.3C70.4204 71.6889 80.866 80.335 99.826 79.8084C118.786 79.2817 129.67 72.5667 132.743 69.275V37.675" stroke="#505772" stroke-width="6"/>
<path d="M97.6567 48.0558L57.4357 31.75L97.6568 15.4442C98.2871 15.1886 99.3089 15 100.484 15C101.658 15 102.68 15.1886 103.31 15.4442L143.531 31.75L103.31 48.0558C102.68 48.3114 101.658 48.5 100.484 48.5C99.3089 48.5 98.2871 48.3114 97.6567 48.0558Z" stroke="#505772" stroke-width="6"/>
<path d="M143.932 31.75L143.932 51.5" stroke="#505772" stroke-width="6" stroke-linecap="round"/>
</svg>
