<svg width="183" height="100" viewBox="0 0 183 100" fill="none" xmlns="http://www.w3.org/2000/svg">
<rect width="183" height="100" fill="white"/>
<path d="M114.004 44.0561H136.199C138.124 44.0561 139.7 45.6324 139.7 47.5579V56.5949C128.59 57.6817 123.14 74.8711 139.7 78.891V88.3489C139.7 90.2743 138.124 91.8507 136.199 91.8507H130.643M104.602 91.8507H39.9999C38.0756 91.8507 36.4984 90.275 36.4984 88.3489V47.5579C36.4984 45.6318 38.0741 44.0561 39.9999 44.0561H50.3035M68.5676 44.0561H104.464" stroke="#505772" stroke-width="3" stroke-linecap="round" stroke-linejoin="round"/>
<path d="M52.4193 61.5624H72.0334M45.949 61.5624H48.3547H45.949Z" stroke="#505772" stroke-width="3" stroke-linecap="round" stroke-linejoin="round"/>
<path d="M65.1196 69.5282H72.0333M45.9489 69.5282H60.8761H45.9489Z" stroke="#505772" stroke-width="3" stroke-linecap="round" stroke-linejoin="round"/>
<path d="M45.9489 77.4943H61.8802" stroke="#505772" stroke-width="3" stroke-linecap="round" stroke-linejoin="round"/>
<path d="M122.411 56.6339V77.8062" stroke="#505772" stroke-width="3" stroke-linecap="round" stroke-linejoin="round"/>
<path d="M116.98 72.651V77.806M116.98 56.6339V68.103V56.6339Z" stroke="#505772" stroke-width="3" stroke-linecap="round" stroke-linejoin="round"/>
<path fill-rule="evenodd" clip-rule="evenodd" d="M55.8782 36.7195C56.9739 40.7506 59.3397 43.2897 63.2151 44.0561C59.184 45.1519 56.6446 47.5177 55.8782 51.3931C54.7824 47.362 52.4166 44.8229 48.5412 44.0561C52.5723 42.9607 55.1117 40.5949 55.8782 36.7195Z" stroke="#505772" stroke-width="3" stroke-linecap="square" stroke-linejoin="round"/>
<path d="M109.214 43.6369V92.086" stroke="#505772" stroke-width="3" stroke-linecap="round" stroke-linejoin="round" stroke-dasharray="5.56 5.56"/>
<path fill-rule="evenodd" clip-rule="evenodd" d="M120.826 86.7764C121.589 89.5849 123.238 91.3541 125.938 91.888C123.129 92.6514 121.36 94.3 120.826 97C120.063 94.1915 118.414 92.4223 115.714 91.888C118.523 91.1247 120.292 89.4764 120.826 86.7764V86.7764Z" stroke="#505772" stroke-width="3" stroke-linecap="square" stroke-linejoin="round"/>
<path d="M97.4917 77.0918C99.5138 77.0918 101.153 75.4526 101.153 73.4305C101.153 71.4084 99.5138 69.7692 97.4917 69.7692C95.4696 69.7692 93.8304 71.4084 93.8304 73.4305C93.8304 75.4526 95.4696 77.0918 97.4917 77.0918Z" stroke="#505772" stroke-width="3"/>
<path d="M85.5532 67.6357C87.5753 67.6357 89.2145 65.9964 89.2145 63.9743C89.2145 61.9522 87.5753 60.313 85.5532 60.313C83.5311 60.313 81.8918 61.9522 81.8918 63.9743C81.8918 65.9964 83.5311 67.6357 85.5532 67.6357Z" stroke="#505772" stroke-width="3"/>
<path d="M96.5955 60.4978L85.6296 78.5591" stroke="#505772" stroke-width="3" stroke-linecap="round" stroke-linejoin="round"/>
<path d="M99.7268 9.23634L120.77 2.18091C122.597 1.56855 124.591 2.56198 125.204 4.38762L128.076 12.9558C117.888 17.5183 118.185 35.5483 135.164 34.0954L137.193 40.1456L138.171 43.0627M36.2205 63.6349L27.3556 37.1951C26.7432 35.3692 27.7363 33.3743 29.5623 32.7622L39.3313 29.4867M56.6482 23.6805L90.6823 12.269" stroke="#505772" stroke-width="3" stroke-linecap="round" stroke-linejoin="round"/>
<path d="M111.697 18.4888L118.427 38.5624" stroke="#505772" stroke-width="3" stroke-linecap="round" stroke-linejoin="round"/>
<path d="M111.639 35.4014L113.277 40.2889M106.547 20.2152L110.193 31.0894L106.547 20.2152Z" stroke="#505772" stroke-width="3" stroke-linecap="round" stroke-linejoin="round"/>
<path fill-rule="evenodd" clip-rule="evenodd" d="M42.2843 20.7582C44.6045 24.2318 47.6548 25.8872 51.5731 25.3821C48.0995 27.7023 46.4437 30.7527 46.9491 34.6706C44.629 31.197 41.5786 29.5416 37.6603 30.0467C41.1339 27.7265 42.7897 24.6761 42.2843 20.7582Z" stroke="#505772" stroke-width="3" stroke-linecap="square" stroke-linejoin="round"/>
<path d="M94.8833 10.2133L105.236 41.091" stroke="#505772" stroke-width="3" stroke-linecap="round" stroke-linejoin="round" stroke-dasharray="5.56 5.56"/>
<path fill-rule="evenodd" clip-rule="evenodd" d="M119.776 47.5715C121.393 49.9919 123.518 51.1453 126.248 50.7934C123.828 52.41 122.674 54.5352 123.026 57.265C121.41 54.8449 119.284 53.6912 116.555 54.0434C118.975 52.4268 120.128 50.3016 119.776 47.5715V47.5715Z" stroke="#505772" stroke-width="3" stroke-linecap="square" stroke-linejoin="round"/>
<path d="M93.8626 42.8036C95.7798 42.1608 96.8128 40.0855 96.17 38.1683C95.5272 36.2511 93.4519 35.218 91.5347 35.8608C89.6175 36.5036 88.5844 38.5789 89.2272 40.4961C89.87 42.4133 91.9454 43.4464 93.8626 42.8036Z" stroke="#505772" stroke-width="3"/>
<path d="M79.5375 37.6328C81.4547 36.9899 82.4878 34.9146 81.845 32.9974C81.2022 31.0802 79.1269 30.0471 77.2097 30.69C75.2925 31.3328 74.2594 33.4081 74.9022 35.3253C75.545 37.2425 77.6203 38.2756 79.5375 37.6328Z" stroke="#505772" stroke-width="3"/>
<path d="M87.7378 27.3547L84.7514 40.5788L84.1875 43.0739" stroke="#505772" stroke-width="3" stroke-linecap="round" stroke-linejoin="round"/>
</svg>
