<svg width="100" height="100" viewBox="0 0 100 100" fill="none" xmlns="http://www.w3.org/2000/svg">
<g clip-path="url(#clip0_516_11219)">
<path fill-rule="evenodd" clip-rule="evenodd" d="M11.6491 39.3261C10.9813 41.4626 8.9856 43.0148 6.6303 43.0148C3.72873 43.0148 1.37305 40.6591 1.37305 37.7575C1.37305 34.8559 3.72873 32.5002 6.6303 32.5002C8.9856 32.5002 10.9813 34.0524 11.6491 36.1889H24.7307V30.9695H22.4244C22.2184 30.9695 22.0144 30.9289 21.8241 30.8501C21.6338 30.7712 21.4609 30.6557 21.3152 30.51L15.2325 24.4273H11.9974C11.3293 26.5653 9.33246 28.1189 6.9754 28.1189C4.07226 28.1189 1.7154 25.7618 1.7154 22.8587C1.7154 19.9555 4.07226 17.5987 6.9754 17.5987C9.33246 17.5987 11.3293 19.152 11.9974 21.29H15.8823C16.2983 21.29 16.6972 21.4553 16.9915 21.7495L23.074 27.8322H24.7307V16.9375C24.7307 16.6304 24.8208 16.3301 24.9898 16.0738C25.1589 15.8175 25.3994 15.6164 25.6817 15.4955L49.3789 5.34553C49.574 5.26192 49.7841 5.21878 49.9964 5.21875C50.2086 5.21872 50.4187 5.26178 50.6138 5.34534L74.3193 15.4953C74.6016 15.6162 74.8422 15.8173 75.0113 16.0737C75.1804 16.3301 75.2705 16.6304 75.2705 16.9375V27.8322H76.927L83.0095 21.7495C83.3037 21.4553 83.7027 21.2901 84.1187 21.29H88.3519C89.0197 19.1536 91.0154 17.6014 93.3707 17.6014C96.2723 17.6014 98.628 19.9571 98.628 22.8587C98.628 25.7602 96.2723 28.1159 93.3707 28.1159C91.0154 28.1159 89.0197 26.5638 88.3517 24.4273H84.7685L78.6858 30.51C78.5401 30.6557 78.3672 30.7712 78.1769 30.8501C77.9866 30.9289 77.7826 30.9695 77.5766 30.9695H75.2705V36.1889H88.3519C89.0197 34.0524 91.0154 32.5002 93.3707 32.5002C96.2723 32.5002 98.628 34.8559 98.628 37.7575C98.628 40.6591 96.2723 43.0148 93.3707 43.0148C91.0154 43.0148 89.0197 41.4626 88.3519 39.3261H75.2081C75.0923 41.1295 74.816 42.8971 74.3927 44.6132L74.6495 45.0579H77.5766C77.9927 45.0579 78.3917 45.2232 78.6858 45.5175L84.7685 51.6H88.3519C89.0197 49.4636 91.0154 47.9114 93.3707 47.9114C96.2723 47.9114 98.628 50.2671 98.628 53.1687C98.628 56.0702 96.2723 58.4259 93.3707 58.4259C91.0154 58.4259 89.0197 56.8738 88.3519 54.7373H84.1187C83.7027 54.7373 83.3037 54.572 83.0095 54.2779L76.927 48.1951H76.4613L97.2268 84.1548L97.2274 84.1555C98.5111 86.3853 98.5111 89.0071 97.226 91.2395L97.2244 91.2418C95.934 93.4648 93.663 94.7808 91.0887 94.7808H40.6446C38.0756 94.7808 35.797 93.463 34.5119 91.2379L34.5115 91.2369C33.2276 89.0071 33.2276 86.3853 34.5119 84.1548L44.936 66.0997C36.5154 63.054 29.8827 56.4185 26.7325 48.1951H23.074L16.9915 54.2779C16.6973 54.572 16.2983 54.7373 15.8823 54.7373H11.6491C10.9813 56.8738 8.9856 58.4259 6.6303 58.4259C3.72873 58.4259 1.37305 56.0702 1.37305 53.1687C1.37305 50.2671 3.72873 47.9114 6.6303 47.9114C8.9856 47.9114 10.9813 49.4636 11.6493 51.6H15.2325L21.3152 45.5175C21.4608 45.3718 21.6338 45.2562 21.8241 45.1773C22.0144 45.0985 22.2184 45.0579 22.4244 45.0579H25.7223C25.2287 43.1817 24.9175 41.2622 24.793 39.3261H11.6491ZM71.964 40.4081C72.0758 39.4132 72.1332 38.4048 72.1332 37.3855V17.9722L49.9966 8.49377L27.8679 17.972V37.3855C27.8679 49.2151 35.587 59.6316 46.5323 63.3348L59.7334 40.4697C61.0183 38.2381 63.297 36.9257 65.8668 36.9257C68.4193 36.9257 70.673 38.214 71.964 40.4081ZM6.9754 20.7359C5.80383 20.7359 4.85265 21.6871 4.85265 22.8587C4.85265 24.0302 5.80383 24.9816 6.9754 24.9816C8.14716 24.9816 9.09834 24.0302 9.09834 22.8587C9.09834 21.6871 8.14716 20.7359 6.9754 20.7359ZM93.3707 20.7387C92.2005 20.7387 91.2507 21.6887 91.2507 22.8587C91.2507 24.0289 92.2005 24.9787 93.3707 24.9787C94.5407 24.9787 95.4907 24.0289 95.4907 22.8587C95.4907 21.6887 94.5407 20.7387 93.3707 20.7387ZM6.6303 35.6375C5.4603 35.6375 4.5103 36.5875 4.5103 37.7575C4.5103 38.9277 5.4603 39.8775 6.6303 39.8775C7.8005 39.8775 8.7503 38.9277 8.7503 37.7575C8.7503 36.5875 7.8005 35.6375 6.6303 35.6375ZM93.3707 35.6375C92.2005 35.6375 91.2507 36.5875 91.2507 37.7575C91.2507 38.9277 92.2005 39.8775 93.3707 39.8775C94.5407 39.8775 95.4907 38.9277 95.4907 37.7575C95.4907 36.5875 94.5407 35.6375 93.3707 35.6375ZM93.3707 51.0487C92.2005 51.0487 91.2507 51.9987 91.2507 53.1687C91.2507 54.3389 92.2005 55.2887 93.3707 55.2887C94.5407 55.2887 95.4907 54.3389 95.4907 53.1687C95.4907 51.9987 94.5407 51.0487 93.3707 51.0487ZM69.2813 42.0351C68.566 40.7928 67.3009 40.063 65.8668 40.063C64.4364 40.063 63.1676 40.7928 62.4519 42.0359L37.2301 85.7212C36.5142 86.9649 36.514 88.4271 37.2297 89.6706C37.9454 90.9093 39.214 91.6436 40.6446 91.6436H91.0887C92.5242 91.6436 93.7895 90.9081 94.5099 89.6693C95.2246 88.4257 95.2242 86.9644 94.5087 85.7214L69.2817 42.0359L69.2813 42.0351ZM56.716 78.524H51.1907C50.7731 78.5238 50.3727 78.3578 50.0774 78.0625C49.7821 77.7673 49.6161 77.3669 49.6158 76.9493C49.616 76.5316 49.782 76.1312 50.0773 75.8359C50.3726 75.5406 50.7731 75.3746 51.1907 75.3744H56.5515C56.5789 74.3927 56.6824 73.4146 56.8611 72.4489H54.723C54.4946 72.4489 54.269 72.3992 54.0617 72.3033C53.8544 72.2074 53.6705 72.0675 53.5227 71.8934L50.4309 68.2526C49.8683 67.59 49.9493 66.5953 50.6119 66.0328C51.2744 65.4702 52.2691 65.5512 52.8317 66.2138L55.4517 69.2993H57.7585C58.3848 67.7124 59.2246 66.3389 60.2099 65.2665C60.1831 65.0418 60.1697 64.8156 60.1697 64.5893C60.1688 63.4615 60.5042 62.359 61.133 61.4228L60.2734 59.9391C60.0644 59.5776 60.0073 59.1479 60.1148 58.7444C60.2223 58.341 60.4856 57.9966 60.8468 57.7871C61.2082 57.5779 61.638 57.5208 62.0415 57.6283C62.4451 57.7358 62.7894 57.9991 62.9989 58.3604L63.5809 59.3649C64.3017 59.0461 65.0812 58.8817 65.8693 58.8824C66.685 58.8824 67.4617 59.0551 68.1646 59.3659L68.747 58.3604C69.1827 57.6083 70.147 57.3514 70.8991 57.7871C71.6513 58.2228 71.9081 59.1871 71.4725 59.9391L70.6128 61.423C71.2418 62.3591 71.5772 63.4615 71.5762 64.5893C71.5762 64.8183 71.5625 65.0444 71.536 65.2665C72.5213 66.3389 73.3611 67.7124 73.9874 69.2993H76.447L79.0744 66.2124C79.3453 65.8945 79.7312 65.6972 80.1475 65.6638C80.5638 65.6303 80.9763 65.7635 81.2944 66.034C81.6123 66.3048 81.8096 66.6908 81.8431 67.107C81.8765 67.5233 81.7434 67.9358 81.4729 68.254L78.3738 71.8948C78.226 72.0684 78.0422 72.208 77.8351 72.3036C77.6281 72.3993 77.4027 72.4489 77.1746 72.4489H74.8848C75.0636 73.4145 75.1671 74.3927 75.1944 75.3744H80.5481C80.9658 75.3746 81.3662 75.5406 81.6615 75.8359C81.9567 76.1312 82.1227 76.5317 82.1229 76.9493C82.1226 77.3668 81.9567 77.7673 81.6614 78.0625C81.3661 78.3578 80.9657 78.5238 80.5481 78.524H75.0299C74.8973 79.5155 74.6817 80.4942 74.3854 81.4497H77.1746C77.4027 81.4497 77.628 81.4992 77.8351 81.5948C78.0421 81.6905 78.226 81.8299 78.3738 82.0036L81.4729 85.6444C81.7434 85.9625 81.8765 86.375 81.8431 86.7913C81.8096 87.2076 81.6123 87.5935 81.2944 87.8644C80.6325 88.4277 79.6378 88.3479 79.0744 87.6859L76.447 84.5993H73.0093C72.5936 85.3081 72.1295 85.9493 71.6262 86.51C70.0209 88.2997 68.016 89.3091 65.8693 89.3091C63.7258 89.3091 61.7223 88.2997 60.1178 86.5097C59.615 85.9489 59.1513 85.3079 58.7358 84.5993H55.4517L52.8317 87.6846C52.2691 88.3471 51.2744 88.4281 50.6119 87.8655C49.9493 87.303 49.8683 86.3083 50.4309 85.6459L53.5227 82.005C53.6705 81.8309 53.8545 81.6911 54.0617 81.5952C54.269 81.4993 54.4947 81.4497 54.723 81.4497H57.3603C57.0642 80.4941 56.8487 79.5155 56.716 78.524ZM63.3193 64.582H68.4266C68.4227 63.1771 67.2752 62.032 65.8693 62.032C64.4687 62.032 63.3232 63.1779 63.3193 64.582ZM64.2946 67.7316L62.2378 67.7318C60.6585 69.651 59.6931 72.624 59.6931 75.9379C59.6931 79.4095 60.7546 82.5016 62.463 84.4075C63.0127 85.0206 63.6281 85.5055 64.2946 85.8085V67.7316ZM67.4442 85.8099C68.1131 85.5071 68.7305 85.0214 69.2817 84.4069C70.9915 82.5012 72.0529 79.4093 72.0529 75.9379C72.0529 72.624 71.0874 69.651 69.5081 67.7316H67.4442V85.8099ZM6.6303 51.0487C5.4603 51.0487 4.5103 51.9987 4.5103 53.1687C4.5103 54.3389 5.4603 55.2887 6.6303 55.2887C7.8005 55.2887 8.7503 54.3389 8.7503 53.1687C8.7503 51.9987 7.8005 51.0487 6.6303 51.0487ZM50.004 23.0002C54.1387 23.0002 57.5021 26.3979 57.5021 30.5951C57.5021 33.0018 56.4034 35.1408 54.6856 36.5298V44.9118C54.6856 47.524 52.5666 49.6404 50.004 49.6404C47.4309 49.6404 45.3225 47.524 45.3225 44.9118C45.3225 44.9118 45.3225 36.53 45.3227 36.5302C43.6032 35.141 42.4989 33.0016 42.4989 30.5951C42.4989 26.3983 45.8699 23.0002 50.004 23.0002ZM50.004 26.1375C47.5876 26.1375 45.6362 28.1422 45.6362 30.5951C45.6362 32.2028 46.4689 33.6108 47.7234 34.3961C47.9488 34.5372 48.1345 34.7332 48.2633 34.9657C48.3921 35.1982 48.4597 35.4597 48.4597 35.7255V44.9118C48.4597 45.7824 49.1466 46.5032 50.004 46.5032C50.858 46.5032 51.5483 45.7824 51.5483 44.9118V35.7255C51.5484 35.4597 51.6159 35.1982 51.7447 34.9657C51.8735 34.7332 52.0593 34.5372 52.2846 34.3961C53.5389 33.6108 54.3648 32.2024 54.3648 30.5951C54.3648 28.1426 52.4199 26.1375 50.004 26.1375Z" fill="#505772"/>
</g>
<defs>
<clipPath id="clip0_516_11219">
<rect width="100" height="100" fill="white"/>
</clipPath>
</defs>
</svg>
