<svg width="101" height="101" viewBox="0 0 101 101" fill="none" xmlns="http://www.w3.org/2000/svg">
<path d="M42.5424 82.4835H10.7121C6.58024 82.4835 3.06055 79.1168 3.06055 74.8319V19.8941M3.06055 19.8941H83.5545M3.06055 19.8941V11.3244C3.06055 7.19255 6.42721 3.82588 10.559 3.82588L75.903 3.67285C80.1878 3.67285 83.5545 7.19255 83.5545 11.3244V19.8941M83.5545 19.8941V42.2365" stroke="black" stroke-width="2" stroke-miterlimit="1" stroke-linecap="round" stroke-linejoin="round"/>
<path d="M56.4681 14.8444H17.2923C15.609 14.8444 14.3848 13.4672 14.3848 11.9369C14.3848 10.2535 15.762 9.0293 17.2923 9.0293H56.6211C58.3045 9.0293 59.5287 10.4066 59.5287 11.9369C59.5287 13.4672 58.1514 14.8444 56.4681 14.8444Z" stroke="black" stroke-width="2" stroke-miterlimit="1" stroke-linecap="round" stroke-linejoin="round"/>
<path d="M66.415 8.87598L72.3832 14.8442ZM72.3832 8.87598L66.415 14.8442Z" fill="black"/>
<path d="M66.415 8.87598L72.3832 14.8442M72.3832 8.87598L66.415 14.8442" stroke="black" stroke-width="2" stroke-miterlimit="10" stroke-linecap="round" stroke-linejoin="round"/>
<path d="M68.7106 52.4899C69.4757 51.4187 69.9348 50.1945 69.9348 48.9702V48.2051M62.2833 52.4899C61.5182 51.5717 61.0591 50.1945 61.0591 48.9702V48.2051" fill="black"/>
<path d="M68.7106 52.4899C69.4757 51.4187 69.9348 50.1945 69.9348 48.9702V48.2051M62.2833 52.4899C61.5182 51.5717 61.0591 50.1945 61.0591 48.9702V48.2051" stroke="black" stroke-width="2" stroke-miterlimit="10" stroke-linecap="round" stroke-linejoin="round"/>
<path d="M60.753 56.3159C60.753 53.5614 62.8954 51.4189 65.65 51.4189C68.4045 51.4189 70.5469 53.5614 70.5469 56.3159M72.8424 75.5977L67.3333 78.6583C66.4151 79.2705 65.1909 79.2705 64.1197 78.6583L58.6106 75.5977C57.5394 74.9856 56.9272 73.9144 56.9272 72.8432V60.1417C56.9272 58.3053 58.3045 56.928 60.1409 56.928H71.1591C72.9954 56.928 74.3727 58.3053 74.3727 60.1417V72.8432C74.3727 74.0674 73.7606 75.1386 72.8424 75.5977Z" fill="black"/>
<path d="M60.753 56.3159C60.753 53.5614 62.8954 51.4189 65.65 51.4189C68.4045 51.4189 70.5469 53.5614 70.5469 56.3159M72.8424 75.5977L67.3333 78.6583C66.4151 79.2705 65.1909 79.2705 64.1197 78.6583L58.6106 75.5977C57.5394 74.9856 56.9272 73.9144 56.9272 72.8432V60.1417C56.9272 58.3053 58.3045 56.928 60.1409 56.928H71.1591C72.9954 56.928 74.3727 58.3053 74.3727 60.1417V72.8432C74.3727 74.0674 73.7606 75.1386 72.8424 75.5977Z" stroke="black" stroke-width="2" stroke-miterlimit="10" stroke-linecap="round" stroke-linejoin="round"/>
<path d="M56.9273 62.2834H57.5395C62.1304 62.2834 65.6501 65.9562 65.6501 70.3941V79.1168M73.9137 62.2834C69.3228 62.2834 65.8031 65.9562 65.8031 70.3941V79.1168M74.3728 63.0486H75.7501C77.1273 63.0486 78.5046 62.2835 79.1167 61.0592L79.7289 59.835M74.3728 73.1486H75.7501C77.1273 73.1486 78.5046 73.9137 79.1167 75.138L79.7289 76.3622M74.3728 68.0986H79.1167ZM56.9273 63.0486H55.5501C54.1728 63.0486 52.7955 62.2835 52.1834 61.0592L51.5713 59.835M56.9273 73.1486H55.5501C54.1728 73.1486 52.7955 73.9137 52.1834 75.138L51.5713 76.3622M56.9273 68.0986H52.1834Z" fill="black"/>
<path d="M56.9273 62.2834H57.5395C62.1304 62.2834 65.6501 65.9562 65.6501 70.3941V79.1168M73.9137 62.2834C69.3228 62.2834 65.8031 65.9562 65.8031 70.3941V79.1168M74.3728 63.0486H75.7501C77.1273 63.0486 78.5046 62.2835 79.1167 61.0592L79.7289 59.835M74.3728 73.1486H75.7501C77.1273 73.1486 78.5046 73.9137 79.1167 75.138L79.7289 76.3622M74.3728 68.0986H79.1167M56.9273 63.0486H55.5501C54.1728 63.0486 52.7955 62.2835 52.1834 61.0592L51.5713 59.835M56.9273 73.1486H55.5501C54.1728 73.1486 52.7955 73.9137 52.1834 75.138L51.5713 76.3622M56.9273 68.0986H52.1834" stroke="black" stroke-width="2" stroke-miterlimit="10" stroke-linecap="round" stroke-linejoin="round"/>
<path d="M65.6501 36.7278C50.041 36.7278 37.4925 49.4293 37.4925 64.8853C37.4925 80.4944 50.194 93.0429 65.6501 93.0429C81.2592 93.0429 93.8077 80.3414 93.8077 64.8853C93.8077 49.4293 81.2592 36.7278 65.6501 36.7278ZM65.6501 87.5338C53.1016 87.5338 43.0016 77.4338 43.0016 64.8853C43.0016 52.3369 53.1016 42.2369 65.6501 42.2369C78.1986 42.2369 88.2986 52.3369 88.2986 64.8853C88.2986 77.4338 78.1986 87.5338 65.6501 87.5338ZM88.7577 64.8853H97.9395ZM33.3607 64.8853H42.5425ZM65.6501 41.7778V32.5959ZM65.6501 97.1747V87.9929ZM10.8652 30.1475H25.5561V43.3081H10.8652V30.1475ZM33.3607 32.749H48.9698ZM33.3607 40.8596H39.0228ZM10.8652 52.949H31.6774ZM10.8652 62.5899H26.1683ZM10.8652 72.2308H27.6986Z" fill="black"/>
<path d="M88.7577 64.8853H97.9395M33.3607 64.8853H42.5425M65.6501 41.7778V32.5959M65.6501 97.1747V87.9929M33.3607 32.749H48.9698M33.3607 40.8596H39.0228M10.8652 52.949H31.6774M10.8652 62.5899H26.1683M10.8652 72.2308H27.6986M65.6501 36.7278C50.041 36.7278 37.4925 49.4293 37.4925 64.8853C37.4925 80.4944 50.194 93.0429 65.6501 93.0429C81.2592 93.0429 93.8077 80.3414 93.8077 64.8853C93.8077 49.4293 81.2592 36.7278 65.6501 36.7278ZM65.6501 87.5338C53.1016 87.5338 43.0016 77.4338 43.0016 64.8853C43.0016 52.3369 53.1016 42.2369 65.6501 42.2369C78.1986 42.2369 88.2986 52.3369 88.2986 64.8853C88.2986 77.4338 78.1986 87.5338 65.6501 87.5338ZM10.8652 30.1475H25.5561V43.3081H10.8652V30.1475Z" stroke="black" stroke-width="2" stroke-miterlimit="10" stroke-linecap="round" stroke-linejoin="round"/>
</svg>
