<svg width="183" height="100" viewBox="0 0 183 100" fill="none" xmlns="http://www.w3.org/2000/svg">
<g clip-path="url(#clip0_7_2)">
<rect width="183" height="100" fill="white"/>
<path d="M99.4949 78.8459H46.5453C43.4953 78.8459 41 76.3506 41 73.3002V10.5457C41 7.49525 43.4953 5 46.5453 5H136.223C139.273 5 141.769 7.49526 141.769 10.5457V32.9541" stroke="#505772" stroke-width="3" stroke-linecap="round" stroke-linejoin="round"/>
<path d="M67.5379 19.2306C104.076 19.2306 115.999 19.2306 115.999 19.2306" stroke="#505772" stroke-width="3" stroke-linecap="round" stroke-linejoin="round"/>
<path d="M64.4552 45.7697C80.4798 45.7697 85.9992 45.7697 85.9992 45.7697M54.8455 45.7697C56.7239 45.7697 58.501 45.7697 60.1809 45.7697H54.8455Z" stroke="#505772" stroke-width="3" stroke-linecap="round" stroke-linejoin="round"/>
<path d="M64.4552 54.3666C80.4798 54.3666 85.9992 54.3666 85.9992 54.3666M54.8455 54.3666C56.7239 54.3666 58.501 54.3666 60.1809 54.3666H54.8455Z" stroke="#505772" stroke-width="3" stroke-linecap="round" stroke-linejoin="round"/>
<path d="M64.4552 63.7448C80.4798 63.7448 85.9992 63.7448 85.9992 63.7448M54.8455 63.7448C56.7239 63.7448 58.501 63.7448 60.1809 63.7448H54.8455Z" stroke="#505772" stroke-width="3" stroke-linecap="round" stroke-linejoin="round"/>
<path d="M122.532 73.8277C131.13 73.8277 138.1 66.8578 138.1 58.2601C138.1 49.6623 131.13 42.6924 122.532 42.6924C113.934 42.6924 106.964 49.6624 106.964 58.2601C106.964 66.8578 113.934 73.8277 122.532 73.8277Z" stroke="#505772" stroke-width="3" stroke-linecap="round" stroke-linejoin="round"/>
<path d="M109.845 84.6151V100L122.538 91.9229L135.23 100V84.6151" stroke="#505772" stroke-width="3" stroke-linecap="round" stroke-linejoin="round"/>
<path d="M124.446 31.2468L128.787 37.2525L135.977 34.7527L137.283 42.0475L144.845 42.9139L142.856 50.0533L149.293 54.1151L144.404 59.6842L148.442 66.1372L141.62 69.0332L142.458 76.5988L135.055 76.2484L132.528 83.4281L126.01 79.9012L120.617 85.273L116.276 79.267L109.086 81.7673L107.781 74.4723L100.218 73.6055L102.207 66.4667L95.7701 62.4044L100.659 56.8358L96.6215 50.3828L103.443 47.4866L102.605 39.9209L110.008 40.2711L112.536 33.0913L119.053 36.6186L124.446 31.2468Z" stroke="#505772" stroke-width="3" stroke-linecap="round" stroke-linejoin="round"/>
<path d="M114.846 56.923L121.384 63.0767L131.768 52.692" stroke="#505772" stroke-width="3" stroke-linecap="round" stroke-linejoin="round"/>
<path d="M76.4044 28.0175C99.5682 28.0175 107.127 28.0175 107.127 28.0175" stroke="#505772" stroke-width="3" stroke-linecap="round" stroke-linejoin="round"/>
</g>
<defs>
<clipPath id="clip0_7_2">
<rect width="183" height="100" fill="white"/>
</clipPath>
</defs>
</svg>
