<svg width="100" height="100" viewBox="0 0 100 100" fill="none" xmlns="http://www.w3.org/2000/svg">
<path d="M67.6109 33.8055C67.6109 33.0265 66.9735 32.3891 66.1945 32.3891H55.6185V24.5515H52.7856V32.3891H46.3645V24.5515H43.5316V32.3891H33.8055C33.0264 32.3891 32.389 33.0265 32.389 33.8055V43.5317H24.5515V46.3645H32.389V52.7857H24.5515V55.6186H32.389V66.1946C32.389 66.9736 33.0264 67.611 33.8055 67.611H43.5316V75.4486H46.3645V67.611H52.7856V75.4486H55.6185V67.611H66.1945C66.9735 67.611 67.6109 66.9736 67.6109 66.1946V55.6186H75.4485V52.7857H67.6109V46.3645H75.4485V43.5317H67.6109V33.8055ZM64.7781 64.7781H35.2219V35.222H64.7545V64.7781H64.7781Z" fill="#505772" stroke="#505772" stroke-width="0.5"/>
<path d="M98.56 41.6431H89.8253C88.7866 36.6383 86.8508 31.9877 84.0652 27.7384L90.2266 21.577C90.7696 21.034 90.7696 20.1133 90.2266 19.5703L80.406 9.74976C79.8631 9.2304 78.9424 9.2304 78.3994 9.74976L72.238 15.9112C67.9887 13.1256 63.3144 11.1898 58.3333 10.1511V1.41643C58.3333 0.637394 57.6959 0 56.9169 0H43.0359C42.2568 0 41.6195 0.637394 41.6195 1.41643V10.1511C36.6147 11.1898 31.9641 13.1256 27.7148 15.9112L21.5534 9.74976C21.2937 9.49008 20.916 9.32483 20.5618 9.32483C20.1841 9.32483 19.83 9.46648 19.5703 9.74976L9.74976 19.5703C9.2068 20.1133 9.2068 21.034 9.74976 21.577L15.9112 27.7384C13.1256 31.9877 11.1898 36.6619 10.1511 41.6431H1.41643C0.637394 41.6431 0 42.2805 0 43.0595V56.9405C0 57.7195 0.637394 58.3569 1.41643 58.3569H10.1511C11.1898 63.3617 13.1256 68.0123 15.9112 72.2616L9.74976 78.423C9.2068 78.966 9.2068 79.8867 9.74976 80.4296L19.5703 90.2502C20.1133 90.7932 21.034 90.7932 21.577 90.2502L27.7384 84.0888C31.9877 86.8744 36.6619 88.8102 41.6431 89.8489V98.5836C41.6431 99.3626 42.2805 100 43.0595 100H56.9405C57.7195 100 58.3569 99.3626 58.3569 98.5836V89.8489C63.3617 88.8102 68.0123 86.8744 72.2616 84.0888L78.423 90.2502C78.966 90.7932 79.8631 90.7932 80.4296 90.2502L90.2502 80.4296C90.5099 80.17 90.6752 79.7923 90.6752 79.4381C90.6752 79.084 90.5335 78.7063 90.2502 78.4466L84.0888 72.2852C86.8744 68.0359 88.8102 63.3617 89.8489 58.3805H98.5836C99.3626 58.3805 100 57.7432 100 56.9641V43.0831C99.9764 42.2805 99.339 41.6431 98.56 41.6431V41.6431ZM97.1435 55.5241H88.6686C87.9839 55.5241 87.3938 56.0198 87.2757 56.7044C86.3078 62.1341 84.2304 67.1388 81.0906 71.6478C80.6893 72.2144 80.7602 72.9698 81.2559 73.4655L87.2521 79.4618L79.4381 87.2757L73.4419 81.2795C72.9462 80.7838 72.1907 80.7365 71.6242 81.1143C67.1388 84.254 62.1105 86.3314 56.6808 87.2993C55.9962 87.4174 55.5241 88.0075 55.5241 88.6922V97.1671H44.4759V88.6922C44.4759 88.0075 43.9802 87.4174 43.3192 87.2993C37.8895 86.3314 32.8612 84.254 28.3758 81.1143C27.8093 80.7129 27.0538 80.7838 26.5581 81.2795L20.5618 87.2757L12.7479 79.4618L18.7441 73.4655C19.2398 72.9698 19.2871 72.2144 18.9093 71.6478C15.7696 67.1624 13.6922 62.1341 12.7243 56.7044C12.6062 56.0198 12.0161 55.5241 11.3314 55.5241H2.85647V44.4759H11.3314C12.0161 44.4759 12.6062 43.9802 12.7243 43.2956C13.6922 37.8659 15.7696 32.8376 18.9093 28.3522C19.3107 27.7856 19.2398 27.0302 18.7441 26.5345L12.7479 20.5382L20.5618 12.7243L26.5581 18.7205C27.0538 19.2162 27.8093 19.2635 28.3758 18.8857C32.8612 15.746 37.8895 13.6686 43.3192 12.7007C44.0038 12.5826 44.4759 11.9924 44.4759 11.3078V2.85647H55.5241V11.3314C55.5241 12.0161 56.0198 12.6062 56.6808 12.7243C62.1105 13.6922 67.1388 15.7696 71.6242 18.9093C72.1907 19.3107 72.9462 19.2398 73.4419 18.7441L79.4381 12.7479L87.2521 20.5618L81.2559 26.5581C80.7602 27.0538 80.7129 27.8093 81.0906 28.3758C84.2304 32.8612 86.3078 37.8895 87.2757 43.3192C87.3938 44.0038 87.9839 44.4995 88.6686 44.4995H97.1435V55.5241V55.5241Z" fill="#505772" stroke="#505772" stroke-width="0.5"/>
</svg>
