<svg width="102" height="100" viewBox="0 0 102 100" fill="none" xmlns="http://www.w3.org/2000/svg">
<path d="M68.6109 33.8055C68.6109 33.0264 67.9735 32.389 67.1945 32.389H56.6185V24.5515H53.7856V32.389H47.3645V24.5515H44.5316V32.389H34.8055C34.0264 32.389 33.389 33.0264 33.389 33.8055V43.5316H25.5515V46.3645H33.389V52.7856H25.5515V55.6185H33.389V66.1945C33.389 66.9735 34.0264 67.6109 34.8055 67.6109H44.5316V75.4485H47.3645V67.6109H53.7856V75.4485H56.6185V67.6109H67.1945C67.9735 67.6109 68.6109 66.9735 68.6109 66.1945V55.6185H76.4485V52.7856H68.6109V46.3645H76.4485V43.5316H68.6109V33.8055ZM65.7781 64.7781H36.2219V35.2219H65.7545V64.7781H65.7781Z" fill="#505772" stroke="#505772" stroke-width="0.5"/>
<path d="M99.56 41.6431H90.8253C89.7866 36.6383 87.8508 31.9877 85.0652 27.7384L91.2266 21.577C91.7696 21.034 91.7696 20.1133 91.2266 19.5703L81.406 9.74976C80.8631 9.2304 79.9424 9.2304 79.3994 9.74976L73.238 15.9112C68.9887 13.1256 64.3144 11.1898 59.3333 10.1511V1.41643C59.3333 0.637394 58.6959 0 57.9169 0H44.0359C43.2568 0 42.6195 0.637394 42.6195 1.41643V10.1511C37.6147 11.1898 32.9641 13.1256 28.7148 15.9112L22.5534 9.74976C22.2937 9.49008 21.916 9.32483 21.5618 9.32483C21.1841 9.32483 20.83 9.46648 20.5703 9.74976L10.7498 19.5703C10.2068 20.1133 10.2068 21.034 10.7498 21.577L16.9112 27.7384C14.1256 31.9877 12.1898 36.6619 11.1511 41.6431H2.41643C1.63739 41.6431 1 42.2805 1 43.0595V56.9405C1 57.7195 1.63739 58.3569 2.41643 58.3569H11.1511C12.1898 63.3617 14.1256 68.0123 16.9112 72.2616L10.7498 78.423C10.2068 78.966 10.2068 79.8867 10.7498 80.4296L20.5703 90.2502C21.1133 90.7932 22.034 90.7932 22.577 90.2502L28.7384 84.0888C32.9877 86.8744 37.6619 88.8102 42.6431 89.8489V98.5836C42.6431 99.3626 43.2805 100 44.0595 100H57.9405C58.7195 100 59.3569 99.3626 59.3569 98.5836V89.8489C64.3617 88.8102 69.0123 86.8744 73.2616 84.0888L79.423 90.2502C79.966 90.7932 80.8631 90.7932 81.4296 90.2502L91.2502 80.4296C91.5099 80.17 91.6752 79.7923 91.6752 79.4381C91.6752 79.084 91.5335 78.7063 91.2502 78.4466L85.0888 72.2852C87.8744 68.0359 89.8102 63.3617 90.8489 58.3805H99.5836C100.363 58.3805 101 57.7432 101 56.9641V43.0831C100.976 42.2805 100.339 41.6431 99.56 41.6431V41.6431ZM98.1435 55.5241H89.6686C88.9839 55.5241 88.3938 56.0198 88.2757 56.7044C87.3078 62.1341 85.2304 67.1388 82.0906 71.6478C81.6893 72.2144 81.7602 72.9698 82.2559 73.4655L88.2521 79.4618L80.4381 87.2757L74.4419 81.2795C73.9462 80.7838 73.1907 80.7365 72.6242 81.1143C68.1388 84.254 63.1105 86.3314 57.6808 87.2993C56.9962 87.4174 56.5241 88.0075 56.5241 88.6922V97.1671H45.4759V88.6922C45.4759 88.0075 44.9802 87.4174 44.3192 87.2993C38.8895 86.3314 33.8612 84.254 29.3758 81.1143C28.8093 80.7129 28.0538 80.7838 27.5581 81.2795L21.5618 87.2757L13.7479 79.4618L19.7441 73.4655C20.2398 72.9698 20.2871 72.2144 19.9093 71.6478C16.7696 67.1624 14.6922 62.1341 13.7243 56.7044C13.6062 56.0198 13.0161 55.5241 12.3314 55.5241H3.85647V44.4759H12.3314C13.0161 44.4759 13.6062 43.9802 13.7243 43.2956C14.6922 37.8659 16.7696 32.8376 19.9093 28.3522C20.3107 27.7856 20.2398 27.0302 19.7441 26.5345L13.7479 20.5382L21.5618 12.7243L27.5581 18.7205C28.0538 19.2162 28.8093 19.2635 29.3758 18.8857C33.8612 15.746 38.8895 13.6686 44.3192 12.7007C45.0038 12.5826 45.4759 11.9924 45.4759 11.3078V2.85647H56.5241V11.3314C56.5241 12.0161 57.0198 12.6062 57.6808 12.7243C63.1105 13.6922 68.1388 15.7696 72.6242 18.9093C73.1907 19.3107 73.9462 19.2398 74.4419 18.7441L80.4381 12.7479L88.2521 20.5618L82.2559 26.5581C81.7602 27.0538 81.7129 27.8093 82.0906 28.3758C85.2304 32.8612 87.3078 37.8895 88.2757 43.3192C88.3938 44.0038 88.9839 44.4995 89.6686 44.4995H98.1435V55.5241V55.5241Z" fill="#505772" stroke="#505772" stroke-width="0.5"/>
</svg>
