<svg width="75" height="80" viewBox="0 0 75 80" fill="none" xmlns="http://www.w3.org/2000/svg">
<path d="M34.3709 76.0565C27.3436 75.9147 20.3709 75.371 13.5436 73.5147C11.3709 72.9147 9.2291 72.0292 7.17092 71.1147C5.40001 70.3147 4.51455 68.971 4.60001 66.8292C4.77092 62.7438 4.65637 58.6856 4.65637 54.571C4.80001 54.571 4.91455 54.5438 4.97092 54.571C9.37092 57.3438 14.3436 58.371 19.3709 59.2001C25.3146 60.171 31.3146 60.4292 37.3146 60.371V57.2292C36.1146 57.2292 34.9436 57.2292 33.7709 57.2001C27.5709 57.0292 21.3709 56.5438 15.3436 55.0856C13.0291 54.5456 10.8 53.7456 8.54364 52.9456C7.6291 52.631 6.80001 52.0583 6.00001 51.4874C5.0291 50.831 4.60001 49.8874 4.60001 48.6583C4.65637 44.6583 4.6291 40.6874 4.6291 36.6874V35.8019C6.6291 36.6583 8.51455 37.6019 10.4855 38.2874C14.3436 39.631 18.3709 40.431 22.4291 40.7456C27.3709 41.1165 37 41.2583 41.9436 41.4874V38.2001C39.3146 38.2292 32.0855 38.2856 29.5146 38.171C24.7436 37.9438 20 37.4565 15.3709 36.2565C12.8 35.6001 10.2855 34.6292 7.77092 33.7438C7.14364 33.5147 6.57092 33.0856 6.0291 32.6856C5.0291 31.971 4.57092 31.0565 4.57092 29.771C4.6291 25.4856 4.60001 21.2001 4.60001 16.9147C4.74364 16.9147 4.85637 16.8856 4.91455 16.9147C8.88546 19.4001 13.3709 20.4856 17.8855 21.3147C24.7436 22.5438 31.6855 22.9147 38.6564 22.6856C45.9146 22.4292 53.1146 21.7438 60.0291 19.4001C61.9436 18.7438 63.8 17.8292 65.6855 17.0001V31.1147H68.8564C68.8855 25.5147 68.8564 17.6292 68.8855 12.0292C68.8855 10.5438 68.4 9.25649 67.3709 8.22921C66.6291 7.48558 65.8564 6.71467 64.9436 6.28558C62.5436 5.20012 60.1436 4.08558 57.6291 3.34376C51.9146 1.71467 46.0546 1.11467 40.1436 0.885577C31.1436 0.514668 22.2 1.00012 13.4 3.11467C10.0855 3.91467 6.88546 4.97103 4.11455 7.08558C2.31455 8.45649 1.37092 10.171 1.40001 12.5456C1.48546 21.6583 1.4291 30.7728 1.4291 39.8874C1.4291 49.1728 1.45637 58.4583 1.40001 67.7165C1.40001 69.4874 1.94364 71.0019 3.28546 72.031C4.77092 73.1728 6.37092 74.2583 8.08546 75.0019C14.3709 77.631 21.0291 78.4583 27.7436 78.9456C30.9146 79.1728 36.4 79.2019 39.5436 79.1456V76.0001C38.6855 76.0565 35.3709 76.0565 34.3709 76.0565V76.0565ZM6.65637 9.37103C9.57092 7.51467 12.8291 6.62921 16.1455 5.88558C23.9727 4.17103 31.8873 3.68558 39.8873 4.05649C45.8018 4.34376 51.6582 4.97103 57.3455 6.65649C59.0873 7.17103 60.8018 7.82921 62.4582 8.60012C63.8873 9.25649 65.7164 9.97103 65.7455 11.7438C65.7455 13.6001 63.8582 14.2292 62.4309 14.971C59.6309 16.4001 56.6018 17.2001 53.5164 17.8565C47.4873 19.1147 41.3727 19.5438 35.0873 19.6292C27.7455 19.5147 20.3164 19.0001 13.0873 16.8292C10.8873 16.171 8.71637 15.2565 6.71637 14.1438C4.00001 12.6292 4.0291 11.0292 6.65455 9.37103H6.65637Z" fill="#505772"/>
<path d="M68.7436 49.5144V42.9708C68.7436 37.7435 64.5145 33.4854 59.3436 33.4854H54.7436C49.6564 33.4854 45.3436 37.829 45.3436 42.9708V49.3144C42.5436 49.5999 40.3709 51.9435 40.3709 54.7999V68.9999C40.3709 72.0563 42.8564 74.5435 45.9145 74.5435H67.1709C70.2855 74.5435 72.8 72.0563 72.8 68.9999V54.7999C72.8 52.3144 71.0855 50.1999 68.7436 49.5144V49.5144ZM48.5436 42.9708C48.5436 39.5435 51.3709 36.6563 54.7436 36.6563H59.3436C62.7709 36.6563 65.5436 39.4854 65.5436 42.9708V49.2563H48.5145V42.9708H48.5436V42.9708ZM69.6 69.029C69.6 70.3144 68.5145 71.3708 67.1436 71.3708H45.8855C44.6 71.3708 43.5436 70.2854 43.5436 69.029V54.829C43.5436 53.5435 44.6291 52.4854 45.8855 52.4854H67.1455C68.4873 52.4854 69.6018 53.5435 69.6018 54.829V69.029H69.6Z" fill="#505772"/>
</svg>
