<svg width="103" height="100" viewBox="0 0 103 100" fill="none" xmlns="http://www.w3.org/2000/svg">
<mask id="mask0_23_86" style="mask-type:alpha" maskUnits="userSpaceOnUse" x="0" y="2" width="78" height="91">
<path d="M0 2.22443H77.4533V92.1955H0V2.22443Z" fill="#01408C"/>
</mask>
<g mask="url(#mask0_23_86)">
<path fill-rule="evenodd" clip-rule="evenodd" d="M6.03332 12.0911C9.37998 9.96222 13.1178 8.94444 16.92 8.09111C25.9067 6.12444 34.9867 5.56666 44.1711 5.99111C50.9578 6.32444 57.6822 7.04222 64.2067 8.97778C66.2067 9.56666 68.1733 10.32 70.0755 11.2067C71.7133 11.9622 73.8111 12.78 73.8466 14.8156C73.8466 16.9444 71.6822 17.6689 70.0422 18.5178C66.8311 20.16 63.3533 21.0756 59.8089 21.8311C52.8911 23.2756 45.8755 23.7644 38.6622 23.8667C30.2333 23.7333 21.7066 23.14 13.4111 20.6511C10.8866 19.8956 8.39554 18.8467 6.09998 17.5711C2.98443 15.8311 3.01776 13.9933 6.03332 12.0911M37.8422 88.6244C29.7755 88.4622 21.7733 87.8378 13.9355 85.7089C11.4444 85.02 8.98443 84.0022 6.62443 82.9533C4.59109 82.0356 3.57554 80.4956 3.67332 78.0356C3.87109 73.3467 3.73998 68.6911 3.73998 63.9689C3.90443 63.9689 4.03332 63.9356 4.09998 63.9689C9.14887 67.1489 14.8555 68.3289 20.6266 69.28C27.4489 70.3933 34.3333 70.6867 41.22 70.6244V67.0156C39.8422 67.0156 38.4955 67.0156 37.1511 66.9844C30.0378 66.7889 22.9222 66.2289 16.0022 64.5578C13.3467 63.9356 10.7889 63.0156 8.19776 62.0978C7.14887 61.74 6.19776 61.0822 5.28221 60.4244C4.16443 59.6733 3.67332 58.5889 3.67332 57.18C3.73998 52.5889 3.70443 48.0333 3.70443 43.44V42.4244C6.00221 43.4067 8.16443 44.4911 10.4289 45.2778C14.8555 46.8178 19.48 47.7356 24.1355 48.0956C29.8066 48.5244 40.8578 48.6867 46.5311 48.9489V45.18C43.5133 45.2111 35.22 45.2778 32.2689 45.1444C26.7889 44.8822 21.3467 44.3267 16.0333 42.9489C13.0822 42.1933 10.2 41.0778 7.31332 40.0622C6.59109 39.8022 5.93554 39.3089 5.31109 38.8511C4.16443 38.0289 3.63998 36.98 3.63998 35.5044C3.70665 30.5867 3.67332 25.6689 3.67332 20.7489C3.83776 20.7489 3.96887 20.7178 4.03332 20.7489C8.59109 23.6022 13.74 24.8511 18.92 25.7978C26.7889 27.2089 34.76 27.6356 42.76 27.3711C51.0889 27.0778 59.3533 26.2911 67.2866 23.6022C69.4866 22.8467 71.6155 21.7978 73.78 20.8467V37.0467H77.42C77.4533 30.62 77.42 21.5667 77.4533 15.14C77.4533 13.4378 76.8978 11.9622 75.7178 10.7822C74.86 9.92889 73.9778 9.04222 72.9267 8.55111C70.1733 7.30666 67.42 6.02666 64.5311 5.17333C57.9778 3.30444 51.2555 2.61778 44.4667 2.35111C34.1333 1.92666 23.8733 2.48444 13.7733 4.90889C9.96887 5.83111 6.29554 7.04222 3.11554 9.46889C1.04887 11.0422 -0.0311288 13.0133 -1.77114e-05 15.7333C0.0999823 26.1933 0.0333156 36.6511 0.0333156 47.1111C0.0333156 57.7689 0.066649 68.4289 -1.77114e-05 79.0511C-1.77114e-05 81.0844 0.622204 82.82 2.16443 84.0022C3.87109 85.3156 5.70443 86.56 7.67332 87.4133C14.8867 90.4289 22.5289 91.38 30.2333 91.9378C33.8733 92.2022 40.1711 92.2333 43.7755 92.1667V88.5622C42.7933 88.6244 38.9889 88.6244 37.8422 88.6244Z" fill="#505772"/>
</g>
<path fill-rule="evenodd" clip-rule="evenodd" d="M76.2222 89.8244L74.9622 90.0866V96.58C73.1578 96.7644 71.2711 96.7644 69.4933 96.58V90.0889L68.2333 89.8266C65.7178 89.3289 63.3622 88.3333 61.2178 86.92L60.14 86.2133L55.5556 90.7933C54.1156 89.6422 52.8311 88.3577 51.68 86.9177L56.2644 82.3355L55.5556 81.26C54.1156 79.1133 53.1467 76.7289 52.6489 74.24L52.3867 72.9844H45.8933C45.8133 72.0955 45.7644 71.1755 45.7644 70.2377C45.7644 69.3177 45.8133 68.4022 45.8933 67.4844H52.3867L52.6489 66.2289C53.1467 63.7133 54.1422 61.3577 55.5556 59.2089L56.2644 58.1355L51.68 53.5533C52.8311 52.1089 54.1422 50.8289 55.5556 49.6777L60.1378 54.26L61.2156 53.5533C63.36 52.1089 65.7422 51.1444 68.2311 50.6466L69.4911 50.3822V43.8889C71.2956 43.7111 73.1822 43.7111 74.96 43.8889V50.3844L76.22 50.6489C78.7356 51.1466 81.0911 52.1377 83.2356 53.5555L84.3111 54.2622L88.8933 49.68C90.3355 50.8311 91.6178 52.1111 92.7711 53.5555L88.1867 58.1377L88.8933 59.2111C90.3089 61.36 91.3044 63.7422 91.8022 66.2311L92.0667 67.4866H98.5578C98.6356 68.3777 98.6889 69.2933 98.6889 70.24C98.6889 71.1511 98.6356 72.0711 98.5578 72.9866H92.0667L91.8022 74.2422C91.3044 76.7577 90.3089 79.1155 88.8911 81.2622L88.1867 82.3377L92.7711 86.92C91.6178 88.36 90.3355 89.6444 88.8933 90.7955L84.3111 86.2133L83.2356 86.92C81.0911 88.36 78.7089 89.3289 76.22 89.8266L76.2222 89.8244ZM88.5555 95.0111L89.6556 94.2222C92.1711 92.4444 94.3444 90.2444 96.1244 87.7555L96.9089 86.6577L92.2222 81.9689C93.2978 80.16 94.08 78.2222 94.6333 76.18H101.34L101.547 74.8466C101.78 73.38 101.887 71.8333 101.887 70.2866C101.887 68.7444 101.78 67.1977 101.547 65.7311L101.313 64.34H94.6044C94.08 62.3266 93.2711 60.3889 92.1978 58.5533L96.9089 53.8666L96.1244 52.7666C94.3178 50.2555 92.1467 48.08 89.6578 46.3L88.5578 45.5133L83.8422 50.2022C82.0356 49.1289 80.0978 48.34 78.0533 47.7889V41.0889L76.72 40.88C73.76 40.4355 70.5644 40.4355 67.6067 40.88L66.2689 41.0889V47.7911C64.2555 48.3155 62.3178 49.1311 60.4822 50.2044L55.7689 45.5155L54.6689 46.3022C52.1533 48.0822 49.9822 50.28 48.1978 52.7689L47.4133 53.8689L52.1267 58.5822C51.0556 60.4177 50.2667 62.3289 49.7178 64.3689H43.0133L42.8067 65.7066C42.5689 67.2 42.4622 68.72 42.4622 70.2622C42.4622 71.8089 42.5689 73.3533 42.8067 74.8222L43.0133 76.1555H49.7178C50.24 78.1711 51.0556 80.1111 52.1267 81.9422L47.4133 86.66L48.1978 87.76C50.0067 90.2711 52.18 92.4489 54.6689 94.2266L55.7689 95.0133L60.4822 90.3244C62.2911 91.3977 64.2244 92.1822 66.2689 92.7311V99.4355L67.6067 99.6466C69.1 99.8844 70.6156 99.9866 72.1622 99.9866C73.7067 99.9866 75.2533 99.8844 76.72 99.6466L78.0533 99.4355V92.7311C80.0711 92.2089 82.0089 91.3977 83.8422 90.3244L88.5578 95.0133L88.5555 95.0111Z" fill="#505772"/>
</svg>
