<svg width="100" height="100" viewBox="0 0 100 100" fill="none" xmlns="http://www.w3.org/2000/svg">
<path d="M66.9545 34.4091C66.9545 33.6591 66.3409 33.0455 65.5909 33.0455H55.4091V25.5H52.6818V33.0455H46.5V25.5H43.7727V33.0455H34.4091C33.6591 33.0455 33.0455 33.6591 33.0455 34.4091V43.7727H25.5V46.5H33.0455V52.6818H25.5V55.4091H33.0455V65.5909C33.0455 66.3409 33.6591 66.9545 34.4091 66.9545H43.7727V74.5H46.5V66.9545H52.6818V74.5H55.4091V66.9545H65.5909C66.3409 66.9545 66.9545 66.3409 66.9545 65.5909V55.4091H74.5V52.6818H66.9545V46.5H74.5V43.7727H66.9545V34.4091ZM64.2273 64.2273H35.7727V35.7727H64.2045V64.2273H64.2273Z" fill="#505772" stroke="#505772" stroke-width="0.5"/>
<path d="M96.75 41.9544H88.3409C87.3409 37.1363 85.4773 32.659 82.7955 28.5681L88.7273 22.6363C89.25 22.1135 89.25 21.2272 88.7273 20.7044L79.2727 11.2499C78.75 10.7499 77.8636 10.7499 77.3409 11.2499L71.4091 17.1817C67.3182 14.4999 62.8182 12.6363 58.0227 11.6363V3.22716C58.0227 2.47716 57.4091 1.86353 56.6591 1.86353H43.2954C42.5454 1.86353 41.9318 2.47716 41.9318 3.22716V11.6363C37.1136 12.6363 32.6364 14.4999 28.5455 17.1817L22.6136 11.2499C22.3636 10.9999 22 10.8408 21.6591 10.8408C21.2955 10.8408 20.9545 10.9772 20.7045 11.2499L11.25 20.7044C10.7273 21.2272 10.7273 22.1135 11.25 22.6363L17.1818 28.5681C14.5 32.659 12.6364 37.159 11.6364 41.9544H3.22727C2.47727 41.9544 1.86363 42.5681 1.86363 43.3181V56.6817C1.86363 57.4317 2.47727 58.0453 3.22727 58.0453H11.6364C12.6364 62.8635 14.5 67.3408 17.1818 71.4317L11.25 77.3635C10.7273 77.8863 10.7273 78.7726 11.25 79.2953L20.7045 88.7499C21.2273 89.2726 22.1136 89.2726 22.6364 88.7499L28.5682 82.8181C32.6591 85.4999 37.1591 87.3635 41.9545 88.3635V96.7726C41.9545 97.5226 42.5682 98.1363 43.3182 98.1363H56.6818C57.4318 98.1363 58.0455 97.5226 58.0455 96.7726V88.3635C62.8636 87.3635 67.3409 85.4999 71.4318 82.8181L77.3636 88.7499C77.8864 89.2726 78.75 89.2726 79.2954 88.7499L88.75 79.2953C89 79.0453 89.1591 78.6817 89.1591 78.3408C89.1591 77.9999 89.0227 77.6363 88.75 77.3863L82.8182 71.4544C85.5 67.3635 87.3636 62.8635 88.3636 58.0681H96.7727C97.5227 58.0681 98.1364 57.4544 98.1364 56.7044V43.3408C98.1136 42.5681 97.5 41.9544 96.75 41.9544V41.9544ZM95.3864 55.3181H87.2273C86.5682 55.3181 86 55.7953 85.8864 56.4544C84.9545 61.6817 82.9545 66.4999 79.9318 70.8408C79.5454 71.3863 79.6136 72.1135 80.0909 72.5908L85.8636 78.3635L78.3409 85.8863L72.5682 80.1135C72.0909 79.6363 71.3636 79.5908 70.8182 79.9544C66.5 82.9772 61.6591 84.9772 56.4318 85.909C55.7727 86.0226 55.3182 86.5908 55.3182 87.2499V95.409H44.6818V87.2499C44.6818 86.5908 44.2045 86.0226 43.5682 85.909C38.3409 84.9772 33.5 82.9772 29.1818 79.9544C28.6364 79.5681 27.9091 79.6363 27.4318 80.1135L21.6591 85.8863L14.1364 78.3635L19.9091 72.5908C20.3864 72.1135 20.4318 71.3863 20.0682 70.8408C17.0455 66.5226 15.0454 61.6817 14.1136 56.4544C14 55.7953 13.4318 55.3181 12.7727 55.3181H4.61363V44.6817H12.7727C13.4318 44.6817 14 44.2044 14.1136 43.5453C15.0454 38.3181 17.0455 33.4772 20.0682 29.159C20.4545 28.6135 20.3864 27.8863 19.9091 27.409L14.1364 21.6363L21.6591 14.1135L27.4318 19.8863C27.9091 20.3635 28.6364 20.409 29.1818 20.0453C33.5 17.0226 38.3409 15.0226 43.5682 14.0908C44.2273 13.9772 44.6818 13.409 44.6818 12.7499V4.61353H55.3182V12.7726C55.3182 13.4317 55.7955 13.9999 56.4318 14.1135C61.6591 15.0453 66.5 17.0453 70.8182 20.0681C71.3636 20.4544 72.0909 20.3863 72.5682 19.909L78.3409 14.1363L85.8636 21.659L80.0909 27.4317C79.6136 27.909 79.5682 28.6363 79.9318 29.1817C82.9545 33.4999 84.9545 38.3408 85.8864 43.5681C86 44.2272 86.5682 44.7044 87.2273 44.7044H95.3864V55.3181V55.3181Z" fill="#505772" stroke="#505772" stroke-width="0.5"/>
</svg>
