<svg width="100" height="100" viewBox="0 0 100 100" fill="none" xmlns="http://www.w3.org/2000/svg">
<g clip-path="url(#clip0_516_11206)">
<path d="M79.6755 34.5554C79.7147 34.2156 79.6414 33.8722 79.4666 33.5781C79.2919 33.284 79.0255 33.0553 78.7083 32.9273L67.4458 28.3851C63.1715 26.6781 59.2347 24.2249 55.8192 21.1398L51.0489 16.8116C50.7614 16.5508 50.3871 16.4062 49.9989 16.4062C49.6107 16.4062 49.2364 16.5508 48.9489 16.8116L44.1786 21.1398C40.7631 24.2249 36.8264 26.6781 32.552 28.3851L21.2895 32.9273C20.972 33.0551 20.7053 33.2836 20.5303 33.5778C20.3553 33.8719 20.2817 34.2154 20.3208 34.5554L21.3786 43.6554C23.3161 60.3679 33.2489 75.2882 48.6255 84.5898L49.188 84.9304C49.4326 85.0785 49.713 85.1568 49.9989 85.1568C50.2848 85.1568 50.5653 85.0785 50.8099 84.9304L51.3708 84.5898C66.7489 75.2882 76.6802 60.3679 78.6208 43.6554L79.6755 34.5554ZM75.5161 43.296C73.6989 58.9523 64.4052 72.9585 49.9989 81.7679C35.5927 72.9585 26.2989 58.9523 24.4817 43.296L23.563 35.3788L33.7208 31.282C38.3376 29.4375 42.5897 26.7869 46.2786 23.4538L49.9989 20.0788L53.7177 23.4538C57.407 26.787 61.6597 29.4377 66.277 31.282L76.4349 35.3788L75.5161 43.296Z" fill="#505772"/>
<path d="M49.9998 98.4383C57.8769 98.4373 65.6355 96.5196 72.606 92.8508L71.1435 90.0867C62.3175 94.7378 52.2034 96.3468 42.3697 94.6643C32.5361 92.9817 23.5323 88.1015 16.7547 80.7805C9.97713 73.4596 5.80443 64.1069 4.88371 54.1729C3.96298 44.2389 6.34568 34.2787 11.6623 25.8368L9.01855 24.1649C4.40073 31.4937 1.83237 39.9267 1.58096 48.5854C1.32955 57.2441 3.4043 65.8118 7.5891 73.3962C11.7739 80.9807 17.9157 87.3044 25.3748 91.7087C32.8339 96.1131 41.3374 98.4369 49.9998 98.4383ZM49.9998 4.68832C58.1029 4.68964 66.0574 6.86346 73.035 10.9834C80.0126 15.1033 85.7579 21.0187 89.6727 28.1133C93.5875 35.208 95.5285 43.2226 95.2937 51.3222C95.0588 59.4219 92.6566 67.3105 88.3373 74.1664L90.981 75.8352C96.6649 66.8106 99.2122 56.1627 98.228 45.5428C97.2437 34.923 92.7829 24.9246 85.5374 17.0983C78.2918 9.27195 68.6664 4.05499 58.1537 2.25645C47.6411 0.45791 36.8288 2.1783 27.3935 7.15082L28.856 9.91488C35.3755 6.48294 42.6322 4.68914 49.9998 4.68832Z" fill="#505772"/>
<path d="M60.9375 34.375H39.0625C37.8197 34.3762 36.6281 34.8705 35.7493 35.7493C34.8705 36.6281 34.3762 37.8197 34.375 39.0625V42.1875C34.3785 43.3445 34.813 44.4587 35.5938 45.3125C34.813 46.1663 34.3785 47.2805 34.375 48.4375V51.5625C34.3785 52.7195 34.813 53.8337 35.5938 54.6875C34.813 55.5413 34.3785 56.6555 34.375 57.8125V60.9375C34.3762 62.1803 34.8705 63.3719 35.7493 64.2507C36.6281 65.1295 37.8197 65.6238 39.0625 65.625H60.9375C62.1803 65.6238 63.3719 65.1295 64.2507 64.2507C65.1295 63.3719 65.6238 62.1803 65.625 60.9375V57.8125C65.6215 56.6555 65.187 55.5413 64.4063 54.6875C65.187 53.8337 65.6215 52.7195 65.625 51.5625V48.4375C65.6215 47.2805 65.187 46.1663 64.4063 45.3125C65.187 44.4587 65.6215 43.3445 65.625 42.1875V39.0625C65.6238 37.8197 65.1295 36.6281 64.2507 35.7493C63.3719 34.8705 62.1803 34.3762 60.9375 34.375ZM62.5 60.9375C62.4996 61.3518 62.3348 61.749 62.0419 62.0419C61.749 62.3348 61.3518 62.4996 60.9375 62.5H39.0625C38.6482 62.4996 38.251 62.3348 37.9581 62.0419C37.6652 61.749 37.5004 61.3518 37.5 60.9375V57.8125C37.5004 57.3982 37.6652 57.001 37.9581 56.7081C38.251 56.4152 38.6482 56.2504 39.0625 56.25H60.9375C61.3518 56.2504 61.749 56.4152 62.0419 56.7081C62.3348 57.001 62.4996 57.3982 62.5 57.8125V60.9375ZM62.5 51.5625C62.4996 51.9768 62.3348 52.374 62.0419 52.6669C61.749 52.9598 61.3518 53.1246 60.9375 53.125H39.0625C38.6482 53.1246 38.251 52.9598 37.9581 52.6669C37.6652 52.374 37.5004 51.9768 37.5 51.5625V48.4375C37.5004 48.0232 37.6652 47.626 37.9581 47.3331C38.251 47.0402 38.6482 46.8754 39.0625 46.875H60.9375C61.3518 46.8754 61.749 47.0402 62.0419 47.3331C62.3348 47.626 62.4996 48.0232 62.5 48.4375V51.5625ZM62.5 42.1875C62.4996 42.6018 62.3348 42.999 62.0419 43.2919C61.749 43.5848 61.3518 43.7496 60.9375 43.75H39.0625C38.6482 43.7496 38.251 43.5848 37.9581 43.2919C37.6652 42.999 37.5004 42.6018 37.5 42.1875V39.0625C37.5004 38.6482 37.6652 38.251 37.9581 37.9581C38.251 37.6652 38.6482 37.5004 39.0625 37.5H60.9375C61.3518 37.5004 61.749 37.6652 62.0419 37.9581C62.3348 38.251 62.4996 38.6482 62.5 39.0625V42.1875Z" fill="#505772"/>
<path d="M39.0625 39.0625H42.1875V42.1875H39.0625V39.0625ZM48.4375 39.0625H60.9375V42.1875H48.4375V39.0625ZM39.0625 48.4375H42.1875V51.5625H39.0625V48.4375ZM48.4375 48.4375H60.9375V51.5625H48.4375V48.4375ZM39.0625 57.8125H42.1875V60.9375H39.0625V57.8125ZM48.4375 57.8125H60.9375V60.9375H48.4375V57.8125ZM76.5625 90.625H85.9375C86.3519 90.625 86.7493 90.4604 87.0424 90.1674C87.3354 89.8743 87.5 89.4769 87.5 89.0625V79.6875C87.5 79.2731 87.3354 78.8757 87.0424 78.5826C86.7493 78.2896 86.3519 78.125 85.9375 78.125H76.5625C76.1481 78.125 75.7507 78.2896 75.4576 78.5826C75.1646 78.8757 75 79.2731 75 79.6875V89.0625C75 89.4769 75.1646 89.8743 75.4576 90.1674C75.7507 90.4604 76.1481 90.625 76.5625 90.625ZM78.125 81.25H84.375V87.5H78.125V81.25ZM14.0625 21.875H23.4375C23.8519 21.875 24.2493 21.7104 24.5424 21.4174C24.8354 21.1243 25 20.7269 25 20.3125V10.9375C25 10.5231 24.8354 10.1257 24.5424 9.83265C24.2493 9.53962 23.8519 9.375 23.4375 9.375H14.0625C13.6481 9.375 13.2507 9.53962 12.9576 9.83265C12.6646 10.1257 12.5 10.5231 12.5 10.9375V20.3125C12.5 20.7269 12.6646 21.1243 12.9576 21.4174C13.2507 21.7104 13.6481 21.875 14.0625 21.875ZM15.625 12.5H21.875V18.75H15.625V12.5Z" fill="#505772"/>
</g>
<defs>
<clipPath id="clip0_516_11206">
<rect width="100" height="100" fill="white"/>
</clipPath>
</defs>
</svg>
