<svg width="72" height="80" viewBox="0 0 72 80" fill="none" xmlns="http://www.w3.org/2000/svg">
<path d="M33.371 76.0564C26.3437 75.9145 19.371 75.3709 12.5437 73.5145C10.371 72.9145 8.22916 72.0291 6.17098 71.1145C4.40007 70.3145 3.51461 68.9709 3.60007 66.8291C3.77098 62.7436 3.65643 58.6855 3.65643 54.5709C3.80007 54.5709 3.91461 54.5436 3.97098 54.5709C8.37098 57.3436 13.3437 58.3709 18.371 59.2C24.3146 60.1709 30.3146 60.4291 36.3146 60.3709V57.2291C35.1146 57.2291 33.9437 57.2291 32.771 57.2C26.571 57.0291 20.371 56.5436 14.3437 55.0855C12.0292 54.5455 9.80007 53.7455 7.5437 52.9455C6.62916 52.6309 5.80007 52.0582 5.00007 51.4873C4.02916 50.8309 3.60007 49.8873 3.60007 48.6582C3.65643 44.6582 3.62916 40.6873 3.62916 36.6873V35.8018C5.62916 36.6582 7.51461 37.6018 9.48552 38.2873C13.3437 39.6309 17.371 40.4309 21.4292 40.7455C26.371 41.1164 36.0001 41.2582 40.9437 41.4873V38.2C38.3146 38.2291 31.0855 38.2854 28.5146 38.1709C23.7437 37.9436 19.0001 37.4564 14.371 36.2564C11.8001 35.6 9.28552 34.6291 6.77098 33.7436C6.1437 33.5145 5.57098 33.0855 5.02916 32.6855C4.02916 31.9709 3.57098 31.0564 3.57098 29.7709C3.62916 25.4855 3.60007 21.2 3.60007 16.9145C3.7437 16.9145 3.85643 16.8855 3.91461 16.9145C7.88552 19.4 12.371 20.4855 16.8855 21.3145C23.7437 22.5436 30.6855 22.9145 37.6564 22.6855C44.9146 22.4291 52.1146 21.7436 59.0292 19.4C60.9437 18.7436 62.8001 17.8291 64.6855 17V31.1145H67.8564C67.8855 25.5145 67.8564 17.6291 67.8855 12.0291C67.8855 10.5436 67.4001 9.25636 66.371 8.22909C65.6292 7.48546 64.8564 6.71455 63.9437 6.28545C61.5437 5.2 59.1437 4.08545 56.6292 3.34364C50.9146 1.71455 45.0546 1.11455 39.1437 0.885455C30.1437 0.514546 21.2001 1 12.4001 3.11455C9.08552 3.91455 5.88552 4.97091 3.11461 7.08545C1.31461 8.45636 0.370976 10.1709 0.400067 12.5455C0.485522 21.6582 0.429158 30.7727 0.429158 39.8873C0.429158 49.1727 0.456431 58.4582 0.400067 67.7164C0.400067 69.4873 0.943703 71.0018 2.28552 72.0309C3.77098 73.1727 5.37098 74.2582 7.08552 75.0018C13.371 77.6309 20.0292 78.4582 26.7437 78.9454C29.9146 79.1727 35.4001 79.2018 38.5437 79.1454V76C37.6855 76.0564 34.371 76.0564 33.371 76.0564ZM5.65643 9.37091C8.57098 7.51455 11.8292 6.62909 15.1455 5.88545C22.9728 4.17091 30.8873 3.68545 38.8873 4.05636C44.8019 4.34364 50.6583 4.97091 56.3455 6.65636C58.0873 7.17091 59.8019 7.82909 61.4583 8.6C62.8873 9.25636 64.7164 9.97091 64.7455 11.7436C64.7455 13.6 62.8583 14.2291 61.431 14.9709C58.631 16.4 55.6019 17.2 52.5164 17.8564C46.4873 19.1145 40.3728 19.5436 34.0873 19.6291C26.7455 19.5145 19.3164 19 12.0873 16.8291C9.88734 16.1709 7.71643 15.2564 5.71643 14.1436C3.00007 12.6291 3.02916 11.0291 5.65461 9.37091H5.65643Z" fill="#505772"/>
<path d="M67.7438 49.5146V42.9709C67.7438 37.7437 63.5147 33.4855 58.3438 33.4855H53.7438C48.6565 33.4855 44.3438 37.8291 44.3438 42.9709V49.3146C41.5438 49.6 39.3711 51.9437 39.3711 54.8V69C39.3711 72.0564 41.8565 74.5437 44.9147 74.5437H66.1711C69.2856 74.5437 71.8002 72.0564 71.8002 69V54.8C71.8002 52.3146 70.0856 50.2 67.7438 49.5146ZM47.5438 42.9709C47.5438 39.5437 50.3711 36.6564 53.7438 36.6564H58.3438C61.7711 36.6564 64.5438 39.4855 64.5438 42.9709V49.2564H47.5147V42.9709H47.5438ZM68.6002 69.0291C68.6002 70.3146 67.5147 71.3709 66.1438 71.3709H44.8856C43.6002 71.3709 42.5438 70.2855 42.5438 69.0291V54.8291C42.5438 53.5437 43.6293 52.4855 44.8856 52.4855H66.1456C67.4875 52.4855 68.602 53.5437 68.602 54.8291V69.0291H68.6002Z" fill="#505772"/>
</svg>
