<svg width="100" height="100" viewBox="0 0 100 100" fill="none" xmlns="http://www.w3.org/2000/svg">
<path d="M66.9545 34.4091C66.9545 33.6591 66.3409 33.0455 65.5909 33.0455H55.4091V25.5H52.6818V33.0455H46.5V25.5H43.7727V33.0455H34.4091C33.6591 33.0455 33.0455 33.6591 33.0455 34.4091V43.7727H25.5V46.5H33.0455V52.6818H25.5V55.4091H33.0455V65.5909C33.0455 66.3409 33.6591 66.9545 34.4091 66.9545H43.7727V74.5H46.5V66.9545H52.6818V74.5H55.4091V66.9545H65.5909C66.3409 66.9545 66.9545 66.3409 66.9545 65.5909V55.4091H74.5V52.6818H66.9545V46.5H74.5V43.7727H66.9545V34.4091ZM64.2273 64.2273H35.7727V35.7727H64.2045V64.2273H64.2273Z" fill="#505772" stroke="#505772" stroke-width="0.5"/>
<path d="M96.75 41.9547H88.3409C87.3409 37.1365 85.4773 32.6592 82.7955 28.5683L88.7273 22.6365C89.25 22.1138 89.25 21.2274 88.7273 20.7047L79.2727 11.2501C78.75 10.7501 77.8636 10.7501 77.3409 11.2501L71.4091 17.182C67.3182 14.5001 62.8182 12.6365 58.0227 11.6365V3.22741C58.0227 2.47741 57.4091 1.86377 56.6591 1.86377H43.2955C42.5455 1.86377 41.9318 2.47741 41.9318 3.22741V11.6365C37.1136 12.6365 32.6364 14.5001 28.5455 17.182L22.6136 11.2501C22.3636 11.0001 22 10.841 21.6591 10.841C21.2955 10.841 20.9546 10.9774 20.7046 11.2501L11.25 20.7047C10.7273 21.2274 10.7273 22.1138 11.25 22.6365L17.1818 28.5683C14.5 32.6592 12.6364 37.1592 11.6364 41.9547H3.22728C2.47728 41.9547 1.86365 42.5683 1.86365 43.3183V56.682C1.86365 57.432 2.47728 58.0456 3.22728 58.0456H11.6364C12.6364 62.8638 14.5 67.341 17.1818 71.432L11.25 77.3638C10.7273 77.8865 10.7273 78.7729 11.25 79.2956L20.7046 88.7501C21.2273 89.2729 22.1136 89.2729 22.6364 88.7501L28.5682 82.8183C32.6591 85.5001 37.1591 87.3638 41.9546 88.3638V96.7729C41.9546 97.5229 42.5682 98.1365 43.3182 98.1365H56.6818C57.4318 98.1365 58.0455 97.5229 58.0455 96.7729V88.3638C62.8636 87.3638 67.3409 85.5001 71.4318 82.8183L77.3636 88.7501C77.8864 89.2729 78.75 89.2729 79.2955 88.7501L88.75 79.2956C89 79.0456 89.1591 78.682 89.1591 78.341C89.1591 78.0001 89.0227 77.6365 88.75 77.3865L82.8182 71.4547C85.5 67.3638 87.3636 62.8638 88.3636 58.0683H96.7727C97.5227 58.0683 98.1364 57.4547 98.1364 56.7047V43.341C98.1136 42.5683 97.5 41.9547 96.75 41.9547V41.9547ZM95.3864 55.3183H87.2273C86.5682 55.3183 86 55.7956 85.8864 56.4547C84.9546 61.682 82.9546 66.5001 79.9318 70.841C79.5455 71.3865 79.6137 72.1138 80.0909 72.591L85.8636 78.3638L78.3409 85.8865L72.5682 80.1138C72.0909 79.6365 71.3636 79.591 70.8182 79.9547C66.5 82.9774 61.6591 84.9774 56.4318 85.9092C55.7727 86.0229 55.3182 86.591 55.3182 87.2501V95.4092H44.6818V87.2501C44.6818 86.591 44.2046 86.0229 43.5682 85.9092C38.3409 84.9774 33.5 82.9774 29.1818 79.9547C28.6364 79.5683 27.9091 79.6365 27.4318 80.1138L21.6591 85.8865L14.1364 78.3638L19.9091 72.591C20.3864 72.1138 20.4318 71.3865 20.0682 70.841C17.0455 66.5229 15.0455 61.682 14.1136 56.4547C14 55.7956 13.4318 55.3183 12.7727 55.3183H4.61365V44.682H12.7727C13.4318 44.682 14 44.2047 14.1136 43.5456C15.0455 38.3183 17.0455 33.4774 20.0682 29.1592C20.4546 28.6138 20.3864 27.8865 19.9091 27.4092L14.1364 21.6365L21.6591 14.1138L27.4318 19.8865C27.9091 20.3638 28.6364 20.4092 29.1818 20.0456C33.5 17.0229 38.3409 15.0229 43.5682 14.091C44.2273 13.9774 44.6818 13.4092 44.6818 12.7501V4.61377H55.3182V12.7729C55.3182 13.432 55.7955 14.0001 56.4318 14.1138C61.6591 15.0456 66.5 17.0456 70.8182 20.0683C71.3636 20.4547 72.0909 20.3865 72.5682 19.9092L78.3409 14.1365L85.8636 21.6592L80.0909 27.432C79.6137 27.9092 79.5682 28.6365 79.9318 29.182C82.9546 33.5001 84.9546 38.341 85.8864 43.5683C86 44.2274 86.5682 44.7047 87.2273 44.7047H95.3864V55.3183V55.3183Z" fill="#505772" stroke="#505772" stroke-width="0.5"/>
</svg>
