<svg width="84" height="100" viewBox="0 0 84 100" fill="none" xmlns="http://www.w3.org/2000/svg">
<path d="M14.6653 58.9764C20.2445 55.9043 25.8238 52.8574 31.3758 49.7854C31.7321 49.5806 32.1382 49.0435 32.1382 48.659C32.086 44.0009 33.7605 40.2121 37.4112 37.3176C37.4883 37.2675 37.5133 37.1651 37.6403 36.9603C34.6998 31.7879 31.7071 26.5405 28.7915 21.4705C27.1171 21.4705 25.5447 21.6753 24.0722 21.4478C19.2303 20.6787 16.8979 15.9682 17.0749 12.6914C17.329 8.28822 21.2088 4.52444 25.4699 4.54947C28.8664 4.57451 31.5551 6.16285 33.1274 9.25989C34.6726 12.2818 34.5727 15.3288 32.4422 18.0663C31.7071 19.0129 31.8069 19.6023 32.3651 20.5489C35.0038 25.0546 37.5904 29.6125 40.1248 34.1955C40.6081 35.0648 41.0119 35.397 42.076 35.0921C45.9332 34.0408 49.4818 35.0921 52.9578 37.2152C58.1309 30.8936 63.3539 24.5448 68.2979 18.4759C67.0568 16.4552 65.5593 14.7394 64.8491 12.7415C63.0249 7.62148 66.3693 1.8097 71.6967 0.351063C76.9969 -1.10757 82.6783 2.1169 83.7424 7.46902C85.4146 15.8909 78.6192 20.5763 72.7881 19.8071C72.3048 19.7571 71.5697 20.1667 71.2157 20.5763C68.6019 23.6733 66.0426 26.8477 63.456 29.9971C60.9693 33.0418 58.5098 36.0637 56.0253 39.1107C55.8484 39.3405 55.6691 39.5704 55.4422 39.9026C58.1808 43.3842 58.562 47.3278 57.7497 51.5262C57.6726 51.8834 57.9539 52.4978 58.2829 52.7026C60.6154 54.1886 62.9728 55.5698 65.3324 57.0307C66.0676 57.4904 66.7006 57.4904 67.5378 57.1081C72.2549 54.9054 77.0718 56.6211 79.1524 61.1017C81.2058 65.6073 79.0253 70.9549 74.4104 72.6457C69.6434 74.4115 64.6994 71.8264 63.2768 66.8862C62.7459 64.9929 62.9478 63.2248 63.5559 61.4067C63.6829 61.0244 63.6081 60.2302 63.3517 60.0504C60.9194 58.4894 58.4349 57.0057 55.8733 55.4424C53.82 58.4894 51.0042 60.1528 47.6054 60.922C47.3535 60.972 47.0223 61.5614 47.0223 61.8936C46.8952 67.6531 46.7954 73.3875 46.7704 79.1492C46.7704 79.5588 47.2764 80.2233 47.6825 80.378C51.6894 81.8867 54.1989 84.6015 54.7321 88.9546C55.4921 95.2761 50.2441 99.7567 45.5271 99.9865C38.1985 100.346 33.9896 93.4329 35.0787 88.3903C35.7889 85.0361 37.5904 82.5034 40.7079 80.9924C41.4702 80.6329 42.2802 80.378 43.4465 79.9411C43.4465 74.0019 43.4465 67.9352 43.4238 61.8959C43.4238 61.5614 43.0676 61.0767 42.7885 60.947C37.1843 58.8216 36.1701 58.0024 33.1002 53.0098C32.2653 53.4467 31.3758 53.8814 30.5137 54.3683C26.2549 56.7235 22.0438 59.1038 17.7601 61.4067C16.7958 61.9209 16.671 62.508 16.8457 63.4547C17.6852 68.602 13.828 73.4148 8.52786 73.4671C3.40692 73.5422 -0.193848 68.8068 0.00808564 64.6835C0.160103 61.3839 1.73246 58.7442 4.67524 57.2356C7.71559 55.6722 10.7605 55.852 13.5762 58.0024C13.7781 58.1572 13.9551 58.3346 14.1593 58.4894C14.2342 58.6168 14.4112 58.7716 14.6653 58.9764V58.9764ZM54.58 47.8898C54.5551 42.6424 50.344 38.2141 45.4 38.2642C40.0749 38.3165 35.6618 42.6424 35.6618 47.8671C35.6391 53.1646 40.0749 57.5428 45.4772 57.5678C50.4211 57.5428 54.605 53.1145 54.58 47.8921V47.8898ZM44.944 83.5775C41.3182 83.6298 38.3505 86.5994 38.4254 90.106C38.5025 93.665 41.5701 96.6073 45.096 96.5049C48.3927 96.4025 51.2062 93.4329 51.2062 90.0287C51.2062 86.5721 48.2656 83.5251 44.944 83.5775V83.5775ZM74.3332 3.57781C70.7846 3.60284 68.0188 6.34262 67.9689 9.84926C67.9439 13.4082 70.8096 16.2754 74.3604 16.2504C77.6821 16.2231 80.5205 13.2535 80.4956 9.87429C80.4729 6.34262 77.732 3.5505 74.3332 3.57781V3.57781ZM76.3889 64.6084C76.3889 61.971 73.9793 59.5657 71.3677 59.6158C68.8039 59.6681 66.4987 61.996 66.4737 64.5833C66.4465 67.3481 68.6791 69.626 71.3927 69.626C74.0541 69.626 76.3889 67.2708 76.3889 64.6084ZM8.58005 69.7784C11.0645 69.7534 13.2971 67.4483 13.3448 64.8632C13.372 62.1235 11.2165 59.8456 8.58005 59.8706C5.73937 59.898 3.42961 62.1758 3.4818 64.9156C3.53398 67.6804 5.76432 69.8035 8.58005 69.7784ZM25.5697 18.0413C28.3605 18.0913 30.5159 15.9409 30.5159 13.101C30.5159 10.4136 28.3332 8.18582 25.6718 8.13348C22.881 8.10845 20.7029 10.2589 20.7029 13.0737C20.7029 15.7134 22.9332 17.9889 25.5697 18.0413Z" fill="#505772"/>
</svg>
