<svg width="98" height="100" viewBox="0 0 98 100" fill="none" xmlns="http://www.w3.org/2000/svg">
<path d="M16.8757 7.65522C17.0467 8.32154 17.1607 9.02117 17.1607 9.71843C17.1607 10.4181 17.0467 11.1153 16.8757 11.784H39.4151V7.62428H16.8757V7.65522V7.65522ZM82.1759 7.65522H58.7197V11.8126H82.1759C82.0049 11.1463 81.8908 10.4466 81.8908 9.74937C81.8908 9.04973 82.0049 8.32154 82.1759 7.65522ZM58.7173 -0.0526747H39.4436V19.5229H58.7197V-0.0574341L58.7173 -0.0526747ZM54.6559 15.4202H43.486V4.07613H54.6559V15.4202Z" fill="#505772"/>
<path d="M16.8756 7.65527C15.9589 4.10712 12.8072 1.4585 9.02841 1.4585C4.53241 1.4585 0.893799 5.15419 0.893799 9.71848C0.893799 14.2875 4.53241 17.9808 9.02841 17.9808C12.8095 17.9808 15.9589 15.3322 16.8756 11.7841C17.0467 11.1178 17.1607 10.4181 17.1607 9.71848C17.1607 9.02123 17.0467 8.32397 16.8756 7.65527V7.65527ZM9.02841 13.8782C6.76497 13.8782 4.95992 12.0173 4.95992 9.74942C4.95992 7.45062 6.79347 5.61824 9.02841 5.61824C11.2895 5.61824 13.0945 7.47917 13.0945 9.74942C13.123 12.0173 11.2895 13.8782 9.02841 13.8782ZM90.0231 1.48943C86.242 1.48943 83.0926 4.13567 82.1758 7.68383C82.0048 8.35253 81.8908 9.04978 81.8908 9.74942C81.8908 10.4467 82.0048 11.1439 82.1758 11.8126C83.0926 15.3632 86.242 18.0094 90.0231 18.0094C94.5191 18.0094 98.1577 14.3161 98.1577 9.74942C98.1577 5.18037 94.5191 1.48943 90.0231 1.48943V1.48943ZM90.0231 13.8782C87.762 13.8782 85.9569 12.0173 85.9569 9.74942C85.9569 7.45062 87.7905 5.61824 90.0231 5.61824C92.2865 5.61824 94.0916 7.47917 94.0916 9.74942C94.0916 12.0173 92.258 13.8782 90.0231 13.8782ZM47.0319 39.7362V60.2112C47.6922 60.0375 48.381 59.9209 49.0673 59.9209C49.7846 59.9209 50.4425 60.0375 51.1004 60.2112V39.127C50.471 38.1941 49.8701 37.2946 49.2669 36.3903L47.0343 39.7362H47.0319Z" fill="#505772"/>
<path d="M40.9327 68.1809C40.9327 72.7476 44.5713 76.4409 49.0674 76.4409C53.5634 76.4409 57.202 72.7476 57.202 68.1833C57.202 64.3424 54.5941 61.1417 51.1004 60.2112C50.4425 60.0375 49.7537 59.9209 49.0674 59.9209C48.3525 59.9209 47.6922 60.0375 47.0343 60.2112C43.5406 61.1155 40.9327 64.3139 40.9327 68.1833V68.1809ZM49.0674 64.0211C51.3308 64.0211 53.1335 65.8845 53.1335 68.1523C53.1335 70.4488 51.3023 72.2811 49.0674 72.2811C46.8039 72.2811 45.0012 70.4202 45.0012 68.1523C45.0012 65.8845 46.8324 64.0211 49.0674 64.0211Z" fill="#505772"/>
<path d="M24.4925 65.8249L33.6009 85.9239H32.6556V99.9999H65.4791V85.9239H65.1632C67.9135 79.087 73.3263 65.8249 73.6422 65.8249C74.0412 65.8249 49.2669 29.0892 49.2669 29.0892L24.4949 65.8249H24.4925ZM61.4391 95.8711H36.7526V90.0242H61.4391V95.8711ZM69.0298 66.0581C67.4266 69.4016 65.0207 75.308 60.8382 85.7478H38.0138L29.1619 66.2032L47.0343 39.7075L49.2977 36.3616C49.8986 37.2636 50.4995 38.1655 51.1289 39.0959C58.1472 49.5952 66.2225 61.6366 69.0298 66.0581Z" fill="#505772"/>
</svg>
