<svg width="100" height="100" viewBox="0 0 100 100" fill="none" xmlns="http://www.w3.org/2000/svg">
<path d="M99.9883 8.98883C99.9084 9.15849 99.8392 9.333 99.7813 9.51135C99.3991 11.1284 98.5066 12.5795 97.2359 13.6501C95.9651 14.7206 94.3836 15.3538 92.7251 15.4559C91.0667 15.558 89.4194 15.1236 88.0269 14.2169C86.6345 13.3103 85.5708 11.9796 84.9932 10.4216C84.8683 10.116 84.4575 9.72167 84.1749 9.71838C80.0441 9.67237 75.91 9.6888 71.7759 9.69209C71.6222 9.71182 71.4705 9.7448 71.3224 9.79068C76.7294 12.9321 81.1048 17.5796 83.9146 23.166C86.7245 28.7525 87.8472 35.0361 87.1457 41.2499H90.3695C92.3182 41.2499 92.9689 41.9071 92.9722 43.8065C92.9722 47.3119 92.9722 50.8271 92.9722 54.3521C92.9722 55.9952 92.3149 56.6952 90.6718 56.7018C87.0591 56.7193 83.4443 56.7193 79.8272 56.7018C78.2038 56.7018 77.5268 55.9886 77.5268 54.362C77.5268 50.7821 77.5268 47.2023 77.5268 43.6225C77.5268 41.9794 78.2531 41.2696 79.9258 41.2499C80.9347 41.2499 81.9436 41.2499 82.9524 41.2334C83.0402 41.2183 83.1261 41.1941 83.2088 41.1611C84.1172 33.6548 82.0191 26.0939 77.3724 20.1292C75.0189 17.1229 72.0615 14.6432 68.6908 12.85C65.3202 11.0569 61.6111 9.99005 57.8028 9.71838C57.8028 10.9179 57.8028 12.0187 57.8028 13.1164C57.8028 14.72 57.0799 15.4167 55.463 15.4167C51.8504 15.4167 48.2355 15.4167 44.6184 15.4167C43.0739 15.4167 42.3739 14.7003 42.3608 13.1361C42.3608 12.0352 42.3608 10.9376 42.3608 9.72495C35.5776 10.2018 29.2197 13.2049 24.5428 18.141C21.6498 21.1937 19.4683 24.8488 18.1547 28.8441C16.8411 32.8395 16.428 37.076 16.945 41.2499C17.9835 41.2499 19.0383 41.2499 20.0965 41.2499C21.95 41.2499 22.6433 41.9432 22.6466 43.777C22.6466 47.2604 22.6466 50.7427 22.6466 54.2239C22.6466 56.0379 21.9894 56.6985 20.1754 56.705C16.6701 56.705 13.156 56.705 9.63312 56.705C7.85855 56.705 7.21445 56.0478 7.21116 54.2929C7.21116 50.746 7.21116 47.1979 7.21116 43.6488C7.21116 41.9663 7.90456 41.2696 9.57068 41.2499C10.5796 41.2499 11.5884 41.2499 12.5973 41.2499C12.7162 41.2316 12.8337 41.2052 12.9489 41.171C12.9489 40.0241 12.9489 38.8378 12.9489 37.6481C12.8705 32.2337 14.1927 26.8909 16.7871 22.1378C19.3816 17.3848 23.1603 13.3829 27.7567 10.5202L28.9168 9.78411C28.4567 9.7381 28.1971 9.6888 27.9309 9.6888C24.0269 9.6888 20.1195 9.6888 16.2155 9.66909C15.92 9.61974 15.6167 9.6837 15.3664 9.84819C15.116 10.0127 14.9369 10.2656 14.8648 10.5564C14.1784 12.3358 12.8515 13.7944 11.1448 14.6456C9.43804 15.4969 7.47471 15.6793 5.64034 15.1571C3.83628 14.6469 2.27836 13.5 1.25534 11.9289C0.232317 10.3578 -0.186423 8.46913 0.0767356 6.61288C0.349619 4.69083 1.34088 2.94366 2.85077 1.72342C4.36067 0.503192 6.27695 -0.0993857 8.21347 0.0371166C9.70924 0.0979257 11.152 0.607951 12.3537 1.50071C13.5553 2.39346 14.4602 3.62754 14.9503 5.04206C14.9987 5.27335 15.1316 5.47828 15.323 5.61683C15.5144 5.75538 15.7506 5.81759 15.9854 5.79132C24.5121 5.7738 33.0377 5.7738 41.5622 5.79132C41.7857 5.79132 42.0092 5.76503 42.3739 5.73874C42.3739 4.58527 42.3739 3.46138 42.3739 2.34077C42.3739 0.727227 43.0838 0.0404029 44.7006 0.0206854C48.3133 0.0206854 51.9281 0.0206854 55.5452 0.0206854C55.8565 -0.024343 56.1739 0.00437906 56.4721 0.104537C56.7702 0.204695 57.0407 0.373488 57.2616 0.597314C57.4826 0.82114 57.6478 1.09374 57.7441 1.39315C57.8404 1.69255 57.865 2.01039 57.816 2.32105C57.816 3.42523 57.816 4.52941 57.816 5.74532C58.1676 5.76503 58.4732 5.80118 58.7854 5.80118C67.1478 5.80118 75.5102 5.80118 83.8726 5.80118C84.1365 5.84625 84.4077 5.78958 84.6315 5.64262C84.8553 5.49565 85.0151 5.2693 85.0786 5.0092C85.6521 3.45517 86.7142 2.12913 88.1056 1.23021C89.4969 0.331295 91.1423 -0.0919729 92.7947 0.0239717C94.4309 0.144912 95.9869 0.780318 97.24 1.83926C98.4932 2.8982 99.3792 4.3264 99.7714 5.91949C99.8371 6.16595 99.916 6.40914 99.9883 6.6556V8.98883ZM46.3339 11.4568H53.8396V3.94774H46.3339V11.4568ZM11.1711 52.732H18.667V45.2098H11.1711V52.732ZM88.9958 45.2328H81.4966V52.7484H89.0057L88.9958 45.2328ZM7.67781 11.5357C8.43391 11.5461 9.17603 11.3314 9.8098 10.9189C10.4436 10.5065 10.9403 9.91481 11.2369 9.21924C11.5335 8.52366 11.6166 7.75559 11.4755 7.0127C11.3344 6.2698 10.9755 5.58566 10.4446 5.04726C9.91359 4.50886 9.23449 4.14055 8.49363 3.98915C7.75277 3.83775 6.98362 3.9101 6.28399 4.19702C5.58436 4.48393 4.98587 4.97244 4.56463 5.60041C4.14338 6.22839 3.91842 6.96746 3.91835 7.72363C3.91396 8.7269 4.30697 9.6911 5.01145 10.4054C5.71593 11.1198 6.67458 11.5261 7.67781 11.5357M92.2426 11.5357C92.9992 11.5415 93.7404 11.3221 94.3719 10.9053C95.0033 10.4886 95.4965 9.89332 95.7886 9.19537C96.0807 8.49743 96.1585 7.72835 96.012 6.98605C95.8656 6.24376 95.5016 5.56182 94.9664 5.02706C94.4312 4.49229 93.7489 4.1289 93.0065 3.98313C92.2641 3.83736 91.4951 3.91581 90.7974 4.2085C90.0997 4.50119 89.5049 4.99487 89.0887 5.6267C88.6724 6.25853 88.4537 6.99992 88.4602 7.75649C88.4696 8.75644 88.8712 9.71271 89.5786 10.4195C90.2861 11.1263 91.2427 11.5271 92.2426 11.5357" fill="#505772"/>
<path d="M29.3152 100.002C28.8407 99.7526 28.4535 99.3645 28.2057 98.8894C27.9578 98.4142 27.8611 97.8746 27.9285 97.343C27.9876 93.8924 27.9449 90.4419 27.9514 86.9947C27.9514 85.2398 28.6087 84.5694 30.3668 84.5595C31.1457 84.5595 31.9245 84.5595 32.8545 84.5595C32.7329 84.1652 32.6475 83.8431 32.5259 83.531C30.6363 78.2368 28.7631 72.9394 26.8407 67.6551C26.6434 67.1772 26.5645 66.6586 26.6109 66.1437C26.6572 65.6287 26.8274 65.1325 27.1069 64.6975C34.1175 52.6041 41.1106 40.4987 48.0862 28.3812C49.266 26.3372 50.9025 26.3175 52.0757 28.3451C55.1998 33.7499 58.3207 39.1558 61.4382 44.5627C61.5532 44.7599 61.665 44.9571 61.7669 45.1641C61.9948 45.6017 62.0479 46.1095 61.9155 46.5848C61.7831 47.0601 61.475 47.4673 61.0537 47.724C60.84 47.8575 60.6018 47.9469 60.3531 47.9871C60.1043 48.0273 59.8501 48.0173 59.6052 47.958C59.3603 47.8986 59.1298 47.791 58.9271 47.6413C58.7244 47.4917 58.5536 47.303 58.4248 47.0865C58.0468 46.5213 57.7281 45.9101 57.3863 45.3218C55.8417 42.6468 54.2973 39.9718 52.7527 37.2968C52.5905 36.9849 52.3505 36.72 52.056 36.5278C52.056 36.8674 52.056 37.207 52.056 37.5466C52.056 41.2896 52.0757 45.0326 52.056 48.7757C52.0947 49.1255 52.0373 49.4792 51.8902 49.7989C51.7431 50.1186 51.5118 50.3923 51.221 50.5905C50.9302 50.7888 50.591 50.9041 50.2397 50.9242C49.8883 50.9443 49.538 50.8685 49.2265 50.7047C48.8453 50.4802 48.5399 50.1469 48.3496 49.7475C48.1593 49.3481 48.0928 48.901 48.1585 48.4635C48.1585 44.8486 48.1585 41.2337 48.1585 37.6189V36.2814C47.8463 36.7316 47.6787 36.9386 47.544 37.1785C42.0494 46.6955 36.5515 56.2102 31.0504 65.7228C30.8942 65.9644 30.8004 66.241 30.7775 66.5278C30.7546 66.8146 30.8031 67.1025 30.9189 67.3659C32.8906 72.8057 34.8339 78.2521 36.7487 83.7051C36.8038 83.9829 36.9642 84.2287 37.1963 84.391C37.4284 84.5533 37.7143 84.6195 37.9942 84.576C46.1002 84.5497 54.2063 84.5497 62.3124 84.576C62.5781 84.6137 62.8482 84.5477 63.0666 84.3917C63.285 84.2357 63.435 84.0016 63.4856 83.738C65.4211 78.2532 67.3995 72.7849 69.3154 67.3067C69.4587 66.8046 69.4106 66.2672 69.1806 65.7984C68.3032 64.1322 67.3173 62.5121 66.3873 60.869C66.2106 60.6461 66.0843 60.3877 66.0169 60.1114C65.9495 59.8351 65.9426 59.5474 65.9969 59.2682C66.0511 58.989 66.1651 58.7248 66.331 58.4938C66.4969 58.2628 66.7109 58.0705 66.9581 57.93C67.2054 57.7894 67.4801 57.704 67.7635 57.6796C68.0469 57.6553 68.3322 57.6925 68.5998 57.7888C68.8674 57.885 69.1111 58.0381 69.314 58.2373C69.5169 58.4366 69.6743 58.6774 69.7754 58.9433C70.9223 60.915 72.0298 62.8868 73.203 64.8585C73.4532 65.2559 73.6034 65.7081 73.6406 66.1763C73.6778 66.6445 73.6009 67.1147 73.4166 67.5467C71.504 72.831 69.6243 78.1284 67.738 83.4225C67.6197 83.7511 67.5145 84.0797 67.3535 84.5694C68.3393 84.5694 69.2464 84.5694 70.1402 84.5694C70.4267 84.5395 70.7161 84.5735 70.9879 84.6689C71.2596 84.7643 71.5068 84.9188 71.7117 85.1212C71.9166 85.3236 72.0741 85.5688 72.1728 85.8393C72.2716 86.1099 72.3091 86.3989 72.2828 86.6857C72.3058 90.3959 72.2828 94.1061 72.2828 97.8162C72.2798 98.2702 72.1514 98.7144 71.912 99.1C71.6725 99.4856 71.3312 99.7976 70.9256 100.002H29.3152ZM31.8916 96.0186H68.2999V88.5326H31.8785L31.8916 96.0186Z" fill="#505772"/>
<path d="M42.3746 66.2709C42.3824 64.7438 42.8433 63.2534 43.6988 61.9883C44.5543 60.7233 45.7659 59.7405 47.1803 59.1646C48.5947 58.5886 50.1483 58.4453 51.6442 58.7528C53.1401 59.0603 54.5111 59.8049 55.5835 60.8921C56.656 61.9793 57.3817 63.3603 57.6688 64.8602C57.9559 66.3602 57.7914 67.9116 57.1962 69.3181C56.601 70.7245 55.6018 71.9226 54.3252 72.7608C53.0485 73.5989 51.5519 74.0394 50.0248 74.0264C47.9827 74.0099 46.0305 73.1842 44.5963 71.7303C43.1622 70.2765 42.3632 68.3131 42.3746 66.2709M46.2818 66.2447C46.2701 67.0001 46.4833 67.7419 46.8943 68.3759C47.3053 69.0098 47.8956 69.5072 48.59 69.8047C49.2845 70.1023 50.0517 70.1865 50.7942 70.0468C51.5367 69.9072 52.2208 69.5499 52.7597 69.0203C53.2985 68.4907 53.6678 67.8129 53.8203 67.0729C53.9729 66.333 53.9019 65.5643 53.6165 64.8648C53.331 64.1653 52.844 63.5666 52.2173 63.1446C51.5906 62.7227 50.8526 62.4966 50.0971 62.4952C49.0957 62.4925 48.1337 62.8846 47.4195 63.5865C46.7053 64.2884 46.2965 65.2434 46.2818 66.2447" fill="#505772"/>
<path d="M65.8725 52.8601C65.8729 53.1123 65.8232 53.3621 65.7261 53.5949C65.6289 53.8277 65.4865 54.0388 65.307 54.2159C65.1274 54.393 64.9144 54.5326 64.6803 54.6265C64.4462 54.7204 64.1958 54.7667 63.9436 54.7628C63.6902 54.7593 63.4401 54.706 63.2074 54.6059C62.9746 54.5058 62.7639 54.3608 62.5872 54.1792C62.4105 53.9976 62.2714 53.783 62.1776 53.5477C62.0839 53.3123 62.0374 53.0609 62.0408 52.8076C62.0443 52.5543 62.0975 52.3041 62.1977 52.0714C62.2978 51.8387 62.4428 51.6279 62.6244 51.4512C62.806 51.2745 63.0205 51.1354 63.2559 51.0416C63.4913 50.9479 63.7428 50.9014 63.9961 50.9048C64.2484 50.9069 64.4976 50.9593 64.7293 51.0591C64.961 51.1589 65.1704 51.3039 65.3452 51.4858C65.52 51.6677 65.6567 51.8827 65.7472 52.1181C65.8378 52.3535 65.8804 52.6047 65.8725 52.8568" fill="#505772"/>
</svg>
