<svg width="70" height="75" viewBox="0 0 70 75" fill="none" xmlns="http://www.w3.org/2000/svg">
<g clip-path="url(#clip0_3_973)">
<path d="M11.5108 7.18801C11.6335 7.66528 11.7153 8.16642 11.7153 8.66585C11.7153 9.16698 11.6335 9.66642 11.5108 10.1454H27.6869V7.16585H11.5108V7.18801V7.18801ZM58.3756 7.18801H41.5415V10.1658H58.3756C58.2528 9.68857 58.171 9.18744 58.171 8.68801C58.171 8.18687 58.2528 7.66528 58.3756 7.18801ZM41.5398 1.66698H27.7074V15.6886H41.5415V1.66357L41.5398 1.66698ZM38.625 12.7499H30.6085V4.62437H38.625V12.7499Z" fill="#505772"/>
<path d="M11.5108 7.1879C10.8528 4.64643 8.59089 2.74927 5.87896 2.74927C2.65226 2.74927 0.0408936 5.39643 0.0408936 8.66575C0.0408936 11.9385 2.65226 14.5839 5.87896 14.5839C8.5926 14.5839 10.8528 12.6868 11.5108 10.1453C11.6335 9.66802 11.7153 9.16688 11.7153 8.66575C11.7153 8.16631 11.6335 7.66688 11.5108 7.1879V7.1879ZM5.87896 11.6453C4.25453 11.6453 2.95908 10.3123 2.95908 8.6879C2.95908 7.04131 4.27498 5.72881 5.87896 5.72881C7.50169 5.72881 8.79714 7.06177 8.79714 8.6879C8.8176 10.3123 7.50169 11.6453 5.87896 11.6453ZM64.0074 2.77143C61.2937 2.77143 59.0335 4.66688 58.3756 7.20836C58.2528 7.68734 58.171 8.18677 58.171 8.6879C58.171 9.18734 58.2528 9.68677 58.3756 10.1657C59.0335 12.7089 61.2937 14.6044 64.0074 14.6044C67.2341 14.6044 69.8454 11.9589 69.8454 8.6879C69.8454 5.41518 67.2341 2.77143 64.0074 2.77143V2.77143ZM64.0074 11.6453C62.3846 11.6453 61.0892 10.3123 61.0892 8.6879C61.0892 7.04131 62.4051 5.72881 64.0074 5.72881C65.6318 5.72881 66.9273 7.06177 66.9273 8.6879C66.9273 10.3123 65.6113 11.6453 64.0074 11.6453ZM33.1534 30.1669V44.8328C33.6273 44.7084 34.1216 44.6248 34.6142 44.6248C35.129 44.6248 35.6011 44.7084 36.0733 44.8328V29.7305C35.6216 29.0623 35.1903 28.418 34.7574 27.7703L33.1551 30.1669H33.1534Z" fill="#505772"/>
<path d="M28.7761 50.5415C28.7761 53.8125 31.3875 56.458 34.6142 56.458C37.8409 56.458 40.4523 53.8125 40.4523 50.5432C40.4523 47.792 38.5807 45.4994 36.0733 44.833C35.6011 44.7085 35.1068 44.625 34.6142 44.625C34.1011 44.625 33.6273 44.7085 33.1551 44.833C30.6477 45.4807 28.7761 47.7716 28.7761 50.5432V50.5415ZM34.6142 47.5619C36.2386 47.5619 37.5324 48.8966 37.5324 50.521C37.5324 52.1659 36.2182 53.4784 34.6142 53.4784C32.9898 53.4784 31.696 52.1455 31.696 50.521C31.696 48.8966 33.0102 47.5619 34.6142 47.5619Z" fill="#505772"/>
<path d="M16.9772 48.8538L23.5142 63.2504H22.8358V73.3328H46.3926V63.2504H46.1659C48.1397 58.3533 52.0244 48.8538 52.2511 48.8538C52.5375 48.8538 34.7573 22.5408 34.7573 22.5408L16.9789 48.8538H16.9772ZM43.4931 70.3754H25.7761V66.1874H43.4931V70.3754ZM48.9409 49.0209C47.7903 51.4158 46.0636 55.6465 43.0619 63.1243H26.6812L20.3284 49.1249L33.1551 30.1465L34.7795 27.7499C35.2108 28.3959 35.642 29.0419 36.0937 29.7084C41.1306 37.2288 46.9261 45.8538 48.9409 49.0209Z" fill="#505772"/>
</g>
<defs>
<clipPath id="clip0_3_973">
<rect width="69.8864" height="75" fill="white"/>
</clipPath>
</defs>
</svg>
