<svg width="116" height="100" viewBox="0 0 116 100" fill="none" xmlns="http://www.w3.org/2000/svg">
<path d="M97.4289 47.3178L102.067 47.2251C102.098 46.6814 102.098 45.9832 102.067 45.5581C101.853 41.3145 100.845 37.1638 98.8022 32.0391C96.7873 26.9169 93.9197 22.1581 90.3512 17.9738C85.7134 12.5193 80.0683 8.15469 73.6295 5.03195C70.731 3.63805 68.0153 2.60744 65.3924 1.94012L63.5296 1.48408C62.1898 1.15171 60.7856 0.819334 59.4432 0.608059C56.9388 0.208698 54.3159 0 51.693 0C50.1368 0 48.5187 0.0618366 46.9316 0.211275C42.2629 0.636401 37.687 1.69793 33.2941 3.36494C28.0766 5.36432 23.1632 8.24487 18.7702 11.9138C15.7196 14.4594 12.973 17.3683 10.6232 20.5813C7.42063 24.9175 4.98066 29.5836 3.36261 34.5254C3.08692 35.3138 2.87307 36.1332 2.65921 36.9499L2.35518 38.1016L2.32427 38.1635L2.23409 38.3438C1.49978 41.3764 1.10299 44.0122 0.89172 46.4676C0.464017 51.9247 0.920061 57.4101 2.26243 62.7461C3.54554 67.778 5.58872 72.5961 8.42805 77.0535C11.5379 81.9953 15.4439 86.329 20.0817 89.9954C22.8592 92.1777 25.9098 94.0894 29.1433 95.6637C35.0023 98.4232 45.4991 99.696 48.4569 100L48.7326 95.6044C48.3358 95.5735 47.8488 95.5426 47.5113 95.5143C41.8378 95.1201 37.87 93.8473 33.6909 92.0566C29.9369 90.4514 26.3993 88.3593 23.1941 85.8137C20.3573 83.5721 17.7628 80.9646 15.5367 78.0532C12.1795 73.7504 9.64674 68.8988 8.03126 63.7148C6.2277 57.9563 5.61964 51.8628 6.26119 45.6792L6.32045 44.1333L6.41321 43.3758L6.5678 42.6801C6.65798 42.255 6.77907 41.8608 6.84091 41.4356C8.27346 34.345 11.3241 27.8264 15.9927 22.0963C20.8134 16.1574 26.8553 11.6407 33.9949 8.63908C37.4423 7.18334 41.1344 6.18365 44.9786 5.63743C47.1455 5.33598 49.3123 5.18396 51.5101 5.18396C53.3703 5.18396 55.2615 5.30506 57.1243 5.51891C57.8251 5.60651 58.526 5.69927 59.2294 5.82036L60.1749 5.97238L60.5099 6.06256L60.8448 6.15274C64.5061 6.91023 68.1364 8.15469 71.6147 9.85262C75.8273 11.9138 79.7307 14.6398 83.1498 17.9146C87.8184 22.3719 91.3869 27.6744 93.8295 33.6159C96.1174 37.4652 97.1532 44.9835 97.4289 47.3178V47.3178Z" fill="#505772"/>
<path d="M63.0722 91.5438L71.5541 83.2989C75.3365 79.6609 77.9001 76.6283 79.3043 74.2347C80.6776 71.8386 81.3784 69.4424 81.3784 66.9896C81.3784 63.8668 80.3401 61.3831 78.266 59.5331C76.1919 57.6832 73.3551 56.7453 69.7222 56.7453C65.5122 56.7453 61.6371 58.2294 58.0686 61.1692L60.3875 64.1399C62.155 62.746 63.7421 61.8056 65.2056 61.2594C66.6742 60.7157 68.1686 60.4735 69.7841 60.4735C72.0102 60.4735 73.7519 61.079 75.0015 62.2617C76.2537 63.4726 76.8927 65.0804 76.8927 67.1416C76.8927 68.5973 76.6479 69.9603 76.161 71.2331C75.6714 72.5059 74.9088 73.8096 73.9348 75.1443C72.9558 76.4763 70.8817 78.6896 67.8027 81.8432L57.61 92.0282V95.7848H83.0557V91.7242H63.0722V91.5438V91.5438ZM110.089 82.9949V57.1369H105.423L87.0519 83.1469V86.9653H105.879V95.8157H110.089V86.9653H115.827V82.9949H110.089V82.9949ZM105.879 70.2025V82.9949H91.4475L103.56 65.8971C104.291 64.8073 105.085 63.3824 105.94 61.7154H106.154C105.971 64.8665 105.879 67.7187 105.879 70.2025ZM48.8215 44.1332L34.2074 29.6145L30.608 33.2217L48.8215 51.3475V51.3784H53.9488V12.0942L48.8215 12.1251V44.1332Z" fill="#505772"/>
</svg>
