<svg width="100" height="100" viewBox="0 0 100 100" fill="none" xmlns="http://www.w3.org/2000/svg">
<path d="M27.31 63.1565H71.2268V36.8178H27.31V63.1565ZM31.1601 40.661H67.3767V59.2877H31.1601V40.661Z" fill="#505772"/>
<path d="M10.5493 78.3756L15.1694 82.9874H3.8501V13.6818H27.31V26.3131H71.2268V0H27.31V9.83859H0V86.8819H15.1694L10.5236 91.7499L13.039 94.1327L21.9199 84.8066L13.0133 75.916L10.5493 78.3756V78.3756ZM31.1601 3.8432H67.3767V22.4699H31.1601V3.8432V3.8432Z" fill="#505772"/>
<path d="M84.7535 11.5296L89.3736 6.91778L86.9352 4.45813L78.0286 13.3487L86.9095 22.6749L89.4249 20.2921L84.7791 15.4241H96.0214V84.9603H71.2268V73.6869H27.31V100H71.2268V88.8035H99.8459V11.5296H84.7535V11.5296ZM67.3767 96.1312H31.1601V77.5045H67.3767V96.1312Z" fill="#505772"/>
</svg>
