<svg width="100" height="100" viewBox="0 0 100 100" fill="none" xmlns="http://www.w3.org/2000/svg">
<g clip-path="url(#clip0_13_280)">
<path d="M4.57047 57.8205C3.53638 52.8205 3.57047 47.7864 4.3932 42.75C5.96365 33.0705 10.2137 24.6795 17.0705 17.7136C24.3932 10.2864 33.25 5.82046 43.6068 4.35682C48.6068 3.67955 53.5705 3.75 58.5 4.67955C65.9296 6.07046 72.6068 9.14318 78.5364 13.7864C79.8568 14.8205 81.0705 15.9636 82.3205 17.0364C81.8568 17.25 81.4637 17.25 81.1068 17.25C79.75 17.2864 78.3932 17.25 77.0364 17.3568C75.75 17.4636 75.1068 18.25 75.1796 19.2864C75.2136 20.3205 76 21 77.25 21C80.4296 21 83.6068 20.9636 86.7864 20.9295C88.1432 20.8932 88.8568 20.1795 88.8932 18.7864C88.9296 18 88.8205 17.2136 88.8205 16.4636C88.8205 14.1068 88.8205 11.7136 88.7864 9.35682C88.7864 7.78636 87.6796 6.89318 86.3568 7.32046C85.4296 7.64318 85.0705 8.32046 85.0705 9.25V14.5364C84.7864 14.2864 84.6796 14.1795 84.5364 14.0705C78.1432 7.96364 70.7136 3.78636 62.1068 1.67955C60.2864 1.25 58.4636 0.893182 56.6432 0.5H43.3932C43.25 0.570455 43.1068 0.643182 42.9636 0.679545C37.8568 1.32045 33 2.85682 28.3568 5.07045C20.7137 8.75 14.3932 14.1068 9.46365 21C3.75001 28.9636 0.71365 37.8932 0.21365 47.6432C1.38618e-05 51.4636 0.250014 55.2864 1.00001 59.0364C1.53638 61.6068 2.28638 64.1432 3.07047 66.6796C3.53638 68.2136 5.10683 68.5 6.21365 67.3568C6.85683 66.6796 6.6432 65.9296 6.46365 65.1796C5.82047 62.75 5.10683 60.3205 4.57047 57.8205ZM98.8205 39.7136C98.3568 37.5364 97.6796 35.4295 97.0364 33.2864C96.7137 32.25 95.75 31.7136 94.8568 31.9295C93.8205 32.1795 93.3205 32.9636 93.5 34.1432C93.6068 34.75 93.7864 35.3205 93.9637 35.9295C95.2137 39.6795 96.0364 43.5705 96.1432 47.5C96.25 50.7864 96.0705 54.1068 95.5705 57.3568C94.5 64.75 91.6068 71.4636 87.1068 77.4296C80.3205 86.4296 71.4296 92.2864 60.4296 94.8932C55 96.1795 49.5364 96.4295 44.0364 95.7136C38.8568 95.0364 33.9296 93.5364 29.2864 91.1796C25 89 21.1432 86.25 17.6796 82.8182C17.8205 82.7477 17.8568 82.7114 17.8932 82.7114C19.4296 82.7114 20.9296 82.7114 22.4637 82.6773C22.8932 82.6773 23.3205 82.6046 23.7137 82.4977C24.5 82.2477 24.9637 81.3909 24.8932 80.5682C24.7864 79.7114 24.0364 78.9614 23.2137 78.9614C19.9296 78.9614 16.6432 78.9614 13.3932 78.9977C11.8205 79.0341 11.1432 79.8909 11.1432 81.4273C11.1796 84.4273 11.25 87.4614 11.2864 90.4614C11.3205 91.8546 12.0705 92.7841 13.1432 92.7477C14.3205 92.7114 14.9636 91.8909 14.9636 90.4614V85.3909C15.2864 85.6409 15.4296 85.7477 15.5364 85.8909C20.4296 90.5682 26 94.1409 32.3568 96.4977C37.0705 98.2477 41.8932 99.5341 47 99.3909C49 99.3182 51.0364 99.3182 53.0364 99.3909C56 99.5341 58.9296 99.0682 61.7864 98.3546C74.0364 95.2477 83.8568 88.5682 91.1068 78.1409C96.8568 69.8545 99.6796 60.6046 99.8932 50.5682C99.9637 46.9273 99.6068 43.2841 98.8205 39.7114V39.7136Z" fill="#505772"/>
<path d="M81.5 56.3932L81.7136 54.9636C81.9636 53.3932 82.0705 51.7136 82.0705 50.0364C82.0705 48.3568 81.9636 46.7136 81.7136 45.1068L81.4636 43.6068H74.2136C73.6432 41.4296 72.7864 39.3205 71.6068 37.3568L76.7136 32.2864L75.8568 31.1068C73.8932 28.3932 71.5705 26.0364 68.8568 24.1068L67.6795 23.25L62.5705 28.3205C60.6068 27.1796 58.5364 26.3205 56.3205 25.7136V18.4636L54.8932 18.25C51.6795 17.7864 48.25 17.7864 45.0364 18.25L43.6068 18.4636V25.7136C41.4296 26.2864 39.3205 27.1432 37.3568 28.3205L32.25 23.25L31.0705 24.1068C28.3568 26.0364 26 28.3932 24.0705 31.1068L23.2136 32.2864L28.3205 37.3932C27.1796 39.3568 26.3205 41.4296 25.7136 43.6432H18.4636L18.25 45.0705C18 46.6796 17.8932 48.3205 17.8932 50C17.8932 51.6796 18 53.3205 18.25 54.9296L18.4636 56.3568H25.7136C26.2864 58.5364 27.1432 60.6432 28.3205 62.6068L23.2136 67.7136L24.0705 68.8932C26.0364 71.6068 28.3568 73.9637 31.0705 75.8932L32.25 76.75L37.3568 71.6796C39.3205 72.8205 41.3932 73.6796 43.6068 74.2864V81.5364L45.0364 81.75C46.6432 82 48.2864 82.1068 49.9636 82.1068C51.6432 82.1068 53.2864 82 54.8932 81.75L56.3205 81.5364V74.2864C58.5 73.7137 60.6068 72.8568 62.5705 71.6796L67.6795 76.75L68.8568 75.8932C71.5705 73.9637 73.9295 71.6068 75.8568 68.8932L76.7136 67.7136L71.6432 62.6432C72.7864 60.6796 73.6432 58.6068 74.25 56.3932H81.5V56.3932ZM72.25 68C71 69.5705 69.6068 70.9296 68.0705 72.1796L63.1068 67.2136L61.9636 67.9636C59.6432 69.5364 57.0705 70.5705 54.3932 71.1068L53 71.4296V78.4296C51.0364 78.6432 49 78.6432 47.0705 78.4296V71.4296L45.7136 71.1432C43 70.6068 40.4636 69.5364 38.1432 68L37 67.25L32.0364 72.2136C30.4636 70.9636 29.1068 69.5705 27.8568 68.0364L32.8205 63.0705L32.0705 61.9296C30.5 59.6068 29.4636 57.0364 28.9296 54.3568L28.6432 53H21.6432C21.5705 52.0364 21.5 51.0364 21.5 50.0364C21.5 49.0364 21.5705 48.0705 21.6432 47.0705H28.6432L28.9296 45.7136C29.4636 43 30.5364 40.4636 32.0705 38.1432L32.8205 37L27.8568 32.0364C29.1068 30.4636 30.5 29.1068 32.0364 27.8568L37 32.8205L38.1432 32.0705C40.4636 30.5 43.0364 29.4636 45.7136 28.9296L47.0705 28.6432V21.6432C49.0364 21.4296 51.0705 21.4296 53 21.6432V28.6432L54.3568 28.9296C57.0705 29.4636 59.6068 30.5364 61.9296 32.0705L63.0705 32.8205L68.0364 27.8568C69.6068 29.1068 70.9636 30.5 72.2136 32.0364L67.25 37L68 38.1432C69.5364 40.4636 70.6068 43.0364 71.1432 45.7136L71.4296 47.0705H78.4295C78.5 48.0364 78.5705 49.0364 78.5705 50.0364C78.5705 51.0364 78.5 52 78.4295 53H71.4296L71.1432 54.3568C70.6068 57.0705 69.5364 59.6068 68 61.9296L67.25 63.0705L72.25 68V68Z" fill="#505772"/>
</g>
<defs>
<clipPath id="clip0_13_280">
<rect width="100" height="100" fill="white"/>
</clipPath>
</defs>
</svg>
