<svg width="199" height="129" viewBox="0 0 199 129" fill="none" xmlns="http://www.w3.org/2000/svg">
<path d="M171.281 37.7534L163.582 62.9495" stroke="white" stroke-width="2" stroke-linejoin="round"/>
<path d="M160.891 44.2849L151.974 49.226V50.3259L160.891 55.047" stroke="white" stroke-width="2" stroke-linejoin="round"/>
<path d="M175.004 44.2849L183.922 49.226V50.3259L175.004 55.047" stroke="white" stroke-width="2" stroke-linejoin="round"/>
<path d="M95.3877 103.019H125.846C126.208 103.016 126.566 103.091 126.896 103.239L137.725 108.079C138.055 108.23 138.412 108.308 138.774 108.308C139.136 108.308 139.494 108.23 139.824 108.079L150.619 103.189C150.932 103.068 151.266 103.01 151.601 103.019H198V26.5681H151.161C150.798 26.568 150.439 26.6489 150.112 26.805L139.756 31.3907C139.427 31.5414 139.069 31.6194 138.707 31.6194C138.345 31.6194 137.987 31.5414 137.658 31.3907L127.335 26.805C127.008 26.6489 126.649 26.568 126.286 26.5681H95.3877" stroke="white" stroke-width="2" stroke-linejoin="round"/>
<path d="M138.741 31.137V107.571" stroke="white" stroke-width="2" stroke-linejoin="round"/>
<path d="M76.7236 46.7722V69.6501" stroke="white" stroke-width="2" stroke-linejoin="round"/>
<path d="M29.6137 119.467H3.45308C3.17531 119.467 2.90026 119.412 2.64363 119.306C2.387 119.2 2.15383 119.044 1.95741 118.847C1.56074 118.451 1.33789 117.913 1.33789 117.352V27.3295C1.34236 26.7714 1.56717 26.2378 1.96337 25.8447C2.35956 25.4517 2.89501 25.2312 3.45308 25.2312H27.5154C28.0719 25.2312 28.6056 25.4523 28.9991 25.8458C29.3926 26.2393 29.6137 26.773 29.6137 27.3295" stroke="white" stroke-width="2" stroke-linejoin="round"/>
<path d="M14.8076 53.5068V75.031" stroke="white" stroke-width="2" stroke-linejoin="round"/>
<path d="M67.2988 125.44C67.3033 125.998 67.5281 126.532 67.9243 126.925C68.3205 127.318 68.856 127.539 69.414 127.539H85.3879C85.946 127.539 86.4814 127.318 86.8776 126.925C87.2738 126.532 87.4986 125.998 87.5031 125.44V11.1865C87.5031 10.6255 87.2802 10.0875 86.8836 9.69081C86.4869 9.29414 85.9489 9.07129 85.3879 9.07129H69.414C68.853 9.07129 68.315 9.29414 67.9184 9.69081C67.5217 10.0875 67.2988 10.6255 67.2988 11.1865" stroke="white" stroke-width="2" stroke-linejoin="round"/>
<path d="M65.2171 1H31.7125C30.5537 1 29.6143 1.93942 29.6143 3.09826V125.441C29.6143 126.599 30.5537 127.539 31.7125 127.539H65.2171C66.3759 127.539 67.3153 126.599 67.3153 125.441V3.09826C67.3153 1.93942 66.3759 1 65.2171 1Z" stroke="white" stroke-width="2" stroke-linejoin="round"/>
<path d="M1 40.0376H28.9543" stroke="white" stroke-width="2" stroke-linejoin="round"/>
<path d="M1 48.1091H29.3943" stroke="white" stroke-width="2" stroke-linejoin="round"/>
<path d="M68.3135 18.4966H87.1471" stroke="white" stroke-width="2" stroke-linejoin="round"/>
<path d="M68.3135 26.5681H87.1471" stroke="white" stroke-width="2" stroke-linejoin="round"/>
<path d="M6.71973 105.998H24.2335" stroke="white" stroke-width="2" stroke-linejoin="round"/>
<path d="M6.97363 111.379H24.2335" stroke="white" stroke-width="2" stroke-linejoin="round"/>
<path d="M50.4442 23.8774H46.4507C44.5816 23.8774 43.0664 25.3926 43.0664 27.2617V52.7963C43.0664 54.6654 44.5816 56.1806 46.4507 56.1806H50.4442C52.3133 56.1806 53.8285 54.6654 53.8285 52.7963V27.2617C53.8285 25.3926 52.3133 23.8774 50.4442 23.8774Z" stroke="white" stroke-width="2" stroke-linejoin="round"/>
<path d="M151.297 71.0718H185.512" stroke="white" stroke-width="2" stroke-linejoin="round"/>
<path d="M151.297 82.4768H185.512" stroke="white" stroke-width="2" stroke-linejoin="round"/>
<path d="M96.5215 48.2615H126.185" stroke="white" stroke-width="2" stroke-linejoin="round"/>
<path d="M96.5215 59.6665H126.185" stroke="white" stroke-width="2" stroke-linejoin="round"/>
<path d="M96.5215 71.0718H126.185" stroke="white" stroke-width="2" stroke-linejoin="round"/>
<path d="M96.5215 82.4768H126.185" stroke="white" stroke-width="2" stroke-linejoin="round"/>
</svg>
