<svg width="116" height="100" viewBox="0 0 116 100" fill="none" xmlns="http://www.w3.org/2000/svg">
<path d="M97.1176 26.2373C95.2649 13.8422 84.4348 4.399 71.7234 4.399C68.6045 4.399 65.3044 5.0146 62.3716 6.1531C57.0948 2.122 50.5853 -0.0599365 43.8874 -0.0599365C27.8735 -0.0599365 14.9141 12.0881 13.741 27.8678C5.62433 31.4046 0.256958 39.5262 0.256958 48.5392C0.256958 60.9652 10.3765 71.0549 22.8424 71.0549H45.5851V66.5912H22.8424C12.8468 66.5912 4.73017 58.4719 4.73017 48.5035C4.73017 40.8454 9.51335 34.0167 16.6404 31.4949C17.506 31.1859 18.0926 30.3873 18.1212 29.4651C18.4931 15.4085 29.7858 4.39662 43.8564 4.39662C49.9677 4.39662 55.8907 6.55003 60.5523 10.4266C61.1984 10.9805 62.126 11.1017 62.8962 10.7333C65.612 9.50206 68.7285 8.82704 71.69 8.82704C82.7061 8.82704 92.0268 17.4074 92.859 28.3884C92.952 29.4651 93.8152 30.3279 94.8953 30.4491C104.214 31.281 111.527 39.2172 111.527 48.5368C111.527 58.5028 103.351 66.6245 93.262 66.6245H70.5168V71.0834H93.2572C105.785 71.0834 116 60.9629 116 48.5677C115.969 37.5249 107.821 28.0794 97.1152 26.235L97.1176 26.2373Z" fill="#505772"/>
<path d="M60.4282 79.545V55.0565H55.9527V79.545C52.035 80.4078 48.9186 83.4834 48.053 87.4194H22.1652V91.8807H48.053C49.0712 96.5251 53.2082 100 58.175 100C63.0821 100 67.1547 96.5251 68.1729 91.8807H94.0321V87.4194H68.1729C67.3097 83.5143 64.2863 80.4387 60.4282 79.545V79.545ZM58.175 95.5387C54.9035 95.5387 52.2496 92.8933 52.2496 89.6322C52.2496 86.3712 54.9035 83.7258 58.175 83.7258C61.3534 83.7258 63.9453 86.3712 63.9453 89.6322C63.9453 92.8933 61.3534 95.5387 58.175 95.5387V95.5387Z" fill="#505772"/>
</svg>
