<svg width="76" height="71" viewBox="0 0 76 71" fill="none" xmlns="http://www.w3.org/2000/svg">
<path d="M29.9377 4.98668C29.9377 5.35277 29.7764 5.77495 29.3362 6.24145C28.891 6.71328 28.2001 7.18356 27.2705 7.60029C25.4135 8.43273 22.778 8.97337 19.8136 8.97337C16.8492 8.97337 14.2137 8.43273 12.3567 7.60029C11.4271 7.18356 10.7362 6.71328 10.291 6.24145C9.85082 5.77495 9.68945 5.35277 9.68945 4.98668C9.68945 4.62059 9.85082 4.19842 10.291 3.73192C10.7362 3.26009 11.4271 2.7898 12.3567 2.37308C14.2137 1.54064 16.8492 1 19.8136 1C22.778 1 25.4135 1.54064 27.2705 2.37308C28.2001 2.7898 28.891 3.26009 29.3362 3.73192C29.7764 4.19842 29.9377 4.62059 29.9377 4.98668Z" stroke="white" stroke-width="2"/>
<path d="M29.9377 34.1395C29.9377 34.5056 29.7764 34.9278 29.3362 35.3943C28.891 35.8661 28.2001 36.3364 27.2705 36.7531C25.4135 37.5856 22.778 38.1262 19.8136 38.1262C16.8492 38.1262 14.2137 37.5856 12.3567 36.7531C11.4271 36.3364 10.7362 35.8661 10.291 35.3943C9.85082 34.9278 9.68945 34.5056 9.68945 34.1395C9.68945 33.7734 9.85082 33.3513 10.291 32.8847C10.7362 32.4129 11.4271 31.9426 12.3567 31.5259C14.2137 30.6935 16.8492 30.1528 19.8136 30.1528C22.778 30.1528 25.4135 30.6935 27.2705 31.5259C28.2001 31.9426 28.891 32.4129 29.3362 32.8847C29.7764 33.3513 29.9377 33.7734 29.9377 34.1395Z" stroke="white" stroke-width="2"/>
<path d="M26.1017 19.5631C26.1017 24.8778 25.2975 29.645 24.03 33.0473C23.3948 34.7522 22.6625 36.0622 21.9 36.9279C21.1361 37.7952 20.4285 38.1263 19.8135 38.1263C19.1985 38.1263 18.4909 37.7952 17.727 36.9279C16.9645 36.0622 16.2322 34.7522 15.597 33.0473C14.3295 29.645 13.5253 24.8778 13.5253 19.5631C13.5253 14.2485 14.3295 9.48132 15.597 6.07902C16.2322 4.37409 16.9645 3.06404 17.727 2.19834C18.4909 1.33106 19.1985 1 19.8135 1C20.4285 1 21.1361 1.33106 21.9 2.19834C22.6625 3.06404 23.3948 4.37409 24.03 6.07902C25.2975 9.48132 26.1017 14.2485 26.1017 19.5631Z" stroke="white" stroke-width="2"/>
<path d="M9.45666 35.2905L12.909 45.2639C13.1647 45.9032 13.983 47.1818 15.2105 47.1818C16.438 47.1818 37.7145 47.1818 48.1994 47.1818C48.8387 47.3097 50.194 47.1051 50.5009 45.2639C50.8078 43.4226 53.4418 28.6416 54.7204 21.4812C54.8483 20.7141 54.7204 19.1797 53.186 19.1797C51.6517 19.1797 5.62075 19.1797 1.40125 19.1797" stroke="white" stroke-width="2" stroke-linecap="round"/>
<path d="M13.2922 57.155C13.0365 55.8764 13.1388 53.3191 15.5938 53.3191C18.0487 53.3191 38.8652 53.3191 48.9665 53.3191H52.4188C53.8253 53.3191 56.9452 52.245 58.1727 47.9488M59.3235 40.6606L63.1594 16.8779" stroke="white" stroke-width="2" stroke-linecap="round"/>
<rect x="61.4641" y="13.3225" width="11.2198" height="5.43612" rx="2.71806" transform="rotate(-31.1985 61.4641 13.3225)" stroke="white" stroke-width="2"/>
<circle cx="24.0332" cy="63.6761" r="5.90464" stroke="white" stroke-width="2"/>
<circle cx="46.2813" cy="63.6761" r="5.90464" stroke="white" stroke-width="2"/>
<circle cx="19.8136" cy="19.5631" r="18.5631" stroke="white" stroke-width="2"/>
</svg>
