<svg width="93" height="100" viewBox="0 0 93 100" fill="none" xmlns="http://www.w3.org/2000/svg">
<path d="M67.4864 79.1182V100H0V95.7341V10.3909V0H67.5V12.5227H63.2341V4.20455H4.25227V95.7341H63.25V93.1114V79.1182H67.4886H67.4864Z" fill="#505772"/>
<path d="M45.2045 6.25682V4.23409C45.2045 1.43182 48.4977 0 51.3636 0H55.4545C56.5841 0 57.5 0.931818 57.5 2.08636C57.5 3.23636 56.5841 4.17045 55.4545 4.17045H49.3091V6.19318C49.1841 7.01136 49.3818 8.01591 49.3091 8.94318V12.5H20.6909V8.97045V4.23409H14.5454C13.4182 4.23409 12.5023 3.3 12.5023 2.14773C12.5023 0.995454 13.4182 0.0636364 14.5477 0.0636364H18.6386C21.4341 0.0636364 24.7341 1.57045 24.7341 4.29545V8.40455H45.1841L45.2068 6.25682H45.2045ZM92.5 25V70H50V66.7841V31.1136V25H92.5ZM87.2659 29.0682H54.2886V65.8705H88.1886V65.0705V31.1136V29.0682H87.2659V29.0682Z" fill="#505772"/>
<path d="M80 57.5H62.5V52.5H80V57.5ZM80 47.5H62.5V42.5H80V47.5ZM75 32.5V20H80V32.5H75ZM62.5 32.5V20H67.5V32.5H62.5Z" fill="#505772"/>
</svg>
