<svg width="75" height="75" viewBox="0 0 75 75" fill="none" xmlns="http://www.w3.org/2000/svg">
<path d="M30.4379 9.66305C30.4379 9.98445 30.2968 10.3641 29.8932 10.7918C29.4845 11.2249 28.8465 11.6604 27.9822 12.0478C26.2558 12.8217 23.8008 13.3261 21.0358 13.3261C18.2707 13.3261 15.8157 12.8217 14.0894 12.0478C13.2251 11.6604 12.587 11.2249 12.1784 10.7918C11.7748 10.3641 11.6336 9.98445 11.6336 9.66305C11.6336 9.34164 11.7748 8.96204 12.1784 8.53425C12.587 8.10114 13.2251 7.66573 14.0894 7.27828C15.8157 6.50441 18.2707 6 21.0358 6C23.8008 6 26.2558 6.50441 27.9822 7.27828C28.8465 7.66573 29.4845 8.10114 29.8932 8.53425C30.2968 8.96204 30.4379 9.34164 30.4379 9.66305Z" stroke="white" stroke-width="2"/>
<path d="M30.4379 36.9238C30.4379 37.2453 30.2968 37.6249 29.8932 38.0526C29.4845 38.4857 28.8465 38.9212 27.9822 39.3086C26.2558 40.0825 23.8008 40.5869 21.0358 40.5869C18.2707 40.5869 15.8157 40.0825 14.0894 39.3086C13.2251 38.9212 12.587 38.4857 12.1784 38.0526C11.7748 37.6249 11.6336 37.2453 11.6336 36.9238C11.6336 36.6024 11.7748 36.2228 12.1784 35.7951C12.587 35.3619 13.2251 34.9265 14.0894 34.5391C15.8157 33.7652 18.2707 33.2608 21.0358 33.2608C23.8008 33.2608 26.2558 33.7652 27.9822 34.5391C28.8465 34.9265 29.4845 35.3619 29.8932 35.7951C30.2968 36.2228 30.4379 36.6024 30.4379 36.9238Z" stroke="white" stroke-width="2"/>
<path d="M26.851 23.2935C26.851 28.2576 26.0997 32.7073 24.9178 35.8798C24.3254 37.4699 23.6441 38.687 22.9381 39.4884C22.2308 40.2914 21.5855 40.587 21.0358 40.587C20.4861 40.587 19.8407 40.2914 19.1334 39.4884C18.4275 38.687 17.7461 37.4699 17.1538 35.8798C15.9718 32.7073 15.2206 28.2576 15.2206 23.2935C15.2206 18.3294 15.9718 13.8797 17.1538 10.7071C17.7461 9.1171 18.4275 7.90001 19.1334 7.09856C19.8407 6.29553 20.4861 6 21.0358 6C21.5855 6 22.2308 6.29553 22.9381 7.09856C23.6441 7.90001 24.3254 9.1171 24.9178 10.7071C26.0997 13.8797 26.851 18.3294 26.851 23.2935Z" stroke="white" stroke-width="2"/>
<path d="M11.351 37.9999L14.5792 47.326C14.8184 47.9238 15.5836 49.1195 16.7314 49.1195C17.8793 49.1195 37.7749 49.1195 47.5793 49.1195C48.1771 49.2391 49.4445 49.0477 49.7314 47.326C50.0184 45.6043 52.4814 31.7825 53.6771 25.0869C53.7967 24.3695 53.6771 22.9347 52.2423 22.9347C50.8075 22.9347 7.76403 22.9347 3.81837 22.9347" stroke="white" stroke-width="2" stroke-linecap="round"/>
<path d="M14.9376 58.4456C14.6985 57.2499 14.7941 54.8586 17.0898 54.8586C19.3854 54.8586 38.8509 54.8586 48.2966 54.8586H51.5249C52.8401 54.8586 55.7575 53.8543 56.9053 49.8369M57.9814 43.0217L61.5684 20.7825" stroke="white" stroke-width="2" stroke-linecap="round"/>
<rect x="60.0722" y="17.48" width="10.3618" height="4.95351" rx="2.47675" transform="rotate(-31.1985 60.0722 17.48)" stroke="white" stroke-width="2"/>
<circle cx="24.9814" cy="64.5435" r="5.45652" stroke="white" stroke-width="2"/>
<circle cx="45.7857" cy="64.5435" r="5.45652" stroke="white" stroke-width="2"/>
<circle cx="21.0358" cy="23.2935" r="17.2935" stroke="white" stroke-width="2"/>
</svg>
