<svg width="138" height="100" viewBox="0 0 138 100" fill="none" xmlns="http://www.w3.org/2000/svg">
<path d="M0.647345 0.92749V99.035H136.214V0.92749H0.644836H0.647345ZM134.879 79.6775H130.99V93.8575H5.87127V79.675H3.27687V73.9625H5.87127V6.10749H130.99V73.965H134.879V79.6775V79.6775Z" fill="#505772"/>
<path d="M108.659 73.965C108.659 71.035 108.624 68.1075 108.551 65.1775C108.551 64.285 108.335 63.6775 107.903 63.285C107.472 62.8925 106.86 62.6775 105.959 62.6775H105.851C104.734 62.6775 103.618 62.715 102.501 62.715C102.14 62.715 101.781 62.715 101.385 62.6775C101.024 62.6775 100.446 62.3225 100.339 62C99.079 59 97.8897 55.965 96.4494 52.3575C97.3853 51.535 98.7177 50.4275 99.9797 49.215C101.385 47.8925 101.347 46.785 99.9797 45.465C97.5309 43.0725 95.0443 40.6775 92.5955 38.3225C91.9481 37.6775 91.371 37.3925 90.7588 37.3925C90.1466 37.3925 89.572 37.715 88.887 38.3575C87.625 39.5725 86.3278 40.8225 85.284 41.8225C82.115 40.6425 79.0539 39.5725 76.0279 38.3925C75.7043 38.25 75.3078 37.75 75.2727 37.4275C75.1648 35.8925 75.1648 34.3225 75.0921 32.785C75.0218 31.215 74.2641 30.4275 72.6808 30.4275V30.8575V30.4275H72.6432C69.1129 30.4275 65.5851 30.5 62.0548 30.5725C60.183 30.6075 59.4629 31.3925 59.4629 33.215C59.4629 34.6775 59.5332 36.1425 59.4629 37.6075C59.4253 38 59.0665 38.535 58.6701 38.715C55.9678 39.9275 53.1952 41.035 50.4578 42.25C50.2069 42.3575 49.9886 42.4275 49.8105 42.4275C49.5219 42.4275 49.2685 42.285 48.9825 42C47.9362 40.965 46.8924 39.9275 45.811 38.9275C45.1987 38.3575 44.6242 38.0725 44.0471 38.0725C43.47 38.0725 42.8929 38.3575 42.3183 38.9275C39.8343 41.4275 37.3503 43.9275 34.8989 46.4275C33.6745 47.6775 33.7096 48.785 34.9341 50C36.1961 51.25 37.4181 52.535 38.4643 53.6075C37.275 56.75 36.1585 59.8225 34.9717 62.8575C34.8262 63.1775 34.3218 63.535 33.9279 63.535C32.3773 63.6425 30.7915 63.6075 29.2459 63.6425C27.6953 63.6775 26.9025 64.4275 26.9025 65.9275C26.9025 68.6075 26.9401 71.285 27.0129 73.965H3.27686V79.6775H134.879V73.965H108.659V73.965ZM104.157 73.965H91.5517C91.5517 74.215 91.5868 74.4275 91.5868 74.6425H87.0855C87.0855 74.3925 87.0127 74.1775 87.0127 73.965H48.4405C48.4405 74.215 48.3702 74.4275 48.3702 74.6425H43.8664C43.8664 74.3925 43.9041 74.1775 43.9041 73.965H31.5142V67.75H36.0155C38.0679 67.715 38.5371 67.3575 38.9335 65.4275C39.6888 61.6425 41.129 58.1425 43.2542 54.8925C44.1575 53.5 44.0471 52.715 42.8226 51.5C41.7061 50.3575 40.5895 49.215 39.4354 48.0725C41.0211 46.5725 42.6069 45.035 44.3707 43.3575C45.3443 44.285 46.4608 45.3575 47.5774 46.4275C48.3702 47.1775 48.9448 47.535 49.5595 47.535C50.0614 47.535 50.6008 47.285 51.3234 46.8225C54.4924 44.6775 57.9851 43.215 61.7311 42.3925C63.5327 42 63.9994 41.3925 63.9994 39.535V34.8575H70.9872C70.9872 36.4275 70.9521 38.0725 70.9872 39.6775C71.0223 41.25 71.489 41.8225 73.0396 42.1425C77.0015 42.8925 80.6748 44.3225 84.0244 46.535C84.5639 46.8925 85.0331 47.0725 85.4646 47.0725C86.0417 47.0725 86.6188 46.75 87.231 46.1425C88.4178 45 89.6071 43.8925 90.7939 42.785C92.2743 44.285 93.855 45.8575 95.5863 47.6075C94.6128 48.6075 93.4962 49.715 92.3797 50.8575C91.1201 52.1775 91.0122 52.965 92.056 54.5C94.2163 57.6425 95.6942 61.1075 96.5222 64.8225C96.9186 66.6075 97.5309 67.0725 99.4026 67.0725H104.157V73.965V73.965Z" fill="#505772"/>
<path d="M67.7103 51C54.781 51 44.2629 61.25 43.8664 73.965C43.8664 74.215 43.8313 74.4275 43.8313 74.6425H48.3326C48.3326 74.3925 48.4054 74.1775 48.4054 73.965C48.7642 63.715 57.265 55.465 67.7103 55.465C78.1532 55.465 86.6188 63.715 87.0128 73.965C87.0128 74.215 87.088 74.4275 87.088 74.6425H91.5868C91.5868 74.3925 91.5517 74.1775 91.5517 73.965C91.1553 61.25 80.6372 51 67.7103 51V51Z" fill="#505772"/>
</svg>
