<svg width="110" height="104" viewBox="0 0 110 104" fill="none" xmlns="http://www.w3.org/2000/svg">
<path d="M43.5078 7.3138C43.5078 7.83999 43.2761 8.45138 42.6346 9.13125C41.9856 9.8191 40.9764 10.5066 39.6155 11.1167C36.8971 12.3352 33.0365 13.1276 28.6924 13.1276C24.3482 13.1276 20.4876 12.3352 17.7692 11.1167C16.4083 10.5066 15.3991 9.8191 14.7501 9.13125C14.1086 8.45138 13.877 7.83999 13.877 7.3138C13.877 6.78761 14.1086 6.17622 14.7501 5.49635C15.3991 4.8085 16.4083 4.12098 17.7692 3.51093C20.4876 2.29235 24.3482 1.5 28.6924 1.5C33.0365 1.5 36.8971 2.29235 39.6155 3.51093C40.9764 4.12098 41.9856 4.8085 42.6346 5.49635C43.2761 6.17622 43.5078 6.78761 43.5078 7.3138Z" stroke="#505772" stroke-width="3"/>
<path d="M43.5078 50.0714C43.5078 50.5976 43.2761 51.2089 42.6346 51.8888C41.9856 52.5767 40.9764 53.2642 39.6155 53.8742C36.8971 55.0928 33.0365 55.8852 28.6924 55.8852C24.3482 55.8852 20.4876 55.0928 17.7692 53.8742C16.4083 53.2642 15.3991 52.5767 14.7501 51.8888C14.1086 51.2089 13.877 50.5976 13.877 50.0714C13.877 49.5452 14.1086 48.9338 14.7501 48.2539C15.3991 47.5661 16.4083 46.8785 17.7692 46.2685C20.4876 45.0499 24.3482 44.2576 28.6924 44.2576C33.0365 44.2576 36.8971 45.0499 39.6155 46.2685C40.9764 46.8785 41.9856 47.5661 42.6346 48.2539C43.2761 48.9338 43.5078 49.5452 43.5078 50.0714Z" stroke="#505772" stroke-width="3"/>
<path d="M37.8822 28.6926C37.8822 36.4845 36.7031 43.4722 34.8457 48.4577C33.915 50.9561 32.8427 52.8734 31.728 54.1389C30.6112 55.4069 29.5818 55.8852 28.6928 55.8852C27.8039 55.8852 26.7744 55.4069 25.6576 54.1389C24.5429 52.8734 23.4707 50.9561 22.5399 48.4577C20.6826 43.4722 19.5034 36.4845 19.5034 28.6926C19.5034 20.9007 20.6826 13.913 22.5399 8.92753C23.4707 6.42914 24.5429 4.51181 25.6576 3.24626C26.7744 1.97834 27.8039 1.5 28.6928 1.5C29.5818 1.5 30.6112 1.97834 31.728 3.24626C32.8427 4.51181 33.915 6.42914 34.8457 8.92753C36.7031 13.913 37.8822 20.9007 37.8822 28.6926Z" stroke="#505772" stroke-width="3"/>
<path d="M13.5021 51.7588L18.5655 66.3864C18.9406 67.3241 20.1408 69.1994 21.9411 69.1994C23.7414 69.1994 54.947 69.1994 70.3247 69.1994C71.2624 69.387 73.2502 69.0869 73.7003 66.3864C74.1504 63.686 78.0136 42.0071 79.8889 31.5052C80.0764 30.38 79.8889 28.1296 77.6385 28.1296C75.3881 28.1296 7.8761 28.1296 1.6875 28.1296" stroke="#505772" stroke-width="3" stroke-linecap="round"/>
<path d="M19.1275 83.8274C18.7524 81.9521 18.9024 78.2014 22.5031 78.2014C26.1037 78.2014 56.6345 78.2014 71.4498 78.2014H76.5132C78.576 78.2014 83.1518 76.6261 84.9522 70.325M86.64 59.6356L92.266 24.7544" stroke="#505772" stroke-width="3" stroke-linecap="round"/>
<rect x="89.8262" y="19.5512" width="16.389" height="7.9063" rx="3.95315" transform="rotate(-31.1985 89.8262 19.5512)" stroke="#505772" stroke-width="3"/>
<circle cx="34.8822" cy="93.3917" r="8.6268" stroke="#505772" stroke-width="3"/>
<circle cx="67.5125" cy="93.3917" r="8.6268" stroke="#505772" stroke-width="3"/>
<circle cx="28.6926" cy="28.6926" r="27.1926" stroke="#505772" stroke-width="3"/>
</svg>
