<svg width="75" height="75" viewBox="0 0 75 75" fill="none" xmlns="http://www.w3.org/2000/svg">
<g clip-path="url(#clip0_9_83)">
<path d="M38.6587 56.7699L36.3412 56.7699C34.3583 56.7699 32.6952 55.4004 32.2463 53.5556L42.7536 53.5556C42.3047 55.4004 40.6416 56.7699 38.6587 56.7699Z" stroke="white" stroke-width="2"/>
<path d="M14.2143 13H59.627C63.493 13 66.627 16.134 66.627 20V52.7143H7.21426V20C7.21426 16.134 10.3483 13 14.2143 13Z" stroke="white" stroke-width="2"/>
<path d="M74 53.1348H1C1 59.8297 6.95051 61.718 9.92576 61.8252H65.7118C71.3223 61.8252 73.575 56.0316 74 53.1348Z" stroke="white" stroke-width="2"/>
<path d="M23.8092 29.8737V41.1382C24.8939 42.807 28.8657 46.0946 36.075 45.8943C43.2842 45.694 47.4229 43.1408 48.591 41.8892V29.8737" stroke="white" stroke-width="2"/>
<path d="M35.1977 33.9514L19.5826 27.621L35.1977 21.2905C35.459 21.1846 35.8667 21.1113 36.3254 21.1113C36.784 21.1113 37.1918 21.1846 37.4531 21.2905L53.0682 27.621L37.4531 33.9514C37.1918 34.0574 36.784 34.1306 36.3254 34.1306C35.8667 34.1306 35.459 34.0574 35.1977 33.9514Z" stroke="white" stroke-width="2"/>
<path d="M53.848 27.8715V32.8779" stroke="white" stroke-width="2"/>
<path d="M55.3513 35.6315C55.3513 36.4148 55.123 37.0822 54.8044 37.5283C54.4844 37.9762 54.1326 38.136 53.8481 38.136C53.5636 38.136 53.2118 37.9762 52.8918 37.5283C52.5732 37.0822 52.3449 36.4148 52.3449 35.6315C52.3449 34.8481 52.5732 34.1807 52.8918 33.7346C53.2118 33.2867 53.5636 33.127 53.8481 33.127C54.1326 33.127 54.4844 33.2867 54.8044 33.7346C55.123 34.1807 55.3513 34.8481 55.3513 35.6315Z" stroke="white" stroke-width="2"/>
</g>
<defs>
<clipPath id="clip0_9_83">
<rect width="75" height="75" fill="white"/>
</clipPath>
</defs>
</svg>
