<svg width="73" height="75" viewBox="0 0 73 75" fill="none" xmlns="http://www.w3.org/2000/svg">
<path d="M19.9812 47.1375H52.0625V27.8625H19.9812V47.1375ZM22.7937 30.675H49.25V44.3063H22.7937V30.675Z" fill="#505772"/>
<path d="M7.7375 58.275L11.1125 61.65H2.84375V10.9313H19.9813V20.175H52.0625V0.918762H19.9813V8.11876H0.03125V64.5H11.1125L7.71875 68.0625L9.55625 69.8063L16.0437 62.9813L9.5375 56.475L7.7375 58.275ZM22.7938 3.73126H49.25V17.3625H22.7938V3.73126Z" fill="#505772"/>
<path d="M61.9437 9.35627L65.3187 5.98127L63.5375 4.18127L57.0312 10.6875L63.5187 17.5125L65.3562 15.7688L61.9625 12.2063H70.175V63.0938H52.0625V54.8438H19.9812V74.1H52.0625V65.9063H72.9687V9.35627H61.9437ZM49.25 71.2688H22.7937V57.6375H49.25V71.2688Z" fill="#505772"/>
</svg>
