<svg width="100" height="69" viewBox="0 0 100 69" fill="none" xmlns="http://www.w3.org/2000/svg">
<rect width="100" height="69" fill="white"/>
<path d="M10.9332 51.065V51.065C10.9332 54.894 14.0372 57.998 17.8662 57.998H65.3302C69.7484 57.998 73.3302 54.4163 73.3302 49.998V26.3809C73.3302 21.9626 69.7484 18.3809 65.3302 18.3809H18.1138C14.1481 18.3809 10.9332 21.5958 10.9332 25.5615V25.5615" stroke="#505772" stroke-width="3"/>
<path d="M26.5943 57.9982L23.8087 62.4551M56.9261 57.9982L60.0212 62.4551" stroke="#505772" stroke-width="3" stroke-linecap="round" stroke-linejoin="round"/>
<path d="M29.2559 9.96239C29.586 7.31455 31.7275 3.28819 38.0662 4.10817C39.4693 4.279 42.6717 5.49188 44.2564 8.97678C46.3198 8.46429 50.8923 8.66929 52.675 13.5891C52.675 14.3579 53.2738 16.0835 51.7881 18.1334" stroke="#505772" stroke-width="3" stroke-linecap="round"/>
<path d="M22.5705 17.8859C21.8277 15.7863 21.2785 12.1905 26.4287 10.3009C28.7605 9.44536 31.3312 10.1434 32.1235 12.6629" stroke="#505772" stroke-width="3" stroke-linecap="round"/>
<path fill-rule="evenodd" clip-rule="evenodd" d="M5.71685 26.3044H17.1448C18.0892 26.3044 18.8617 27.0764 18.8617 28.0203V49.5351C18.8617 50.479 18.0892 51.251 17.1448 51.251H5.71685C4.77242 51.251 4 50.479 4 49.5351V28.0203C4 27.0764 4.77242 26.3044 5.71685 26.3044V26.3044Z" stroke="#505772" stroke-width="3"/>
<path fill-rule="evenodd" clip-rule="evenodd" d="M8.99549 35.4908C9.65745 35.4908 10.194 36.0271 10.194 36.6887C10.194 37.3503 9.65745 37.8866 8.99549 37.8866C8.33352 37.8866 7.79697 37.3503 7.79697 36.6887C7.79697 36.0271 8.33352 35.4908 8.99549 35.4908Z" fill="#505772"/>
<path fill-rule="evenodd" clip-rule="evenodd" d="M8.99549 40.3591C9.65745 40.3591 10.194 40.8954 10.194 41.557C10.194 42.2186 9.65745 42.7549 8.99549 42.7549C8.33352 42.7549 7.79697 42.2186 7.79697 41.557C7.79697 40.8954 8.33352 40.3591 8.99549 40.3591Z" fill="#505772"/>
<path fill-rule="evenodd" clip-rule="evenodd" d="M8.99549 45.2273C9.65745 45.2273 10.194 45.7636 10.194 46.4252C10.194 47.0868 9.65745 47.6231 8.99549 47.6231C8.33352 47.6231 7.79697 47.0868 7.79697 46.4252C7.79697 45.7636 8.33352 45.2273 8.99549 45.2273Z" fill="#505772"/>
<path fill-rule="evenodd" clip-rule="evenodd" d="M13.8668 35.4908C14.5288 35.4908 15.0653 36.0271 15.0653 36.6887C15.0653 37.3503 14.5288 37.8866 13.8668 37.8866C13.2049 37.8866 12.6683 37.3503 12.6683 36.6887C12.6683 36.0271 13.2049 35.4908 13.8668 35.4908Z" fill="#505772"/>
<path fill-rule="evenodd" clip-rule="evenodd" d="M13.8668 40.3591C14.5288 40.3591 15.0653 40.8954 15.0653 41.557C15.0653 42.2186 14.5288 42.7549 13.8668 42.7549C13.2049 42.7549 12.6683 42.2186 12.6683 41.557C12.6683 40.8954 13.2049 40.3591 13.8668 40.3591Z" fill="#505772"/>
<path fill-rule="evenodd" clip-rule="evenodd" d="M13.8668 45.2273C14.5288 45.2273 15.0653 45.7636 15.0653 46.4252C15.0653 47.0868 14.5288 47.6231 13.8668 47.6231C13.2049 47.6231 12.6683 47.0868 12.6683 46.4252C12.6683 45.7636 13.2049 45.2273 13.8668 45.2273Z" fill="#505772"/>
<path fill-rule="evenodd" clip-rule="evenodd" d="M11.4309 29.9096C12.3577 29.9096 13.1088 30.6603 13.1088 31.5866C13.1088 32.5129 12.3577 33.2637 11.4309 33.2637C10.5041 33.2637 9.75296 32.513 9.75296 31.5866C9.75296 30.6603 10.5041 29.9096 11.4309 29.9096Z" fill="#505772"/>
<path fill-rule="evenodd" clip-rule="evenodd" d="M35.7191 32.9484L35.6935 43.7937C35.7022 45.7326 37.0928 44.8271 37.8733 44.4127L47.7481 39.1667C48.1366 38.9581 48.433 38.4584 48.3688 37.9774C48.2919 37.4024 47.7828 37.0963 47.2864 36.8313L37.579 31.6502C37.2224 31.4599 36.9417 31.2422 36.6177 31.2573C35.7533 31.2973 35.7206 32.2323 35.7191 32.9484L35.7191 32.9484Z" fill="#FEFEFE" stroke="#505772" stroke-width="3"/>
<path d="M80.4459 39.5347L97.5954 48.5891V20.8533L80.8926 29.2004V17.9377C80.8926 14.1225 77.6459 11.0104 73.6775 10.9993L56.9879 10.9528" stroke="#505772" stroke-width="3" stroke-linecap="round" stroke-linejoin="round"/>
</svg>
