<svg width="100" height="89" viewBox="0 0 100 89" fill="none" xmlns="http://www.w3.org/2000/svg">
<path d="M81.892 24.0699C80.338 13.6286 71.254 5.67403 60.592 5.67403C57.976 5.67403 55.208 6.19259 52.748 7.15163C48.322 3.75596 42.862 1.91797 37.244 1.91797C23.812 1.91797 12.942 12.151 11.958 25.4434C5.15 28.4226 0.647995 35.264 0.647995 42.8562C0.647995 53.3235 9.13599 61.8227 19.592 61.8227H38.668V58.0627H19.592C11.208 58.0627 4.4 51.2233 4.4 42.8262C4.4 36.3752 8.412 30.623 14.39 28.4987C15.116 28.2384 15.608 27.5657 15.632 26.7889C15.944 14.9481 25.416 5.67203 37.218 5.67203C42.344 5.67203 47.312 7.48599 51.222 10.7515C51.764 11.218 52.542 11.3201 53.188 11.0098C55.466 9.97268 58.08 9.40406 60.564 9.40406C69.804 9.40406 77.622 16.6319 78.32 25.8819C78.398 26.7889 79.122 27.5156 80.028 27.6177C87.844 28.3185 93.978 35.0037 93.978 42.8542C93.978 51.2493 87.12 58.0907 78.658 58.0907H59.58V61.8468H78.654C89.162 61.8468 97.73 53.3215 97.73 42.8802C97.704 33.5782 90.87 25.6216 81.89 24.0679L81.892 24.0699Z" fill="#505772"/>
<path d="M51.118 68.9745V48.3462H47.364V68.9745C44.078 69.7013 41.464 72.2921 40.738 75.6077H19.024V79.3657H40.738C41.592 83.278 45.062 86.2051 49.228 86.2051C53.344 86.2051 56.76 83.278 57.614 79.3657H79.304V75.6077H57.614C56.89 72.3181 54.354 69.7273 51.118 68.9745V68.9745ZM49.228 82.4471C46.484 82.4471 44.258 80.2186 44.258 77.4717C44.258 74.7247 46.484 72.4963 49.228 72.4963C51.894 72.4963 54.068 74.7247 54.068 77.4717C54.068 80.2186 51.894 82.4471 49.228 82.4471V82.4471Z" fill="#505772"/>
</svg>
