<svg width="91" height="80" viewBox="0 0 91 80" fill="none" xmlns="http://www.w3.org/2000/svg">
<path d="M74.4473 21.8581C73.0346 12.3762 64.7764 5.15261 55.0837 5.15261C52.7055 5.15261 50.1891 5.62352 47.9527 6.49443C43.9291 3.41079 38.9655 1.7417 33.8582 1.7417C21.6473 1.7417 11.7655 11.0344 10.8709 23.1053C4.68184 25.8108 0.589111 32.0235 0.589111 38.9181C0.589111 48.4235 8.30547 56.1417 17.8109 56.1417H35.1527V52.7272H17.8109C10.1891 52.7272 4.00002 46.5162 4.00002 38.8908C4.00002 33.0326 7.64729 27.809 13.0818 25.8799C13.7418 25.6435 14.1891 25.0326 14.2109 24.3272C14.4946 13.5744 23.1055 5.15079 33.8346 5.15079C38.4946 5.15079 43.0109 6.79806 46.5655 9.76352C47.0582 10.1872 47.7655 10.2799 48.3527 9.99806C50.4237 9.05625 52.8 8.53988 55.0582 8.53988C63.4582 8.53988 70.5655 15.1035 71.2 23.5035C71.2709 24.3272 71.9291 24.9872 72.7527 25.0799C79.8582 25.7162 85.4346 31.7872 85.4346 38.9162C85.4346 46.5399 79.2 52.7526 71.5073 52.7526H54.1637V56.1635H71.5037C81.0564 56.1635 88.8455 48.4217 88.8455 38.9399C88.8218 30.4926 82.6091 23.2672 74.4455 21.8562L74.4473 21.8581Z" fill="#505772"/>
<path d="M46.4709 62.6361V43.9033H43.0582V62.6361C40.0709 63.2961 37.6946 65.6488 37.0346 68.6597H17.2946V72.0724H37.0346C37.8109 75.6251 40.9655 78.2833 44.7527 78.2833C48.4946 78.2833 51.6 75.6251 52.3764 72.0724H72.0946V68.6597H52.3764C51.7182 65.6724 49.4127 63.3197 46.4709 62.6361V62.6361ZM44.7527 74.8706C42.2582 74.8706 40.2346 72.847 40.2346 70.3524C40.2346 67.8579 42.2582 65.8342 44.7527 65.8342C47.1764 65.8342 49.1527 67.8579 49.1527 70.3524C49.1527 72.847 47.1764 74.8706 44.7527 74.8706V74.8706Z" fill="#505772"/>
</svg>
