<svg width="86" height="100" viewBox="0 0 86 100" fill="none" xmlns="http://www.w3.org/2000/svg">
<path d="M84.5877 29.993C84.4491 29.1348 84.1257 28.9028 83.3404 28.9724C82.6936 29.042 63.5447 28.9956 62.7824 28.9956C62.921 28.6244 62.9672 28.4157 63.0596 28.2069C65.2771 22.8949 67.4715 17.5597 69.6659 12.2477C69.8276 11.8766 69.9662 11.4359 69.9662 11.0415C69.9893 7.56205 69.9893 4.05938 69.9662 0.579912C69.9662 0.440733 69.92 0.301554 69.8969 0C68.0028 1.41498 66.2935 2.87636 64.3994 4.08258C61.7199 5.79912 59.7334 7.95639 58.9018 11.0647C58.8094 11.4359 58.6016 11.7838 58.4399 12.1318C56.1762 17.4206 53.9125 22.7325 51.6488 28.0213C51.4409 28.5317 51.3023 29.0188 50.5401 28.9956C49.8933 28.9724 49.2234 28.9724 48.5767 28.9724C46.9367 28.9724 45.4121 28.9724 43.8876 28.9492L38.2284 28.926C34.2785 28.8796 34.9253 28.7636 34.9253 28.7636C34.9253 28.7636 34.9715 22.6398 34.9484 19.9722C34.9484 19.3227 35.087 18.9283 35.7106 18.5804C37.3507 17.6757 38.1822 16.1911 38.1822 14.3122C38.1591 11.8766 36.3574 9.8817 34.0937 9.55695C31.6914 9.209 29.474 10.5312 28.6886 12.7581C27.9032 14.9849 28.8041 17.3742 30.9523 18.6268C31.4605 18.9283 31.599 19.2299 31.599 19.7866C31.576 22.4542 31.5529 25.145 31.599 27.8126C31.6221 28.6476 31.2757 28.8564 30.5134 28.8564C27.7646 28.8564 15.7533 28.9492 13.0045 28.9492C12.3115 28.9492 12.0575 29.158 11.942 29.8539C11.249 33.7741 11.018 37.6711 11.5262 41.6377C11.6186 42.264 11.4569 43.0063 11.1566 43.563C8.50024 48.411 5.77458 53.2359 3.07202 58.0608C2.30976 59.4294 1.5475 60.8212 0.715942 62.3289C4.80443 63.28 8.77743 64.1846 12.8197 65.1125V85.5254H28.9658V100H67.5408V98.7474C67.5408 92.0668 67.5639 85.363 67.5177 78.6824C67.5177 77.801 67.7949 77.2675 68.4878 76.7571C71.7448 74.3447 74.5628 71.4451 76.942 68.1512C82.093 61.0531 84.888 53.1199 85.1652 44.3285C85.35 39.55 85.3962 34.7483 84.5877 29.993V29.993ZM66.7554 6.33264V8.51311C66.178 8.23475 65.6467 7.97959 64.9999 7.65484C65.6236 7.19091 66.1087 6.81976 66.7554 6.33264V6.33264ZM62.7593 10.1137L66.3166 11.8998C66.2011 12.2013 66.1318 12.4797 66.0394 12.7349C63.9374 17.8381 61.7892 22.9413 59.7103 28.0677C59.41 28.7868 59.0635 29.0652 58.2782 29.0188C57.8393 28.9956 57.3773 28.9956 56.9384 28.9956H54.6979V28.9724C54.0742 28.9724 53.4505 28.9724 52.8269 28.9492H54.6979C57.4235 22.5934 60.0568 16.4231 62.7593 10.1137V10.1137ZM33.3546 12.7581C34.2323 12.7813 34.9484 13.5467 34.9253 14.4282C34.9022 15.3097 34.1399 16.0288 33.2622 16.0056C32.3613 15.9824 31.6914 15.2633 31.6914 14.3586C31.7376 13.454 32.4768 12.7349 33.3546 12.7581V12.7581ZM81.7466 47.6224C81.146 54.4885 78.5127 60.7284 74.4242 66.2955C71.8834 69.775 68.8343 72.7441 65.3002 75.1798C64.5841 75.6669 64.3994 76.2236 64.3994 77.0355C64.4225 83.2057 64.3994 89.3528 64.3994 95.5231V96.7525H32.1765V82.2547H16.0305V74.855C16.0305 71.1436 16.0074 67.4089 16.0766 63.6975C16.0997 62.816 15.8226 62.4681 14.9679 62.2825C12.0806 61.6794 9.2163 60.9835 6.32895 60.334C6.14416 60.2876 5.95937 60.218 5.65909 60.1485C5.84388 59.8005 5.98247 59.499 6.14416 59.1974C8.75433 54.5349 11.2952 49.8492 13.9747 45.2331C14.7831 43.8645 14.991 42.5887 14.7369 41.081C14.529 39.8051 14.4366 38.4829 14.4597 37.1839C14.4597 35.5602 14.6445 33.9364 14.7369 32.2431C15.0603 32.1967 15.3144 32.1503 15.5685 32.1503H80.7995C81.4001 32.1503 81.8852 32.1503 81.8852 32.9854C81.8159 37.8566 82.1623 42.7511 81.7466 47.6224V47.6224ZM56.4996 28.9724H56.592H56.4996ZM56.592 28.9724H58.6478H56.592ZM55.6449 28.9724H56.4996H54.6979H55.6449Z" fill="#505772"/>
<path d="M46.9367 28.9724L42.3631 28.9492C42.8713 28.9492 43.3795 28.9492 43.8876 28.9724H44.3034C45.1812 28.9956 46.0589 28.9956 46.9367 28.9724ZM48.9925 28.9956H47.8837H48.9925ZM46.9367 28.9724H47.9068C47.5835 28.9956 47.2601 28.9724 46.9367 28.9724ZM27.5337 41.916C25.0621 42.0784 23.4683 40.617 22.3365 37.1144H19.3567C19.2181 41.4521 23.0063 45.1404 27.4644 45.0708C31.7608 45.0012 35.4566 41.2434 35.1794 37.1144H32.2227C31.6222 40.1299 30.0284 41.7537 27.5337 41.916Z" fill="#505772"/>
</svg>
