<svg width="15" height="15" viewBox="0 0 15 15" fill="none" xmlns="http://www.w3.org/2000/svg">
<path d="M14.6329 3.51912L7.64291 0.0699556C7.59129 0.0248542 7.52506 0 7.4565 0C7.38795 0 7.32172 0.0248542 7.27009 0.0699556L0.280151 3.51912C0.0926737 3.51912 0 3.70553 0 3.89195C0 4.07836 0.0926737 4.26477 0.280151 4.26477L7.27009 7.71287C7.36383 7.71287 7.36383 7.80661 7.4565 7.80661C7.54918 7.80661 7.54918 7.80661 7.64291 7.71287L13.1416 5.01042V8.92508C13.1416 9.20417 13.329 9.39058 13.6081 9.39058C13.8883 9.39058 14.0736 9.20417 14.0736 8.92508V4.54386L14.6329 4.26477C14.8203 4.26477 14.913 4.07836 14.913 3.89195C14.913 3.70553 14.8203 3.51912 14.6329 3.51912ZM7.4565 6.78081L1.4913 3.89195L7.4565 1.00202L13.4217 3.89195L7.4565 6.78081ZM11.5576 6.35792C11.8367 6.35792 12.0241 6.54433 12.0241 6.82342V11.1194C12.0241 11.2121 11.9304 11.3985 11.744 11.4923C10.3978 12.1056 8.93583 12.4234 7.4565 12.4243C5.87253 12.4243 4.38016 12.1442 3.16901 11.4923C2.9826 11.4923 2.88886 11.3058 2.88886 11.1194V6.82342C2.88886 6.54433 3.07634 6.35792 3.35543 6.35792C3.63558 6.35792 3.82093 6.54433 3.82093 6.82342V10.8393C5.87253 11.7713 9.04048 11.7713 11.0921 10.8393V6.82342C11.0921 6.54433 11.2774 6.35792 11.5576 6.35792Z" fill="#505772"/>
</svg>
