<svg width="100" height="116" viewBox="0 0 100 116" fill="none" xmlns="http://www.w3.org/2000/svg">
<path d="M97.3684 35.2106C97.2105 34.237 96.8421 33.9738 95.9474 34.0527C95.2105 34.1317 73.3947 34.0791 72.5263 34.0791C72.6842 33.658 72.7369 33.4212 72.8421 33.1843C75.3684 27.158 77.8684 21.1054 80.3684 15.0791C80.5526 14.658 80.7105 14.158 80.7105 13.7106C80.7369 9.76327 80.7369 5.78959 80.7105 1.84222C80.7105 1.68433 80.6579 1.52643 80.6316 1.18433C78.4737 2.78959 76.5263 4.44748 74.3684 5.8159C71.3158 7.76327 69.0526 10.2106 68.1053 13.737C68 14.158 67.7632 14.5527 67.579 14.9475C65 20.9475 62.4211 26.9738 59.8421 32.9738C59.6053 33.5527 59.4474 34.1054 58.579 34.0791C57.8421 34.0527 57.079 34.0527 56.3421 34.0527C54.4737 34.0527 52.7368 34.0527 51 34.0264L44.5526 34.0001C40.0526 33.9475 40.7895 33.8159 40.7895 33.8159C40.7895 33.8159 40.8421 26.8685 40.8158 23.8422C40.8158 23.1054 40.9737 22.658 41.6842 22.2633C43.5526 21.237 44.5 19.5527 44.5 17.4212C44.4737 14.658 42.4211 12.3949 39.8421 12.0264C37.1053 11.6317 34.579 13.1317 33.6842 15.658C32.7895 18.1843 33.8158 20.8948 36.2632 22.3159C36.8421 22.658 37 23.0001 37 23.6317C36.9737 26.658 36.9474 29.7106 37 32.737C37.0263 33.6843 36.6316 33.9212 35.7632 33.9212C32.6316 33.9212 18.9474 34.0264 15.8158 34.0264C15.0263 34.0264 14.7368 34.2633 14.6053 35.0527C13.8158 39.5001 13.5526 43.9212 14.1316 48.4212C14.2368 49.1317 14.0526 49.9738 13.7105 50.6054C10.6842 56.1054 7.57895 61.5791 4.50001 67.0527C3.63159 68.6054 2.76316 70.1843 1.8158 71.8948C6.47369 72.9738 11 74.0001 15.6053 75.0527V98.2106H34V114.632H77.9474V113.211C77.9474 105.632 77.9737 98.0264 77.9211 90.4475C77.9211 89.4475 78.2369 88.8422 79.0263 88.2633C82.7369 85.5264 85.9474 82.2369 88.6579 78.5001C94.5263 70.4475 97.7105 61.4475 98.0263 51.4738C98.2369 46.0527 98.2895 40.6054 97.3684 35.2106V35.2106ZM77.0526 8.36854V10.8422C76.3947 10.5264 75.7895 10.237 75.0526 9.86854C75.7632 9.34222 76.3158 8.92117 77.0526 8.36854V8.36854ZM72.5 12.658L76.5526 14.6843C76.4211 15.0264 76.3421 15.3422 76.2369 15.6317C73.8421 21.4212 71.3947 27.2106 69.0263 33.0264C68.6842 33.8422 68.2895 34.158 67.3947 34.1054C66.8947 34.0791 66.3684 34.0791 65.8684 34.0791H63.3158V34.0527C62.6053 34.0527 61.8947 34.0527 61.1842 34.0264H63.3158C66.4211 26.8159 69.4211 19.8159 72.5 12.658V12.658ZM39 15.658C40 15.6843 40.8158 16.5527 40.7895 17.5527C40.7632 18.5527 39.8947 19.3685 38.8947 19.3422C37.8684 19.3159 37.1053 18.5001 37.1053 17.4738C37.1579 16.4475 38 15.6317 39 15.658V15.658ZM94.1316 55.2106C93.4474 63.0001 90.4474 70.0791 85.7895 76.3948C82.8947 80.3422 79.4211 83.7106 75.3947 86.4738C74.579 87.0264 74.3684 87.658 74.3684 88.5791C74.3947 95.5791 74.3684 102.553 74.3684 109.553V110.947H37.6579V94.5001H19.2632V86.1054C19.2632 81.8948 19.2369 77.658 19.3158 73.4475C19.3421 72.4475 19.0263 72.0527 18.0526 71.8422C14.7632 71.158 11.5 70.3685 8.21053 69.6317C8.00001 69.5791 7.78948 69.5001 7.44737 69.4212C7.6579 69.0264 7.8158 68.6843 8.00001 68.3422C10.9737 63.0527 13.8684 57.737 16.9211 52.5001C17.8421 50.9475 18.079 49.5001 17.7895 47.7896C17.5526 46.3422 17.4474 44.8422 17.4737 43.3685C17.4737 41.5264 17.6842 39.6843 17.7895 37.7633C18.1579 37.7106 18.4474 37.658 18.7368 37.658H93.0527C93.7369 37.658 94.2895 37.658 94.2895 38.6054C94.2105 44.1317 94.6053 49.6843 94.1316 55.2106V55.2106ZM65.3684 34.0527H65.4737H65.3684ZM65.4737 34.0527H67.8158H65.4737ZM64.3947 34.0527H65.3684H63.3158H64.3947Z" fill="#505772"/>
<path d="M54.4737 34.0527L49.2632 34.0264C49.8421 34.0264 50.421 34.0264 51 34.0527H51.4737C52.4737 34.079 53.4737 34.079 54.4737 34.0527ZM56.8158 34.079H55.5526H56.8158ZM54.4737 34.0527H55.5789C55.2105 34.079 54.8421 34.0527 54.4737 34.0527ZM32.3684 48.7369C29.5526 48.9211 27.7368 47.2632 26.4474 43.2895H23.0526C22.8947 48.2106 27.2105 52.3948 32.2895 52.3158C37.1842 52.2369 41.3947 47.9737 41.0789 43.2895H37.7105C37.0263 46.7106 35.2105 48.5527 32.3684 48.7369Z" fill="#505772"/>
</svg>
