<svg width="113" height="100" viewBox="0 0 113 100" fill="none" xmlns="http://www.w3.org/2000/svg">
<path d="M71.2487 16.1182V18.8523H67.235V16.1182C55.1327 16.6773 44.3683 22.3227 37.1114 30.9705H42.5535C49.3629 24.175 58.8187 19.9705 69.2283 19.9705C89.9841 19.9705 106.844 36.6477 106.844 57.175C106.844 77.7068 89.9841 94.4114 69.2283 94.4114C53.2275 94.4114 39.5499 84.4409 34.1372 70.4705H29.8568C35.4458 86.7068 50.9381 98.3818 69.226 98.3818C92.2147 98.3818 110.86 79.9409 110.86 57.2068C110.86 35.1477 93.2837 17.1773 71.2487 16.1159V16.1182Z" fill="#505772"/>
<path d="M2.1402 36.4113H43.505V40.3818H2.1402V36.4113ZM7.5529 49.5H43.4756V53.4704H7.5529V49.5ZM13.7091 61.9113H43.505V65.8818H13.7091V61.9113ZM83.5612 40.3523L63.6664 60.0295L54.8344 51.2932L51.5348 54.5886L63.6664 66.5886L86.9218 43.6182L83.5612 40.3523ZM71.2487 18.8818V16.1182V5.58862H77.9406V1.61816H60.5137V5.58862H67.235V16.1477V18.8818H71.2487Z" fill="#505772"/>
</svg>
