<svg width="93" height="93" viewBox="0 0 93 93" fill="none" xmlns="http://www.w3.org/2000/svg">
<g clip-path="url(#clip0_516_11197)">
<path d="M79.2788 16.3895C71.7479 16.3895 65.6209 10.2625 65.6209 2.73158V0H27.3789V2.73158C27.3789 10.2625 21.2519 16.3895 13.721 16.3895H8.25781V42.0625C8.25781 65.1308 23.2103 85.8338 45.6966 92.7529L46.4999 93L47.3032 92.7529C69.3512 85.9687 84.742 65.5894 84.742 42.0625V16.3895H79.2788ZM79.2788 42.0625C79.2788 62.7973 66.1428 80.8614 46.4999 87.2766C26.8569 80.8612 13.721 62.7973 13.721 42.0625V21.8526C23.337 21.8526 31.318 14.7172 32.6475 5.46315H60.3524C61.682 14.7172 69.6629 21.8526 79.279 21.8526L79.2788 42.0625Z" fill="#505772"/>
<path d="M46.4991 24.584C34.4494 24.584 24.6465 34.3871 24.6465 46.4366C24.6465 58.4861 34.4494 68.2892 46.4991 68.2892C58.5486 68.2892 68.3517 58.4861 68.3517 46.4366C68.3517 42.0958 67.0792 38.0467 64.8879 34.6422L70.2831 29.247L66.4201 25.384L61.3669 30.4372C57.4638 26.8079 52.2367 24.584 46.4991 24.584ZM46.4991 62.8261C37.462 62.8261 30.1096 55.4738 30.1096 46.4366C30.1096 37.3995 37.462 30.0471 46.4991 30.0471C50.7303 30.0471 54.5922 31.6591 57.5033 34.3009L46.4991 45.3052L40.2358 39.042L36.3728 42.905L46.4989 53.0312L60.9043 38.6257C62.1691 40.949 62.8884 43.6105 62.8884 46.4368C62.8886 55.4738 55.5362 62.8261 46.4991 62.8261Z" fill="#505772"/>
</g>
<defs>
<clipPath id="clip0_516_11197">
<rect width="93" height="93" fill="white"/>
</clipPath>
</defs>
</svg>
