<svg width="102" height="100" viewBox="0 0 102 100" fill="none" xmlns="http://www.w3.org/2000/svg">
<path d="M85.1178 70.275L96.9573 57.62L39.0461 37.415L57.6723 97.415L70.5965 84.275L85.3541 99.275L99.4675 84.93L85.1178 70.275V70.275ZM73.4798 81.31C72.7012 80.5175 71.6488 80.1025 70.5965 80.1025C69.5466 80.1025 68.5266 80.5175 67.7131 81.31L59.5034 89.655L45.3229 44L89.5959 59.45L82.1324 67.45C80.6049 69.07 80.6398 71.62 82.1996 73.2075L93.6659 84.8625L85.287 93.38L73.4798 81.31V81.31Z" fill="#505772"/>
<path d="M6.78427 6.58499H46.6812V33.4475H51.2612V1.92999H2.20422V49.655H35.4861V45H6.78427V6.58499Z" fill="#505772"/>
</svg>
