<svg width="85" height="87" viewBox="0 0 85 87" fill="none" xmlns="http://www.w3.org/2000/svg">
<path d="M7.35002 64.2488L24.9118 54.1095M21.465 73.1292L6.99524 64.4537L7.12654 48.2943" stroke="#505772" stroke-width="3" stroke-linecap="round" stroke-linejoin="round"/>
<path d="M78.0158 63.2825L60.1857 53.6228M77.7957 47.3484L78.376 63.4777L64.9161 71.1219" stroke="#505772" stroke-width="3" stroke-linecap="round" stroke-linejoin="round"/>
<path d="M43.0761 2.76535L42.5266 23.0365M56.7654 10.923L43.0872 2.35583L29.7372 10.1903" stroke="#505772" stroke-width="3" stroke-linecap="round" stroke-linejoin="round"/>
<path d="M42.6002 44.6807V84.2807M57.0002 76.6807L42.6002 84.6807L29.0002 76.6807" stroke="#505772" stroke-width="3" stroke-linecap="round" stroke-linejoin="round"/>
<path d="M42.5401 44.1984L77.1013 22.9755M63.1919 15.199L77.4504 22.7611L77.3405 38.2398" stroke="#505772" stroke-width="3" stroke-linecap="round" stroke-linejoin="round"/>
<path d="M41.7825 44.1984L7.22131 22.9755M21.1307 15.199L6.87221 22.7611L6.98209 38.2398" stroke="#505772" stroke-width="3" stroke-linecap="round" stroke-linejoin="round"/>
</svg>
