<svg width="200" height="200" viewBox="0 0 200 200" fill="none" xmlns="http://www.w3.org/2000/svg">
<path d="M80.7004 26.7076C80.7004 27.6561 80.282 28.7432 79.1544 29.9383C78.0142 31.1467 76.2476 32.3484 73.8749 33.412C69.1352 35.5367 62.412 36.9152 54.8527 36.9152C47.2933 36.9152 40.5701 35.5367 35.8304 33.412C33.4577 32.3484 31.6911 31.1467 30.551 29.9383C29.4234 28.7432 29.0049 27.6561 29.0049 26.7076C29.0049 25.7591 29.4234 24.672 30.551 23.4769C31.6911 22.2685 33.4577 21.0669 35.8304 20.0032C40.5701 17.8786 47.2933 16.5 54.8527 16.5C62.412 16.5 69.1352 17.8786 73.8749 20.0032C76.2476 21.0669 78.0142 22.2685 79.1544 23.4769C80.282 24.672 80.7004 25.7591 80.7004 26.7076Z" stroke="#505772" stroke-width="5"/>
<path d="M80.7004 100.998C80.7004 101.947 80.282 103.034 79.1544 104.229C78.0142 105.437 76.2476 106.639 73.8749 107.703C69.1352 109.827 62.412 111.206 54.8527 111.206C47.2933 111.206 40.5701 109.827 35.8304 107.703C33.4577 106.639 31.6911 105.437 30.551 104.229C29.4234 103.034 29.0049 101.947 29.0049 100.998C29.0049 100.05 29.4234 98.9627 30.551 97.7676C31.6911 96.5592 33.4577 95.3575 35.8304 94.2939C40.5701 92.1692 47.2933 90.7906 54.8527 90.7906C62.412 90.7906 69.1352 92.1692 73.8749 94.2939C76.2476 95.3575 78.0142 96.5592 79.1544 97.7676C80.282 98.9627 80.7004 100.05 80.7004 100.998Z" stroke="#505772" stroke-width="5"/>
<path d="M70.9285 63.853C70.9285 77.4007 68.8785 89.5548 65.646 98.2316C64.0262 102.579 62.1575 105.924 60.2091 108.136C58.2572 110.352 56.4419 111.206 54.8558 111.206C53.2697 111.206 51.4544 110.352 49.5025 108.136C47.5541 105.924 45.6854 102.579 44.0657 98.2316C40.8331 89.5548 38.7831 77.4007 38.7831 63.853C38.7831 50.3053 40.8331 38.1511 44.0657 29.4744C45.6854 25.1265 47.5541 21.7822 49.5025 19.5701C51.4544 17.3541 53.2697 16.5 54.8558 16.5C56.4419 16.5 58.2572 17.3541 60.2091 19.5701C62.1575 21.7822 64.0262 25.1265 65.646 29.4744C68.8785 38.1511 70.9285 50.3053 70.9285 63.853Z" stroke="#505772" stroke-width="5"/>
<path d="M28.4612 103.931L37.2588 129.346C37.9104 130.975 39.9958 134.234 43.1238 134.234C46.2518 134.234 100.471 134.234 127.19 134.234C128.819 134.559 132.273 134.038 133.055 129.346C133.837 124.654 140.549 86.9873 143.807 68.7404C144.133 66.7854 143.807 62.8754 139.897 62.8754C135.987 62.8754 18.6861 62.8754 7.93347 62.8754" stroke="#505772" stroke-width="5" stroke-linecap="round"/>
<path d="M38.236 159.649C37.5844 156.39 37.845 149.874 44.1011 149.874C50.3572 149.874 103.404 149.874 129.145 149.874H137.943C141.527 149.874 149.477 147.137 152.605 136.188M155.538 117.616L165.313 57.0102" stroke="#505772" stroke-width="5" stroke-linecap="round"/>
<rect x="160.923" y="47.9342" width="28.6881" height="13.9495" rx="5.5" transform="rotate(-31.1985 160.923 47.9342)" stroke="#505772" stroke-width="5"/>
<circle cx="65.6049" cy="176.267" r="15.0952" stroke="#505772" stroke-width="5"/>
<circle cx="122.304" cy="176.267" r="15.0952" stroke="#505772" stroke-width="5"/>
<circle cx="54.853" cy="63.853" r="47.353" stroke="#505772" stroke-width="5"/>
</svg>
