<svg width="100" height="100" viewBox="0 0 100 100" fill="none" xmlns="http://www.w3.org/2000/svg">
<g clip-path="url(#clip0_10_207)">
<path d="M79.5299 21.0314C77.6922 21.0314 75.8545 21.2855 74.0667 21.7959C71.2625 9.06141 60.132 0 46.9097 0C32.3624 0 20.4946 10.9717 19.1946 25.2649C18.9382 25.2649 18.709 25.2399 18.4799 25.2399C8.34763 25.2399 0.102966 33.4846 0.102966 43.6169C0.102966 53.7491 8.34536 61.9938 18.4799 61.9938H22.6907V58.931H18.4776C10.0288 58.931 3.16352 52.0657 3.16352 43.6169C3.16352 35.168 10.0288 28.3027 18.4776 28.3027C19.1401 28.3027 19.7799 28.3527 20.4424 28.4298L22.1281 28.634L22.178 26.9506C22.6385 13.5263 33.4854 3.00837 46.9097 3.00837C59.2131 3.00837 69.4997 11.8406 71.3623 23.9898L71.6414 25.8525L73.4042 25.1877C75.3939 24.4481 77.463 24.0647 79.5299 24.0647C89.1267 24.0647 96.9358 31.876 96.9358 41.4729C96.9358 51.0697 89.1267 58.8788 79.5299 58.8788V61.9416C90.8351 61.9416 100.026 52.7531 100.026 41.4479C100.026 30.1404 90.8101 21.0291 79.5299 21.0291V21.0314Z" fill="#505772"/>
<path d="M78.4319 65.263H71.8978C71.3874 63.2983 70.5956 61.4084 69.5497 59.6229L74.1439 55.0536L73.3793 53.9805C71.6165 51.5303 69.4998 49.4135 67.0722 47.6779L66.0013 46.9111L61.4071 51.4803C59.6466 50.4344 57.7589 49.6676 55.767 49.1322V42.5982L54.4647 42.394C51.5811 41.9606 48.4661 41.9606 45.5825 42.394L44.2825 42.5982V49.1322C42.3155 49.6426 40.4256 50.4344 38.6401 51.4803L34.0459 46.9111L32.975 47.6779C30.5248 49.4135 28.4058 51.5575 26.6702 53.9828L25.9033 55.0536L30.4998 59.6479C29.4517 61.4356 28.6848 63.2983 28.1517 65.288H21.6177L21.4135 66.5903C21.1821 68.0445 21.08 69.526 21.08 71.0302C21.08 72.5367 21.182 74.0431 21.4112 75.4724L21.6154 76.7747H28.1494C28.6621 78.7395 29.4517 80.6293 30.4998 82.4148L25.9056 87.0091L26.6702 88.0799C28.4307 90.5302 30.5497 92.6492 32.975 94.3871L34.0459 95.1516L38.6401 90.5824C40.4007 91.6283 42.2906 92.3951 44.2803 92.9305V99.4645L45.5825 99.6687C47.0391 99.8979 48.5183 100 50.0248 100C51.5289 100 53.0354 99.8979 54.4647 99.6687L55.767 99.4645V92.9305C57.7317 92.4201 59.6216 91.6283 61.4071 90.5824L66.0013 95.1516L67.0745 94.3848C69.5247 92.6492 71.6415 90.5052 73.3771 88.0799L74.1439 87.0091L69.5746 82.4398C70.6205 80.6792 71.3874 78.7916 71.9228 76.7997H78.4568L78.661 75.4974C78.8924 74.0681 78.9945 72.5616 78.9945 71.0574C78.9945 69.551 78.8902 68.0445 78.661 66.6152L78.4319 65.263V65.263ZM75.7525 73.6847H69.4226L69.1663 74.9098C68.683 77.36 67.712 79.6583 66.3348 81.7501L65.6452 82.7983L70.1123 87.2632C68.9893 88.6698 67.7369 89.9176 66.3326 91.0407L61.8677 86.5757L60.8195 87.2632C58.7277 88.6698 56.4045 89.6113 53.9815 90.0991L52.7563 90.3532V96.683C50.9935 96.8623 49.1558 96.8623 47.4202 96.683V90.3532L46.1951 90.0968C43.7448 89.6136 41.4489 88.6426 39.3548 87.2654L38.3089 86.5757L33.8417 91.0407C32.4396 89.9176 31.1873 88.6675 30.0642 87.2632L34.5314 82.7983L33.8417 81.7501C32.4396 79.6583 31.4935 77.3351 31.0103 74.9098L30.7539 73.6847H24.4241C24.347 72.818 24.2971 71.9241 24.2971 71.0075C24.2971 70.1114 24.347 69.2198 24.4241 68.3259H30.7539L31.0103 67.1007C31.4935 64.6505 32.4623 62.3545 33.8417 60.2604L34.5314 59.2145L30.0642 54.7473C31.1873 53.343 32.4646 52.0929 33.8417 50.9699L38.3089 55.4371L39.3548 54.7473C41.4489 53.343 43.7721 52.3992 46.1951 51.9137L47.4202 51.6596V45.3297C49.1808 45.1505 51.0185 45.1505 52.7541 45.3297V51.6596L53.9792 51.9137C56.4295 52.3992 58.7277 53.3702 60.8195 54.7473L61.8677 55.4371L66.3326 50.9699C67.7392 52.0929 68.987 53.343 70.1123 54.7473L65.6429 59.2145L66.3326 60.2604C67.712 62.3522 68.6807 64.6754 69.1685 67.1007L69.4226 68.3259H75.7525C75.8273 69.1948 75.8795 70.0864 75.8795 71.0053C75.8795 71.8992 75.8273 72.793 75.7525 73.6847V73.6847Z" fill="#505772"/>
<path d="M50.0497 56.8414C42.2406 56.8414 35.8835 63.194 35.8835 71.0053C35.8835 78.8166 42.2406 85.1714 50.0497 85.1714C57.8587 85.1714 64.2158 78.8166 64.2158 71.0053C64.2158 63.1962 57.8587 56.8414 50.0497 56.8414V56.8414ZM50.0497 82.0836C43.924 82.0836 38.9464 77.106 38.9464 70.9803C38.9464 64.8547 43.924 59.902 50.0497 59.902C56.1753 59.902 61.153 64.8796 61.153 71.0053C61.153 77.1309 56.1753 82.0836 50.0497 82.0836V82.0836Z" fill="#505772"/>
</g>
<defs>
<clipPath id="clip0_10_207">
<rect width="100" height="100" fill="white"/>
</clipPath>
</defs>
</svg>
