<svg width="82" height="100" viewBox="0 0 82 100" fill="none" xmlns="http://www.w3.org/2000/svg">
<path d="M74.375 8.31366C65.0614 6.25002 55.7182 4.18866 46.4068 2.12502C44.4364 1.68638 40.4682 1.0932 40.4682 1.0932C40.4682 1.0932 35.0614 2.06138 34.1864 2.28184C25.0318 4.31138 15.875 6.3432 6.68636 8.3432C5.125 8.68638 1.875 9.56138 1.875 9.56138C1.875 9.56138 2.21818 12.9387 2.34318 14.3432C2.68864 17.6864 2.96818 21.0318 3.25 24.3432C3.81364 30.6568 4.31364 37 4.875 43.3137C5.56136 51.125 6.28182 58.9387 6.96818 66.75C7.56364 73.4068 8.125 80.0318 8.71818 86.6864C8.84318 87.9682 9.25 90.5318 9.25 90.5318C9.25 90.5318 11.5932 91.1864 12.8114 91.5318C21.5614 93.8432 30.3114 96.1864 39.0932 98.4682C39.5614 98.5932 40.5932 98.9364 40.5932 98.9364C40.5932 98.9364 41.6568 98.5637 42.1568 98.4682C44.4364 97.9682 46.6886 97.2818 48.9364 96.6864C55.4068 94.9682 61.875 93.2818 68.3454 91.5614C69.625 91.2205 72.125 90.2818 72.125 90.2818C72.125 90.2818 72.375 88.125 72.4364 87.25C72.9364 82.0932 73.375 76.9364 73.8114 71.7818C74.1886 67.625 74.5614 63.5 74.9068 59.3432L75.75 49.125L77.7182 26.9387C78.0932 22.8114 78.4068 18.6887 78.8432 14.5932C79 13.0932 79.3114 9.62502 79.3114 9.62502C79.3114 9.62502 76.0613 8.65684 74.375 8.31138V8.31366ZM75.4682 13.7182L74.3432 26.9364C74.0932 29.6864 72.4682 48.875 72.4682 48.875C72.4682 48.875 72.0932 52.8137 71.9068 54.8137C71.5 59.625 71.0932 64.4046 70.6568 69.2182L69.1568 86.0318C69.0932 86.7182 69.0318 87.6568 69.0318 87.6568C69.0318 87.6568 68.0318 88.0614 67.3136 88.25C60.7818 90 54.2818 91.75 47.75 93.4682C45.9682 93.9387 44.2182 94.375 42.3432 94.875V93.6568V74.3114L38.9068 74.3432V94.9068C35.5636 94.0318 32.4068 93.1864 29.25 92.3432C24.0932 90.9682 18.9682 89.5932 13.8136 88.25C13.3136 88.125 12.3432 87.75 12.3432 87.75C12.3432 87.75 12.1864 86.9364 12.1568 86.4682C11.9386 84.125 11.75 81.8137 11.5636 79.4682C11.1545 74.7182 10.75 69.9364 10.3432 65.1864L8.84318 48.375L7.625 33.9682C7.06136 27.3432 6.46818 20.75 5.90682 14.125C5.84318 13.2818 5.71818 12.1864 5.71818 12.1864C5.71818 12.1864 7.03182 11.7818 7.81136 11.625C15.9705 9.81138 24.0932 8.00002 32.25 6.2182C34.4682 5.7182 36.6864 5.25002 39 4.75002V56.7182L42.4682 56.6568V46.2182V6.25002V4.81366C42.7182 4.81366 42.8432 4.78184 42.9364 4.81366C48.5636 6.06366 54.1568 7.28184 59.7818 8.53184C64.4682 9.56138 69.1568 10.5932 73.8432 11.6568C74.4682 11.7818 75.6568 12.1568 75.6568 12.1568C75.6568 12.1568 75.5318 13.1568 75.4682 13.7182Z" fill="#505772"/>
<path d="M49.3432 61.5932V62.75H31.8432V61.5318V50.375L28.4682 50.4364V80.5H31.8137V67.3432V66.2182H49.25C49.2818 66.5932 49.3114 66.9386 49.3114 67.3136V80.5H52.6887V50.375H49.3137C49.375 50.375 49.3432 57.875 49.3432 61.5932V61.5932Z" fill="#505772"/>
</svg>
