<svg width="86" height="80" viewBox="0 0 86 80" fill="none" xmlns="http://www.w3.org/2000/svg">
<path d="M81.2636 35.7892L74.2091 34.8001C73.9782 33.6219 73.6418 32.4001 73.2418 31.2419L78.8636 26.8637C79.3691 26.4637 79.4945 25.791 79.1782 25.2419L74.7164 17.5147C74.4 16.9692 73.7254 16.7583 73.1582 16.9692L66.5473 19.6419C65.7255 18.7147 64.8636 17.831 63.9364 17.031L66.6091 10.4219C66.8418 9.85283 66.6091 9.17829 66.0636 8.86374L58.3364 4.40011C57.8309 4.08374 57.1364 4.21101 56.7582 4.69465L52.3782 10.3165C51.2 9.91647 50 9.60011 48.8218 9.34738L47.8309 2.29465C47.7473 1.68374 47.2218 1.22192 46.5891 1.22192H37.6836C37.0527 1.22192 36.5254 1.68374 36.4418 2.29465L35.4527 9.3492C34.2745 9.57829 33.0527 9.91647 31.8945 10.3165L27.4745 4.69465C27.0745 4.21101 26.4 4.06374 25.8527 4.37829L18.1055 8.84192C17.5582 9.15829 17.3473 9.83101 17.5582 10.4001L20.2309 17.011C19.3036 17.831 18.4218 18.7165 17.6218 19.6219L11.0309 16.9492C10.4636 16.7165 9.78909 16.9492 9.47454 17.4947L5.0109 25.2219C4.69454 25.7674 4.82181 26.4419 5.32545 26.8419L10.9473 31.2219C10.5473 32.4001 10.2309 33.6001 9.97818 34.7783L2.92545 35.7692C2.31636 35.8528 1.85272 36.3783 1.85272 37.011V45.9165C1.85272 46.5474 2.31636 47.0746 2.92545 47.1583L9.97999 48.1474C10.2109 49.3256 10.5473 50.5474 10.9473 51.7056L5.32727 56.1256C4.82363 56.5256 4.69636 57.2001 5.01272 57.7474L9.47636 65.4747C9.7909 66.0201 10.4436 66.231 11.0327 66.0201L17.6436 63.3474C18.4655 64.2746 19.3491 65.1583 20.2545 65.9583L17.5818 72.5692C17.3491 73.1365 17.5818 73.811 18.1273 74.1256L25.8545 78.5892C26.0655 78.6946 26.2545 78.7583 26.4855 78.7583C26.8655 78.7583 27.2236 78.5892 27.4764 78.2746L32.4218 71.9365L30.4436 70.4001L26.1709 75.8728L20.3382 72.5056L22.9491 66.0837C23.16 65.5783 23.0127 65.011 22.5909 64.6528C21.2855 63.5583 20.0854 62.3365 18.9909 61.0528C18.6327 60.6528 18.0636 60.5056 17.56 60.6946L11.1382 63.3056L7.74909 57.4328L13.2218 53.1583C13.6436 52.8219 13.8127 52.2528 13.6218 51.7474C13.0327 50.1056 12.5909 48.4637 12.2964 46.8201C12.2127 46.2746 11.7691 45.8746 11.2436 45.7892L4.37999 44.8219V38.0837L11.2436 37.1165C11.7909 37.031 12.2127 36.631 12.2982 36.0837C12.5909 34.4419 13.0327 32.8001 13.6236 31.1565C13.8127 30.6528 13.6436 30.0837 13.2236 29.7474L7.7509 25.4746L11.1182 19.6419L17.5382 22.2528C18.0436 22.4637 18.6109 22.3165 18.9709 21.8947C20.0654 20.5892 21.2654 19.3892 22.5709 18.2947C22.9709 17.9365 23.1164 17.3674 22.9273 16.8637L20.3182 10.4419L26.1491 7.07465L30.4218 12.5474C30.76 12.9692 31.3273 13.1365 31.8327 12.9474C33.4545 12.3783 35.0964 11.9165 36.76 11.6201C37.3055 11.5365 37.7054 11.0947 37.7909 10.5692L38.76 3.70556H45.4964L46.4654 10.5692C46.5491 11.1147 46.9491 11.5365 47.4964 11.6219C49.16 11.9165 50.8018 12.3583 52.4236 12.9492C52.9273 13.1365 53.4964 12.9674 53.8327 12.5492L58.1054 7.07465L63.9382 10.4419L61.3273 16.8637C61.1182 17.3692 61.2654 17.9365 61.6854 18.2947C62.9909 19.3892 64.1909 20.611 65.2855 21.8947C65.6436 22.2947 66.2127 22.4419 66.7182 22.2528L73.1382 19.6419L76.5073 25.4746L71.0345 29.7474C70.6127 30.0837 70.4436 30.6528 70.6345 31.1583C71.2018 32.8001 71.6654 34.4419 71.96 36.0856C72.0436 36.631 72.4873 37.031 73.0127 37.1165L79.8764 38.0837V44.8219L73.0127 45.7892C72.4655 45.8746 72.0436 46.2746 71.9582 46.8219C71.6654 48.4637 71.2236 50.1256 70.6327 51.7492C70.4436 52.2528 70.6127 52.8219 71.0327 53.1583L76.5054 57.431L73.1382 63.2637L66.7182 60.6528C66.2127 60.4419 65.6455 60.5892 65.2855 61.011C64.1909 62.3165 62.9709 63.5165 61.6854 64.611C61.2854 64.9692 61.14 65.5383 61.3273 66.0419L63.9382 72.4637L58.1073 75.831L53.8345 70.3583L51.8527 71.8946L56.8018 78.231C57.2018 78.7365 57.8745 78.8637 58.4236 78.5474L66.1509 74.0837C66.6964 73.7692 66.9073 73.0946 66.6964 72.5256L64.0236 65.9165C64.9509 65.0947 65.8327 64.211 66.6327 63.3056L73.2436 65.9783C73.8127 66.211 74.4854 65.9783 74.8018 65.4328L79.2655 57.7056C79.58 57.1583 79.4545 56.4837 78.9491 56.0837L73.3273 51.7056C73.7273 50.5256 74.0436 49.3256 74.2964 48.1474L81.3509 47.1583C81.96 47.0746 82.4236 46.5474 82.4236 45.9165V37.011C82.3382 36.4001 81.8964 35.8946 81.2654 35.7892H81.2636Z" fill="#505772"/>
<path d="M58.1891 32.2109C58.1891 26.9255 55.6 22 51.2836 18.9891C50.3382 18.3364 49.1164 18.2746 48.0836 18.7782C47.0527 19.3255 46.4 20.3782 46.4 21.5364V30.3364C46.4 30.6746 46.1273 30.9473 45.7891 30.9473H38.3582C38.0218 30.9473 37.7691 30.6746 37.7473 30.3364V21.5364C37.7473 20.3582 37.0946 19.3055 36.0636 18.7782C35.0309 18.2327 33.8091 18.3164 32.8636 18.9891C28.5255 22 25.9582 26.9473 25.9582 32.2109C25.9582 38.1255 29.2 43.1164 34.8636 45.8527C35.0527 45.9364 35.2636 46.1473 35.2636 46.4218V78.6527H37.7691V46.4218C37.7691 45.2218 37.0746 44.1255 35.9582 43.6C31.2 41.3055 28.4636 37.1582 28.4636 32.2109C28.4636 27.7473 30.6527 23.5782 34.3164 21.0309C34.5473 20.8637 34.8 20.9473 34.9055 20.9891C34.9891 21.0527 35.2418 21.2 35.2418 21.5364V30.3364C35.2418 32.0418 36.6309 33.4309 38.3364 33.4309H45.7691C47.4746 33.4309 48.8636 32.0418 48.8636 30.3364V21.5364C48.8636 21.2 49.0946 21.0309 49.2 20.9909C49.3055 20.9255 49.5582 20.8418 49.7891 21.0309C53.4527 23.5782 55.6436 27.7473 55.6436 32.2109C55.6436 37.1564 52.9055 41.2837 48.1473 43.6C47.0309 44.1473 46.3364 45.2218 46.3364 46.4218V78.6527H48.8418V46.4218C48.8418 46.1491 49.0527 45.9364 49.2418 45.8527C54.9691 43.1164 58.1891 38.1255 58.1891 32.2109Z" fill="#505772"/>
</svg>
