<svg width="117" height="100" viewBox="0 0 117 100" fill="none" xmlns="http://www.w3.org/2000/svg">
<g clip-path="url(#clip0_34_20)">
<path d="M6.06206 8.0561V11.4415H0V15.4683H6.06206V39.6171H0V43.6463H6.06206V67.7951H0V71.822H6.06206V100H117V94.8293H11.2296V0H6.06206V4.02927" fill="#505772"/>
<path d="M93.4148 29.2683H92.5519H66.4219V34.2781H88.4471L65.0544 57.8829H65.0325L53.664 52.0659L48.9889 49.6878L45.3034 53.4049L24.375 74.5049L27.8923 78.0488L49.9566 55.7805L61.347 61.6195L66.0002 64.0171L69.7076 60.2805L92.5519 37.2488V60.8976H97.5V34.2781V32.239V29.2683H93.4148Z" fill="#505772"/>
</g>
<defs>
<clipPath id="clip0_34_20">
<rect width="117" height="100" fill="white"/>
</clipPath>
</defs>
</svg>
