<svg width="200" height="200" viewBox="0 0 200 200" fill="none" xmlns="http://www.w3.org/2000/svg">
<path d="M6 99.0838V194.14H194C190.127 137.106 182.382 21.1378 182.382 13.5333C182.382 5.92879 175.341 4.73178 171.82 5.08384H163.371C153.231 5.08384 152.105 12.8292 152.809 16.7018L136.966 155.061L133.798 92.7468H126.404V63.1737L63.0337 92.7468V68.4546L6 99.0838Z" stroke="#505772" stroke-width="6" stroke-linejoin="round"/>
<rect x="32.2392" y="115.814" width="13.0112" height="17.236" stroke="#505772" stroke-width="6" stroke-linejoin="round"/>
<rect x="32.2392" y="149.612" width="13.0112" height="17.236" stroke="#505772" stroke-width="6" stroke-linejoin="round"/>
<rect x="63.9191" y="115.814" width="13.0112" height="17.236" stroke="#505772" stroke-width="6" stroke-linejoin="round"/>
<rect x="63.9191" y="149.612" width="13.0112" height="17.236" stroke="#505772" stroke-width="6" stroke-linejoin="round"/>
<rect x="95.603" y="115.814" width="13.0112" height="17.236" stroke="#505772" stroke-width="6" stroke-linejoin="round"/>
<rect x="95.603" y="149.612" width="13.0112" height="17.236" stroke="#505772" stroke-width="6" stroke-linejoin="round"/>
</svg>
