<svg width="183" height="100" viewBox="0 0 183 100" fill="none" xmlns="http://www.w3.org/2000/svg">
<rect width="183" height="100" fill="white"/>
<path d="M48.942 42.1632V38.8399C48.942 32.7479 54.5314 27.7643 61.3637 27.7643H126.031V71.9221C126.031 78.0126 120.44 82.998 113.609 82.998H64.6043L48.942 97V82.998V73.3701" stroke="#505772" stroke-width="3" stroke-linecap="round" stroke-linejoin="round"/>
<path d="M69.7065 22.7858V13.7961H91.7319L104.121 2.75L117.198 14.4098H139.912V66.5751H132.138" stroke="#505772" stroke-width="3" stroke-linecap="round" stroke-linejoin="round"/>
<path d="M80.5702 48.9158H80.57C77.8946 48.9158 75.7258 51.0846 75.7258 53.76V61.511C75.7258 64.1864 77.8946 66.3552 80.57 66.3552H80.5702C83.2456 66.3552 85.4144 64.1864 85.4144 61.511V53.76C85.4144 51.0846 83.2456 48.9158 80.5702 48.9158Z" stroke="#505772" stroke-width="3" stroke-linecap="round" stroke-linejoin="round"/>
<path d="M90.5818 62.8027C90.5818 68.3092 86.0767 72.8142 80.5709 72.8142H80.5703C75.0638 72.8142 70.5588 68.3092 70.5588 62.8027" stroke="#505772" stroke-width="3" stroke-linecap="round" stroke-linejoin="round"/>
<path d="M80.5701 72.814V79.2731" stroke="#505772" stroke-width="3" stroke-linecap="round" stroke-linejoin="round"/>
<path fill-rule="evenodd" clip-rule="evenodd" d="M32.6769 46.9238H63.22V64.9164C63.22 67.1036 61.4304 68.8932 59.2432 68.8932H28.7001V50.9006C28.7001 48.7133 30.4897 46.9238 32.6769 46.9238V46.9238Z" stroke="#505772" stroke-width="3"/>
<path d="M96.0737 41.4946C111.574 41.4946 117.21 41.4946 117.21 41.4946" stroke="#505772" stroke-width="3" stroke-linecap="round" stroke-linejoin="round"/>
<path d="M96.0737 50.8879C111.574 50.8879 117.21 50.8879 117.21 50.8879" stroke="#505772" stroke-width="3" stroke-linecap="round" stroke-linejoin="round"/>
<path d="M96.0737 60.2814C111.574 60.2814 117.21 60.2814 117.21 60.2814" stroke="#505772" stroke-width="3" stroke-linecap="round" stroke-linejoin="round"/>
<path d="M96.0737 69.6747C111.574 69.6747 117.21 69.6747 117.21 69.6747" stroke="#505772" stroke-width="3" stroke-linecap="round" stroke-linejoin="round"/>
<path d="M28.7001 62.188L34.2301 54.7771L42.0584 62.6054L49.8867 52.4286L56.9323 62.6054L63.22 51.2546" stroke="#505772" stroke-width="3" stroke-linecap="round" stroke-linejoin="round"/>
<path d="M42.0709 55.5599C43.361 55.5599 44.4069 54.514 44.4069 53.2239C44.4069 51.9338 43.361 50.8879 42.0709 50.8879C40.7808 50.8879 39.7349 51.9338 39.7349 53.2239C39.7349 54.514 40.7808 55.5599 42.0709 55.5599Z" fill="#505772"/>
</svg>
