<svg width="17" height="17" viewBox="0 0 17 17" fill="none" xmlns="http://www.w3.org/2000/svg">
<path d="M8.54539 0.292969C6.38505 0.292969 6.11415 0.302134 5.26571 0.340832C4.41904 0.379459 3.8408 0.513955 3.33482 0.710572C2.81174 0.913868 2.36813 1.18589 1.92592 1.62813C1.48369 2.07036 1.21168 2.51404 1.00842 3.03715C0.811771 3.54314 0.67733 4.12141 0.638657 4.96812C0.599961 5.81662 0.59082 6.08753 0.59082 8.24799C0.59082 10.4084 0.599961 10.6793 0.638657 11.5278C0.67733 12.3745 0.811771 12.9528 1.00842 13.4588C1.21171 13.9819 1.48372 14.4255 1.92592 14.8678C2.36816 15.31 2.81174 15.5821 3.33482 15.7854C3.8408 15.982 4.41904 16.1165 5.26571 16.1551C6.11415 16.1938 6.38505 16.203 8.54539 16.203C10.7057 16.203 10.9766 16.1938 11.825 16.1551C12.6717 16.1165 13.2499 15.982 13.7559 15.7854C14.279 15.5821 14.7226 15.31 15.1648 14.8678C15.607 14.4255 15.879 13.9819 16.0823 13.4588C16.2789 12.9528 16.4134 12.3745 16.4521 11.5278C16.4907 10.6793 16.4999 10.4084 16.4999 8.24799C16.4999 6.08753 16.4907 5.81662 16.4521 4.96812C16.4134 4.12141 16.2789 3.54314 16.0823 3.03715C15.879 2.51404 15.607 2.07036 15.1648 1.62813C14.7226 1.18589 14.279 0.913868 13.7559 0.710572C13.2499 0.513955 12.6717 0.379459 11.825 0.340832C10.9766 0.302134 10.7057 0.292969 8.54539 0.292969ZM8.54539 1.72629C10.6693 1.72629 10.9209 1.73441 11.7597 1.77269C12.5353 1.80805 12.9564 1.93764 13.2367 2.04658C13.608 2.19091 13.873 2.36327 14.1513 2.64164C14.4297 2.92001 14.6021 3.18503 14.7464 3.55633C14.8553 3.83664 14.9849 4.25787 15.0203 5.03347C15.0585 5.8723 15.0667 6.12391 15.0667 8.24797C15.0667 10.372 15.0585 10.6236 15.0203 11.4625C14.9849 12.2381 14.8553 12.6593 14.7464 12.9396C14.6021 13.3109 14.4297 13.5759 14.1513 13.8543C13.873 14.1327 13.608 14.305 13.2367 14.4494C12.9564 14.5583 12.5352 14.6879 11.7597 14.7232C10.921 14.7615 10.6695 14.7696 8.54537 14.7696C6.42126 14.7696 6.16973 14.7615 5.33105 14.7232C4.55547 14.6879 4.13429 14.5583 3.85402 14.4494C3.48269 14.305 3.21771 14.1327 2.93938 13.8543C2.66103 13.5759 2.48865 13.3109 2.34433 12.9396C2.2354 12.6593 2.10583 12.2381 2.07045 11.4625C2.03218 10.6236 2.02406 10.372 2.02406 8.24797C2.02406 6.12391 2.03218 5.8723 2.07045 5.03347C2.10583 4.25785 2.2354 3.83664 2.34433 3.55635C2.48865 3.185 2.66103 2.92001 2.93936 2.64167C3.21771 2.36327 3.48271 2.19091 3.85399 2.04658C4.13429 1.93764 4.55549 1.80805 5.33105 1.77269C6.16983 1.73441 6.42142 1.72629 8.54537 1.72629" fill="white"/>
<path d="M8.71596 10.1743C7.55793 10.1743 6.6192 9.23546 6.6192 8.07741C6.6192 6.91932 7.55793 5.98053 8.71596 5.98053C9.87394 5.98053 10.8127 6.91932 10.8127 8.07741C10.8127 9.23546 9.87394 10.1743 8.71596 10.1743ZM8.71596 4.84711C6.93199 4.84711 5.48584 6.29334 5.48584 8.07741C5.48584 9.86144 6.93199 11.3077 8.71596 11.3077C10.4999 11.3077 11.946 9.86144 11.946 8.07741C11.946 6.29334 10.4999 4.84711 8.71596 4.84711ZM12.8285 4.71948C12.8285 5.1364 12.4905 5.47434 12.0737 5.47434C11.6568 5.47434 11.3188 5.1364 11.3188 4.71948C11.3188 4.30258 11.6568 3.9646 12.0737 3.9646C12.4905 3.9646 12.8285 4.30258 12.8285 4.71948Z" fill="white"/>
</svg>
