<svg width="81" height="100" viewBox="0 0 81 100" fill="none" xmlns="http://www.w3.org/2000/svg">
<path d="M78.7391 71.8922C76.9075 70.4264 74.9426 69.1593 73.2418 67.5603C66.1794 60.9994 65.7482 50.7365 72.2436 43.6087C73.5762 42.1429 75.1752 40.8782 76.6749 39.5772C78.0389 38.4118 78.2061 37.278 77.0068 35.9794C76.108 35.0151 75.1752 34.0823 74.2085 33.181C68.1128 27.6523 61.0504 25.3191 52.922 27.3179C50.0897 28.0181 47.3568 29.0187 44.5924 30.0169C42.5937 30.751 40.6627 30.8818 38.6639 30.0823C37.4961 29.6171 36.2993 29.2828 35.1315 28.8855C31.2017 27.5844 27.2042 26.5523 22.974 26.7534C17.5082 27.0199 12.9776 29.2828 9.41369 33.2804C1.71894 41.9127 -0.846786 52.0036 1.31918 63.3301C2.71712 70.659 5.38218 77.5228 8.84676 84.0837C11.0127 88.2145 13.3459 92.1782 16.8104 95.4102C20.9074 99.2091 25.6051 100.874 31.1024 99.4756C33.5325 98.8432 35.931 97.9759 38.2981 97.1109C40.8953 96.1418 43.4949 96.1103 46.0921 97.0431C47.9238 97.7094 49.7239 98.3756 51.5555 99.008C57.7191 101.174 63.0492 99.7421 67.6452 95.2115C70.5768 92.3453 72.9099 89.0479 74.8748 85.5155C76.8396 81.954 78.5719 78.2884 80.4375 74.6566V73.4573C79.873 72.9582 79.34 72.3574 78.7391 71.8922V71.8922ZM75.3424 75.4561C72.7088 80.9534 69.9444 86.3829 65.8814 90.9789C65.1134 91.8802 64.2145 92.6797 63.3133 93.4453C60.2848 95.9771 56.8856 96.4108 53.2224 95.1436C51.6234 94.5791 49.9904 94.0461 48.3914 93.4114C44.3259 91.7469 40.2969 91.7469 36.1975 93.3459C34.332 94.0776 32.4325 94.6785 30.5016 95.2769C26.6033 96.4423 23.2066 95.478 20.1757 92.8129C17.3774 90.3465 15.3107 87.3156 13.513 84.0837C9.64627 77.1884 6.74863 69.9249 5.38218 62.1308C3.71773 52.7377 5.68261 44.3089 11.8462 36.946C15.977 32.0157 21.2417 30.0847 27.5361 31.4173C30.7681 32.0811 33.9661 33.0478 37.0649 34.1138C40.0958 35.1459 42.9934 35.1459 45.9928 34.0484C48.9898 32.9824 52.0231 31.9478 55.0879 31.2501C60.418 30.0823 65.2151 31.6159 69.5107 34.8794C70.5113 35.6474 71.478 36.5124 72.343 37.2465C70.7439 39.0102 69.0771 40.5778 67.713 42.3416C60.9486 51.2041 62.0825 63.0636 70.4096 70.7923C71.8439 72.0909 73.409 73.2587 74.9402 74.4579C75.3763 74.7559 75.6089 74.9231 75.3424 75.4561V75.4561ZM39.8971 25.4185C40.6627 25.5881 41.4622 25.6195 42.2278 25.588C46.2593 25.387 49.7239 23.7225 52.7209 21.1229C57.7506 16.7909 60.8154 11.4608 61.1158 4.59951C61.0165 3.70065 60.9826 2.73396 60.8178 1.76728C60.6482 0.635837 59.8172 -0.0304272 58.6858 0.00106896C58.1527 0.00106896 57.6197 0.0689068 57.1182 0.168241C52.0546 1.13493 47.7905 3.63282 44.292 7.39782C40.0618 11.9284 38.0291 17.3239 38.332 23.5529C38.3974 24.522 38.9304 25.2198 39.8971 25.4185ZM56.7185 4.59951C57.0528 11.8606 49.5567 20.7546 42.7608 21.2222C42.5282 14.6589 48.4568 6.5983 56.7185 4.59951V4.59951Z" fill="#505772"/>
</svg>
