<svg width="174" height="90" viewBox="0 0 174 90" fill="none" xmlns="http://www.w3.org/2000/svg">
<path d="M110.164 36.45V31.4617C102.708 30.375 99.054 34.6882 94.6102 39.6742C92.313 42.2617 89.7142 45.1867 86.1345 47.9992C77.2852 54.9382 61.542 53.4375 61.3912 53.4375V58.4617C61.578 58.5 63.6862 58.6507 66.1365 58.6507C71.784 58.6507 81.918 57.7507 89.262 51.975C93.2152 48.8992 95.967 45.7875 98.4127 43.0492C102.895 37.9867 105.608 35.7367 110.164 36.45V36.45ZM29.5267 54.2632C29.5267 57.0757 31.8262 59.3617 34.65 59.3617C37.4737 59.3617 39.7732 57.0757 39.7732 54.2632C39.7732 51.4507 37.4737 49.1625 34.65 49.1625C31.8262 49.1625 29.5267 51.4507 29.5267 54.2632V54.2632ZM142.969 35.7367C142.969 32.9242 140.672 30.6382 137.846 30.6382C135.022 30.6382 132.725 32.9242 132.725 35.7367C132.725 38.5492 135.02 40.8375 137.846 40.8375C140.672 40.8375 142.969 38.5492 142.969 35.7367Z" fill="#505772"/>
<path d="M61.4655 83.4007H7.79624V25.1617H61.4655V45.0742H66.5505V20.0992H2.71124V88.4632H66.5505V65.6257H61.4655V83.4007ZM105.118 1.53674V23.85H110.203V6.59924H165.454V64.8382H110.203V44.3632H105.118V69.9007H170.539V1.53674H105.118Z" fill="#505772"/>
</svg>
