<svg width="75" height="75" viewBox="0 0 75 75" fill="none" xmlns="http://www.w3.org/2000/svg">
<path d="M42.4032 46.8911H39.9063C39.3111 46.8911 38.8287 47.3619 38.8287 47.9422C38.8287 48.5225 39.3111 48.9933 39.9063 48.9933H49.5771C50.1723 48.9933 50.6531 48.5225 50.6531 47.9422V41.7084C50.6481 37.9996 47.5726 34.9937 43.776 34.9871H42.9702C45.5267 32.7323 46.3988 29.1677 45.162 26.0259C43.9252 22.8808 40.8348 20.8084 37.3896 20.8084C33.9444 20.8084 30.854 22.8808 29.6172 26.0259C28.3804 29.1677 29.2524 32.7306 31.809 34.9871H31.0032C27.2065 34.9937 24.1311 37.9996 24.1261 41.7084V47.9422C24.1311 48.5192 24.6119 48.9834 25.2021 48.9834H34.8728C35.468 48.9834 35.9505 48.5125 35.9505 47.9323C35.9505 47.352 35.468 46.8811 34.8728 46.8811H32.376M30.224 46.8811H26.2864V41.7084C26.2864 39.1618 28.3969 37.096 31.0032 37.091H43.776C46.3822 37.096 48.4928 39.1634 48.4928 41.7084V46.8911H44.5552M31.2138 28.9522C31.2138 25.6197 33.9792 22.9173 37.3896 22.9173C40.8 22.9173 43.5654 25.6197 43.5654 28.9522C43.5654 32.2847 40.8 34.9871 37.3896 34.9871C33.9842 34.9771 31.2287 32.2797 31.2237 28.9522H31.2138Z" fill="white"/>
<g clip-path="url(#clip0_9_83)">
<path d="M67.695 30.3014C64.0323 30.3203 61.081 33.2905 61.081 36.972C61.0636 40.6898 64.1424 43.7501 67.8398 43.6963C71.4663 43.6425 74.3987 40.6345 74.3814 36.9356C74.3451 33.3458 71.2837 30.3029 67.695 30.3029V30.3014ZM67.6037 40.908C65.6188 40.8541 63.8512 39.0127 63.8512 37.0447C63.8686 34.9676 65.7086 33.145 67.7674 33.1814C69.8986 33.2178 71.6112 34.985 71.575 37.1174C71.5387 39.2134 69.6987 40.9632 67.6037 40.908ZM23.4329 55.6032C19.6948 55.5858 16.7465 58.5065 16.7465 62.2287C16.7465 66.0061 19.7325 68.9996 23.5067 68.9996C27.0245 68.9996 30.0106 65.9698 30.0468 62.3567C30.0657 58.6883 27.0781 55.6221 23.4329 55.6047V55.6032ZM23.3778 66.1341C21.2538 66.153 19.4949 64.3829 19.5123 62.265C19.5123 60.0934 21.1799 58.4876 23.4329 58.524C25.5945 58.5603 27.3158 60.3305 27.2621 62.4294C27.2259 64.4003 25.4294 66.1167 23.3792 66.1341H23.3778ZM21.9377 18.396C25.6322 18.377 28.5502 15.4723 28.569 11.7792C28.5864 7.97705 25.6699 4.98069 21.9014 5.00105C18.1142 5.00105 15.2324 7.95814 15.2686 11.7981C15.3237 15.5465 18.2228 18.4134 21.9377 18.3945V18.396ZM22.0275 7.88396C24.1283 7.93923 25.8148 9.68469 25.8321 11.8345C25.851 13.948 24.0747 15.6934 21.955 15.6571C19.8354 15.6381 18.1678 13.8752 18.1678 11.7254C18.1866 9.59305 19.944 7.83014 22.0275 7.88541V7.88396ZM13.7908 36.9429C13.772 33.1901 10.841 30.284 7.08558 30.3014C3.29396 30.3203 0.454234 33.1901 0.490455 36.9996C0.528125 40.8076 3.56779 43.788 7.34347 43.6963C10.9511 43.6236 13.8097 40.6243 13.7908 36.9443V36.9429ZM7.10442 40.8803C5.07024 40.8614 3.33018 39.1145 3.27513 37.0549C3.22007 34.8832 4.92391 33.0985 7.06675 33.0796C9.22842 33.0621 11.0061 34.8105 11.025 36.9254C11.025 39.0229 9.15597 40.9167 7.10442 40.8818V40.8803ZM52.953 55.6032C49.2802 55.6032 46.2854 58.6316 46.3028 62.3203C46.3216 66.0818 49.244 68.9996 52.953 68.9996C56.6794 68.9996 59.6206 66.0454 59.6032 62.3203C59.6032 58.5589 56.6432 55.5858 52.953 55.6047V55.6032ZM52.9718 66.1734C50.7783 66.1559 49.1165 64.5036 49.1165 62.3203C49.1165 60.1923 50.8884 58.3756 52.953 58.393C54.9814 58.412 56.862 60.284 56.8808 62.3203C56.8996 64.3945 55.0727 66.1923 52.9718 66.1749V66.1734ZM52.9255 18.396C56.62 18.3581 59.622 15.3414 59.6032 11.6789C59.5843 7.9436 56.6215 4.96323 52.924 4.9996C49.1367 5.01851 46.3014 7.88832 46.3014 11.6789C46.3376 15.4694 49.228 18.4309 52.924 18.3945L52.9255 18.396ZM52.7429 7.85051C55.0103 7.77778 56.8229 9.48978 56.8402 11.7152C56.8591 13.8127 55.048 15.6527 52.9617 15.6716C50.858 15.6905 49.1208 13.9232 49.0831 11.7341C49.0469 9.61778 50.6392 7.92614 52.7429 7.85051ZM56.6475 54.284C57.3459 54.713 58.0124 55.1087 58.8237 55.6047C60.6101 52.4832 62.2995 49.5276 64.0366 46.473C63.2253 45.9945 62.5429 45.5989 61.8445 45.1858C60.0581 48.3058 58.3847 51.2454 56.6475 54.284ZM56.6475 19.7181C58.4006 22.7945 60.1059 25.7865 61.8445 28.8134C62.6081 28.3669 63.2253 28.0032 64.0366 27.5407C62.2661 24.4483 60.5782 21.4709 58.8237 18.3945C58.0124 18.8745 57.3778 19.2716 56.6475 19.7181ZM18.2243 19.6658C17.4607 19.2207 16.7957 18.841 16.0322 18.3945L10.8352 27.5087C11.5654 27.9552 12.1826 28.3349 12.9461 28.8134C14.7659 25.676 16.4697 22.7043 18.2243 19.6658ZM12.9751 45.1858C12.1841 45.6658 11.5755 46.044 10.8352 46.4905C12.5796 49.545 14.2907 52.5327 16.0365 55.6047C16.7928 55.1421 17.4839 54.713 18.2243 54.2505C16.4306 51.1465 14.7181 48.1749 12.9751 45.1858ZM43.3472 9.46505H31.5246V12.4411H43.3472V9.46505ZM31.5246 64.5341H43.3472V61.5581H31.5246V64.5341Z" fill="white"/>
</g>
<defs>
<clipPath id="clip0_9_83">
<rect width="73.8909" height="64" fill="white" transform="translate(0.490906 5)"/>
</clipPath>
</defs>
</svg>
