<svg width="165" height="152" viewBox="0 0 165 152" fill="none" xmlns="http://www.w3.org/2000/svg">
<path d="M58.2965 130.163L40.8712 98.6455C40.8712 98.6455 34.4606 88.9024 27.5414 99.4084L2.42069 143.226C2.42069 143.226 -2.70517 150.908 6.51601 150.908H157.722C157.722 150.908 167.211 152.447 161.817 142.958L136.188 99.6493C136.188 99.6493 130.032 88.367 121.841 99.9036L116.207 109.392" stroke="#505772" stroke-width="2" stroke-miterlimit="10" stroke-linecap="round" stroke-linejoin="round"/>
<path d="M47.0277 109.673L73.6741 62.2559" stroke="#505772" stroke-width="2" stroke-miterlimit="10" stroke-linecap="round" stroke-linejoin="round"/>
<path d="M87.5126 62.0017L135.693 143.239C135.693 143.239 141.849 151.189 132.615 150.921" stroke="#505772" stroke-width="2" stroke-miterlimit="10" stroke-linecap="round" stroke-linejoin="round"/>
<path d="M91.3668 90.709C91.3668 90.709 98.8615 96.8921 97.831 113.247C97.657 116.03 96.6264 117.61 96.4926 122.481C96.4926 122.481 96.4258 127.246 98.0585 133.054C99.7984 139.224 103.439 146.585 111.094 150.68" stroke="#505772" stroke-width="2" stroke-miterlimit="10" stroke-linecap="round" stroke-linejoin="round"/>
<path d="M75.2133 77.6335C75.2133 77.6335 86.2278 91.472 77.2609 110.182" stroke="#505772" stroke-width="2" stroke-miterlimit="10" stroke-linecap="round" stroke-linejoin="round"/>
<path d="M74.3166 117.864C74.3166 117.864 62.7801 139.331 78.1576 150.359" stroke="#505772" stroke-width="2" stroke-miterlimit="10" stroke-linecap="round" stroke-linejoin="round"/>
<path d="M80.5397 65.0799C84.8933 65.0799 88.4225 61.5506 88.4225 57.197C88.4225 52.8435 84.8933 49.3142 80.5397 49.3142C76.1861 49.3142 72.6568 52.8435 72.6568 57.197C72.6568 61.5506 76.1861 65.0799 80.5397 65.0799Z" stroke="#505772" stroke-width="2" stroke-miterlimit="10" stroke-linecap="round" stroke-linejoin="round"/>
<path d="M80.3389 1V49.3141" stroke="#505772" stroke-width="2" stroke-miterlimit="10" stroke-linecap="round" stroke-linejoin="round"/>
<path d="M81.4899 8.56177H113.53L107.641 20.7407L114.038 33.5486H80.9813" stroke="#505772" stroke-width="2" stroke-miterlimit="10" stroke-linecap="round" stroke-linejoin="round"/>
</svg>
