<svg width="183" height="100" viewBox="0 0 183 100" fill="none" xmlns="http://www.w3.org/2000/svg">
<rect width="183" height="100" fill="white"/>
<g clip-path="url(#clip0_7_2)">
<path d="M90.5128 31.4179C81.002 31.4179 73.0087 39.3759 73.06 48.746C73.1134 58.5455 80.8674 66.3945 90.4594 66.3945C99.9188 66.3945 108.019 58.3318 107.94 49.0408C107.887 39.2413 100.105 31.3923 90.5128 31.4179V31.4179ZM90.4871 62.0961C82.9982 62.0705 77.3238 56.2211 77.3494 48.5067C77.3772 41.4054 83.3188 35.5582 90.6218 35.5048C97.788 35.4514 103.836 41.5656 103.836 48.8784C103.862 56.142 97.8136 62.1239 90.4871 62.0961ZM135.137 40.162C129.734 40.1898 125.38 44.5523 125.38 49.9594C125.354 55.42 129.896 59.9149 135.35 59.8358C140.7 59.7568 145.026 55.3388 145 49.906C144.947 44.6335 140.431 40.1642 135.137 40.1642V40.162ZM135.002 55.7404C132.074 55.6614 129.466 52.9567 129.466 50.0662C129.492 47.0155 132.206 44.3386 135.243 44.392C138.387 44.4455 140.914 47.0411 140.86 50.173C140.807 53.2515 138.092 55.8216 135.002 55.7404V55.7404ZM69.8434 77.3241C64.3293 77.2985 59.98 81.5883 59.98 87.0552C59.98 92.6034 64.3848 97 69.9524 97C75.1416 97 79.5465 92.5499 79.6 87.2432C79.6277 81.8553 75.2207 77.3519 69.8434 77.3262V77.3241ZM69.7622 92.7914C66.629 92.8191 64.0343 90.2192 64.06 87.1086C64.06 83.919 66.52 81.5605 69.8434 81.6139C73.0322 81.6673 75.5712 84.2673 75.4922 87.35C75.4387 90.2448 72.7885 92.7657 69.7643 92.7914H69.7622ZM67.6377 22.6759C73.0877 22.6481 77.3922 18.3818 77.42 12.9576C77.4456 7.37313 73.1433 2.97222 67.5843 3.00213C61.9975 3.00213 57.7465 7.34536 57.8 12.9854C57.8812 18.4908 62.1578 22.7015 67.6377 22.6738V22.6759ZM67.7703 7.2364C70.8693 7.31759 73.357 9.88122 73.3827 13.0388C73.4105 16.1429 70.7902 18.7065 67.6634 18.6531C64.5366 18.6254 62.0766 16.0361 62.0766 12.8785C62.1044 9.74663 64.6969 7.15736 67.7703 7.23854V7.2364ZM55.62 49.9167C55.5922 44.4049 51.2685 40.1364 45.7287 40.162C40.1355 40.1898 35.9465 44.4049 36 50C36.0555 55.593 40.5395 59.9704 46.1092 59.8358C51.4309 59.729 55.6477 55.3238 55.62 49.9188V49.9167ZM45.7565 55.6998C42.7558 55.672 40.189 53.1063 40.1078 50.0812C40.0265 46.8916 42.54 44.2703 45.701 44.2425C48.8897 44.2169 51.5122 46.7848 51.5399 49.891C51.5399 52.9717 48.7829 55.7532 45.7565 55.702V55.6998ZM113.39 77.3241C107.972 77.3241 103.554 81.772 103.58 87.1898C103.608 92.7145 107.919 97 113.39 97C118.887 97 123.226 92.661 123.2 87.1898C123.2 81.6652 118.834 77.2985 113.39 77.3262V77.3241ZM113.418 92.849C110.182 92.8234 107.731 90.3965 107.731 87.1898C107.731 84.0643 110.344 81.396 113.39 81.4216C116.382 81.4494 119.156 84.1989 119.184 87.1898C119.212 90.2363 116.517 92.8768 113.418 92.8512V92.849ZM113.349 22.6759C118.799 22.6204 123.228 18.1895 123.2 12.8102C123.172 7.324 118.801 2.94659 113.347 3C107.76 3.02777 103.578 7.24281 103.578 12.8102C103.631 18.3775 107.895 22.7272 113.347 22.6738L113.349 22.6759ZM113.08 7.18727C116.425 7.08045 119.099 9.59495 119.124 12.8636C119.152 15.9442 116.48 18.6467 113.403 18.6745C110.299 18.7023 107.737 16.1066 107.681 12.8914C107.628 9.78295 109.977 7.29836 113.08 7.18727V7.18727ZM118.84 75.3864C119.87 76.0166 120.853 76.5977 122.05 77.3262C124.685 72.7416 127.177 68.4005 129.74 63.9141C128.543 63.2113 127.536 62.6302 126.506 62.0235C123.871 66.606 121.403 70.9235 118.84 75.3864ZM118.84 24.6179C121.426 29.1363 123.942 33.5308 126.506 37.9765C127.633 37.3207 128.543 36.7866 129.74 36.1072C127.128 31.5653 124.638 27.1922 122.05 22.6738C120.853 23.3788 119.917 23.962 118.84 24.6179ZM62.16 24.541C61.0336 23.8872 60.0526 23.3296 58.9263 22.6738L51.26 36.0602C52.3371 36.7161 53.2476 37.2737 54.3739 37.9765C57.0583 33.3684 59.5717 29.0038 62.16 24.541V24.541ZM54.4167 62.0235C53.2497 62.7285 52.3521 63.2839 51.26 63.9398C53.8332 68.4261 56.3573 72.8142 58.9327 77.3262C60.0483 76.6469 61.0678 76.0166 62.16 75.3373C59.514 70.7783 56.9878 66.4137 54.4167 62.0235ZM99.22 9.55863H81.78V13.9296H99.22V9.55863ZM81.78 90.4414H99.22V86.0704H81.78V90.4414Z" fill="#505772"/>
</g>
<defs>
<clipPath id="clip0_7_2">
<rect width="109" height="94" fill="white" transform="translate(36 3)"/>
</clipPath>
</defs>
</svg>
