<svg width="96" height="100" viewBox="0 0 96 100" fill="none" xmlns="http://www.w3.org/2000/svg">
<path d="M86.1454 72.1808C86.3117 73.4469 86.4269 81.3414 86.4909 82.4472C87.229 95.1936 81.3049 98.6349 70.2996 97.9599C52.2684 97.9599 30.8844 97.9599 12.8532 97.9599C4.82968 98.0312 2.23005 95.5187 2 86.4855C5.8248 86.4855 9.64927 86.4855 13.4741 86.4855C13.4741 85.9392 13.4741 85.393 13.4741 84.8464C13.4741 57.1621 13.4741 30.0245 13.4741 2.34021C30.4127 2.34021 47.351 2.34021 64.2893 2.34021C71.5745 9.80794 78.86 17.275 86.1453 24.7428C86.1453 30.5982 86.1453 41.482 86.1453 47.3374" stroke="#505772" stroke-width="3" stroke-linecap="round" stroke-linejoin="round"/>
<path d="M64.2933 2.73157C64.2933 4.32281 64.2933 25.0113 64.2933 25.0113H86.1671" stroke="#505772" stroke-width="3" stroke-linecap="round" stroke-linejoin="round"/>
<path d="M72.8849 97.9044C67.2725 97.5017 63.6494 94.0231 62.6502 86.4854C42.4333 86.4854 22.2165 86.4854 2 86.4854" stroke="#505772" stroke-width="3"/>
<path d="M24.3525 46.8983C43.9706 46.8983 51.1043 46.8983 51.1043 46.8983" stroke="#505772" stroke-width="3" stroke-linecap="round" stroke-linejoin="round"/>
<path d="M24.3525 55.4331C43.9706 55.4331 51.1043 55.4331 51.1043 55.4331" stroke="#505772" stroke-width="3" stroke-linecap="round" stroke-linejoin="round"/>
<path d="M24.3525 63.9681C43.9706 63.9681 51.1043 63.9681 51.1043 63.9681" stroke="#505772" stroke-width="3" stroke-linecap="round" stroke-linejoin="round"/>
<path d="M37.7283 72.5027C47.5372 72.5027 51.1042 72.5027 51.1042 72.5027" stroke="#505772" stroke-width="3" stroke-linecap="round" stroke-linejoin="round"/>
<path d="M58.543 46.4916L64.8106 49.2546L71.7464 67.6683H88.7745L94 53.1764H71.0254" stroke="#505772" stroke-width="3" stroke-linecap="round" stroke-linejoin="round"/>
<path d="M92.3233 57.9685H74.1953" stroke="#505772" stroke-width="3" stroke-linecap="round" stroke-linejoin="round"/>
<path d="M89.0998 62.9987H77.0307" stroke="#505772" stroke-width="3" stroke-linecap="round" stroke-linejoin="round"/>
<path d="M73.7895 68.7975L72.1396 72.0978H86.1671" stroke="#505772" stroke-width="3" stroke-linecap="round" stroke-linejoin="round"/>
<path d="M36.8488 14.7427H24.293V22.1474H36.8488V14.7427Z" stroke="#505772" stroke-width="3"/>
<path d="M36.8488 29.6702H24.293V37.0748H36.8488V29.6702Z" stroke="#505772" stroke-width="3"/>
<path d="M56.4744 14.7427H43.9186V22.1474H56.4744V14.7427Z" stroke="#505772" stroke-width="3"/>
<path d="M56.4744 29.6702H43.9186V37.0748H56.4744V29.6702Z" stroke="#505772" stroke-width="3"/>
<path d="M74.1692 76.9834C75.0807 76.9834 75.8196 76.2445 75.8196 75.3331C75.8196 74.4216 75.0807 73.6827 74.1692 73.6827C73.2578 73.6827 72.5189 74.4216 72.5189 75.3331C72.5189 76.2445 73.2578 76.9834 74.1692 76.9834Z" fill="#505772"/>
<path d="M81.2955 76.9834C82.2069 76.9834 82.9458 76.2445 82.9458 75.3331C82.9458 74.4216 82.2069 73.6827 81.2955 73.6827C80.384 73.6827 79.6451 74.4216 79.6451 75.3331C79.6451 76.2445 80.384 76.9834 81.2955 76.9834Z" fill="#505772"/>
</svg>
