<svg width="19" height="19" viewBox="0 0 19 19" fill="none" xmlns="http://www.w3.org/2000/svg">
<path d="M3.10523 7.22565H5.80694V15.9018H3.10523V7.22565ZM4.4541 2.90747C5.31603 2.90747 6.0166 3.60804 6.0166 4.46997C6.0166 5.3319 5.31603 6.03418 4.45467 6.03418C4.04004 6.03328 3.64264 5.86821 3.3494 5.57507C3.05616 5.28194 2.89094 4.8846 2.88989 4.46997C2.88989 4.26464 2.93036 4.06132 3.00899 3.87164C3.08762 3.68195 3.20287 3.50963 3.34814 3.36451C3.49341 3.2194 3.66586 3.10434 3.85563 3.02592C4.0454 2.9475 4.24876 2.90725 4.4541 2.90747ZM7.49387 7.22565H10.0802V8.41145H10.116C10.4763 7.72963 11.3558 7.01031 12.6728 7.01031C15.4035 7.01031 15.9075 8.80747 15.9075 11.1433V15.9024H13.2126V11.6819C13.2126 10.6762 13.1944 9.38077 11.8115 9.38077C10.4081 9.38077 10.1922 10.4774 10.1922 11.608V15.9001H7.49785V7.22395L7.49387 7.22565Z" fill="white"/>
</svg>
