<svg width="146" height="120" viewBox="0 0 146 120" fill="none" xmlns="http://www.w3.org/2000/svg">
<path d="M20.5 21H8C4.68629 21 2 23.1266 2 25.75V92.25C2 94.8734 4.68629 97 8 97H138C141.314 97 144 94.8734 144 92.25V25.75C144 23.1266 141.314 21 138 21H125" stroke="#505772" stroke-width="4"/>
<rect x="36" y="108" width="75" height="10" rx="4" stroke="#505772" stroke-width="4"/>
<path d="M53 96L52 107M92.5 96L94 107" stroke="#505772" stroke-width="4"/>
<path d="M30.5 14H26C22.6863 14 20 16.1315 20 18.7609V82.2391C20 84.8685 22.6863 87 26 87H120C123.314 87 126 84.8685 126 82.2391V18.7609C126 16.1315 123.314 14 120 14H114.5" stroke="#505772" stroke-width="4" stroke-linecap="round"/>
<path d="M48 19.5V42C50.1667 45.3333 58.1 51.9 72.5 51.5C86.9 51.1 95.1667 46 97.5 43.5V19.5" stroke="#505772" stroke-width="4"/>
<path d="M70.7484 27.6422L39.5642 15L70.7484 2.35775C71.27 2.14629 72.0841 2 73 2C73.9159 2 74.73 2.14629 75.2516 2.35775L106.436 15L75.2516 27.6422C74.73 27.8537 73.9159 28 73 28C72.0841 28 71.27 27.8537 70.7484 27.6422Z" stroke="#505772" stroke-width="4"/>
<path d="M106 15L106 30" stroke="#505772" stroke-width="4" stroke-linecap="round"/>
</svg>
