<svg width="123" height="100" viewBox="0 0 123 100" fill="none" xmlns="http://www.w3.org/2000/svg">
<path d="M18.0834 17.5H7.66669C4.90526 17.5 2.66669 19.2722 2.66669 21.4583V76.875C2.66669 79.0611 4.90526 80.8333 7.66668 80.8333H116C118.761 80.8333 121 79.0611 121 76.875V21.4583C121 19.2722 118.761 17.5 116 17.5H105.167" stroke="#505772" stroke-width="4"/>
<rect x="31.3334" y="90.3333" width="61.8333" height="7.66667" rx="3.83333" stroke="#505772" stroke-width="4"/>
<path d="M45.1667 80L44.3334 89.1667M78.0834 80L79.3334 89.1667" stroke="#505772" stroke-width="4"/>
<path d="M26.4167 11.6667H22.6667C19.9053 11.6667 17.6667 13.4429 17.6667 15.6341V68.5326C17.6667 70.7238 19.9053 72.5 22.6667 72.5H101C103.761 72.5 106 70.7238 106 68.5326V15.6341C106 13.4429 103.761 11.6667 101 11.6667H96.4167" stroke="#505772" stroke-width="4" stroke-linecap="round"/>
<path d="M41 16.25V35C42.8056 37.7778 49.4167 43.25 61.4167 42.9167C73.4167 42.5833 80.3056 38.3333 82.25 36.25V16.25" stroke="#505772" stroke-width="4"/>
<path d="M60.0823 22.7263L34.8574 12.5L60.0823 2.27371C60.4657 2.11827 61.0986 2 61.8333 2C62.5681 2 63.201 2.11827 63.5844 2.27371L88.8093 12.5L63.5844 22.7263C63.201 22.8817 62.5681 23 61.8333 23C61.0986 23 60.4657 22.8817 60.0823 22.7263Z" stroke="#505772" stroke-width="4"/>
<path d="M89.3334 12.5L89.3334 25" stroke="#505772" stroke-width="4" stroke-linecap="round"/>
</svg>
