<svg width="28" height="19" viewBox="0 0 28 19" fill="none" xmlns="http://www.w3.org/2000/svg">
<path d="M4.39 18.6615H22.9439C25.3647 18.6615 27.334 16.9604 27.334 14.8691V4.75048C27.334 2.65944 25.3644 0.958008 22.9439 0.958008H4.39C1.96944 0.958008 0.00018692 2.65944 0.00018692 4.75048V14.8691C0.00018692 16.9604 1.96944 18.6615 4.39 18.6615ZM22.9439 2.06702C24.6568 2.06702 26.0502 3.27074 26.0502 4.75048V14.8691C26.0502 16.3488 24.6568 17.5528 22.9439 17.5528H4.39C2.67708 17.5528 1.28366 16.3488 1.28366 14.8691V4.75048C1.28366 3.27074 2.67708 2.06702 4.39 2.06702H22.9439Z" fill="#ffffff"/>
<path d="M23.9799 4.80321C20.6986 7.56538 17.4173 10.3273 14.136 13.0894C13.5244 13.6042 12.5856 12.7951 13.1982 12.2793C16.4795 9.51737 19.7607 6.7552 23.042 3.9933C23.6537 3.47828 24.5924 4.28767 23.9799 4.80321Z" fill="#ffffff"/>
<path d="M13.1981 13.0894C9.91683 10.3275 6.63556 7.56534 3.35429 4.80344C2.74201 4.2879 3.68017 3.47824 4.29214 3.99326C7.57341 6.75517 10.8547 9.51733 14.136 12.2792C14.7482 12.7948 13.8101 13.6044 13.1981 13.0894Z" fill="#ffffff"/>
<path d="M3.39041 15.0446C5.57377 13.2558 7.75743 11.4673 9.9408 9.67848C10.5601 9.17134 11.4994 9.97994 10.8787 10.4887C8.69529 12.2775 6.51162 14.066 4.32826 15.8548C3.709 16.3619 2.76962 15.5531 3.39041 15.0446Z" fill="#ffffff"/>
<path d="M22.9467 15.8546C20.7634 14.0658 18.5797 12.2773 16.3964 10.4885C15.7759 9.98003 16.7146 9.1709 17.3342 9.67832C19.5176 11.4671 21.7012 13.2556 23.8846 15.0444C24.5051 15.5529 23.5663 16.3623 22.9467 15.8546Z" fill="#ffffff"/>
</svg>
