<svg width="107" height="100" viewBox="0 0 107 100" fill="none" xmlns="http://www.w3.org/2000/svg">
<path d="M101.752 44.7364L92.9192 43.5C92.6301 42.0273 92.2089 40.5 91.7081 39.0523L98.7473 33.5796C99.3802 33.0796 99.5373 32.2386 99.1412 31.5523L93.5544 21.8932C93.1583 21.2114 92.3137 20.9477 91.6034 21.2114L83.3257 24.5523C82.2966 23.3932 81.2175 22.2886 80.0565 21.2886L83.4031 13.0273C83.6945 12.3159 83.4031 11.4727 82.7201 11.0796L73.0445 5.50001C72.4117 5.10456 71.542 5.26365 71.0685 5.86819L65.5841 12.8955C64.1089 12.3955 62.6064 12 61.1311 11.6841L59.8904 2.86819C59.7857 2.10456 59.1277 1.52728 58.3355 1.52728H47.1847C46.3947 1.52728 45.7345 2.10456 45.6298 2.86819L44.3913 11.6864C42.9161 11.9727 41.3862 12.3955 39.936 12.8955L34.4016 5.86819C33.9008 5.26365 33.0561 5.07956 32.3709 5.47274L22.6703 11.0523C21.9851 11.4477 21.721 12.2886 21.9851 13L25.3317 21.2636C24.1706 22.2886 23.0664 23.3955 22.0647 24.5273L13.8121 21.1864C13.1018 20.8955 12.2572 21.1864 11.8633 21.8682L6.27427 31.5273C5.87814 32.2091 6.0375 33.0523 6.66812 33.5523L13.7074 39.0273C13.2065 40.5 12.8104 42 12.4939 43.4727L3.66302 44.7114C2.90036 44.8159 2.31982 45.4727 2.31982 46.2636V57.3955C2.31982 58.1841 2.90036 58.8432 3.66302 58.9477L12.4962 60.1841C12.7853 61.6568 13.2065 63.1841 13.7074 64.6318L6.6704 70.1568C6.03978 70.6568 5.88042 71.5 6.27655 72.1841L11.8656 81.8432C12.2594 82.525 13.0767 82.7886 13.8144 82.525L22.0921 79.1841C23.1211 80.3432 24.2275 81.4477 25.3613 82.4477L22.0147 90.7114C21.7233 91.4205 22.0147 92.2636 22.6976 92.6568L32.3732 98.2364C32.6373 98.3682 32.874 98.4477 33.1631 98.4477C33.639 98.4477 34.0874 98.2364 34.4039 97.8432L40.5962 89.9205L38.1193 88L32.7693 94.8409L25.466 90.6318L28.7352 82.6046C28.9993 81.9727 28.8148 81.2636 28.2867 80.8159C26.6521 79.4477 25.1495 77.9205 23.779 76.3159C23.3305 75.8159 22.618 75.6318 21.9873 75.8682L13.9464 79.1318L9.70282 71.7909L16.5554 66.4477C17.0835 66.0273 17.2953 65.3159 17.0562 64.6841C16.3186 62.6318 15.7654 60.5796 15.3966 58.525C15.2919 57.8432 14.7364 57.3432 14.0784 57.2364L5.48429 56.0273V47.6046L14.0784 46.3955C14.7637 46.2886 15.2919 45.7886 15.3989 45.1046C15.7654 43.0523 16.3186 41 17.0585 38.9455C17.2953 38.3159 17.0835 37.6046 16.5577 37.1841L9.7051 31.8432L13.9214 24.5523L21.96 27.8159C22.5929 28.0796 23.3032 27.8955 23.754 27.3682C25.1245 25.7364 26.627 24.2364 28.2616 22.8682C28.7625 22.4205 28.9446 21.7091 28.7078 21.0796L25.4409 13.0523L32.742 8.84319L38.092 15.6841C38.5154 16.2114 39.2257 16.4205 39.8586 16.1841C41.8893 15.4727 43.9451 14.8955 46.0282 14.525C46.7112 14.4205 47.212 13.8682 47.319 13.2114L48.5324 4.63183H56.9672L58.1807 13.2114C58.2854 13.8932 58.7862 14.4205 59.4715 14.5273C61.5546 14.8955 63.6103 15.4477 65.6411 16.1864C66.2717 16.4205 66.9843 16.2091 67.4054 15.6864L72.7554 8.84319L80.0587 13.0523L76.7895 21.0796C76.5277 21.7114 76.7121 22.4205 77.238 22.8682C78.8726 24.2364 80.3752 25.7636 81.7457 27.3682C82.1942 27.8682 82.9068 28.0523 83.5397 27.8159L91.5783 24.5523L95.7968 31.8432L88.9443 37.1841C88.4161 37.6046 88.2044 38.3159 88.4434 38.9477C89.1537 41 89.7343 43.0523 90.1031 45.1068C90.2078 45.7886 90.7633 46.2886 91.4212 46.3955L100.015 47.6046V56.0273L91.4212 57.2364C90.736 57.3432 90.2078 57.8432 90.1008 58.5273C89.7343 60.5796 89.1811 62.6568 88.4412 64.6864C88.2044 65.3159 88.4161 66.0273 88.942 66.4477L95.7946 71.7886L91.5783 79.0795L83.5397 75.8159C82.9068 75.5523 82.1965 75.7364 81.7457 76.2636C80.3752 77.8955 78.8476 79.3955 77.238 80.7636C76.7372 81.2114 76.5551 81.9227 76.7895 82.5523L80.0587 90.5796L72.7577 94.7886L67.4077 87.9477L64.9262 89.8682L71.1231 97.7886C71.624 98.4205 72.4663 98.5796 73.1538 98.1841L82.8294 92.6045C83.5123 92.2114 83.7764 91.3682 83.5123 90.6568L80.1657 82.3955C81.3268 81.3682 82.4309 80.2636 83.4327 79.1318L91.7104 82.4727C92.4229 82.7636 93.2653 82.4727 93.6614 81.7909L99.2504 72.1318C99.6443 71.4477 99.4872 70.6046 98.8543 70.1046L91.8151 64.6318C92.3159 63.1568 92.7121 61.6568 93.0285 60.1841L101.862 58.9477C102.624 58.8432 103.205 58.1841 103.205 57.3955V46.2636C103.098 45.5 102.545 44.8682 101.755 44.7364H101.752Z" fill="#505772"/>
<path d="M72.8601 40.2637C72.8601 33.6568 69.6183 27.5 64.2136 23.7364C63.0298 22.9205 61.4999 22.8432 60.2068 23.4727C58.916 24.1568 58.0987 25.4727 58.0987 26.9205V37.9205C58.0987 38.3432 57.7572 38.6841 57.3338 38.6841H48.0293C47.6081 38.6841 47.2917 38.3432 47.2644 37.9205V26.9205C47.2644 25.4477 46.4471 24.1318 45.1562 23.4727C43.8631 22.7909 42.3333 22.8955 41.1494 23.7364C35.7175 27.5 32.5029 33.6841 32.5029 40.2637C32.5029 47.6568 36.5621 53.8955 43.6537 57.3159C43.8905 57.4205 44.1545 57.6841 44.1545 58.0273V98.3159H47.2917V58.0273C47.2917 56.5273 46.422 55.1568 45.0242 54.5C39.0664 51.6318 35.6401 46.4477 35.6401 40.2637C35.6401 34.6841 38.3811 29.4727 42.9684 26.2887C43.2576 26.0796 43.574 26.1841 43.7061 26.2364C43.8108 26.3159 44.1272 26.5 44.1272 26.9205V37.9205C44.1272 40.0523 45.8665 41.7887 48.002 41.7887H57.3087C59.4442 41.7887 61.1835 40.0523 61.1835 37.9205V26.9205C61.1835 26.5 61.4726 26.2887 61.6047 26.2387C61.7367 26.1568 62.0531 26.0523 62.3423 26.2887C66.9296 29.4727 69.6729 34.6841 69.6729 40.2637C69.6729 46.4455 66.2444 51.6046 60.2865 54.5C58.8887 55.1841 58.019 56.5273 58.019 58.0273V98.3159H61.1562V58.0273C61.1562 57.6864 61.4202 57.4205 61.657 57.3159C68.8283 53.8955 72.8601 47.6568 72.8601 40.2637Z" fill="#505772"/>
</svg>
