<svg width="100" height="100" viewBox="0 0 100 100" fill="none" xmlns="http://www.w3.org/2000/svg">
<path d="M78.8755 21.6757C77.0755 21.6757 75.2755 21.9246 73.5244 22.4246C70.7778 9.95124 59.8755 1.07568 46.9244 1.07568C32.6755 1.07568 21.0511 11.8223 19.7778 25.8224C19.5267 25.8224 19.3022 25.7979 19.0778 25.7979C9.15333 25.7979 1.07777 33.8735 1.07777 43.7979C1.07777 53.7224 9.15111 61.7979 19.0778 61.7979H23.2022V58.7979H19.0756C10.8 58.7979 4.07555 52.0735 4.07555 43.7979C4.07555 35.5224 10.8 28.7979 19.0756 28.7979C19.7244 28.7979 20.3511 28.8468 21 28.9224L22.6511 29.1224L22.7 27.4735C23.1511 14.3246 33.7755 4.02235 46.9244 4.02235C58.9755 4.02235 69.0511 12.6735 70.8755 24.5735L71.1489 26.3979L72.8755 25.7468C74.8244 25.0224 76.8511 24.6468 78.8755 24.6468C88.2755 24.6468 95.9244 32.2979 95.9244 41.6979C95.9244 51.0979 88.2755 58.7468 78.8755 58.7468V61.7468C89.9489 61.7468 98.9511 52.7468 98.9511 41.6735C98.9511 30.5979 89.9244 21.6735 78.8755 21.6735V21.6757Z" fill="#505772"/>
<path d="M77.8 65.0001H71.4C70.9 63.0756 70.1244 61.2245 69.1 59.4756L73.6 55.0001L72.8511 53.949C71.1244 51.549 69.0511 49.4756 66.6733 47.7756L65.6244 47.0245L61.1244 51.5001C59.4 50.4756 57.5511 49.7245 55.6 49.2001V42.8001L54.3244 42.6001C51.5 42.1756 48.4489 42.1756 45.6244 42.6001L44.3511 42.8001V49.2001C42.4244 49.7001 40.5733 50.4756 38.8244 51.5001L34.3244 47.0245L33.2755 47.7756C30.8755 49.4756 28.8 51.5756 27.1 53.9512L26.3489 55.0001L30.8511 59.5001C29.8244 61.2512 29.0733 63.0756 28.5511 65.0245H22.1511L21.9511 66.3001C21.7244 67.7245 21.6244 69.1756 21.6244 70.649C21.6244 72.1245 21.7244 73.6001 21.9489 75.0001L22.1489 76.2756H28.5489C29.0511 78.2001 29.8244 80.0512 30.8511 81.8001L26.3511 86.3001L27.1 87.349C28.8244 89.749 30.9 91.8245 33.2755 93.5267L34.3244 94.2756L38.8244 89.8001C40.5489 90.8245 42.4 91.5756 44.3489 92.1001V98.5001L45.6244 98.7001C47.0511 98.9245 48.5 99.0245 49.9755 99.0245C51.4489 99.0245 52.9244 98.9245 54.3244 98.7001L55.6 98.5001V92.1001C57.5244 91.6001 59.3755 90.8245 61.1244 89.8001L65.6244 94.2756L66.6755 93.5245C69.0755 91.8245 71.1489 89.7245 72.8489 87.349L73.6 86.3001L69.1244 81.8245C70.1489 80.1001 70.9 78.2512 71.4244 76.3001H77.8244L78.0244 75.0245C78.2511 73.6245 78.3511 72.149 78.3511 70.6756C78.3511 69.2001 78.2489 67.7245 78.0244 66.3245L77.8 65.0001V65.0001ZM75.1755 73.249H68.9755L68.7244 74.449C68.2511 76.849 67.3 79.1001 65.9511 81.149L65.2755 82.1756L69.6511 86.549C68.5511 87.9267 67.3244 89.149 65.9489 90.249L61.5755 85.8756L60.5489 86.549C58.5 87.9267 56.2244 88.849 53.8511 89.3267L52.6511 89.5756V95.7756C50.9244 95.9512 49.1244 95.9512 47.4244 95.7756V89.5756L46.2244 89.3245C43.8244 88.8512 41.5755 87.9001 39.5244 86.5512L38.5 85.8756L34.1244 90.249C32.7511 89.149 31.5244 87.9245 30.4244 86.549L34.8 82.1756L34.1244 81.149C32.7511 79.1001 31.8244 76.8245 31.3511 74.449L31.1 73.249H24.9C24.8244 72.4001 24.7755 71.5245 24.7755 70.6267C24.7755 69.749 24.8244 68.8756 24.9 68.0001H31.1L31.3511 66.8001C31.8244 64.4001 32.7733 62.1512 34.1244 60.1001L34.8 59.0756L30.4244 54.7001C31.5244 53.3245 32.7755 52.1001 34.1244 51.0001L38.5 55.3756L39.5244 54.7001C41.5755 53.3245 43.8511 52.4001 46.2244 51.9245L47.4244 51.6756V45.4756C49.1489 45.3001 50.9489 45.3001 52.6489 45.4756V51.6756L53.8489 51.9245C56.2489 52.4001 58.5 53.3512 60.5489 54.7001L61.5755 55.3756L65.9489 51.0001C67.3267 52.1001 68.5489 53.3245 69.6511 54.7001L65.2733 59.0756L65.9489 60.1001C67.3 62.149 68.2489 64.4245 68.7267 66.8001L68.9755 68.0001H75.1755C75.2489 68.8512 75.3 69.7245 75.3 70.6245C75.3 71.5001 75.2489 72.3756 75.1755 73.249V73.249Z" fill="#505772"/>
<path d="M50 56.7515C42.3511 56.7515 36.1245 62.9737 36.1245 70.6248C36.1245 78.2759 42.3511 84.5004 50 84.5004C57.6489 84.5004 63.8756 78.2759 63.8756 70.6248C63.8756 62.9759 57.6489 56.7515 50 56.7515V56.7515ZM50 81.4759C44 81.4759 39.1245 76.6004 39.1245 70.6004C39.1245 64.6004 44 59.7492 50 59.7492C56 59.7492 60.8756 64.6248 60.8756 70.6248C60.8756 76.6248 56 81.4759 50 81.4759V81.4759Z" fill="#505772"/>
</svg>
