<svg width="77" height="77" viewBox="0 0 77 77" fill="none" xmlns="http://www.w3.org/2000/svg">
<path d="M1 38.3013V76H75.5596C74.0237 53.3808 70.952 7.38842 70.952 4.37253C70.952 1.35664 68.1595 0.881911 66.7632 1.02154H63.4122C59.3911 1.02154 58.9443 4.09328 59.2235 5.62915L52.9403 60.5016L51.6838 35.7881H48.7516V24.0596L23.6192 35.7881V26.154L1 38.3013Z" stroke="white" stroke-width="2" stroke-linejoin="round"/>
<rect x="11.2152" y="44.7466" width="5.53973" height="7.21523" stroke="white" stroke-width="2" stroke-linejoin="round"/>
<rect x="11.2152" y="58.1509" width="5.53973" height="7.21523" stroke="white" stroke-width="2" stroke-linejoin="round"/>
<rect x="23.7815" y="44.7466" width="5.53973" height="7.21523" stroke="white" stroke-width="2" stroke-linejoin="round"/>
<rect x="23.7815" y="58.1509" width="5.53973" height="7.21523" stroke="white" stroke-width="2" stroke-linejoin="round"/>
<rect x="36.3477" y="44.7466" width="5.53973" height="7.21523" stroke="white" stroke-width="2" stroke-linejoin="round"/>
<rect x="36.3477" y="58.1509" width="5.53973" height="7.21523" stroke="white" stroke-width="2" stroke-linejoin="round"/>
</svg>
