<svg width="75" height="75" viewBox="0 0 75 75" fill="none" xmlns="http://www.w3.org/2000/svg">
<g clip-path="url(#clip0_9_83)">
<path d="M5.57434 49.8422V49.8422C5.57434 52.9209 8.07009 55.4166 11.1487 55.4166H47.7438C52.1621 55.4166 55.7438 51.8349 55.7438 47.4166V31.563C55.7438 27.1447 52.1621 23.563 47.7438 23.563H11.3478C8.15921 23.563 5.57434 26.1479 5.57434 29.3365V29.3365" stroke="white" stroke-width="2"/>
<path d="M18.1665 55.4165L15.9268 59M42.5545 55.4165L45.043 59" stroke="white" stroke-width="2" stroke-linecap="round" stroke-linejoin="round"/>
<path d="M20.3067 16.794C20.5721 14.665 22.294 11.4277 27.3906 12.087C28.5187 12.2243 31.0935 13.1995 32.3677 16.0015C34.0267 15.5895 37.7032 15.7543 39.1366 19.71C39.1366 20.3281 39.618 21.7156 38.4235 23.3638" stroke="white" stroke-width="2" stroke-linecap="round"/>
<path d="M14.9314 23.1646C14.3341 21.4765 13.8925 18.5853 18.0335 17.066C19.9084 16.3781 21.9753 16.9394 22.6124 18.9652" stroke="white" stroke-width="2" stroke-linecap="round"/>
<path fill-rule="evenodd" clip-rule="evenodd" d="M1.38042 29.9337H10.5689C11.3283 29.9337 11.9493 30.5544 11.9493 31.3134V48.6121C11.9493 49.3711 11.3283 49.9918 10.5689 49.9918H1.38042C0.621054 49.9918 0 49.371 0 48.6121V31.3134C0 30.5544 0.621058 29.9337 1.38042 29.9337V29.9337Z" stroke="white" stroke-width="2"/>
<path fill-rule="evenodd" clip-rule="evenodd" d="M4.01645 37.3198C4.5487 37.3198 4.98011 37.7509 4.98011 38.2829C4.98011 38.8149 4.5487 39.246 4.01645 39.246C3.4842 39.246 3.0528 38.8149 3.0528 38.2829C3.0528 37.7509 3.4842 37.3198 4.01645 37.3198Z" fill="white"/>
<path fill-rule="evenodd" clip-rule="evenodd" d="M4.01645 41.2341C4.5487 41.2341 4.98011 41.6652 4.98011 42.1972C4.98011 42.7292 4.5487 43.1604 4.01645 43.1604C3.4842 43.1604 3.0528 42.7292 3.0528 42.1972C3.0528 41.6652 3.4842 41.2341 4.01645 41.2341Z" fill="white"/>
<path fill-rule="evenodd" clip-rule="evenodd" d="M4.01645 45.1483C4.5487 45.1483 4.98011 45.5795 4.98011 46.1115C4.98011 46.6434 4.5487 47.0746 4.01645 47.0746C3.4842 47.0746 3.0528 46.6434 3.0528 46.1115C3.0528 45.5795 3.4842 45.1483 4.01645 45.1483Z" fill="white"/>
<path fill-rule="evenodd" clip-rule="evenodd" d="M7.9332 37.3198C8.46545 37.3198 8.89686 37.7509 8.89686 38.2829C8.89686 38.8149 8.46545 39.246 7.9332 39.246C7.40095 39.246 6.96954 38.8149 6.96954 38.2829C6.96954 37.7509 7.40095 37.3198 7.9332 37.3198Z" fill="white"/>
<path fill-rule="evenodd" clip-rule="evenodd" d="M7.9332 41.2341C8.46545 41.2341 8.89686 41.6652 8.89686 42.1972C8.89686 42.7292 8.46545 43.1604 7.9332 43.1604C7.40095 43.1604 6.96954 42.7292 6.96954 42.1972C6.96954 41.6652 7.40095 41.2341 7.9332 41.2341Z" fill="white"/>
<path fill-rule="evenodd" clip-rule="evenodd" d="M7.9332 45.1483C8.46545 45.1483 8.89686 45.5795 8.89686 46.1115C8.89686 46.6434 8.46545 47.0746 7.9332 47.0746C7.40095 47.0746 6.96954 46.6434 6.96954 46.1115C6.96954 45.5795 7.40095 45.1483 7.9332 45.1483Z" fill="white"/>
<path fill-rule="evenodd" clip-rule="evenodd" d="M5.97479 32.8323C6.71997 32.8323 7.32392 33.4359 7.32392 34.1807C7.32392 34.9255 6.71998 35.5291 5.97479 35.5291C5.22962 35.5291 4.62567 34.9255 4.62567 34.1807C4.62567 33.4359 5.22961 32.8323 5.97479 32.8323Z" fill="white"/>
<path fill-rule="evenodd" clip-rule="evenodd" d="M25.5035 35.2756L25.4829 43.9956C25.4899 45.5546 26.608 44.8265 27.2355 44.4933L35.1753 40.2754C35.4876 40.1077 35.7259 39.7059 35.6743 39.3191C35.6125 38.8568 35.2031 38.6107 34.804 38.3976L26.9989 34.2318C26.7122 34.0788 26.4865 33.9038 26.226 33.9159C25.531 33.9481 25.5047 34.6999 25.5035 35.2756L25.5035 35.2756Z" stroke="white" stroke-width="2"/>
<path d="M61.4654 40.5713L75.2542 47.8513V25.5507L61.8245 32.2621V23.2065C61.8245 20.1389 59.214 17.6366 56.0234 17.6277L42.6042 17.5903" stroke="white" stroke-width="2" stroke-linecap="round" stroke-linejoin="round"/>
</g>
<defs>
<clipPath id="clip0_9_83">
<rect width="75" height="75" fill="white"/>
</clipPath>
</defs>
</svg>
