<svg width="87" height="75" viewBox="0 0 87 75" fill="none" xmlns="http://www.w3.org/2000/svg">
<g clip-path="url(#clip0_3_969)">
<path d="M43.476 22.6738C35.8908 22.6738 29.5158 29.0232 29.5567 36.4993C29.5993 44.3181 35.7834 50.5806 43.4334 50.5806C50.9777 50.5806 57.4379 44.1476 57.3749 36.7346C57.3322 28.9158 51.126 22.6533 43.476 22.6738V22.6738ZM43.4555 47.151C37.4828 47.1306 32.9572 42.4635 32.9777 36.3084C32.9999 30.6425 37.7385 25.9772 43.5629 25.9346C49.2783 25.8919 54.1021 30.7704 54.1021 36.605C54.1226 42.4005 49.2987 47.1732 43.4555 47.151ZM79.0652 29.6505C74.7561 29.6726 71.2839 33.1533 71.2839 37.4675C71.2635 41.8243 74.8857 45.4107 79.2357 45.3476C83.5021 45.2846 86.9521 41.7596 86.9317 37.4249C86.8891 33.2181 83.2874 29.6522 79.0652 29.6522V29.6505ZM78.9578 42.08C76.6226 42.0169 74.543 39.859 74.543 37.5527C74.5635 35.1186 76.7283 32.9829 79.1504 33.0255C81.6578 33.0681 83.6726 35.1391 83.63 37.638C83.5874 40.0942 81.4226 42.1448 78.9578 42.08V42.08ZM26.9913 59.301C22.5936 59.2806 19.1249 62.7033 19.1249 67.0652C19.1249 71.4919 22.6379 74.9999 27.0783 74.9999C31.2169 74.9999 34.73 71.4493 34.7726 67.2152C34.7947 62.9164 31.28 59.3232 26.9913 59.3027V59.301ZM26.9266 71.6419C24.4277 71.6641 22.3584 69.5897 22.3788 67.1078C22.3788 64.563 24.3408 62.6811 26.9913 62.7238C29.5345 62.7664 31.5595 64.8408 31.4964 67.3005C31.4538 69.6101 29.3402 71.6215 26.9283 71.6419H26.9266ZM25.2322 15.6988C29.5788 15.6766 33.0118 12.2726 33.0339 7.94478C33.0544 3.4891 29.6231 -0.0222615 25.1896 0.0016021C20.7339 0.0016021 17.3436 3.46694 17.3862 7.96694C17.451 12.3596 20.8618 15.7192 25.2322 15.6971V15.6988ZM25.3379 3.38001C27.8095 3.44478 29.7936 5.49024 29.8141 8.00956C29.8362 10.4863 27.7464 12.5317 25.2527 12.4891C22.7589 12.4669 20.797 10.401 20.797 7.88172C20.8192 5.38285 22.8868 3.31694 25.3379 3.38172V3.38001ZM15.6476 37.4334C15.6254 33.0357 12.1771 29.63 7.75895 29.6505C3.29815 29.6726 -0.0427599 33.0357 -0.000146228 37.4999C0.044172 41.9624 3.62031 45.455 8.06235 45.3476C12.3067 45.2624 15.6697 41.7476 15.6476 37.4351V37.4334ZM7.7811 42.0476C5.38792 42.0255 3.34076 39.9783 3.27599 37.5647C3.21122 35.0198 5.21576 32.9283 7.73679 32.9061C10.28 32.8857 12.3714 34.9346 12.3936 37.413C12.3936 39.8709 10.1947 42.0902 7.7811 42.0493V42.0476ZM61.7214 59.301C57.4004 59.301 53.8771 62.8499 53.8976 67.1726C53.9197 71.5806 57.3578 74.9999 61.7214 74.9999C66.1055 74.9999 69.5658 71.538 69.5453 67.1726C69.5453 62.7647 66.0629 59.2806 61.7214 59.3027V59.301ZM61.7436 71.688C59.1629 71.6675 57.2078 69.7311 57.2078 67.1726C57.2078 64.6789 59.2925 62.5499 61.7214 62.5703C64.1078 62.5925 66.3203 64.7863 66.3425 67.1726C66.3646 69.6033 64.2152 71.7101 61.7436 71.6897V71.688ZM61.6891 15.6988C66.0357 15.6544 69.5675 12.1192 69.5453 7.82717C69.5231 3.4499 66.0374 -0.0427161 61.6874 -0.00010245C57.2317 0.0220566 53.8959 3.38513 53.8959 7.82717C53.9385 12.2692 57.3391 15.7397 61.6874 15.6971L61.6891 15.6988ZM61.4743 3.34081C64.1419 3.25558 66.2743 5.26183 66.2947 7.86978C66.3169 10.3277 64.1862 12.484 61.7317 12.5061C59.2567 12.5283 57.2129 10.4573 57.1686 7.89194C57.126 5.41183 58.9993 3.42944 61.4743 3.34081V3.34081ZM66.068 57.755C66.8896 58.2578 67.6737 58.7215 68.6283 59.3027C70.73 55.6448 72.7175 52.1811 74.7612 48.6016C73.8067 48.0408 73.0038 47.5772 72.1822 47.0931C70.0805 50.7493 68.1118 54.1942 66.068 57.755ZM66.068 17.2482C68.1305 20.8533 70.1368 24.3596 72.1822 27.9067C73.0805 27.3834 73.8067 26.9573 74.7612 26.4152C72.6783 22.7914 70.6925 19.3022 68.6283 15.6971C67.6737 16.2596 66.9271 16.7249 66.068 17.2482ZM20.8635 17.1868C19.9652 16.6652 19.1828 16.2204 18.2845 15.6971L12.1703 26.3777C13.0294 26.901 13.7555 27.3459 14.6538 27.9067C16.7947 24.23 18.7993 20.7476 20.8635 17.1868V17.1868ZM14.6879 47.0931C13.7572 47.6556 13.0413 48.0988 12.1703 48.6221C14.2226 52.2016 16.2356 55.7027 18.2896 59.3027C19.1794 58.7607 19.9925 58.2578 20.8635 57.7158C18.7533 54.0783 16.7385 50.5959 14.6879 47.0931ZM50.4203 5.23285H36.5112V8.72035H50.4203V5.23285ZM36.5112 69.7669H50.4203V66.2794H36.5112V69.7669Z" fill="#505772"/>
</g>
<defs>
<clipPath id="clip0_3_969">
<rect width="86.9318" height="75" fill="white"/>
</clipPath>
</defs>
</svg>
