<svg width="116" height="100" viewBox="0 0 116 100" fill="none" xmlns="http://www.w3.org/2000/svg">
<path d="M58.0136 30.2318C47.8921 30.2318 39.3854 38.6978 39.44 48.6659C39.4969 59.0909 47.7488 67.4409 57.9568 67.4409C68.0238 67.4409 76.6441 58.8637 76.56 48.9796C76.5031 38.5546 68.2216 30.2046 58.0136 30.2318V30.2318ZM57.9863 62.8682C50.0165 62.8409 43.9776 56.6182 44.0049 48.4114C44.0345 40.8568 50.3576 34.6364 58.1296 34.5796C65.7561 34.5228 72.1929 41.0273 72.1929 48.8068C72.2202 56.5341 65.7834 62.8978 57.9863 62.8682ZM105.503 39.5341C99.7532 39.5637 95.12 44.2046 95.12 49.9568C95.0927 55.7659 99.926 60.5478 105.731 60.4637C111.424 60.3796 116.027 55.6796 116 49.9C115.943 44.2909 111.137 39.5364 105.503 39.5364V39.5341ZM105.36 56.1068C102.244 56.0228 99.4689 53.1455 99.4689 50.0705C99.4961 46.825 102.385 43.9773 105.617 44.0341C108.963 44.0909 111.651 46.8523 111.594 50.1841C111.537 53.4591 108.649 56.1932 105.36 56.1068V56.1068ZM36.0169 79.0682C30.1486 79.0409 25.52 83.6046 25.52 89.4205C25.52 95.3228 30.2078 100 36.1329 100C41.6554 100 46.3431 95.2659 46.4 89.6205C46.4296 83.8887 41.7395 79.0978 36.0169 79.0705V79.0682ZM35.9304 95.5227C32.596 95.5523 29.8347 92.7864 29.862 89.4773C29.862 86.0841 32.48 83.575 36.0169 83.6318C39.4104 83.6887 42.1125 86.4546 42.0284 89.7341C41.9715 92.8137 39.1511 95.4955 35.9327 95.5227H35.9304ZM33.6696 20.9318C39.4696 20.9023 44.0504 16.3637 44.08 10.5932C44.1073 4.6523 39.5287 -0.0295193 33.6127 0.00229889C27.6671 0.00229889 23.1431 4.62275 23.2 10.6228C23.2864 16.4796 27.8377 20.9591 33.6696 20.9296V20.9318ZM33.8106 4.50684C37.1086 4.59321 39.7561 7.32048 39.7834 10.6796C39.813 13.9818 37.0245 16.7091 33.6969 16.6523C30.3692 16.6228 27.7513 13.8682 27.7513 10.5091C27.7809 7.1773 30.5398 4.42275 33.8106 4.50912V4.50684ZM20.88 49.9114C20.8504 44.0478 16.2491 39.5068 10.3536 39.5341C4.40117 39.5637 -0.0568742 44.0478 -1.14431e-05 50C0.0591258 55.95 4.83105 60.6068 10.7584 60.4637C16.422 60.35 20.9096 55.6637 20.88 49.9137V49.9114ZM10.3831 56.0637C7.18971 56.0341 4.45803 53.3046 4.3716 50.0864C4.28517 46.6932 6.95999 43.9046 10.324 43.875C13.7176 43.8478 16.5084 46.5796 16.5379 49.8841C16.5379 53.1614 13.6038 56.1205 10.3831 56.0659V56.0637ZM82.36 79.0682C76.5941 79.0682 71.8927 83.8 71.92 89.5637C71.9496 95.4409 76.5372 100 82.36 100C88.21 100 92.8273 95.3841 92.8 89.5637C92.8 83.6864 88.1532 79.0409 82.36 79.0705V79.0682ZM82.3896 95.5841C78.946 95.5568 76.3371 92.975 76.3371 89.5637C76.3371 86.2387 79.1188 83.4 82.36 83.4273C85.5443 83.4568 88.4966 86.3818 88.5262 89.5637C88.5558 92.8046 85.6876 95.6137 82.3896 95.5864V95.5841ZM82.3168 20.9318C88.1168 20.8728 92.8296 16.1591 92.8 10.4364C92.7704 4.60003 88.119 -0.056792 82.3145 2.616e-05C76.3689 0.0295716 71.9177 4.51366 71.9177 10.4364C71.9746 16.3591 76.5122 20.9864 82.3145 20.9296L82.3168 20.9318ZM82.0302 4.45457C85.5898 4.34094 88.4352 7.01594 88.4625 10.4932C88.4921 13.7705 85.6489 16.6455 82.3736 16.675C79.0711 16.7046 76.3439 13.9432 76.2848 10.5228C76.2279 7.21594 78.7276 4.57275 82.0302 4.45457V4.45457ZM88.16 77.0068C89.2563 77.6773 90.3026 78.2955 91.5763 79.0705C94.3808 74.1932 97.0329 69.575 99.76 64.8023C98.4863 64.0546 97.415 63.4364 96.3187 62.7909C93.5142 67.6659 90.8871 72.2591 88.16 77.0068ZM88.16 22.9978C90.9121 27.8046 93.5892 32.4796 96.3187 37.2091C97.5173 36.5114 98.4863 35.9432 99.76 35.2205C96.9805 30.3887 94.3307 25.7364 91.5763 20.9296C90.3026 21.6796 89.3063 22.3 88.16 22.9978ZM27.84 22.9159C26.6413 22.2205 25.5973 21.6273 24.3987 20.9296L16.24 35.1705C17.3863 35.8682 18.3553 36.4614 19.554 37.2091C22.4107 32.3068 25.0856 27.6637 27.84 22.9159V22.9159ZM19.5994 62.7909C18.3576 63.5409 17.4023 64.1318 16.24 64.8296C18.9785 69.6023 21.6647 74.2705 24.4055 79.0705C25.5928 78.3478 26.6777 77.6773 27.84 76.9546C25.0241 72.1046 22.3357 67.4614 19.5994 62.7909ZM67.28 6.9773H48.72V11.6273H67.28V6.9773ZM48.72 93.0228H67.28V88.3727H48.72V93.0228Z" fill="#505772"/>
</svg>
