<svg width="87" height="75" viewBox="0 0 87 75" fill="none" xmlns="http://www.w3.org/2000/svg">
<g clip-path="url(#clip0_8_2652)">
<path d="M43.4761 22.6738C35.8908 22.6738 29.5158 29.0232 29.5567 36.4993C29.5993 44.3181 35.7834 50.5806 43.4334 50.5806C50.9778 50.5806 57.438 44.1476 57.3749 36.7346C57.3323 28.9158 51.1261 22.6533 43.4761 22.6738V22.6738ZM43.4556 47.151C37.4829 47.1306 32.9573 42.4635 32.9778 36.3084C32.9999 30.6425 37.7386 25.9772 43.563 25.9346C49.2783 25.8919 54.1022 30.7704 54.1022 36.605C54.1226 42.4005 49.2988 47.1732 43.4556 47.151ZM79.0653 29.6505C74.7562 29.6726 71.284 33.1533 71.284 37.4675C71.2636 41.8243 74.8857 45.4107 79.2357 45.3476C83.5022 45.2846 86.9522 41.7596 86.9317 37.4249C86.8891 33.2181 83.2874 29.6522 79.0653 29.6522V29.6505ZM78.9579 42.08C76.6226 42.0169 74.5431 39.859 74.5431 37.5527C74.5636 35.1186 76.7283 32.9829 79.1505 33.0255C81.6579 33.0681 83.6726 35.1391 83.63 37.638C83.5874 40.0942 81.4226 42.1448 78.9579 42.08V42.08ZM26.9914 59.301C22.5937 59.2806 19.1249 62.7033 19.1249 67.0652C19.1249 71.4919 22.638 74.9999 27.0783 74.9999C31.217 74.9999 34.73 71.4493 34.7726 67.2152C34.7948 62.9164 31.28 59.3232 26.9914 59.3027V59.301ZM26.9266 71.6419C24.4278 71.6641 22.3584 69.5897 22.3789 67.1078C22.3789 64.563 24.3408 62.6811 26.9914 62.7238C29.5346 62.7664 31.5596 64.8408 31.4965 67.3005C31.4539 69.6101 29.3403 71.6215 26.9283 71.6419H26.9266ZM25.2323 15.6988C29.5789 15.6766 33.0118 12.2726 33.034 7.94478C33.0545 3.4891 29.6232 -0.0222615 25.1897 0.0016021C20.734 0.0016021 17.3437 3.46694 17.3863 7.96694C17.4511 12.3596 20.8618 15.7192 25.2323 15.6971V15.6988ZM25.338 3.38001C27.8096 3.44478 29.7937 5.49024 29.8141 8.00956C29.8363 10.4863 27.7465 12.5317 25.2528 12.4891C22.759 12.4669 20.7971 10.401 20.7971 7.88172C20.8192 5.38285 22.8868 3.31694 25.338 3.38172V3.38001ZM15.6476 37.4334C15.6255 33.0357 12.1772 29.63 7.75901 29.6505C3.29821 29.6726 -0.0426988 33.0357 -8.51924e-05 37.4999C0.044233 41.9624 3.62037 45.455 8.06242 45.3476C12.3067 45.2624 15.6698 41.7476 15.6476 37.4351V37.4334ZM7.78117 42.0476C5.38798 42.0255 3.34082 39.9783 3.27605 37.5647C3.21128 35.0198 5.21582 32.9283 7.73685 32.9061C10.28 32.8857 12.3715 34.9346 12.3937 37.413C12.3937 39.8709 10.1948 42.0902 7.78117 42.0493V42.0476ZM61.7215 59.301C57.4005 59.301 53.8772 62.8499 53.8976 67.1726C53.9198 71.5806 57.3579 74.9999 61.7215 74.9999C66.1056 74.9999 69.5658 71.538 69.5454 67.1726C69.5454 62.7647 66.063 59.2806 61.7215 59.3027V59.301ZM61.7437 71.688C59.163 71.6675 57.2079 69.7311 57.2079 67.1726C57.2079 64.6789 59.2925 62.5499 61.7215 62.5703C64.1079 62.5925 66.3204 64.7863 66.3425 67.1726C66.3647 69.6033 64.2153 71.7101 61.7437 71.6897V71.688ZM61.6891 15.6988C66.0357 15.6544 69.5675 12.1192 69.5454 7.82717C69.5232 3.4499 66.0374 -0.0427161 61.6874 -0.00010245C57.2317 0.0220566 53.8959 3.38513 53.8959 7.82717C53.9386 12.2692 57.3391 15.7397 61.6874 15.6971L61.6891 15.6988ZM61.4743 3.34081C64.142 3.25558 66.2744 5.26183 66.2948 7.86978C66.317 10.3277 64.1863 12.484 61.7317 12.5061C59.2567 12.5283 57.213 10.4573 57.1687 7.89194C57.1261 5.41183 58.9993 3.42944 61.4743 3.34081V3.34081ZM66.0681 57.755C66.8897 58.2578 67.6738 58.7215 68.6283 59.3027C70.73 55.6448 72.7175 52.1811 74.7613 48.6016C73.8067 48.0408 73.0039 47.5772 72.1823 47.0931C70.0806 50.7493 68.1118 54.1942 66.0681 57.755ZM66.0681 17.2482C68.1306 20.8533 70.1368 24.3596 72.1823 27.9067C73.0806 27.3834 73.8067 26.9573 74.7613 26.4152C72.6783 22.7914 70.6925 19.3022 68.6283 15.6971C67.6738 16.2596 66.9272 16.7249 66.0681 17.2482ZM20.8636 17.1868C19.9653 16.6652 19.1829 16.2204 18.2846 15.6971L12.1704 26.3777C13.0295 26.901 13.7556 27.3459 14.6539 27.9067C16.7948 24.23 18.7993 20.7476 20.8636 17.1868V17.1868ZM14.688 47.0931C13.7573 47.6556 13.0414 48.0988 12.1704 48.6221C14.2226 52.2016 16.2357 55.7027 18.2897 59.3027C19.1795 58.7607 19.9925 58.2578 20.8636 57.7158C18.7533 54.0783 16.7386 50.5959 14.688 47.0931ZM50.4204 5.23285H36.5113V8.72035H50.4204V5.23285ZM36.5113 69.7669H50.4204V66.2794H36.5113V69.7669Z" fill="#505772"/>
</g>
<defs>
<clipPath id="clip0_8_2652">
<rect width="86.9318" height="75" fill="white"/>
</clipPath>
</defs>
</svg>
