<svg width="87" height="78" viewBox="0 0 87 78" fill="none" xmlns="http://www.w3.org/2000/svg">
<path d="M72.4109 23.4473C71.7291 23.4473 71.0709 23.4946 70.4109 23.5891V23.2346C70.4109 15.4236 64.0582 9.09456 56.2709 9.09456C53.6109 9.09456 51 9.84728 48.7654 11.2582C45.5654 4.53092 38.7182 0.13092 31.1418 0.13092C20.3654 0.13092 11.6109 8.88183 11.6109 19.6582C11.6109 21.0473 11.7527 22.4109 12.0582 23.7764C5.65815 25.14 0.858154 30.9055 0.858154 37.6127C0.858154 45.4236 7.21088 51.7527 15 51.7527H32.7418V30.6236H27.2109L36.5291 18.6473L45.8472 30.6236H40.3182V57.5418H31.4709L47.2818 77.8691L63.0945 57.5418H54.2472V51.7527H72.3891C80.2 51.7527 86.5291 45.4 86.5291 37.6109C86.5291 29.8236 80.2236 23.4473 72.4109 23.4473ZM72.4109 48.5764H51.0945V60.7182H56.6218L47.3054 72.6946L37.9891 60.7182H43.5163V33.8H52.3654L36.5527 13.4709L20.7418 33.8H29.5891V48.5764H15C8.9527 48.5764 4.03634 43.6582 4.03634 37.6127C4.03634 31.9182 8.48179 27.1182 14.1527 26.6709H14.2472C15.5891 26.5764 16.9291 26.7182 18.2236 27.1182L19.1654 24.0818C17.9182 23.7055 16.6 23.5418 15.3054 23.5182C15 22.2455 14.7891 20.9764 14.7891 19.6582C14.7891 10.6473 22.1291 3.30547 31.1418 3.30547C38.0818 3.30547 44.2691 7.70547 46.5782 14.2691L46.7418 14.7655C47.0691 15.8236 47.3291 16.9055 47.4236 18.0346L50.5763 17.7073C50.4582 16.5764 50.2236 15.4709 49.9182 14.3655C51.7763 13.0473 53.9891 12.2709 56.2709 12.2709C62.3182 12.2709 67.2345 17.1891 67.2345 23.2346C67.2345 23.9182 67.1654 24.6236 67.0236 25.3291L67 25.4C66.7636 26.6236 66.3182 27.8 65.6581 28.8818L68.3891 30.5291C69.0709 29.4 69.5163 28.2 69.8709 26.9527C70.7182 26.7418 71.5654 26.6236 72.4109 26.6236C78.4582 26.6236 83.3763 31.5418 83.3763 37.5873C83.3763 43.6346 78.4582 48.5764 72.4127 48.5764H72.4109Z" fill="#505772"/>
</svg>
