<svg width="91" height="80" viewBox="0 0 91 80" fill="none" xmlns="http://www.w3.org/2000/svg">
<path d="M73.4109 24.4472C72.7291 24.4472 72.0709 24.4945 71.4109 24.589V24.2345C71.4109 16.4236 65.0582 10.0945 57.2709 10.0945C54.6109 10.0945 52 10.8472 49.7655 12.2581C46.5655 5.53086 39.7182 1.13086 32.1418 1.13086C21.3655 1.13086 12.6109 9.88177 12.6109 20.6581C12.6109 22.0472 12.7527 23.4109 13.0582 24.7763C6.65818 26.1399 1.85818 31.9054 1.85818 38.6127C1.85818 46.4236 8.21091 52.7527 16 52.7527H33.7418V31.6236H28.2109L37.5291 19.6472L46.8473 31.6236H41.3182V58.5418H32.4709L48.2818 78.869L64.0945 58.5418H55.2473V52.7527H73.3891C81.2 52.7527 87.5291 46.3999 87.5291 38.6109C87.5291 30.8236 81.2236 24.4472 73.4109 24.4472V24.4472ZM73.4109 49.5763H52.0945V61.7181H57.6218L48.3055 73.6945L38.9891 61.7181H44.5164V34.7999H53.3655L37.5527 14.4709L21.7418 34.7999H30.5891V49.5763H16C9.95273 49.5763 5.03636 44.6581 5.03636 38.6127C5.03636 32.9181 9.48182 28.1181 15.1527 27.6709H15.2473C16.5891 27.5763 17.9291 27.7181 19.2236 28.1181L20.1655 25.0818C18.9182 24.7054 17.6 24.5418 16.3055 24.5181C16 23.2454 15.7891 21.9763 15.7891 20.6581C15.7891 11.6472 23.1291 4.3054 32.1418 4.3054C39.0818 4.3054 45.2691 8.7054 47.5782 15.269L47.7418 15.7654C48.0691 16.8236 48.3291 17.9054 48.4236 19.0345L51.5764 18.7072C51.4582 17.5763 51.2236 16.4709 50.9182 15.3654C52.7764 14.0472 54.9891 13.2709 57.2709 13.2709C63.3182 13.2709 68.2345 18.189 68.2345 24.2345C68.2345 24.9181 68.1654 25.6236 68.0236 26.329L68 26.4C67.7636 27.6236 67.3182 28.7999 66.6582 29.8818L69.3891 31.529C70.0709 30.3999 70.5164 29.1999 70.8709 27.9527C71.7182 27.7418 72.5655 27.6236 73.4109 27.6236C79.4582 27.6236 84.3764 32.5418 84.3764 38.5872C84.3764 44.6345 79.4582 49.5763 73.4127 49.5763H73.4109Z" fill="#505772"/>
</svg>
