<svg width="80" height="80" viewBox="0 0 80 80" fill="none" xmlns="http://www.w3.org/2000/svg">
<g clip-path="url(#clip0_3_1448)">
<path d="M69.7073 24.7727H29.9727V28.3727H69.4927L71.5727 26.5327L69.7073 24.7727Z" fill="#505772"/>
<path d="M21.52 35.3073V31.7327H4.07999V4.13271H58.8V9.78726H62.4V4.13271V0.532715H58.8H4.07999H0.507263V4.13271V31.7327V35.3073H4.07999H21.52ZM69.7073 24.7727L71.5727 26.5327L69.4927 28.3727L62.2673 34.7473L64.6127 37.3873L76.7727 26.6127L64.6673 15.12L62.24 17.68L69.7073 24.7727ZM10.2927 55.2273H50.0273V51.6273H10.5073L8.42726 53.4673L10.2927 55.2273Z" fill="#505772"/>
<path d="M75.92 44.6928H58.48V48.2673H75.92V75.8673H21.2V70.2128H17.6V75.8673V79.4673H21.2H75.92H79.4927V75.8673V48.2673V44.6928H75.92ZM10.2927 55.2273L8.42726 53.4673L10.5073 51.6273L17.7327 45.2528L15.3873 42.6128L3.22726 53.3873L15.3327 64.8801L17.76 62.3201L10.2927 55.2273Z" fill="#505772"/>
</g>
<defs>
<clipPath id="clip0_3_1448">
<rect width="80" height="80" fill="white"/>
</clipPath>
</defs>
</svg>
