<svg width="59" height="100" viewBox="0 0 59 100" fill="none" xmlns="http://www.w3.org/2000/svg">
<path d="M-0.962402 0V100H58.3266V0H-0.962402ZM2.58798 3.62928H54.7762V14.9626H2.58798V3.62928ZM54.7762 96.3939H2.58798V88.5715H54.7762V96.3939ZM56.2613 87.9821H1.10285V85.2973H56.2613V87.9821ZM2.58798 84.7078V18.8054H54.7762V84.7078H2.58798ZM56.2613 18.216H1.10285V15.5288H56.2613V18.216Z" fill="#505772"/>
<path d="M45.6102 51.8146C45.6102 51.7218 45.6102 51.6035 45.587 51.4851L44.6588 51.4387C43.6842 51.3668 42.7096 51.3204 41.7582 51.2716C41.2941 51.2484 41.0388 51.0605 40.8996 50.6126C40.6444 49.9048 40.4123 49.269 40.1338 48.6796C39.8786 48.1853 39.9482 47.8094 40.3195 47.408C40.9692 46.7025 41.619 45.9693 42.2455 45.2406L42.7792 44.628L38.3935 40.2701L37.7205 40.8827L35.6553 42.767C35.2608 43.1197 34.9127 43.1661 34.495 42.9294C33.9149 42.6254 33.2883 42.3655 32.6154 42.1311C32.1281 41.9664 31.9424 41.7065 31.9192 41.1635C31.896 40.1749 31.8264 39.1841 31.78 38.1956L31.7336 37.3718H29.7844C28.4849 37.3718 27.1854 37.3718 25.9091 37.3486C25.6075 37.3486 25.6307 37.3486 25.6075 37.6526C25.5842 38.242 25.561 38.8546 25.5146 39.444C25.4914 40.0102 25.445 40.5764 25.4218 41.1403C25.3986 41.6833 25.1898 41.9896 24.6793 42.1543C23.9831 42.3655 23.3102 42.695 22.7764 42.9549C22.4748 43.1197 22.1267 43.1916 21.709 42.8157C21.3145 42.4374 20.8968 42.0592 20.5023 41.7065C20.015 41.2586 19.5045 40.8108 19.0404 40.3397C18.9012 40.2005 18.8548 40.2005 18.8548 40.2005C18.8548 40.2005 18.8084 40.2005 18.6691 40.3397C17.7177 41.3282 16.7431 42.3191 15.7685 43.31L14.6082 44.4865C14.585 44.5097 14.5618 44.5329 14.5386 44.5793L15.0027 45.1223C15.4436 45.6653 15.8845 46.1595 16.3486 46.6306C16.5343 46.8186 16.7199 47.0088 16.8823 47.22C17.3464 47.8326 17.5553 48.5868 16.8359 49.4825C16.6503 50.8238 15.8613 51.2484 15.0259 51.3436C14.7475 51.3668 14.4458 51.3668 14.1673 51.3668C13.564 51.3204 12.9839 51.39 12.3573 51.4364C12.1717 51.4596 11.9629 51.4596 11.7772 51.4828V57.6577C11.87 57.6577 11.9629 57.6809 12.0325 57.6809L12.6358 57.7041L15.4668 57.8456C16.0005 57.8688 16.3022 58.1055 16.4414 58.5998C16.6503 59.2611 16.8823 59.8737 17.1608 60.4144C17.4393 60.9319 17.3696 61.3101 16.9752 61.7348C16.3254 62.4402 15.6757 63.1735 15.0491 63.8789L14.5386 64.4684L18.878 68.8727L19.4117 68.4016L21.6394 66.3526C21.9411 66.0695 22.2891 65.8583 22.846 66.1646C23.3566 66.4454 23.9367 66.6821 24.6793 66.942C25.0273 67.058 25.3986 67.2715 25.4218 67.8841C25.4218 68.4503 25.4682 69.0142 25.4914 69.5781L25.5146 70.0515L25.5842 71.2767L25.6075 71.7014H31.7104L31.7568 70.8521C31.8032 69.8635 31.8728 68.8727 31.896 67.8818C31.9192 67.3899 32.1049 67.1068 32.569 66.9652C33.1259 66.7773 33.7989 66.5406 34.4022 66.2111C34.9127 65.928 35.284 65.9744 35.7017 66.3758C36.3978 67.058 37.1404 67.6962 37.8365 68.332L38.3703 68.8031L42.7328 64.4196L42.1527 63.7606C41.5261 63.0528 40.8996 62.3219 40.2267 61.5932C39.8322 61.1686 39.925 60.7927 40.0874 60.4608C40.4355 59.7067 40.6908 59.0941 40.8996 58.4814C41.0852 57.9408 41.4565 57.8456 41.7814 57.8224L42.9881 57.7528C43.7306 57.7064 44.4964 57.66 45.239 57.66C45.6102 57.66 45.6334 57.6345 45.6334 57.2817C45.6102 56.0078 45.6102 54.7361 45.6102 53.4645V51.8146ZM43.9163 56.0565L42.64 56.1261C41.8046 56.1725 40.9692 56.2189 40.157 56.2422C39.7626 56.2422 39.6929 56.3141 39.6465 56.6923C39.3913 58.2007 38.8112 59.6371 37.9062 60.9574C37.6973 61.2637 37.6973 61.3566 37.9294 61.5932C38.5095 62.2059 39.0664 62.8417 39.6001 63.4543C39.809 63.7142 40.041 63.9486 40.2499 64.2085L40.4355 64.4196L38.4167 66.5174L37.5117 65.6936C36.8387 65.081 36.1426 64.4684 35.4696 63.8302C35.3072 63.6678 35.284 63.691 35.0983 63.807C33.706 64.7979 32.1977 65.4314 30.5733 65.7168C30.3645 65.74 30.3181 65.7864 30.3181 66.0463L30.2485 67.7171L30.1789 69.3205C30.1789 69.4853 30.1557 69.6988 29.9932 69.8635C29.8308 70.026 29.6219 70.0515 29.4363 70.0515C28.8562 70.0283 28.3689 70.0283 27.928 70.0515H27.8583C27.6495 70.0515 27.4871 70.0051 27.371 69.8867C27.1854 69.722 27.1622 69.4621 27.1622 69.2973L27.0926 67.9538C27.0462 67.3179 27.023 66.7053 26.9998 66.0695C26.9998 65.7864 26.9301 65.74 26.7213 65.6936C25.1434 65.4337 23.635 64.7979 22.2427 63.807C22.0571 63.6678 22.0107 63.6678 21.8482 63.8302C21.2217 64.4196 20.572 65.009 19.9222 65.5984L18.9708 66.471L16.952 64.3732L17.6945 63.5239C18.2746 62.8649 18.8548 62.1827 19.4581 61.5213C19.667 61.3101 19.6437 61.2637 19.5277 61.0734C18.5763 59.7322 17.9498 58.2007 17.6713 56.5485C17.6249 56.2932 17.5785 56.2677 17.3232 56.2677L14.7011 56.1284L13.4248 56.0565V55.2304C13.4248 54.6665 13.4248 54.1467 13.448 53.6061C13.4712 53.2997 13.8889 53.0863 14.1209 53.0631C15.2812 52.9702 16.3254 52.9238 17.3 52.8751C17.6017 52.8751 17.6481 52.8287 17.6945 52.5688C17.973 50.9444 18.5995 49.4129 19.5741 48.0438C19.6902 47.8814 19.6902 47.8326 19.5509 47.6679C18.9708 47.0321 18.3907 46.3962 17.8337 45.7349L16.9752 44.7464L19.0636 42.695L19.9222 43.4724C20.5487 44.0386 21.1985 44.628 21.8482 45.2406C22.0339 45.4054 22.0803 45.4054 22.2427 45.287C23.635 44.2985 25.1434 43.6627 26.6981 43.4028C26.9301 43.3564 26.9766 43.31 26.9998 42.9781C27.023 42.1079 27.0926 41.2354 27.139 40.3397L27.2086 39.0913H30.1092L30.1324 39.3744C30.1557 39.8686 30.2021 40.4093 30.2253 40.9291L30.2485 41.5417C30.2717 42.0592 30.2949 42.579 30.3413 43.0733C30.3413 43.1429 30.4341 43.2844 30.4805 43.3076C32.1745 43.6139 33.7756 44.2985 35.284 45.3822L38.3471 42.6254L40.3891 44.6976L37.7205 47.7375C37.8365 47.951 37.9526 48.1853 38.0686 48.3988C38.4167 49.0579 38.7415 49.6937 39.0432 50.3782C39.3217 51.014 39.4609 51.6963 39.6233 52.3553L39.6697 52.5688C39.7162 52.8032 39.7626 52.8519 39.9946 52.8519L41.5726 52.9215C42.1063 52.9447 42.6632 52.9911 43.1969 52.9911C43.7074 53.0143 43.9395 53.2742 43.9163 53.7708C43.8931 54.1931 43.9163 54.641 43.9163 55.0889V56.0565Z" fill="#505772"/>
<path d="M46.1903 51.8147C46.1903 51.6731 46.1903 51.5548 46.1671 51.4132L46.1439 50.9422L44.7052 50.8493C43.7306 50.8029 42.756 50.731 41.8046 50.6846C41.5957 50.6846 41.5261 50.6382 41.4565 50.4247C41.2012 49.6937 40.9692 49.0556 40.6443 48.4221C40.5051 48.139 40.5283 48.0438 40.7371 47.8095C41.3869 47.1017 42.0366 46.3707 42.6864 45.6421L43.5914 44.6048L38.4166 39.4672L37.3492 40.4581L35.2839 42.3423C35.0751 42.5303 35.0055 42.5303 34.7734 42.412C34.1701 42.0824 33.4971 41.8249 32.801 41.5882C32.5457 41.5186 32.5225 41.4489 32.4993 41.1635L32.3601 38.1701L32.2905 36.8056L31.8496 36.7824C31.7104 36.7824 31.5711 36.7592 31.4551 36.7592H29.7843C28.4849 36.7592 27.2086 36.7592 25.9091 36.736H25.8859C25.1433 36.736 25.0505 37.2071 25.0273 37.6062C25.0041 38.1956 24.9809 38.785 24.9345 39.3976C24.9113 39.9638 24.8649 40.5277 24.8416 41.1171C24.8416 41.4234 24.772 41.4954 24.5168 41.5882C23.7742 41.8249 23.0781 42.1544 22.5443 42.4143C22.3123 42.5303 22.2659 42.5071 22.1267 42.3679C21.7322 41.9896 21.3145 41.6114 20.8968 41.2355L19.4349 39.8919C19.0172 39.4904 18.6459 39.4904 18.2514 39.9151C17.3 40.906 16.3254 41.8945 15.3508 42.8853L14.1905 44.0618C14.1209 44.1315 14.0745 44.2034 14.0049 44.2753L13.7728 44.5816L13.9353 44.7673C14.1441 45.004 14.353 45.2407 14.5386 45.4774C14.9795 45.9948 15.4436 46.5355 15.9309 47.0321C16.8127 47.8791 16.9287 48.3989 16.3254 49.1043L16.2558 49.2227V49.3155C16.1165 50.4247 15.5596 50.8006 14.1905 50.731C13.564 50.7078 12.9142 50.7542 12.3109 50.8006L11.4755 50.8702L11.1971 50.8934V58.152L11.638 58.1984C11.7772 58.2216 11.8932 58.2216 12.0092 58.2448L12.6126 58.2703L15.4436 58.4119C15.7221 58.4119 15.8149 58.4815 15.9077 58.7646C16.1165 59.4491 16.3718 60.085 16.6735 60.6744C16.8127 60.9575 16.8127 61.0735 16.5806 61.3334C15.9309 62.0411 15.2812 62.7721 14.6546 63.5007L13.7728 64.5148L18.8779 69.722L19.8061 68.8727L22.0338 66.8237C22.2427 66.6125 22.3355 66.587 22.5908 66.7309C23.1245 67.0117 23.7278 67.2716 24.5168 67.5315C24.7952 67.6243 24.8417 67.7171 24.8649 67.9306C24.8649 68.4968 24.9113 69.0862 24.9345 69.6501L24.9577 70.1212L25.0273 71.3464L25.0969 72.3372H32.2905L32.3601 70.9217C32.4065 69.91 32.4761 68.9215 32.4993 67.9306C32.4993 67.6707 32.5457 67.6243 32.7778 67.5547C33.3811 67.3644 34.0541 67.1068 34.7038 66.7518C35.0055 66.5893 35.0983 66.6125 35.3304 66.8469C36.0497 67.5315 36.7691 68.1905 37.4884 68.8263L38.4166 69.6756L43.545 64.4916L42.5935 63.4079C41.967 62.677 41.3173 61.946 40.6675 61.2383C40.5283 61.0758 40.5051 61.0039 40.6211 60.7672C40.9692 59.9898 41.2477 59.354 41.4565 58.7182C41.5261 58.5302 41.5725 58.4815 41.8046 58.4583L43.0112 58.3887C43.7538 58.3423 44.4964 58.2958 45.2389 58.2958C45.7494 58.2958 46.2135 58.152 46.1903 57.305C46.1671 56.031 46.1671 54.7594 46.1671 53.4878C46.1903 52.9448 46.1903 52.3809 46.1903 51.8147V51.8147ZM45.2157 57.7041C44.4732 57.7273 43.7074 57.7737 42.9648 57.7993L41.7582 57.8689C41.4565 57.8921 41.062 57.964 40.8764 58.5302C40.6675 59.1428 40.4123 59.7786 40.0642 60.5096C39.9018 60.8391 39.8089 61.215 40.2034 61.6397C40.8532 62.3475 41.5029 63.0784 42.1294 63.8071L42.7096 64.4684L38.347 68.8495L37.8133 68.3785C37.1171 67.7426 36.3746 67.0836 35.6784 66.4223C35.2607 66.0231 34.8895 65.9744 34.3789 66.2598C33.7756 66.587 33.1027 66.8237 32.5457 67.0117C32.0816 67.1532 31.896 67.4363 31.8728 67.9306L31.7336 70.9008L31.6872 71.7478H25.5842L25.561 71.3232L25.4914 70.0979L25.4682 69.6269C25.445 69.063 25.3986 68.4968 25.3986 67.9329C25.3986 67.318 25.0273 67.1068 24.656 66.9885C23.9134 66.7286 23.3333 66.4942 22.8228 66.2111C22.2659 65.9048 21.8946 66.1183 21.6161 66.3991C20.8968 67.0836 20.1542 67.7682 19.3885 68.4504L18.8547 68.9215L14.5154 64.5125L15.0723 63.9022C15.6988 63.1944 16.3254 62.4635 16.9983 61.758C17.3928 61.3334 17.4624 60.9319 17.184 60.4377C16.9055 59.897 16.6503 59.2844 16.4646 58.623C16.3022 58.1288 16.0005 57.8944 15.49 57.8689L12.659 57.7296L12.0556 57.7064C11.9628 57.7064 11.8932 57.6832 11.8004 57.6832V51.5084C11.986 51.4852 12.1949 51.4851 12.3805 51.4619C13.0071 51.4155 13.5872 51.3436 14.1905 51.3923C14.469 51.4155 14.7474 51.4155 15.0491 51.3668C15.9077 51.274 16.6967 50.8493 16.8591 49.5058C17.5553 48.61 17.3696 47.8814 16.9055 47.2433C16.7431 47.0321 16.5574 46.8418 16.3718 46.6539C15.8845 46.206 15.4668 45.6885 15.0259 45.1455C14.8635 44.9599 14.7242 44.7928 14.5618 44.6048C14.585 44.5816 14.6082 44.5352 14.6314 44.512L15.7917 43.3332C16.7663 42.3423 17.7409 41.3538 18.6923 40.363C18.8315 40.2237 18.8779 40.2237 18.8779 40.2237C18.8779 40.2237 18.9244 40.2237 19.0636 40.363C19.5509 40.834 20.0382 41.2819 20.5255 41.7321C20.9432 42.108 21.3377 42.4607 21.7322 42.8366C22.1267 43.2149 22.4747 43.1197 22.7996 42.9782C23.3101 42.7206 23.9831 42.4143 24.7024 42.1776C25.1897 42.0128 25.4218 41.7065 25.445 41.1635C25.4682 40.5996 25.4914 40.0334 25.5378 39.4696C25.561 38.8778 25.6074 38.2652 25.6306 37.6781C25.6306 37.3718 25.6306 37.3718 25.9323 37.3718C27.2318 37.395 28.5313 37.395 29.8075 37.395H31.7568L31.8032 38.2188C31.8728 39.2097 31.9192 40.1982 31.9424 41.1891C31.9656 41.7065 32.1745 41.9896 32.6386 42.1544C33.3115 42.3656 33.938 42.6487 34.5182 42.955C34.9591 43.1917 35.3071 43.1429 35.6784 42.7902C36.3514 42.1544 37.0475 41.5186 37.7437 40.906L38.4166 40.2933L42.8024 44.6513L42.2687 45.2639C41.6189 45.9948 40.9924 46.7258 40.3427 47.4312C39.9714 47.8559 39.9018 48.2086 40.157 48.7052C40.4587 49.2923 40.6907 49.9304 40.9228 50.6358C41.0852 51.0837 41.3405 51.2717 41.7814 51.2972C42.7328 51.3436 43.7074 51.39 44.682 51.4596L45.6102 51.506C45.6102 51.6267 45.6334 51.7195 45.6334 51.8379V53.5342C45.6334 54.8058 45.6334 56.0798 45.6566 57.3514C45.6334 57.6809 45.6102 57.7041 45.2157 57.7041V57.7041ZM54.7762 15.5289H2.58797H2.00784H1.10284V18.216H2.00784H2.58797H54.7762H55.3563H56.2613V15.5289H55.3563H54.7762ZM54.7762 85.2973H2.58797H2.00784H1.10284V87.9821H2.00784H2.58797H54.7762H55.3563H56.2613V85.2973H55.3563H54.7762Z" fill="#505772"/>
</svg>
