<svg width="60" height="100" viewBox="0 0 60 100" fill="none" xmlns="http://www.w3.org/2000/svg">
<path d="M0.204544 0.0908203V98.0317H58.2727V0.0908203H0.204544ZM3.68182 3.64537H54.7955V14.7454H3.68182V3.64537ZM54.7955 94.4999H3.68182V86.8385H54.7955V94.4999ZM56.25 86.2613H2.22727V83.6317H56.25V86.2613ZM3.68182 83.0545V18.509H54.7955V83.0545H3.68182ZM56.25 17.9317H2.22727V15.2999H56.25V17.9317Z" fill="#505772"/>
<path d="M45.8182 50.8386C45.8182 50.7477 45.8182 50.6318 45.7955 50.5159L44.8864 50.4704C43.9318 50.4 42.9773 50.3545 42.0455 50.3068C41.5909 50.284 41.3409 50.1 41.2045 49.6613C40.9545 48.9681 40.7273 48.3454 40.4545 47.7681C40.2045 47.284 40.2727 46.9159 40.6364 46.5227C41.2727 45.8318 41.9091 45.1136 42.5227 44.4L43.0455 43.8L38.75 39.5318L38.0909 40.1318L36.0682 41.9772C35.6818 42.3227 35.3409 42.3681 34.9318 42.1363C34.3636 41.8386 33.75 41.584 33.0909 41.3545C32.6136 41.1931 32.4318 40.9386 32.4091 40.4068C32.3864 39.4386 32.3182 38.4681 32.2727 37.5L32.2273 36.6931H30.3182C29.0455 36.6931 27.7727 36.6931 26.5227 36.6704C26.2273 36.6704 26.25 36.6704 26.2273 36.9681C26.2046 37.5454 26.1818 38.1454 26.1364 38.7227C26.1136 39.2772 26.0682 39.8318 26.0455 40.384C26.0227 40.9159 25.8182 41.2159 25.3182 41.3772C24.6364 41.584 23.9773 41.9068 23.4546 42.1613C23.1591 42.3227 22.8182 42.3931 22.4091 42.025C22.0227 41.6545 21.6136 41.284 21.2273 40.9386C20.75 40.5 20.25 40.0613 19.7955 39.6C19.6591 39.4636 19.6136 39.4636 19.6136 39.4636C19.6136 39.4636 19.5682 39.4636 19.4318 39.6C18.5 40.5681 17.5455 41.5386 16.5909 42.509L15.4546 43.6613C15.4318 43.684 15.4091 43.7068 15.3864 43.7522L15.8409 44.284C16.2727 44.8159 16.7046 45.3 17.1591 45.7613C17.3409 45.9454 17.5227 46.1318 17.6818 46.3386C18.1364 46.9386 18.3409 47.6772 17.6364 48.5545C17.4546 49.8681 16.6818 50.284 15.8636 50.3772C15.5909 50.4 15.2955 50.4 15.0227 50.4C14.4318 50.3545 13.8636 50.4227 13.25 50.4681C13.0682 50.4909 12.8636 50.4909 12.6818 50.5136V56.5613C12.7727 56.5613 12.8636 56.584 12.9318 56.584L13.5227 56.6068L16.2955 56.7454C16.8182 56.7681 17.1136 57 17.25 57.484C17.4546 58.1318 17.6818 58.7318 17.9546 59.2613C18.2273 59.7681 18.1591 60.1386 17.7727 60.5545C17.1364 61.2454 16.5 61.9636 15.8864 62.6545L15.3864 63.2318L19.6364 67.5454L20.1591 67.084L22.3409 65.0772C22.6364 64.8 22.9773 64.5931 23.5227 64.8931C24.0227 65.1681 24.5909 65.4 25.3182 65.6545C25.6591 65.7681 26.0227 65.9772 26.0455 66.5772C26.0455 67.1318 26.0909 67.684 26.1136 68.2363L26.1364 68.7L26.2046 69.9L26.2273 70.3159H32.2046L32.25 69.484C32.2955 68.5159 32.3636 67.5454 32.3864 66.575C32.4091 66.0931 32.5909 65.8159 33.0455 65.6772C33.5909 65.4931 34.25 65.2613 34.8409 64.9386C35.3409 64.6613 35.7046 64.7068 36.1136 65.1C36.7955 65.7681 37.5227 66.3931 38.2045 67.0159L38.7273 67.4772L43 63.184L42.4318 62.5386C41.8182 61.8454 41.2046 61.1295 40.5455 60.4159C40.1591 60 40.25 59.6318 40.4091 59.3068C40.75 58.5681 41 57.9681 41.2045 57.3681C41.3864 56.8386 41.75 56.7454 42.0682 56.7227L43.25 56.6545C43.9773 56.609 44.7273 56.5636 45.4546 56.5636C45.8182 56.5636 45.8409 56.5386 45.8409 56.1931C45.8182 54.9454 45.8182 53.7 45.8182 52.4545V50.8386V50.8386ZM44.1591 54.9931L42.9091 55.0613C42.0909 55.1068 41.2727 55.1522 40.4773 55.175C40.0909 55.175 40.0227 55.2454 39.9773 55.6159C39.7273 57.0931 39.1591 58.5 38.2727 59.7931C38.0682 60.0931 38.0682 60.184 38.2955 60.4159C38.8636 61.0159 39.4091 61.6386 39.9318 62.2386C40.1364 62.4931 40.3636 62.7227 40.5682 62.9772L40.75 63.184L38.7727 65.2386L37.8864 64.4318C37.2273 63.8318 36.5455 63.2318 35.8864 62.6068C35.7273 62.4477 35.7046 62.4704 35.5227 62.584C34.1591 63.5545 32.6818 64.175 31.0909 64.4545C30.8864 64.4772 30.8409 64.5227 30.8409 64.7772L30.7727 66.4136L30.7046 67.984C30.7046 68.1454 30.6818 68.3545 30.5227 68.5159C30.3636 68.675 30.1591 68.7 29.9773 68.7C29.4091 68.6772 28.9318 68.6772 28.5 68.7H28.4318C28.2273 68.7 28.0682 68.6545 27.9546 68.5386C27.7727 68.3772 27.75 68.1227 27.75 67.9613L27.6818 66.6454C27.6364 66.0227 27.6136 65.4227 27.5909 64.8C27.5909 64.5227 27.5227 64.4772 27.3182 64.4318C25.7727 64.1772 24.2955 63.5545 22.9318 62.584C22.75 62.4477 22.7046 62.4477 22.5455 62.6068C21.9318 63.184 21.2955 63.7613 20.6591 64.3386L19.7273 65.1931L17.75 63.1386L18.4773 62.3068C19.0455 61.6613 19.6136 60.9931 20.2046 60.3454C20.4091 60.1386 20.3864 60.0931 20.2727 59.9068C19.3409 58.5931 18.7273 57.0931 18.4546 55.475C18.4091 55.225 18.3636 55.2 18.1136 55.2L15.5455 55.0636L14.2955 54.9931V54.184C14.2955 53.6318 14.2955 53.1227 14.3182 52.5931C14.3409 52.2931 14.75 52.084 14.9773 52.0613C16.1136 51.9704 17.1364 51.925 18.0909 51.8772C18.3864 51.8772 18.4318 51.8318 18.4773 51.5772C18.75 49.9863 19.3636 48.4863 20.3182 47.1454C20.4318 46.9863 20.4318 46.9386 20.2955 46.7772C19.7273 46.1545 19.1591 45.5318 18.6136 44.884L17.7727 43.9159L19.8182 41.9068L20.6591 42.6681C21.2727 43.2227 21.9091 43.8 22.5455 44.4C22.7273 44.5613 22.7727 44.5613 22.9318 44.4454C24.2955 43.4772 25.7727 42.8545 27.2955 42.6C27.5227 42.5545 27.5682 42.509 27.5909 42.184C27.6136 41.3318 27.6818 40.4772 27.7273 39.6L27.7955 38.3772H30.6364L30.6591 38.6545C30.6818 39.1386 30.7273 39.6681 30.75 40.1772L30.7727 40.7772C30.7955 41.284 30.8182 41.7931 30.8636 42.2772C30.8636 42.3454 30.9546 42.484 31 42.5068C32.6591 42.8068 34.2273 43.4772 35.7046 44.5386L38.7046 41.8386L40.7046 43.8681L38.0909 46.8454C38.2046 47.0545 38.3182 47.284 38.4318 47.4931C38.7727 48.1386 39.0909 48.7613 39.3864 49.4318C39.6591 50.0545 39.7955 50.7227 39.9546 51.3681L40 51.5772C40.0455 51.8068 40.0909 51.8545 40.3182 51.8545L41.8636 51.9227C42.3864 51.9454 42.9318 51.9909 43.4546 51.9909C43.9546 52.0136 44.1818 52.2681 44.1591 52.7545C44.1364 53.1681 44.1591 53.6068 44.1591 54.0454V54.9931V54.9931Z" fill="#505772"/>
<path d="M46.3864 50.8384C46.3864 50.6998 46.3864 50.5839 46.3636 50.4453L46.3409 49.9839L44.9318 49.893C43.9773 49.8475 43.0227 49.7771 42.0909 49.7316C41.8864 49.7316 41.8182 49.6862 41.75 49.4771C41.5 48.7612 41.2727 48.1362 40.9545 47.5157C40.8182 47.2384 40.8409 47.1453 41.0454 46.9157C41.6818 46.2225 42.3182 45.5066 42.9545 44.793L43.8409 43.7771L38.7727 38.7453L37.7273 39.7157L35.7045 41.5612C35.5 41.7453 35.4318 41.7453 35.2045 41.6293C34.6136 41.3066 33.9545 41.0543 33.2727 40.8225C33.0227 40.7543 33 40.6862 32.9773 40.4066L32.8409 37.4748L32.7727 36.1384L32.3409 36.1157C32.2045 36.1157 32.0682 36.093 31.9545 36.093H30.3182C29.0454 36.093 27.7954 36.093 26.5227 36.0703H26.5C25.7727 36.0703 25.6818 36.5316 25.6591 36.9225C25.6364 37.4998 25.6136 38.0771 25.5682 38.6771C25.5454 39.2316 25.5 39.7839 25.4773 40.3612C25.4773 40.6612 25.4091 40.7316 25.1591 40.8225C24.4318 41.0543 23.75 41.3771 23.2273 41.6316C23 41.7453 22.9545 41.7225 22.8182 41.5862C22.4318 41.2157 22.0227 40.8453 21.6136 40.4771L20.1818 39.1612C19.7727 38.768 19.4091 38.768 19.0227 39.1839C18.0909 40.1543 17.1364 41.1225 16.1818 42.093L15.0454 43.2453C14.9773 43.3134 14.9318 43.3839 14.8636 43.4544L14.6364 43.7544L14.7954 43.9362C15 44.168 15.2045 44.3998 15.3864 44.6316C15.8182 45.1384 16.2727 45.668 16.75 46.1544C17.6136 46.9839 17.7273 47.493 17.1364 48.1839L17.0682 48.2998V48.3907C16.9318 49.4771 16.3864 49.8453 15.0454 49.7771C14.4318 49.7543 13.7954 49.7998 13.2045 49.8453L12.3864 49.9134L12.1136 49.9362V57.0453L12.5454 57.0907C12.6818 57.1134 12.7954 57.1134 12.9091 57.1362L13.5 57.1612L16.2727 57.2998C16.5454 57.2998 16.6364 57.368 16.7273 57.6453C16.9318 58.3157 17.1818 58.9384 17.4773 59.5157C17.6136 59.793 17.6136 59.9066 17.3864 60.1612C16.75 60.8544 16.1136 61.5703 15.5 62.2839L14.6364 63.2771L19.6364 68.3771L20.5454 67.5453L22.7273 65.5384C22.9318 65.3316 23.0227 65.3066 23.2727 65.4475C23.7954 65.7225 24.3864 65.9771 25.1591 66.2316C25.4318 66.3225 25.4773 66.4134 25.5 66.6225C25.5 67.1771 25.5454 67.7543 25.5682 68.3066L25.5909 68.768L25.6591 69.968L25.7273 70.9384H32.7727L32.8409 69.5521C32.8864 68.5612 32.9545 67.593 32.9773 66.6225C32.9773 66.368 33.0227 66.3225 33.25 66.2543C33.8409 66.068 34.5 65.8157 35.1364 65.468C35.4318 65.3089 35.5227 65.3316 35.75 65.5612C36.4545 66.2316 37.1591 66.8771 37.8636 67.4998L38.7727 68.3316L43.7954 63.2544L42.8636 62.193C42.25 61.4771 41.6136 60.7612 40.9773 60.068C40.8409 59.9089 40.8182 59.8384 40.9318 59.6066C41.2727 58.8453 41.5454 58.2225 41.75 57.5998C41.8182 57.4157 41.8636 57.368 42.0909 57.3453L43.2727 57.2771C44 57.2316 44.7273 57.1862 45.4545 57.1862C45.9545 57.1862 46.4091 57.0453 46.3864 56.2157C46.3636 54.968 46.3636 53.7225 46.3636 52.4771C46.3864 51.9453 46.3864 51.393 46.3864 50.8384V50.8384ZM45.4318 56.6066C44.7045 56.6293 43.9545 56.6748 43.2273 56.6998L42.0454 56.768C41.75 56.7907 41.3636 56.8612 41.1818 57.4157C40.9773 58.0157 40.7273 58.6384 40.3864 59.3543C40.2273 59.6771 40.1364 60.0453 40.5227 60.4612C41.1591 61.1544 41.7954 61.8703 42.4091 62.5839L42.9773 63.2316L38.7045 67.5225L38.1818 67.0612C37.5 66.4384 36.7727 65.793 36.0909 65.1453C35.6818 64.7543 35.3182 64.7066 34.8182 64.9862C34.2273 65.3066 33.5682 65.5384 33.0227 65.7225C32.5682 65.8612 32.3864 66.1384 32.3636 66.6225L32.2273 69.5316L32.1818 70.3612H26.2045L26.1818 69.9453L26.1136 68.7453L26.0909 68.2839C26.0682 67.7316 26.0227 67.1771 26.0227 66.6248C26.0227 66.0225 25.6591 65.8157 25.2954 65.6998C24.5682 65.4453 24 65.2157 23.5 64.9384C22.9545 64.6384 22.5909 64.8475 22.3182 65.1225C21.6136 65.793 20.8864 66.4634 20.1364 67.1316L19.6136 67.593L15.3636 63.2748L15.9091 62.6771C16.5227 61.9839 17.1364 61.268 17.7954 60.5771C18.1818 60.1612 18.25 59.768 17.9773 59.2839C17.7045 58.7543 17.4545 58.1543 17.2727 57.5066C17.1136 57.0225 16.8182 56.793 16.3182 56.768L13.5454 56.6316L12.9545 56.6089C12.8636 56.6089 12.7954 56.5862 12.7045 56.5862V50.5384C12.8864 50.5157 13.0909 50.5157 13.2727 50.493C13.8864 50.4475 14.4545 50.3771 15.0454 50.4248C15.3182 50.4475 15.5909 50.4475 15.8864 50.3998C16.7273 50.3089 17.5 49.893 17.6591 48.5771C18.3409 47.6998 18.1591 46.9862 17.7045 46.3612C17.5454 46.1543 17.3636 45.968 17.1818 45.7839C16.7045 45.3453 16.2954 44.8384 15.8636 44.3066C15.7045 44.1248 15.5682 43.9612 15.4091 43.7771C15.4318 43.7543 15.4545 43.7089 15.4773 43.6862L16.6136 42.5316C17.5682 41.5612 18.5227 40.593 19.4545 39.6225C19.5909 39.4862 19.6364 39.4862 19.6364 39.4862C19.6364 39.4862 19.6818 39.4862 19.8182 39.6225C20.2954 40.0839 20.7727 40.5225 21.25 40.9634C21.6591 41.3316 22.0454 41.6771 22.4318 42.0453C22.8182 42.4157 23.1591 42.3225 23.4773 42.1839C23.9773 41.9316 24.6364 41.6316 25.3409 41.3998C25.8182 41.2384 26.0454 40.9384 26.0682 40.4066C26.0909 39.8543 26.1136 39.2998 26.1591 38.7475C26.1818 38.168 26.2273 37.568 26.25 36.993C26.25 36.693 26.25 36.693 26.5454 36.693C27.8182 36.7157 29.0909 36.7157 30.3409 36.7157H32.25L32.2954 37.5225C32.3636 38.493 32.4091 39.4612 32.4318 40.4316C32.4545 40.9384 32.6591 41.2157 33.1136 41.3771C33.7727 41.5839 34.3864 41.8612 34.9545 42.1612C35.3864 42.393 35.7273 42.3453 36.0909 41.9998C36.75 41.3771 37.4318 40.7543 38.1136 40.1543L38.7727 39.5543L43.0682 43.8225L42.5454 44.4225C41.9091 45.1384 41.2954 45.8543 40.6591 46.5453C40.2954 46.9612 40.2273 47.3066 40.4773 47.793C40.7727 48.368 41 48.993 41.2273 49.6839C41.3864 50.1225 41.6364 50.3066 42.0682 50.3316C43 50.3771 43.9545 50.4225 44.9091 50.4907L45.8182 50.5362C45.8182 50.6543 45.8409 50.7453 45.8409 50.8612V52.5225C45.8409 53.768 45.8409 55.0157 45.8636 56.2612C45.8409 56.5839 45.8182 56.6066 45.4318 56.6066V56.6066ZM54.7954 15.2998H3.68181H3.11363H2.22726V17.9316H3.11363H3.68181H54.7954H55.3636H56.25V15.2998H55.3636H54.7954ZM54.7954 83.6316H3.68181H3.11363H2.22726V86.2612H3.11363H3.68181H54.7954H55.3636H56.25V83.6316H55.3636H54.7954Z" fill="#505772"/>
</svg>
