<svg width="79" height="94" viewBox="0 0 79 94" fill="none" xmlns="http://www.w3.org/2000/svg">
<path d="M14.4986 55.2489C19.6107 52.4289 24.7228 49.6319 29.81 46.8119C30.1364 46.6239 30.5085 46.1309 30.5085 45.7779C30.4607 41.5019 31.995 38.0239 35.34 35.3669C35.4107 35.3209 35.4336 35.2269 35.55 35.0389C32.8557 30.2909 30.1135 25.4739 27.4421 20.8198C25.9078 20.8198 24.4671 21.0078 23.1179 20.7989C18.6814 20.0929 16.5442 15.7689 16.7064 12.7609C16.9392 8.71891 20.4943 5.26388 24.3985 5.28686C27.5107 5.30984 29.9742 6.76788 31.415 9.61086C32.8307 12.3849 32.7392 15.1819 30.7871 17.6949C30.1135 18.5638 30.205 19.1049 30.7164 19.9738C33.1342 24.1098 35.5042 28.2939 37.8264 32.5009C38.2692 33.2989 38.6393 33.6038 39.6143 33.3239C43.1485 32.3589 46.4 33.3239 49.585 35.2729C54.325 29.4699 59.1107 23.6419 63.6407 18.0709C62.5035 16.2159 61.1314 14.6409 60.4807 12.8069C58.8092 8.10686 61.8736 2.77184 66.755 1.43286C71.6114 0.0938822 76.8171 3.05384 77.7921 7.9669C79.3243 15.6979 73.0979 19.9989 67.755 19.2929C67.3121 19.2469 66.6386 19.6229 66.3142 19.9989C63.9193 22.8419 61.5742 25.7559 59.2042 28.6469C56.9257 31.4418 54.6721 34.2159 52.3957 37.0129C52.2335 37.2239 52.0693 37.4349 51.8614 37.7398C54.3707 40.9358 54.72 44.5559 53.9757 48.4099C53.905 48.7378 54.1628 49.3018 54.4642 49.4898C56.6014 50.8539 58.7614 52.1218 60.9235 53.4629C61.5971 53.8849 62.1771 53.8849 62.9443 53.5339C67.2664 51.5119 71.68 53.0869 73.5864 57.1999C75.4679 61.3359 73.47 66.2448 69.2414 67.7969C64.8735 69.4178 60.3435 67.0449 59.04 62.5099C58.5535 60.7719 58.7386 59.1489 59.2957 57.4798C59.4121 57.1289 59.3435 56.3999 59.1086 56.2349C56.88 54.8019 54.6035 53.4399 52.2564 52.0049C50.375 54.8019 47.795 56.3289 44.6807 57.0349C44.45 57.0809 44.1464 57.6219 44.1464 57.9269C44.03 63.2138 43.9385 68.4778 43.9157 73.7669C43.9157 74.1429 44.3793 74.7529 44.7514 74.8949C48.4228 76.2798 50.7221 78.7719 51.2107 82.7679C51.9071 88.5709 47.0985 92.6839 42.7764 92.8949C36.0614 93.2249 32.205 86.8789 33.2029 82.2499C33.8536 79.1709 35.5042 76.8459 38.3607 75.4589C39.0592 75.1289 39.8014 74.8949 40.87 74.4938C40.87 69.0418 40.87 63.4729 40.8492 57.9289C40.8492 57.6219 40.5228 57.1769 40.2671 57.0579C35.1321 55.1069 34.2028 54.3549 31.39 49.7718C30.625 50.1729 29.81 50.5719 29.02 51.0189C25.1178 53.1809 21.2593 55.3659 17.3342 57.4798C16.4507 57.9519 16.3364 58.4909 16.4964 59.3598C17.2656 64.0849 13.7314 68.5029 8.87501 68.551C4.18283 68.6199 0.88354 64.2729 1.06857 60.4878C1.20786 57.4589 2.64857 55.0358 5.34496 53.6509C8.13075 52.2158 10.9207 52.3809 13.5007 54.3549C13.6857 54.4969 13.8479 54.6598 14.035 54.8019C14.1036 54.9189 14.2657 55.0609 14.4986 55.2489V55.2489ZM51.0714 45.0718C51.0485 40.2549 47.19 36.1899 42.66 36.2358C37.7807 36.2839 33.7371 40.2549 33.7371 45.0509C33.7164 49.9139 37.7807 53.9329 42.7307 53.9559C47.2607 53.9329 51.0943 49.8679 51.0714 45.0739V45.0718ZM42.2421 77.8319C38.92 77.8799 36.2007 80.6059 36.2693 83.8249C36.34 87.0919 39.1507 89.7929 42.3814 89.6989C45.4021 89.6049 47.98 86.8789 47.98 83.7539C47.98 80.5809 45.2857 77.7838 42.2421 77.8319V77.8319ZM69.1707 4.3949C65.9192 4.41788 63.385 6.9329 63.3393 10.1519C63.3164 13.4189 65.9421 16.0509 69.1957 16.0279C72.2392 16.0029 74.84 13.2769 74.8171 10.1749C74.7963 6.9329 72.285 4.36984 69.1707 4.3949V4.3949ZM71.0542 60.4189C71.0542 57.9979 68.8464 55.7899 66.4535 55.8359C64.1043 55.8839 61.9921 58.0209 61.9692 60.3959C61.9443 62.9339 63.99 65.0249 66.4764 65.0249C68.915 65.0249 71.0542 62.8629 71.0542 60.4189ZM8.92283 65.1649C11.1993 65.1419 13.245 63.0258 13.2886 60.6529C13.3136 58.1378 11.3386 56.0469 8.92283 56.0698C6.31999 56.0949 4.20362 58.1859 4.25143 60.7009C4.29925 63.2389 6.34285 65.1878 8.92283 65.1649ZM24.49 17.6719C27.0471 17.7178 29.0221 15.7438 29.0221 13.1369C29.0221 10.6699 27.0221 8.6249 24.5835 8.57686C22.0264 8.55388 20.0306 10.5279 20.0306 13.1118C20.0306 15.5349 22.0742 17.6238 24.49 17.6719Z" fill="#505772"/>
</svg>
