<svg width="200" height="200" viewBox="0 0 200 200" fill="none" xmlns="http://www.w3.org/2000/svg">
<path d="M108.825 149.746L92.174 149.746C89.1365 149.746 86.674 147.284 86.674 144.246L86.674 141.389L114.325 141.389L114.325 144.246C114.325 147.284 111.862 149.746 108.825 149.746Z" stroke="#505772" stroke-width="5"/>
<path d="M28.3563 37.5H169.674C172.711 37.5 175.174 39.9624 175.174 43V139.357H22.8563V43C22.8563 39.9624 25.3187 37.5 28.3563 37.5Z" stroke="#505772" stroke-width="5"/>
<path d="M194 140.373H7C7 157.523 22.2431 162.36 29.8646 162.635H172.769C187.141 162.635 192.911 147.794 194 140.373Z" stroke="#505772" stroke-width="5"/>
<path d="M65.4357 80.7859V109.641C68.2144 113.916 78.3886 122.338 96.8562 121.825C115.324 121.312 125.926 114.771 128.918 111.565V80.7859" stroke="#505772" stroke-width="5"/>
<path d="M94.583 91.2883L54.4417 75.0148L94.583 58.7413C95.262 58.4661 96.3148 58.2778 97.495 58.2778C98.6752 58.2778 99.728 58.4661 100.407 58.7413L140.548 75.0148L100.407 91.2883C99.728 91.5636 98.6752 91.7519 97.495 91.7519C96.3148 91.7519 95.2619 91.5636 94.583 91.2883Z" stroke="#505772" stroke-width="5"/>
<path d="M142.38 75.6559V88.4807" stroke="#505772" stroke-width="5"/>
<path d="M146.292 95.5345C146.292 97.5525 145.704 99.2752 144.88 100.429C144.052 101.588 143.133 102.012 142.38 102.012C141.626 102.012 140.708 101.588 139.88 100.429C139.055 99.2752 138.467 97.5525 138.467 95.5345C138.467 93.5165 139.055 91.7939 139.88 90.6397C140.708 89.4807 141.626 89.0572 142.38 89.0572C143.133 89.0572 144.052 89.4807 144.88 90.6397C145.704 91.7939 146.292 93.5165 146.292 95.5345Z" stroke="#505772" stroke-width="5"/>
</svg>
