<svg width="146" height="124" viewBox="0 0 146 124" fill="none" xmlns="http://www.w3.org/2000/svg">
<path d="M111.812 55.0869H139.994C142.44 55.0869 144.44 57.0885 144.44 59.5334V71.0082C130.333 72.3881 123.413 94.2145 144.44 99.3188V111.328C144.44 113.773 142.439 115.774 139.994 115.774H132.94M99.8746 115.774H17.8455C15.4022 115.774 13.3994 113.774 13.3994 111.328V59.5334C13.3994 57.0877 15.4002 55.0869 17.8455 55.0869H30.9286M54.1195 55.0869H99.699" stroke="#505772" stroke-width="3" stroke-linecap="round" stroke-linejoin="round"/>
<path d="M33.6152 77.3164H58.5203M25.3994 77.3164H28.4541H25.3994Z" stroke="#505772" stroke-width="3" stroke-linecap="round" stroke-linejoin="round"/>
<path d="M49.7415 87.4307H58.5202M25.3994 87.4307H44.3533H25.3994Z" stroke="#505772" stroke-width="3" stroke-linecap="round" stroke-linejoin="round"/>
<path d="M25.3994 97.5459H45.6282" stroke="#505772" stroke-width="3" stroke-linecap="round" stroke-linejoin="round"/>
<path d="M122.487 71.0576V97.9413" stroke="#505772" stroke-width="3" stroke-linecap="round" stroke-linejoin="round"/>
<path d="M115.591 91.3954V97.9411M115.591 71.0576V85.6206V71.0576Z" stroke="#505772" stroke-width="3" stroke-linecap="round" stroke-linejoin="round"/>
<path fill-rule="evenodd" clip-rule="evenodd" d="M38.0071 45.7715C39.3984 50.89 42.4023 54.114 47.3232 55.0872C42.2047 56.4786 38.9803 59.4825 38.0071 64.4034C36.6157 59.2849 33.6118 56.0609 28.6909 55.0872C33.8094 53.6963 37.0338 50.6924 38.0071 45.7715Z" stroke="#505772" stroke-width="3" stroke-linecap="square" stroke-linejoin="round"/>
<path d="M105.73 54.5547V116.073" stroke="#505772" stroke-width="3" stroke-linecap="round" stroke-linejoin="round" stroke-dasharray="5.56 5.56"/>
<path fill-rule="evenodd" clip-rule="evenodd" d="M120.475 109.331C121.444 112.897 123.537 115.144 126.965 115.822C123.399 116.791 121.153 118.884 120.475 122.313C119.506 118.746 117.412 116.5 113.984 115.822C117.55 114.852 119.796 112.759 120.475 109.331V109.331Z" stroke="#505772" stroke-width="3" stroke-linecap="square" stroke-linejoin="round"/>
<path d="M90.8461 97.0343C93.4137 97.0343 95.4951 94.9529 95.4951 92.3853C95.4951 89.8178 93.4137 87.7363 90.8461 87.7363C88.2785 87.7363 86.1971 89.8178 86.1971 92.3853C86.1971 94.9529 88.2785 97.0343 90.8461 97.0343Z" stroke="#505772" stroke-width="3"/>
<path d="M75.6871 85.0275C78.2547 85.0275 80.3361 82.9461 80.3361 80.3785C80.3361 77.8109 78.2547 75.7295 75.6871 75.7295C73.1195 75.7295 71.0381 77.8109 71.0381 80.3785C71.0381 82.9461 73.1195 85.0275 75.6871 85.0275Z" stroke="#505772" stroke-width="3"/>
<path d="M89.7081 75.9639L75.7841 98.8973" stroke="#505772" stroke-width="3" stroke-linecap="round" stroke-linejoin="round"/>
<path d="M93.684 10.8749L120.404 1.91624C122.723 1.13868 125.256 2.4001 126.033 4.71821L129.681 15.5977C116.745 21.391 117.121 44.2847 138.681 42.4398L141.257 50.1221L142.499 53.826M13.0466 79.9477L1.7903 46.3757C1.01274 44.0572 2.27377 41.5242 4.59227 40.747L16.9966 36.5879M38.9848 29.2155L82.1998 14.7257" stroke="#505772" stroke-width="3" stroke-linecap="round" stroke-linejoin="round"/>
<path d="M108.883 22.623L117.429 48.1116" stroke="#505772" stroke-width="3" stroke-linecap="round" stroke-linejoin="round"/>
<path d="M108.809 44.0981L110.89 50.304M102.344 24.8154L106.974 38.6229L102.344 24.8154Z" stroke="#505772" stroke-width="3" stroke-linecap="round" stroke-linejoin="round"/>
<path fill-rule="evenodd" clip-rule="evenodd" d="M20.7461 25.5049C23.6922 29.9155 27.5654 32.0175 32.5406 31.3761C28.13 34.3222 26.0276 38.1954 26.6694 43.1702C23.7233 38.7596 19.8501 36.6576 14.8749 37.299C19.2855 34.3529 21.3879 30.4797 20.7461 25.5049Z" stroke="#505772" stroke-width="3" stroke-linecap="square" stroke-linejoin="round"/>
<path d="M87.534 12.1152L100.68 51.3223" stroke="#505772" stroke-width="3" stroke-linecap="round" stroke-linejoin="round" stroke-dasharray="5.56 5.56"/>
<path fill-rule="evenodd" clip-rule="evenodd" d="M119.142 59.5518C121.195 62.625 123.893 64.0896 127.359 63.6427C124.287 65.6955 122.822 68.3939 123.269 71.86C121.216 68.7872 118.518 67.3222 115.051 67.7695C118.124 65.7167 119.589 63.0183 119.142 59.5518V59.5518Z" stroke="#505772" stroke-width="3" stroke-linecap="square" stroke-linejoin="round"/>
<path d="M86.2379 53.4969C88.6723 52.6807 89.9841 50.0456 89.1679 47.6112C88.3516 45.1768 85.7165 43.8651 83.2821 44.6813C80.8477 45.4975 79.536 48.1326 80.3522 50.567C81.1684 53.0014 83.8036 54.3132 86.2379 53.4969Z" stroke="#505772" stroke-width="3"/>
<path d="M68.0487 46.9315C70.4831 46.1153 71.7949 43.4801 70.9787 41.0458C70.1624 38.6114 67.5273 37.2996 65.0929 38.1158C62.6585 38.9321 61.3468 41.5672 62.163 44.0016C62.9792 46.436 65.6143 47.7477 68.0487 46.9315Z" stroke="#505772" stroke-width="3"/>
<path d="M78.461 33.8809L74.669 50.6722L73.953 53.8404" stroke="#505772" stroke-width="3" stroke-linecap="round" stroke-linejoin="round"/>
</svg>
