<svg width="98" height="75" viewBox="0 0 98 75" fill="none" xmlns="http://www.w3.org/2000/svg">
<path d="M81.7142 25.3997C81.3153 13.4712 75.9085 4.61102 63.7364 1.2292C50.8636 -2.35717 40.7284 1.99624 33.8216 13.1559C33.7295 13.1116 33.6119 13.0656 33.5182 12.9991C24.7176 8.44283 15.2386 12.9752 13.7165 22.4661C13.5989 23.2553 13.2477 23.5945 12.4994 23.8639C6.43636 26.1428 2.3642 30.2014 0.702273 36.3122C0.397159 37.4167 0.233523 38.5673 0 39.694V43.6178C0.0698864 43.8207 0.139773 44.0235 0.1875 44.2485C0.5625 46.9758 1.52216 49.5258 3.13636 51.7792C7.5375 57.9122 13.7165 60.3258 21.3 59.8519V56.1531C20.3625 56.1531 19.4761 56.2451 18.6324 56.1309C16.9705 55.9059 15.2608 55.7712 13.7165 55.2531C5.78182 52.5019 1.52216 44.0457 5.21932 35.2076C7.11648 30.6514 10.9773 28.1491 15.7057 26.7514C17.5091 26.2332 17.5091 26.2332 17.5091 24.4502C17.5091 21.4519 18.5148 18.8593 20.9489 16.9434C24.5062 14.1241 29.9369 14.4173 33.4023 17.5519C34.1045 18.2048 34.8068 18.8593 35.5551 19.5803C39.2301 6.23374 51.9409 2.33034 60.9051 4.24795C65.7034 5.26215 69.7517 7.51727 72.8881 11.1923C77.3369 16.4014 78.4364 22.4218 77.3369 29.1411C78.6477 29.1411 79.817 29.0048 80.942 29.1633C87.6358 30.0889 93.0903 36.1315 93.2761 42.7383C93.4875 50.2247 87.542 56.1309 79.7472 56.1769H75.8608V59.8519C89.0165 61.1593 95.5704 53.4701 96.9051 46.1423C98.567 36.9889 91.9193 27.0445 81.7142 25.3979V25.3997Z" fill="#505772"/>
<path d="M40.909 33.6051L38.3215 31.6671L28.9772 45.4688V63.3324C28.9994 63.3324 29.0437 63.3102 29.0641 63.3102C29.5482 63.1722 30.0528 63.0801 30.5556 63.0801C31.084 63.0801 31.5647 63.1722 32.0471 63.3102C32.0693 63.3102 32.1153 63.3341 32.1357 63.3341V46.5307L40.909 33.6051ZM31.5119 63.3341C30.9852 63.3341 30.5028 63.4193 30.0204 63.5472C29.9982 63.5472 29.9556 63.5693 29.9335 63.5693C27.4107 64.2563 25.5681 66.4858 25.5681 69.1671C25.5681 72.3835 28.2443 75 31.534 75C34.8238 75 37.4999 72.3835 37.4999 69.1671C37.4999 66.4858 35.6352 64.2563 33.1363 63.5693C33.1124 63.5693 33.0681 63.5472 33.0477 63.5472C32.521 63.4193 32.0386 63.3341 31.5136 63.3341H31.5119ZM34.4948 69.1671C34.4948 70.7744 33.1568 72.0818 31.5119 72.0818C29.867 72.0818 28.5289 70.7744 28.5289 69.1671C28.5289 67.558 29.867 66.2506 31.5119 66.2506C33.1568 66.2506 34.4948 67.558 34.4948 69.1653V69.1671ZM66.6033 63.0801C67.1283 63.0801 67.6107 63.1722 68.0948 63.3102C68.1153 63.3102 68.1596 63.3341 68.1818 63.3341V45.4705L58.8374 31.6671L56.2499 33.6051L65.0011 46.5307V63.3341C65.0232 63.3341 65.0676 63.3102 65.0897 63.3102C65.5943 63.1722 66.0988 63.0801 66.6033 63.0801Z" fill="#505772"/>
<path d="M68.8874 63.5693C68.8652 63.5693 68.8209 63.5472 68.7988 63.5472C68.3164 63.4193 67.8118 63.3341 67.3073 63.3341C66.8027 63.3341 66.2982 63.4193 65.8158 63.5472C65.7936 63.5472 65.751 63.5693 65.7289 63.5693C63.2061 64.2563 61.3635 66.4858 61.3635 69.1671C61.3635 72.3835 64.0397 75 67.3294 75C70.6192 75 73.2953 72.3835 73.2953 69.1671C73.251 66.4858 71.4084 64.2563 68.8874 63.5693ZM67.2851 72.0835C65.6402 72.0835 64.3022 70.7744 64.3022 69.1671C64.3022 67.558 65.6402 66.2506 67.2851 66.2506C68.93 66.2506 70.2681 67.558 70.2681 69.1654C70.2902 70.7744 68.9522 72.0835 67.2851 72.0835Z" fill="#505772"/>
</svg>
