<svg width="183" height="100" viewBox="0 0 183 100" fill="none" xmlns="http://www.w3.org/2000/svg">
<rect width="183" height="100" fill="white"/>
<path d="M63.5703 94.6506C107.697 94.6506 123.743 94.6506 123.743 94.6506" stroke="#505772" stroke-width="3" stroke-linecap="round" stroke-linejoin="round"/>
<path d="M82.5548 3C86.0921 3 88.9596 5.86593 88.9596 9.40139C88.9596 12.9368 86.0921 15.8028 82.5548 15.8028C79.0175 15.8028 76.15 12.9368 76.15 9.40139C76.15 5.86596 79.0174 3 82.5548 3V3Z" stroke="#505772" stroke-width="3"/>
<path d="M92.9936 9.60175L140.215 9.73839C145.829 9.75473 150.422 14.3307 150.422 19.9403V36.5005L174.051 24.2273V65.0086L149.79 51.6955M49.0366 24.1417V19.9404C49.0366 14.3294 53.6301 9.79759 59.244 9.73842L72.2319 9.60177" stroke="#505772" stroke-width="3" stroke-linecap="round" stroke-linejoin="round"/>
<path d="M37.5233 49.8516V30.72H142.423V89.5621H56.5702" stroke="#505772" stroke-width="3"/>
<path fill-rule="evenodd" clip-rule="evenodd" d="M80.6793 52.5075L80.6417 68.4704C80.6544 71.3243 82.7013 69.9915 83.8499 69.3815L98.3845 61.6601C98.9563 61.3531 99.3926 60.6176 99.2981 59.9095C99.1849 59.0632 98.4355 58.6127 97.7049 58.2227L83.4169 50.5968C82.8919 50.3166 82.4788 49.9963 82.002 50.0185C80.7296 50.0773 80.6816 51.4536 80.6793 52.5075L80.6793 52.5075Z" fill="#FEFEFE" stroke="#505772" stroke-width="3"/>
<path fill-rule="evenodd" clip-rule="evenodd" d="M29.7433 55.2767H49.2351C50.8459 55.2767 52.1634 56.5934 52.1634 58.2034V94.8995C52.1634 96.5095 50.8459 97.8262 49.2351 97.8262H29.7433C28.1325 97.8262 26.815 96.5095 26.815 94.8995V58.2034C26.815 56.5934 28.1325 55.2767 29.7433 55.2767V55.2767Z" stroke="#505772" stroke-width="3"/>
<path fill-rule="evenodd" clip-rule="evenodd" d="M35.3349 70.9452C36.4639 70.9452 37.3791 71.8599 37.3791 72.9883C37.3791 74.1168 36.4639 75.0315 35.3349 75.0315C34.2058 75.0315 33.2906 74.1168 33.2906 72.9883C33.2906 71.8599 34.2058 70.9452 35.3349 70.9452Z" fill="#505772"/>
<path fill-rule="evenodd" clip-rule="evenodd" d="M35.3349 79.2487C36.4639 79.2487 37.3791 80.1633 37.3791 81.2918C37.3791 82.4203 36.4639 83.3349 35.3349 83.3349C34.2058 83.3349 33.2906 82.4203 33.2906 81.2918C33.2906 80.1633 34.2058 79.2487 35.3349 79.2487Z" fill="#505772"/>
<path fill-rule="evenodd" clip-rule="evenodd" d="M35.3349 87.552C36.4639 87.552 37.3791 88.4667 37.3791 89.5951C37.3791 90.7236 36.4639 91.6383 35.3349 91.6383C34.2058 91.6383 33.2906 90.7236 33.2906 89.5951C33.2906 88.4667 34.2058 87.552 35.3349 87.552Z" fill="#505772"/>
<path fill-rule="evenodd" clip-rule="evenodd" d="M43.6432 70.9452C44.7722 70.9452 45.6874 71.8599 45.6874 72.9883C45.6874 74.1168 44.7722 75.0315 43.6432 75.0315C42.5141 75.0315 41.5989 74.1168 41.5989 72.9883C41.5989 71.8599 42.5141 70.9452 43.6432 70.9452Z" fill="#505772"/>
<path fill-rule="evenodd" clip-rule="evenodd" d="M43.6432 79.2487C44.7722 79.2487 45.6874 80.1633 45.6874 81.2918C45.6874 82.4203 44.7722 83.3349 43.6432 83.3349C42.5141 83.3349 41.5989 82.4203 41.5989 81.2918C41.5989 80.1633 42.5141 79.2487 43.6432 79.2487Z" fill="#505772"/>
<path fill-rule="evenodd" clip-rule="evenodd" d="M43.6432 87.552C44.7722 87.552 45.6874 88.4667 45.6874 89.5951C45.6874 90.7236 44.7722 91.6383 43.6432 91.6383C42.5141 91.6383 41.5989 90.7236 41.5989 89.5951C41.5989 88.4667 42.5141 87.552 43.6432 87.552Z" fill="#505772"/>
<path fill-rule="evenodd" clip-rule="evenodd" d="M39.4892 61.4257C41.0699 61.4257 42.3511 62.7061 42.3511 64.2861C42.3511 65.866 41.0699 67.1465 39.4892 67.1465C37.9084 67.1465 36.6273 65.866 36.6273 64.2861C36.6273 62.7061 37.9084 61.4257 39.4892 61.4257Z" fill="#505772"/>
</svg>
