<svg width="100" height="100" viewBox="0 0 100 100" fill="none" xmlns="http://www.w3.org/2000/svg">
<path d="M37.18 18.0068V32.8813C37.18 32.8813 42.8993 29.1703 51.0535 28.9059C59.2077 28.6415 65.2101 33.8729 65.2101 33.8729V18.0068" stroke="#505772" stroke-width="3"/>
<path d="M50.0777 22.6758L33.2031 15.6269L50.0777 8.57802C50.3105 8.4808 50.714 8.40055 51.1951 8.40055C51.6761 8.40055 52.0797 8.4808 52.3124 8.57802L69.187 15.6269L52.3124 22.6758C52.0797 22.773 51.6761 22.8532 51.1951 22.8532C50.714 22.8532 50.3105 22.773 50.0777 22.6758Z" stroke="#505772" stroke-width="3"/>
<path d="M69.9699 16.9491L69.9699 26.9976" stroke="#505772" stroke-width="3" stroke-linecap="round"/>
<path d="M27.6604 20.1223H24.852C18.2246 20.1223 12.852 25.4949 12.852 32.1223V59.9515C12.852 66.5789 18.2246 71.9515 24.852 71.9515H75.4226C82.05 71.9515 87.4226 66.5789 87.4226 59.9515V32.1223C87.4226 25.4949 82.05 20.1223 75.4226 20.1223H74.2009" stroke="#505772" stroke-width="3" stroke-linecap="round"/>
<rect x="3.5" y="77.5" width="93" height="7" rx="2.5" stroke="#505772" stroke-width="3"/>
<path d="M32.9491 44.4503C38.6785 38.8629 53.575 31.0406 67.3256 44.4503" stroke="#505772" stroke-width="3" stroke-linecap="round"/>
<path d="M38.7666 49.2101C42.645 45.6182 52.7288 40.5896 62.0369 49.2101" stroke="#505772" stroke-width="3" stroke-linecap="round"/>
<path d="M42.4687 55.0277C45.0249 52.6331 51.671 49.2807 57.8059 55.0277" stroke="#505772" stroke-width="3" stroke-linecap="round"/>
<circle cx="50.1373" cy="61.1097" r="2.46652" stroke="#505772" stroke-width="3"/>
</svg>
