<svg width="80" height="80" viewBox="0 0 80 80" fill="none" xmlns="http://www.w3.org/2000/svg">
<path d="M69.7074 24.7727H29.9729V28.3727H69.4929L71.5729 26.5327L69.7074 24.7727Z" fill="#505772"/>
<path d="M21.5201 35.3073V31.7327H4.08005V4.13271H58.8001V9.78726H62.4001V4.13271V0.532715H58.8001H4.08005H0.507324V4.13271V31.7327V35.3073H4.08005H21.5201ZM69.7073 24.7727L71.5728 26.5327L69.4928 28.3727L62.2673 34.7473L64.6128 37.3873L76.7728 26.6127L64.6673 15.12L62.2401 17.68L69.7073 24.7727ZM10.2928 55.2273H50.0273V51.6273H10.5073L8.42733 53.4673L10.2928 55.2273Z" fill="#505772"/>
<path d="M75.92 44.6927H58.48V48.2673H75.92V75.8673H21.2V70.2127H17.6V75.8673V79.4673H21.2H75.92H79.4928V75.8673V48.2673V44.6927H75.92ZM10.2927 55.2273L8.4273 53.4673L10.5073 51.6273L17.7327 45.2527L15.3873 42.6127L3.22729 53.3873L15.3327 64.88L17.76 62.32L10.2927 55.2273Z" fill="#505772"/>
</svg>
