<svg width="115" height="100" viewBox="0 0 115 100" fill="none" xmlns="http://www.w3.org/2000/svg">
<path d="M113.435 56.5946C110.615 52.4384 105.297 51.3354 100.894 54.1785C98.5689 55.6697 88.9527 62.3152 83.1034 66.3664C82.6801 62.918 80.4259 60.0041 76.8697 58.8303C66.4412 55.3866 55.9074 52.1529 45.5178 48.5995C39.6684 46.5739 34.4897 47.2476 29.4871 50.9449C26.0361 53.5025 22.4432 55.8479 18.8846 58.1932L21.244 61.8173C25.8942 58.6887 30.4048 55.5989 34.984 52.7215C37.2038 51.3354 39.7737 51.3696 42.3459 52.2237C53.1955 55.7771 64.0451 59.2573 74.9313 62.813C77.9613 63.8064 79.4396 66.2225 78.6661 68.819C77.8903 71.4452 75.46 72.5847 72.2882 71.7649C67.2879 70.4518 62.3196 69.1022 57.3537 67.7868C55.7678 67.3597 53.9713 66.7569 53.4084 69.0314C52.8797 71.1278 54.6052 71.5525 56.1202 71.943C61.0862 73.295 66.0521 74.6811 71.057 75.9235C72.4301 76.2797 73.9107 76.5286 75.2838 76.3505C77.856 76.0308 79.9682 74.7519 81.3779 72.9022C84.266 70.9154 99.7657 60.1822 102.656 58.264C105.507 56.3799 108.185 56.6997 109.805 59.045C111.499 61.4611 110.757 64.1604 107.764 66.1882C97.301 73.2584 86.8016 80.2944 76.3754 87.4011C74.4737 88.7165 72.6406 88.9996 70.4231 88.3602C61.8276 85.8025 53.1612 83.4572 44.6367 80.8265C40.7967 79.6549 37.1305 78.8009 33.6086 80.7579L36.0756 84.4871C37.4486 83.8112 38.9293 83.7061 40.6914 84.2382C50.4128 87.1522 60.1708 89.8514 69.9288 92.6946C72.8877 93.5487 75.5996 93.229 78.1375 91.4865C89.0214 84.1332 99.9419 76.8483 110.828 69.4561C115.197 66.4006 116.252 60.8239 113.435 56.5946V56.5946Z" fill="#505772"/>
<path d="M22.5508 62.9385L20.1868 59.3738L18.3537 56.6105L0.576965 68.2183L21.704 100L39.4808 88.3921L37.3296 85.1745L34.8604 81.5046L22.5508 62.9385ZM22.8322 94.5808L6.04639 69.3008L17.2278 61.9931L34.016 87.2731L22.8345 94.5808H22.8322Z" fill="#505772"/>
<rect x="63.1539" y="2" width="26.7692" height="26.7692" rx="13.3846" stroke="#505772" stroke-width="4"/>
<path d="M51.5385 50.5946C55.8546 42.2455 64.5685 36.5385 74.6154 36.5385H78.4616C89.2188 36.5385 98.4479 43.0809 102.387 52.4038" stroke="#505772" stroke-width="4" stroke-linecap="round"/>
</svg>
