<svg width="119" height="104" viewBox="0 0 119 104" fill="none" xmlns="http://www.w3.org/2000/svg">
<path d="M117.372 58.8583C114.44 54.5358 108.909 53.3887 104.33 56.3455C101.912 57.8964 91.9109 64.8077 85.8276 69.0209C85.3873 65.4347 83.043 62.4042 79.3445 61.1834C68.4988 57.6019 57.5437 54.2389 46.7385 50.5434C40.6552 48.4368 35.2692 49.1374 30.0665 52.9825C26.4775 55.6425 22.7409 58.0817 19.04 60.5208L21.4938 64.2899C26.3299 61.0362 31.0209 57.8228 35.7833 54.8303C38.0919 53.3887 40.7647 53.4243 43.4398 54.3125C54.7234 58.008 66.0069 61.6275 77.3286 65.3254C80.4797 66.3585 82.0172 68.8713 81.2128 71.5717C80.4059 74.3029 77.8784 75.488 74.5797 74.6354C69.3794 73.2698 64.2124 71.8662 59.0478 70.4982C57.3985 70.054 55.5302 69.427 54.9447 71.7925C54.3949 73.9728 56.1894 74.4145 57.765 74.8207C62.9296 76.2267 68.0942 77.6683 73.2993 78.9603C74.7273 79.3308 76.2671 79.5897 77.6951 79.4044C80.3702 79.0719 82.567 77.7419 84.033 75.8182C87.0366 73.7519 103.156 62.5894 106.162 60.5944C109.128 58.635 111.912 58.9675 113.597 61.4067C115.359 63.9194 114.587 66.7267 111.474 68.8357C100.593 76.1887 89.6737 83.506 78.8304 90.897C76.8526 92.265 74.9462 92.5595 72.64 91.8945C63.7007 89.2345 54.6877 86.7954 45.8222 84.0594C41.8285 82.841 38.0157 81.9528 34.3529 83.9882L36.9186 87.8665C38.3466 87.1635 39.8864 87.0543 41.719 87.6077C51.8293 90.6382 61.9776 93.4454 72.1259 96.4023C75.2033 97.2905 78.0235 96.958 80.663 95.1459C91.9822 87.4984 103.34 79.9222 114.661 72.2343C119.205 69.0565 120.302 63.2568 117.372 58.8583V58.8583Z" fill="#505772"/>
<path d="M22.8528 65.4561L20.3942 61.7487L18.4878 58.875L0 70.9471L21.9722 104L40.46 91.9279L38.2228 88.5815L35.6548 84.7649L22.8528 65.4561ZM23.1455 98.3641L5.6882 72.0729L17.3169 64.4729L34.7766 90.7641L23.1479 98.3641H23.1455Z" fill="#505772"/>
<rect x="65" y="2" width="28" height="28" rx="14" stroke="#505772" stroke-width="4"/>
<path d="M53 52.6184C57.4887 43.9353 66.5512 38 77 38H81C92.1875 38 101.786 44.8042 105.882 54.5" stroke="#505772" stroke-width="4" stroke-linecap="round"/>
</svg>
