<svg width="100" height="100" viewBox="0 0 100 100" fill="none" xmlns="http://www.w3.org/2000/svg">
<path d="M71.6272 75.6288C66.2982 78.8023 68.2141 77.6962 64.5902 79.8367C61.1317 81.8793 56.669 80.7333 54.6264 77.2748C52.5838 73.8161 53.7297 69.3535 57.1883 67.3108L64.2046 63.1718L64.1964 63.1581L64.2073 63.1512L64.1964 63.1319C64.3603 63.0341 64.5269 62.9432 64.6963 62.8606C68.9276 60.34 73.0996 57.8552 75.8874 56.2437C77.8515 55.1073 79.3886 53.8732 80.3941 52.6061C80.996 51.8471 81.3582 51.1392 81.4286 50.5234C81.4836 50.0428 81.3432 49.4794 80.9795 48.8486C80.4961 48.0111 79.6945 47.109 78.5457 46.1517L75.667 44.4781C72.1933 42.4658 71.0074 38.0156 73.0197 34.5419C75.0321 31.0681 79.4823 29.8821 82.956 31.8945L85.9325 33.6245C86.3911 33.8504 86.832 34.1272 87.2479 34.4578L87.2396 34.4688C90.0439 36.6988 92.1334 39.0858 93.5631 41.5595C95.5796 45.0512 96.2972 48.6351 95.8908 52.1735C95.4997 55.577 94.0727 58.7753 91.7822 61.6609C89.6445 64.3523 86.7176 66.7806 83.1764 68.8274C79.8046 70.7764 75.9714 73.0573 72.1355 75.3437C71.9812 75.4526 71.8214 75.5572 71.6561 75.655" stroke="#505772" stroke-width="3"/>
<path d="M57.2817 31.9186C60.037 33.5003 63.5567 32.5491 65.1393 29.7946C66.7225 27.039 65.7715 23.518 63.0164 21.9351L63.0143 21.9339L37.2219 7.05831C37.2219 7.05829 37.2218 7.05826 37.2218 7.05824C32.9734 4.60864 28.7695 3.5 24.9248 3.5C21.5278 3.5 18.3537 4.35177 15.5719 5.93794L57.2817 31.9186ZM57.2817 31.9186C57.2811 31.9183 57.2805 31.9179 57.2799 31.9175L31.4894 17.0431L31.4892 17.043C29.2267 15.7386 26.9884 15.0781 24.9247 15.0781C23.5821 15.0781 22.321 15.3671 21.2582 15.9738C20.2181 16.5675 19.3608 17.4495 18.7345 18.535L18.7343 18.5353C17.8314 20.101 17.3753 22.1264 17.3753 24.4746V38.9053C17.3753 42.1015 14.7826 44.6944 11.5864 44.6944C8.39015 44.6944 5.79736 42.1016 5.79736 38.9053V24.4746C5.79736 19.9788 6.88418 16.0351 8.74929 12.8032L8.7497 12.8025C10.4548 9.84415 12.7913 7.52572 15.5717 5.93802L57.2817 31.9186Z" stroke="#505772" stroke-width="3"/>
<path d="M40.6459 91.952L37.2464 93.9277C33.015 96.3869 28.8004 97.5 24.929 97.5C21.5429 97.5 18.3753 96.6509 15.5973 95.0685L15.597 95.0683C12.8096 93.4815 10.4731 91.1759 8.77462 88.2534L8.77438 88.253C6.89546 85.0225 5.79742 81.0548 5.79742 76.5089V60.0824C5.79742 56.8861 8.39017 54.2934 11.5864 54.2934C14.7826 54.2934 17.3754 56.8861 17.3754 60.0824V76.5089C17.3754 78.8556 17.8438 80.889 18.7642 82.4714L40.6459 91.952ZM40.6459 91.952H40.6303L45.4583 89.1551M40.6459 91.952L45.4583 89.1551M45.4583 89.1551L45.4601 89.1541C48.2171 87.5569 49.1583 84.0243 47.5613 81.2676C45.9642 78.5105 42.4316 77.5693 39.6749 79.1663L31.4649 83.9378L31.4643 83.9381C29.2019 85.2518 26.9743 85.9219 24.9289 85.9219C23.5939 85.9219 22.3431 85.636 21.2863 85.0341C21.2861 85.034 21.2859 85.0339 21.2857 85.0338L22.0282 83.7304L45.4583 89.1551Z" stroke="#505772" stroke-width="3"/>
</svg>
