<svg width="82" height="85" viewBox="0 0 82 85" fill="none" xmlns="http://www.w3.org/2000/svg">
<path d="M58.4461 63.9138C53.8203 66.6685 55.4834 65.7084 52.3376 67.5664C49.3354 69.3395 45.4616 68.3448 43.6884 65.3426C41.9154 62.3403 42.9101 58.4664 45.9123 56.6933L52.0028 53.1004L51.9957 53.0885L52.0052 53.0825L51.9957 53.0657C52.138 52.9809 52.2827 52.9019 52.4297 52.8302C56.1027 50.6422 59.7243 48.4852 62.1442 47.0864C63.8492 46.0999 65.1835 45.0287 66.0563 43.9287C66.5788 43.2699 66.8932 42.6553 66.9543 42.1208C67.0021 41.7036 66.8801 41.2146 66.5645 40.667C66.1448 39.94 65.449 39.1569 64.4518 38.3259L61.9529 36.8732C58.9375 35.1264 57.9081 31.2633 59.6549 28.2479C61.4017 25.2325 65.2648 24.203 68.2802 25.9499L70.8639 27.4516C71.2621 27.6477 71.6447 27.888 72.0058 28.1749L71.9986 28.1845C74.4329 30.1203 76.2467 32.1923 77.4878 34.3397C79.2382 37.3706 79.8611 40.4817 79.5083 43.5532C79.1689 46.5077 77.9301 49.2839 75.9418 51.7888C74.0862 54.1251 71.5455 56.233 68.4715 58.0097C65.5446 59.7016 62.2172 61.6815 58.8873 63.6663C58.7534 63.7608 58.6147 63.8516 58.4712 63.9365" stroke="#505772" stroke-width="3"/>
<path d="M50.8729 17.4764L50.8708 17.4752L28.4815 4.56236C28.4815 4.56233 28.4814 4.56231 28.4814 4.56228C24.8202 2.45125 21.2047 1.5 17.9058 1.5C14.991 1.5 12.2698 2.23062 9.88557 3.58993L50.8729 17.4764ZM50.8729 17.4764C53.1697 18.796 53.9626 21.7314 52.6427 24.0287C51.3235 26.3248 48.3895 27.1179 46.0925 25.7997C46.0918 25.7993 46.0911 25.7989 46.0904 25.7985L23.7031 12.8868L23.7029 12.8867M50.8729 17.4764L23.7029 12.8867M4.03635 9.47603L4.03594 9.47673C2.43544 12.2501 1.5 15.6389 1.5 19.5092V32.0359C1.5 34.7011 3.66208 36.8632 6.32726 36.8632C8.99246 36.8632 11.1545 34.7011 11.1545 32.0359V19.5092C11.1545 17.4471 11.5548 15.6521 12.3607 14.2547L12.3608 14.2544C12.9204 13.2845 13.6888 12.4925 14.6249 11.9582L4.03635 9.47603ZM4.03635 9.47603C5.49937 6.93766 7.5026 4.9507 9.88483 3.59036L4.03635 9.47603ZM23.7029 12.8867C21.7159 11.7412 19.7391 11.1546 17.9057 11.1546C16.7126 11.1546 15.5828 11.4114 14.6251 11.958L23.7029 12.8867Z" stroke="#505772" stroke-width="3"/>
<path d="M30.8182 78.2817L28.5022 79.6276C24.8562 81.7467 21.2316 82.7018 17.9094 82.7018C15.0039 82.7018 12.288 81.9734 9.90699 80.6171L9.90664 80.6169C7.51794 79.2571 5.5148 77.2809 4.05763 74.7737L4.05739 74.7733C2.44526 72.0015 1.50006 68.5921 1.50006 64.6782V50.4191C1.50006 47.7539 3.6621 45.5918 6.32732 45.5918C8.99252 45.5918 11.1546 47.7538 11.1546 50.4191V64.6782C11.1546 66.74 11.5659 68.5418 12.3869 69.9534C12.9519 70.9262 13.7194 71.7213 14.6495 72.2506C15.602 72.7931 16.7229 73.0472 17.9094 73.0472C19.7277 73.0472 21.6955 72.4517 23.6819 71.2984L23.6824 71.2981L30.809 67.1562C30.8091 67.1561 30.8093 67.156 30.8095 67.1559C33.1077 65.8249 36.0528 66.6097 37.3844 68.9082C38.7158 71.2066 37.9311 74.1521 35.6324 75.4837L35.6306 75.4848L30.8026 78.2817H30.8182Z" stroke="#505772" stroke-width="3"/>
</svg>
