<svg width="98" height="100" viewBox="0 0 98 100" fill="none" xmlns="http://www.w3.org/2000/svg">
<g clip-path="url(#clip0_34_16)">
<path d="M47.6744 0C31.6186 0 18.6047 13.5349 18.6047 30.2326C18.6047 46.9302 31.6186 60.4651 47.6744 60.4651C63.7303 60.4651 76.7442 46.9302 76.7442 30.2326C76.7279 13.5419 63.721 0.0162791 47.6744 0ZM71.9047 19.7163H60.6675C60.1326 16.1093 59.1651 12.586 57.7861 9.22791C56.9861 7.28372 55.9303 5.46046 54.6465 3.82093C62.4372 6.08837 68.7977 11.9465 71.9023 19.7163H71.9047ZM58.6791 30.2046C58.6791 32.7372 58.5303 35.2674 58.2326 37.7837H37.1163C36.521 32.7488 36.521 27.6558 37.1163 22.6209H58.2326C58.5326 25.1465 58.6814 27.6907 58.6791 30.2326V30.2023V30.2046ZM47.6744 2.9186C50.3675 2.9186 53.0907 5.67674 55.1651 10.4093C56.3977 13.3628 57.2814 16.4628 57.8023 19.6372H37.5465C38.0651 16.4628 38.9512 13.3651 40.1837 10.4093C42.2582 5.67674 44.9814 2.92093 47.6744 2.92093V2.9186ZM40.7744 3.87674C39.4861 5.5186 38.4256 7.34186 37.6186 9.28605C36.2349 12.6419 35.2698 16.1651 34.7396 19.7744H23.4419C26.5628 11.986 32.9535 6.12326 40.7721 3.87674H40.7744ZM21.414 30.2326C21.4093 27.6674 21.7582 25.1163 22.4512 22.6512H34.2768C33.7186 27.6884 33.7186 32.7767 34.2768 37.814H22.4512C21.7605 35.3488 21.4117 32.7977 21.414 30.2326V30.2326ZM23.4442 40.7209H34.6954C35.2256 44.3279 36.193 47.8512 37.5768 51.207C38.3768 53.1558 39.4396 54.9744 40.7303 56.614C32.9279 54.3698 26.5512 48.5116 23.4442 40.7349V40.7186V40.7209ZM47.6744 57.5256C44.9814 57.5256 42.2582 54.7698 40.1837 50.0372C38.9512 47.0814 38.0675 43.9814 37.5465 40.807H57.8023C57.2768 43.9558 56.393 47.0302 55.1651 49.9605C53.0907 54.7698 50.3675 57.5256 47.6744 57.5256ZM54.5884 56.5674C55.8744 54.9279 56.9326 53.107 57.7279 51.1605C59.107 47.8023 60.0744 44.2791 60.6116 40.6721H71.8465C68.7489 48.4465 62.3837 54.3093 54.5907 56.5674H54.5884ZM61.0721 37.8116C61.6303 32.7744 61.6303 27.686 61.0721 22.6488H72.8698C74.2512 27.6023 74.2512 32.8581 72.8698 37.8116H61.0698H61.0721Z" fill="#505772"/>
<path d="M27.6465 81.4744L37.8163 84.0163H38.3791L62.6535 79.9698L68.5 80.3024C68.814 80.321 69.1256 80.2349 69.3884 80.0628L89.5349 66.4396C90.9674 65.5675 92.8163 65.9163 93.8465 67.2535C94.8767 68.5907 94.7674 70.4977 93.5907 71.7024L73.6651 89.8954C72.0256 91.2512 70.0674 92.1512 67.9814 92.5117L37.1209 97.0233C36.1558 97.1745 35.1698 97.107 34.2349 96.8279L17.9512 90.5861L16.9302 93.3396L33.2116 99.6093H33.3465C34.2302 99.8721 35.1465 100.005 36.0674 100C36.5651 100.005 37.0605 99.9698 37.5488 99.8954L68.4093 95.3837C71.0419 94.9605 73.514 93.8349 75.5744 92.121L95.5139 73.9582C98.0186 71.7721 98.3977 67.9768 96.3791 65.3233C94.3581 62.6721 90.6465 62.0907 87.9372 64.0047L68.1884 77.3535L63.8977 77.114L63.7791 75.9582C63.3744 71.707 60.1535 68.2954 55.993 67.7024L39.8581 65.8233C36.3419 65.3163 32.9581 64.1163 29.8977 62.2884C25.793 59.8675 21.193 58.4465 16.4558 58.1396L16.2791 61.1465C20.5628 61.421 24.7256 62.707 28.4326 64.9047C31.8279 66.9233 35.5791 68.2535 39.4744 68.814L55.5349 70.6954C58.3721 71.1093 60.5628 73.4349 60.8465 76.3326L60.9512 77.3558L38.2163 81.0233L28.3279 78.5582L27.6465 81.4744V81.4744ZM13.9535 53.4884V97.6744H0V94.6558H10.6023V56.5233H0V53.4884H13.9535Z" fill="#505772"/>
</g>
<defs>
<clipPath id="clip0_34_16">
<rect width="97.6744" height="100" fill="white"/>
</clipPath>
</defs>
</svg>
