<svg width="75" height="75" viewBox="0 0 75 75" fill="none" xmlns="http://www.w3.org/2000/svg">
<mask id="mask0_12_252" style="mask-type:alpha" maskUnits="userSpaceOnUse" x="0" y="-1" width="75" height="77">
<path d="M0 -0.0449219H75V75.4365H0V-0.0449219Z" fill="#01408C"/>
</mask>
<g mask="url(#mask0_12_252)">
<path fill-rule="evenodd" clip-rule="evenodd" d="M11.1607 36.4595C10.7264 36.3461 10.2222 36.3583 9.77741 36.4455C8.59994 36.6793 7.72775 37.6771 7.53238 38.9103C7.31782 40.2291 7.70682 41.1083 8.96278 41.7572C12.4899 43.5783 15.8618 42.5422 18.6965 38.4899C16.1427 37.7957 13.6569 37.1049 11.1607 36.4595ZM34.3035 3.47656C30.9543 4.54587 27.6295 5.67624 24.3082 6.82928C23.9575 6.95139 23.5354 7.35957 23.4813 7.68926C23.4342 8.01197 23.7221 8.52657 24.0186 8.74462C25.7159 9.96569 27.619 10.6983 29.7053 10.9199C31.2927 11.0873 32.8557 10.9739 34.232 10.1279C36.5084 8.72194 38.7273 7.22525 40.9723 5.7652C39.3745 3.63007 36.7387 2.69682 34.3035 3.47656V3.47656ZM8.46039 29.6337C8.14989 31.1687 8.97847 32.6864 10.4943 33.2062C11.4346 33.5306 12.4132 33.7417 13.3691 34.0051C17.273 35.0744 21.17 36.1507 25.0722 37.2148C26.4102 37.5811 27.5231 36.988 27.9609 35.7041C28.3778 34.4761 27.8336 33.3492 26.5741 32.8521C22.0841 31.0833 17.5958 29.3145 13.104 27.5526C12.619 27.3642 12.1027 27.2439 11.6038 27.0904C10.067 27.1549 8.75345 28.1911 8.46039 29.6337V29.6337ZM9.85416 20.371C9.55063 21.8816 10.3775 23.3312 12.0155 23.9801C17.3114 26.0681 22.6213 28.1335 27.9313 30.1936C29.1907 30.6821 30.6002 29.8064 30.7711 28.4649C30.9072 27.3834 30.4833 26.5723 29.5326 26.0577C24.7704 23.4742 20.0082 20.8838 15.2286 18.3353C14.5518 17.9777 13.7651 17.8346 13.3098 17.6864C11.4468 17.7003 10.1751 18.7818 9.85416 20.3727V20.371ZM32.444 17.238C32.0393 16.9467 31.6206 16.6764 31.2194 16.3816C29.1227 14.829 27.1027 13.1649 24.5297 12.3921C23.8319 12.1811 23.2109 11.6944 22.5708 11.3106C21.3444 10.578 20.6223 9.51389 20.4461 8.07303C20.4199 7.83579 20.174 7.53052 19.9507 7.42411C17.7161 6.38446 15.1187 7.2741 14.0372 9.42318C12.933 11.6124 13.7407 14.1592 15.9334 15.3646C16.9451 15.9175 17.9708 16.4409 18.9913 16.9781C22.4103 18.7801 25.8206 20.5995 29.2483 22.377C31.4253 23.5039 33.7767 22.1328 33.7854 19.7709C33.8029 18.6807 33.3144 17.8556 32.4457 17.238H32.444ZM51.4561 72.0555C51.5346 72.2229 51.6218 72.3939 51.6933 72.5648C52.0893 73.5085 51.8189 74.3145 50.9868 74.6773C50.2158 75.0105 49.4919 74.6651 49.0262 73.7528C47.9952 71.7223 47.0498 69.643 45.8985 67.6875C44.7454 65.7303 43.4232 63.8725 42.0957 62.0252C41.3561 60.9908 40.4246 60.2425 38.9732 60.3035C38.0574 60.3384 37.1277 60.0471 36.2119 59.8674C35.1827 59.6633 34.3855 59.8465 33.6511 60.7257C30.0612 65.0203 26.6561 69.4371 24.0273 74.4069C23.5249 75.3506 22.7434 75.6664 21.9585 75.2669C21.1648 74.8657 20.945 74.0319 21.4386 73.0916C24.3047 67.6404 27.9836 62.7649 32.0637 58.1858C33.4313 56.6508 35.2559 56.5984 37.0945 57.0694C39.8576 57.7794 42.2823 57.2037 44.7733 55.8082C53.3051 51.0199 60.7345 44.9058 67.2986 37.6928C68.6017 36.2624 68.8616 34.4918 68.0644 32.9428C67.1259 31.1216 65.0588 30.6018 63.3895 31.7932C62.4998 32.4264 61.6433 33.1068 60.7624 33.7504C59.9042 34.3819 59.0564 34.3453 58.5121 33.6807C57.9557 32.9986 58.1005 32.1892 58.9256 31.4775C60.1606 30.4221 61.4078 29.3807 62.6429 28.3306C64.1692 27.038 64.4291 25.0616 63.283 23.5841C62.1457 22.1258 60.2513 21.9078 58.6011 23.0486C58.2679 23.2789 57.947 23.5283 57.6103 23.7533C56.6962 24.3656 55.9147 24.2906 55.3845 23.5527C54.8978 22.8689 55.053 22.0683 55.838 21.4246C57.0207 20.453 58.2173 19.4988 59.4053 18.5376C60.2653 17.8416 60.6839 16.938 60.6333 15.8338C60.5252 13.4405 57.9871 12.031 55.8572 13.2155C54.5489 13.9412 53.3121 14.7924 52.0073 15.5251C51.6026 15.7518 51.0008 15.9734 50.6292 15.8286C50.1827 15.6541 49.6349 15.1134 49.5966 14.6895C49.5512 14.2185 49.9001 13.5208 50.303 13.2242C51.5276 12.3224 52.8743 11.5792 54.1581 10.7489C55.7403 9.71973 56.527 7.9893 56.1869 6.35306C55.7996 4.49354 54.5018 3.13815 52.5708 2.93929C51.6986 2.84858 50.6188 3.00034 49.9001 3.46086C44.4227 6.94266 39.0151 10.5291 33.5866 14.0877C33.5168 14.1365 33.4714 14.222 33.4121 14.2918C38.2546 17.2136 37.5184 23.2754 32.99 25.3739C33.6982 26.7345 34 28.1649 33.4959 29.6738C33.0039 31.1391 32.0376 32.1927 30.7746 32.784C30.7746 34.0854 31.0119 35.3343 30.7275 36.4525C30.0036 39.3081 27.2422 40.7978 24.3954 40.0686C23.5511 39.8523 22.6144 39.2732 21.9044 39.486C21.2241 39.6901 20.795 40.7123 20.2472 41.3647C18.829 43.0393 17.1213 44.3738 15.0664 45.1186C11.6579 46.3484 9.24362 48.5638 7.55505 51.7595C6.08628 54.5418 4.4012 57.2107 2.81555 59.9337C2.41783 60.6193 1.88753 61.0449 1.05895 60.8216C0.0315038 60.5408 -0.303419 59.529 0.30014 58.4824C1.62588 56.1868 2.97254 53.9034 4.30875 51.6147C5.66937 49.2772 6.873 46.8229 9.19652 45.061C6.89219 44.1627 5.02046 42.9591 4.64716 40.4192C4.2913 37.9998 5.13733 36.0059 7.11023 34.4604C5.92754 32.9881 5.25246 31.3676 5.54552 29.4575C5.83683 27.5526 6.84334 26.1135 8.43597 25.0669C5.64495 21.6479 6.65844 16.5682 11.4712 14.8971C10.5292 12.9259 10.3339 10.885 11.1136 8.8266C12.537 5.07617 16.6747 3.16955 20.467 4.51796C21.2694 4.80579 21.8922 4.83719 22.6981 4.37318C23.6819 3.81323 24.8472 3.57076 25.9374 3.20444C28.2679 2.41423 30.5949 1.61356 32.9324 0.854746C36.4369 -0.279107 39.5716 0.366317 42.3033 2.86777C42.7167 3.2463 43.1336 3.61786 43.5906 4.03651C45.0559 3.0771 46.4811 2.13513 47.9167 1.2106C52.665 -1.85429 58.5697 0.973364 59.1314 6.59727C59.1872 7.14676 59.1122 7.72066 59.0302 8.27189C58.957 8.79172 58.793 9.29759 58.6342 9.94301C60.7031 10.4838 62.3289 11.663 63.1295 13.7231C63.932 15.7815 63.6459 17.7631 62.4108 19.5999C65.8456 20.8158 67.9074 24.165 66.3793 28.2661C66.484 28.3167 66.5887 28.3882 66.702 28.4161C71.2793 29.5709 72.9958 35.5088 69.8001 39.2278C68.497 40.7402 67.0544 42.134 65.6763 43.5801L64.9978 44.2935C67.9458 48.3998 70.8101 52.5253 74.2727 56.1815C74.5256 56.4484 74.8135 56.7397 74.9181 57.0764C75.1205 57.7253 74.953 58.3271 74.3337 58.7057C73.697 59.0964 73.0412 59.0371 72.5318 58.5208C71.5724 57.5369 70.606 56.5496 69.7582 55.4716C67.4138 52.4834 65.1251 49.4447 62.7597 46.3536C57.1219 51.613 50.7897 55.9617 43.8104 59.5709C47.1562 63.33 49.3855 67.6422 51.4561 72.0555V72.0555Z" fill="white"/>
</g>
</svg>
