<svg width="98" height="100" viewBox="0 0 98 100" fill="none" xmlns="http://www.w3.org/2000/svg">
<g clip-path="url(#clip0_34_24)">
<mask id="mask0_34_24" style="mask-type:alpha" maskUnits="userSpaceOnUse" x="0" y="0" width="98" height="99">
<path d="M0 0.0022583H97.7159V98.3454H0V0.0022583Z" fill="#01408C"/>
</mask>
<g mask="url(#mask0_34_24)">
<path fill-rule="evenodd" clip-rule="evenodd" d="M14.5409 47.5636C13.975 47.4159 13.3182 47.4318 12.7387 47.5454C11.2046 47.85 10.0682 49.15 9.81366 50.7568C9.53411 52.475 10.0409 53.6204 11.6773 54.4659C16.2728 56.8386 20.6659 55.4886 24.3591 50.2091C21.0318 49.3045 17.7932 48.4045 14.5409 47.5636ZM44.6932 4.59088C40.3296 5.98407 35.9978 7.45679 31.6705 8.95907C31.2137 9.11816 30.6637 9.64997 30.5932 10.0795C30.5318 10.5 30.9068 11.1704 31.2932 11.4545C33.5046 13.0454 35.9841 14 38.7023 14.2886C40.7705 14.5068 42.8068 14.3591 44.6 13.2568C47.5659 11.425 50.4568 9.47497 53.3818 7.5727C51.3 4.79088 47.8659 3.57497 44.6932 4.59088V4.59088ZM11.0228 38.6704C10.6182 40.6704 11.6977 42.6477 13.6727 43.325C14.8977 43.7477 16.1728 44.0227 17.4182 44.3659C22.5046 45.7591 27.5818 47.1613 32.6659 48.5477C34.4091 49.025 35.8591 48.2522 36.4296 46.5795C36.9727 44.9795 36.2637 43.5113 34.6228 42.8636C28.7728 40.5591 22.925 38.2545 17.0728 35.9591C16.4409 35.7136 15.7682 35.5568 15.1182 35.3568C13.1159 35.4409 11.4046 36.7909 11.0228 38.6704V38.6704ZM12.8387 26.6022C12.4432 28.5704 13.5205 30.4591 15.6546 31.3045C22.5546 34.025 29.4727 36.7159 36.3909 39.4C38.0318 40.0363 39.8682 38.8954 40.0909 37.1477C40.2682 35.7386 39.7159 34.6818 38.4773 34.0113C32.2728 30.6454 26.0682 27.2704 19.8409 23.95C18.9591 23.4841 17.9341 23.2977 17.3409 23.1045C14.9137 23.1227 13.2568 24.5318 12.8387 26.6045V26.6022ZM42.2705 22.5204C41.7432 22.1409 41.1977 21.7886 40.675 21.4045C37.9432 19.3818 35.3114 17.2136 31.9591 16.2068C31.05 15.9318 30.2409 15.2977 29.4068 14.7977C27.8091 13.8432 26.8682 12.4568 26.6387 10.5795C26.6046 10.2704 26.2841 9.8727 25.9932 9.73407C23.0818 8.37952 19.6978 9.53861 18.2887 12.3386C16.85 15.1909 17.9023 18.5091 20.7591 20.0795C22.0773 20.8 23.4137 21.4818 24.7432 22.1818C29.1978 24.5295 33.6409 26.9 38.1068 29.2159C40.9432 30.6841 44.0068 28.8977 44.0182 25.8204C44.0409 24.4 43.4046 23.325 42.2728 22.5204H42.2705ZM67.0409 93.9409C67.1432 94.1591 67.2568 94.3818 67.35 94.6045C67.8659 95.8341 67.5137 96.8841 66.4296 97.3568C65.425 97.7909 64.4818 97.3409 63.875 96.1522C62.5318 93.5068 61.3 90.7977 59.8 88.25C58.2978 85.7 56.575 83.2795 54.8455 80.8727C53.8818 79.525 52.6682 78.55 50.7773 78.6295C49.5841 78.675 48.3728 78.2954 47.1796 78.0613C45.8387 77.7954 44.8 78.0341 43.8432 79.1795C39.1659 84.775 34.7296 90.5295 31.3046 97.0045C30.65 98.2341 29.6318 98.6454 28.6091 98.125C27.575 97.6022 27.2887 96.5159 27.9318 95.2909C31.6659 88.1886 36.4591 81.8363 41.775 75.8704C43.5568 73.8704 45.9341 73.8022 48.3296 74.4159C51.9296 75.3409 55.0887 74.5909 58.3341 72.7727C69.45 66.5341 79.1296 58.5682 87.6818 49.1704C89.3796 47.3068 89.7182 45 88.6796 42.9818C87.4568 40.6091 84.7637 39.9318 82.5887 41.4841C81.4296 42.3091 80.3137 43.1954 79.1659 44.0341C78.0477 44.8568 76.9432 44.8091 76.2341 43.9432C75.5091 43.0545 75.6977 42 76.7727 41.0727C78.3818 39.6977 80.0068 38.3409 81.6159 36.9727C83.6046 35.2886 83.9432 32.7136 82.45 30.7886C80.9682 28.8886 78.5 28.6045 76.35 30.0909C75.9159 30.3909 75.4977 30.7159 75.0591 31.0091C73.8682 31.8068 72.85 31.7091 72.1591 30.7477C71.525 29.8568 71.7273 28.8136 72.75 27.975C74.2909 26.7091 75.85 25.4659 77.3977 24.2136C78.5182 23.3068 79.0637 22.1295 78.9977 20.6909C78.8568 17.5727 75.55 15.7363 72.775 17.2795C71.0705 18.225 69.4591 19.3341 67.7591 20.2886C67.2318 20.5841 66.4478 20.8727 65.9637 20.6841C65.3818 20.4568 64.6682 19.7522 64.6182 19.2C64.5591 18.5863 65.0137 17.6772 65.5387 17.2909C67.1341 16.1159 68.8887 15.1477 70.5614 14.0659C72.6228 12.725 73.6477 10.4704 73.2046 8.33861C72.7 5.91588 71.0091 4.14997 68.4932 3.89088C67.3568 3.7727 65.95 3.97043 65.0137 4.57043C57.8773 9.10679 50.8318 13.7795 43.7591 18.4159C43.6682 18.4795 43.6091 18.5909 43.5318 18.6818C49.8409 22.4886 48.8818 30.3863 42.9818 33.1204C43.9046 34.8932 44.2977 36.7568 43.6409 38.7227C43 40.6318 41.7409 42.0045 40.0955 42.775C40.0955 44.4704 40.4046 46.0977 40.0341 47.5545C39.0909 51.275 35.4932 53.2159 31.7841 52.2659C30.6841 51.9841 29.4637 51.2295 28.5387 51.5068C27.6523 51.7727 27.0932 53.1045 26.3796 53.9545C24.5318 56.1363 22.3068 57.875 19.6296 58.8454C15.1887 60.4477 12.0432 63.3341 9.8432 67.4977C7.92957 71.1227 5.73411 74.6 3.6682 78.1477C3.15002 79.0409 2.45911 79.5954 1.37957 79.3045C0.0409319 78.9386 -0.395432 77.6204 0.390932 76.2568C2.1182 73.2659 3.87275 70.2909 5.61366 67.3091C7.38639 64.2636 8.95457 61.0659 11.9818 58.7704C8.97957 57.6 6.54093 56.0318 6.05457 52.7227C5.59093 49.5704 6.69321 46.9727 9.26366 44.9591C7.72275 43.0409 6.8432 40.9295 7.22502 38.4409C7.60457 35.9591 8.91593 34.0841 10.9909 32.7204C7.35457 28.2659 8.67502 21.6477 14.9455 19.4704C13.7182 16.9022 13.4637 14.2432 14.4796 11.5613C16.3341 6.67497 21.725 4.19088 26.6659 5.9477C27.7114 6.3227 28.5228 6.36361 29.5728 5.75907C30.8546 5.02952 32.3728 4.71361 33.7932 4.23634C36.8296 3.20679 39.8614 2.16361 42.9068 1.17497C47.4727 -0.302298 51.5568 0.538611 55.1159 3.7977C55.6546 4.29088 56.1978 4.77497 56.7932 5.32043C58.7023 4.07043 60.5591 2.84316 62.4296 1.63861C68.6159 -2.35457 76.3091 1.32952 77.0409 8.65679C77.1137 9.3727 77.0159 10.1204 76.9091 10.8386C76.8137 11.5159 76.6 12.175 76.3932 13.0159C79.0887 13.7204 81.2068 15.2568 82.25 17.9409C83.2955 20.6227 82.9227 23.2045 81.3137 25.5977C85.7887 27.1818 88.475 31.5454 86.4841 36.8886C86.6205 36.9545 86.7568 37.0477 86.9046 37.0841C92.8682 38.5886 95.1046 46.325 90.9409 51.1704C89.2432 53.1409 87.3637 54.9568 85.5682 56.8409L84.6841 57.7704C88.525 63.1204 92.2568 68.4954 96.7682 73.2591C97.0977 73.6068 97.4727 73.9863 97.6091 74.425C97.8727 75.2704 97.6546 76.0545 96.8477 76.5477C96.0182 77.0568 95.1637 76.9795 94.5 76.3068C93.25 75.025 91.9909 73.7386 90.8864 72.3341C87.8318 68.4409 84.85 64.4818 81.7682 60.4545C74.4227 67.3068 66.1727 72.9727 57.0796 77.675C61.4387 82.5727 64.3432 88.1909 67.0409 93.9409V93.9409Z" fill="#505772"/>
</g>
</g>
<defs>
<clipPath id="clip0_34_24">
<rect width="97.7273" height="100" fill="white"/>
</clipPath>
</defs>
</svg>
