<svg width="105" height="100" viewBox="0 0 105 100" fill="none" xmlns="http://www.w3.org/2000/svg">
<g clip-path="url(#clip0_34_6)">
<path d="M55 10C31.5275 10 12.5 28.4675 12.5 51.25C12.5 74.0325 31.5275 92.5 55 92.5C78.4725 92.5 97.5 74.0325 97.5 51.25C97.5 28.4675 78.4725 10 55 10ZM55 89.1575C39.175 89.1575 24.9075 79.9025 18.8575 65.7075C12.8075 51.515 16.1625 35.1825 27.3625 24.3275C38.5625 13.475 55.395 10.24 70.01 16.135C84.6225 22.03 94.1375 35.89 94.115 51.25C94.115 72.2175 76.6025 89.215 55 89.215V89.1575V89.1575Z" fill="#505772"/>
<path d="M62.56 69.33H58.795C57.8975 69.33 57.17 70.04 57.17 70.915C57.17 71.79 57.8975 72.5 58.795 72.5H73.3775C74.275 72.5 75 71.79 75 70.915V61.515C74.9925 55.9225 70.355 51.39 64.63 51.38H63.415C67.27 47.98 68.585 42.605 66.72 37.8675C64.855 33.125 60.195 30 55 30C49.805 30 45.145 33.125 43.28 37.8675C41.415 42.605 42.73 47.9775 46.585 51.38H45.37C39.645 51.39 35.0075 55.9225 35 61.515V70.915C35.0075 71.785 35.7325 72.485 36.6225 72.485H51.205C52.1025 72.485 52.83 71.775 52.83 70.9C52.83 70.025 52.1025 69.315 51.205 69.315H47.44M44.195 69.315H38.2575V61.515C38.2575 57.675 41.44 54.56 45.37 54.5525H64.63C68.56 54.56 71.7425 57.6775 71.7425 61.515V69.33H65.805M45.6875 42.28C45.6875 37.255 49.8575 33.18 55 33.18C60.1425 33.18 64.3125 37.255 64.3125 42.28C64.3125 47.305 60.1425 51.38 55 51.38C49.865 51.365 45.71 47.2975 45.7025 42.28H45.6875Z" fill="#505772"/>
<path d="M52.5 20V0H57.5V20H52.5Z" fill="#505772"/>
<path d="M52.5 100V80H57.5V100H52.5Z" fill="#505772"/>
<path d="M0 47.5H22.5V52.5H0V47.5ZM85 47.5H105V52.5H85V47.5Z" fill="#505772"/>
</g>
<defs>
<clipPath id="clip0_34_6">
<rect width="105" height="100" fill="white"/>
</clipPath>
</defs>
</svg>
