<svg width="22" height="22" viewBox="0 0 22 22" fill="none" xmlns="http://www.w3.org/2000/svg">
<circle cx="11" cy="11" r="10.5" stroke="#ffffff"/>
<path fill-rule="evenodd" clip-rule="evenodd" d="M9.25202 8.52974C7.16846 9.56888 10.3475 14.7174 12.6275 13.5802C13.0323 14.186 14.3365 16.1374 14.7414 16.7432C13.7794 17.223 12.9652 17.5254 11.8499 16.9747C8.75341 15.4455 5.34481 10.3475 5.44197 7.3066C5.47565 6.25043 6.19596 5.83662 7.13816 5.3667C7.54305 5.97251 8.84721 7.92384 9.25209 8.52965L9.25202 8.52974Z" fill="#ffffff"/>
<path fill-rule="evenodd" clip-rule="evenodd" d="M10.1258 8.44371C9.90064 8.55599 9.61094 8.48897 9.48095 8.29448L7.48809 5.31262C7.35809 5.1181 7.43567 4.86785 7.66082 4.75556L8.70822 4.23316C8.93336 4.12085 9.22312 4.18793 9.35311 4.38243L11.346 7.36425C11.4759 7.55873 11.3983 7.80899 11.1732 7.92128L10.1258 8.44368L10.1258 8.44371Z" fill="#ffffff"/>
<path fill-rule="evenodd" clip-rule="evenodd" d="M15.5701 16.5897C15.345 16.702 15.0553 16.6349 14.9253 16.4404L12.9324 13.4586C12.8024 13.2641 12.88 13.0138 13.1052 12.9015L14.1526 12.3791C14.3777 12.2669 14.6675 12.3339 14.7974 12.5284L16.7903 15.5102C16.9203 15.7047 16.8427 15.955 16.6176 16.0673L15.5702 16.5897L15.5701 16.5897Z" fill="#ffffff"/>
</svg>
