<svg width="82" height="92" viewBox="0 0 82 92" fill="none" xmlns="http://www.w3.org/2000/svg">
<path d="M40.6969 23.0305L2.29346 46.1945H79.4052L40.6969 23.0305ZM40.6969 23.0305V2" stroke="#505772" stroke-width="3" stroke-linecap="round" stroke-linejoin="round"/>
<path d="M41.3063 4.13342H55.7649C56.8695 4.13342 57.7649 5.02885 57.7649 6.13342V12.1915C57.7649 13.296 56.8695 14.1915 55.7649 14.1915H41.0015" stroke="#505772" stroke-width="3"/>
<path d="M1.5 86.7693C1.5 85.3886 2.61929 84.2693 4 84.2693H77.5385C78.9192 84.2693 80.0385 85.3886 80.0385 86.7693V90.5001H1.5V86.7693Z" stroke="#505772" stroke-width="3"/>
<path d="M6.92293 45.8461L6.92293 49.5384C6.92293 51.7476 8.71379 53.5384 10.9229 53.5384L70.6152 53.5385C72.8244 53.5385 74.6152 51.7476 74.6152 49.5385L74.6152 45.8462" stroke="#505772" stroke-width="3"/>
<path d="M10.5229 83.6836V53.8142M22.2154 83.6836V53.8142M59.1788 83.6836V53.8142M70.8713 83.6836V53.8142M35.0395 83.6836V53.8142M46.7319 83.6836V53.8142" stroke="#505772" stroke-width="3" stroke-linecap="round" stroke-linejoin="round"/>
<circle cx="40.7694" cy="35.0769" r="3.88461" stroke="#505772" stroke-width="3"/>
</svg>
