<svg width="76" height="76" viewBox="0 0 76 76" fill="none" xmlns="http://www.w3.org/2000/svg">
<path d="M38.3095 18.5254L2.91956 37.8287H73.9802L38.3095 18.5254ZM38.3095 18.5254V1" stroke="white" stroke-width="2" stroke-linecap="round" stroke-linejoin="round"/>
<path d="M38.8711 2.77808H52.0382C53.1427 2.77808 54.0382 3.67351 54.0382 4.77808V9.15978C54.0382 10.2643 53.1428 11.1598 52.0382 11.1598H38.5902" stroke="white" stroke-width="2"/>
<path d="M4.80627 69.3079H71.9463C73.6031 69.3079 74.9463 70.651 74.9463 72.3079V75.0002H1.80627V72.3079C1.80627 70.651 3.14942 69.3079 4.80627 69.3079Z" stroke="white" stroke-width="2"/>
<path d="M7.1859 37.5387L7.1859 39.949C7.1859 42.1581 8.97676 43.949 11.1859 43.949L65.5663 43.949C67.7754 43.949 69.5663 42.1581 69.5663 39.949L69.5663 37.5387" stroke="white" stroke-width="2"/>
<path d="M10.5034 69.0693V44.1782M21.2784 69.0693V44.1782M55.3412 69.0693V44.1782M66.1161 69.0693V44.1782M33.0961 69.0693V44.1782M43.871 69.0693V44.1782" stroke="white" stroke-width="2" stroke-linecap="round" stroke-linejoin="round"/>
</svg>
