<svg width="78" height="100" viewBox="0 0 78 100" fill="none" xmlns="http://www.w3.org/2000/svg">
<path d="M14.5768 37.2046H62.5835V33.4409H14.5768V37.2068V37.2046ZM62.5835 44.0886H14.5768V47.8523H62.5835V44.0909V44.0886Z" fill="#505772"/>
<path d="M60.505 2.73635C60.505 2.73635 21.3766 2.70453 1.81233 2.70453H0.860268V97C0.860268 97.0886 0.860268 97.2045 0.830444 97.2954H76.3299C76.3299 92.7045 76.3597 88.1182 76.3597 83.5295V73.9409H76.3895V18.5591L60.505 2.73635V2.73635ZM62.5835 9.79317L69.3236 16.4704H62.5835V9.79544V9.79317ZM72.439 21.6773V70.5H72.3817V93.2363H4.92774V6.79317H59.0506C59.0506 11.3227 58.9909 15.3841 58.9909 20H72.4689C72.439 20.5 72.439 21.2954 72.439 21.6773Z" fill="#505772"/>
<path d="M32.3323 79.7636L21.9101 67.6772H16.3378L21.9093 74.4791L32.0639 85.1181L59.6438 58.6477L57.0629 55.9999L32.3323 79.7636Z" fill="#505772"/>
</svg>
