<svg width="79" height="78" viewBox="0 0 79 78" fill="none" xmlns="http://www.w3.org/2000/svg">
<path d="M4.41175 33.7784V1.29175H45.3208V32.1741M45.3208 76.2917V69.0725M10.4278 53.8319V76.2917M0.802124 76.2917H77.0053V32.1741H45.3208M45.3208 32.1741V69.0725M10.4278 69.0725H45.3208" stroke="white" stroke-width="2"/>
<path d="M55.7487 76.2915V56.238H66.1765V76.2915" stroke="white" stroke-width="2"/>
<mask id="path-3-inside-1_278_654" fill="white">
<path d="M20.8556 53.4307C20.8556 58.9683 16.1869 63.4574 10.4278 63.4574C4.66869 63.4574 0 58.9683 0 53.4307C0 47.8931 10.4278 35.3826 10.4278 35.3826C10.4278 35.3826 20.8556 47.8931 20.8556 53.4307Z"/>
</mask>
<path d="M10.4278 35.3826L11.9641 34.102C11.5841 33.6461 11.0213 33.3826 10.4278 33.3826C9.83433 33.3826 9.2715 33.6461 8.89151 34.102L10.4278 35.3826ZM18.8556 53.4307C18.8556 57.7905 15.157 61.4574 10.4278 61.4574V65.4574C17.2168 65.4574 22.8556 60.1461 22.8556 53.4307H18.8556ZM10.4278 61.4574C5.6986 61.4574 2 57.7905 2 53.4307H-2C-2 60.1461 3.63877 65.4574 10.4278 65.4574V61.4574ZM2 53.4307C2 52.546 2.45825 51.0853 3.41753 49.1703C4.33872 47.3313 5.58723 45.3309 6.86585 43.4574C8.13956 41.5911 9.41714 39.8885 10.3783 38.6502C10.8582 38.0321 11.2573 37.532 11.5354 37.1879C11.6744 37.0159 11.783 36.8829 11.8562 36.7939C11.8927 36.7493 11.9205 36.7158 11.9387 36.6938C11.9478 36.6828 11.9545 36.6747 11.9588 36.6695C11.9609 36.667 11.9624 36.6652 11.9633 36.6641C11.9637 36.6635 11.964 36.6632 11.9642 36.663C11.9642 36.6629 11.9642 36.663 11.9643 36.6629C11.9642 36.663 11.9641 36.6631 10.4278 35.3826C8.89151 34.102 8.89133 34.1022 8.89112 34.1025C8.89099 34.1026 8.89074 34.103 8.89049 34.1033C8.88999 34.1039 8.88933 34.1046 8.88851 34.1056C8.88688 34.1076 8.88462 34.1103 8.88174 34.1138C8.87599 34.1207 8.86775 34.1306 8.85713 34.1435C8.83587 34.1691 8.80502 34.2065 8.76523 34.255C8.68564 34.3519 8.57022 34.4931 8.42407 34.674C8.13186 35.0357 7.71636 35.5562 7.21859 36.1975C6.22457 37.478 4.8952 39.2491 3.56196 41.2026C2.23363 43.1489 0.875183 45.3145 -0.158845 47.3787C-1.15477 49.3669 -2 51.5466 -2 53.4307H2ZM10.4278 35.3826C8.89151 36.6631 8.89141 36.663 8.89135 36.6629C8.89139 36.663 8.89137 36.6629 8.89144 36.663C8.89157 36.6632 8.89186 36.6635 8.89231 36.6641C8.89321 36.6652 8.89473 36.667 8.89686 36.6695C8.90113 36.6747 8.90785 36.6828 8.91695 36.6938C8.93516 36.7158 8.96287 36.7493 8.99944 36.7939C9.07261 36.8829 9.18122 37.0159 9.32021 37.1879C9.59827 37.532 9.99745 38.0321 10.4773 38.6502C11.4385 39.8885 12.7161 41.5911 13.9898 43.4574C15.2684 45.3309 16.5169 47.3313 17.4381 49.1703C18.3974 51.0853 18.8556 52.546 18.8556 53.4307H22.8556C22.8556 51.5466 22.0104 49.3669 21.0145 47.3787C19.9804 45.3145 18.622 43.1489 17.2937 41.2026C15.9604 39.2491 14.631 37.478 13.637 36.1975C13.1393 35.5562 12.7238 35.0357 12.4315 34.674C12.2854 34.4931 12.17 34.3519 12.0904 34.255C12.0506 34.2065 12.0197 34.1691 11.9985 34.1435C11.9879 34.1306 11.9796 34.1207 11.9739 34.1138C11.971 34.1103 11.9687 34.1076 11.9671 34.1056C11.9663 34.1046 11.9656 34.1039 11.9651 34.1033C11.9649 34.103 11.9646 34.1026 11.9645 34.1025C11.9643 34.1022 11.9641 34.102 10.4278 35.3826Z" fill="white" mask="url(#path-3-inside-1_278_654)"/>
<rect x="13.0321" y="7.50586" width="8.42781" height="8.42781" stroke="white" stroke-width="2" stroke-linejoin="round"/>
<rect x="13.0321" y="23.5483" width="8.42781" height="8.42781" stroke="white" stroke-width="2" stroke-linejoin="round"/>
<rect x="50.7326" y="38.7891" width="7.62567" height="6.82353" stroke="white" stroke-width="2" stroke-linejoin="round"/>
<rect x="29.877" y="7.50586" width="8.42781" height="8.42781" stroke="white" stroke-width="2" stroke-linejoin="round"/>
<rect x="29.877" y="23.5483" width="8.42781" height="8.42781" stroke="white" stroke-width="2" stroke-linejoin="round"/>
<rect x="64.369" y="38.7891" width="7.62567" height="6.82353" stroke="white" stroke-width="2" stroke-linejoin="round"/>
<rect x="29.877" y="39.5913" width="8.42781" height="8.42781" stroke="white" stroke-width="2" stroke-linejoin="round"/>
<rect x="29.877" y="55.634" width="8.42781" height="8.42781" stroke="white" stroke-width="2" stroke-linejoin="round"/>
</svg>
