<svg width="76" height="76" viewBox="0 0 76 76" fill="none" xmlns="http://www.w3.org/2000/svg">
<path d="M4.29688 32.6406V1H44.1406V31.0781M44.1406 74.0469V67.0156M10.1562 52.1719V74.0469M0.78125 74.0469H75V31.0781H44.1406M44.1406 31.0781V67.0156M10.1562 67.0156H44.1406" stroke="white" stroke-width="2"/>
<path d="M54.2969 74.0466V54.5154H64.4531V74.0466" stroke="white" stroke-width="2"/>
<mask id="path-3-inside-1_543_4" fill="white">
<path d="M20.3125 51.7812C20.3125 57.1747 15.7654 61.5469 10.1562 61.5469C4.54711 61.5469 0 57.1747 0 51.7812C0 46.3878 10.1562 34.2031 10.1562 34.2031C10.1562 34.2031 20.3125 46.3878 20.3125 51.7812Z"/>
</mask>
<path d="M10.1562 34.2031L11.6925 32.9226C11.3126 32.4667 10.7497 32.2031 10.1562 32.2031C9.56277 32.2031 8.99994 32.4667 8.61995 32.9226L10.1562 34.2031ZM18.3125 51.7812C18.3125 55.9969 14.7355 59.5469 10.1562 59.5469V63.5469C16.7953 63.5469 22.3125 58.3524 22.3125 51.7812H18.3125ZM10.1562 59.5469C5.57702 59.5469 2 55.9969 2 51.7812H-2C-2 58.3524 3.51719 63.5469 10.1562 63.5469V59.5469ZM2 51.7812C2 50.9326 2.44127 49.5193 3.3751 47.6551C4.27083 45.8669 5.48539 43.9208 6.73007 42.0971C7.96984 40.2805 9.21347 38.6231 10.1492 37.4176C10.6163 36.8159 11.0049 36.3291 11.2755 35.9942C11.4108 35.8267 11.5165 35.6974 11.5877 35.6107C11.6232 35.5674 11.6502 35.5348 11.6679 35.5134C11.6767 35.5027 11.6833 35.4948 11.6874 35.4899C11.6895 35.4874 11.6909 35.4856 11.6918 35.4846C11.6922 35.4841 11.6925 35.4837 11.6926 35.4836C11.6927 35.4835 11.6927 35.4835 11.6927 35.4835C11.6926 35.4835 11.6925 35.4837 10.1562 34.2031C8.61995 32.9226 8.61978 32.9228 8.61956 32.9231C8.61944 32.9232 8.61919 32.9235 8.61894 32.9238C8.61845 32.9244 8.6178 32.9252 8.617 32.9261C8.61541 32.928 8.6132 32.9307 8.61038 32.9341C8.60476 32.9409 8.59672 32.9505 8.58635 32.9631C8.5656 32.9881 8.53552 33.0246 8.49672 33.0718C8.41912 33.1663 8.30662 33.304 8.16418 33.4803C7.8794 33.8327 7.47451 34.34 6.98947 34.9649C6.0209 36.2126 4.72547 37.9385 3.42618 39.8422C2.1318 41.7388 0.807293 43.8502 -0.201275 45.8636C-1.17174 47.8009 -2 49.9332 -2 51.7812H2ZM10.1562 34.2031C8.61995 35.4837 8.61985 35.4835 8.61979 35.4835C8.61983 35.4835 8.6198 35.4835 8.61987 35.4836C8.61999 35.4837 8.62027 35.4841 8.6207 35.4846C8.62157 35.4856 8.62304 35.4874 8.62511 35.4899C8.62924 35.4948 8.63577 35.5027 8.64462 35.5134C8.66231 35.5348 8.68925 35.5674 8.72484 35.6107C8.79601 35.6974 8.90171 35.8267 9.03699 35.9942C9.30762 36.3291 9.69619 36.8159 10.1633 37.4176C11.099 38.6231 12.3427 40.2805 13.5824 42.0971C14.8271 43.9208 16.0417 45.8669 16.9374 47.6551C17.8712 49.5193 18.3125 50.9326 18.3125 51.7812H22.3125C22.3125 49.9332 21.4842 47.8009 20.5138 45.8636C19.5052 43.8502 18.1807 41.7388 16.8863 39.8422C15.587 37.9385 14.2916 36.2126 13.323 34.9649C12.838 34.34 12.4331 33.8327 12.1483 33.4803C12.0059 33.304 11.8934 33.1663 11.8158 33.0718C11.777 33.0246 11.7469 32.9881 11.7262 32.9631C11.7158 32.9505 11.7077 32.9409 11.7021 32.9341C11.6993 32.9307 11.6971 32.928 11.6955 32.9261C11.6947 32.9252 11.694 32.9244 11.6936 32.9238C11.6933 32.9235 11.6931 32.9232 11.6929 32.9231C11.6927 32.9228 11.6925 32.9226 10.1562 34.2031Z" fill="white" mask="url(#path-3-inside-1_543_4)"/>
<rect x="12.7188" y="7.07837" width="8.15625" height="8.15625" stroke="white" stroke-width="2" stroke-linejoin="round"/>
<rect x="12.7188" y="22.7031" width="8.15625" height="8.15625" stroke="white" stroke-width="2" stroke-linejoin="round"/>
<rect x="49.4375" y="37.5469" width="7.375" height="6.59375" stroke="white" stroke-width="2" stroke-linejoin="round"/>
<rect x="29.125" y="7.07837" width="8.15625" height="8.15625" stroke="white" stroke-width="2" stroke-linejoin="round"/>
<rect x="29.125" y="22.7031" width="8.15625" height="8.15625" stroke="white" stroke-width="2" stroke-linejoin="round"/>
<rect x="62.7188" y="37.5469" width="7.375" height="6.59375" stroke="white" stroke-width="2" stroke-linejoin="round"/>
<rect x="29.125" y="38.3281" width="8.15625" height="8.15625" stroke="white" stroke-width="2" stroke-linejoin="round"/>
<rect x="29.125" y="53.9531" width="8.15625" height="8.15625" stroke="white" stroke-width="2" stroke-linejoin="round"/>
</svg>
