<svg width="92" height="78" viewBox="0 0 92 78" fill="none" xmlns="http://www.w3.org/2000/svg">
<path d="M66.8583 29.6109C64.671 29.9654 62.811 30.129 61.0219 30.129C56.1765 30.129 51.3765 29.1181 46.7419 27.1181C46.2946 26.929 45.7528 26.929 45.3055 27.1181C39.0692 29.8709 32.5783 30.8345 25.3055 29.6345C24.411 29.4945 23.5419 30.0345 23.2819 30.8818C22.3183 34.0818 21.8237 37.6345 21.8237 41.4236C21.8237 57 31.0474 71.1181 45.3055 77.4C45.5419 77.4945 45.7783 77.5418 46.0346 77.5418C46.271 77.5418 46.5292 77.4945 46.7655 77.4C61.0928 71.1418 70.3419 57.0236 70.3419 41.4236C70.3419 37.6345 69.8474 34.0818 68.8819 30.8818C68.6001 30.0109 67.7292 29.4945 66.8583 29.6109ZM46.011 73.8C33.4728 67.9418 25.4001 55.329 25.4001 41.4472C25.4001 38.6 25.7055 35.8945 26.2946 33.4236C33.3765 34.3418 39.7765 33.329 46.011 30.7181C50.8837 32.7181 55.9183 33.729 61.0001 33.729C62.5292 33.729 64.0819 33.6345 65.8001 33.4C66.3892 35.8709 66.6946 38.5763 66.6946 41.4236C66.7183 55.3527 58.6219 67.9654 46.011 73.8Z" fill="#505772"/>
<path d="M54.9528 40.789C54.1055 40.2472 53.0001 40.5054 52.4819 41.329L44.011 54.6472L39.5655 49.0945C38.9528 48.3181 37.8001 48.2 37.0473 48.8109C36.271 49.4236 36.1528 50.5527 36.7655 51.329L42.7892 58.8345C43.1419 59.2581 43.6346 59.5181 44.2001 59.5181H44.2946C44.8819 59.4945 45.4001 59.189 45.7055 58.6945L55.5419 43.2581C56.0346 42.4345 55.7783 41.3309 54.9528 40.789Z" fill="#505772"/>
<path d="M76.6237 21.1182C75.1655 11.3763 66.6946 3.94179 56.7182 3.94179C54.2709 3.94179 51.7055 4.43452 49.3764 5.32907C45.2364 2.17634 40.1291 0.43634 34.8819 0.43634C22.3182 0.43634 12.1546 9.99089 11.2582 22.3909C4.88185 25.1672 0.69458 31.5436 0.69458 38.6491C0.69458 48.4127 8.64731 56.3672 18.4109 56.3672H19.7528V52.86H18.4109C10.5764 52.86 4.20003 46.4836 4.20003 38.6491C4.20003 32.6254 7.96367 27.26 13.5419 25.26C14.2237 25.0236 14.6946 24.3909 14.6946 23.66C14.9764 12.6018 23.8473 3.94361 34.8819 3.94361C39.6819 3.94361 44.3182 5.63634 47.9655 8.67089C48.4819 9.09634 49.1891 9.19089 49.8237 8.93089C51.9419 7.96725 54.3873 7.44907 56.7182 7.44907C65.3546 7.44907 72.6455 14.2018 73.3055 22.8127C73.3782 23.66 74.0346 24.3436 74.9055 24.4127C82.2 25.0727 87.9419 31.3072 87.9419 38.6254C87.9419 46.4618 81.5182 52.8363 73.6346 52.8363H72.2946V56.3436H73.6346C83.4709 56.3436 91.4473 48.3909 91.4473 38.6254C91.4237 30.0127 85.0237 22.5782 76.6237 21.12V21.1182Z" fill="#505772"/>
</svg>
