<svg width="95" height="100" viewBox="0 0 95 100" fill="none" xmlns="http://www.w3.org/2000/svg">
<path fill-rule="evenodd" clip-rule="evenodd" d="M34.5755 38.1386V33.7046C34.5755 29.8523 37.6969 26.7205 41.5263 26.7205C45.3625 26.7205 48.4794 29.8523 48.4794 33.7046V38.1409C48.4794 41.9909 45.3625 45.125 41.5263 45.125C37.6946 45.125 34.5755 41.9886 34.5755 38.1409M53.1615 51.8773L47.8234 50.0886V47.0136C47.8234 46.95 47.794 46.9 47.785 46.8364C50.4721 44.8773 52.2364 41.7227 52.2364 38.1409V33.7046C52.2364 27.7727 47.4321 22.9409 41.5263 22.9409C35.6227 22.9409 30.8184 27.7705 30.8184 33.7046V38.1409C30.8184 41.7227 32.585 44.8773 35.2699 46.8364C35.2608 46.8977 35.2314 46.95 35.2314 47.0136V50.0886L29.8933 51.8773C28.9117 52.2091 28.3756 53.2773 28.7036 54.2659C28.9659 55.0568 29.7011 55.5568 30.4859 55.5568C30.685 55.5568 30.884 55.525 31.0808 55.4636L38.9952 52.8114V48.5659C39.8073 48.7659 40.6487 48.9046 41.5263 48.9046C42.4017 48.9046 43.2453 48.7682 44.0619 48.5659V52.8114L51.974 55.4636C52.1686 55.525 52.3721 55.5568 52.5644 55.5568C53.3538 55.5568 54.0867 55.0568 54.3536 54.2659C54.6793 53.2773 54.1432 52.2091 53.1615 51.8773M27.5093 80.8841H54.003V77.1091H27.5093V80.8841Z" fill="#505772"/>
<path fill-rule="evenodd" clip-rule="evenodd" d="M76.4094 92.9955H5.10511V13.2568L14.8404 3.77727H76.4094V55.5545H80.1709V0H13.3158L1.34357 11.6568V96.7727H80.1709V74.2091H76.4094V92.9955Z" fill="#505772"/>
<path fill-rule="evenodd" clip-rule="evenodd" d="M56.6381 58.1977C51.5963 62.2568 45.2924 64.0841 38.8731 63.3864C32.4583 62.6705 26.7041 59.4909 22.6688 54.4318C18.6313 49.3705 16.7969 43.0318 17.5026 36.5841C18.2129 30.1386 21.3773 24.3545 26.4145 20.2977C36.817 11.925 52.0532 13.6159 60.3883 24.0659C68.7167 34.5136 67.0383 49.8273 56.6381 58.1977ZM93.8102 75.6659L66.1471 54.0523C65.9255 53.875 65.6744 53.7705 65.4211 53.7114C71.2681 43.9295 70.827 31.1159 63.3175 21.7023C53.6976 9.62728 36.0842 7.67273 24.0667 17.3477C18.2468 22.0341 14.5848 28.7182 13.7682 36.1705C12.9539 43.6182 15.0688 50.9432 19.7329 56.7909C24.3969 62.6432 31.0469 66.3182 38.4614 67.1409C39.5064 67.2568 40.5424 67.3136 41.5806 67.3136C47.8981 67.3136 53.9872 65.1727 58.9882 61.1455C60.6892 59.775 62.1662 58.2318 63.4555 56.5773C63.5686 56.7432 63.6817 56.9023 63.8468 57.0318L91.5054 78.6432C91.8492 78.9136 92.2563 79.0432 92.6589 79.0432C93.2199 79.0432 93.774 78.7932 94.1427 78.3136C94.7829 77.4909 94.6313 76.3023 93.8102 75.6659" fill="#505772"/>
</svg>
