<svg width="125" height="100" viewBox="0 0 125 100" fill="none" xmlns="http://www.w3.org/2000/svg">
<path d="M0.415894 -0.0458374V99.9542H125.329V-0.0458374H0.415894ZM120.988 95.6656H110.032V87.8289H120.988V95.6656ZM120.988 84.1344H106.291V95.6656H4.72924V4.24268H120.961V84.1344H120.991H120.988Z" fill="#505772"/>
<path d="M64.7435 48.7432L65.1915 49.1864C65.8201 49.7759 66.4487 50.3974 66.9585 51.0782C69.5643 54.4483 70.4603 57.848 69.6534 61.4557C69.082 64.058 67.5276 66.3337 64.8921 68.4037C62.14 70.5925 58.7867 72.2193 54.087 73.6678C53.3395 73.9031 53.0698 74.2893 53.0698 75.0272C53.0995 77.2755 53.0698 79.5214 53.0698 81.7673V84.2806H54.0573L54.2973 84.2235C54.3864 84.1938 54.5053 84.164 54.5945 84.1343C60.9422 83.2776 66.0601 81.9181 70.7301 79.9075C76.1475 77.5702 80.2482 74.6137 83.2724 70.8278C88.0017 64.9445 89.739 58.2616 88.4498 50.9891C87.3731 44.8979 84.0495 39.7823 78.5727 35.7611C74.9497 33.1016 70.6409 31.1184 65.3721 29.6402C64.8327 29.494 64.7138 29.3455 64.7435 28.7537C64.7732 24.7622 64.7732 20.8004 64.7732 16.8089V11.3986L47.081 25.7698L33.8826 36.5014L64.8029 61.3369V48.7432H64.7435V48.7432ZM61.4199 44.128V54.478L39.0303 36.5014L61.3902 18.3466V32.0072L61.6599 32.0963L63.1869 32.5396C64.2635 32.8366 65.283 33.129 66.3299 33.4535C71.777 35.2288 75.8183 37.5067 79.0527 40.6117C83.3021 44.69 85.6062 50.1026 85.5468 55.8671C85.4873 61.6339 83.0324 67.0168 78.6619 71.006C75.1303 74.2276 70.8489 76.6243 65.5824 78.2808C63.548 78.9296 61.4222 79.462 59.3558 79.9646C58.4872 80.1703 57.5889 80.3782 56.7203 80.6158C56.6311 80.6455 56.542 80.6455 56.4231 80.6752V80.0834C56.4231 78.8725 56.4231 77.6593 56.4528 76.4758C56.5123 76.4164 56.6311 76.357 56.75 76.3296C60.2244 75.1163 62.9469 73.8163 65.283 72.249C68.7551 69.9116 71.0592 67.1927 72.3164 63.9689C73.7542 60.2722 73.5142 56.3995 71.6284 52.408C70.1015 49.2139 68.0351 46.8788 65.3721 45.3412C64.1446 44.6329 63.0383 44.2765 61.8702 44.1874L61.4199 44.1302V44.128Z" fill="#505772"/>
</svg>
