<svg width="94" height="75" viewBox="0 0 94 75" fill="none" xmlns="http://www.w3.org/2000/svg">
<g clip-path="url(#clip0_3_981)">
<path d="M0.31192 0.197754V74.8023H93.4602V0.197754H0.31192ZM90.2233 71.6029H82.0534V65.7563H90.2233V71.6029ZM90.2233 63H79.2631V71.6029H3.5284V3.39719H90.2028V63H90.225H90.2233Z" fill="#505772"/>
<path d="M48.2812 36.5966L48.6153 36.9273C49.0841 37.3671 49.5528 37.8307 49.9329 38.3387C51.8761 40.8529 52.5443 43.3893 51.9426 46.0807C51.5165 48.0222 50.3574 49.7199 48.392 51.2643C46.3397 52.8972 43.8392 54.1108 40.3346 55.1915C39.7772 55.3671 39.5761 55.6552 39.5761 56.2057C39.5983 57.883 39.5761 59.5586 39.5761 61.2341V63.1091H40.3125L40.4915 63.0665C40.5579 63.0444 40.6466 63.0222 40.713 63C45.4466 62.3608 49.263 61.3466 52.7454 59.8466C56.7852 58.1029 59.8432 55.8972 62.0983 53.0728C65.625 48.6836 66.9204 43.6978 65.9591 38.2722C65.1562 33.7279 62.6778 29.9114 58.5937 26.9114C55.892 24.9273 52.679 23.4478 48.75 22.3449C48.3477 22.2358 48.2591 22.125 48.2812 21.6836C48.3034 18.7057 48.3034 15.75 48.3034 12.7722V8.73584L35.1102 19.4574L25.2682 27.4637L48.3255 45.9921V36.5966H48.2812V36.5966ZM45.8028 33.1535V40.875L29.1068 27.4637L45.7807 13.9194V24.1108L45.9818 24.1773L47.1204 24.508C47.9233 24.7296 48.6835 24.9478 49.4642 25.1898C53.5261 26.5142 56.5397 28.2137 58.9517 30.5302C62.1204 33.5728 63.8386 37.6108 63.7943 41.9114C63.75 46.2137 61.9193 50.2296 58.6602 53.2057C56.0267 55.6091 52.8341 57.3972 48.9068 58.633C47.3897 59.1171 45.8045 59.5142 44.2636 59.8892C43.6159 60.0427 42.946 60.1978 42.2983 60.375C42.2318 60.3972 42.1653 60.3972 42.0767 60.4194V59.9779C42.0767 59.0745 42.0767 58.1694 42.0988 57.2864C42.1432 57.2421 42.2318 57.1978 42.3204 57.1773C44.9113 56.2722 46.9415 55.3023 48.6835 54.133C51.2727 52.3892 52.9909 50.3608 53.9284 47.9557C55.0005 45.1978 54.8216 42.3086 53.4153 39.3307C52.2767 36.9478 50.7358 35.2057 48.75 34.0586C47.8346 33.5302 47.0096 33.2642 46.1386 33.1978L45.8028 33.1552V33.1535Z" fill="#505772"/>
</g>
<defs>
<clipPath id="clip0_3_981">
<rect width="93.75" height="75" fill="white"/>
</clipPath>
</defs>
</svg>
