<svg width="100" height="100" viewBox="0 0 100 100" fill="none" xmlns="http://www.w3.org/2000/svg">
<g clip-path="url(#clip0_516_11214)">
<g clip-path="url(#clip1_516_11214)">
<path d="M75.8133 49.2054C75.1785 48.1659 74.3335 47.2706 73.3324 46.5769C72.3312 45.8832 71.1962 45.4064 70 45.177V16.667C69.9974 14.4577 69.1185 12.3396 67.5563 10.7774C65.9941 9.21517 63.876 8.33635 61.6667 8.3337H47.87C47.5798 7.82863 47.1618 7.40877 46.6581 7.11624C46.1543 6.82371 45.5825 6.66879 45 6.66703H42.765C42.0772 4.71489 40.8006 3.02427 39.1112 1.82837C37.4219 0.632476 35.4031 -0.00976563 33.3333 -0.00976562C31.2636 -0.00976562 29.2448 0.632476 27.5554 1.82837C25.8661 3.02427 24.5895 4.71489 23.9017 6.66703H21.6667C21.0842 6.66879 20.5123 6.82371 20.0086 7.11624C19.5049 7.40877 19.0869 7.82863 18.7967 8.3337H8.33333C6.12401 8.33635 4.00593 9.21517 2.4437 10.7774C0.88147 12.3396 0.00264643 14.4577 0 16.667L0 86.667C0.00264643 88.8764 0.88147 90.9944 2.4437 92.5567C4.00593 94.1189 6.12401 94.9977 8.33333 95.0004H37.5983C37.675 95.157 37.7367 95.3187 37.8233 95.472C38.5752 96.8493 39.6858 97.9974 41.0373 98.7946C42.3888 99.5918 43.9309 100.008 45.5 100H91.1833C92.7509 100.006 94.2909 99.5885 95.6405 98.7911C96.99 97.9937 98.099 96.8463 98.85 95.4704C99.6433 94.0739 100.044 92.4889 100.011 90.8831C99.9768 89.2774 99.5096 87.7106 98.6583 86.3487L75.8133 49.2054ZM66.6667 16.667V45.177C65.4688 45.4048 64.3328 45.8837 63.3333 46.582V18.3337C63.3333 17.4496 62.9822 16.6018 62.357 15.9767C61.7319 15.3516 60.8841 15.0004 60 15.0004H48.3333V11.667H61.6667C62.9928 11.667 64.2645 12.1938 65.2022 13.1315C66.1399 14.0692 66.6667 15.341 66.6667 16.667ZM21.6667 10.0004H25.1667C25.5512 10.0008 25.924 9.86833 26.222 9.62533C26.52 9.38233 26.7248 9.04377 26.8017 8.66703C27.1093 7.16177 27.9274 5.80896 29.1176 4.8374C30.3077 3.86585 31.797 3.3352 33.3333 3.3352C34.8697 3.3352 36.3589 3.86585 37.5491 4.8374C38.7393 5.80896 39.5574 7.16177 39.865 8.66703C39.9419 9.04377 40.1467 9.38233 40.4447 9.62533C40.7427 9.86833 41.1155 10.0008 41.5 10.0004H45V16.667H21.6667V10.0004ZM45 20.0004C45.5825 19.9986 46.1543 19.8437 46.6581 19.5512C47.1618 19.2586 47.5798 18.8388 47.87 18.3337H60V50.5954L38.8333 85.0004H10V18.3337H18.7967C19.0869 18.8388 19.5049 19.2586 20.0086 19.5512C20.5123 19.8437 21.0842 19.9986 21.6667 20.0004H45ZM8.33333 91.667C7.00725 91.667 5.73548 91.1403 4.7978 90.2026C3.86012 89.2649 3.33333 87.9931 3.33333 86.667V16.667C3.33333 15.341 3.86012 14.0692 4.7978 13.1315C5.73548 12.1938 7.00725 11.667 8.33333 11.667H18.3333V15.0004H10C9.11595 15.0004 8.2681 15.3516 7.64298 15.9767C7.01786 16.6018 6.66667 17.4496 6.66667 18.3337V85.0004C6.66667 85.8844 7.01786 86.7323 7.64298 87.3574C8.2681 87.9825 9.11595 88.3337 10 88.3337H37.105C36.757 89.4085 36.6184 90.54 36.6967 91.667H8.33333ZM95.935 93.8454C95.4695 94.701 94.7814 95.4148 93.9435 95.9115C93.1056 96.4082 92.1491 96.6693 91.175 96.667H45.5C44.5263 96.6695 43.5701 96.4087 42.7325 95.9123C41.8949 95.4159 41.207 94.7023 40.7417 93.847C40.2406 92.9663 39.987 91.9664 40.0078 90.9532C40.0287 89.9401 40.3231 88.9515 40.86 88.092L63.6933 50.9537C64.1762 50.1546 64.8572 49.4937 65.6704 49.035C66.4835 48.5763 67.4014 48.3353 68.335 48.3353C69.2686 48.3353 70.1865 48.5763 70.9996 49.035C71.8128 49.4937 72.4938 50.1546 72.9767 50.9537L95.81 88.0954C96.3473 88.9535 96.6426 89.9409 96.6646 90.9531C96.6866 91.9654 96.4345 92.9647 95.935 93.8454Z" fill="#505772"/>
<path d="M68.333 55.0007C67.0069 55.0007 65.7351 55.5275 64.7974 56.4652C63.8598 57.4028 63.333 58.6746 63.333 60.0007V75.0007C63.333 76.3268 63.8598 77.5985 64.7974 78.5362C65.7351 79.4739 67.0069 80.0007 68.333 80.0007C69.6591 80.0007 70.9308 79.4739 71.8685 78.5362C72.8062 77.5985 73.333 76.3268 73.333 75.0007V60.0007C73.333 58.6746 72.8062 57.4028 71.8685 56.4652C70.9308 55.5275 69.6591 55.0007 68.333 55.0007ZM69.9996 75.0007C69.9996 75.4427 69.8241 75.8666 69.5115 76.1792C69.1989 76.4918 68.775 76.6674 68.333 76.6674C67.8909 76.6674 67.467 76.4918 67.1545 76.1792C66.8419 75.8666 66.6663 75.4427 66.6663 75.0007V60.0007C66.6663 59.5587 66.8419 59.1347 67.1545 58.8222C67.467 58.5096 67.8909 58.334 68.333 58.334C68.775 58.334 69.1989 58.5096 69.5115 58.8222C69.8241 59.1347 69.9996 59.5587 69.9996 60.0007V75.0007ZM68.333 83.334C67.3441 83.334 66.3774 83.6273 65.5551 84.1767C64.7329 84.7261 64.092 85.507 63.7136 86.4206C63.3351 87.3342 63.2361 88.3396 63.4291 89.3095C63.622 90.2794 64.0982 91.1703 64.7974 91.8696C65.4967 92.5688 66.3876 93.045 67.3575 93.238C68.3274 93.4309 69.3328 93.3319 70.2464 92.9534C71.16 92.575 71.9409 91.9341 72.4903 91.1119C73.0397 90.2896 73.333 89.3229 73.333 88.334C73.333 87.0079 72.8062 85.7362 71.8685 84.7985C70.9308 83.8608 69.6591 83.334 68.333 83.334ZM68.333 90.0007C68.0033 90.0007 67.6811 89.9029 67.407 89.7198C67.1329 89.5367 66.9193 89.2764 66.7932 88.9718C66.667 88.6673 66.634 88.3322 66.6983 88.0089C66.7626 87.6856 66.9214 87.3886 67.1545 87.1555C67.3876 86.9224 67.6845 86.7637 68.0078 86.6994C68.3311 86.6351 68.6662 86.6681 68.9708 86.7942C69.2753 86.9204 69.5356 87.134 69.7188 87.4081C69.9019 87.6822 69.9996 88.0044 69.9996 88.334C69.9996 88.7761 69.8241 89.2 69.5115 89.5125C69.1989 89.8251 68.775 90.0007 68.333 90.0007ZM33.333 31.6674H54.9996C55.4417 31.6674 55.8656 31.4918 56.1782 31.1792C56.4907 30.8666 56.6663 30.4427 56.6663 30.0007C56.6663 29.5587 56.4907 29.1347 56.1782 28.8222C55.8656 28.5096 55.4417 28.334 54.9996 28.334H33.333C32.8909 28.334 32.467 28.5096 32.1545 28.8222C31.8419 29.1347 31.6663 29.5587 31.6663 30.0007C31.6663 30.4427 31.8419 30.8666 32.1545 31.1792C32.467 31.4918 32.8909 31.6674 33.333 31.6674ZM33.333 38.334H43.333C43.775 38.334 44.1989 38.1584 44.5115 37.8459C44.824 37.5333 44.9996 37.1094 44.9996 36.6674C44.9996 36.2253 44.824 35.8014 44.5115 35.4888C44.1989 35.1763 43.775 35.0007 43.333 35.0007H33.333C32.8909 35.0007 32.467 35.1763 32.1545 35.4888C31.8419 35.8014 31.6663 36.2253 31.6663 36.6674C31.6663 37.1094 31.8419 37.5333 32.1545 37.8459C32.467 38.1584 32.8909 38.334 33.333 38.334ZM33.333 50.0007H54.9996C55.4417 50.0007 55.8656 49.8251 56.1782 49.5125C56.4907 49.2 56.6663 48.7761 56.6663 48.334C56.6663 47.892 56.4907 47.4681 56.1782 47.1555C55.8656 46.843 55.4417 46.6674 54.9996 46.6674H33.333C32.8909 46.6674 32.467 46.843 32.1545 47.1555C31.8419 47.4681 31.6663 47.892 31.6663 48.334C31.6663 48.7761 31.8419 49.2 32.1545 49.5125C32.467 49.8251 32.8909 50.0007 33.333 50.0007ZM33.333 56.6674H43.333C43.775 56.6674 44.1989 56.4918 44.5115 56.1792C44.824 55.8666 44.9996 55.4427 44.9996 55.0007C44.9996 54.5587 44.824 54.1347 44.5115 53.8222C44.1989 53.5096 43.775 53.334 43.333 53.334H33.333C32.8909 53.334 32.467 53.5096 32.1545 53.8222C31.8419 54.1347 31.6663 54.5587 31.6663 55.0007C31.6663 55.4427 31.8419 55.8666 32.1545 56.1792C32.467 56.4918 32.8909 56.6674 33.333 56.6674ZM33.333 68.334H44.9996C45.4417 68.334 45.8656 68.1584 46.1782 67.8459C46.4907 67.5333 46.6663 67.1094 46.6663 66.6674C46.6663 66.2253 46.4907 65.8014 46.1782 65.4889C45.8656 65.1763 45.4417 65.0007 44.9996 65.0007H33.333C32.8909 65.0007 32.467 65.1763 32.1545 65.4889C31.8419 65.8014 31.6663 66.2253 31.6663 66.6674C31.6663 67.1094 31.8419 67.5333 32.1545 67.8459C32.467 68.1584 32.8909 68.334 33.333 68.334ZM33.333 75.0007H39.9996C40.4417 75.0007 40.8656 74.8251 41.1782 74.5125C41.4907 74.2 41.6663 73.7761 41.6663 73.334C41.6663 72.892 41.4907 72.4681 41.1782 72.1555C40.8656 71.843 40.4417 71.6674 39.9996 71.6674H33.333C32.8909 71.6674 32.467 71.843 32.1545 72.1555C31.8419 72.4681 31.6663 72.892 31.6663 73.334C31.6663 73.7761 31.8419 74.2 32.1545 74.5125C32.467 74.8251 32.8909 75.0007 33.333 75.0007ZM15.488 35.489C15.1755 35.8016 15 36.2254 15 36.6674C15 37.1093 15.1755 37.5332 15.488 37.8457L18.8213 41.179C19.1338 41.4916 19.5577 41.6673 19.9996 41.6674C20.089 41.6676 20.1782 41.6604 20.2663 41.6457C20.5272 41.6036 20.7744 41.5 20.9874 41.3435C21.2004 41.187 21.3731 40.9821 21.4913 40.7457L28.158 27.4124C28.2558 27.2165 28.3141 27.0032 28.3295 26.7848C28.345 26.5664 28.3172 26.3471 28.2479 26.1394C28.1785 25.9317 28.069 25.7397 27.9254 25.5743C27.7819 25.409 27.6072 25.2735 27.4113 25.1757C27.2154 25.0779 27.0022 25.0196 26.7838 25.0041C26.5653 24.9887 26.346 25.0165 26.1383 25.0858C25.9306 25.1551 25.7386 25.2647 25.5733 25.4082C25.4079 25.5518 25.2725 25.7265 25.1746 25.9224L19.543 37.1874L17.8446 35.489C17.5321 35.1766 17.1083 35.0011 16.6663 35.0011C16.2244 35.0011 15.8005 35.1766 15.488 35.489ZM27.4113 43.509C27.2154 43.4111 27.0022 43.3527 26.7838 43.3373C26.5653 43.3218 26.346 43.3495 26.1382 43.4189C25.9305 43.4882 25.7385 43.5978 25.5732 43.7414C25.4078 43.885 25.2724 44.0597 25.1746 44.2557L19.543 55.5207L17.8446 53.8224C17.5303 53.5188 17.1093 53.3508 16.6723 53.3546C16.2353 53.3584 15.8173 53.5336 15.5083 53.8427C15.1993 54.1517 15.024 54.5697 15.0202 55.0067C15.0164 55.4437 15.1844 55.8647 15.488 56.179L18.8213 59.5124C19.1338 59.8249 19.5577 60.0006 19.9996 60.0007C20.089 60.0009 20.1782 59.9937 20.2663 59.979C20.5272 59.9369 20.7744 59.8333 20.9874 59.6768C21.2004 59.5203 21.3731 59.3154 21.4913 59.079L28.158 45.7457C28.2559 45.5498 28.3143 45.3366 28.3297 45.1181C28.3452 44.8997 28.3175 44.6803 28.2481 44.4726C28.1788 44.2649 28.0692 44.0729 27.9256 43.9076C27.782 43.7422 27.6073 43.6068 27.4113 43.509ZM27.4113 61.834C27.2154 61.7361 27.0022 61.6777 26.7838 61.6623C26.5653 61.6468 26.346 61.6745 26.1382 61.7439C25.9305 61.8132 25.7385 61.9228 25.5732 62.0664C25.4078 62.21 25.2724 62.3847 25.1746 62.5807L19.543 73.8457L17.8446 72.1474C17.5303 71.8438 17.1093 71.6758 16.6723 71.6796C16.2353 71.6834 15.8173 71.8587 15.5083 72.1677C15.1993 72.4767 15.024 72.8947 15.0202 73.3317C15.0164 73.7687 15.1844 74.1897 15.488 74.504L18.8213 77.8374C18.9754 77.9936 19.1587 78.118 19.361 78.2032C19.5632 78.2884 19.7802 78.3329 19.9996 78.334C20.089 78.3343 20.1782 78.327 20.2663 78.3124C20.5272 78.2702 20.7744 78.1666 20.9874 78.0102C21.2004 77.8537 21.3731 77.6488 21.4913 77.4124L28.158 64.079C28.2572 63.8828 28.3166 63.6688 28.3328 63.4495C28.3489 63.2301 28.3215 63.0098 28.2521 62.8011C28.1827 62.5924 28.0726 62.3995 27.9283 62.2335C27.784 62.0675 27.6083 61.9318 27.4113 61.834Z" fill="#505772"/>
</g>
</g>
<defs>
<clipPath id="clip0_516_11214">
<rect width="100" height="100" fill="white"/>
</clipPath>
<clipPath id="clip1_516_11214">
<rect width="100" height="100" fill="white"/>
</clipPath>
</defs>
</svg>
