<svg width="87" height="100" viewBox="0 0 87 100" fill="none" xmlns="http://www.w3.org/2000/svg">
<path d="M27.9717 64.4675L40.634 77.8H46.0031V82.4675H40.4997L27.9717 95.7675L31.3871 99.0325L49.2495 80.0325L31.3871 61.2L27.9717 64.4675ZM31.3871 14.1325H33.4751C32.3466 6.70003 25.9832 0.967529 18.2949 0.967529C9.77631 0.967529 2.88342 7.93253 2.88342 16.4675C2.88342 25.0325 9.81111 31.9675 18.2949 31.9675C26.018 31.9675 32.3466 26.2325 33.4751 18.8H31.3871V14.1325ZM18.2625 27.3325C12.3291 27.3325 7.48945 22.4675 7.48945 16.5C7.48945 10.5325 12.3291 5.66753 18.2625 5.66753C24.1935 5.66753 29.0331 10.5325 29.0331 16.5C29.0331 22.4675 24.2283 27.3325 18.2625 27.3325V27.3325ZM67.9097 64.6C59.3912 64.6 52.4983 71.5675 52.4983 80.1C52.4983 88.6325 59.426 95.6 67.9097 95.6C76.3935 95.6 83.3211 88.6325 83.3211 80.1C83.3211 71.5675 76.3935 64.6 67.9097 64.6V64.6ZM67.9097 90.9675C61.9763 90.9675 57.1391 86.1 57.1391 80.1325C57.1391 74.1675 61.9763 69.3 67.9097 69.3C73.8431 69.3 78.6803 74.1675 78.6803 80.1325C78.6803 86.1 73.8431 90.9675 67.9097 90.9675Z" fill="#505772"/>
<path d="M46.0031 77.8H40.634H7.48948V51.0675H78.6157H82.0957H83.254V14.1325H82.6923H78.6157H33.4751H31.3871V18.8H33.4751H78.6157V46.4H7.48948H6.09748H2.85114V82.4675H3.44771H7.48948H40.4998H46.0031V77.8Z" fill="#505772"/>
</svg>
