<svg width="95" height="80" viewBox="0 0 95 80" fill="none" xmlns="http://www.w3.org/2000/svg">
<path d="M67.8581 30.6111C65.6709 30.9657 63.8109 31.1293 62.0218 31.1293C57.1763 31.1293 52.3763 30.1184 47.7418 28.1184C47.2945 27.9293 46.7527 27.9293 46.3054 28.1184C40.0691 30.8711 33.5782 31.8347 26.3054 30.6347C25.4109 30.4947 24.5418 31.0347 24.2818 31.882C23.3182 35.082 22.8236 38.6347 22.8236 42.4238C22.8236 58.0002 32.0472 72.1184 46.3054 78.4002C46.5418 78.4947 46.7781 78.542 47.0345 78.542C47.2709 78.542 47.5291 78.4947 47.7654 78.4002C62.0927 72.142 71.3418 58.0238 71.3418 42.4238C71.3418 38.6347 70.8472 35.082 69.8818 31.882C69.6 31.0111 68.7291 30.4947 67.8581 30.6111V30.6111ZM47.0109 74.8002C34.4727 68.942 26.4 56.3293 26.4 42.4475C26.4 39.6002 26.7054 36.8947 27.2945 34.4238C34.3763 35.342 40.7763 34.3293 47.0109 31.7184C51.8836 33.7184 56.9181 34.7293 62 34.7293C63.5291 34.7293 65.0818 34.6347 66.8 34.4002C67.3891 36.8711 67.6945 39.5766 67.6945 42.4238C67.7181 56.3529 59.6218 68.9657 47.0109 74.8002Z" fill="#505772"/>
<path d="M55.9527 41.789C55.1054 41.2472 54 41.5054 53.4818 42.329L45.0109 55.6472L40.5654 50.0944C39.9527 49.3181 38.8 49.1999 38.0472 49.8108C37.2709 50.4235 37.1527 51.5526 37.7654 52.329L43.789 59.8344C44.1418 60.2581 44.6345 60.5181 45.2 60.5181H45.2945C45.8818 60.4944 46.3999 60.189 46.7054 59.6944L56.5418 44.2581C57.0345 43.4344 56.7781 42.3308 55.9527 41.789V41.789Z" fill="#505772"/>
<path d="M77.6236 22.1183C76.1654 12.3765 67.6945 4.94198 57.7182 4.94198C55.2709 4.94198 52.7054 5.43471 50.3763 6.32925C46.2363 3.17652 41.1291 1.43652 35.8818 1.43652C23.3182 1.43652 13.1545 10.9911 12.2582 23.3911C5.88179 26.1674 1.69452 32.5438 1.69452 39.6492C1.69452 49.4129 9.64725 57.3674 19.4109 57.3674H20.7527V53.8602H19.4109C11.5763 53.8602 5.19997 47.4838 5.19997 39.6492C5.19997 33.6256 8.96361 28.2602 14.5418 26.2602C15.2236 26.0238 15.6945 25.3911 15.6945 24.6602C15.9763 13.602 24.8472 4.9438 35.8818 4.9438C40.6818 4.9438 45.3182 6.63652 48.9654 9.67107C49.4818 10.0965 50.1891 10.1911 50.8236 9.93107C52.9418 8.96743 55.3873 8.44925 57.7182 8.44925C66.3545 8.44925 73.6454 15.202 74.3054 23.8129C74.3782 24.6602 75.0345 25.3438 75.9054 25.4129C83.2 26.0729 88.9418 32.3074 88.9418 39.6256C88.9418 47.462 82.5182 53.8365 74.6345 53.8365H73.2945V57.3438H74.6345C84.4709 57.3438 92.4473 49.3911 92.4473 39.6256C92.4236 31.0129 86.0236 23.5783 77.6236 22.1202V22.1183Z" fill="#505772"/>
</svg>
