<svg width="200" height="200" viewBox="0 0 200 200" fill="none" xmlns="http://www.w3.org/2000/svg">
<path d="M74.3851 39.5111V69.66C74.3851 69.66 85.9774 62.1383 102.505 61.6023C119.033 61.0664 131.199 71.6699 131.199 71.6699V39.5111" stroke="#505772" stroke-width="6"/>
<path d="M100.512 49.0119L66.2198 34.6873L100.512 20.3628C100.99 20.1631 101.814 20 102.792 20C103.771 20 104.594 20.1631 105.072 20.3628L139.364 34.6873L105.072 49.0119C104.594 49.2116 103.771 49.3747 102.792 49.3747C101.814 49.3747 100.99 49.2116 100.512 49.0119Z" stroke="#505772" stroke-width="6"/>
<path d="M140.847 37.3672L140.847 57.7345" stroke="#505772" stroke-width="6" stroke-linecap="round"/>
<path d="M55.0898 43.799H37.075C30.4476 43.799 25.075 49.1716 25.075 55.799V136.851C25.075 143.478 30.4475 148.851 37.075 148.851H164.221C170.849 148.851 176.221 143.478 176.221 136.851V55.799C176.221 49.1716 170.849 43.799 164.221 43.799H149.422" stroke="#505772" stroke-width="6" stroke-linecap="round"/>
<mask id="path-5-inside-1_43_2" fill="white">
<rect x="4" y="156.467" width="193.66" height="17.533" rx="4"/>
</mask>
<rect x="4" y="156.467" width="193.66" height="17.533" rx="4" stroke="#505772" stroke-width="12" mask="url(#path-5-inside-1_43_2)"/>
<path d="M65.8094 93.1092C77.4223 81.7842 107.616 65.9292 135.487 93.1092" stroke="#505772" stroke-width="6" stroke-linecap="round"/>
<path d="M77.601 102.757C85.462 95.4764 105.901 85.284 124.767 102.757" stroke="#505772" stroke-width="6" stroke-linecap="round"/>
<path d="M85.1047 114.548C90.2859 109.695 103.757 102.9 116.192 114.548" stroke="#505772" stroke-width="6" stroke-linecap="round"/>
<circle cx="100.648" cy="126.876" r="5.0397" stroke="#505772" stroke-width="6"/>
</svg>
