<svg width="127" height="110" viewBox="0 0 127 110" fill="none" xmlns="http://www.w3.org/2000/svg">
<g clip-path="url(#clip0_3_1772)">
<path d="M115.508 43.4871C109.212 43.5196 104.14 48.6246 104.14 54.9521C104.11 61.3421 109.402 66.6021 115.757 66.5096C121.99 66.4171 127.03 61.2471 127 54.8896C126.938 48.7196 121.676 43.4896 115.508 43.4896V43.4871ZM115.351 61.7171C111.939 61.6246 108.901 58.4596 108.901 55.0771C108.931 51.5071 112.093 48.3746 115.632 48.4371C119.295 48.4996 122.239 51.5371 122.176 55.2021C122.114 58.8046 118.951 61.8121 115.351 61.7171ZM39.4321 86.9746C33.0073 86.9446 27.9398 91.9646 27.9398 98.3621C27.9398 104.855 33.0721 110 39.5591 110C45.6052 110 50.7375 104.792 50.7998 98.5821C50.8322 92.2771 45.6974 87.0071 39.4321 86.9771V86.9746ZM39.3374 105.075C35.6868 105.107 32.6637 102.065 32.6936 98.4246C32.6936 94.6921 35.5598 91.9321 39.4321 91.9946C43.1474 92.0571 46.1058 95.0996 46.0136 98.7071C45.9514 102.095 42.8635 105.045 39.3399 105.075H39.3374ZM36.8622 23.0246C43.2122 22.9921 48.2274 17.9996 48.2598 11.6521C48.2897 5.11709 43.2769 -0.0329107 36.7999 0.00208932C30.2905 0.00208932 25.3375 5.08459 25.3998 11.6846C25.4944 18.1271 30.4773 23.0546 36.8622 23.0221V23.0246ZM37.0166 4.95709C40.6273 5.05209 43.5259 8.05209 43.5558 11.7471C43.5882 15.3796 40.5352 18.3796 36.8921 18.3171C33.2489 18.2846 30.3827 15.2546 30.3827 11.5596C30.4151 7.89459 33.4357 4.86459 37.0166 4.95959V4.95709ZM22.8598 54.9021C22.8274 48.4521 17.7898 43.4571 11.3352 43.4871C4.81833 43.5196 -0.0624595 48.4521 -0.000204578 54.9996C0.0645405 61.5446 5.28897 66.6671 11.7784 66.5096C17.979 66.3846 22.8922 61.2296 22.8598 54.9046V54.9021ZM11.3675 61.6696C7.87131 61.6371 4.88058 58.6346 4.78595 55.0946C4.69133 51.3621 7.6198 48.2946 11.3028 48.2621C15.0182 48.2321 18.0736 51.2371 18.106 54.8721C18.106 58.4771 14.8937 61.7321 11.3675 61.6721V61.6696ZM90.1698 86.9746C83.8572 86.9746 78.7099 92.1796 78.7398 98.5196C78.7722 104.985 83.7949 110 90.1698 110C96.5746 110 101.63 104.922 101.6 98.5196C101.6 92.0546 96.5123 86.9446 90.1698 86.9771V86.9746ZM90.2022 105.142C86.432 105.112 83.5758 102.272 83.5758 98.5196C83.5758 94.8621 86.6213 91.7396 90.1698 91.7696C93.6561 91.8021 96.8884 95.0196 96.9207 98.5196C96.9531 102.085 93.813 105.175 90.2022 105.145V105.142ZM90.1225 23.0246C96.4725 22.9596 101.632 17.7746 101.6 11.4796C101.567 5.05959 96.475 -0.0629107 90.12 -0.000410677C83.6106 0.0320893 78.7373 4.96459 78.7373 11.4796C78.7996 17.9946 83.7675 23.0846 90.12 23.0221L90.1225 23.0246ZM89.8087 4.89959C93.7059 4.77459 96.8211 7.71709 96.851 11.5421C96.8834 15.1471 93.7706 18.3096 90.1847 18.3421C86.569 18.3746 83.5832 15.3371 83.5185 11.5746C83.4562 7.93709 86.193 5.02959 89.8087 4.89959ZM96.5198 84.7071C97.7201 85.4446 98.8656 86.1246 100.26 86.9771C103.33 81.6121 106.234 76.5321 109.22 71.2821C107.825 70.4596 106.652 69.7796 105.452 69.0696C102.382 74.4321 99.5055 79.4846 96.5198 84.7071ZM96.5198 25.2971C99.5329 30.5846 102.464 35.7271 105.452 40.9296C106.764 40.1621 107.825 39.5371 109.22 38.7421C106.177 33.4271 103.276 28.3096 100.26 23.0221C98.8656 23.8471 97.7749 24.5296 96.5198 25.2971ZM30.4798 25.2071C29.1675 24.4421 28.0245 23.7896 26.7121 23.0221L17.7798 38.6871C19.0349 39.4546 20.0957 40.1071 21.408 40.9296C24.5357 35.5371 27.4642 30.4296 30.4798 25.2071ZM21.4578 69.0696C20.0982 69.8946 19.0523 70.5446 17.7798 71.3121C20.778 76.5621 23.7189 81.6971 26.7196 86.9771C28.0195 86.1821 29.2073 85.4446 30.4798 84.6496C27.3969 79.3146 24.4535 74.2071 21.4578 69.0696ZM73.6598 7.67459H53.3398V12.7896H73.6598V7.67459ZM53.3398 102.325H73.6598V97.2096H53.3398V102.325Z" fill="#505772"/>
</g>
<path d="M37 46.5V69C39.1667 72.3333 47.1 78.9 61.5 78.5C75.9 78.1 84.1667 73 86.5 70.5V46.5" stroke="#505772" stroke-width="4"/>
<path d="M59.7484 54.6422L28.5642 42L59.7484 29.3578C60.27 29.1463 61.0841 29 62 29C62.9159 29 63.73 29.1463 64.2516 29.3578L95.4358 42L64.2516 54.6422C63.73 54.8537 62.9159 55 62 55C61.0841 55 60.27 54.8537 59.7484 54.6422Z" stroke="#505772" stroke-width="4"/>
<path d="M97 42.5V52.5" stroke="#505772" stroke-width="4"/>
<path d="M100 58C100 59.5642 99.5441 60.8968 98.9081 61.7873C98.2693 62.6815 97.5672 63 97 63C96.4328 63 95.7307 62.6815 95.0919 61.7873C94.4559 60.8968 94 59.5642 94 58C94 56.4358 94.4559 55.1032 95.0919 54.2127C95.7307 53.3185 96.4328 53 97 53C97.5672 53 98.2693 53.3185 98.9081 54.2127C99.5441 55.1032 100 56.4358 100 58Z" stroke="#505772" stroke-width="4"/>
<defs>
<clipPath id="clip0_3_1772">
<rect width="127" height="110" fill="white"/>
</clipPath>
</defs>
</svg>
