<svg width="116" height="100" viewBox="0 0 116 100" fill="none" xmlns="http://www.w3.org/2000/svg">
<g clip-path="url(#clip0_24_129)">
<path d="M105.552 39.5339C99.8293 39.5634 95.2179 44.2043 95.2179 49.9566C95.1908 55.7657 100.001 60.5475 105.779 60.4634C111.445 60.3793 116.027 55.6793 116 49.8998C115.943 44.2907 111.16 39.5361 105.552 39.5361V39.5339ZM105.41 56.1066C102.308 56.0225 99.5464 53.1452 99.5464 50.0702C99.5735 46.8248 102.449 43.9771 105.665 44.0339C108.996 44.0907 111.671 46.852 111.615 50.1839C111.558 53.4589 108.683 56.193 105.41 56.1066ZM36.3927 79.068C30.5521 79.0407 25.9452 83.6043 25.9452 89.4202C25.9452 95.3225 30.6109 99.9998 36.5082 99.9998C42.0047 99.9998 46.6704 95.2657 46.727 89.6202C46.7565 83.8884 42.0885 79.0975 36.3927 79.0702V79.068ZM36.3067 95.5225C32.9879 95.552 30.2397 92.7861 30.2668 89.477C30.2668 86.0839 32.8725 83.5748 36.3927 83.6316C39.7703 83.6884 42.4597 86.4543 42.376 89.7339C42.3194 92.8134 39.5123 95.4952 36.309 95.5225H36.3067ZM34.0565 20.9316C39.8292 20.9021 44.3885 16.3634 44.4179 10.593C44.4451 4.65205 39.888 -0.0297634 33.9999 0.00205475C28.0823 0.00205475 23.5795 4.62251 23.6361 10.6225C23.7221 16.4793 28.252 20.9589 34.0565 20.9293V20.9316ZM34.1968 4.5066C37.4794 4.59296 40.1144 7.32024 40.1416 10.6793C40.171 13.9816 37.3956 16.7089 34.0836 16.6521C30.7717 16.6225 28.166 13.868 28.166 10.5089C28.1954 7.17705 30.9415 4.42251 34.1968 4.50887V4.5066ZM21.327 49.9111C21.2976 44.0475 16.7179 39.5066 10.8501 39.5339C4.92569 39.5634 0.488618 44.0475 0.545213 49.9998C0.604072 55.9498 5.35356 60.6066 11.2531 60.4634C16.89 60.3498 21.3565 55.6634 21.327 49.9134V49.9111ZM10.8795 56.0634C7.70113 56.0339 4.98229 53.3043 4.89626 50.0861C4.81024 46.693 7.47249 43.9043 10.8207 43.8748C14.1983 43.8475 16.976 46.5793 17.0054 49.8839C17.0054 53.1611 14.0851 56.1202 10.8795 56.0657V56.0634ZM82.5179 79.068C76.7792 79.068 72.0999 83.7998 72.127 89.5634C72.1565 95.4407 76.7226 99.9998 82.5179 99.9998C88.3405 99.9998 92.936 95.3839 92.9089 89.5634C92.9089 83.6861 88.2839 79.0407 82.5179 79.0702V79.068ZM82.5474 95.5839C79.12 95.5566 76.5234 92.9748 76.5234 89.5634C76.5234 86.2384 79.292 83.3998 82.5179 83.427C85.6873 83.4566 88.6257 86.3816 88.6551 89.5634C88.6846 92.8043 85.8299 95.6134 82.5474 95.5861V95.5839ZM82.4749 20.9316C88.2477 20.8725 92.9383 16.1589 92.9089 10.4361C92.8794 4.59978 88.2499 -0.0570362 82.4727 -0.000217981C76.5551 0.0293275 72.1248 4.51342 72.1248 10.4361C72.1814 16.3589 76.6977 20.9861 82.4727 20.9293L82.4749 20.9316ZM82.1897 4.45433C85.7326 4.34069 88.5646 7.01569 88.5918 10.493C88.6212 13.7702 85.7914 16.6452 82.5315 16.6748C79.2445 16.7043 76.5302 13.943 76.4713 10.5225C76.4147 7.21569 78.9026 4.57251 82.1897 4.45433ZM88.2907 77.0066C89.3818 77.677 90.4232 78.2952 91.6909 79.0702C94.4822 74.193 97.1218 69.5748 99.8361 64.802C98.5684 64.0543 97.5021 63.4361 96.411 62.7907C93.6197 67.6657 91.005 72.2589 88.2907 77.0066ZM88.2907 22.9975C91.0299 27.8043 93.6944 32.4793 96.411 37.2089C97.604 36.5111 98.5684 35.943 99.8361 35.2202C97.0697 30.3884 94.4324 25.7361 91.6909 20.9293C90.4232 21.6793 89.4316 22.2998 88.2907 22.9975ZM28.2543 22.9157C27.0613 22.2202 26.0222 21.6271 24.8292 20.9293L16.7088 35.1702C17.8498 35.868 18.8142 36.4611 20.0072 37.2089C22.8506 32.3066 25.5128 27.6634 28.2543 22.9157ZM20.0525 62.7907C18.8165 63.5407 17.8657 64.1316 16.7088 64.8293C19.4345 69.602 22.108 74.2702 24.8359 79.0702C26.0177 78.3475 27.0975 77.677 28.2543 76.9543C25.4517 72.1043 22.7759 67.4611 20.0525 62.7907ZM67.5088 6.97705H49.0361V11.6271H67.5088V6.97705ZM49.0361 93.0225H67.5088V88.3725H49.0361V93.0225Z" fill="#505772"/>
</g>
<path d="M34.1818 42.2727V62.7273C36.1515 65.7576 43.3636 71.7273 56.4546 71.3636C69.5455 71 77.0606 66.3636 79.1818 64.0909V42.2727" stroke="#505772" stroke-width="4"/>
<path d="M54.9306 49.5063L26.9969 38.1818L54.9306 26.8574C55.3768 26.6765 56.092 26.5455 56.9091 26.5455C57.7263 26.5455 58.4415 26.6765 58.8877 26.8574L86.8214 38.1818L58.8877 49.5063C58.4415 49.6872 57.7263 49.8182 56.9091 49.8182C56.092 49.8182 55.3768 49.6872 54.9306 49.5063Z" stroke="#505772" stroke-width="4"/>
<path d="M88.7273 38.6364V47.7273" stroke="#505772" stroke-width="4"/>
<path d="M91.2727 52.7273C91.2727 54.1158 90.8677 55.2893 90.3139 56.0646C89.7574 56.8437 89.1689 57.0909 88.7273 57.0909C88.2856 57.0909 87.6971 56.8437 87.1406 56.0646C86.5869 55.2893 86.1818 54.1158 86.1818 52.7273C86.1818 51.3388 86.5869 50.1653 87.1406 49.39C87.6971 48.6109 88.2856 48.3636 88.7273 48.3636C89.1689 48.3636 89.7574 48.6109 90.3139 49.39C90.8677 50.1653 91.2727 51.3388 91.2727 52.7273Z" stroke="#505772" stroke-width="4"/>
<defs>
<clipPath id="clip0_24_129">
<rect width="115.455" height="100" fill="white" transform="translate(0.545471)"/>
</clipPath>
</defs>
</svg>
