<svg width="117" height="100" viewBox="0 0 117 100" fill="none" xmlns="http://www.w3.org/2000/svg">
<path d="M84.6839 37.8372C81.8761 38.297 79.4885 38.5093 77.1919 38.5093C70.972 38.5093 64.8105 37.1982 58.8613 34.6043C58.2871 34.3591 57.5916 34.3591 57.0175 34.6043C49.0121 38.1744 40.68 39.4242 31.3443 37.8679C30.196 37.6863 29.0804 38.3866 28.7466 39.4855C27.5096 43.6357 26.8748 48.2433 26.8748 53.1574C26.8748 73.3588 38.7148 91.669 57.0175 99.8161C57.3209 99.9387 57.6243 100 57.9534 100C58.2568 100 58.5882 99.9387 58.8916 99.8161C77.283 91.6997 89.1557 73.3895 89.1557 53.1574C89.1557 48.2433 88.5208 43.6357 87.2815 39.4855C86.9198 38.356 85.8018 37.6863 84.6839 37.8372V37.8372ZM57.9231 95.1472C41.8283 87.5495 31.4657 71.1918 31.4657 53.1881C31.4657 49.4954 31.8578 45.9866 32.6139 42.782C41.7046 43.9729 49.92 42.6594 57.9231 39.2733C64.178 41.8671 70.6406 43.1782 77.1639 43.1782C79.1268 43.1782 81.12 43.0556 83.3255 42.7514C84.0817 45.956 84.4738 49.4647 84.4738 53.1574C84.5041 71.2224 74.1112 87.5802 57.9231 95.1472Z" fill="#505772"/>
<path d="M69.4013 52.3344C68.3137 51.6317 66.8947 51.9665 66.2295 53.0347L55.3557 70.3074L49.6493 63.1059C48.8627 62.0991 47.383 61.9458 46.4168 62.7381C45.4202 63.5327 45.2685 64.9971 46.055 66.004L53.7873 75.738C54.2401 76.2874 54.8726 76.6246 55.5985 76.6246H55.7198C56.4737 76.594 57.1388 76.1978 57.5309 75.5564L70.1575 55.5366C70.79 54.4684 70.4609 53.0371 69.4013 52.3344V52.3344Z" fill="#505772"/>
<path d="M97.2193 26.8228C95.3475 14.1884 84.4737 4.54631 71.6675 4.54631C68.526 4.54631 65.2329 5.18534 62.2431 6.3455C56.9287 2.25665 50.3727 0 43.637 0C27.5096 0 14.4629 12.3915 13.3123 28.4734C5.12723 32.0741 -0.247803 40.3438 -0.247803 49.559C-0.247803 62.2217 9.96079 72.5382 22.494 72.5382H24.2164V67.9895H22.494C12.4371 67.9895 4.25201 59.7198 4.25201 49.559C4.25201 41.7468 9.08324 34.7882 16.2437 32.1944C17.1189 31.8878 17.7234 31.0672 17.7234 30.1193C18.0852 15.7777 29.4724 4.54867 43.637 4.54867C49.7986 4.54867 55.7501 6.74401 60.432 10.6796C61.0948 11.2314 62.0027 11.354 62.8172 11.0168C65.5363 9.76702 68.6754 9.09498 71.6675 9.09498C82.7536 9.09498 92.1127 17.8528 92.9599 29.0205C93.0533 30.1193 93.8958 31.0059 95.0138 31.0955C104.377 31.9515 111.748 40.0372 111.748 49.5284C111.748 59.6915 103.502 67.9589 93.3823 67.9589H91.6622V72.5075H93.3823C106.009 72.5075 116.248 62.1934 116.248 49.5284C116.217 38.3583 108.002 28.7163 97.2193 26.8251V26.8228Z" fill="#505772"/>
</svg>
