<svg width="100" height="85" viewBox="0 0 100 85" fill="none" xmlns="http://www.w3.org/2000/svg">
<path d="M71.7731 32.3769C69.4596 32.7519 67.4923 32.9249 65.6 32.9249C60.475 32.9249 55.3981 31.8557 50.4961 29.7403C50.0231 29.5403 49.45 29.5403 48.9769 29.7403C42.3808 32.6519 35.5154 33.6711 27.8231 32.4019C26.8769 32.2538 25.9577 32.8249 25.6827 33.7211C24.6635 37.1057 24.1404 40.8634 24.1404 44.8711C24.1404 61.3461 33.8961 76.2788 48.9769 82.923C49.2269 83.023 49.4769 83.073 49.7481 83.073C49.9981 83.073 50.2711 83.023 50.5211 82.923C65.675 76.3038 75.4577 61.3711 75.4577 44.8711C75.4577 40.8634 74.9346 37.1057 73.9135 33.7211C73.6154 32.7999 72.6942 32.2538 71.7731 32.3769V32.3769ZM49.7231 79.1153C36.4615 72.9192 27.9231 59.5788 27.9231 44.8961C27.9231 41.8846 28.2461 39.023 28.8692 36.4096C36.3596 37.3807 43.1288 36.3096 49.7231 33.548C54.8769 35.6634 60.2019 36.7326 65.5769 36.7326C67.1942 36.7326 68.8365 36.6326 70.6538 36.3846C71.2769 38.998 71.6 41.8596 71.6 44.8711C71.625 59.6038 63.0615 72.9442 49.7231 79.1153Z" fill="#505772"/>
<path d="M59.1807 44.2C58.2846 43.6269 57.1154 43.9 56.5673 44.7711L47.6077 58.8577L42.9057 52.9846C42.2577 52.1634 41.0384 52.0384 40.2423 52.6846C39.4211 53.3327 39.2961 54.5269 39.9442 55.348L46.3154 63.2865C46.6884 63.7346 47.2096 64.0096 47.8077 64.0096H47.9077C48.5288 63.9846 49.0769 63.6615 49.4 63.1384L59.8038 46.8115C60.325 45.9403 60.0538 44.773 59.1807 44.2V44.2Z" fill="#505772"/>
<path d="M82.1019 23.394C80.5596 13.0902 71.6 5.22674 61.0481 5.22674C58.4596 5.22674 55.7461 5.74789 53.2827 6.69404C48.9038 3.35943 43.5019 1.51904 37.9519 1.51904C24.6635 1.51904 13.9135 11.6248 12.9654 24.7402C6.22114 27.6767 1.7923 34.421 1.7923 41.9363C1.7923 52.2633 10.2038 60.6767 20.5308 60.6767H21.95V56.9671H20.5308C12.2442 56.9671 5.49999 50.2229 5.49999 41.9363C5.49999 35.5652 9.48076 29.8902 15.3808 27.7748C16.1019 27.5248 16.6 26.8556 16.6 26.0825C16.8981 14.3864 26.2808 5.22866 37.9519 5.22866C43.0288 5.22866 47.9327 7.01904 51.7904 10.2287C52.3365 10.6787 53.0846 10.7787 53.7558 10.5037C55.9961 9.48443 58.5827 8.93635 61.0481 8.93635C70.1827 8.93635 77.8942 16.0787 78.5923 25.1864C78.6692 26.0825 79.3635 26.8056 80.2846 26.8787C88 27.5767 94.0731 34.171 94.0731 41.9114C94.0731 50.1998 87.2788 56.9421 78.9404 56.9421H77.5231V60.6517H78.9404C89.3442 60.6517 97.7808 52.2402 97.7808 41.9114C97.7558 32.8017 90.9865 24.9383 82.1019 23.396V23.394Z" fill="#505772"/>
</svg>
