<svg width="82" height="78" viewBox="0 0 82 78" fill="none" xmlns="http://www.w3.org/2000/svg">
<path d="M80.2637 34.7891L73.2091 33.8C72.9782 32.6218 72.6419 31.4 72.2419 30.2418L77.8637 25.8636C78.3691 25.4636 78.4946 24.7909 78.1782 24.2418L73.7164 16.5145C73.4001 15.9691 72.7255 15.7582 72.1582 15.9691L65.5473 18.6418C64.7255 17.7145 63.8637 16.8309 62.9364 16.0309L65.6091 9.4218C65.8419 8.85271 65.6091 8.17817 65.0637 7.86362L57.3364 3.39998C56.831 3.08362 56.1364 3.21089 55.7582 3.69453L51.3782 9.31635C50.2001 8.91635 49.0001 8.59998 47.8219 8.34726L46.831 1.29453C46.7473 0.68362 46.2219 0.221802 45.5891 0.221802H36.6837C36.0528 0.221802 35.5255 0.68362 35.4419 1.29453L34.4528 8.34907C33.2746 8.57817 32.0528 8.91635 30.8946 9.31635L26.4746 3.69453C26.0746 3.21089 25.4001 3.06362 24.8528 3.37817L17.1055 7.8418C16.5582 8.15816 16.3473 8.83089 16.5582 9.39998L19.231 16.0109C18.3037 16.8309 17.4219 17.7163 16.6219 18.6218L10.031 15.9491C9.46369 15.7163 8.78915 15.9491 8.4746 16.4945L4.01097 24.2218C3.6946 24.7673 3.82187 25.4418 4.32551 25.8418L9.94733 30.2218C9.54733 31.4 9.23096 32.6 8.97824 33.7782L1.92551 34.7691C1.31642 34.8527 0.852783 35.3782 0.852783 36.0109V44.9163C0.852783 45.5473 1.31642 46.0745 1.92551 46.1582L8.98006 47.1473C9.21097 48.3254 9.54733 49.5473 9.94733 50.7054L4.32733 55.1254C3.82369 55.5254 3.69642 56.2 4.01278 56.7473L8.47642 64.4745C8.79097 65.02 9.44369 65.2309 10.0328 65.02L16.6437 62.3473C17.4655 63.2745 18.3491 64.1582 19.2546 64.9582L16.5819 71.5691C16.3491 72.1363 16.5819 72.8109 17.1273 73.1254L24.8546 77.5891C25.0655 77.6945 25.2546 77.7582 25.4855 77.7582C25.8655 77.7582 26.2237 77.5891 26.4764 77.2745L31.4219 70.9363L29.4437 69.4L25.171 74.8727L19.3382 71.5054L21.9491 65.0836C22.1601 64.5782 22.0128 64.0109 21.591 63.6527C20.2855 62.5582 19.0855 61.3363 17.991 60.0527C17.6328 59.6527 17.0637 59.5054 16.5601 59.6945L10.1382 62.3054L6.74915 56.4327L12.2219 52.1582C12.6437 51.8218 12.8128 51.2527 12.6219 50.7473C12.0328 49.1054 11.591 47.4636 11.2964 45.82C11.2128 45.2745 10.7691 44.8745 10.2437 44.7891L3.38006 43.8218V37.0836L10.2437 36.1163C10.791 36.0309 11.2128 35.6309 11.2982 35.0836C11.591 33.4418 12.0328 31.8 12.6237 30.1563C12.8128 29.6527 12.6437 29.0836 12.2237 28.7473L6.75097 24.4745L10.1182 18.6418L16.5382 21.2527C17.0437 21.4636 17.611 21.3163 17.971 20.8945C19.0655 19.5891 20.2655 18.3891 21.571 17.2945C21.971 16.9363 22.1164 16.3673 21.9273 15.8636L19.3182 9.4418L25.1491 6.07453L29.4219 11.5473C29.7601 11.9691 30.3273 12.1363 30.8328 11.9473C32.4546 11.3782 34.0964 10.9163 35.7601 10.62C36.3055 10.5363 36.7055 10.0945 36.791 9.56907L37.7601 2.70544H44.4964L45.4655 9.56907C45.5491 10.1145 45.9492 10.5363 46.4964 10.6218C48.1601 10.9163 49.8019 11.3582 51.4237 11.9491C51.9273 12.1363 52.4964 11.9673 52.8328 11.5491L57.1055 6.07453L62.9382 9.4418L60.3273 15.8636C60.1182 16.3691 60.2655 16.9363 60.6855 17.2945C61.991 18.3891 63.191 19.6109 64.2855 20.8945C64.6437 21.2945 65.2128 21.4418 65.7182 21.2527L72.1382 18.6418L75.5073 24.4745L70.0346 28.7473C69.6128 29.0836 69.4437 29.6527 69.6346 30.1582C70.2019 31.8 70.6655 33.4418 70.9601 35.0854C71.0437 35.6309 71.4873 36.0309 72.0128 36.1163L78.8764 37.0836V43.8218L72.0128 44.7891C71.4655 44.8745 71.0437 45.2745 70.9582 45.8218C70.6655 47.4636 70.2237 49.1254 69.6328 50.7491C69.4437 51.2527 69.6128 51.8218 70.0328 52.1582L75.5055 56.4309L72.1382 62.2636L65.7182 59.6527C65.2128 59.4418 64.6455 59.5891 64.2855 60.0109C63.191 61.3163 61.971 62.5163 60.6855 63.6109C60.2855 63.9691 60.1401 64.5382 60.3273 65.0418L62.9382 71.4636L57.1073 74.8309L52.8346 69.3582L50.8528 70.8945L55.8019 77.2309C56.2019 77.7363 56.8746 77.8636 57.4237 77.5472L65.151 73.0836C65.6964 72.7691 65.9073 72.0945 65.6964 71.5254L63.0237 64.9163C63.951 64.0945 64.8328 63.2109 65.6328 62.3054L72.2437 64.9782C72.8128 65.2109 73.4855 64.9782 73.8019 64.4327L78.2655 56.7054C78.5801 56.1582 78.4546 55.4836 77.9492 55.0836L72.3273 50.7054C72.7273 49.5254 73.0437 48.3254 73.2964 47.1473L80.351 46.1582C80.9601 46.0745 81.4237 45.5473 81.4237 44.9163V36.0109C81.3382 35.4 80.8964 34.8945 80.2655 34.7891H80.2637Z" fill="#505772"/>
<path d="M57.1892 31.2109C57.1892 25.9255 54.6001 21 50.2837 17.9891C49.3383 17.3364 48.1164 17.2746 47.0837 17.7782C46.0528 18.3255 45.4001 19.3782 45.4001 20.5364V29.3364C45.4001 29.6746 45.1273 29.9473 44.7892 29.9473H37.3583C37.0219 29.9473 36.7692 29.6746 36.7473 29.3364V20.5364C36.7473 19.3582 36.0946 18.3055 35.0637 17.7782C34.031 17.2327 32.8092 17.3164 31.8637 17.9891C27.5255 21 24.9583 25.9473 24.9583 31.2109C24.9583 37.1255 28.2001 42.1164 33.8637 44.8527C34.0528 44.9364 34.2637 45.1473 34.2637 45.4218V77.6527H36.7692V45.4218C36.7692 44.2218 36.0746 43.1255 34.9583 42.6C30.2001 40.3055 27.4637 36.1582 27.4637 31.2109C27.4637 26.7473 29.6528 22.5782 33.3164 20.0309C33.5473 19.8637 33.8001 19.9473 33.9055 19.9891C33.9892 20.0527 34.2419 20.2 34.2419 20.5364V29.3364C34.2419 31.0418 35.631 32.4309 37.3364 32.4309H44.7692C46.4746 32.4309 47.8637 31.0418 47.8637 29.3364V20.5364C47.8637 20.2 48.0946 20.0309 48.2001 19.9909C48.3055 19.9255 48.5583 19.8418 48.7892 20.0309C52.4528 22.5782 54.6437 26.7473 54.6437 31.2109C54.6437 36.1564 51.9055 40.2837 47.1473 42.6C46.031 43.1473 45.3364 44.2218 45.3364 45.4218V77.6527H47.8419V45.4218C47.8419 45.1491 48.0528 44.9364 48.2419 44.8527C53.9692 42.1164 57.1892 37.1255 57.1892 31.2109Z" fill="#505772"/>
</svg>
