<svg width="96" height="97" viewBox="0 0 96 97" fill="none" xmlns="http://www.w3.org/2000/svg">
<g clip-path="url(#clip0_2559_1927)">
<path d="M27.41 46.47C26.11 41.73 24.86 37.15 23.6 32.53C22.5 32.53 21.47 32.48 20.44 32.57C20.16 32.59 19.81 33 19.67 33.32C18.65 35.57 16.93 36.91 14.49 37.14C12.09 37.37 10.13 36.41 8.77 34.4C6.74 31.39 7.76 27.32 10.95 25.56C14.12 23.81 18.15 25.15 19.54 28.5C19.86 29.28 20.24 29.5 21.01 29.45C22.01 29.39 23.01 29.44 24.01 29.44C25.74 29.44 26.02 29.66 26.49 31.36C27.79 36.11 29.08 40.87 30.38 45.62C30.45 45.89 30.55 46.16 30.64 46.44H37.15V45.28C37.15 35.08 37.16 24.89 37.13 14.69C37.13 13.7 37.43 12.99 38.12 12.3C41.95 8.51 45.75 4.69 49.55 0.880004C50.14 0.290004 50.73 -0.259996 51.66 0.140004C52.57 0.520004 52.64 1.31 52.63 2.16C52.61 5.23 52.63 8.29 52.63 11.36V12.36H59.62C58.97 11.67 58.4 11.06 57.78 10.42C58.53 9.72 59.25 9.05 59.99 8.37C61.5 9.86 63.08 11.38 64.61 12.95C65.24 13.6 65.19 14.4 64.57 15.04C63.07 16.59 61.52 18.09 59.95 19.64C59.26 18.89 58.59 18.17 57.79 17.29C58.36 16.85 59.02 16.34 59.68 15.83C59.62 15.75 59.57 15.67 59.51 15.59H52.69V46.43H59.68C58.94 45.81 58.31 45.28 57.68 44.75C58.61 43.91 59.33 43.25 60.05 42.6C61.5 44 63.14 45.54 64.71 47.15C65.24 47.69 65.2 48.46 64.67 49.01C63.12 50.59 61.5 52.12 59.88 53.7C59.23 53.01 58.57 52.31 57.85 51.54C58.39 50.97 58.97 50.36 59.65 49.65H52.72V80.52H59.64C58.99 79.84 58.42 79.23 57.8 78.58C58.55 77.88 59.28 77.22 60.02 76.53C61.52 78.01 63.1 79.52 64.62 81.1C65.25 81.75 65.2 82.55 64.58 83.19C63.08 84.74 61.53 86.25 59.97 87.8C59.26 87.05 58.58 86.34 57.76 85.49C58.37 85.02 59.03 84.5 59.69 83.99C59.63 83.91 59.57 83.82 59.51 83.74H52.64C52.64 85.74 52.64 87.74 52.64 89.73C52.64 91.25 52.64 92.76 52.64 94.28C52.64 95.02 52.4 95.61 51.69 95.92C50.97 96.24 50.37 95.98 49.85 95.47C45.81 91.43 41.76 87.41 37.77 83.33C37.36 82.91 37.18 82.12 37.18 81.5C37.14 71.3 37.15 61.11 37.15 50.91V49.61H32.71C31.27 49.61 30.3433 50.3033 29.93 51.69C28.75 55.64 27.56 59.59 26.38 63.53C25.99 64.81 25.62 65.08 24.31 65.09C23.12 65.09 21.92 65.15 20.73 65.07C20.01 65.02 19.82 65.37 19.59 65.93C18.56 68.42 16.1 69.92 13.43 69.72C10.79 69.53 8.56 67.64 7.91 65.04C7.13 61.91 8.84 58.75 11.89 57.7C14.98 56.64 18.32 58.1 19.56 61.13C19.84 61.81 20.15 62.09 20.88 62.01C21.77 61.92 22.91 62.26 23.5 61.82C24.09 61.37 24.14 60.2 24.39 59.34C25.36 56.14 26.31 52.93 27.31 49.61H26.29C21.9 49.61 17.52 49.61 13.13 49.6C12.49 49.6 12.13 49.71 11.86 50.41C10.77 53.16 7.87 54.72 5.07 54.15C2.06 53.49 0 51.04 0 48.03C0 45.02 2.04 42.55 5.06 41.93C7.86 41.36 10.77 42.91 11.87 45.65C12.14 46.32 12.46 46.49 13.13 46.48C17.55 46.45 21.97 46.47 26.38 46.47H27.42H27.41ZM49.51 5.32C46.52 8.32 43.71 11.16 40.86 13.97C40.4 14.42 40.25 14.88 40.25 15.5C40.27 25.47 40.26 35.44 40.26 45.4C40.26 45.74 40.26 46.08 40.26 46.49H44.85V49.6H40.32C40.3 49.8 40.27 49.89 40.27 49.99C40.27 60.28 40.27 70.57 40.29 80.86C40.29 81.22 40.52 81.66 40.78 81.92C43.5 84.68 46.24 87.41 48.98 90.14C49.12 90.28 49.29 90.4 49.52 90.59V5.32H49.51ZM13.99 34.07C15.66 34.05 17.05 32.64 17.04 30.96C17.03 29.27 15.65 27.89 13.96 27.88C12.24 27.88 10.83 29.31 10.86 31.04C10.89 32.72 12.3 34.09 13.99 34.07ZM9.3 48.03C9.3 46.34 7.94 44.94 6.25 44.92C4.53 44.89 3.1 46.31 3.12 48.04C3.14 49.73 4.52 51.1 6.22 51.1C7.9 51.1 9.3 49.7 9.31 48.03H9.3ZM13.99 60.41C12.3 60.39 10.89 61.75 10.86 63.44C10.83 65.16 12.23 66.6 13.96 66.6C15.64 66.6 17.04 65.2 17.04 63.52C17.04 61.83 15.68 60.44 13.99 60.41Z" fill="#505772"/>
<path d="M82.1107 27.87C74.4007 27.87 68.1507 21.65 68.1407 13.93C68.1207 6.24 74.3907 0 82.1207 0C89.7007 0 95.9807 6.27 96.0007 13.85C96.0207 21.59 89.8007 27.86 82.1107 27.87ZM75.8807 22.72C75.8807 21.67 75.9307 20.73 75.8807 19.8C75.7207 17.33 76.4407 15.35 78.8307 14.25C76.9607 11.46 77.0307 9.11 79.0007 7.36C80.7707 5.78 83.4107 5.78 85.1707 7.36C87.1407 9.11 87.2107 11.48 85.3407 14.25C87.7207 15.35 88.4407 17.34 88.2907 19.8C88.2307 20.74 88.2907 21.69 88.2907 22.72C92.0007 20.4 93.7607 15.37 92.5207 10.95C91.2207 6.33 86.9307 3.09 82.1007 3.09C77.2707 3.09 72.9907 6.31 71.6807 10.95C70.4307 15.35 72.2007 20.4 75.9107 22.72H75.8807ZM85.1607 24.29C85.1607 22.32 85.2007 20.39 85.1407 18.46C85.1107 17.62 84.5407 17.09 83.6907 17.05C82.6007 17 81.5007 17 80.4107 17.05C79.6107 17.09 79.0407 17.6 79.0107 18.4C78.9507 20.36 78.9907 22.32 78.9907 24.25C80.9607 24.91 82.9307 24.93 85.1607 24.28V24.29ZM83.6207 10.84C83.6207 10.01 82.9307 9.31 82.1007 9.29C81.2707 9.28 80.5607 9.95 80.5307 10.78C80.5007 11.65 81.2207 12.39 82.0907 12.37C82.9207 12.36 83.6107 11.66 83.6107 10.83L83.6207 10.84Z" fill="#505772"/>
<path d="M96.0007 48.02C95.9807 55.78 89.7007 61.99 81.9207 61.95C74.3107 61.91 68.1207 55.61 68.1407 47.91C68.1607 40.24 74.4807 34.04 82.2207 34.08C89.7907 34.12 96.0307 40.43 96.0007 48.02ZM78.8307 48.33C76.9507 45.67 77.0107 43.25 78.9307 41.48C80.6407 39.91 83.2507 39.84 85.0307 41.33C87.0807 43.04 87.1907 45.34 85.3507 48.34C87.5807 49.4 88.4107 51.24 88.2807 53.62C88.2207 54.65 88.2807 55.69 88.2807 56.83C92.3807 54.02 93.9507 48.69 92.1807 44.08C90.4107 39.48 85.5607 36.56 80.8007 37.23C75.6007 37.96 71.7707 41.92 71.2807 47.04C70.9207 50.84 73.2707 55.77 75.8907 56.66C75.8907 55.58 75.9307 54.52 75.8907 53.46C75.7807 51.14 76.6407 49.39 78.8507 48.33H78.8307ZM85.1607 58.37C85.1607 56.42 85.2007 54.49 85.1407 52.56C85.1107 51.67 84.5207 51.15 83.6207 51.12C82.5907 51.08 81.5607 51.08 80.5307 51.12C79.6407 51.15 79.0307 51.66 79.0107 52.55C78.9507 54.48 78.9907 56.41 78.9907 58.36C81.0707 59 83.0807 59 85.1607 58.36V58.37ZM82.1207 46.46C82.9507 46.43 83.6207 45.72 83.6107 44.89C83.6007 44.06 82.8907 43.37 82.0707 43.37C81.2007 43.37 80.4907 44.12 80.5307 44.99C80.5707 45.82 81.2907 46.49 82.1207 46.46Z" fill="#505772"/>
<path d="M68.1289 82.02C68.1289 74.35 74.4389 68.13 82.1789 68.15C89.7589 68.17 96.0089 74.47 95.9989 82.06C95.9989 89.79 89.7589 96.03 82.0489 96.02C74.3489 96.02 68.1289 89.75 68.1389 82.02H68.1289ZM85.3189 82.36C87.6789 83.81 88.2489 84.86 88.2489 87.61C88.2489 88.66 88.2489 89.71 88.2489 90.81C91.6389 89.03 93.6289 83.85 92.6089 79.61C91.4289 74.72 87.1589 71.28 82.2089 71.23C77.1389 71.19 72.8389 74.5 71.5689 79.41C70.4589 83.72 72.3789 88.92 75.8289 90.79C75.8389 90.49 75.8689 90.21 75.8689 89.93C75.8689 88.87 75.8489 87.8 75.8689 86.74C75.9189 84.67 76.9989 83.27 78.8089 82.38C76.9289 79.78 76.9889 77.31 78.9289 75.54C80.6989 73.93 83.3989 73.92 85.1789 75.54C87.1289 77.31 87.1889 79.81 85.3189 82.36ZM85.1489 92.45C85.1489 90.49 85.1789 88.59 85.1389 86.7C85.1189 85.81 84.5689 85.26 83.6689 85.21C82.6089 85.15 81.5389 85.17 80.4789 85.21C79.6289 85.24 79.0289 85.74 78.9989 86.58C78.9289 88.54 78.9789 90.5 78.9789 92.45C81.0589 93.08 83.0489 93.07 85.1489 92.45ZM83.5989 78.97C83.5989 78.14 82.8989 77.45 82.0689 77.44C81.2389 77.44 80.5389 78.12 80.5189 78.95C80.4989 79.82 81.2289 80.55 82.0989 80.52C82.9289 80.5 83.6089 79.79 83.5989 78.96V78.97Z" fill="#505772"/>
</g>
<defs>
<clipPath id="clip0_2559_1927">
<rect width="96" height="96.03" fill="white"/>
</clipPath>
</defs>
</svg>
