<svg width="15" height="15" viewBox="0 0 15 15" fill="none" xmlns="http://www.w3.org/2000/svg">
<path d="M13.2927 13.8085L11.4435 12.4457L9.58132 13.8064C9.56612 13.8172 9.54826 13.8236 9.52967 13.8249C9.51108 13.8262 9.49248 13.8224 9.4759 13.8139C9.45933 13.8054 9.4454 13.7925 9.43565 13.7766C9.4259 13.7608 9.42069 13.7425 9.4206 13.7239V11.3539C9.4205 11.3379 9.42419 11.3222 9.43136 11.308C9.43853 11.2937 9.44898 11.2814 9.46184 11.272C9.47471 11.2626 9.48963 11.2563 9.50537 11.2538C9.52111 11.2513 9.53722 11.2525 9.55239 11.2575L9.92525 11.4749C9.9681 11.4878 10.0002 11.5275 10.0002 11.5725V12.8367L11.3856 11.7932C11.4031 11.7806 11.4241 11.7739 11.4456 11.7739C11.4671 11.7739 11.4881 11.7806 11.5056 11.7932L12.8942 12.7939L12.8685 11.5725C12.8685 11.5296 12.8963 11.491 12.937 11.476L13.3185 11.2478C13.3338 11.2425 13.3502 11.241 13.3663 11.2433C13.3823 11.2456 13.3976 11.2518 13.4108 11.2612C13.4241 11.2706 13.4348 11.2831 13.4422 11.2975C13.4496 11.312 13.4535 11.328 13.4535 11.3442V13.726C13.4535 13.7646 13.432 13.7989 13.3977 13.816C13.3841 13.824 13.3685 13.828 13.3527 13.8278C13.3312 13.828 13.3102 13.8212 13.2927 13.8085ZM0.269531 12.166V2.20174C0.269531 1.33924 0.971317 0.638523 1.83596 0.637451H10.5274C11.3931 0.637451 12.0938 1.33924 12.0949 2.20388V5.31102C12.0949 5.32439 12.0923 5.33762 12.0871 5.34997C12.082 5.36232 12.0745 5.37354 12.0651 5.383C12.0556 5.39245 12.0444 5.39995 12.0321 5.40506C12.0197 5.41018 12.0065 5.41281 11.9931 5.41281H11.3481C11.3213 5.41281 11.2956 5.40223 11.2765 5.38338C11.2574 5.36452 11.2466 5.3389 11.2463 5.31209V2.20281C11.2463 1.80638 10.9249 1.60281 10.5285 1.60281H1.83596C1.43953 1.60281 1.23275 1.80638 1.23275 2.20281V12.1671C1.23275 12.5625 1.43953 12.7242 1.83596 12.7242H8.58596C8.64167 12.7242 8.68667 12.7703 8.68667 12.826V13.6317C8.68667 13.6451 8.68404 13.6583 8.67893 13.6707C8.67381 13.683 8.66631 13.6943 8.65686 13.7037C8.64741 13.7132 8.63619 13.7207 8.62384 13.7258C8.61149 13.7309 8.59826 13.7335 8.58489 13.7335H1.83596C1.42051 13.733 1.02225 13.5676 0.728576 13.2737C0.434905 12.9798 0.269815 12.5815 0.269531 12.166ZM11.437 11.3946C10.7048 11.394 10.0028 11.103 9.48491 10.5853C8.96706 10.0677 8.67574 9.36573 8.67489 8.63352C8.67574 7.90132 8.96706 7.19936 9.48491 6.68171C10.0028 6.16406 10.7048 5.87302 11.437 5.87245C12.1691 5.8733 12.8708 6.16447 13.3885 6.68209C13.9061 7.19971 14.1973 7.9015 14.1981 8.63352C14.1973 9.36554 13.9061 10.0673 13.3885 10.585C12.8708 11.1026 12.1691 11.3937 11.437 11.3946ZM11.437 6.68888C10.9215 6.68945 10.4272 6.89451 10.0626 7.25908C9.69802 7.62365 9.49296 8.11794 9.49239 8.63352C9.49239 9.70495 10.3645 10.5782 11.437 10.5782C12.5085 10.5782 13.3817 9.70602 13.3817 8.63352C13.3811 8.11794 13.176 7.62365 12.8115 7.25908C12.4469 6.89451 11.9526 6.68945 11.437 6.68888ZM2.68025 11.0775C2.62346 11.0775 2.57846 11.0282 2.57846 10.9671V10.201C2.57846 10.14 2.62346 10.0907 2.68025 10.0907H7.79096C7.84668 10.0907 7.89275 10.14 7.89275 10.201V10.9671C7.89275 11.0282 7.84668 11.0775 7.79096 11.0775H2.68025ZM11.437 9.82709C11.1292 9.81405 10.8384 9.68259 10.6252 9.46018C10.412 9.23777 10.293 8.9416 10.293 8.63352C10.293 8.32544 10.412 8.02927 10.6252 7.80686C10.8384 7.58445 11.1292 7.453 11.437 7.43995C11.7448 7.453 12.0357 7.58445 12.2489 7.80686C12.4621 8.02927 12.5811 8.32544 12.5811 8.63352C12.5811 8.9416 12.4621 9.23777 12.2489 9.46018C12.0357 9.68259 11.7448 9.81405 11.437 9.82709ZM11.437 7.94567C11.3443 7.94216 11.2519 7.9574 11.1652 7.99048C11.0786 8.02357 10.9995 8.07381 10.9327 8.13819C10.866 8.20258 10.8129 8.27979 10.7767 8.36519C10.7405 8.45059 10.7219 8.54242 10.722 8.63517C10.7222 8.72793 10.7411 8.8197 10.7775 8.90499C10.814 8.99027 10.8673 9.06731 10.9343 9.13149C11.0012 9.19567 11.0805 9.24567 11.1672 9.27848C11.254 9.31129 11.3465 9.32625 11.4392 9.32245C11.617 9.31516 11.7852 9.2393 11.9084 9.11078C12.0315 8.98226 12.1002 8.81104 12.0999 8.63303C12.0996 8.45501 12.0304 8.28401 11.9069 8.15587C11.7833 8.02773 11.6149 7.9524 11.437 7.94567ZM2.68025 8.75352C2.6667 8.75344 2.65333 8.75054 2.64097 8.74501C2.62861 8.73948 2.61754 8.73143 2.60846 8.72138C2.58895 8.70003 2.57824 8.67209 2.57846 8.64317V7.87602C2.57846 7.81602 2.62346 7.76674 2.68025 7.76674H7.79096C7.84668 7.76674 7.89275 7.81602 7.89275 7.87602V8.64317C7.89275 8.67209 7.88203 8.69995 7.86275 8.72138C7.85367 8.73143 7.8426 8.73948 7.83024 8.74501C7.81788 8.75054 7.8045 8.75344 7.79096 8.75352H2.68025ZM2.68025 6.60209C2.62346 6.60209 2.57846 6.55281 2.57846 6.49281V5.72567C2.57846 5.66459 2.62346 5.61531 2.68025 5.61531H7.79096C7.84668 5.61531 7.89275 5.66459 7.89275 5.72567V6.49281C7.89275 6.55281 7.84668 6.60209 7.79096 6.60209H2.68025ZM2.68025 4.35638C2.62346 4.35638 2.57846 4.30709 2.57846 4.24602V3.47888C2.57846 3.41888 2.62346 3.36959 2.68025 3.36959H9.68417C9.74096 3.36959 9.78596 3.41888 9.78596 3.47888V4.24602C9.78596 4.27495 9.77525 4.30281 9.75596 4.32424C9.74688 4.33429 9.73581 4.34233 9.72345 4.34787C9.71109 4.3534 9.69772 4.3563 9.68417 4.35638H2.68025Z" fill="#505772"/>
</svg>
