<svg width="125" height="100" viewBox="0 0 125 100" fill="none" xmlns="http://www.w3.org/2000/svg">
<path d="M121.75 1.96816C116.314 2.62498 110.875 3.31361 105.436 3.81134C91.0318 5.09316 76.5955 5.99998 62.0955 5.74998C50.4682 5.56134 38.8137 5.03179 27.1864 4.34316C19.5318 3.87498 11.875 2.93634 4.2182 2.12498C3.31138 2.03179 0.593201 1.43634 0.593201 1.43634V87.375C0.593201 87.375 2.53184 87 3.15684 86.9068C8.3432 86.3136 13.5637 85.5636 18.75 85.2182C29.125 84.4682 39.5 83.9363 49.875 83.3113C50.1864 83.2818 50.4682 83.3432 50.8137 83.375V94.6863H49.4387C47.375 94.6863 43.0296 94.6568 40.9682 94.6863L41 98.5318H83.4068V94.6886H74.1887V83.3136C74.7796 83.3136 75.3136 83.2818 75.8432 83.3136C82.2818 83.625 88.75 83.8136 95.1568 84.3432C103.875 85.0318 112.564 85.9386 121.25 86.8432C122.282 86.875 124.407 87.3113 124.407 87.3113V85.75V3.18861V1.62498C124.407 1.62498 122.375 1.93861 121.75 1.96816V1.96816ZM70.1568 94.5636H54.8409V83.1545H70.1546V94.5636H70.1568ZM120.468 82.7818C81.8137 78.0318 43.2182 78.0318 4.50002 82.8136V6.09089C43.125 10.8409 81.75 10.8409 120.468 6.09089V82.7795V82.7818Z" fill="#505772"/>
<path d="M42.5 38.6568C43.375 39.5932 44.1864 40.5 45.0318 41.4068C49.5636 37.0318 54.8432 34.6863 61.125 34.6863C67.4068 34.6863 72.75 37 77.25 41.4068C78.125 40.4682 78.9364 39.5613 79.8114 38.625C74.3432 33.3113 67.7205 30.6568 59.9705 30.9682C53.125 31.2818 47.2818 33.9682 42.5 38.6568V38.6568Z" fill="#505772"/>
<path d="M47.6887 44.1249C48.5932 44.9386 49.4682 45.7499 50.4068 46.5931C53.3432 43.6863 56.9364 42.1249 61.1568 42.1249C65.375 42.1249 69 43.6886 71.8137 46.4681C72.75 45.6568 73.6887 44.8431 74.625 44.0613C66.125 35.5613 53.6864 37.4999 47.6887 44.1249V44.1249Z" fill="#505772"/>
<path d="M52.9387 49.3432C53.8114 50.2182 54.6887 51.0636 55.5637 51.9682C57.125 50.4682 58.9387 49.625 61.0932 49.625C63.25 49.625 65.0932 50.4364 66.625 51.9364L69.25 49.3136C64.625 44.6545 57.4068 44.7818 52.9387 49.3432V49.3432ZM61.1568 54.5C59.5637 54.5 58.1568 55.9068 58.1568 57.5C58.1568 59.1568 59.5 60.5636 61.125 60.5636C62.8432 60.5636 64.1887 59.2818 64.1887 57.625C64.1568 55.9068 62.7796 54.5 61.1568 54.5Z" fill="#505772"/>
</svg>
