<svg width="214" height="128" viewBox="0 0 214 128" fill="none" xmlns="http://www.w3.org/2000/svg">
<path d="M25 14H192V59H180.723M140.45 59H46.4791" stroke="white" stroke-width="2" stroke-linejoin="round"/>
<path d="M19.5043 38.2545L29.9491 32.2213L19.5043 26.2L9.07129 32.2213L19.5043 38.2545Z" stroke="white" stroke-width="2" stroke-linejoin="round"/>
<path opacity="0.25" d="M19.385 38.2785V50.5L9.07129 44.5264V32.3049L19.385 38.2785Z" stroke="white" stroke-width="2" stroke-miterlimit="10"/>
<path d="M30.0209 44.407V32.269L19.5045 26.2L9 32.269V44.407L19.5045 50.476L30.0209 44.407Z" stroke="white" stroke-width="2" stroke-miterlimit="10"/>
<path d="M19.4092 38.123V50.3445" stroke="white" stroke-width="2" stroke-miterlimit="10"/>
<rect x="1" y="19.1001" width="37.6" height="37.6" stroke="white" stroke-width="2"/>
<rect x="160" y="79" width="25" height="25" stroke="white" stroke-width="2"/>
<rect x="145" y="41" width="31" height="31" stroke="white" stroke-width="2"/>
<rect x="36" y="67" width="60" height="45" stroke="white" stroke-width="2"/>
<path d="M153 78V112.6H107.1V65.8H139.5" stroke="white" stroke-width="2"/>
<path d="M203 1H19V13.6M203 1V64M203 1V90M19 62.65V127H203V122.5" stroke="white" stroke-width="2"/>
<path d="M213 112.256V100.744L203.006 95L193 100.744V112.256L203.006 118L213 112.256Z" stroke="white" stroke-width="2" stroke-linecap="round" stroke-linejoin="round"/>
<path d="M121.346 103.492H116.54C116.397 103.492 116.259 103.435 116.158 103.334C116.057 103.233 116 103.095 116 102.952V98.146H117.08V102.448H121.346V103.492Z" fill="white"/>
<path d="M121.107 97.6204L116.162 102.565L116.926 103.329L121.871 98.3841L121.107 97.6204Z" fill="white"/>
<path d="M142.352 103.492H137.546V102.412H141.848V98.146H142.928V102.988C142.923 103.059 142.905 103.128 142.873 103.192C142.842 103.256 142.798 103.313 142.745 103.36C142.691 103.406 142.629 103.442 142.561 103.465C142.494 103.488 142.423 103.497 142.352 103.492Z" fill="white"/>
<path d="M137.843 97.6785L137.079 98.4421L141.967 103.33L142.73 102.566L137.843 97.6785Z" fill="white"/>
<path d="M142.892 81.9461H141.812V77.6801H137.546V76.6001H142.388C142.531 76.6001 142.668 76.657 142.77 76.7583C142.871 76.8595 142.928 76.9969 142.928 77.1401L142.892 81.9461Z" fill="white"/>
<path d="M141.972 76.7597L137.085 81.6472L137.849 82.4109L142.736 77.5234L141.972 76.7597Z" fill="white"/>
<path d="M117.08 81.9461H116V77.1401C116 76.9969 116.057 76.8595 116.158 76.7583C116.259 76.657 116.397 76.6001 116.54 76.6001H121.346V77.6801H117.08V81.9461Z" fill="white"/>
<path d="M116.921 76.7512L116.157 77.5149L121.102 82.4597L121.866 81.696L116.921 76.7512Z" fill="white"/>
<path d="M65.8896 81.1001V96.8642" stroke="white" stroke-width="2" stroke-linecap="round" stroke-linejoin="round"/>
<path d="M73.7641 88.9741H58" stroke="white" stroke-width="2" stroke-linecap="round" stroke-linejoin="round"/>
<path d="M160.1 52.313C155.82 52.313 151.2 51.3274 151.2 49.1565C151.2 46.9856 155.806 46 160.1 46C164.394 46 169 46.9981 169 49.169C169 51.3399 164.354 52.313 160.1 52.313ZM160.1 47.4847C155.386 47.4847 152.812 48.6699 152.812 49.1565C152.812 49.6431 155.359 50.8408 160.1 50.8408C164.841 50.8408 167.388 49.5932 167.388 49.169C167.388 48.7448 164.801 47.4722 160.1 47.4722V47.4847Z" fill="white"/>
<path d="M160.1 66.112C155.806 66.112 151.2 65.1263 151.241 62.918V49.1067H152.812V62.9554C152.812 63.442 155.372 64.6273 160.1 64.6273C164.828 64.6273 167.388 63.442 167.388 62.9554V49.1441H169V62.9554C169 65.1263 164.394 66.112 160.1 66.112Z" fill="white"/>
<path d="M160.1 57.1417C155.82 57.1417 151.2 56.1435 151.2 53.9727H152.812C152.812 54.4592 155.359 55.6445 160.1 55.6445C164.841 55.6445 167.388 54.4592 167.388 53.9727H169C169 56.1435 164.394 57.1417 160.1 57.1417Z" fill="white"/>
<path d="M160.1 61.8826C155.82 61.8826 151.2 60.897 151.2 58.7136H152.812C152.812 59.2002 155.359 60.3855 160.1 60.3855C164.841 60.3855 167.388 59.2002 167.388 58.7136H169C169 60.897 164.394 61.8826 160.1 61.8826Z" fill="white"/>
</svg>
