<svg width="125" height="109" viewBox="0 0 125 109" fill="none" xmlns="http://www.w3.org/2000/svg">
<path d="M123.013 61.688C119.94 57.1577 114.143 55.9554 109.343 59.0545C106.809 60.6799 96.3274 67.9234 89.9516 72.3392C89.4902 68.5806 87.0332 65.4044 83.1568 64.1249C71.7897 60.3712 60.3079 56.8466 48.9832 52.9734C42.6075 50.7655 36.9626 51.4998 31.5098 55.5298C27.7482 58.3177 23.832 60.8741 19.9531 63.4305L22.5249 67.3808C27.5935 63.9706 32.5101 60.6027 37.5014 57.4664C39.921 55.9554 42.7222 55.9928 45.526 56.9237C57.352 60.7969 69.1781 64.5904 81.0441 68.4661C84.3467 69.5489 85.9581 72.1824 85.115 75.0126C84.2693 77.8752 81.6203 79.1173 78.163 78.2237C72.7127 76.7924 67.2973 75.3213 61.8844 73.8875C60.1557 73.422 58.1976 72.7649 57.584 75.2441C57.0078 77.5292 58.8886 77.9922 60.5399 78.4178C65.9528 79.8914 71.3657 81.4024 76.821 82.7565C78.3176 83.1448 79.9315 83.4161 81.4282 83.2219C84.2319 82.8735 86.5343 81.4795 88.0708 79.4633C91.2188 77.2977 108.114 65.5985 111.264 63.5076C114.372 61.454 117.291 61.8025 119.057 64.3589C120.902 66.9925 120.094 69.9347 116.832 72.1451C105.427 79.8516 93.9826 87.5208 82.618 95.2671C80.5452 96.7009 78.5471 97.0095 76.13 96.3126C66.761 93.5247 57.3146 90.9683 48.0229 88.1007C43.8372 86.8238 39.8412 85.8928 36.0022 88.0261L38.6912 92.0909C40.1879 91.3541 41.8018 91.2396 43.7225 91.8196C54.3188 94.9958 64.955 97.938 75.5912 101.037C78.8165 101.968 81.7724 101.619 84.5387 99.7202C96.4022 91.7051 108.306 83.7646 120.172 75.7071C124.933 72.3766 126.083 66.298 123.013 61.688Z" fill="#505772"/>
<path d="M23.9515 68.603L21.3747 64.7174L19.3767 61.7055L0 74.358L23.0285 109L42.4052 96.3475L40.0604 92.8402L37.369 88.8401L23.9515 68.603ZM24.2583 103.093L5.96167 75.5379L18.1494 67.5725L36.4485 95.1278L24.2608 103.093H24.2583Z" fill="#505772"/>
<rect x="68.5293" y="2.5" width="28.5385" height="28.5385" rx="14.2692" stroke="#505772" stroke-width="5"/>
<path d="M55.5488 55.1481C60.2533 46.0476 69.7515 39.8269 80.7027 39.8269H84.895C96.6203 39.8269 106.68 46.9582 110.974 57.1202" stroke="#505772" stroke-width="5" stroke-linecap="round"/>
</svg>
