<svg width="114" height="118" viewBox="0 0 114 118" fill="none" xmlns="http://www.w3.org/2000/svg">
<path d="M102.5 85.2303C102.698 86.7406 102.836 96.1571 102.912 97.476C103.793 112.68 96.7264 116.785 83.5992 115.98C62.0917 115.98 36.585 115.98 15.0775 115.98C5.50706 116.065 2.40624 113.068 2.13184 102.293C6.69404 102.293 11.2559 102.293 15.818 102.293C15.818 101.641 15.818 100.99 15.818 100.338C15.818 67.3161 15.818 34.9465 15.818 1.9248C36.0223 1.9248 56.2263 1.9248 76.4302 1.9248C85.12 10.8323 93.8101 19.739 102.5 28.6465C102.5 35.6308 102.5 48.613 102.5 55.5973" stroke="#505772" stroke-width="3" stroke-linecap="round" stroke-linejoin="round"/>
<path d="M76.4351 2.3916C76.4351 4.28963 76.4351 28.9668 76.4351 28.9668H102.526" stroke="#505772" stroke-width="3" stroke-linecap="round" stroke-linejoin="round"/>
<path d="M86.683 115.913C79.9885 115.433 75.6669 111.284 74.4751 102.293C50.3605 102.293 26.246 102.293 2.13184 102.293" stroke="#505772" stroke-width="3"/>
<path d="M28.7938 55.0732C52.1942 55.0732 60.7032 55.0732 60.7032 55.0732" stroke="#505772" stroke-width="3" stroke-linecap="round" stroke-linejoin="round"/>
<path d="M28.7938 65.2539C52.1942 65.2539 60.7032 65.2539 60.7032 65.2539" stroke="#505772" stroke-width="3" stroke-linecap="round" stroke-linejoin="round"/>
<path d="M28.7938 75.4346C52.1942 75.4346 60.7032 75.4346 60.7032 75.4346" stroke="#505772" stroke-width="3" stroke-linecap="round" stroke-linejoin="round"/>
<path d="M44.7484 85.6143C56.4484 85.6143 60.7031 85.6143 60.7031 85.6143" stroke="#505772" stroke-width="3" stroke-linecap="round" stroke-linejoin="round"/>
<path d="M69.576 54.5889L77.0521 57.8846L85.3251 79.8483H105.636L111.869 62.5625H84.465" stroke="#505772" stroke-width="3" stroke-linecap="round" stroke-linejoin="round"/>
<path d="M109.869 68.2783H88.246" stroke="#505772" stroke-width="3" stroke-linecap="round" stroke-linejoin="round"/>
<path d="M106.024 74.2783H91.6281" stroke="#505772" stroke-width="3" stroke-linecap="round" stroke-linejoin="round"/>
<path d="M87.7621 81.1953L85.7941 85.1318H102.526" stroke="#505772" stroke-width="3" stroke-linecap="round" stroke-linejoin="round"/>
<path d="M43.6993 16.7188H28.7228V25.551H43.6993V16.7188Z" stroke="#505772" stroke-width="3"/>
<path d="M43.6993 34.5234H28.7228V43.3557H43.6993V34.5234Z" stroke="#505772" stroke-width="3"/>
<path d="M67.1088 16.7188H52.1323V25.551H67.1088V16.7188Z" stroke="#505772" stroke-width="3"/>
<path d="M67.1088 34.5234H52.1323V43.3557H67.1088V34.5234Z" stroke="#505772" stroke-width="3"/>
<path d="M88.215 90.9585C89.3022 90.9585 90.1835 90.0772 90.1835 88.99C90.1835 87.9028 89.3022 87.0215 88.215 87.0215C87.1278 87.0215 86.2465 87.9028 86.2465 88.99C86.2465 90.0772 87.1278 90.9585 88.215 90.9585Z" fill="#505772"/>
<path d="M96.715 90.9585C97.8022 90.9585 98.6835 90.0772 98.6835 88.99C98.6835 87.9028 97.8022 87.0215 96.715 87.0215C95.6278 87.0215 94.7465 87.9028 94.7465 88.99C94.7465 90.0772 95.6278 90.9585 96.715 90.9585Z" fill="#505772"/>
</svg>
