<svg width="100" height="100" viewBox="0 0 100 100" fill="none" xmlns="http://www.w3.org/2000/svg">
<path d="M52.75 85.6675L52.7775 89.61C73.305 88.445 89.75 71.9725 90.9175 51.445L86.9725 51.47C85.805 69.8325 71.11 84.5275 52.75 85.6675ZM87 46.8325L90.945 46.8075C89.75 26.275 73.275 9.82998 52.775 8.66498L52.8025 12.6075C71.1375 13.775 85.83 28.4975 86.9975 46.8325H87ZM13.9175 51.445L9.97253 51.47C11.14 72 27.61 88.445 48.11 89.61L48.085 85.6675C29.75 84.5 15.085 69.805 13.9175 51.4425V51.445ZM48.14 12.61L48.11 8.66748C27.585 9.85998 11.1675 26.305 9.97253 46.805L13.9175 46.78C15.11 28.445 29.805 13.78 48.14 12.61V12.61Z" fill="#505772"/>
<path d="M48.2225 19.11L52.86 19.0825L52.805 12.61L52.7775 8.66751L52.695 1.94501L48.0275 1.97251L48.11 8.66751L48.14 12.61L48.2225 19.11ZM19.5 51.39L19.4725 46.7225L13.9175 46.7775L9.97252 46.8325L2.33252 46.89L2.39002 51.555L9.97252 51.5L13.9175 51.445L19.5 51.39ZM97.61 46.7225L90.9175 46.805L87 46.8325L80.5 46.89L80.5275 51.555L86.9725 51.5L90.945 51.4725L97.6675 51.39L97.61 46.7225ZM52.695 80.89L48.0275 80.945L48.0825 85.6675L48.14 89.61L48.2225 98.055L52.86 98.0275L52.7775 89.61L52.75 85.6675L52.695 80.89Z" fill="#505772"/>
<path d="M50.445 54.6125C53.4674 54.6125 55.9175 52.1624 55.9175 49.14C55.9175 46.1176 53.4674 43.6675 50.445 43.6675C47.4227 43.6675 44.9725 46.1176 44.9725 49.14C44.9725 52.1624 47.4227 54.6125 50.445 54.6125Z" fill="#505772"/>
</svg>
