<svg width="100" height="100" viewBox="0 0 100 100" fill="none" xmlns="http://www.w3.org/2000/svg">
<g clip-path="url(#clip0_34_13)">
<path d="M7.89474 28.9474H11.5763V13.9105H28.9474V10.5263H7.89474V28.9474ZM88.4237 28.9474H92.1053V10.5263H71.0526V13.9105H88.4237V28.9474ZM11.5763 71.0526H7.89474V89.4737H28.9474V86.0947H11.5763V71.0526ZM88.4237 86.0947H71.0526V89.4737H92.1053V71.0526H88.4237V86.0947ZM50 0H52.6316V21.0526H50V0ZM50 78.9474H52.6316V100H50V78.9474ZM78.9474 47.3684H100V50H78.9474V47.3684ZM0 47.3684H21.0526V50H0V47.3684ZM50 36.8421C41.2789 36.8421 34.2105 43.9105 34.2105 52.6316C34.2105 61.3526 41.2789 68.4211 50 68.4211C58.7211 68.4211 65.7895 61.3526 65.7895 52.6316C65.7737 43.9184 58.7132 36.8579 50 36.8421ZM50 64.4263C43.4868 64.4263 38.2053 59.1447 38.2053 52.6316C38.2053 46.1184 43.4868 40.8368 50 40.8368C56.5132 40.8368 61.7947 46.1184 61.7947 52.6316C61.7947 59.1447 56.5132 64.4263 50 64.4263Z" fill="#505772"/>
</g>
<defs>
<clipPath id="clip0_34_13">
<rect width="100" height="100" fill="white"/>
</clipPath>
</defs>
</svg>
