<svg width="163" height="152" viewBox="0 0 163 152" fill="none" xmlns="http://www.w3.org/2000/svg">
<path d="M108.473 151H32.4102V135.156H136.899V151H125.954" stroke="#505772" stroke-width="2" stroke-miterlimit="10" stroke-linecap="round" stroke-linejoin="round"/>
<path d="M121.056 134.483L118.032 118.639H52.294L49.6006 134.826" stroke="#505772" stroke-width="2" stroke-miterlimit="10" stroke-linecap="round" stroke-linejoin="round"/>
<path d="M103.865 116.963V52.5712H118.032L121.056 44.821V1H99.8251V32.3441H93.4216V1H75.5578V31.6707H68.4678V1.67337H48.2539V44.1476L49.9307 51.5545H91.5071" stroke="#505772" stroke-width="2" stroke-miterlimit="10" stroke-linecap="round" stroke-linejoin="round"/>
<path d="M64.9291 52.0431V118.441" stroke="#505772" stroke-width="2" stroke-miterlimit="10" stroke-linecap="round" stroke-linejoin="round"/>
<path d="M12.8828 113.609L48.2802 76.5347" stroke="#505772" stroke-width="2" stroke-miterlimit="10" stroke-linecap="round" stroke-linejoin="round"/>
<path d="M58.3673 76.8384L63.7542 82.5685" stroke="#505772" stroke-width="2" stroke-miterlimit="10" stroke-linecap="round" stroke-linejoin="round"/>
<path d="M103.865 78.5283L149.719 31.6707" stroke="#505772" stroke-width="2" stroke-miterlimit="10" stroke-linecap="round" stroke-linejoin="round"/>
<path d="M155.45 33.1759C159.03 33.1759 161.932 30.2735 161.932 26.6932C161.932 23.1129 159.03 20.2104 155.45 20.2104C151.869 20.2104 148.967 23.1129 148.967 26.6932C148.967 30.2735 151.869 33.1759 155.45 33.1759Z" stroke="#505772" stroke-width="2" stroke-miterlimit="10" stroke-linecap="round" stroke-linejoin="round"/>
<path d="M7.48271 124.224C11.063 124.224 13.9654 121.322 13.9654 117.741C13.9654 114.161 11.063 111.259 7.48271 111.259C3.90241 111.259 1 114.161 1 117.741C1 121.322 3.90241 124.224 7.48271 124.224Z" stroke="#505772" stroke-width="2" stroke-miterlimit="10" stroke-linecap="round" stroke-linejoin="round"/>
<path d="M52.9672 78.6868C56.5475 78.6868 59.4499 75.7844 59.4499 72.2041C59.4499 68.6238 56.5475 65.7214 52.9672 65.7214C49.3869 65.7214 46.4845 68.6238 46.4845 72.2041C46.4845 75.7844 49.3869 78.6868 52.9672 78.6868Z" stroke="#505772" stroke-width="2" stroke-miterlimit="10" stroke-linecap="round" stroke-linejoin="round"/>
<path d="M48.2539 44.9927H119.881" stroke="#505772" stroke-width="2" stroke-miterlimit="10" stroke-linecap="round" stroke-linejoin="round"/>
<path d="M70.8047 51.8978V118.639" stroke="#505772" stroke-width="2" stroke-miterlimit="10" stroke-linecap="round" stroke-linejoin="round"/>
<path d="M106.281 2.00342V32.0932" stroke="#505772" stroke-width="2" stroke-miterlimit="10" stroke-linecap="round" stroke-linejoin="round"/>
<path d="M81.446 2.00342V32.0932" stroke="#505772" stroke-width="2" stroke-miterlimit="10" stroke-linecap="round" stroke-linejoin="round"/>
<path d="M54.71 2.00342V32.0932" stroke="#505772" stroke-width="2" stroke-miterlimit="10" stroke-linecap="round" stroke-linejoin="round"/>
</svg>
