<svg width="100" height="69" viewBox="0 0 100 69" fill="none" xmlns="http://www.w3.org/2000/svg">
<rect width="100" height="69" fill="white"/>
<path d="M51.3138 56.3721L48.3836 56.3721C46.0929 56.3721 44.1554 54.8598 43.5151 52.7791L56.1824 52.7791C55.5421 54.8598 53.6046 56.3721 51.3138 56.3721Z" stroke="#505772" stroke-width="3"/>
<path d="M18.2908 1.5H79.942C83.5318 1.5 86.442 4.41015 86.442 8V51.2442H11.7908V8.00001C11.7908 4.41016 14.7009 1.5 18.2908 1.5Z" stroke="#505772" stroke-width="3"/>
<path d="M96 52.0116H3.69763C3.69763 60.4767 11.2216 62.8643 14.9835 63H85.5202C92.6142 63 95.4626 55.6744 96 52.0116Z" stroke="#505772" stroke-width="3"/>
<path d="M32.5377 22.5997V36.8427C33.9092 38.9528 38.9312 43.1096 48.0467 42.8564C57.1622 42.6032 62.3952 39.3748 63.8722 37.7922V22.5997" stroke="#505772" stroke-width="3"/>
<path d="M47.0261 27.5371L27.8206 19.7511L47.0261 11.9651C47.3203 11.8459 47.8037 11.7558 48.3635 11.7558C48.9233 11.7558 49.4067 11.8459 49.7009 11.9651L68.9063 19.7511L49.7009 27.5371C49.4067 27.6564 48.9233 27.7464 48.3635 27.7464C47.8037 27.7464 47.3203 27.6564 47.0261 27.5371Z" stroke="#505772" stroke-width="3"/>
<path d="M70.5192 20.0676V26.3978" stroke="#505772" stroke-width="3"/>
<path d="M72.1846 29.8795C72.1846 30.8265 71.9081 31.6213 71.537 32.1409C71.1637 32.6635 70.7834 32.8107 70.5195 32.8107C70.2556 32.8107 69.8753 32.6635 69.502 32.1409C69.1309 31.6213 68.8544 30.8265 68.8544 29.8795C68.8544 28.9325 69.1309 28.1377 69.502 27.6181C69.8753 27.0956 70.2556 26.9484 70.5195 26.9484C70.7834 26.9484 71.1637 27.0956 71.537 27.6181C71.9081 28.1377 72.1846 28.9325 72.1846 29.8795Z" stroke="#505772" stroke-width="3"/>
</svg>
