<svg width="120" height="120" viewBox="0 0 120 120" fill="none" xmlns="http://www.w3.org/2000/svg">
<path d="M14.3086 39.71C14.3886 39.35 14.4686 38.99 14.5586 38.64C15.2186 36 17.5186 34.13 20.2686 34.06C21.9186 34.02 23.5786 34.06 25.2286 34.06C25.5286 32.62 25.7486 31.24 26.1086 29.9C27.3386 25.31 29.7786 21.45 33.3486 18.32C34.1986 17.58 34.9686 17.54 35.5586 18.2C36.1586 18.87 36.0586 19.64 35.2386 20.39C34.3886 21.17 33.5286 21.93 32.5586 22.79C37.9286 26.61 43.0286 30.24 48.1986 33.92C50.7686 28.16 53.3186 22.46 55.9686 16.52C54.4886 16.18 53.0986 15.78 51.6786 15.56C48.6386 15.09 45.6386 15.36 42.6886 16.26C41.5686 16.6 40.8386 16.27 40.5886 15.36C40.3586 14.51 40.7886 13.91 41.8986 13.56C54.9586 9.41002 69.4486 18.16 71.8886 31.66C72.0286 32.42 72.1386 33.2 72.2686 34.01H94.7486C94.7486 33.64 94.7486 33.28 94.7486 32.92C94.7486 26.89 94.7486 20.85 94.7486 14.82C94.7486 14.51 94.7386 14.19 94.7686 13.88C94.8486 13.19 95.2986 12.82 95.9486 12.75C96.6286 12.67 97.2086 12.91 97.4286 13.61C97.5486 13.99 97.5486 14.41 97.5486 14.81C97.5486 20.81 97.5486 26.81 97.5486 32.82V34.06C98.7986 34.06 99.9786 34.06 101.149 34.06C102.279 34.06 103.399 34.04 104.529 34.08C107.419 34.2 109.809 36.4 110.179 39.27C110.249 39.79 110.269 40.33 110.269 40.86C110.269 56.52 110.269 72.18 110.269 87.84C110.269 92.17 107.789 94.66 103.479 94.66C100.849 94.66 98.2286 94.66 95.5986 94.66C94.5286 94.66 93.9886 94.17 93.9786 93.26C93.9786 92.36 94.4686 91.87 95.4686 91.86C98.1586 91.85 100.849 91.86 103.539 91.86C106.189 91.86 107.459 90.6 107.459 87.96C107.459 86.44 107.459 84.91 107.459 83.33H17.2886C17.2886 85.35 17.1686 87.34 17.3286 89.32C17.4486 90.74 18.7886 91.72 20.3086 91.84C20.6786 91.87 21.0586 91.85 21.4386 91.86C42.8886 91.86 64.3386 91.86 85.7786 91.86C86.1186 91.86 86.4686 91.84 86.8086 91.87C87.5886 91.94 87.9886 92.42 88.0286 93.16C88.0686 93.91 87.7186 94.43 86.9686 94.6C86.6686 94.67 86.3486 94.65 86.0386 94.65C81.1286 94.65 76.2186 94.65 71.3086 94.65C70.9686 94.65 70.6386 94.65 70.2186 94.65C70.7286 98.4 71.2186 102.04 71.7186 105.75C74.2386 105.75 76.6986 105.75 79.1686 105.75C79.6086 105.75 80.0486 105.75 80.4786 105.75C81.2286 105.73 81.9386 105.8 82.2386 106.65C82.5286 107.5 82.1486 108.09 81.4786 108.56H43.1986C42.5286 108.09 42.1486 107.5 42.4386 106.65C42.7286 105.79 43.4386 105.72 44.1886 105.75C44.5286 105.76 44.8786 105.75 45.2186 105.75H52.9486C53.4486 102.04 53.9386 98.4 54.4486 94.65C54.0786 94.65 53.7686 94.65 53.4686 94.65C51.6886 94.65 49.9086 94.65 48.1286 94.65C39.0086 94.65 29.8786 94.65 20.7586 94.65C17.6986 94.65 15.2986 92.84 14.5686 90.05C14.4786 89.72 14.3986 89.39 14.3086 89.06C14.3086 72.62 14.3086 56.17 14.3086 39.73V39.71ZM58.0186 57.77C48.2586 61.33 39.6186 59.58 31.9886 52.6C30.4686 53.93 28.9786 55.26 27.4486 56.54C26.9686 56.94 26.7986 57.36 26.7986 57.98C26.8186 63.54 26.8086 69.11 26.8086 74.67C26.8086 75.01 26.8086 75.36 26.7686 75.7C26.6486 76.52 26.1186 76.88 25.3286 76.86C24.4086 76.84 24.0086 76.32 24.0086 75.09C24.0086 70 24.1886 64.89 23.9386 59.81C23.7886 56.89 24.5386 54.78 26.9986 53.18C28.1586 52.43 29.1186 51.37 29.9686 50.63C28.8186 48.32 27.5386 46.26 26.7386 44.02C25.9186 41.76 25.5686 39.33 24.9786 36.85C23.8086 36.85 22.4386 36.85 21.0686 36.85C18.3886 36.85 17.1886 38.06 17.1886 40.75C17.1886 53.63 17.1886 66.51 17.1886 79.38V80.38H58.0086V57.76L58.0186 57.77ZM97.5886 36.86C97.5886 37.3 97.5886 37.63 97.5886 37.97C97.5886 41.94 97.5886 45.91 97.5886 49.88C97.5886 50.61 97.4486 51.26 96.6486 51.53C95.5986 51.88 94.7786 51.23 94.7786 50.02C94.7686 45.99 94.7786 41.96 94.7786 37.92C94.7786 37.59 94.7786 37.25 94.7786 36.9H72.3586C72.3286 37.08 72.2986 37.2 72.2986 37.32C71.7186 45.23 68.0986 51.38 61.5286 55.79C61.0686 56.1 60.8586 56.41 60.8586 56.99C60.8786 64.52 60.8686 72.06 60.8786 79.59C60.8786 79.86 60.9186 80.12 60.9386 80.38H66.6986V79.31C66.6986 74 66.6986 68.68 66.6986 63.37C66.6986 61.44 67.0486 61.1 69.0086 61.1C71.5086 61.1 74.0086 61.1 76.5086 61.1H77.5386C77.5386 58.42 77.5386 55.9 77.5386 53.37C77.5386 51.99 78.0086 51.53 79.3986 51.52C82.6486 51.52 85.8986 51.52 89.1486 51.52C90.7286 51.52 91.1686 51.95 91.1686 53.51C91.1686 54.81 91.1686 56.12 91.1686 57.52H92.1886C94.7786 57.52 97.3786 57.52 99.9686 57.52C101.569 57.52 101.959 57.91 101.959 59.5C101.959 66.1 101.959 72.69 101.959 79.29V80.39H107.489C107.489 79.99 107.489 79.65 107.489 79.32C107.489 66.47 107.489 53.63 107.489 40.78C107.489 40.31 107.469 39.84 107.369 39.38C107.079 37.98 105.899 36.91 104.469 36.88C102.219 36.83 99.9686 36.87 97.5686 36.87L97.5886 36.86ZM47.3286 56.75C47.3586 56.41 47.3786 56.23 47.3786 56.05C47.3786 49.83 47.3886 43.62 47.3486 37.4C47.3486 37.03 47.0286 36.54 46.7086 36.31C41.7386 32.74 36.7486 29.19 31.7586 25.65C31.5686 25.51 31.3486 25.4 31.1486 25.28C27.4486 30.69 27.0186 39.01 30.2786 45.28C33.8386 52.11 39.5786 55.83 47.3186 56.76L47.3286 56.75ZM50.2586 37.1V56.61C62.0686 56.15 71.9186 43.96 69.0086 31.99C62.7586 33.69 56.5086 35.4 50.2586 37.1ZM80.4086 54.37V80.38H88.3086V54.37H80.4086ZM99.0986 80.4V60.38H91.2386V80.4H99.0986ZM58.4686 17.81C56.0786 23.16 53.7186 28.46 51.2886 33.91C57.1086 32.32 62.6986 30.79 68.2786 29.27C67.3086 25.12 62.5586 19.57 58.4686 17.81ZM77.4486 80.41V63.99H69.5686V80.41H77.4486ZM57.2786 94.68C56.7786 98.37 56.2886 102.01 55.7986 105.68H68.8686C68.3686 101.98 67.8786 98.34 67.3886 94.68H57.2886H57.2786Z" fill="#505772"/>
<path d="M83.6686 24.13C85.7286 24.13 87.7886 24.13 89.8486 24.13C90.9286 24.13 91.4686 24.59 91.4986 25.48C91.5286 26.41 90.9486 26.93 89.8486 26.93C85.6986 26.93 81.5486 26.93 77.3986 26.93C76.3386 26.93 75.8086 26.43 75.8086 25.52C75.8086 24.61 76.3386 24.13 77.4086 24.13C79.4986 24.13 81.5886 24.13 83.6786 24.13H83.6686Z" fill="#505772"/>
<path d="M85.5105 18.07C86.9805 18.07 88.4405 18.06 89.9105 18.07C90.9705 18.08 91.5105 18.58 91.5005 19.47C91.4905 20.33 90.9705 20.85 89.9705 20.86C87.0405 20.89 84.1005 20.89 81.1705 20.86C80.1505 20.86 79.5805 20.26 79.6105 19.39C79.6405 18.55 80.1805 18.08 81.2005 18.07C82.6405 18.05 84.0705 18.07 85.5105 18.07Z" fill="#505772"/>
<path d="M39.3109 67.82C37.0909 67.82 34.8809 67.84 32.6609 67.82C31.4809 67.81 30.8609 67.04 31.1409 66.01C31.3209 65.35 31.7609 65.02 32.4409 65.02C37.0009 65.02 41.5509 65.01 46.1109 65.02C46.9909 65.02 47.5309 65.61 47.5109 66.43C47.4909 67.25 46.9609 67.8 46.0509 67.81C43.8009 67.84 41.5609 67.81 39.3109 67.82Z" fill="#505772"/>
<path d="M37.3583 73.88C35.7683 73.88 34.1783 73.89 32.5883 73.88C31.6283 73.88 31.0683 73.33 31.0783 72.49C31.0783 71.68 31.6183 71.11 32.5283 71.1C35.8083 71.08 39.0783 71.07 42.3583 71.1C43.2683 71.1 43.7783 71.68 43.7683 72.51C43.7683 73.35 43.2483 73.86 42.3283 73.87C40.6783 73.89 39.0183 73.87 37.3683 73.87L37.3583 73.88Z" fill="#505772"/>
</svg>
