<svg width="140" height="99" viewBox="0 0 140 99" fill="none" xmlns="http://www.w3.org/2000/svg">
<path d="M136.295 79.1591H112.38V82.5H140V79.7205V72.5H136.309V78.1523L136.295 79.1591Z" fill="#505772"/>
<path fill-rule="evenodd" clip-rule="evenodd" d="M41.2634 12.4999H81.693V16.0568H44.9407V17.0731L41.2634 15.6022V12.4999ZM41.2634 58.1201V83.9363H75.571L74.48 89.2908H74.1444C69.7915 89.2795 66.0297 92.2636 65.1441 96.4295L65.1443 99.9999H116.003V96.4181C115.117 92.2499 111.355 89.2658 107.003 89.2772H78.2326L79.3259 83.9363H92.4418V80.3522H44.9407V69.6431H92.4441V66.0613H44.9407V59.3459L41.2634 58.1201ZM69.0025 96.4158H112.198C111.422 94.2863 109.365 92.859 107.053 92.8477H74.1444C71.833 92.8636 69.7792 94.2898 69.0025 96.4158Z" fill="#505772"/>
<path d="M109.338 83.0682V51.7818C109.338 49.8045 107.69 48.2068 105.658 48.2068V45.9522C116.854 43.7818 124.921 34.2386 124.935 23.1454C124.889 11.7454 116.336 2.06134 104.747 0.286339C93.1608 -1.49093 81.9555 5.16361 78.3011 15.9932C78.3011 15.9932 75.8929 23.5454 78.3011 30.3045C81.0493 38.2863 87.9565 44.2432 96.4364 45.95V48.1772C94.4049 48.1772 92.7591 49.7795 92.7591 51.7522V87.5H109.34V83.0682H109.338ZM96.3839 55.3772V51.7522H105.583V83.85H96.409V58.9022L96.3839 55.3772ZM100.089 48.1795V46.3409H101.928V48.1795H100.089ZM101.008 42.8159C92.8185 42.8227 85.4297 38.0318 82.2911 30.6795C79.1548 23.3295 80.8827 14.8659 86.6737 9.23634C92.4624 3.60679 101.173 1.9227 108.74 4.96588C116.309 8.01134 121.244 15.1863 121.244 23.1432C121.244 34.0045 112.186 42.8091 101.008 42.8159Z" fill="#505772"/>
<path d="M137.265 13.125H122.903H137.265ZM136.302 17.6159V66.4341H112.38V70H140V18.4545V13.125H121.853L122.903 16.6659H136.307V17.6159H136.302Z" fill="#505772"/>
<path d="M11.1594 35.3536V59.0278C11.1594 59.0278 20.4743 53.1215 33.7549 52.7006C47.0356 52.2797 56.8116 60.6061 56.8116 60.6061V35.3536" stroke="#505772" stroke-width="4"/>
<path d="M31.9955 43.1326L3.59023 31.3132L31.9955 19.4937C32.4441 19.307 33.1632 19.1718 33.9855 19.1718C34.8078 19.1718 35.5269 19.307 35.9755 19.4937L64.3808 31.3132L35.9755 43.1326C35.5269 43.3193 34.8078 43.4546 33.9855 43.4546C33.1632 43.4546 32.4441 43.3193 31.9955 43.1326Z" stroke="#505772" stroke-width="4"/>
<path d="M64.9276 33.3334L64.9276 49.495" stroke="#505772" stroke-width="4" stroke-linecap="round"/>
</svg>
