<svg width="138" height="99" viewBox="0 0 138 99" fill="none" xmlns="http://www.w3.org/2000/svg">
<g clip-path="url(#clip0_3_1801)">
<path d="M134.348 78.3674H110.775V81.6749H138V78.9232V71.7749H134.362V77.3707L134.348 78.3674Z" fill="#505772"/>
<path fill-rule="evenodd" clip-rule="evenodd" d="M40.674 12.375H80.526V15.8963H44.2988V17.0424L40.674 15.5925V12.375ZM40.674 58.1121V83.097H74.4915L73.416 88.398H73.0853C68.7945 88.3867 65.0865 91.341 64.2135 95.4653L64.2137 99H114.346V95.454C113.473 91.3275 109.765 88.3733 105.474 88.3845H77.115L78.1928 83.097H91.1213V79.5488H44.2988V68.9468H91.1235V65.4007H44.2988V59.3203L40.674 58.1121ZM68.0168 95.4518H110.595C109.83 93.3435 107.803 91.9305 105.524 91.9193H73.0853C70.8068 91.935 68.7825 93.347 68.0168 95.4518Z" fill="#505772"/>
<path d="M107.776 82.2373V51.2638C107.776 49.3063 106.151 47.7245 104.149 47.7245V45.4925C115.185 43.3438 123.137 33.896 123.15 22.9138C123.105 11.6278 114.674 2.04054 103.251 0.283294C91.83 -1.47621 80.7848 5.11179 77.1825 15.833C77.1825 15.833 74.8088 23.3098 77.1825 30.0013C79.8915 37.9033 86.7 43.8005 95.0588 45.4903V47.6953C93.0563 47.6953 91.434 49.2815 91.434 51.2345V86.6248H107.778V82.2373H107.776ZM95.007 54.8233V51.2345H104.075V83.0113H95.0318V58.313L95.007 54.8233ZM98.6588 47.6975V45.8773H100.472V47.6975H98.6588ZM99.5655 42.3875C91.4925 42.3943 84.2093 37.6513 81.1155 30.3725C78.024 23.096 79.7273 14.717 85.4355 9.14379C91.1415 3.57054 99.7275 1.90329 107.186 4.91604C114.647 7.93104 119.512 15.0343 119.512 22.9115C119.512 33.6643 110.584 42.3808 99.5655 42.3875Z" fill="#505772"/>
<path d="M135.305 12.9937H121.148H135.305ZM134.355 17.4397V65.7697H110.775V69.2999H138V18.2699V12.9937H120.113L121.148 16.4992H134.36V17.4397H134.355Z" fill="#505772"/>
</g>
<path d="M11 35V58.4375C11 58.4375 20.1818 52.5902 33.2727 52.1736C46.3636 51.7569 56 60 56 60V35" stroke="#505772" stroke-width="4"/>
<path d="M31.5523 42.684L3.59411 31L31.5523 19.316C31.989 19.1335 32.6929 19 33.5 19C34.3071 19 35.011 19.1335 35.4477 19.316L63.4059 31L35.4477 42.684C35.011 42.8665 34.3071 43 33.5 43C32.6929 43 31.989 42.8665 31.5523 42.684Z" stroke="#505772" stroke-width="4"/>
<path d="M64 33L64 49" stroke="#505772" stroke-width="4" stroke-linecap="round"/>
<defs>
<clipPath id="clip0_3_1801">
<rect width="99" height="99" fill="white" transform="translate(39)"/>
</clipPath>
</defs>
</svg>
