<svg width="109" height="100" viewBox="0 0 109 100" fill="none" xmlns="http://www.w3.org/2000/svg">
<path d="M52.6357 0.106812C42.9278 0.106812 35.0412 7.99999 35.0412 17.7136C35.0412 27.4295 42.9278 35.3204 52.6357 35.3204C62.3412 35.3204 70.2278 27.4295 70.2278 17.7136C70.2278 7.99999 62.3775 0.106812 52.6357 0.106812V0.106812ZM52.6357 30.2864C45.7119 30.2864 40.0734 24.6432 40.0734 17.7136C40.0734 10.7864 45.7119 5.14318 52.6357 5.14318C59.5572 5.14318 65.1956 10.7864 65.1956 17.7136C65.1956 24.6432 59.5935 30.2864 52.6357 30.2864ZM17.7352 64.7136C8.02967 64.7136 0.143066 72.6068 0.143066 82.3204C0.143066 92.0364 8.02967 99.9295 17.7352 99.9295C27.4408 99.9295 35.3274 92.0364 35.3274 82.3204C35.3274 72.6068 27.4408 64.7136 17.7352 64.7136V64.7136ZM17.7352 94.8568C10.8114 94.8568 5.17523 89.2136 5.17523 82.2864C5.17523 75.3568 10.8114 69.7136 17.7352 69.7136C24.659 69.7136 30.2952 75.3568 30.2952 82.2864C30.2952 89.2136 24.659 94.8568 17.7352 94.8568ZM89.3187 64.7136C79.6131 64.7136 71.7265 72.6068 71.7265 82.3204C71.7265 92.0364 79.6131 99.9295 89.3187 99.9295C99.0242 99.9295 106.911 92.0364 106.911 82.3204C106.911 72.6068 99.0242 64.7136 89.3187 64.7136V64.7136ZM89.3187 94.8568C82.3949 94.8568 76.7564 89.2136 76.7564 82.2864C76.7564 75.3568 82.3949 69.7136 89.3187 69.7136C96.2402 69.7136 101.879 75.3568 101.879 82.2864C101.879 89.2136 96.2402 94.8568 89.3187 94.8568ZM55.3834 40.5H50.3512V55.7136L35.7202 63.5704L38.0751 68L52.8491 60.0704L67.194 68L69.6215 63.6068L55.3834 55.75V40.5Z" fill="#505772"/>
</svg>
