<svg width="153" height="152" viewBox="0 0 153 152" fill="none" xmlns="http://www.w3.org/2000/svg">
<path d="M39.3924 141.833H147.01C147.01 141.833 151.341 141.075 151.341 146.164C151.341 146.164 151.846 150.429 145.748 150.429H82.6519C82.6519 150.429 77.6165 144.888 71.5181 151H5.56603C5.56603 151 -0.79801 149.791 1.50048 144.437C1.50048 144.437 2.00532 141.833 7.61206 141.833H25.4155" stroke="#505772" stroke-width="2" stroke-miterlimit="10" stroke-linecap="round" stroke-linejoin="round"/>
<path d="M142.174 141.833V133.183C142.174 133.183 125.885 130.646 110.885 123.006C110.885 123.006 88.7502 109.268 76.0354 125.291C76.0354 125.291 68.4092 111.049 43.9761 121.478C43.9761 121.478 22.8644 133.183 10.3888 132.16V141.314" stroke="#505772" stroke-width="2" stroke-miterlimit="10" stroke-linecap="round" stroke-linejoin="round"/>
<path d="M76.4606 141.912V66.6067" stroke="#505772" stroke-width="2" stroke-miterlimit="10" stroke-linecap="round" stroke-linejoin="round"/>
<path d="M76.4608 102.732C76.4608 102.732 75.7832 91.8769 90.0259 83.0549C90.0259 83.0549 88.6707 63.0461 111.563 56.9344C111.563 56.9344 120.039 54.9017 127.161 57.1072C127.161 57.1072 124.45 81.3676 103.75 84.7555C103.75 84.7555 98.6619 86.4562 89.335 83.5997" stroke="#505772" stroke-width="2" stroke-miterlimit="10" stroke-linecap="round" stroke-linejoin="round"/>
<path d="M76.1153 97.6431C76.1153 97.6431 72.8868 90.0168 64.5829 84.078C64.5829 84.078 63.4004 50.8361 26.4252 57.7848C26.4252 57.7848 25.575 78.8167 49.9948 84.5828C49.9948 84.5828 57.3951 85.4332 65.885 85.2604" stroke="#505772" stroke-width="2" stroke-miterlimit="10" stroke-linecap="round" stroke-linejoin="round"/>
<path d="M84.1797 66.6466H69.0469C67.9973 66.6466 67.1337 65.7963 67.1337 64.7334V54.6891C67.1337 53.6395 67.984 52.7759 69.0469 52.7759H84.1797C85.2294 52.7759 86.093 53.6262 86.093 54.6891V64.7334C86.0797 65.7963 85.2294 66.6466 84.1797 66.6466Z" stroke="#505772" stroke-width="2" stroke-miterlimit="10" stroke-linecap="round" stroke-linejoin="round"/>
<path d="M76.5403 27.5989V52.7893" stroke="#505772" stroke-width="2" stroke-miterlimit="10" stroke-linecap="round" stroke-linejoin="round"/>
<path d="M87.6607 4.1621C84.3259 2.1559 80.4331 1 76.2612 1C64.0513 1 54.1531 10.8981 54.1531 23.108C54.1531 31.4384 58.7635 38.6927 65.5792 42.4526C65.4065 42.9442 65.2869 43.4491 65.2869 44.0071V48.7104C65.2869 51.2347 67.333 53.2941 69.8706 53.2941H82.6518C85.1762 53.2941 87.2355 51.248 87.2355 48.7104V44.0071C87.2355 43.4624 87.1293 42.9442 86.9433 42.4526C93.7458 38.6794 98.3693 31.4384 98.3693 23.108C98.3693 19.7334 97.612 16.5447 96.2701 13.6882" stroke="#505772" stroke-width="2" stroke-miterlimit="10" stroke-linecap="round" stroke-linejoin="round"/>
</svg>
