<svg width="100" height="100" viewBox="0 0 100 100" fill="none" xmlns="http://www.w3.org/2000/svg">
<path d="M54.5795 1.15912H40.8954V14.8409H54.5772V1.15912H54.5795ZM51.9477 12.2114H43.5272V3.78866H51.9477V12.2114ZM44.1045 98.8409H60.6568L52.7363 85.5273L44.1045 98.8432V98.8409ZM48.9454 96.2114L52.6568 90.5L56.0522 96.2114H48.9477H48.9454ZM15.1318 52.8682C15.1318 49.1318 12.0795 46.0796 8.34315 46.0796C4.60452 46.0796 1.55225 49.1318 1.55225 52.8682C1.55225 56.6046 4.60452 59.6568 8.34315 59.6568C12.0795 59.6568 15.1318 56.6318 15.1318 52.8682ZM4.18406 52.8682C4.18406 50.5796 6.05225 48.7091 8.34315 48.7091C10.6318 48.7091 12.5 50.5796 12.5 52.8682C12.5 55.1568 10.6318 57.0273 8.34088 57.0273C6.05225 57.0273 4.18406 55.1568 4.18406 52.8682V52.8682ZM98.4477 43.9728L96.6045 42.1046L92.6045 46.1046L88.6318 42.1046L86.7636 43.9728L90.7363 47.9478L86.7636 51.9478L88.6318 53.8159L92.6045 49.8159L96.6045 53.8159L98.4477 51.9478L94.4727 47.9478L98.4477 43.9728ZM41.1591 41.9205C41.1591 45.7887 43.4727 49.2114 46.9477 50.7114C42.1295 51 37.7886 53.5273 35 57.7637L34.9477 57.8432V65.8432H66.5795V57.8432L66.5272 57.7637C63.7091 53.5273 59.3954 51 54.5795 50.7114C58.0522 49.2114 60.3681 45.7637 60.3681 41.9205C60.3681 36.6046 56.0522 32.2887 50.7636 32.2887C45.4727 32.2887 41.1568 36.6068 41.1568 41.9205H41.1591ZM63.9727 58.6318V63.2364H37.5272V58.6318C39.8954 55.2909 43.7636 53.2909 47.8431 53.2909H53.6318C57.7363 53.2909 61.6045 55.2909 63.9727 58.6318V58.6318ZM57.7363 41.9205C57.7363 45.7887 54.6045 48.9478 50.7363 48.9478C46.8681 48.9478 43.7363 45.7887 43.7363 41.9205C43.7363 38.0523 46.8681 34.8955 50.7363 34.8955C54.6045 34.8955 57.7363 38.0546 57.7363 41.9205V41.9205ZM57.9477 9.68412C73.1068 12.6046 85.3431 23.6046 89.8431 38.3682L89.9204 38.6046L93.0272 38.4455L92.9204 38.0523C88.2386 21.8932 74.5 9.5523 57.9477 6.60457L57.5522 6.5273L57.7113 9.63185L57.9477 9.68412V9.68412ZM9.26361 42.6318C12.1818 27.4728 23.1818 15.2364 37.9454 10.7364L38.1841 10.6568L38.025 7.5523L37.6318 7.68412C21.4727 12.3682 9.13179 26.1046 6.18179 42.6591L6.10225 43.0818L9.20906 42.8978L9.26134 42.6341L9.26361 42.6318ZM42.2113 91.3409C27.0522 88.4205 14.8159 77.4205 10.3159 62.6591L10.2363 62.4205L7.13179 62.5796L7.23634 62.9728C11.9204 79.1318 25.6568 91.4728 42.2113 94.4205L42.6318 94.5L42.4727 91.3955L42.2113 91.3432V91.3409ZM90.9204 58.3955C88 73.5546 77 85.7887 62.2386 90.2887L62 90.3682L62.1591 93.4728L62.5522 93.3682C78.7113 88.6864 91.0522 74.9478 94 58.3955L94.0795 58L90.9727 58.1591L90.9204 58.3955V58.3955Z" fill="#505772"/>
</svg>
