<svg width="75" height="75" viewBox="0 0 75 75" fill="none" xmlns="http://www.w3.org/2000/svg">
<path d="M20.9902 53.899L28.7114 55.8399H29.1387L47.5687 52.7501L52.0075 53.004C52.2459 53.0182 52.4825 52.9525 52.682 52.8211L67.978 42.4188C69.0656 41.7529 70.4693 42.0193 71.2515 43.0403C72.0337 44.0614 71.9507 45.5175 71.0573 46.4373L55.9291 60.329C54.6843 61.3643 53.1976 62.0515 51.6138 62.3267L28.1835 65.7717C27.4507 65.8871 26.7021 65.8356 25.9923 65.6225L13.6291 60.8564L12.854 62.9589L25.2154 67.7463H25.3178C25.9888 67.947 26.6844 68.0482 27.3836 68.0446C27.7615 68.0482 28.1376 68.0215 28.5084 67.9647L51.9387 64.5198C53.9374 64.1966 55.8143 63.3371 57.3787 62.0284L72.5175 48.1598C74.4191 46.4906 74.7069 43.5926 73.1743 41.5664C71.6399 39.5421 68.8219 39.0982 66.7649 40.5596L51.7709 50.7524L48.5133 50.5695L48.4233 49.6869C48.116 46.4409 45.6706 43.8359 42.5118 43.383L30.2617 41.9482C27.592 41.5611 25.0229 40.6448 22.6993 39.2491C19.5829 37.4005 16.0905 36.3156 12.4938 36.0812L12.3596 38.3772C15.612 38.5867 18.7725 39.5687 21.587 41.2468C24.1648 42.7882 27.0129 43.8039 29.9703 44.2318L42.164 45.6684C44.3181 45.9845 45.9813 47.7603 46.1968 49.9728L46.2762 50.7542L29.0151 53.5545L21.5075 51.6722L20.9902 53.899V53.899ZM10.594 32.5297V66.2689H0V63.964H8.04965V34.847H0V32.5297H10.594Z" fill="white"/>
<path d="M47.7445 30.4018H45.2173C44.6149 30.4018 44.1266 30.8784 44.1266 31.4657C44.1266 32.0531 44.6149 32.5297 45.2173 32.5297H55.0056C55.608 32.5297 56.0946 32.0531 56.0946 31.4657V25.1556C56.0896 21.4015 52.9768 18.3588 49.134 18.3521H48.3184C50.906 16.0698 51.7887 12.4616 50.5368 9.28136C49.285 6.09778 46.1571 4 42.67 4C39.183 4 36.055 6.09778 34.8032 9.28136C33.5513 12.4616 34.434 16.0681 37.0216 18.3521H36.2061C32.3633 18.3588 29.2504 21.4015 29.2454 25.1556V31.4657C29.2504 32.0498 29.7371 32.5197 30.3345 32.5197H40.1227C40.7251 32.5197 41.2134 32.0431 41.2134 31.4557C41.2134 30.8683 40.7251 30.3917 40.1227 30.3917H37.5955M35.4174 30.3917H31.4319V25.1556C31.4319 22.5779 33.5681 20.4868 36.2061 20.4818H49.134C51.7719 20.4868 53.9081 22.5796 53.9081 25.1556V30.4018H49.9227M36.4192 12.2434C36.4192 8.8702 39.2182 6.1347 42.67 6.1347C46.1218 6.1347 48.9209 8.8702 48.9209 12.2434C48.9209 15.6166 46.1218 18.3521 42.67 18.3521C39.2232 18.3421 36.4343 15.6116 36.4292 12.2434H36.4192Z" fill="white"/>
</svg>
