<svg width="187" height="110" viewBox="0 0 187 110" fill="none" xmlns="http://www.w3.org/2000/svg">
<path d="M144.44 1.62891H41.7012C37.7723 1.62891 34.5874 4.81384 34.5874 8.74266V76.6115C34.5874 80.5403 37.7723 83.7252 41.7012 83.7252H144.44C148.368 83.7252 151.553 80.5403 151.553 76.6115V8.74266C151.553 4.81384 148.368 1.62891 144.44 1.62891Z" stroke="#505772" stroke-width="3" stroke-linecap="round" stroke-linejoin="round"/>
<path d="M124.737 101.752H150.081M46.9069 101.752H109.003H46.9069Z" stroke="#505772" stroke-width="3" stroke-linecap="round" stroke-linejoin="round"/>
<path d="M41.0506 95.4521V108.052" stroke="#505772" stroke-width="3" stroke-linecap="round" stroke-linejoin="round"/>
<path d="M34.5884 95.4521V108.052" stroke="#505772" stroke-width="3" stroke-linecap="round" stroke-linejoin="round"/>
<path d="M116.795 107.124C119.612 107.124 121.896 104.719 121.896 101.752C121.896 98.7851 119.612 96.3799 116.795 96.3799C113.979 96.3799 111.695 98.7851 111.695 101.752C111.695 104.719 113.979 107.124 116.795 107.124Z" stroke="#505772" stroke-width="3" stroke-linecap="round" stroke-linejoin="round"/>
<path fill-rule="evenodd" clip-rule="evenodd" d="M81.8802 32.0785L81.835 54.2918C81.8503 58.2631 84.3141 56.4088 85.6968 55.5596L103.192 44.8147C103.88 44.388 104.405 43.3644 104.292 42.3789C104.155 41.201 103.253 40.5742 102.374 40.0317L85.1755 29.4199C84.5436 29.0297 84.0463 28.5841 83.4723 28.6148C81.9408 28.6967 81.8829 30.612 81.8802 32.0786L81.8802 32.0785Z" stroke="#505772" stroke-width="3"/>
<path d="M182.745 1.62891H162.404C161.226 1.62891 160.272 2.58356 160.272 3.76119V82.2967C160.272 83.4743 161.226 84.429 162.404 84.429H182.745C183.923 84.429 184.878 83.4743 184.878 82.2967V3.76119C184.878 2.58356 183.923 1.62891 182.745 1.62891Z" stroke="#505772" stroke-width="3" stroke-linecap="round" stroke-linejoin="round"/>
<path d="M160.272 34.749H184.878" stroke="#505772" stroke-width="3"/>
<path d="M160.272 51.3096H184.878" stroke="#505772" stroke-width="3"/>
<path d="M160.272 67.8691H184.878" stroke="#505772" stroke-width="3"/>
<path d="M160.272 18.1895H184.878" stroke="#505772" stroke-width="3"/>
<path d="M34.5874 56.926H1.12305M1.12305 35.2725H34.5874H1.12305Z" stroke="#505772" stroke-width="3"/>
<path d="M3.56006 35.2725H32.2194" stroke="#FEFEFE" stroke-width="3" stroke-dasharray="2.5 2.5"/>
<path d="M3.56006 56.9248H32.2194" stroke="#FEFEFE" stroke-width="3" stroke-dasharray="2.5 2.5"/>
<path d="M3.56006 53.9727H32.2194" stroke="#FEFEFE" stroke-width="3" stroke-dasharray="2.5 2.5"/>
<path d="M20.8238 39.9531H2.14429V52.0203H20.8238V39.9531Z" stroke="#505772" stroke-width="3"/>
<path d="M34.5875 39.9531H25.7451V52.0203H34.5875V39.9531Z" stroke="#505772" stroke-width="3"/>
</svg>
