<svg width="144" height="122" viewBox="0 0 144 122" fill="none" xmlns="http://www.w3.org/2000/svg">
<path d="M27.5364 51.3037V47.1254C27.5364 39.4659 34.564 33.2002 43.1541 33.2002H124.46V88.7195C124.46 96.377 117.431 102.645 108.842 102.645H47.2285L27.5364 120.25V102.645V90.54" stroke="#505772" stroke-width="3" stroke-linecap="round" stroke-linejoin="round"/>
<path d="M53.6436 26.9409V15.6382H81.3359L96.9129 1.75L113.355 16.4098H141.913V81.9969H132.138" stroke="#505772" stroke-width="3" stroke-linecap="round" stroke-linejoin="round"/>
<path d="M67.3024 59.7939H67.3021C63.9384 59.7939 61.2115 62.5208 61.2115 65.8845V75.6298C61.2115 78.9935 63.9384 81.7203 67.3021 81.7203H67.3024C70.6661 81.7203 73.3929 78.9935 73.3929 75.6298V65.8845C73.3929 62.5208 70.6661 59.7939 67.3024 59.7939Z" stroke="#505772" stroke-width="3" stroke-linecap="round" stroke-linejoin="round"/>
<path d="M79.8898 77.2539C79.8898 84.1771 74.2256 89.8413 67.3032 89.8413H67.3024C60.3792 89.8413 54.715 84.1771 54.715 77.2539" stroke="#505772" stroke-width="3" stroke-linecap="round" stroke-linejoin="round"/>
<path d="M67.3022 89.8408V97.9618" stroke="#505772" stroke-width="3" stroke-linecap="round" stroke-linejoin="round"/>
<path fill-rule="evenodd" clip-rule="evenodd" d="M7.08643 57.2891H45.488V79.9111C45.488 82.6611 43.238 84.9111 40.488 84.9111H2.08643V62.2891C2.08643 59.5391 4.33643 57.2891 7.08643 57.2891V57.2891Z" stroke="#505772" stroke-width="3"/>
<path d="M86.7948 50.4639C106.283 50.4639 113.37 50.4639 113.37 50.4639" stroke="#505772" stroke-width="3" stroke-linecap="round" stroke-linejoin="round"/>
<path d="M86.7948 62.2744C106.283 62.2744 113.37 62.2744 113.37 62.2744" stroke="#505772" stroke-width="3" stroke-linecap="round" stroke-linejoin="round"/>
<path d="M86.7948 74.084C106.283 74.084 113.37 74.084 113.37 74.084" stroke="#505772" stroke-width="3" stroke-linecap="round" stroke-linejoin="round"/>
<path d="M86.7948 85.8945C106.283 85.8945 113.37 85.8945 113.37 85.8945" stroke="#505772" stroke-width="3" stroke-linecap="round" stroke-linejoin="round"/>
<path d="M2.08643 76.4809L9.03922 67.1632L18.8817 77.0057L28.7242 64.2104L37.5825 77.0057L45.488 62.7344" stroke="#505772" stroke-width="3" stroke-linecap="round" stroke-linejoin="round"/>
<path d="M18.8974 68.1475C20.5195 68.1475 21.8344 66.8325 21.8344 65.2104C21.8344 63.5884 20.5195 62.2734 18.8974 62.2734C17.2754 62.2734 15.9604 63.5884 15.9604 65.2104C15.9604 66.8325 17.2754 68.1475 18.8974 68.1475Z" fill="#505772"/>
</svg>
