<svg width="97" height="90" viewBox="0 0 97 90" fill="none" xmlns="http://www.w3.org/2000/svg">
<path d="M38.6303 6.3587C38.6303 6.75301 38.4582 7.23877 37.9246 7.80438C37.3834 8.37796 36.5302 8.96257 35.3621 9.48621C33.0293 10.5319 29.7014 11.2174 25.9455 11.2174C22.1897 11.2174 18.8617 10.5319 16.529 9.48621C15.3608 8.96257 14.5077 8.37796 13.9665 7.80438C13.4328 7.23877 13.2607 6.75301 13.2607 6.3587C13.2607 5.96438 13.4328 5.47862 13.9665 4.91302C14.5077 4.33943 15.3608 3.75482 16.529 3.23118C18.8617 2.18545 22.1897 1.5 25.9455 1.5C29.7014 1.5 33.0293 2.18545 35.3621 3.23118C36.5302 3.75482 37.3834 4.33943 37.9246 4.91302C38.4582 5.47862 38.6303 5.96438 38.6303 6.3587Z" stroke="#505772" stroke-width="3"/>
<path d="M38.6303 43.5325C38.6303 43.9268 38.4582 44.4126 37.9246 44.9782C37.3834 45.5518 36.5302 46.1364 35.3621 46.66C33.0293 47.7058 29.7014 48.3912 25.9455 48.3912C22.1897 48.3912 18.8617 47.7058 16.529 46.66C15.3608 46.1364 14.5077 45.5518 13.9665 44.9782C13.4328 44.4126 13.2607 43.9268 13.2607 43.5325C13.2607 43.1382 13.4328 42.6524 13.9665 42.0868C14.5077 41.5133 15.3608 40.9286 16.529 40.405C18.8617 39.3593 22.1897 38.6738 25.9455 38.6738C29.7014 38.6738 33.0293 39.3593 35.3621 40.405C36.5302 40.9286 37.3834 41.5133 37.9246 42.0868C38.4582 42.6524 38.6303 43.1382 38.6303 43.5325Z" stroke="#505772" stroke-width="3"/>
<path d="M33.7393 24.9457C33.7393 31.7029 32.7164 37.7539 31.1117 42.0612C30.3072 44.2206 29.3853 45.8636 28.4376 46.9395C27.4879 48.0178 26.642 48.3913 25.9458 48.3913C25.2496 48.3913 24.4038 48.0178 23.454 46.9395C22.5063 45.8636 21.5844 44.2206 20.78 42.0612C19.1753 37.7539 18.1523 31.7029 18.1523 24.9457C18.1523 18.1884 19.1753 12.1374 20.78 7.83008C21.5844 5.67072 22.5063 4.02775 23.454 2.95181C24.4038 1.8735 25.2496 1.5 25.9458 1.5C26.642 1.5 27.4879 1.8735 28.4376 2.95181C29.3853 4.02775 30.3072 5.67072 31.1117 7.83008C32.7164 12.1374 33.7393 18.1884 33.7393 24.9457Z" stroke="#505772" stroke-width="3"/>
<path d="M12.739 44.9999L17.1412 57.7173C17.4673 58.5325 18.5108 60.1629 20.076 60.1629C21.6412 60.1629 48.7716 60.1629 62.1412 60.1629C62.9564 60.326 64.6847 60.0651 65.076 57.7173C65.4673 55.3695 68.826 36.5216 70.4564 27.3912C70.6195 26.4129 70.4564 24.4564 68.4999 24.4564C66.5434 24.4564 7.84772 24.4564 2.46729 24.4564" stroke="#505772" stroke-width="3" stroke-linecap="round"/>
<path d="M17.6297 72.8805C17.3036 71.2501 17.434 67.9892 20.5644 67.9892C23.6949 67.9892 50.2386 67.9892 63.1192 67.9892H67.5214C69.3149 67.9892 73.2931 66.6197 74.8584 61.1414M76.3257 51.8479L81.2171 21.5219" stroke="#505772" stroke-width="3" stroke-linecap="round"/>
<rect x="79.3648" y="17.0643" width="13.857" height="6.48205" rx="3.24103" transform="rotate(-31.1985 79.3648 17.0643)" stroke="#505772" stroke-width="3"/>
<circle cx="31.3268" cy="81.1956" r="7.30435" stroke="#505772" stroke-width="3"/>
<circle cx="59.6959" cy="81.1956" r="7.30435" stroke="#505772" stroke-width="3"/>
<circle cx="25.9457" cy="24.9457" r="23.4457" stroke="#505772" stroke-width="3"/>
</svg>
