<svg width="73" height="73" viewBox="0 0 73 73" fill="none" xmlns="http://www.w3.org/2000/svg">
<rect width="73" height="73" rx="5" fill="#007EBB"/>
<path d="M12.9342 29.1188H22.8899V61.0904H12.9342V29.1188ZM17.9047 13.2063C21.0809 13.2063 23.6625 15.7879 23.6625 18.9641C23.6625 22.1403 21.0809 24.7282 17.9068 24.7282C16.3789 24.7249 14.9145 24.1166 13.8339 23.0364C12.7533 21.9562 12.1445 20.492 12.1406 18.9641C12.1406 18.2075 12.2898 17.4582 12.5795 16.7592C12.8693 16.0603 13.2939 15.4252 13.8293 14.8905C14.3646 14.3558 15.0001 13.9318 15.6994 13.6428C16.3987 13.3538 17.1481 13.2055 17.9047 13.2063ZM29.1063 29.1188H38.637V33.4885H38.7689C40.0964 30.976 43.3375 28.3253 48.1908 28.3253C58.2534 28.3253 60.1105 34.9478 60.1105 43.5552V61.0925H50.1799V45.5401C50.1799 41.8341 50.1129 37.0604 45.0167 37.0604C39.8451 37.0604 39.0495 41.1013 39.0495 45.2679V61.0841H29.1209V29.1125L29.1063 29.1188Z" fill="white"/>
</svg>
