<svg width="120" height="86" viewBox="0 0 120 86" fill="none" xmlns="http://www.w3.org/2000/svg">
<path d="M70.9646 55.267C77.1542 51.8002 83.2084 48.4148 89.2084 45.0023C90 44.5758 92.7291 42.6563 92.7291 42.6563C92.7291 42.6563 89.8375 40.6844 89.0207 40.2035C84.8749 37.8303 80.702 35.5113 76.5291 33.1924C74.6749 32.1512 72.8478 31.1119 70.9375 30.0455C70.1749 31.3252 69.5478 32.4188 68.7833 33.6984C74.1291 36.7115 79.2833 39.618 84.6833 42.6563C79.202 45.7488 74.0188 48.6824 68.7833 51.6412C69.5478 52.948 70.2291 54.0668 70.9665 55.267H70.9646ZM37.8271 49.0547C41.5084 51.108 45.1917 53.1594 48.9813 55.2922C49.7459 54.0397 50.4 52.9209 51.1355 51.6664C45.7917 48.6553 40.6355 45.7217 35.2355 42.6834C40.6646 39.618 45.8459 36.7115 51.1355 33.7256C50.3459 32.3916 49.6917 31.2729 48.9813 30.0727C43.0917 33.3785 37.3917 36.6572 31.6084 39.8041C30.3 40.4963 27.2729 42.8152 27.2729 42.8152C27.2729 42.8152 30.5439 44.9752 31.6917 45.615C33.7626 46.7086 35.7813 47.9088 37.8271 49.0547V49.0547ZM65.9729 24.2074C64.5542 23.8604 63.273 23.5404 61.773 23.1953C58.5271 35.9379 55.3084 48.4943 52.0646 61.1594C53.5917 61.5045 54.871 61.7992 56.2917 62.1191C59.5355 49.3998 62.7271 36.8705 65.9729 24.2074V24.2074Z" fill="#505772"/>
<path d="M0.845825 2.21239V83.1022H119.127V2.21045H0.845825V2.21239ZM115.065 79.1003H4.9355V6.21238H115.036V79.1003H115.065V79.1003Z" fill="#505772"/>
</svg>
