<svg width="147" height="100" viewBox="0 0 147 100" fill="none" xmlns="http://www.w3.org/2000/svg">
<path d="M87.1487 65.773C94.8379 61.4753 102.359 57.2786 109.812 53.0482C110.796 52.5194 114.186 50.1398 114.186 50.1398C114.186 50.1398 110.594 47.6953 109.579 47.0992C104.429 44.1571 99.2451 41.2824 94.0613 38.4077C91.7579 37.1169 89.4882 35.8286 87.1151 34.5066C86.1677 36.093 85.3887 37.4486 84.439 39.035C91.0799 42.7702 97.4827 46.3733 104.191 50.1398C97.3817 53.9736 90.9428 57.6103 84.439 61.2782C85.3887 62.8983 86.235 64.2852 87.1511 65.773H87.1487ZM45.9835 58.0718C50.5566 60.6172 55.1321 63.1603 59.8399 65.8043C60.7896 64.2515 61.6023 62.8646 62.5159 61.3095C55.8775 57.5766 49.4722 53.9399 42.764 50.1734C49.5083 46.3733 55.9448 42.7702 62.5159 39.0687C61.5349 37.415 60.7223 36.0281 59.8399 34.5402C52.5234 38.6384 45.4425 42.7029 38.2582 46.604C36.6329 47.4621 32.8724 50.3369 32.8724 50.3369C32.8724 50.3369 36.9358 53.0145 38.3616 53.8077C40.9343 55.1634 43.4421 56.6512 45.9835 58.0718V58.0718ZM80.9478 27.2692C79.1854 26.839 77.5937 26.4424 75.7304 26.0145C71.6982 41.8112 67.6998 57.3771 63.67 73.0776C65.5671 73.5055 67.1564 73.8708 68.9212 74.2674C72.9509 58.4996 76.9157 42.9673 80.9478 27.2692V27.2692Z" fill="#505772"/>
<path d="M0 0.00239704V100H147V0H0V0.00239704ZM141.951 95.0527H5.08265V4.94727H141.915V95.0527H141.951V95.0527Z" fill="#505772"/>
</svg>
