<svg width="113" height="100" viewBox="0 0 113 100" fill="none" xmlns="http://www.w3.org/2000/svg">
<g clip-path="url(#clip0_18_358)">
<path fill-rule="evenodd" clip-rule="evenodd" d="M27.6122 38.5459C27.6817 38.5413 27.7489 38.5272 27.8091 38.5179L27.8114 38.5155C27.8647 38.5085 27.9134 38.4968 27.962 38.4874C28.1057 38.4641 28.2517 38.4313 28.4255 38.4313L28.4208 37.6523H28.4162C28.1938 37.6523 28.0084 37.6851 27.8184 37.7225C27.7257 37.7412 27.633 37.7599 27.5311 37.7693L27.5705 38.1576L27.6122 38.5459V38.5459Z" fill="#505772"/>
<path fill-rule="evenodd" clip-rule="evenodd" d="M45.3241 94.9145H4.82604V94.5239C4.82604 94.5239 4.83299 89.4243 4.83068 81.23C4.82604 60.4646 4.82604 39.7085 4.83299 18.9455C4.83299 11.1792 4.82604 5.95336 4.82604 5.95336V5.56738H107.526L107.538 5.944C107.557 6.52881 107.946 20.2835 107.946 21.4765C107.953 36.7868 107.953 52.1018 107.953 67.4191L108.092 94.9098H107.705C107.705 94.9098 84.5223 94.9215 78.6253 94.9215L45.3241 94.9168V94.9145ZM82.379 99.8105C86.2092 99.8105 109.871 99.9743 113.192 100C113.201 97.6561 113.238 85.4289 113.192 80.0744C113.083 67.8215 113.099 55.4329 113.115 43.456C113.127 35.7529 113.115 20.3397 113.115 20.3397C113.108 18.1221 113.175 2.92638 113.187 0.278369C108.115 0.273691 54.3747 0.252637 35.3074 0.264334L17.6395 0.269012H17.6326C16.8448 0.269012 2.52286 0.0444455 -0.125576 0C-0.102405 1.83162 -0.0305753 9.69146 -0.0630145 18.4145C-0.153381 40.9203 -0.148747 61.4868 -0.0537461 81.2814C-0.00740437 90.9378 -0.0977708 98.1848 -0.123259 99.9158C3.58408 99.9158 32.645 99.9392 39.638 99.9205H63.131C66.3424 99.9205 69.5516 99.8924 72.7631 99.8667C75.9329 99.8363 79.1444 99.8105 82.379 99.8105V99.8105Z" fill="#505772"/>
<path fill-rule="evenodd" clip-rule="evenodd" d="M94.3536 23.8041L89.1355 23.8111C85.7479 23.8275 77.5454 23.762 76.1505 23.748L74.9341 25.5422C74.9364 25.5422 70.1516 33.4769 66.4118 39.6735C65.5475 41.1051 64.7389 42.4432 64.0553 43.566C59.208 51.5896 46.7698 70.7362 46.6447 70.9304L46.5289 71.1011L43.7715 71.1245L24.5606 71.0941L24.4401 76.444C26.0875 76.451 32.5406 76.4556 35.9282 76.4556L49.6384 76.5001C49.7867 76.2779 50.0902 75.81 50.6394 74.9024C55.35 67.1525 60.0885 59.4237 64.8246 51.6925L66.3631 49.1848C69.9222 43.3695 73.4859 37.5588 77.0287 31.7341C78.1618 29.8838 78.4282 29.2756 78.4305 29.2686L78.5302 29.0347H78.7804L94.2076 29.0113L94.3536 23.8041V23.8041Z" fill="#505772"/>
<path fill-rule="evenodd" clip-rule="evenodd" d="M23.8692 52.4972H48.1106V47.1076H23.8692V52.4972ZM23.035 34.3728H56.8437V28.9808H23.035V34.3728Z" fill="#505772"/>
<path fill-rule="evenodd" clip-rule="evenodd" d="M70.5732 69.4754H94.8146V75.9083H70.5732V69.4754Z" fill="#505772"/>
</g>
<defs>
<clipPath id="clip0_18_358">
<rect width="113" height="100" fill="white"/>
</clipPath>
</defs>
</svg>
