<svg width="80" height="80" viewBox="0 0 80 80" fill="none" xmlns="http://www.w3.org/2000/svg">
<path d="M41.6473 72.9182V40.1418H38.3528V72.9418L35.9528 69.1782L33.3164 71.1782L37.6709 76.8691C38.2582 77.6236 39.9764 79.7182 39.9764 79.7182C39.9764 79.7182 41.7182 77.6236 42.2819 76.8709L46.6346 71.1764L44 69.1764L41.6473 72.9182ZM60.8237 54.7291L58.8237 57.3655L62.7055 59.7654H49.9291C49.0109 59.7654 48.2819 59.0345 48.2819 58.1182V44.9182C48.2819 44 49.0109 43.2709 49.9291 43.2709H53.2237V39.9764H49.9273C47.1982 39.9764 44.9873 42.1891 44.9873 44.9182V58.1182C44.9873 60.8455 47.1982 63.0818 49.9273 63.0818H62.7037L58.8219 65.4818L60.8219 68.1182L66.5164 63.7655C67.2691 63.1764 69.3873 61.4818 69.3873 61.4818C69.3873 61.4818 67.2691 59.7182 66.5146 59.1291L60.8219 54.7291H60.8237ZM35.0364 58.0945V44.8945C35.0364 42.1655 32.8237 39.9527 30.0946 39.9527H26.8V43.2473H30.0946C31.011 43.2473 31.7419 43.9764 31.7419 44.8945V58.0945C31.7419 59.0109 31.011 59.7418 30.0946 59.7418H17.7182L21.6 57.3418L19.6 54.7291L13.9055 59.0818C13.1528 59.6709 11.1782 61.3891 11.1782 61.3891C11.1782 61.3891 13.1291 63.1291 13.8819 63.6945L19.5764 68.0473L21.5764 65.4109L17.6946 63.0109H30.0709C32.8237 63.0345 35.0346 60.8236 35.0346 58.0945H35.0364Z" fill="#505772"/>
<path d="M71.3637 30.4946V30C71.3637 22 65.011 15.4582 57.1056 15.1527C54.2583 6.3291 46.0474 0.28183 36.7056 0.28183C25.411 0.28183 16.1183 9.05819 15.2946 20.1655C6.94192 20.9655 0.376465 28.0236 0.376465 36.5891C0.376465 45.6946 7.78919 53.1055 16.8946 53.1055H28.4474V49.8109H16.8946C9.6001 49.8109 3.69465 43.8836 3.69465 36.6109C3.69465 29.8582 8.77647 24.2836 15.3183 23.5055C15.4583 25.2691 15.811 27.0346 16.4001 28.7055L19.5292 27.6473C18.8928 25.7655 18.5656 23.7891 18.5656 21.7655C18.5656 11.7418 26.7056 3.60001 36.7292 3.60001C44.3765 3.60001 51.1056 8.37638 53.7183 15.4109C50.9656 15.9291 48.4237 17.2236 46.3546 19.1764L48.611 21.5764C50.4946 19.8127 52.871 18.7291 55.4346 18.4946L56.2346 18.4473C56.3292 18.4473 56.4237 18.4236 56.5419 18.4236C62.9183 18.4236 68.0946 23.6 68.0946 29.9764C68.0946 30.4473 68.0474 30.94 67.9765 31.5291L67.7655 33.1291L69.3656 33.3655C73.411 34 76.3528 37.4109 76.3528 41.5055C76.3528 46.0473 72.6583 49.7655 68.0946 49.7655H51.5765V53.0582H68.0946C74.471 53.0582 79.6474 47.8818 79.6474 41.5055C79.6237 36.3527 76.2346 31.9291 71.3655 30.4946H71.3637Z" fill="#505772"/>
</svg>
