<svg width="80" height="80" viewBox="0 0 80 80" fill="none" xmlns="http://www.w3.org/2000/svg">
<g clip-path="url(#clip0_3_1457)">
<path d="M41.6473 72.9181V40.1417H38.3527V72.9417L35.9527 69.1781L33.3163 71.1781L37.6709 76.869C38.2582 77.6235 39.9763 79.7181 39.9763 79.7181C39.9763 79.7181 41.7182 77.6235 42.2818 76.8708L46.6345 71.1763L44 69.1763L41.6473 72.9181ZM60.8236 54.729L58.8236 57.3654L62.7054 59.7654H49.9291C49.0109 59.7654 48.2818 59.0345 48.2818 58.1181V44.9181C48.2818 43.9999 49.0109 43.2708 49.9291 43.2708H53.2236V39.9763H49.9273C47.1982 39.9763 44.9873 42.189 44.9873 44.9181V58.1181C44.9873 60.8454 47.1982 63.0817 49.9273 63.0817H62.7036L58.8218 65.4817L60.8218 68.1181L66.5163 63.7654C67.2691 63.1763 69.3872 61.4817 69.3872 61.4817C69.3872 61.4817 67.2691 59.7181 66.5145 59.129L60.8218 54.729H60.8236ZM35.0363 58.0945V44.8945C35.0363 42.1654 32.8236 39.9526 30.0945 39.9526H26.8V43.2472H30.0945C31.0109 43.2472 31.7418 43.9763 31.7418 44.8945V58.0945C31.7418 59.0108 31.0109 59.7417 30.0945 59.7417H17.7182L21.6 57.3417L19.6 54.729L13.9054 59.0817C13.1527 59.6708 11.1782 61.389 11.1782 61.389C11.1782 61.389 13.1291 63.129 13.8818 63.6945L19.5763 68.0472L21.5763 65.4108L17.6945 63.0108H30.0709C32.8236 63.0344 35.0345 60.8235 35.0345 58.0945H35.0363Z" fill="#505772"/>
<path d="M71.3636 30.4945V29.9999C71.3636 21.9999 65.0109 15.4581 57.1054 15.1526C54.2582 6.32901 46.0472 0.281738 36.7054 0.281738C25.4109 0.281738 16.1182 9.0581 15.2945 20.1654C6.9418 20.9654 0.376343 28.0236 0.376343 36.589C0.376343 45.6945 7.78907 53.1054 16.8945 53.1054H28.4473V49.8108H16.8945C9.59998 49.8108 3.69452 43.8836 3.69452 36.6108C3.69452 29.8581 8.77634 24.2836 15.3182 23.5054C15.4582 25.269 15.8109 27.0345 16.4 28.7054L19.5291 27.6472C18.8927 25.7654 18.5654 23.789 18.5654 21.7654C18.5654 11.7417 26.7054 3.59992 36.7291 3.59992C44.3763 3.59992 51.1054 8.37628 53.7182 15.4108C50.9654 15.929 48.4236 17.2236 46.3545 19.1763L48.6109 21.5763C50.4945 19.8126 52.8709 18.729 55.4345 18.4945L56.2345 18.4472C56.3291 18.4472 56.4236 18.4236 56.5418 18.4236C62.9182 18.4236 68.0945 23.5999 68.0945 29.9763C68.0945 30.4472 68.0473 30.9399 67.9763 31.529L67.7654 33.129L69.3654 33.3654C73.4109 33.9999 76.3527 37.4108 76.3527 41.5054C76.3527 46.0472 72.6582 49.7654 68.0945 49.7654H51.5763V53.0581H68.0945C74.4709 53.0581 79.6472 47.8817 79.6472 41.5054C79.6236 36.3526 76.2345 31.929 71.3654 30.4945H71.3636Z" fill="#505772"/>
</g>
<defs>
<clipPath id="clip0_3_1457">
<rect width="80" height="80" fill="white"/>
</clipPath>
</defs>
</svg>
