<svg width="19" height="14" viewBox="0 0 19 14" fill="none" xmlns="http://www.w3.org/2000/svg">
<g clip-path="url(#clip0_221_162)">
<path d="M17.7465 2.67063C17.5383 1.90586 16.938 1.30699 16.1684 1.10245C15.1347 0.705857 5.1221 0.511538 2.21759 1.11381C1.44801 1.32063 0.845375 1.91722 0.639543 2.68199C0.172991 4.71608 0.137542 9.11381 0.650978 11.1934C0.859097 11.9581 1.45944 12.557 2.22902 12.7615C4.27591 13.2297 14.0072 13.2956 16.1799 12.7615C16.9494 12.5547 17.5521 11.9581 17.7579 11.1934C18.2553 8.97745 18.2908 4.85245 17.7465 2.67063Z" fill="white"/>
<path d="M12.1432 6.9318L7.47766 4.27271V9.59089L12.1432 6.9318Z" fill="#505772"/>
</g>
<defs>
<clipPath id="clip0_221_162">
<rect width="18.1818" height="12.5" fill="white" transform="translate(0.136353 0.681885)"/>
</clipPath>
</defs>
</svg>
